<?xml version="1.0" encoding="UTF-8" standalone="no"?>
<!-- Created with Inkscape (http://www.inkscape.org/) -->

<svg
   width="136.04671mm"
   height="139.23347mm"
   viewBox="0 0 136.04671 139.23347"
   version="1.1"
   id="svg1"
   xml:space="preserve"
   xmlns="http://www.w3.org/2000/svg"
   xmlns:svg="http://www.w3.org/2000/svg"><defs
     id="defs1" /><g
     id="layer1"
     transform="translate(151.68539,-55.123975)"><path
       style="fill:#000000"
       d="m -86.414727,192.49371 c -1.09141,-1.05842 -14.188283,-13.63541 -29.104173,-27.94887 -14.91589,-14.31345 -28.69829,-27.57497 -30.62757,-29.47002 l -3.50778,-3.44556 0.0682,-15.85724 0.0682,-15.857228 7.80521,7.626148 c 4.29287,4.19438 13.22255,12.93208 19.84375,19.41712 31.899513,31.24348 37.356333,36.53974 37.568433,36.46309 0.32678,-0.1181 3.24007,-2.96458 31.7524,-31.0243 14.04276,-13.81984 27.22894,-26.79371 29.30261,-28.83082 l 3.77031,-3.703846 v 15.040206 15.0402 l -32.31287,32.17611 c -17.77209,17.69687 -32.38701,32.20386 -32.47761,32.23776 -0.0906,0.0339 -1.0577,-0.80434 -2.1491,-1.86275 z m 9.5401,-9.11296 c 3.98617,-4.0382 17.75785,-17.92109 30.60374,-30.85087 l 23.35616,-23.5087 -0.0129,-10.88714 -0.013,-10.88714 -30.66317,30.82396 -30.66317,30.82396 -15.956703,-15.87741 c -8.77618,-8.73257 -22.68372,-22.5699 -30.90565,-30.74962 l -14.94896,-14.87221 -0.0691,11.03757 -0.0691,11.03757 11.71077,11.65961 c 23.01013,22.9096 50.020053,49.59261 50.200213,49.59261 0.10081,0 3.4447,-3.30398 7.43087,-7.34219 z m -41.197933,-58.99719 -33.61283,-33.805408 16.16501,-0.05996 16.16502,-0.05996 17.50911,-17.667129 17.509113,-17.667128 17.68121,17.660938 17.68121,17.660937 16.66801,0.0013 16.66802,0.0013 -7.40833,7.352046 c -4.07459,4.043624 -16.39756,16.213854 -27.38438,27.044954 -10.98682,10.8311 -23.04606,22.73232 -26.7983,26.44717 -3.75224,3.71484 -6.914,6.78623 -7.02614,6.8253 -0.11213,0.0391 -15.32966,-15.1414 -33.816723,-33.73438 z m 61.470733,2.17792 c 15.11505,-14.98864 28.90784,-28.649739 30.65065,-30.357992 l 3.16874,-3.105915 -14.1226,-0.0029 -14.1226,-0.0029 -12.07115,-11.837748 c -6.63913,-6.510717 -14.12848,-13.858967 -16.64299,-16.329445 l -4.57184,-4.491777 -16.331043,16.329445 -16.33104,16.329446 h -14.15398 -14.15398 l 30.42633,30.427186 c 16.734473,16.73496 30.504463,30.39738 30.599963,30.36094 0.0955,-0.0364 12.54049,-12.32969 27.65554,-27.31834 z"
       id="path1" /><path
       style="fill:#fffdff;fill-opacity:1;stroke:#000000;stroke-width:0.691891"
       d="m -114.7452,123.39547 -30.16723,-30.101506 13.96518,-0.0085 13.96517,-0.0085 16.32118,-16.319688 16.321184,-16.319685 10.166757,9.977366 c 5.591717,5.487551 13.083627,12.83141 16.648689,16.319685 l 6.481934,6.342322 13.925611,0.0016 13.925611,0.0016 -5.381363,5.310814 c -2.959751,2.920942 -11.262426,11.140052 -18.450391,18.264682 -31.75114,31.47136 -37.010281,36.64114 -37.274536,36.64114 -0.154308,0 -13.855814,-13.54568 -30.447796,-30.10151 z"
       id="path2" /><path
       style="fill:#fffdff;fill-opacity:1;stroke:#000000;stroke-width:0.691891"
       d="m -107.15172,168.00005 c -12.4529,-12.31873 -26.30417,-26.07199 -30.78061,-30.56279 l -8.13896,-8.16509 0.0669,-10.75839 0.0669,-10.75839 30.85925,30.7175 30.859242,30.7175 3.986059,-4.06694 c 2.192335,-2.23682 15.952428,-16.0784 30.577988,-30.75907 l 26.591924,-26.69213 -0.01008,10.67617 -0.01011,10.67617 -30.54836,30.69741 c -16.8016,16.88358 -30.622652,30.69254 -30.713452,30.68659 -0.0908,-0.006 -10.353831,-10.0898 -22.806731,-22.40854 z"
       id="path3" /></g></svg>
