<?xml version="1.0" encoding="UTF-8"?>
<svg xmlns="http://www.w3.org/2000/svg" width="58" height="58" viewBox="0 0 58 58" fill="none">
  <rect x="0" y="0" width="58" height="58" rx="5" ry="5" fill="#162847"/>
  <path d="M 42.00 37.50 L 41.00 37.50 L 40.50 37.00 L 40.50 34.00 L 41.00 33.50 L 42.00 33.50 L 42.50 33.00 L 42.50 32.00 L 43.50 31.00 L 43.50 28.00 L 42.50 27.00 L 42.50 26.00 L 41.00 24.50 L 40.00 24.50 L 39.00 23.50 L 34.00 23.50 L 32.50 22.00 L 32.50 21.00 L 31.50 20.00 L 31.50 19.00 L 30.00 17.50 L 29.00 17.50 L 26.00 15.50 L 21.00 15.50 L 20.00 16.50 L 19.00 16.50 L 18.00 17.50 L 17.00 17.50 L 15.50 19.00 L 15.50 20.00 L 14.50 21.00 L 14.50 23.00 L 13.50 24.00 L 13.50 27.00 L 14.50 28.00 L 14.50 30.00 L 16.50 32.00 L 16.50 34.00 L 15.00 35.50 L 11.50 32.00 L 11.50 31.00 L 10.50 30.00 L 10.50 20.00 L 12.50 18.00 L 12.50 17.00 L 15.00 14.50 L 16.00 14.50 L 18.00 12.50 L 20.00 12.50 L 21.00 11.50 L 26.00 11.50 L 27.00 12.50 L 29.00 12.50 L 30.00 13.50 L 31.00 13.50 L 34.50 17.00 L 34.50 18.00 L 36.00 19.50 L 37.00 19.50 L 38.00 20.50 L 42.00 20.50 L 45.50 24.00 L 45.50 25.00 L 46.50 26.00 L 46.50 29.00 L 47.50 30.00 L 46.50 31.00 L 46.50 33.00 L 45.50 34.00 L 45.50 35.00 L 44.00 36.50 L 43.00 36.50 L 42.00 37.50 Z M 29.00 45.50 L 28.00 45.50 L 26.50 44.00 L 26.50 34.00 L 26.00 33.50 L 23.00 36.50 L 21.00 36.50 L 20.50 36.00 L 20.50 34.00 L 28.00 26.50 L 29.00 26.50 L 36.50 34.00 L 36.50 36.00 L 36.00 36.50 L 34.00 36.50 L 31.00 33.50 L 30.50 34.00 L 30.50 44.00 L 29.00 45.50 Z" fill="#60a5fa" fill-rule="evenodd" clip-rule="evenodd"/>
</svg>
