<?xml version="1.0" encoding="UTF-8" standalone="no"?>
<!-- Created with Inkscape (http://www.inkscape.org/) -->

<svg
   width="45.710438mm"
   height="39.517712mm"
   viewBox="0 0 45.710438 39.517712"
   version="1.1"
   id="svg1"
   xml:space="preserve"
   xmlns="http://www.w3.org/2000/svg"
   xmlns:svg="http://www.w3.org/2000/svg"><defs
     id="defs1" /><g
     id="layer1"
     transform="translate(-33.591826,-103.12354)"><path
       style="mix-blend-mode:normal;fill:#ffffff;fill-opacity:1;fill-rule:nonzero;stroke:#ffffff;stroke-width:0.352777;stroke-dasharray:none;stroke-opacity:1"
       d="m 40.0042,140.53095 c 0.107257,-0.1091 4.902679,-3.13775 6.976197,-4.40595 2.271149,-1.38909 2.199275,-1.33773 1.99068,-1.42231 -0.09827,-0.0399 -3.521821,-0.34254 -7.607879,-0.67266 -4.086059,-0.33013 -7.490352,-0.62276 -7.565096,-0.6503 -0.22432,-0.0827 0.621794,-0.31478 8.063396,-2.21214 3.911653,-0.99734 7.267623,-1.85322 7.457707,-1.90196 0.195361,-0.0501 0.330277,-0.13461 0.310341,-0.19442 -0.05838,-0.17514 -0.705538,-0.52151 -6.182548,-3.30902 -7.855455,-3.99802 -9.63131,-4.92506 -9.331796,-4.87146 0.14949,0.0268 2.677229,0.44001 5.617197,0.91836 5.904677,0.96071 10.745522,1.79022 11.625066,1.99205 0.709825,0.16287 0.741825,0.16267 0.741825,-0.005 0,-0.0747 -0.0611,-0.1359 -0.1359,-0.1359 -0.0747,0 -0.1359,-0.0409 -0.1359,-0.091 0,-0.05 -0.328777,-0.44499 -0.730621,-0.87767 -0.401844,-0.43268 -0.853739,-0.94214 -1.004213,-1.13212 -0.336076,-0.42434 -0.343537,-0.42354 1.17878,-0.12534 0.616024,0.12066 1.180394,0.19623 1.254154,0.16793 0.21676,-0.0832 0.02613,-0.40304 -0.947401,-3.33253 -3.793896,-11.4164 -5.232696,-14.88791 -5.151544,-14.96904 0.02079,-0.0208 0.258464,0.24026 0.528215,0.58005 1.054076,1.32775 4.404441,5.71249 4.647834,6.08278 0.141486,0.21525 0.392346,0.53887 0.557466,0.71913 0.16512,0.18027 0.48564,0.60412 0.71226,0.9419 0.22663,0.33779 0.45158,0.63858 0.49989,0.66844 0.0483,0.0299 1.23402,1.52005 2.63489,3.31153 1.40088,1.79148 2.5855,3.281 2.6325,3.31005 0.047,0.029 0.1057,0.0326 0.13045,0.008 0.0247,-0.0248 0.18142,-1.0175 0.34814,-2.20612 0.16673,-1.18861 0.45878,-3.27313 0.64899,-4.63227 0.32297,-2.30767 0.35531,-2.45862 0.48883,-2.28161 0.0786,0.10425 0.56647,1.09396 1.08408,2.19936 0.5176,1.10539 1.42339,3.00627 2.01286,4.22417 l 1.07175,2.21437 0.47369,-0.4463 c 0.26054,-0.24547 1.40659,-1.36424 2.5468,-2.48617 1.14021,-1.12193 2.04562,-1.96068 2.01202,-1.86391 -0.0336,0.0968 -0.34674,1.1568 -0.69586,2.3556 -1.04076,3.57376 -1.81328,6.06264 -1.94761,6.2748 -0.0694,0.10964 -0.27951,0.24192 -0.46685,0.29394 -0.45723,0.12698 -0.4765,0.12347 -0.4765,-0.0867 0,-0.1713 0.67088,-3.39251 0.77813,-3.73613 0.11891,-0.38102 -0.26358,-0.0844 -1.37083,1.0631 -0.64987,0.67351 -1.23279,1.22455 -1.29537,1.22455 -0.24802,0 -0.55828,-0.5202 -1.4412,-2.41637 -0.50649,-1.08775 -0.98665,-2.13598 -1.06701,-2.3294 -0.0954,-0.22964 -0.17692,-0.32086 -0.23489,-0.26289 -0.10936,0.10935 -0.52954,5.33975 -0.53156,6.61681 -7.9e-4,0.51076 -0.0358,0.92865 -0.0777,0.92865 -0.0419,0 -1.44597,-1.34262 -3.1201,-2.98361 -2.75178,-2.69732 -3.3666,-3.25826 -3.46422,-3.16063 -0.046,0.046 0.71891,2.05141 2.18264,5.72284 l 1.29487,3.24791 -0.28843,-0.0513 c -0.15863,-0.0282 -1.69499,-0.21533 -3.41413,-0.41586 -1.71913,-0.20053 -3.591958,-0.42611 -4.161834,-0.50129 -0.569878,-0.0752 -1.159587,-0.1367 -1.310465,-0.1367 -0.236681,0 -0.25612,0.0171 -0.141661,0.12457 0.07297,0.0685 1.693947,0.9615 3.60218,1.98441 l 3.46952,1.85983 -0.70622,0.22981 c -0.38842,0.1264 -1.21584,0.37861 -1.83872,0.56046 -0.62287,0.18185 -2.327197,0.69394 -3.78739,1.13798 -1.46019,0.44404 -2.713868,0.80734 -2.785948,0.80734 -0.208135,0 -0.15195,0.17299 0.07279,0.22413 0.112117,0.0255 1.100788,0.15099 2.197049,0.27884 1.096259,0.12785 2.727058,0.33184 3.623999,0.4533 0.89694,0.12146 1.68516,0.221 1.7516,0.22118 0.0664,1.9e-4 0.10721,0.0381 0.0906,0.0842 -0.0166,0.0461 -1.31445,0.98687 -2.884101,2.09052 -1.569643,1.10365 -2.869573,2.05064 -2.888734,2.10442 -0.02373,0.0667 0.120481,0.0794 0.453001,0.04 0.477711,-0.0566 4.591954,-0.83792 4.904584,-0.93141 0.21354,-0.0639 0.20496,0.14044 -0.0287,0.68369 -0.11336,0.26351 -0.27623,0.47589 -0.41259,0.53802 -0.19788,0.0902 -6.882442,1.53227 -11.223416,2.4213 -0.847111,0.17349 -1.62174,0.33877 -1.721401,0.36729 -0.122224,0.035 -0.151712,0.0219 -0.0906,-0.0403 z"
       id="path4-9" /><path
       style="mix-blend-mode:normal;fill:#ffffff;fill-opacity:1;fill-rule:nonzero;stroke:#ffffff;stroke-width:2.2225;stroke-dasharray:none;stroke-opacity:1"
       d="m 59.32686,133.5109 c -0.53444,-0.36152 -1.25904,-0.89204 -1.61021,-1.17892 -0.52127,-0.42585 -0.62298,-0.55034 -0.55401,-0.67807 0.0465,-0.0861 0.56755,-0.68646 1.15798,-1.33425 0.59042,-0.64779 1.51897,-1.68743 2.06345,-2.3103 1.1301,-1.29282 1.24993,-1.39594 1.53805,-1.32362 0.22353,0.0561 2.71625,2.31979 2.80277,2.54524 0.0787,0.20505 -0.12443,0.68837 -0.93342,2.22118 -0.76236,1.44446 -0.97295,1.74487 -1.36378,1.94546 -0.21092,0.10826 -2.0172,0.77371 -2.0943,0.77157 -0.0191,-5.3e-4 -0.47208,-0.29676 -1.00653,-0.65829 z"
       id="path5-3" /><path
       style="mix-blend-mode:normal;fill:#ffffff;fill-opacity:1;fill-rule:nonzero;stroke:#ffffff;stroke-width:2.2225;stroke-dasharray:none;stroke-opacity:1"
       d="m 70.03809,134.68616 c -0.77237,-0.46742 -1.64892,-0.99887 -1.9479,-1.181 -0.29898,-0.18213 -0.58002,-0.33124 -0.62453,-0.33137 -0.0445,-1.3e-4 -0.37232,0.14777 -0.72846,0.32866 l -0.64752,0.32889 -0.57132,-0.20831 c -0.31422,-0.11457 -0.59141,-0.26068 -0.61597,-0.32469 -0.0462,-0.12032 1.22913,-3.20135 1.46376,-3.53633 0.0728,-0.10388 0.65352,-0.42226 1.29057,-0.70749 0.63705,-0.28524 1.21797,-0.57593 1.29093,-0.64599 0.11503,-0.11044 0.091,-0.12722 -0.1812,-0.12622 -0.17262,5.3e-4 -0.98636,0.1194 -1.80829,0.26392 -1.10647,0.19454 -1.51186,0.2354 -1.5616,0.15739 -0.0795,-0.12465 -1.33807,-3.26804 -1.33807,-3.34186 0,-0.12654 5.8104,-2.45965 6.40187,-2.57061 0.27765,-0.0521 0.42215,0.0173 1.43809,0.69024 0.62119,0.41148 1.12944,0.77472 1.12944,0.8072 0,0.11784 -0.78046,0.82153 -0.90943,0.81997 -0.0729,-8e-4 -0.51778,-0.12319 -0.9887,-0.2718 -0.47093,-0.14861 -0.96605,-0.2702 -1.10027,-0.2702 -0.19902,0 -0.49231,0.26856 -1.58997,1.45591 -0.74026,0.80075 -1.35987,1.51816 -1.37691,1.59425 -0.0461,0.20606 0.24835,0.0933 1.29938,-0.49744 0.4983,-0.28008 1.17909,-0.64823 1.51287,-0.81811 0.57979,-0.2951 0.62595,-0.30407 1.03463,-0.20117 0.23527,0.0592 1.41984,0.4927 2.63239,0.96324 2.96088,1.14899 3.07106,1.13749 1.38841,-0.14494 -1.5454,-1.17782 -1.64645,-1.34379 -1.04467,-1.71571 0.39114,-0.24174 0.81961,-0.23078 1.85844,0.0475 1.05503,0.28265 1.34849,0.44812 1.60852,0.907 0.28379,0.50083 0.83973,1.84022 0.83837,2.01985 -0.002,0.22235 -1.37196,2.98984 -2.01827,4.07621 -0.41404,0.69595 -0.65844,1.00698 -0.9251,1.1773 -0.84795,0.5416 -3.42789,2.01221 -3.60848,2.05688 -0.1411,0.0349 -0.59373,-0.1916 -1.60101,-0.80119 z"
       id="path6-6" /><path
       style="mix-blend-mode:normal;fill:#ffffff;fill-opacity:1;fill-rule:nonzero;stroke:#ffffff;stroke-width:2.2225;stroke-dasharray:none;stroke-opacity:1"
       d="m 64.13022,139.7911 c -1.36297,-0.47775 -2.51723,-0.94433 -2.51835,-1.01798 -2.3e-4,-0.0152 -0.0816,-0.57806 -0.18078,-1.25077 -0.0992,-0.6727 -0.18055,-1.36988 -0.18078,-1.54929 l -5.3e-4,-0.32619 1.13898,-0.42126 c 0.62644,-0.23169 1.20741,-0.42073 1.29105,-0.42009 0.0836,5.3e-4 0.63401,0.12175 1.22305,0.26913 1.17031,0.29283 0.98988,0.30497 2.15871,-0.14529 l 0.42109,-0.16222 0.49411,0.26776 c 0.72282,0.39169 2.68915,1.79283 2.66439,1.89855 -0.0224,0.0955 -3.07795,2.41953 -3.99219,3.03643 -0.29652,0.20008 -0.63989,0.35901 -0.7701,0.35645 -0.12925,-0.003 -0.91619,-0.2434 -1.74876,-0.53523 z"
       id="path9-2" /><path
       style="mix-blend-mode:normal;fill:#ffffff;fill-opacity:1;fill-rule:nonzero;stroke:#ffffff;stroke-width:2.2225;stroke-dasharray:none;stroke-opacity:1"
       d="m 56.65961,140.34638 c -0.67453,-0.53318 -1.84243,-1.83101 -1.84149,-2.04634 7.9e-4,-0.20419 1.24442,-5.13353 1.31211,-5.20122 0.0546,-0.0546 1.04266,0.54674 1.04266,0.63463 0,0.0377 0.0529,0.0483 0.11748,0.0235 0.286,-0.10975 1.72691,0.88019 2.44712,1.68123 0.44748,0.49771 0.43863,0.47028 0.83331,2.58243 0.11174,0.59796 0.17683,1.11665 0.14466,1.15263 -0.0898,0.10042 -3.35187,1.52007 -3.49284,1.52007 -0.0682,0 -0.32159,-0.15614 -0.56301,-0.34698 z"
       id="path10-6" /></g></svg>
