<?xml version="1.0" encoding="UTF-8" standalone="no"?>
<!-- Created with Inkscape (http://www.inkscape.org/) -->

<svg
   width="64.653816mm"
   height="62.37772mm"
   viewBox="0 0 64.653816 62.37772"
   version="1.1"
   id="svg1"
   xml:space="preserve"
   xmlns="http://www.w3.org/2000/svg"
   xmlns:svg="http://www.w3.org/2000/svg"><defs
     id="defs1" /><g
     id="layer1"
     transform="translate(-121.17773,-188.9983)"><path
       style="fill:#ffffff;fill-opacity:1;stroke:#ffffff;stroke-width:1.5;stroke-linecap:square;stroke-linejoin:miter;stroke-dasharray:none;stroke-opacity:1;paint-order:markers fill stroke"
       d="m 151.35467,250.58135 c -16.45792,-1.29474 -29.39626,-14.61791 -29.42688,-30.30213 -0.0469,-24.00388 27.70507,-38.72822 48.34655,-25.65125 24.72552,15.66433 16.99954,51.2534 -12.104,55.7561 -1.10797,0.17142 -5.5208,0.29915 -6.81567,0.19728 z m 4.99534,-0.16231 c 1.15597,-0.0799 2.22828,-0.22753 3.72533,-0.51308 6.89533,-1.31521 13.71216,-5.27393 17.89804,-10.39387 1.54793,-1.89335 3.33836,-4.57084 3.16946,-4.73974 -0.0308,-0.0308 -0.0119,-0.0561 0.0421,-0.0561 0.26409,0 1.86878,-3.70243 2.45861,-5.67267 1.8657,-6.23199 1.67585,-12.60342 -0.555,-18.62666 -0.16385,-0.44239 -0.34775,-0.91864 -0.40867,-1.05834 -0.0609,-0.1397 -0.26695,-0.61707 -0.45783,-1.06083 -5.78659,-13.45224 -22.00936,-21.14705 -36.65888,-17.3881 -2.59235,0.66517 -7.06453,2.40607 -6.89317,2.68333 0.0305,0.0494 0.0113,0.0602 -0.0453,0.0252 -0.52554,-0.32479 -5.84022,3.63591 -8.35807,6.22876 -7.51913,7.74308 -10.12935,19.12897 -6.75646,29.47196 0.35656,1.09342 0.46081,1.36166 1.02815,2.64569 2.00017,4.52686 5.79583,9.13295 10.01466,12.15294 0.51823,0.37097 0.98639,0.64923 1.04034,0.61837 0.054,-0.0309 0.0707,-0.0258 0.0371,0.0114 -0.10383,0.11493 1.13702,0.92059 2.77032,1.7987 5.63152,3.02769 11.58607,4.31254 17.94933,3.87303 z m -5.97795,-0.99267 c -5.80583,-1.45146 -9.81275,-2.00233 -13.96711,-5.24563 -0.17713,-0.13829 -1.98924,-1.80332 -2.04487,-1.76893 -0.0575,0.0355 -0.0767,0.009 -0.0457,-0.0414 0.0295,-0.0477 -0.36092,-0.24076 -0.6473,-0.46576 -1.77482,-1.39437 -4.16167,-3.86488 -5.22244,-5.401 -0.0681,-0.0986 -0.61869,-0.55815 -0.87115,-0.92326 -0.44637,-0.64555 -0.85474,-1.66077 -1.27436,-2.4565 -0.11387,-0.21595 0.2272,-0.91849 0.19027,-0.89566 -0.0369,0.0228 -0.0464,-0.0125 -0.0211,-0.0784 0.0253,-0.0659 -1.03901,-0.0277 -1.13184,-0.20865 -6.97881,-13.60021 1.12797,-31.94371 15.89913,-38.2183 2.74952,-1.16796 4.97674,-1.78609 8.17177,-2.26793 9.82438,-1.4816 20.25631,2.5635 27.06636,10.49531 5.38861,6.27624 8.28542,15.21684 6.84839,23.22039 -1.19574,6.65967 -4.31248,12.34218 -9.50334,16.78446 -0.44239,0.37859 -0.79387,0.72759 -0.78107,0.77556 0.0128,0.048 -0.0174,0.0621 -0.0671,0.0314 -0.0497,-0.0307 -0.25068,0.0742 -0.4466,0.23314 -4.76573,3.8665 -15.58639,8.07255 -22.1519,6.43117 z m 7.01024,-1.19586 c 28.03499,-3.47687 36.19158,-41.1227 9.21237,-53.7979 -26.52491,-12.46177 -54.2904,16.90169 -38.11591,40.7465 4.84105,7.13679 13.40656,12.22146 22.02925,13.07704 0.51223,0.0508 0.95503,0.15329 1.18533,0.12703 0.59105,-0.0674 4.79506,-0.0325 5.68896,-0.15267 z m -5.77363,-0.86686 c -10.74257,-0.84795 -20.68855,-7.87731 -24.66347,-17.43103 -5.69135,-13.67917 1.45652,-30.15635 15.43481,-35.58009 2.09328,-0.81222 3.15872,-1.14466 4.83357,-1.50815 20.70795,-4.49429 38.99184,14.00332 33.85849,34.25426 -3.17945,12.54284 -15.95679,21.33114 -29.4634,20.26501 z m 5.43294,-0.24614 c 2.45022,-0.26085 7.91201,-2.05312 7.97739,-1.87379 0.12181,0.33409 -0.64665,0.0614 -0.58055,0.0868 0.21629,-0.015 2.68426,-1.23091 4.31524,-2.21634 19.86494,-12.00229 16.4104,-40.88223 -5.88433,-49.19293 -1.27143,-0.47395 -3.39188,-0.87833 -3.77934,-1.00271 -0.0854,-0.0274 -0.0804,-0.0115 -0.11948,-0.0209 -0.64356,-0.15432 -0.5027,-0.14373 -1.16405,-0.24344 -7.70459,-1.16164 -15.58495,0.81907 -21.69823,5.4538 -2.03893,1.54581 -3.65297,3.41622 -3.8641,3.63302 -0.0347,0.0356 0.0168,0.042 -0.0367,0.0115 -0.14619,0.20704 -0.42579,0.34708 -0.91399,0.94529 -6.29319,7.71124 -7.94507,18.32568 -4.21867,27.10779 0.57565,1.35665 1.65658,3.20964 1.6869,3.302 0.015,0.0456 0.034,-0.0561 -0.013,-0.0847 -0.0468,-0.0284 -0.29253,0.12383 -0.23989,0.13754 0.0473,0.0123 0.25243,-0.15601 0.27543,-0.094 0.0847,0.22832 2.17309,3.35384 2.36761,3.44216 0.072,0.0327 0.002,0.11627 0.0851,0.1439 0.0219,0.007 0.05,0.0298 0.0667,0.064 0.0474,0.097 0.14021,0.22918 0.23983,0.33661 0.79541,0.85778 1.09931,1.15229 1.21934,1.30648 0.49097,0.63066 3.14351,2.82934 4.49486,3.72576 1.89074,1.25424 4.12531,3.44753 4.3487,3.36181 0.0679,-0.026 -0.0335,-0.75043 -0.0589,-0.70933 -0.0502,0.0813 1.25228,0.38951 2.39888,0.80395 2.64172,0.95485 4.67002,1.40131 7.493,1.64934 0.85607,0.0752 4.67571,0.025 5.60227,-0.0736 z m -1.69801,-10.96753 c 0,-0.13148 0.0421,-0.1827 1.34507,-0.85639 4.47873,-2.31573 14.93597,-10.61139 12.2578,-11.64864 -4.89092,-1.89426 -21.97776,4.7989 -32.9588,7.86856 -2.60621,0.72854 -2.77677,0.72474 -2.05752,-0.0459 1.51148,-1.61948 4.44602,-3.22489 8.23819,-4.5069 2.43596,-0.82353 5.98708,-1.83172 7.22178,-2.05033 0.1768,-0.0313 1.84441,1.466 1.82334,1.445 -0.19471,-0.1947 -7.30922,-0.3821 -10.15227,0.54982 -2.19808,0.72051 -2.36635,0.38693 -0.2995,-0.59373 7.55773,-3.5859 19.02512,-5.61942 25.49432,-4.52092 7.31915,1.24282 8.8375,5.06717 3.15885,7.95639 -0.265,0.13483 -0.46972,0.25724 -0.45494,0.27202 0.0594,0.0594 1.53034,-0.50079 1.95948,-0.74633 0.25242,-0.14441 0.45894,-0.23311 0.45894,-0.19709 0,0.036 1.39337,-2.67555 1.44927,-2.73145 0.18981,-0.18981 -1.10574,2.59275 -1.24641,2.86478 -0.87594,1.69387 -5.97283,4.65674 -10.23722,5.951 -2.31691,0.70318 -6.00038,1.33244 -6.00038,0.99016 z m 2.82146,-0.39506 c 4.32293,-1.52597 9.86671,-3.23544 12.48045,-5.71198 0.70015,-0.6634 0.77631,-0.83437 0.25074,-0.56288 -0.81675,0.42189 -1.98971,0.78867 -2.98924,0.93473 -0.44923,0.0656 -0.37721,-0.0511 0.127,-0.20582 1.58521,-0.4865 -6.44591,5.06629 -5.93371,4.00507 0.37827,-0.78373 10.69641,-9.32471 10.3129,-9.20172 -0.11473,0.0368 -13.71071,10.6291 -13.618,10.5631 0.31087,-0.22135 12.80122,-11.78745 11.56717,-12.37701 -3.64078,-1.73934 -7.03389,0.94806 -13.47707,2.15698 -3.68682,0.69175 -6.4227,-2.21244 -9.01327,-1.49096 -2.6748,0.74494 -6.34445,2.04832 -8.0182,2.93334 -0.65245,0.345 -5.55637,4.14089 -5.21736,4.01705 0.0931,-0.034 5.78353,-3.90597 6.3889,-4.09196 4.58539,-1.40875 7.65096,-2.07746 10.20233,-2.2255 0.93328,-0.0541 3.86956,2.2964 2.65707,2.5162 -1.47883,0.26813 -5.97328,0.0916 -8.36773,0.84234 -5.41699,1.69844 -9.12147,1.51781 -11.5125,3.74214 -0.48644,0.45252 -0.47313,0.45688 0.51319,0.16807 8.59908,-2.51789 14.4911,-3.46964 19.59924,-3.16589 8.50097,0.5055 9.53147,3.4367 2.43308,6.92076 -0.54515,0.26757 -0.99414,0.50794 -0.99776,0.53415 -0.008,0.0618 1.05351,0.2502 2.03523,-0.0963 z M 144.24267,219.8427 c -9.2455,-0.45326 -12.82071,-5.35659 -6.51933,-8.94114 0.49018,-0.27885 0.98133,0.30819 -0.29713,0.76399 -1.61957,0.57741 -1.56578,0.78003 -0.48063,-0.22535 2.9097,-2.69581 8.11278,-6.18132 13.88422,-7.28331 1.80635,-0.34489 2.00302,-0.20656 0.76724,0.53968 -1.39991,0.84535 -1.81011,1.10918 -2.59063,1.66623 -4.55765,3.25275 -3.91011,5.31083 1.92493,6.11795 4.75993,0.65841 14.11755,-0.39279 19.84419,-2.22923 0.95946,-0.30768 0.98375,-0.0273 0.0736,0.84994 -2.26453,2.18286 -6.84122,4.15287 -12.3825,5.32997 -0.60536,0.12859 -0.98636,0.23743 -0.84666,0.24187 0.38057,0.0121 2.35229,-0.38038 4.27566,-0.85107 0.76592,-0.18744 3.62458,-1.12067 3.97934,-1.29909 0.72475,-0.3645 2.51753,-1.63576 1.88764,-1.20513 -2.91868,1.99541 -9.98111,5.06754 -18.05897,6.20068 -1.33349,0.18706 -4.23269,0.40677 -4.78367,0.36251 -0.0931,-0.007 -0.39793,-0.0248 -0.67733,-0.0385 z m 3.51367,-0.24615 c -0.76772,0.24567 2.70883,-0.33391 4.53837,-0.62902 6.12212,-0.98751 10.74059,-2.60023 13.39438,-4.24353 0.68145,-0.42198 1.65936,-1.08418 1.18122,-0.87556 -1.58982,0.69363 -5.72142,2.40885 -7.76864,2.74992 -0.30268,0.0504 -0.75988,0.13106 -1.016,0.17918 -0.50346,0.0946 -3.20238,0.21016 -3.13252,0.13414 0.0234,-0.0254 0.36626,-0.0888 0.762,-0.14085 6.31042,-0.82987 15.57852,-4.67011 15.57852,-6.45497 0,-0.0553 -0.06,-0.0266 -0.13328,0.0638 -0.0733,0.0904 -0.10663,0.11264 -0.0741,0.0494 0.043,-0.0834 0.0157,-0.1012 -0.0995,-0.0649 -0.98338,0.30959 -5.11115,3.61 -7.31225,4.10554 -9.4806,2.13437 -16.48892,-1.30547 -17.70466,-3.92571 -0.67527,-1.45538 1.56134,-3.78117 6.04424,-6.28526 0.90472,-0.50536 -4.046,4.63443 -6.85008,5.57885 -4.29773,1.44749 -5.85001,-0.62632 -7.89777,1.29294 -0.70349,0.65934 -1.40948,0.84919 -0.43669,0.48309 0.43144,-0.16237 0.79413,-0.89493 1.15202,-0.9912 0.35789,-0.0963 0.75168,-0.27412 0.95122,-0.33987 0.45103,-0.14863 0.48647,-0.14872 0.36376,-8.6e-4 -0.0542,0.0653 -0.19699,0.14341 -0.31735,0.17362 -0.7362,0.18477 6.87788,-0.78728 6.11688,0.046 -3.41791,3.74253 20.13099,3.50467 11.72025,6.19607 z"
       id="path13" /></g></svg>
