<?xml version="1.0" encoding="UTF-8" standalone="no"?>
<!-- Created with Inkscape (http://www.inkscape.org/) -->

<svg
   width="44.949841mm"
   height="54.822739mm"
   viewBox="0 0 44.949841 54.822739"
   version="1.1"
   id="svg1"
   xml:space="preserve"
   xmlns="http://www.w3.org/2000/svg"
   xmlns:svg="http://www.w3.org/2000/svg"><defs
     id="defs1" /><g
     id="layer1"
     transform="translate(1246.8426,25.668364)"><path
       style="fill:#ffffff"
       d="m -1246.8425,-15.310513 4.5597,-2.07129 4.5597,-2.07128 6.0537,-2.78672 6.0536,-2.78671 0.6919,-0.32093 0.692,-0.32092 2.9487,1.37628 2.9488,1.37629 2.7516,1.27873 2.7517,1.27872 4.1487,1.91694 4.1486,1.91694 1.3206,0.59947 1.3205,0.59947 -0.01,22.1690001 -0.01,22.1689999 c 0,0 -44.8509,0.20202 -44.923,0.12396 z m 42.3438,42.1348 0.2204,-40.80964 c 0,0 -3.2177,-1.36102 -3.2184,-1.3678 l -2.9633,-1.37934 -3.5983,-1.71166 -3.5984,-1.71166 -3.2752,-1.57653 -3.2751,-1.57652 -4.2602,1.9983 -4.2601,1.9983 -4.5297,2.07072 -4.5297,2.07072 -1.3332,0.60747 -1.3331,0.60748 c -0.1504,-0.21407 -0.073,40.70378 -0.073,40.70378 z"
       id="path4-6-0" /><path
       style="fill:#ffffff;stroke-width:0.206948"
       d="m -1229.7272,19.37186 -0.5815,-1.190916 -0.6297,-1.314114 -0.6296,-1.314114 -0.5377,-1.108784 -0.5378,-1.108783 h -0.092 -0.093 l -1.5956,0.277109 -1.5955,0.27711 -1.7248,0.296955 -1.7247,0.296955 -0.1233,8.69e-4 -0.1232,8.7e-4 v -0.04106 -0.04106 l 1.5734,-1.727895 1.5733,-1.727895 1.3828,-1.4938658 1.3828,-1.4938655 -0.023,-0.036148 -0.023,-0.036148 -0.4225,-0.6844347 -0.4226,-0.6844343 -0.9601,-1.5605107 -0.9601,-1.5605104 -0.739,-1.2046048 -0.739,-1.20460482 -0.4024,-0.64295559 -0.4023,-0.6429545 v -0.061551 -0.061551 l 0.1233,0.03355 0.1232,0.03354 1.3962,0.3295508 1.3963,0.3295497 1.0404,0.2501786 1.0402,0.2501786 1.4784,0.35589501 1.4784,0.3558952 0.2104,0.00911 0.2104,0.00911 0.1284,-0.355906 0.1286,-0.35590581 1.1303,-3.25790799 1.1302,-3.257909 0.7105,-1.9985486 0.7106,-1.9985477 0.378,-1.0403397 0.378,-1.04034 0.069,-0.179541 0.069,-0.179541 0.082,0.01594 0.082,0.01594 0.067,0.327864 0.067,0.327865 0.1968,1.040339 0.1969,1.0403387 0.3562,1.4510025 0.3561,1.451001 0.2747,1.0403404 0.2747,1.0403393 0.4371,1.6152663 0.4371,1.6152653 0.023,0.069344 0.023,0.069344 1.3566,-0.6833237 1.3565,-0.6833237 1.1772,-0.6075638 1.1773,-0.6075639 1.2045,-0.6198021 1.2047,-0.6198 0.4544,-0.2319901 0.4546,-0.2319923 0.025,0.024254 0.025,0.024264 -0.4602,1.9121936 -0.4603,1.9121937 -0.5529,2.38183182 -0.5529,2.38183178 -0.032,0.1180543 -0.032,0.1180542 0.402,0.030609 0.402,0.030609 0.9309,0.029489 0.9308,0.029489 2.2723,0.083504 2.2723,0.083504 0.096,0.029496 0.096,0.029496 v 0.040768 0.040767 l -0.1616,0.1194834 -0.1616,0.1194834 -1.7959,1.4618148 -1.7959,1.4618148 -1.2104,0.969769 -1.2106,0.9697689 -0.1172,0.073252 -0.1174,0.073252 v 0.03731 0.03731 l 1.2709,1.1404354 1.2708,1.140434 0.9267,0.8487 0.9265,0.848699 0.2665,0.236954 0.2665,0.236953 v 0.04794 0.04794 l -3.3947,-0.03366 -3.3949,-0.03366 v 0.03778 0.03779 l 0.1727,0.340656 0.1726,0.340656 0.4594,0.985585 0.4593,0.985586 0.2249,0.507387 0.225,0.507389 -0.025,0.02445 -0.025,0.02445 -0.2713,-0.07349 -0.2711,-0.07349 -1.9439,-0.585236 -1.9438,-0.585237 -0.8213,-0.246716 -0.8213,-0.246717 -0.7628,-0.238621 -0.763,-0.238621 -0.5511,0.505787 -0.5513,0.505786 -1.3689,1.258393 -1.3688,1.258394 -0.9427,0.860278 -0.9428,0.860278 h -0.056 -0.056 z m 3.1506,-3.107332 1.0671,-1.095095 0.9244,-0.939912 0.9246,-0.93991 2.3078,1.01393 2.308,1.01393 0.7665,0.341906 0.7665,0.341907 0.018,-0.01319 0.016,-0.01319 -0.6798,-1.141932 -0.6798,-1.141933 -0.386,-0.657057 -0.386,-0.657057 0.016,-0.01723 0.016,-0.01723 1.5524,0.139963 1.5524,0.139963 1.6862,0.140886 1.6863,0.140885 0.074,-0.01721 0.073,-0.01721 -2.6495,-1.888318 -2.6496,-1.8883183 v -0.036109 -0.036103 l 0.7255,-0.4633918 0.7255,-0.4633919 1.9712,-1.2575689 1.9712,-1.2575688 0.5475,-0.3469375 0.5475,-0.3469374 0.108,-0.1005985 0.108,-0.1005986 h -0.1379 -0.138 l -1.3663,0.1107217 -1.3663,0.1107217 -2.103,0.1909803 -2.1028,0.1909804 -0.016,-0.016697 -0.016,-0.016697 0.6042,-1.8318276 0.6042,-1.831828 0.7832,-2.35445441 0.7833,-2.35445449 -0.014,-0.016492 -0.014,-0.016492 -1.6078,1.052105 -1.6079,1.052107 -0.8213,0.52969059 -0.8214,0.5296906 -1.1772,0.7662701 -1.1773,0.76627011 -0.1169,0.062585 -0.1171,0.062585 -0.06,-0.2356783 -0.06,-0.235678 -0.607,-2.7333998 -0.607,-2.7334007 -0.2941,-1.3414915 -0.2943,-1.3414915 -0.1818,-0.8623545 -0.1818,-0.8623548 -0.028,6.21e-4 -0.028,6.22e-4 -0.4861,1.8199758 -0.4862,1.8199749 -0.5054,2.025927 -0.5055,2.02592489 -0.5101,2.12046901 -0.5101,2.1204681 -0.035,0.057508 -0.036,0.057509 -0.7077,-0.1894882 -0.7076,-0.1894883 -3.0319,-0.8548471 -3.0317,-0.8548468 -0.018,0.017518 -0.017,0.017518 0.3663,0.4664784 0.3663,0.4664783 1.5904,2.0235534 1.5904,2.0235536 0.6273,0.8078842 0.6271,0.8078841 v 0.049471 0.04947 l -2.4366,2.0944255 -2.4366,2.094427 -0.3917,0.333505 -0.3918,0.333506 0.048,0.01781 0.048,0.01782 2.7679,-0.526558 2.7678,-0.526559 0.074,-0.02826 0.074,-0.02827 1.1393,3.403725 1.1392,3.403725 0.6051,-0.621772 0.6052,-0.621772 z"
       id="path8" /><path
       style="fill:#ffffff;fill-opacity:1;stroke:#ffffff;stroke-width:0.954594"
       d="m -4644.7662,71.896931 c -0.1078,-0.18686 -1.7375,-8.18661 -3.927,-14.798059 -2.1895,-6.611448 -4.0982,-12.149933 -4.2414,-12.307741 -0.1432,-0.157809 -4.9162,0.60458 -10.6065,1.694196 -5.6904,1.089616 -13.2078,3.306932 -13.268,3.246818 -0.06,-0.06012 7.3862,-5.512597 13.1097,-10.436072 5.7236,-4.923475 10.4065,-9.064126 10.4065,-9.201446 0,-0.137324 -4.2942,-5.720052 -9.5426,-12.406068 -5.2483,-6.686016 -12.3616,-13.7122539 -12.2933,-13.7805321 0.068,-0.068278 7.7544,2.7189602 13.5665,4.3605333 17.7347,5.0089928 17.0538,4.8445228 17.2442,4.1654278 0.091,-0.324473 2.4032,-9.5790444 5.1383,-20.565716 2.7351,-10.986672 5.2549,-20.906035 5.5995,-22.04303 l 0.6267,-2.067264 2.057,9.491885 c 4.1224,19.0219427 6.426,28.8851616 6.7728,28.9986876 0.195,0.063834 6.4724,-3.8553509 13.9497,-8.7092995 7.4773,-4.8539486 16.3265,-11.7815161 16.3801,-11.7279271 0.054,0.05359 -4.9108,10.0575139 -7.7472,18.5642775 -2.8364,8.5067635 -5.0812,15.5427305 -4.9884,15.6354845 0.093,0.09275 5.6055,-0.324318 12.2507,-0.926822 6.6452,-0.602505 16.217,-1.827393 16.8402,-1.767112 1.0127,0.09795 -3.7849,1.717275 -14.6618,8.669022 -6.6934,4.277996 -12.2297,7.960134 -12.3029,8.182527 -0.073,0.222395 4.2037,3.483925 9.504,7.247844 6.9801,4.956674 14.057,8.87329 13.5183,8.951563 -0.5943,0.08634 -12.8829,-2.517054 -27.3641,-3.79038 -0.5859,-0.05152 -0.8494,0.08403 -0.7816,0.402043 0.056,0.263868 1.7058,3.173443 3.6656,6.465718 1.9598,3.292271 6.8614,8.937931 6.7673,9.032019 -0.094,0.09409 -8.4383,-4.856957 -14.4176,-7.48843 -5.9793,-2.631473 -11.052,-4.787018 -11.2727,-4.790101 -0.2207,-0.0031 -4.7066,4.405704 -9.9686,9.797297 -5.2621,5.391594 -9.9056,12.087514 -10.0134,11.900657 z"
       id="path9"
       transform="scale(0.26458333)" /></g></svg>
