<svg viewBox="212.514816 165.4102016 598.016 659.456" xmlns="http://www.w3.org/2000/svg" width="598.016" height="659.456">
  <path d="M 227.00 314.00 L 227.00 315.00 L 225.00 318.00 L 225.00 803.00 L 226.00 804.00 L 227.00 807.00 L 231.00 811.00 L 232.00 811.00 L 233.00 812.00 L 236.00 812.00 L 237.00 813.00 L 250.00 813.00 L 251.00 812.00 L 252.00 813.00 L 253.00 812.00 L 254.00 812.00 L 255.00 813.00 L 286.00 813.00 L 287.00 812.00 L 288.00 813.00 L 292.00 813.00 L 293.00 812.00 L 294.00 813.00 L 316.00 813.00 L 317.00 812.00 L 318.00 813.00 L 319.00 812.00 L 320.00 813.00 L 325.00 813.00 L 326.00 812.00 L 327.00 812.00 L 328.00 813.00 L 354.00 813.00 L 355.00 812.00 L 358.00 812.00 L 359.00 813.00 L 364.00 813.00 L 365.00 812.00 L 366.00 813.00 L 372.00 813.00 L 373.00 812.00 L 375.00 812.00 L 376.00 813.00 L 378.00 813.00 L 379.00 812.00 L 380.00 812.00 L 381.00 813.00 L 382.00 812.00 L 383.00 812.00 L 384.00 813.00 L 385.00 812.00 L 391.00 812.00 L 392.00 813.00 L 404.00 813.00 L 405.00 812.00 L 407.00 812.00 L 408.00 813.00 L 422.00 813.00 L 423.00 812.00 L 424.00 813.00 L 431.00 813.00 L 432.00 812.00 L 433.00 813.00 L 443.00 813.00 L 444.00 812.00 L 445.00 812.00 L 446.00 813.00 L 447.00 812.00 L 448.00 813.00 L 564.00 813.00 L 565.00 812.00 L 566.00 813.00 L 603.00 813.00 L 604.00 812.00 L 605.00 812.00 L 606.00 813.00 L 607.00 812.00 L 608.00 813.00 L 609.00 813.00 L 610.00 812.00 L 615.00 812.00 L 616.00 813.00 L 620.00 813.00 L 621.00 812.00 L 622.00 813.00 L 628.00 813.00 L 629.00 812.00 L 630.00 813.00 L 631.00 812.00 L 632.00 813.00 L 646.00 813.00 L 647.00 812.00 L 648.00 813.00 L 655.00 813.00 L 656.00 812.00 L 657.00 813.00 L 662.00 813.00 L 663.00 812.00 L 664.00 813.00 L 667.00 813.00 L 668.00 812.00 L 669.00 813.00 L 676.00 813.00 L 677.00 812.00 L 679.00 812.00 L 680.00 813.00 L 686.00 813.00 L 687.00 812.00 L 688.00 813.00 L 692.00 813.00 L 693.00 812.00 L 694.00 813.00 L 707.00 813.00 L 708.00 812.00 L 709.00 812.00 L 710.00 813.00 L 716.00 813.00 L 717.00 812.00 L 718.00 813.00 L 719.00 812.00 L 720.00 813.00 L 742.00 813.00 L 743.00 812.00 L 744.00 813.00 L 750.00 813.00 L 751.00 812.00 L 752.00 813.00 L 766.00 813.00 L 767.00 812.00 L 768.00 813.00 L 781.00 813.00 L 782.00 812.00 L 783.00 812.00 L 784.00 813.00 L 785.00 812.00 L 788.00 812.00 L 789.00 811.00 L 792.00 810.00 L 795.00 807.00 L 795.00 806.00 L 796.00 805.00 L 796.00 803.00 L 797.00 802.00 L 797.00 708.00 L 798.00 707.00 L 798.00 706.00 L 797.00 705.00 L 797.00 671.00 L 798.00 670.00 L 797.00 669.00 L 797.00 657.00 L 798.00 656.00 L 797.00 655.00 L 797.00 649.00 L 798.00 648.00 L 797.00 647.00 L 797.00 641.00 L 798.00 640.00 L 797.00 639.00 L 797.00 634.00 L 798.00 633.00 L 797.00 632.00 L 797.00 629.00 L 798.00 628.00 L 798.00 626.00 L 797.00 625.00 L 797.00 624.00 L 798.00 623.00 L 797.00 622.00 L 797.00 621.00 L 798.00 620.00 L 797.00 619.00 L 797.00 617.00 L 798.00 616.00 L 797.00 615.00 L 797.00 614.00 L 798.00 613.00 L 798.00 608.00 L 797.00 607.00 L 797.00 587.00 L 798.00 586.00 L 797.00 585.00 L 797.00 581.00 L 798.00 580.00 L 798.00 579.00 L 797.00 578.00 L 797.00 576.00 L 798.00 575.00 L 798.00 569.00 L 797.00 568.00 L 797.00 566.00 L 798.00 565.00 L 798.00 564.00 L 797.00 563.00 L 798.00 562.00 L 798.00 561.00 L 797.00 560.00 L 797.00 556.00 L 798.00 555.00 L 798.00 554.00 L 797.00 553.00 L 798.00 552.00 L 797.00 551.00 L 797.00 546.00 L 798.00 545.00 L 797.00 544.00 L 797.00 534.00 L 798.00 533.00 L 797.00 532.00 L 797.00 528.00 L 798.00 527.00 L 797.00 526.00 L 798.00 525.00 L 798.00 520.00 L 797.00 519.00 L 797.00 515.00 L 798.00 514.00 L 797.00 513.00 L 797.00 512.00 L 798.00 511.00 L 798.00 504.00 L 797.00 503.00 L 797.00 502.00 L 798.00 501.00 L 797.00 500.00 L 797.00 499.00 L 798.00 498.00 L 797.00 497.00 L 797.00 488.00 L 798.00 487.00 L 797.00 486.00 L 798.00 485.00 L 798.00 480.00 L 797.00 479.00 L 797.00 474.00 L 798.00 473.00 L 797.00 472.00 L 798.00 471.00 L 797.00 470.00 L 797.00 468.00 L 798.00 467.00 L 798.00 466.00 L 797.00 465.00 L 797.00 464.00 L 798.00 463.00 L 797.00 462.00 L 798.00 461.00 L 798.00 456.00 L 797.00 455.00 L 797.00 453.00 L 798.00 452.00 L 798.00 450.00 L 797.00 449.00 L 798.00 448.00 L 798.00 440.00 L 797.00 439.00 L 797.00 428.00 L 798.00 427.00 L 797.00 426.00 L 797.00 420.00 L 798.00 419.00 L 798.00 418.00 L 797.00 417.00 L 797.00 413.00 L 798.00 412.00 L 798.00 410.00 L 797.00 409.00 L 798.00 408.00 L 797.00 407.00 L 797.00 395.00 L 798.00 394.00 L 797.00 393.00 L 798.00 392.00 L 797.00 391.00 L 797.00 389.00 L 798.00 388.00 L 798.00 387.00 L 797.00 386.00 L 797.00 382.00 L 798.00 381.00 L 798.00 377.00 L 797.00 376.00 L 797.00 368.00 L 798.00 367.00 L 797.00 366.00 L 797.00 365.00 L 798.00 364.00 L 798.00 362.00 L 797.00 361.00 L 797.00 360.00 L 798.00 359.00 L 797.00 358.00 L 797.00 357.00 L 798.00 356.00 L 798.00 354.00 L 797.00 353.00 L 797.00 349.00 L 798.00 348.00 L 798.00 345.00 L 797.00 344.00 L 797.00 319.00 L 796.00 318.00 L 796.00 316.00 L 794.00 314.00 L 794.00 313.00 L 790.00 309.00 L 789.00 309.00 L 782.00 305.00 L 780.00 305.00 L 779.00 304.00 L 778.00 304.00 L 777.00 303.00 L 776.00 303.00 L 775.00 302.00 L 774.00 302.00 L 773.00 301.00 L 772.00 301.00 L 771.00 300.00 L 770.00 300.00 L 769.00 299.00 L 768.00 299.00 L 757.00 293.00 L 755.00 293.00 L 751.00 290.00 L 749.00 290.00 L 748.00 289.00 L 747.00 289.00 L 746.00 288.00 L 745.00 288.00 L 744.00 287.00 L 743.00 287.00 L 742.00 286.00 L 741.00 286.00 L 740.00 285.00 L 739.00 285.00 L 728.00 279.00 L 726.00 279.00 L 725.00 278.00 L 724.00 278.00 L 723.00 277.00 L 722.00 277.00 L 721.00 276.00 L 720.00 276.00 L 719.00 275.00 L 718.00 275.00 L 717.00 274.00 L 716.00 274.00 L 715.00 273.00 L 714.00 273.00 L 713.00 272.00 L 712.00 272.00 L 711.00 271.00 L 710.00 271.00 L 709.00 270.00 L 708.00 270.00 L 707.00 269.00 L 706.00 269.00 L 695.00 263.00 L 693.00 263.00 L 692.00 262.00 L 691.00 262.00 L 690.00 261.00 L 689.00 261.00 L 688.00 260.00 L 687.00 260.00 L 686.00 259.00 L 685.00 259.00 L 674.00 253.00 L 672.00 253.00 L 670.00 251.00 L 668.00 251.00 L 666.00 249.00 L 664.00 249.00 L 663.00 248.00 L 662.00 248.00 L 661.00 247.00 L 660.00 247.00 L 659.00 246.00 L 658.00 246.00 L 647.00 240.00 L 645.00 240.00 L 641.00 237.00 L 639.00 237.00 L 638.00 236.00 L 637.00 236.00 L 636.00 235.00 L 635.00 235.00 L 634.00 234.00 L 633.00 234.00 L 632.00 233.00 L 631.00 233.00 L 630.00 232.00 L 629.00 232.00 L 628.00 231.00 L 627.00 231.00 L 626.00 230.00 L 625.00 230.00 L 624.00 229.00 L 623.00 229.00 L 622.00 228.00 L 621.00 228.00 L 620.00 227.00 L 619.00 227.00 L 608.00 221.00 L 606.00 221.00 L 605.00 220.00 L 604.00 220.00 L 602.00 218.00 L 600.00 218.00 L 599.00 217.00 L 598.00 217.00 L 597.00 216.00 L 596.00 216.00 L 595.00 215.00 L 594.00 215.00 L 593.00 214.00 L 592.00 214.00 L 591.00 213.00 L 590.00 213.00 L 589.00 212.00 L 588.00 212.00 L 577.00 206.00 L 575.00 206.00 L 574.00 205.00 L 573.00 205.00 L 572.00 204.00 L 571.00 204.00 L 570.00 203.00 L 569.00 203.00 L 568.00 202.00 L 567.00 202.00 L 566.00 201.00 L 565.00 201.00 L 564.00 200.00 L 563.00 200.00 L 562.00 199.00 L 561.00 199.00 L 560.00 198.00 L 559.00 198.00 L 558.00 197.00 L 557.00 197.00 L 556.00 196.00 L 555.00 196.00 L 554.00 195.00 L 553.00 195.00 L 552.00 194.00 L 551.00 194.00 L 540.00 188.00 L 538.00 188.00 L 537.00 187.00 L 536.00 187.00 L 535.00 186.00 L 534.00 186.00 L 533.00 185.00 L 532.00 185.00 L 531.00 184.00 L 530.00 184.00 L 529.00 183.00 L 528.00 183.00 L 517.00 177.00 L 514.00 177.00 L 513.00 176.00 L 508.00 176.00 L 507.00 177.00 L 504.00 177.00 L 503.00 178.00 L 502.00 178.00 L 491.00 184.00 L 489.00 184.00 L 488.00 185.00 L 487.00 185.00 L 486.00 186.00 L 485.00 186.00 L 484.00 187.00 L 483.00 187.00 L 482.00 188.00 L 481.00 188.00 L 480.00 189.00 L 479.00 189.00 L 478.00 190.00 L 477.00 190.00 L 476.00 191.00 L 475.00 191.00 L 474.00 192.00 L 473.00 192.00 L 472.00 193.00 L 471.00 193.00 L 470.00 194.00 L 469.00 194.00 L 458.00 200.00 L 456.00 200.00 L 454.00 202.00 L 452.00 202.00 L 448.00 205.00 L 446.00 205.00 L 445.00 206.00 L 444.00 206.00 L 443.00 207.00 L 442.00 207.00 L 431.00 213.00 L 429.00 213.00 L 428.00 214.00 L 427.00 214.00 L 426.00 215.00 L 425.00 215.00 L 424.00 216.00 L 423.00 216.00 L 422.00 217.00 L 421.00 217.00 L 420.00 218.00 L 419.00 218.00 L 418.00 219.00 L 417.00 219.00 L 416.00 220.00 L 415.00 220.00 L 414.00 221.00 L 413.00 221.00 L 412.00 222.00 L 411.00 222.00 L 410.00 223.00 L 409.00 223.00 L 408.00 224.00 L 407.00 224.00 L 396.00 230.00 L 394.00 230.00 L 393.00 231.00 L 392.00 231.00 L 391.00 232.00 L 390.00 232.00 L 389.00 233.00 L 388.00 233.00 L 387.00 234.00 L 386.00 234.00 L 385.00 235.00 L 384.00 235.00 L 383.00 236.00 L 382.00 236.00 L 371.00 242.00 L 369.00 242.00 L 368.00 243.00 L 367.00 243.00 L 366.00 244.00 L 365.00 244.00 L 364.00 245.00 L 363.00 245.00 L 362.00 246.00 L 361.00 246.00 L 360.00 247.00 L 359.00 247.00 L 358.00 248.00 L 357.00 248.00 L 356.00 249.00 L 355.00 249.00 L 344.00 255.00 L 342.00 255.00 L 340.00 257.00 L 338.00 257.00 L 337.00 258.00 L 336.00 258.00 L 335.00 259.00 L 334.00 259.00 L 333.00 260.00 L 332.00 260.00 L 331.00 261.00 L 330.00 261.00 L 329.00 262.00 L 328.00 262.00 L 327.00 263.00 L 326.00 263.00 L 325.00 264.00 L 324.00 264.00 L 313.00 270.00 L 311.00 270.00 L 307.00 273.00 L 305.00 273.00 L 304.00 274.00 L 303.00 274.00 L 302.00 275.00 L 301.00 275.00 L 300.00 276.00 L 299.00 276.00 L 298.00 277.00 L 297.00 277.00 L 296.00 278.00 L 295.00 278.00 L 284.00 284.00 L 282.00 284.00 L 281.00 285.00 L 280.00 285.00 L 279.00 286.00 L 278.00 286.00 L 277.00 287.00 L 276.00 287.00 L 275.00 288.00 L 274.00 288.00 L 273.00 289.00 L 272.00 289.00 L 271.00 290.00 L 270.00 290.00 L 269.00 291.00 L 268.00 291.00 L 267.00 292.00 L 266.00 292.00 L 255.00 298.00 L 253.00 298.00 L 252.00 299.00 L 251.00 299.00 L 250.00 300.00 L 249.00 300.00 L 248.00 301.00 L 247.00 301.00 L 246.00 302.00 L 245.00 302.00 L 244.00 303.00 L 243.00 303.00 L 242.00 304.00 L 241.00 304.00 L 240.00 305.00 L 233.00 308.00 Z M 252.00 331.00 L 255.00 328.00 L 256.00 328.00 L 259.00 326.00 L 261.00 326.00 L 265.00 323.00 L 267.00 323.00 L 276.00 318.00 L 278.00 318.00 L 279.00 317.00 L 280.00 317.00 L 281.00 316.00 L 282.00 316.00 L 283.00 315.00 L 284.00 315.00 L 285.00 314.00 L 286.00 314.00 L 287.00 313.00 L 288.00 313.00 L 289.00 312.00 L 290.00 312.00 L 291.00 311.00 L 292.00 311.00 L 293.00 310.00 L 294.00 310.00 L 295.00 309.00 L 296.00 309.00 L 307.00 303.00 L 309.00 303.00 L 310.00 302.00 L 311.00 302.00 L 312.00 301.00 L 313.00 301.00 L 314.00 300.00 L 315.00 300.00 L 316.00 299.00 L 317.00 299.00 L 318.00 298.00 L 319.00 298.00 L 320.00 297.00 L 321.00 297.00 L 332.00 291.00 L 334.00 291.00 L 336.00 289.00 L 338.00 289.00 L 349.00 283.00 L 351.00 283.00 L 355.00 280.00 L 357.00 280.00 L 358.00 279.00 L 359.00 279.00 L 360.00 278.00 L 361.00 278.00 L 362.00 277.00 L 363.00 277.00 L 374.00 271.00 L 376.00 271.00 L 377.00 270.00 L 378.00 270.00 L 379.00 269.00 L 380.00 269.00 L 381.00 268.00 L 382.00 268.00 L 383.00 267.00 L 384.00 267.00 L 385.00 266.00 L 386.00 266.00 L 397.00 260.00 L 399.00 260.00 L 401.00 258.00 L 403.00 258.00 L 404.00 257.00 L 405.00 257.00 L 406.00 256.00 L 407.00 256.00 L 408.00 255.00 L 409.00 255.00 L 410.00 254.00 L 411.00 254.00 L 412.00 253.00 L 413.00 253.00 L 414.00 252.00 L 415.00 252.00 L 416.00 251.00 L 417.00 251.00 L 418.00 250.00 L 419.00 250.00 L 430.00 244.00 L 432.00 244.00 L 433.00 243.00 L 434.00 243.00 L 435.00 242.00 L 436.00 242.00 L 437.00 241.00 L 438.00 241.00 L 439.00 240.00 L 440.00 240.00 L 441.00 239.00 L 442.00 239.00 L 443.00 238.00 L 444.00 238.00 L 445.00 237.00 L 446.00 237.00 L 447.00 236.00 L 448.00 236.00 L 449.00 235.00 L 450.00 235.00 L 451.00 234.00 L 452.00 234.00 L 453.00 233.00 L 454.00 233.00 L 455.00 232.00 L 456.00 232.00 L 457.00 231.00 L 458.00 231.00 L 459.00 230.00 L 460.00 230.00 L 471.00 224.00 L 473.00 224.00 L 474.00 223.00 L 475.00 223.00 L 476.00 222.00 L 477.00 222.00 L 478.00 221.00 L 479.00 221.00 L 480.00 220.00 L 481.00 220.00 L 482.00 219.00 L 483.00 219.00 L 484.00 218.00 L 485.00 218.00 L 486.00 217.00 L 487.00 217.00 L 488.00 216.00 L 489.00 216.00 L 490.00 215.00 L 491.00 215.00 L 492.00 214.00 L 493.00 214.00 L 494.00 213.00 L 495.00 213.00 L 496.00 212.00 L 497.00 212.00 L 498.00 211.00 L 499.00 211.00 L 510.00 205.00 L 513.00 205.00 L 514.00 206.00 L 515.00 206.00 L 516.00 207.00 L 517.00 207.00 L 518.00 208.00 L 519.00 208.00 L 520.00 209.00 L 521.00 209.00 L 522.00 210.00 L 523.00 210.00 L 524.00 211.00 L 525.00 211.00 L 526.00 212.00 L 527.00 212.00 L 528.00 213.00 L 529.00 213.00 L 530.00 214.00 L 531.00 214.00 L 532.00 215.00 L 533.00 215.00 L 534.00 216.00 L 535.00 216.00 L 536.00 217.00 L 537.00 217.00 L 538.00 218.00 L 539.00 218.00 L 550.00 224.00 L 552.00 224.00 L 553.00 225.00 L 554.00 225.00 L 555.00 226.00 L 556.00 226.00 L 557.00 227.00 L 558.00 227.00 L 559.00 228.00 L 560.00 228.00 L 561.00 229.00 L 562.00 229.00 L 563.00 230.00 L 564.00 230.00 L 565.00 231.00 L 566.00 231.00 L 567.00 232.00 L 568.00 232.00 L 569.00 233.00 L 570.00 233.00 L 571.00 234.00 L 572.00 234.00 L 573.00 235.00 L 574.00 235.00 L 575.00 236.00 L 576.00 236.00 L 577.00 237.00 L 578.00 237.00 L 579.00 238.00 L 580.00 238.00 L 591.00 244.00 L 593.00 244.00 L 594.00 245.00 L 595.00 245.00 L 596.00 246.00 L 597.00 246.00 L 598.00 247.00 L 599.00 247.00 L 600.00 248.00 L 601.00 248.00 L 602.00 249.00 L 603.00 249.00 L 604.00 250.00 L 605.00 250.00 L 606.00 251.00 L 607.00 251.00 L 608.00 252.00 L 609.00 252.00 L 610.00 253.00 L 611.00 253.00 L 612.00 254.00 L 613.00 254.00 L 614.00 255.00 L 615.00 255.00 L 616.00 256.00 L 617.00 256.00 L 618.00 257.00 L 619.00 257.00 L 630.00 263.00 L 632.00 263.00 L 633.00 264.00 L 634.00 264.00 L 635.00 265.00 L 636.00 265.00 L 637.00 266.00 L 638.00 266.00 L 639.00 267.00 L 640.00 267.00 L 641.00 268.00 L 642.00 268.00 L 643.00 269.00 L 644.00 269.00 L 645.00 270.00 L 646.00 270.00 L 647.00 271.00 L 648.00 271.00 L 659.00 277.00 L 661.00 277.00 L 662.00 278.00 L 663.00 278.00 L 664.00 279.00 L 665.00 279.00 L 666.00 280.00 L 667.00 280.00 L 668.00 281.00 L 669.00 281.00 L 680.00 287.00 L 682.00 287.00 L 683.00 288.00 L 684.00 288.00 L 685.00 289.00 L 686.00 289.00 L 687.00 290.00 L 688.00 290.00 L 689.00 291.00 L 690.00 291.00 L 691.00 292.00 L 692.00 292.00 L 703.00 298.00 L 705.00 298.00 L 706.00 299.00 L 707.00 299.00 L 708.00 300.00 L 709.00 300.00 L 710.00 301.00 L 711.00 301.00 L 712.00 302.00 L 713.00 302.00 L 714.00 303.00 L 715.00 303.00 L 716.00 304.00 L 717.00 304.00 L 718.00 305.00 L 719.00 305.00 L 720.00 306.00 L 721.00 306.00 L 732.00 312.00 L 734.00 312.00 L 736.00 314.00 L 738.00 314.00 L 739.00 315.00 L 740.00 315.00 L 741.00 316.00 L 742.00 316.00 L 743.00 317.00 L 744.00 317.00 L 755.00 323.00 L 757.00 323.00 L 758.00 324.00 L 759.00 324.00 L 760.00 325.00 L 767.00 328.00 L 771.00 332.00 L 771.00 334.00 L 772.00 335.00 L 772.00 779.00 L 771.00 780.00 L 771.00 783.00 L 767.00 787.00 L 765.00 787.00 L 764.00 788.00 L 713.00 788.00 L 712.00 789.00 L 711.00 788.00 L 257.00 788.00 L 256.00 787.00 L 255.00 787.00 L 251.00 783.00 L 251.00 766.00 L 250.00 765.00 L 251.00 764.00 L 251.00 762.00 L 250.00 761.00 L 251.00 760.00 L 251.00 755.00 L 250.00 754.00 L 250.00 753.00 L 251.00 752.00 L 250.00 751.00 L 250.00 745.00 L 251.00 744.00 L 250.00 743.00 L 250.00 366.00 L 251.00 365.00 L 250.00 364.00 L 251.00 363.00 L 251.00 360.00 L 250.00 359.00 L 250.00 353.00 L 251.00 352.00 L 251.00 351.00 L 250.00 350.00 L 251.00 349.00 L 250.00 348.00 L 250.00 344.00 L 251.00 343.00 L 251.00 342.00 L 250.00 341.00 L 250.00 338.00 L 251.00 337.00 L 251.00 333.00 L 252.00 332.00 Z" fill-rule="evenodd" fill="#FFFFFF"/>
  <path d="M 507.00 236.00 L 506.00 237.00 L 504.00 237.00 L 498.00 243.00 L 498.00 244.00 L 495.00 247.00 L 495.00 248.00 L 492.00 251.00 L 492.00 252.00 L 489.00 255.00 L 489.00 256.00 L 486.00 259.00 L 486.00 260.00 L 483.00 263.00 L 483.00 264.00 L 480.00 267.00 L 480.00 268.00 L 477.00 271.00 L 477.00 272.00 L 474.00 275.00 L 474.00 276.00 L 471.00 279.00 L 471.00 280.00 L 468.00 283.00 L 468.00 284.00 L 465.00 287.00 L 465.00 288.00 L 459.00 295.00 L 459.00 296.00 L 457.00 298.00 L 457.00 299.00 L 453.00 303.00 L 453.00 304.00 L 451.00 306.00 L 451.00 307.00 L 448.00 310.00 L 448.00 311.00 L 445.00 316.00 L 445.00 349.00 L 446.00 350.00 L 446.00 380.00 L 447.00 381.00 L 447.00 416.00 L 448.00 417.00 L 448.00 451.00 L 449.00 452.00 L 449.00 492.00 L 450.00 493.00 L 450.00 527.00 L 451.00 528.00 L 451.00 553.00 L 452.00 554.00 L 452.00 556.00 L 453.00 557.00 L 453.00 558.00 L 454.00 558.00 L 456.00 560.00 L 565.00 560.00 L 566.00 559.00 L 567.00 559.00 L 570.00 556.00 L 570.00 552.00 L 571.00 551.00 L 571.00 520.00 L 572.00 519.00 L 572.00 484.00 L 573.00 483.00 L 573.00 450.00 L 574.00 449.00 L 574.00 416.00 L 575.00 415.00 L 575.00 381.00 L 576.00 380.00 L 576.00 347.00 L 577.00 346.00 L 577.00 317.00 L 576.00 316.00 L 576.00 314.00 L 575.00 313.00 L 575.00 312.00 L 573.00 310.00 L 573.00 309.00 L 571.00 307.00 L 571.00 306.00 L 568.00 303.00 L 568.00 302.00 L 565.00 299.00 L 565.00 298.00 L 562.00 295.00 L 562.00 294.00 L 559.00 291.00 L 559.00 290.00 L 556.00 287.00 L 556.00 286.00 L 550.00 279.00 L 550.00 278.00 L 548.00 276.00 L 548.00 275.00 L 545.00 272.00 L 545.00 271.00 L 542.00 268.00 L 542.00 267.00 L 539.00 264.00 L 539.00 263.00 L 536.00 260.00 L 536.00 259.00 L 533.00 256.00 L 533.00 255.00 L 530.00 252.00 L 530.00 251.00 L 527.00 248.00 L 527.00 247.00 L 524.00 244.00 L 524.00 243.00 L 519.00 238.00 L 518.00 238.00 L 515.00 236.00 Z" fill="#FFFFFF"/>
  <path d="M 376.00 603.00 L 376.00 609.00 L 379.00 612.00 L 380.00 612.00 L 381.00 613.00 L 387.00 613.00 L 388.00 612.00 L 391.00 612.00 L 392.00 611.00 L 395.00 611.00 L 396.00 610.00 L 401.00 610.00 L 402.00 609.00 L 409.00 609.00 L 410.00 608.00 L 429.00 608.00 L 430.00 609.00 L 437.00 609.00 L 438.00 610.00 L 443.00 610.00 L 444.00 611.00 L 447.00 611.00 L 448.00 612.00 L 451.00 612.00 L 452.00 613.00 L 454.00 613.00 L 455.00 614.00 L 460.00 615.00 L 461.00 616.00 L 466.00 618.00 L 471.00 622.00 L 472.00 622.00 L 476.00 626.00 L 476.00 627.00 L 478.00 630.00 L 478.00 633.00 L 479.00 634.00 L 479.00 645.00 L 480.00 646.00 L 480.00 663.00 L 481.00 664.00 L 481.00 685.00 L 482.00 686.00 L 482.00 710.00 L 470.00 722.00 L 470.00 723.00 L 469.00 724.00 L 469.00 727.00 L 468.00 728.00 L 469.00 729.00 L 469.00 733.00 L 470.00 734.00 L 471.00 737.00 L 474.00 740.00 L 475.00 740.00 L 478.00 743.00 L 479.00 743.00 L 486.00 749.00 L 487.00 749.00 L 489.00 751.00 L 490.00 751.00 L 493.00 754.00 L 494.00 754.00 L 496.00 756.00 L 497.00 756.00 L 500.00 759.00 L 501.00 759.00 L 503.00 761.00 L 504.00 761.00 L 507.00 763.00 L 515.00 763.00 L 516.00 762.00 L 519.00 761.00 L 525.00 756.00 L 526.00 756.00 L 528.00 754.00 L 529.00 754.00 L 532.00 751.00 L 533.00 751.00 L 535.00 749.00 L 536.00 749.00 L 538.00 747.00 L 539.00 747.00 L 542.00 744.00 L 543.00 744.00 L 546.00 741.00 L 547.00 741.00 L 553.00 735.00 L 553.00 734.00 L 554.00 733.00 L 554.00 725.00 L 553.00 724.00 L 552.00 721.00 L 548.00 717.00 L 547.00 717.00 L 541.00 711.00 L 541.00 710.00 L 540.00 709.00 L 540.00 686.00 L 541.00 685.00 L 541.00 662.00 L 542.00 661.00 L 542.00 641.00 L 543.00 640.00 L 543.00 632.00 L 544.00 631.00 L 544.00 629.00 L 545.00 628.00 L 545.00 627.00 L 552.00 620.00 L 553.00 620.00 L 555.00 618.00 L 556.00 618.00 L 561.00 615.00 L 563.00 615.00 L 566.00 613.00 L 568.00 613.00 L 569.00 612.00 L 572.00 612.00 L 573.00 611.00 L 577.00 611.00 L 578.00 610.00 L 583.00 610.00 L 584.00 609.00 L 591.00 609.00 L 592.00 608.00 L 611.00 608.00 L 612.00 609.00 L 620.00 609.00 L 621.00 610.00 L 625.00 610.00 L 626.00 611.00 L 630.00 611.00 L 631.00 612.00 L 635.00 612.00 L 636.00 613.00 L 640.00 613.00 L 641.00 612.00 L 643.00 612.00 L 645.00 609.00 L 645.00 602.00 L 644.00 601.00 L 641.00 594.00 L 639.00 592.00 L 639.00 591.00 L 638.00 590.00 L 635.00 583.00 L 632.00 580.00 L 632.00 579.00 L 631.00 579.00 L 626.00 576.00 L 396.00 576.00 L 395.00 577.00 L 393.00 577.00 L 392.00 578.00 L 391.00 578.00 L 389.00 580.00 L 389.00 581.00 L 385.00 586.00 L 383.00 591.00 L 381.00 593.00 L 379.00 598.00 L 377.00 600.00 L 377.00 602.00 Z" fill="#FFFFFF"/>
</svg>