<?xml version="1.0" encoding="UTF-8" standalone="no"?>
<!-- Created with Inkscape (http://www.inkscape.org/) -->

<svg
   width="44.949776mm"
   height="54.822739mm"
   viewBox="0 0 44.949776 54.822739"
   version="1.1"
   id="svg1"
   xml:space="preserve"
   xmlns="http://www.w3.org/2000/svg"
   xmlns:svg="http://www.w3.org/2000/svg"><defs
     id="defs1" /><g
     id="layer1"
     transform="translate(657.41931,-103.09813)"><path
       style="fill:#ffffff"
       d="m -657.41931,113.45598 4.55969,-2.07129 4.55968,-2.07128 6.05367,-2.78672 6.05367,-2.78671 0.69191,-0.32093 0.69191,-0.32092 2.94875,1.37628 2.94876,1.37629 2.75167,1.27873 2.75166,1.27872 4.14867,1.91694 4.14867,1.91694 1.32053,0.59947 1.32054,0.59947 -0.008,22.169 -0.008,22.169 c 0,0 -44.85094,0.20202 -44.92297,0.12396 z m 42.34374,42.1348 0.22045,-40.80964 c 0,0 -3.21769,-1.36102 -3.2184,-1.3678 l -2.96333,-1.37934 -3.59833,-1.71166 -3.59834,-1.71166 -3.27517,-1.57653 -3.27517,-1.57652 -4.26016,1.9983 -4.26016,1.9983 -4.52967,2.07072 -4.52967,2.07072 -1.33317,0.60747 -1.33317,0.60748 c -0.15042,-0.21407 -0.0734,40.70378 -0.0734,40.70378 z m -20.27058,-4.64803 -0.6767,-0.48623 -2.58233,-1.9394 -2.58234,-1.93941 -1.22766,-1.01962 -1.22767,-1.01962 -1.76462,-1.74058 -1.76462,-1.74058 -0.7674,-0.96579 -0.76739,-0.96579 -0.16291,-0.42872 -0.1629,-0.42873 -0.0748,-4.74382 -0.0748,-4.74381 -0.003,-4.07136 -0.003,-4.07135 0.78317,-0.26572 0.78317,-0.26573 0.635,-0.17281 0.635,-0.1728 0.762,-0.17287 0.762,-0.17287 0.97366,-0.20444 0.97367,-0.20444 1.143,-0.20573 1.143,-0.20573 1.05833,-0.17358 1.05834,-0.17359 1.05833,-0.17061 1.05833,-0.17061 0.96605,-0.13674 0.96605,-0.13675 0.51562,0.0903 0.51562,0.0903 1.05833,0.16792 1.05833,0.16792 1.86047,0.30444 1.86046,0.30445 1.47334,0.29272 1.47333,0.29272 0.56087,0.13018 0.56087,0.13018 0.635,0.17164 0.635,0.17164 0.84666,0.25853 0.84667,0.25853 0.1905,0.0865 0.1905,0.0865 v 9.0304 9.03039 l -0.3175,0.52101 -0.3175,0.52101 -0.50495,0.61617 -0.50496,0.61618 -1.35771,1.38467 -1.35771,1.38468 -0.96506,0.85899 -0.96506,0.85899 -0.81294,0.65136 -0.81294,0.65137 -1.60867,1.21655 -1.60867,1.21656 -0.34959,0.24874 -0.34959,0.24875 -1.20655,0.86783 -1.20655,0.86784 h -0.13783 -0.13782 z m 2.21115,-2.45624 1.27918,-0.90987 0.58349,-0.42261 0.58348,-0.42261 1.43933,-1.09763 1.43934,-1.09764 1.22766,-1.01335 1.22767,-1.01335 0.93322,-0.93774 0.93323,-0.93773 0.53018,-0.73687 0.53018,-0.73687 0.21267,-0.48088 0.21267,-0.48089 0.13093,-0.68724 0.13092,-0.68725 0.0133,-7.53013 0.0133,-7.53013 -0.84667,-0.28334 -0.84667,-0.28334 -0.59266,-0.12815 -0.59267,-0.12816 -0.96771,-0.20493 -0.96771,-0.20494 -1.31829,-0.21521 -1.31829,-0.21522 -1.016,-0.16556 -1.016,-0.16557 -1.143,-0.17168 -1.143,-0.17168 -0.53057,-0.0807 -0.53057,-0.0807 -0.48543,0.0798 -0.48543,0.0798 -2.54,0.3839 -2.54,0.38391 -0.762,0.13137 -0.762,0.13138 -1.05833,0.20173 -1.05834,0.20173 -0.93133,0.21344 -0.93133,0.21344 -0.55034,0.15512 -0.55033,0.15511 -0.1905,0.10314 -0.1905,0.10313 0.004,5.56386 0.004,5.56385 0.0738,1.94734 0.0738,1.94733 0.1285,0.59267 0.12851,0.59266 0.18609,0.42334 0.18609,0.42333 0.37957,0.59267 0.37957,0.59266 1.40798,1.39788 1.40798,1.39789 1.04256,0.84578 1.04256,0.84578 0.86244,0.66246 0.86244,0.66245 1.10067,0.82352 1.10067,0.82351 1.143,0.80715 1.143,0.80714 0.20934,0.14106 0.20933,0.14105 0.0447,-3e-4 0.0447,-3e-4 z"
       id="path4-6" /><path
       style="fill:#ffffff;fill-opacity:1;stroke:#ffffff;stroke-width:0.675"
       d="m -2403.2034,560.90473 c -6.2199,-4.36435 -18.0706,-13.2871 -23.5373,-17.72201 -5.4955,-4.45828 -14.2438,-13.12604 -16.0807,-15.93272 -1.9249,-2.94103 -2.9514,-5.27514 -3.5305,-8.0278 -0.7668,-3.64487 -1.0233,-12.98172 -1.0232,-37.2384 l 1e-4,-21.6412 0.8807,-0.41996 c 1.9383,-0.92433 14.0938,-3.61962 23.2443,-5.15408 4.2769,-0.71719 22.7592,-3.51918 24.25,-3.67638 0.812,-0.0856 3.5714,0.22137 7.875,0.87613 20.7318,3.15415 32.4841,5.40184 38.1948,7.30495 l 3.1024,1.03389 -0.1084,28.65892 c -0.1198,31.68799 -0.078,30.85459 -1.7368,34.78393 -3.2455,7.68925 -15.6164,18.96015 -39.609,36.08717 -3.5926,2.56456 -6.5917,4.66283 -6.6647,4.66283 -0.073,0 -2.4385,-1.61787 -5.2567,-3.59527 z"
       id="path6"
       transform="scale(0.26458333)" /></g></svg>
