<?xml version="1.0" encoding="UTF-8" standalone="no"?>
<!-- Created with Inkscape (http://www.inkscape.org/) -->

<svg
   width="45.234642mm"
   height="45.861122mm"
   viewBox="0 0 45.234642 45.861122"
   version="1.1"
   id="svg1"
   xml:space="preserve"
   xmlns="http://www.w3.org/2000/svg"
   xmlns:svg="http://www.w3.org/2000/svg"><defs
     id="defs1" /><g
     id="layer1"
     transform="translate(-633.85163,-83.066764)"><path
       style="fill:#000000"
       d="m 645.39136,128.92048 -0.93362,-0.008 -1.41029,-0.29234 -1.41028,-0.29234 -1.05916,-0.50526 -1.05916,-0.50525 -0.72094,-0.54646 -0.72094,-0.54646 -0.73628,-0.78708 -0.73628,-0.78708 -0.52376,-0.80966 -0.52376,-0.80965 -0.33323,-0.73491 -0.33322,-0.73491 -0.24949,-0.74059 -0.24948,-0.74058 -0.26992,-1.60264 -0.26992,-1.60264 0.0253,-2.11666 0.0253,-2.11667 0.2601,-1.45481 0.26009,-1.45481 0.39963,-1.45812 0.39962,-1.45812 0.60215,-1.61438 0.60215,-1.61439 0.90751,-1.88148 0.90752,-1.881482 0.74626,-1.29352 0.74627,-1.29352 1.02264,-1.528704 1.02264,-1.528704 1.04545,-1.352315 1.04544,-1.352315 1.70514,-1.7198 1.70514,-1.7198 0.64676,-0.428661 0.64676,-0.42866 0.44098,-0.119729 0.44097,-0.11973 0.47878,0.128924 0.47879,0.128923 0.43256,0.445718 0.43255,0.445718 0.82315,1.629243 0.82315,1.629243 0.1274,0.03818 0.12739,0.03818 0.13847,-0.462155 0.13846,-0.462156 0.47532,-0.711793 0.47532,-0.711794 0.84599,-0.783254 0.84598,-0.783253 1.15056,-0.758644 1.15057,-0.758644 1.67199,-0.808657 1.67199,-0.808656 1.21735,-0.418341 1.21735,-0.418341 1.15297,-0.234962 1.15298,-0.234961 1.03986,3.75e-4 1.03986,3.76e-4 1.05834,0.180384 1.05833,0.180385 0.76435,0.239205 0.76435,0.239205 0.85263,0.424083 0.85263,0.424082 0.85246,0.677448 0.85247,0.677449 0.7213,0.896309 0.72131,0.896308 0.53243,1.080575 0.53243,1.080575 0.25174,0.823148 0.25174,0.823149 0.22777,1.469907 0.22777,1.469908 -5.1e-4,1.822685 -5.2e-4,1.822682 -0.28443,1.888254 -0.28444,1.88825 -0.30857,1.22795 -0.30857,1.22796 -0.35755,1.17593 -0.35755,1.17592 -0.64939,1.6463 -0.6494,1.6463 -0.86006,1.7177 -0.86007,1.71771 -0.65308,1.07702 -0.65307,1.07702 -0.81548,1.21545 -0.81547,1.21544 -0.96794,1.21499 -0.96795,1.21499 -0.95196,0.99619 -0.95196,0.99619 -0.8685,0.69377 -0.8685,0.69377 -0.80426,0.40502 -0.80426,0.40501 h -0.40795 -0.40796 l -0.29794,-0.26458 -0.29795,-0.26458 -1.07006,-2.08727 -1.07006,-2.08727 h -0.0413 -0.0413 l -0.18001,0.61736 -0.18,0.61736 -0.37248,0.58797 -0.37248,0.58796 -0.46757,0.56002 -0.46757,0.56003 -0.95797,0.77053 -0.95796,0.77053 -1.05834,0.65937 -1.05833,0.65936 -1.07663,0.51115 -1.07664,0.51114 -1.39281,0.45634 -1.39281,0.45634 -1.53583,0.24699 -1.53583,0.247 z m 0.49149,-2.47356 1.4251,0.0118 1.04434,-0.18146 1.04434,-0.18146 1.36399,-0.45533 1.36399,-0.45534 1.17488,-0.58958 1.17488,-0.58958 1.22409,-0.81928 1.2241,-0.81928 0.55891,-0.49288 0.51342,-0.50115 0.11708,-0.27695 0.005,-0.26041 -0.079,-0.19966 -0.19886,-0.12938 -0.24307,-0.0455 c -0.0989,2.7e-4 -0.1933,0.14829 -0.31335,0.0744 l -0.60405,0.33751 -0.62059,0.41192 -1.80223,0.83624 -1.80223,0.83623 -1.35232,0.45247 -1.35231,0.45247 -0.88195,0.19616 -0.88194,0.19616 -1.46991,0.006 -1.4699,0.006 -0.76436,-0.20684 -0.76435,-0.20683 -0.76335,-0.37306 -0.76335,-0.37307 -0.71018,-0.70555 -0.71019,-0.70556 -0.38144,-0.72743 -0.38143,-0.72744 -0.23862,-0.91886 -0.23862,-0.91886 -0.0654,-1.23472 -0.0654,-1.23473 0.18676,-1.41111 0.18675,-1.41111 0.40436,-1.4753 0.40435,-1.47531 0.43751,-1.11173 0.4375,-1.11173 0.69718,-1.39537 0.69718,-1.39536 0.5969,-0.95649 0.59691,-0.95649 0.79449,-1.06083 0.79448,-1.06082 0.99596,-1.114642 0.99595,-1.11463 1.10328,-0.96162 1.10329,-0.96162 0.76435,-0.574498 0.76435,-0.574502 0.52917,-0.29284 0.50022,-0.315578 -0.003,-0.264971 -0.0651,-0.269104 -0.52581,-1.135734 -0.55889,-1.11713 -0.80554,-1.558102 -0.80554,-1.558102 h -0.32039 l -0.31212,0.04961 -0.46689,0.282899 -0.45861,0.332508 -0.81063,0.872816 -0.81063,0.872817 -1.2012,1.545987 -1.20121,1.545988 -0.6664,0.945624 -0.6664,0.945623 -0.76536,1.27135 -0.76537,1.27135 -0.68976,1.352321 -0.68977,1.35231 -0.55147,1.29352 -0.55147,1.29352 -0.5069,1.53206 -0.5069,1.53207 -0.30772,1.37205 -0.30773,1.37206 -0.17223,1.21162 -0.17223,1.21162 -10e-4,1.82269 -10e-4,1.82268 0.16966,1.11713 0.16966,1.11713 0.30081,1.03344 0.3008,1.03345 0.42452,0.84804 0.42451,0.84804 0.50468,0.71155 0.50468,0.71155 0.49229,0.44475 0.49229,0.44476 0.70665,0.45673 0.70664,0.45672 0.6639,0.24847 0.66391,0.24848 0.70556,0.15516 0.70555,0.15516 z m 0.75036,-4.50774 1.4699,-0.0471 1.35232,-0.34909 1.35231,-0.34909 1.28534,-0.50811 1.28534,-0.50811 1.47809,-0.86318 1.47808,-0.86319 0.75563,-0.35776 0.75563,-0.35776 0.65548,-0.13041 0.65549,-0.13041 0.0403,-0.0267 0.0403,-0.0267 -0.19209,-0.66077 -0.19209,-0.66078 -0.73013,0.0935 -0.73013,0.0935 -1.17593,-0.0212 -1.17592,-0.0212 -0.94075,-0.24522 -0.94074,-0.24523 -0.8715,-0.41291 -0.87151,-0.41291 -0.71599,-0.51253 -0.716,-0.51253 -0.72267,-0.75482 -0.72268,-0.75481 -0.47314,-0.73204 -0.47314,-0.73204 -0.37154,-0.8925 -0.37155,-0.89249 -0.1773,-0.83848 -0.17729,-0.83847 0.0557,-1.5875 0.0557,-1.5875 0.2572,-0.80456 0.25719,-0.80455 -0.0524,-0.0525 -0.0525,-0.0524 -0.76747,1.03339 -0.76747,1.03339 -0.6799,1.11713 -0.67989,1.11713 -0.55526,1.17593 -0.55525,1.17592 -0.41376,1.18967 -0.41376,1.18966 -0.32015,1.39738 -0.32016,1.39737 -0.0569,1.67785 -0.0569,1.67785 0.13986,0.71089 0.13986,0.7109 0.14024,0.53565 0.30393,0.50057 0.48075,0.52154 0.42812,0.44555 0.48893,0.28519 0.4363,0.20919 0.58796,0.1528 0.58797,0.1528 z m 17.56078,-0.77212 0.23277,-0.0868 0.59882,-0.37756 0.59883,-0.46439 0.84159,-0.85853 0.84159,-0.85853 1.08028,-1.35231 1.08028,-1.35232 1.02327,-1.5287 1.02326,-1.52871 0.77987,-1.41111 0.77986,-1.41111 0.72862,-1.6463 0.72861,-1.64629 0.57585,-1.72265 0.57584,-1.72265 0.34853,-1.51115 0.34852,-1.51115 0.19244,-1.646292 0.19244,-1.6463 -0.065,-1.822683 -0.065,-1.822686 -0.30208,-1.175926 -0.30208,-1.175926 -0.45345,-0.94074 -0.45346,-0.940741 -0.53444,-0.705556 -0.53443,-0.705555 -0.6289,-0.515683 -0.62889,-0.515683 -0.94074,-0.454705 -0.94075,-0.454706 -0.82314,-0.174098 -0.82315,-0.174097 -1.23472,-0.0019 -1.23473,-0.0019 -1.18725,0.287641 -1.18726,0.287641 -1.27823,0.480125 -1.27823,0.480125 -1.15476,0.584442 -1.15475,0.584443 -1.17772,0.734908 -1.17772,0.734908 -0.59249,0.518151 -0.59249,0.518151 -0.0915,0.246201 -0.0915,0.246201 0.0559,0.146991 0.0559,0.14699 h 0.30569 0.30569 l 0.65432,-0.458976 0.65431,-0.458976 1.05441,-0.542561 1.05441,-0.542562 1.17741,-0.459311 1.1774,-0.459311 0.94074,-0.238239 0.94074,-0.238239 1.05833,-0.131063 1.05833,-0.131063 0.9691,0.137055 0.96909,0.137056 0.79755,0.382215 0.79755,0.382215 0.54196,0.541962 0.54196,0.541962 0.30645,0.522915 0.30645,0.522915 0.34693,1.039753 0.34692,1.039754 0.13885,1.245412 0.13884,1.245413 -0.13585,1.391321 -0.13586,1.39133 -0.23082,1.03626 -0.23083,1.036252 -0.36661,1.1483 -0.36661,1.14831 -0.6239,1.44495 -0.62391,1.44496 -0.78415,1.35036 -0.78414,1.35037 -0.65099,0.90884 -0.65098,0.90885 -0.77887,0.92828 -0.77887,0.92829 -0.98855,0.85665 -0.98855,0.85666 -1.04302,0.61739 -1.04302,0.6174 -0.11512,0.13871 -0.0159,0.19246 0.43698,1.16817 0.53621,1.22192 0.89649,1.85208 0.8965,1.85208 z m -7.68301,-7.5354 1.23472,0.006 0.75398,-0.17772 0.75399,-0.17773 0.72509,-0.34605 0.7251,-0.34606 0.75518,-0.58428 0.75518,-0.58427 0.42153,-0.50711 0.42154,-0.5071 0.33087,-0.52507 0.33087,-0.52508 0.3593,-0.94483 0.3593,-0.94483 -0.002,-1.6463 -0.002,-1.6463 -0.30795,-0.86253 -0.30795,-0.86253 -0.39048,-0.65589 -0.41322,-0.61661 -0.74983,-0.81391 -0.79944,-0.731234 -0.72926,-0.487388 -0.75614,-0.44398 -0.94074,-0.31534 -0.94074,-0.31535 h -1.5875 -1.5875 l -0.94074,0.31535 -0.94074,0.31534 -0.75079,0.44398 -0.69291,0.474986 -0.83579,0.748916 -0.73038,0.80058 -0.43804,0.62998 -0.3905,0.65064 -0.30984,0.8625 -0.30984,0.86249 -0.005,1.46991 -0.005,1.46991 0.27418,0.88194 0.27417,0.88195 0.40705,0.73372 0.40705,0.73373 0.65289,0.70519 0.65289,0.7052 0.78492,0.52182 0.78493,0.52181 0.64439,0.25403 0.64438,0.25403 0.58797,0.15874 0.61573,0.1149 z m 10.58733,-8.57555 0.22458,-0.29321 0.75741,-1.46991 0.7574,-1.46991 0.41723,-1.2035 0.41723,-1.203512 0.23978,-1.24251 0.23978,-1.24251 -0.002,-1.434541 -0.002,-1.434539 -0.16763,-0.791009 -0.16763,-0.791009 -0.22866,-0.516904 -0.22865,-0.516903 -0.42827,-0.474046 -0.42827,-0.474045 -0.53586,-0.251887 -0.53587,-0.251886 -0.72481,-0.06688 -0.7248,-0.06688 -1.03187,0.194182 -1.03186,0.194181 -1.0081,0.355815 -1.0081,0.355816 -1.04679,0.460648 -1.04679,0.460649 -0.97019,0.544795 -0.97019,0.544795 -1.4445,0.951849 -1.44449,0.951849 0.0769,0.357784 0.077,0.357783 0.16524,0.32338 0.16525,0.32338 h 1.04497 1.04497 l 0.86289,0.165686 0.86289,0.165686 0.82315,0.309685 0.82314,0.30969 0.8117,0.48128 0.81169,0.48128 0.93758,0.89543 0.93759,0.89543 0.50051,0.705558 0.50052,0.70555 0.35954,0.71752 0.35953,0.71753 0.30913,1.10516 0.30913,1.10516 0.058,0.17562 0.058,0.17562 z"
       id="path231" /><path
       style="fill:#f39624;fill-opacity:1;stroke:#000000;stroke-width:0.675"
       d="m 2480.25,429.24695 c -3.8068,-0.12324 -5.0975,-0.25913 -6.5,-0.68435 -3.6228,-1.09838 -6.5076,-2.45971 -9.5,-4.48302 -5.939,-4.01568 -9.6883,-9.13168 -11.8434,-16.16064 l -1.0316,-3.36472 v -5.2726 -5.27261 l 1.2261,-3.3678 c 1.7789,-4.88594 3.1987,-7.11285 6.9952,-10.97182 4.0732,-4.14027 6.8646,-5.89359 12.2693,-7.70656 l 3.6157,-1.21283 h 5.7687 5.7687 l 3.6854,1.23462 c 5.5642,1.86406 8.4367,3.62803 12.3263,7.56955 3.6348,3.68331 5.2628,6.27321 6.9718,11.0906 l 1.1228,3.16517 v 6.16538 6.16537 l -1.3714,3.57739 c -0.7543,1.96756 -1.8981,4.42248 -2.5419,5.45537 -4.254,6.82518 -11.0543,11.75388 -18.7606,13.59725 -1.6769,0.40111 -3.1394,0.70696 -3.25,0.67966 -0.1106,-0.0273 -2.3386,-0.11884 -4.9511,-0.20341 z"
       id="path232"
       transform="scale(0.26458333)" /><path
       style="fill:#f39624;fill-opacity:1;stroke:#000000;stroke-width:0.675"
       d="m 2433,477.14157 c -3.7615,-0.84143 -7.0691,-2.18481 -10.0166,-4.06818 -5.3318,-3.40683 -8.617,-7.17191 -11.8505,-13.58149 -2.1679,-4.29725 -3.6881,-9.36542 -4.6092,-15.3669 -0.5868,-3.82312 -0.6515,-4.94055 -0.6437,-11.125 0.01,-6.24576 0.074,-7.32119 0.7268,-11.75 2.4897,-16.90175 8.9741,-34.26018 18.9884,-50.83127 3.7458,-6.19828 6.7194,-10.44233 12.7303,-18.16873 4.8676,-6.25678 9.8328,-11.71333 12.1879,-13.39387 1.331,-0.94982 1.7247,-1.10613 2.7855,-1.10613 h 1.2353 l 5.1704,10.21435 c 3.7167,7.3425 5.1699,10.45281 5.1687,11.0625 0,0.7962 -0.1126,0.90766 -1.8125,1.81975 -4.7565,2.55212 -14.424,10.76836 -19.9494,16.95461 -4.332,4.85018 -9.0413,11.03967 -11.9417,15.69512 -2.7591,4.42878 -7.4296,13.79212 -9.4036,18.85219 -2.3939,6.13664 -4.4439,13.92898 -5.2684,20.02648 -0.6198,4.58291 -0.6621,5.41025 -0.5074,9.91802 0.1575,4.58987 0.2324,5.16537 1.1217,8.62511 1.3959,5.43052 2.7118,7.81759 6.3609,11.53905 2.5926,2.64406 2.9704,2.92974 5.6878,4.30099 1.9008,0.95917 3.8958,1.7329 5.75,2.22994 2.7702,0.74262 2.9776,0.76114 8.5286,0.76151 5.3846,3.6e-4 5.8667,-0.0391 9,-0.73661 5.6489,-1.2575 13.5181,-4.09224 20.8107,-7.49673 3.575,-1.66895 7.5181,-3.70537 8.7624,-4.52537 1.9518,-1.28625 2.4229,-1.49091 3.4317,-1.49091 1.4645,0 2.0576,0.69521 1.7936,2.10233 -0.4108,2.19025 -9.8348,9.00904 -18.2727,13.22148 -5.9144,2.95263 -12.8241,5.32419 -18.3299,6.29125 -3.214,0.56452 -4.2538,0.63221 -9.375,0.61034 -4.9932,-0.0213 -6.093,-0.099 -8.2601,-0.58383 z"
       id="path233"
       transform="scale(0.26458333)" /><path
       style="fill:#f39624;fill-opacity:1;stroke:#000000;stroke-width:0.675"
       d="m 2506.158,450.80924 c -1.8381,-3.81383 -4.2448,-8.9889 -5.3482,-11.50015 -1.9767,-4.49888 -1.9993,-4.5735 -1.5386,-5.0825 0.2571,-0.28412 2.2382,-1.5665 4.4023,-2.84973 3.0984,-1.83715 4.7112,-3.0096 7.5867,-5.51503 8.5815,-7.47706 17.2708,-19.96083 22.7864,-32.73683 4.3226,-10.01255 6.4843,-17.96671 7.3871,-27.18187 l 0.5322,-5.43186 -0.5375,-4.81814 c -0.4964,-4.44895 -0.641,-5.12462 -1.8871,-8.81813 -1.6711,-4.95299 -2.6334,-6.62111 -5.5203,-9.56923 -2.0713,-2.11529 -2.5238,-2.4417 -5.146,-3.71207 -2.7102,-1.31298 -3.0911,-1.42446 -6.6444,-1.94447 l -3.7695,-0.55164 -4.3555,0.55494 c -2.5181,0.32083 -5.8088,0.93811 -7.8003,1.46319 -7.0256,1.85241 -16.9115,6.29002 -22.3421,10.02892 -2.1766,1.49856 -2.8752,1.85536 -3.6327,1.85536 -1.1935,0 -1.5462,-0.552 -1.1589,-1.81387 0.42,-1.3685 4.1099,-4.40402 9.3284,-7.67404 8.943,-5.60386 18.5481,-9.79142 27.3021,-11.90296 4.5556,-1.09886 4.6395,-1.10913 9.0574,-1.10913 6.2746,0 9.2336,0.62841 14.2266,3.02132 4.7945,2.29775 7.5386,4.49489 10.4478,8.36527 3.1315,4.16613 5.0808,8.40222 6.6013,14.34543 l 1.1878,4.64298 0.1758,6.875 c 0.1651,6.45952 0.1358,7.22249 -0.4844,12.625 -1.7583,15.31629 -7.776,33.23067 -16.3646,48.71678 -7.4304,13.39756 -19.735,29.23657 -27.073,34.84943 -1.8799,1.43799 -2.5402,1.80812 -3.2207,1.80553 l -0.8561,-0.003 z"
       id="path234"
       transform="scale(0.26458333)" /></g></svg>
