<?xml version="1.0" encoding="UTF-8" standalone="no"?>
<!-- Created with Inkscape (http://www.inkscape.org/) -->

<svg
   width="336.34659mm"
   height="365.34525mm"
   viewBox="0 0 336.34659 365.34525"
   version="1.1"
   id="svg1"
   xml:space="preserve"
   xmlns="http://www.w3.org/2000/svg"
   xmlns:svg="http://www.w3.org/2000/svg"><defs
     id="defs1" /><g
     id="layer1"
     transform="translate(-781.9602,115.91719)"><path
       style="fill:#000000"
       d="m 944.3273,249.38796 -2.23426,0.0401 -0.76435,-0.10562 -0.76435,-0.10562 -1.17296,-0.25065 -1.17296,-0.25066 -1.0613,-0.35202 -1.0613,-0.35203 -1.10353,-0.51884 -1.10352,-0.51885 -7.71592,-4.08009 -7.71592,-4.08008 -9.28981,-5.75832 -9.28982,-5.75832 -2.52824,-1.64554 -2.52824,-1.64553 -2.46944,-1.64696 -2.46945,-1.64695 -2.99861,-2.0598 -2.99861,-2.0598 -2.41065,-1.70291 -2.41065,-1.70291 -2.29305,-1.65142 -2.29306,-1.65142 -2.93981,-2.17304 -2.93982,-2.17304 -2.70462,-2.0573 -2.70463,-2.0573 -2.35186,-1.82648 -2.35185,-1.82648 -2.88102,-2.28844 -2.88101,-2.28844 -2.52824,-2.06122 -2.52825,-2.06123 -3.17499,-2.64575 -3.175,-2.64574 -2.41065,-2.05759 -2.41065,-2.05758 -3.2338,-2.82235 -3.23379,-2.82235 -2.70463,-2.41639 -2.70463,-2.41639 -2.76343,-2.52273 -2.76342,-2.52273 -2.46945,-2.3013 -2.46944,-2.3013 -3.58658,-3.28332 -3.58657,-3.28331 -3.29827,-3.29928 -3.29828,-3.29929 -0.61086,-0.82314 -0.61086,-0.82315 -0.41858,-0.79332 -0.41857,-0.79332 -0.2349,-0.67659 -0.2349,-0.67659 -0.069,-0.95081 -0.069,-0.95082 0.20214,-0.90859 0.20214,-0.90859 0.51631,-1.02161 0.51631,-1.02161 0.61607,-0.82315 0.61608,-0.82315 1.82718,-1.83051 1.82718,-1.83051 2.46944,-2.29979 2.46944,-2.2998 3.2926,-2.92388 3.29259,-2.92387 1.28097,-1.24208 1.28097,-1.24207 -0.14559,-0.44113 -0.14558,-0.44113 -1.35734,-2.02234 -1.35733,-2.02234 -0.55862,-1.17592 -0.55862,-1.17593 -0.36817,-1.15484 -0.36817,-1.15484 -0.13299,-1.13822 -0.13299,-1.13821 0.19161,-0.94074 0.1916,-0.94074 0.42271,-0.85723 0.4227,-0.85723 0.80422,-0.80421 0.80421,-0.80422 0.98033,-0.64858 0.98034,-0.648583 1.41111,-0.7032 1.41111,-0.7032 2.23426,-0.96636 2.23426,-0.96635 2.8401,-1.3867 2.84009,-1.38671 0.52315,-0.35993 0.52315,-0.35994 0.0715,-11.618687 0.0715,-11.618688 0.12386,-3.586574 0.12386,-3.586574 0.17472,-3.468982 0.17473,-3.468982 0.18584,-2.545422 0.18584,-2.545422 -0.29538,-0.467917 -0.29539,-0.467917 -3.15338,-2.330971 -3.15339,-2.33097 -3.76296,-2.819834 -3.76297,-2.819835 -2.46944,-1.937761 -2.46944,-1.937761 -2.70463,-2.258798 -2.70463,-2.258798 -1.94028,-1.747847 -1.94028,-1.747847 -2.41285,-2.41321 -2.41286,-2.413209 -1.51152,-1.701725 -1.51151,-1.701725 -1.35113,-1.685022 -1.35113,-1.685022 -1.25423,-1.755325 -1.25424,-1.755324 -1.10983,-1.795892 -1.10984,-1.7958913 -1.36199,-2.704629 -1.362,-2.70463 -0.60819,-1.546998 -0.6082,-1.54699698 -0.522,-1.58633202 -0.52201,-1.5863324 -0.47844,-1.9231519 -0.47843,-1.9231519 -0.29459,-1.7638889 -0.29459,-1.7638886 -0.18161,-1.881482 -0.18161,-1.881481 -0.0708,-3.116204 -0.0708,-3.116204 0.13765,-2.70306 0.13765,-2.703061 0.17426,-1.883051 0.17426,-1.88305 0.30145,-2.293056 0.30145,-2.293055 0.40275,-2.278766 0.40275,-2.278766 0.41844,-1.954568 0.41843,-1.954567 0.52752,-2.108351 0.52752,-2.108351 0.74801,-2.595353 0.74801,-2.595352 0.88355,-2.645834 0.88354,-2.645833 1.05,-2.763426 1.04999,-2.763426 0.94582,-2.234259 0.94581,-2.23426 0.96665,-2.116666 0.96664,-2.116667 1.39833,-2.795084 1.39833,-2.795085 1.33519,-2.437786 1.33519,-2.437786 0.96956,-1.646296 0.96956,-1.646297 1.00309,-1.646296 1.00308,-1.646296 1.79043,-2.70463 1.79043,-2.70463 1.58796,-2.116666 1.58797,-2.116667 1.27268,-1.528707 1.27268,-1.5287 2.41703,-2.42022 2.41704,-2.42022 1.23472,-1.00327 1.23472,-1.00327 1.05833,-0.76142 1.05834,-0.76143 0.9688,-0.60695 0.9688,-0.60695 1.16854,-0.64697 1.16855,-0.64696 1.4535,-0.63393 1.4535,-0.63393 1.66482,-0.53608 1.66481,-0.53607 1.43349,-0.30266 1.43349,-0.30267 1.48281,-0.17345 1.48282,-0.17346 2.23498,0.002 2.23497,0.002 1.23473,0.16693 1.23472,0.16693 0.88194,0.18589 0.88195,0.18589 1.17592,0.36043 1.17593,0.36043 1.23472,0.53423 1.23472,0.53423 0.94074,0.53149 0.94074,0.53148 0.70556,0.47385 0.70556,0.47386 0.89247,0.67562 0.89247,0.67561 1.28299,1.16792 1.28299,1.16793 1.17593,1.32413 1.17592,1.32414 1.09328,1.36706 1.09329,1.36705 1.50658,2.11779 1.50658,2.11779 3.17162,4.7625 3.17162,4.7625 2.00133,3.116204 2.00133,3.116204 2.64507,4.233333 2.64507,4.233333 4.88107,7.9375 4.88107,7.937501 1.38582,2.234259 1.38583,2.234259 2.00187,3.175 2.00187,3.175 0.0392,0.04823 0.0392,0.04823 2.6172,-0.546309 2.6172,-0.546309 2.23426,-0.411669 2.23426,-0.411669 2.58704,-0.403345 2.58703,-0.403345 2.82222,-0.359484 2.82223,-0.359483 2.35185,-0.234841 2.35185,-0.23484 2.35185,-0.176004 2.35185,-0.176004 2.52824,-0.149106 2.52824,-0.149106 h 6.99676 6.99676 l 2.52824,0.149106 2.52824,0.149106 2.35185,0.176004 2.35186,0.176004 2.35185,0.234782 2.35185,0.234781 2.35185,0.294367 2.35185,0.294368 2.70463,0.406955 2.70463,0.406955 2.97303,0.541221 2.97303,0.54122 2.61262,0.564647 2.61262,0.564648 0.1343,-0.134557 0.1343,-0.134557 2.34633,-3.762963 2.34633,-3.762963 3.68148,-5.938426 3.68148,-5.938426 3.53111,-5.644444 3.531,-5.644445 2.957,-4.586111 2.957,-4.586111 1.8137,-2.800504 1.8137,-2.800504 2.5392,-3.843478 2.5391,-3.843474 1.3414,-1.78046 1.3415,-1.78046 1.1933,-1.39454 1.1933,-1.39454 1.3937,-1.35588 1.3937,-1.35587 0.9201,-0.7461 0.9201,-0.74611 1.2771,-0.85325 1.2771,-0.85325 1.2718,-0.64635 1.2718,-0.64634 1.073,-0.42048 1.0731,-0.42048 1.3376,-0.35319 1.3376,-0.35319 1.0662,-0.18136 1.0663,-0.18136 1.7438,-0.11753 1.7438,-0.11753 1.8494,0.1174 1.8493,0.11739 1.4554,0.24679 1.4554,0.24679 1.3727,0.39469 1.3727,0.39468 1.1555,0.42941 1.1556,0.42942 1.5287,0.74021 1.5287,0.74021 1.2423,0.75012 1.2423,0.75012 1.3186,0.92586 1.3186,0.92585 1.496,1.23027 1.4961,1.23026 2.4735,2.48523 2.4735,2.48523 1.5437,1.855123 1.5438,1.85512 1.3909,1.849047 1.3909,1.849047 2.0057,2.998611 2.0057,2.998611 1.4755,2.469444 1.4755,2.469445 1.1878,2.130577 1.1878,2.130578 1.3535,2.631923 1.3534,2.631922 1.0738,2.293056 1.0739,2.293055 0.9434,2.175463 0.9435,2.175463 0.9758,2.469445 0.9758,2.469444 0.762,2.116667 0.762,2.116667 0.6685,2.05787 0.6684,2.05787 0.6463,2.23426 0.6463,2.234259 0.6435,2.587037 0.6434,2.587037 0.5793,2.881019 0.5792,2.881018 0.4112,2.881019 0.4112,2.881018 0.1784,1.940278 0.1783,1.940278 0.1193,2.234259 0.1194,2.234259 -10e-4,1.881482 -10e-4,1.881481 -0.1161,2.057871 -0.116,2.05787 -0.1814,1.705093 -0.1813,1.705093 -0.2262,1.4913497 -0.2263,1.4913502 -0.2444,1.2132794 -0.2444,1.2132795 -0.3508,1.3945599 -0.3509,1.39456 -0.4221,1.31007002 -0.4221,1.310069 -0.5826,1.46990798 -0.5825,1.469907 -0.7978,1.656954 -0.7978,1.656953 -0.9546,1.663745 -0.9545,1.6637453 -1.0827,1.618191 -1.0826,1.61819 -0.6475,0.881945 -0.6475,0.881944 -1.0728,1.352315 -1.0728,1.352315 -0.9173,1.058333 -0.9173,1.058334 -1.9542,2.097952 -1.9542,2.097953 -2.3542,2.209056 -2.3542,2.209056 -1.6463,1.448787 -1.6463,1.448787 -2.0579,1.713688 -2.0579,1.713688 -2.293,1.828734 -2.2931,1.828734 -3.4101,2.631504 -3.4102,2.631503 -2.549,1.972826 -2.549,1.972825 -0.074,0.12037 -0.074,0.12037 h 0.1131 0.1132 l 2.6278,-0.350385 2.6278,-0.350386 2.8223,-0.406416 2.8222,-0.406416 2.7046,-0.357414 2.7046,-0.357415 2.7635,-0.295302 2.7634,-0.295302 2.4106,-0.234099 2.4107,-0.2341 2.881,-0.236829 2.881,-0.23683 2.8223,-0.177587 2.8222,-0.177587 6.2324,-0.130196 6.2324,-0.130196 3.087,0.116151 3.0871,0.116152 0.1761,0.146199 0.1762,0.1462 v 0.518112 0.518113 l -0.1783,1.731146 -0.1783,1.731147 -0.1808,1.469907 -0.1807,1.469907 -0.3468,2.116667 -0.3467,2.116667 -0.3989,1.774079 -0.3989,1.77408 -0.5494,1.839274 -0.5494,1.839273 -0.6789,1.795906 -0.6789,1.795907 -0.7862,1.709938 -0.7862,1.709939 -0.9223,1.716318 -0.9223,1.716317 -1.0243,1.71809 -1.0243,1.71809 -3.468,5.02286 -3.4679,5.02286 -0.021,0.104936 -0.021,0.104936 1.6367,0.455544 1.6367,0.455549 2.5378,0.76382 2.5379,0.76382 3.2926,1.11024 3.2925,1.11024 2.8811,1.00215 2.881,1.00215 0.5585,0.24813 0.5586,0.24813 v 0.18337 0.18336 l -0.382,0.48729 -0.3821,0.48729 -2.052,2.35186 -2.0521,2.351847 -2.299,2.29612 -2.299,2.29612 -1.7051,1.47622 -1.7051,1.47622 -1.5875,1.26025 -1.5875,1.26026 -1.737,1.23865 -1.737,1.23866 -1.6732,1.06846 -1.6731,1.06846 -1.9217,1.10234 -1.9217,1.10233 -2.0765,1.03848 -2.0764,1.03848 -1.47,0.64797 -1.4699,0.64797 -1.6735,0.65945 -1.6736,0.65946 -2.0894,0.69484 -2.0894,0.69485 -0.7643,0.20575 -0.7644,0.20576 -0.093,0.0817 -0.093,0.0817 0.554,0.75338 0.554,0.75338 4.4899,4.46852 4.4899,4.46852 0.7623,0.99953 0.7623,0.99954 0.4299,0.70556 0.4299,0.70555 0.2452,0.69787 0.2453,0.69786 0.065,0.77565 0.065,0.77564 -0.2508,0.99175 -0.2508,0.99175 -0.3455,0.73844 -0.3456,0.73845 -0.6099,0.91204 -0.6098,0.91203 -0.8348,0.99954 -0.8348,0.99954 -1.2371,1.23874 -1.2371,1.23874 -5.174,4.94217 -5.1741,4.94217 -2.0603,1.93298 -2.0603,1.93298 -2.8198,2.58924 -2.8198,2.58924 -2.881,2.59007 -2.881,2.59006 -3.3514,2.93978 -3.3514,2.93977 -2.881,2.46863 -2.881,2.46863 -2.2343,1.88524 -2.2343,1.88525 -2.6458,2.16993 -2.6458,2.16993 -2.5871,2.06224 -2.587,2.06224 -2.6994,2.10222 -2.6994,2.10223 -3.533,2.65637 -3.533,2.65637 -3.4102,2.47681 -3.4102,2.47681 -3.3514,2.35021 -3.3514,2.3502 -2.587,1.76573 -2.58704,1.76572 -2.29305,1.52884 -2.29306,1.52883 -2.5402,1.65354 -2.54021,1.65354 -2.63387,1.67806 -2.63386,1.67806 -2.93982,1.81978 -2.93981,1.81978 -2.82223,1.70338 -2.82222,1.70338 -8.17268,4.82665 -8.17269,4.82665 -0.97731,0.50051 -0.97732,0.50051 -0.96296,0.36939 -0.96296,0.36938 -1.08055,0.28916 -1.08055,0.28916 -0.97732,0.18323 -0.97732,0.18322 z m -1.6911,-19.24587 0.66075,0.016 0.9998,-0.17435 0.99979,-0.17435 1.02617,-0.3622 1.02618,-0.36219 1.01744,-0.45049 1.01745,-0.4505 2.59897,-1.23984 2.59897,-1.23984 2.51631,-1.31539 2.5163,-1.3154 1.7051,-0.94055 1.70509,-0.94056 2.70463,-1.55702 2.70463,-1.55702 3.175,-1.918 3.175,-1.91801 2.88102,-1.81916 2.88101,-1.81916 2.64584,-1.714 2.64583,-1.71401 3.71685,-2.48871 3.71684,-2.4887 3.10353,-2.1516 3.10352,-2.1516 2.64588,-1.88218 2.6458,-1.88217 2.8222,-2.0566 2.8222,-2.0566 3.9982,-3.00459 3.9981,-3.00459 3.469,-2.70017 3.469,-2.70016 2.6458,-2.11714 2.6459,-2.11713 1.8814,-1.5306 1.8815,-1.53059 3.175,-2.64373 3.175,-2.64373 2.881,-2.46853 2.8811,-2.46852 2.759,-2.41864 2.759,-2.41863 3.0023,-2.70463 3.0023,-2.70463 1.941,-1.822 1.941,-1.822 3.3289,-3.33117 3.329,-3.33116 -0.036,-0.105 -0.036,-0.10499 -8.2903,-8.64715 -8.2903,-8.64715 -0.075,-1e-5 -0.075,-2e-5 -2.2181,2.07622 -2.2181,2.07622 -2.7046,2.5948 -2.7047,2.5948 -5.6444,5.4765 -5.6445,5.47649 -2.4694,2.35597 -2.4694,2.35596 -4.1763,3.93009 -4.1762,3.93008 -3.2909,3.0582 -3.2909,3.05819 -2.5282,2.29819 -2.5283,2.2982 -2.1166,1.8768 -2.1167,1.8768 -2.05789,1.76904 -2.05787,1.76903 -2.05787,1.70698 -2.05787,1.70699 -2.05787,1.64035 -2.05787,1.64036 -1.94849,1.48778 -1.9485,1.48777 -2.57882,1.84998 -2.57882,1.84997 -2.52824,1.66856 -2.52824,1.66855 -1.82268,1.11759 -1.82269,1.1176 -2.23426,1.25782 -2.23426,1.25782 -3.46898,1.74724 -3.46898,1.74725 -1.73894,0.77858 -1.73894,0.77859 -1.20087,0.48149 -1.20088,0.48149 -1.61516,0.57113 -1.61516,0.57114 -1.73372,0.47537 -1.73373,0.47537 -1.45515,0.30504 -1.45515,0.30503 -0.15092,-0.16005 -0.15091,-0.16005 -18.51014,-22.63657 -18.51014,-22.63658 -0.0935,-0.15297 -0.0935,-0.15297 2.03911,1.0205 2.03911,1.02049 2.70463,1.41309 2.70463,1.41308 5.23287,2.78724 5.23287,2.78724 3.1162,1.62447 3.1162,1.62446 5.28179,2.62291 5.28178,2.62291 2.12655,0.93953 2.12655,0.93954 1.11713,0.43177 1.11713,0.43177 0.60025,0.0104 0.60025,0.0104 1.6928,-0.83761 1.69281,-0.8376 3.52778,-2.02365 3.52777,-2.02366 2.62585,-1.57737 2.62584,-1.57737 2.19545,-1.36852 2.19545,-1.36852 3.26827,-2.15425 3.26826,-2.15425 2.37618,-1.6664 2.37618,-1.6664 2.05787,-1.52822 2.05787,-1.52821 1.82269,-1.42116 1.82268,-1.42116 1.76389,-1.46236 1.76389,-1.46235 1.78694,-1.56641 1.78694,-1.5664 2.09362,-1.98177 2.09363,-1.98178 2.587,-2.63856 2.5871,-2.63856 2.0513,-2.22989 2.0513,-2.22988 2.3019,-2.58703 2.3018,-2.58704 4.6281,-5.34076 4.628,-5.34077 0.9232,-1.15882 -0.5501,-0.10644 0.133,-0.24852 0.133,-0.24852 -0.289,0.0725 -0.2889,0.0725 -3.5715,1.25272 -5.0447,2.30508 -5.7621,2.62237 -5.762,2.62238 -3.1162,1.35292 -3.11622,1.35292 -2.99861,1.23264 -2.99861,1.23263 -2.32642,0.90353 -2.32642,0.90353 -2.95472,1.05585 -2.95472,1.05585 -2.36238,0.75001 -2.36238,0.75001 -1.82268,0.53336 -1.82269,0.53336 -2.46944,0.66119 -2.46944,0.66119 -1.91184,0.46013 -1.91184,0.46013 -2.02751,0.40672 -2.02752,0.40672 -1.7509,0.24443 -1.75091,0.24444 -2.10813,0.13678 -2.10814,0.13678 -3.25531,-0.1394 -3.25531,-0.13941 -1.6463,-0.17465 -1.64629,-0.17465 -1.29352,-0.18677 -1.29352,-0.18677 -1.73719,-0.34794 -1.7372,-0.34795 -1.36006,-0.35313 -1.36006,-0.35313 -1.0082,-0.32119 -1.00821,-0.32118 40.29458,-16.10381 39.49951,-16.2675 v -0.19561 -0.19561 l -0.147,-0.11989 -0.147,-0.11989 -1.1154,-0.49123 -1.9105,-0.65494 -3.5575,-1.00769 -3.5576,-1.00769 -1.8227,-0.60006 -1.8227,-0.60006 -2.93981,-1.02908 -2.93982,-1.029093 -3.76296,-1.37763 -3.76296,-1.37764 -4.29213,-1.64659 -4.29213,-1.64659 -5.35046,-2.15141 -5.35046,-2.15142 -3.70417,-1.549775 -3.70417,-1.54978 -3.76296,-1.623383 -3.76296,-1.623384 -1.70509,-0.733175 -1.7051,-0.733175 -0.17219,-0.161967 -0.17219,-0.161968 h 0.25305 0.25305 l 23.73164,2.231404 20.15977,1.404581 0.32338,0.04129 0.32338,0.04129 v -0.07175 -0.07176 l -7.45244,-3.922447 -11.0243,-4.749269 -4.8213,-2.051339 -4.82129,-2.05134 -5.99722,-2.498157 -5.99723,-2.498157 -4.43347,-1.780409 -4.33425,-1.49929 h -0.1584 -0.15839 l -2.91569,1.023429 -2.81646,1.304548 -6.29121,2.883607 -6.2912,2.883606 -16.87453,7.675732 -16.87454,7.675733 -4.23333,1.939464 -4.23334,1.93946 -4.58611,2.11597 -4.58611,2.11597 -4.29213,2.00104 -4.29213,2.00103 -5.46805,2.587554 -5.46806,2.58754 -1.92241,0.92335 -0.93023,0.69184 -0.51727,0.93707 0.47491,0.70555 2.44237,2.82223 2.44237,2.82222 7.23133,8.40787 7.23132,8.40787 3.0003,3.46898 3.0003,3.46898 2.82025,3.2338 2.82024,3.23379 3.06273,3.46899 3.06273,3.46898 3.22844,3.58657 3.22845,3.58658 2.59264,2.81999 2.59264,2.82 2.70463,2.88186 2.70463,2.88186 2.93981,3.05079 2.93982,3.0508 3.88635,3.88855 3.88635,3.88855 2.99281,2.87133 2.99282,2.87132 2.82222,2.60887 2.82223,2.60886 1.4699,1.31848 1.46991,1.31847 1.82269,1.38637 1.82268,1.38637 0.60031,0.51682 0.60031,0.51682 1.183,1.30684 1.183,1.30684 -0.78377,0.074 -0.78378,0.074 -0.56454,8.4e-4 -0.56455,8.3e-4 -1.61092,-0.40904 -1.61091,-0.40905 -1.46991,-0.45401 -1.46991,-0.45402 -1.68282,-0.61342 -1.68283,-0.61342 -1.84495,-0.76466 -1.84495,-0.76466 -2.73613,-1.33931 -2.73613,-1.33931 -1.73239,-0.9642 -1.73239,-0.9642 -1.88148,-1.12616 -1.88148,-1.12616 -2.93981,-1.95962 -2.93982,-1.95963 -2.2649,-1.65269 -2.26489,-1.65269 -1.85085,-1.44042 -1.85084,-1.44041 -2.16033,-1.76512 -2.16033,-1.76512 -1.83782,-1.57491 -1.83782,-1.57492 -1.93742,-1.72323 -1.93742,-1.72323 -2.82508,-2.59592 -2.82507,-2.59593 -2.23426,-2.09907 -2.23426,-2.09908 -2.52824,-2.41142 -2.52824,-2.41141 -6.68031,-6.53433 -6.68031,-6.53432 -8.08128,-8.23148 -8.08129,-8.23148 -2.28297,-2.35186 -2.28296,-2.35185 -0.0721,-0.0317 -0.0721,-0.0317 -6.24128,6.20531 -6.24129,6.20532 -1.17014,1.35231 -1.17014,1.35231 -0.9492,1.19765 -0.9492,1.19764 -0.36146,0.52536 -0.36146,0.52536 3.84891,3.69673 3.8489,3.69673 1.82924,1.69993 1.82924,1.69992 4.28989,3.81645 4.28989,3.81646 3.34707,2.89676 3.34708,2.89677 2.76342,2.3424 2.76343,2.3424 3.1162,2.58025 3.1162,2.58026 4.70371,3.76616 4.7037,3.76615 3.05741,2.35723 3.05741,2.35723 3.29259,2.46823 3.29259,2.46822 2.99861,2.17643 2.99861,2.17642 2.76343,1.94084 2.76342,1.94083 2.23426,1.53016 2.23426,1.53017 2.29306,1.52955 2.29305,1.52956 2.82222,1.82385 2.82223,1.82385 2.88101,1.80014 2.88102,1.80015 4.93889,2.96206 4.93889,2.96207 2.11667,1.23655 2.11666,1.23655 1.88148,1.05659 1.88148,1.05658 2.11667,1.11793 2.11667,1.11794 1.76389,0.82613 1.76389,0.82614 1.37147,0.54067 1.37147,0.54067 0.86279,0.231 0.86278,0.231 0.29399,0.0494 0.29398,0.0494 z m -42.58251,-88.82766 -4.64491,0.0428 -1.88148,-0.10522 -1.88148,-0.10522 -1.20477,-0.11103 -1.20477,-0.11104 -0.30096,-0.35766 -0.30096,-0.35767 -0.91457,-0.76282 -0.91457,-0.76281 -1.41953,-1.56443 -1.41954,-1.56442 -1.20684,-1.41112 -1.20684,-1.41111 -2.01879,-2.52824 -2.0188,-2.52824 -2.98132,-3.93935 -2.98132,-3.93935 -2.05017,-2.70463 -2.05018,-2.70463 -1.06051,-1.05297 -1.06052,-1.05297 -0.20799,-0.46456 -0.20799,-0.46457 0.0565,-0.14735 0.0566,-0.14735 1.19689,0.49865 1.19689,0.49865 30.61197,12.51135 30.61196,12.51135 -0.21428,0.0766 -0.21429,0.0766 -3.88055,0.95391 -3.88056,0.9539 -1.76753,0.34469 -1.76754,0.34469 -1.93663,0.30032 -1.93663,0.30032 -1.94028,0.2344 -1.94027,0.23441 -2.23426,0.18667 -2.23426,0.18668 z m 159.58641,-29.2318 0.3072,0.0125 1.3979,-0.28708 1.3978,-0.28708 1.253,-0.29848 1.253,-0.29848 2.216,-0.64168 2.216,-0.64167 2.2718,-0.77626 2.2718,-0.77626 2.0203,-0.77665 2.0204,-0.77666 2.4106,-0.98987 2.4107,-0.98988 3.4983,-1.83579 2.8866,-1.83579 v -0.0703 -0.0703 l -1.0051,-0.27266 -1.6169,-0.27266 -4.7514,-0.934133 -4.7514,-0.93414 -2.1278,-0.34664 -2.1277,-0.34663 -1.3523,-0.17296 -1.3523,-0.17295 -1.8227,-0.13913 -1.8227,-0.13913 -2.7634,0.0711 -2.7635,0.0711 -0.8819,0.16823 -0.882,0.16824 -1.2845,0.36426 -1.2845,0.36427 -0.597,-10e-4 -0.5969,-0.001 -0.6468,-0.1736 -0.6467,-0.1736 -0.2221,0.05747 -0.2805,0.01654 -0.2032,0.354245 -0.1798,0.43024 -2.5225,-0.0759 -2.5225,-0.0759 -3.1495,0.29289 -3.1496,0.29288 -2.2342,0.23945 -2.2343,0.23945 -2.4036,0.29203 -1.6086,0.338808 -0.037,0.0369 -0.037,0.0369 12.464,5.83941 13.2591,5.88618 z m -29.2681,-19.822021 0.2058,-0.002 18.6421,-2.718482 19.4028,-3.148424 0.3887,-0.393167 0.3888,-0.393167 0.8637,0.07827 0.8637,0.07827 2.8668,-0.412679 2.8668,-0.41268 1.1591,-0.29404 1.1592,-0.29404 0.5063,-0.24511 0.5063,-0.24511 0.7278,-0.778032 0.7278,-0.778032 1.1834,-1.419586 1.1834,-1.419586 1.4038,-1.881482 1.4039,-1.881481 1.5547,-2.351852 1.5548,-2.351852 0.9783,-1.646296 0.9784,-1.646297 1.0967,-2.129212 1.0968,-2.129213 0.5324,-1.270729 0.5324,-1.270728 0.352,-0.997313 0.352,-0.997313 -0.065,-0.06497 -0.065,-0.06497 -2.3778,0.0041 -2.3777,0.0041 -3.5866,0.366667 -3.5866,0.366666 -2.3518,0.185726 -2.3519,0.185726 -3.1162,0.294527 -3.1162,0.294526 -2.587,0.295944 -2.587,0.295944 -2.4107,0.347117 -2.4106,0.347117 -1.7051,0.301445 -1.7051,0.301445 -1.7639,0.452515 -1.7639,0.452515 -1.6463,0.546857 -1.6463,0.546857 -1.9258,0.763945 -1.9259,0.763945 -2.5426,1.15603 -2.5427,1.15603 -3.2338,1.552634 -3.2338,1.552633 -2.4107,1.095147 -2.4106,1.095146 -1.8227,0.724082 -1.8227,0.724083 -5.5177,2.666733 -4.9213,2.526415 0.1794,0.03472 0.1795,0.03472 3.1544,-0.273561 3.7507,-0.413877 7.5847,-0.771537 7.5848,-0.771536 2.5675,-0.290323 2.5675,-0.290323 2.9005,-0.468442 2.9006,-0.468441 1.5875,-0.182061 1.5875,-0.182061 1.7947,0.03365 1.7947,0.03365 -14.5241,8.220723 -13.7634,7.790774 v 0.0402 0.0401 z m -183.36789,-1.291512 0.30931,-0.0744 1.29352,-0.49884 1.29351,-0.49885 2.29728,-0.99876 2.29727,-0.99876 3.11199,-1.412942 3.11198,-1.412942 4.7037,-2.202133 4.70371,-2.202132 4.40972,-2.053801 4.40972,-2.053802 4.05695,-1.800841 4.05694,-1.800842 3.35139,-1.435344 3.35139,-1.435345 7.40833,-3.115071 7.40833,-3.115071 3.46898,-1.472074 3.46899,-1.472074 3.23379,-1.410745 3.2338,-1.410746 2.99861,-1.351741 2.99861,-1.351742 2.64583,-1.233311 2.64584,-1.23331 4.11574,-2.036241 4.11574,-2.036241 0.52422,-0.139047 0.52423,-0.139047 0.42542,0.06803 0.42542,0.06803 7.39943,3.30426 7.39942,3.30426 6.76158,2.97561 6.76157,2.97561 4.52731,1.966821 4.52732,1.96682 4.93889,2.1157 4.93889,2.1157 4.85685,2.045516 4.77497,1.71811 h 0.06 0.06 l 18.8595,-7.863066 18.7777,-8.190471 0.1026,-0.09075 0.1027,-0.09075 -0.1373,-2.155124 -0.1372,-2.155124 -0.1743,-1.881481 -0.1743,-1.881482 -0.2393,-2.05787 -0.2394,-2.05787 -0.2889,-1.999075 -0.289,-1.999074 -0.4768,-2.822222 -0.4769,-2.822222 -0.5179,-2.587037 -0.5179,-2.587037 -0.4776,-1.940278 -0.4775,-1.940278 -0.5351,-1.822685 -0.535,-1.822685 -0.6525,-1.763889 -0.6524,-1.763889 -0.6849,-1.514376 -0.6848,-1.514377 -0.7212,-1.303724 -0.7212,-1.303724 -0.7621,-1.155702 -0.762,-1.155701 -0.9533,-1.2002723 -0.9533,-1.200273 -1.3129,-1.300744 -1.3129,-1.300745 -0.8118,-0.404348 -0.8117,-0.404348 -0.093,-0.117592 -0.093,-0.117593 0.062,-0.764352 0.062,-0.764352 0.075,-1.121335 0.075,-1.121336 -0.2004,-1.58329398 -0.2004,-1.58329402 -0.4545,-1.7859112 -0.4544,-1.7859111 -0.5347,-1.3672713 -0.5346,-1.3672713 -0.6573,-1.2849706 -0.6572,-1.2849702 -0.749,-1.120217 -0.749,-1.120218 -0.6969,-0.850426 -0.6969,-0.850426 -1.161,-1.11713 -1.161,-1.117129 -1.6921,-1.058334 -1.6921,-1.058333 -0.7025,-0.662647 -0.7026,-0.662647 0.1016,-0.1804 0.1016,-0.180401 19.344,-30.520018 19.344,-30.520018 0.1466,-0.0048 0.1467,-0.0048 0.4911,0.440972 0.4911,0.440972 1.0012,1.352315 1.0013,1.352315 1.081,1.352315 1.081,1.352315 1.3836,1.881481 1.3836,1.881482 1.79,2.70463 1.7899,2.704629 1.2329,2.057871 1.2329,2.05787 1.0151,1.849916 1.0152,1.849916 1.1258,2.249179 1.1258,2.249179 0.7714,1.721739 0.7715,1.721738 0.806,2.035719 0.8059,2.035719 0.7575,2.315207 0.7575,2.315207 0.4761,1.940278 0.476,1.940277 0.231,1.352315 0.231,1.352315 0.1214,1.175926 0.1215,1.175926 0.034,1.113622 0.034,1.113621 -0.1764,0.0326 -0.1764,0.0326 -0.7644,-0.734649 -0.7643,-0.73465 -1.9534,-2.293055 -1.9534,-2.293056 -1.7507,-1.936202 -1.7508,-1.936202 -3.8806,-4.183189 -3.8805,-4.183189 -2.1167,-2.347276 -2.1167,-2.347276 -1.0729,-1.23754 -1.0728,-1.237541 -0.4319,-0.857697 -0.432,-0.857697 -0.1415,0.04522 -0.1415,0.04522 -5.5006,9.04678 -5.5007,9.04678 0.049,0.43065 0.049,0.430649 1.2636,1.392036 1.2636,1.392036 1.0623,1.293518 1.0622,1.293519 1.2348,1.646296 1.2348,1.646296 1.553,2.351852 1.553,2.351852 1.0336,1.763889 1.0337,1.763889 1.3821,2.704629 1.382,2.70463 0.7884,1.763889 0.7884,1.763889 0.7386,1.881481 0.7387,1.8814818 0.7749,2.2065037 0.7749,2.2065036 0.7742,2.5559964 0.7741,2.55599622 0.5098,2.00900398 0.5099,2.009003 0.2572,1.518775 0.2572,1.518774 -0.049,0.999537 -0.049,0.999537 -0.3704,0.7715433 -0.3704,0.771542 -1.2816,1.403921 -1.2817,1.40392 -2.1037,1.957101 -2.1037,1.957101 -1.0583,0.907865 -1.0584,0.907864 -0.688,0.53186 -0.6881,0.531859 -0.6925,0.215522 -0.6925,0.215523 -0.3522,0.182152 -0.3523,0.182153 -0.069,0.273163 -0.069,0.273164 0.1944,0.753633 0.1943,0.753633 1.3316,4.056944 1.3316,4.056945 0.3098,1.02193 0.3098,1.02193 -0.079,0.594968 -0.079,0.594968 0.2209,-6.56e-4 0.221,-6.55e-4 0.4352,-0.120885 0.4353,-0.120885 0.5448,-0.637763 0.5449,-0.637764 2.0773,-1.437667 2.0773,-1.437667 2.2342,-1.639225 2.2343,-1.639225 2.2842,-1.77885 2.2842,-1.778851 2.2431,-1.868975 2.2431,-1.868976 2.0579,-1.832693 2.0579,-1.832693 2.8246,-2.82472 2.8247,-2.824721 1.3831,-1.5972933 1.3831,-1.597293 1.0022,-1.283726 1.0022,-1.283725 1.1582,-1.728384 1.1582,-1.728384 0.8208,-1.62300498 0.8209,-1.62300502 0.4304,-1.1555636 0.4304,-1.1555639 0.4104,-1.4258188 0.4104,-1.4258189 0.2868,-1.4167654 0.2867,-1.4167651 0.2397,-1.867156 0.2396,-1.867156 0.102,-2.48377 0.102,-2.48377 -0.096,-2.587037 -0.096,-2.587037 -0.1307,-1.352315 -0.1306,-1.352315 -0.2284,-1.822685 -0.2283,-1.822685 -0.2901,-1.763889 -0.2902,-1.763889 -0.4796,-2.351852 -0.4796,-2.351852 -0.7504,-2.939815 -0.7504,-2.939815 -0.766,-2.52824 -0.766,-2.528241 -0.7289,-2.116667 -0.729,-2.116667 -0.8724,-2.293055 -0.8725,-2.293056 -1.0774,-2.528241 -1.0775,-2.52824 -1.6702,-3.351389 -1.6701,-3.351389 -1.0853,-1.940278 -1.0853,-1.940278 -1.2344,-2.05787 -1.2343,-2.057871 -1.547,-2.351852 -1.5471,-2.351851 -1.2763,-1.763889 -1.2763,-1.763889 -1.3174,-1.646297 -1.3175,-1.646296 -1.0363,-1.175926 -1.0363,-1.175926 -1.5129,-1.494464 -1.513,-1.494464 -1.201,-0.966593 -1.201,-0.966593 -1.0584,-0.696906 -1.0583,-0.696906 -1.1171,-0.561537 -1.1172,-0.561536 -0.9995,-0.316106 -0.9995,-0.316108 -1.0644,-0.21964 -1.0643,-0.21965 -1.2875,-0.14 -1.2875,-0.13999 -1.2348,0.0732 -1.2347,0.0732 -0.7354,0.17565 -0.7353,0.17565 -0.8522,0.425393 -0.8521,0.425388 -0.8458,0.631958 -0.8459,0.631958 -0.7681,0.718534 -0.7681,0.718533 -0.986,1.135804 -0.986,1.135804 -0.973,1.293518 -0.9729,1.293519 -1.3237,1.999074 -1.3236,1.999074 -1.539,2.49285 -1.539,2.49285 -1.9809,3.034002 -1.9808,3.034002 -2.0005,3.116204 -2.0005,3.116203 -2.352,3.704167 -2.3519,3.704167 -5.9994,9.525 -5.9994,9.525 -2.05627,3.233796 -2.05623,3.233797 -1.62361,2.75986 -1.62361,2.75986 -0.52618,0.826714 -0.52618,0.826714 -0.39646,0.489222 -0.39646,0.489221 -0.73573,-0.227151 -0.73572,-0.22715 -2.17546,-0.638837 -2.17546,-0.638836 -2.11667,-0.537444 -2.11667,-0.537444 -2.70463,-0.580448 -2.70463,-0.580448 -2.58703,-0.466515 -2.58704,-0.466515 -2.35185,-0.360748 -2.35185,-0.360748 -2.23426,-0.287665 -2.23426,-0.287664 -3.11621,-0.294931 -3.1162,-0.294931 -1.94028,-0.126423 -1.94027,-0.126424 -2.64584,-0.113095 -2.64583,-0.113094 -3.76296,-0.0012 -3.76297,-0.0012 -2.82222,0.118845 -2.82222,0.118845 -2.46944,0.177227 -2.46945,0.177227 -2.35185,0.23776 -2.35185,0.23776 -2.25125,0.28863 -2.25126,0.288629 -1.92328,0.29916 -1.92328,0.299159 -1.62136,0.292059 -1.62136,0.292059 -2.28906,0.468431 -2.28906,0.468432 -2.91469,0.693162 -2.9147,0.693161 -4.0959,1.075011 -4.09591,1.075011 -0.0368,-0.03685 -0.0368,-0.03685 -7.97942,-13.109415 -7.97943,-13.109415 -0.74636,-0.999537 -0.74636,-0.999537 -1.67368,-2.528241 -1.67368,-2.52824 -1.11613,-1.822686 -1.11614,-1.822685 -2.32582,-3.998148 -2.32583,-3.998148 -1.82316,-3.116204 -1.82317,-3.116204 -1.35254,-2.175463 -1.35255,-2.175463 -1.46337,-2.167521 -1.46337,-2.167521 -1.19037,-1.592899 -1.19038,-1.5929 -1.16748,-1.413654 -1.16749,-1.413653 -1.71765,-1.712748 -1.71766,-1.712748 -0.91794,-0.567191 -0.91793,-0.567192 -0.96355,-0.33128 -0.96354,-0.33128 -1.11713,-0.13672 -1.11713,-0.13672 -1.44029,0.0784 -1.44029,0.0784 -1.04057,0.16829 -1.04056,0.1683 -1.06211,0.34708 -1.06211,0.347086 -1.28846,0.646185 -1.28846,0.646186 -1.22459,0.823269 -1.22459,0.823268 -0.99954,0.794474 -0.99954,0.794474 -2.2999,2.300894 -2.2999,2.300893 -1.15601,1.392987 -1.156,1.392987 -1.60213,2.134791 -1.60213,2.134791 -1.48303,2.234259 -1.48302,2.23426 -1.41036,2.351851 -1.41037,2.351852 -1.07937,1.940278 -1.07937,1.940278 -1.45357,2.939815 -1.45357,2.939815 -0.87716,1.999074 -0.87716,1.999074 -0.85304,2.116667 -0.85304,2.116666 -0.73491,1.999074 -0.73491,1.999075 -0.83056,2.52824 -0.83057,2.528241 -0.58973,2.05787 -0.58972,2.057871 -0.58682,2.351852 -0.58682,2.351852 -0.41331,2.010353 -0.41331,2.010354 -0.3002,1.77382 -0.3002,1.77382 -0.2846,2.271845 -0.2846,2.271845 -0.14873,1.763889 -0.14873,1.763889 -0.001,3.527777 -10e-4,3.527778 0.14667,1.528704 0.14667,1.528704 0.22561,1.538774 0.2256,1.538774 0.29674,1.3724486 0.29673,1.3724486 0.31101,1.0869254 0.31101,1.0869254 0.50185,1.2935185 0.50185,1.2935182 0.36036,0.794539 0.36036,0.79453902 0.66396,1.204535 0.66397,1.20453598 0.88581,1.352314 0.88581,1.352315 1.03073,1.352315 1.03074,1.352315 0.90392,1.058333 0.90393,1.058334 1.48842,1.5795523 1.48841,1.579553 1.94028,1.817987 1.94028,1.817988 2.41065,2.071722 2.41064,2.071722 3.70417,3.053993 3.70417,3.053994 1.65276,1.421465 1.65276,1.421466 3.91145,2.784677 3.73605,2.188332 h 0.0855 0.0855 l 1.49353,-4.430738 1.31813,-5.027084 0.45586,-1.728939 0.45585,-1.72894 -1.83806,-1.229103 -1.83806,-1.229104 -1.29256,-1.040105 -1.29256,-1.040105 -1.22565,-1.175926 -1.22565,-1.175926 -1.27839,-1.458071 -1.27839,-1.458071 -0.68763,-1.028014 -0.68762,-1.0280143 -0.20108,-0.605396 -0.20108,-0.605396 0.0815,-0.730278 0.0815,-0.730278 0.2309,-1.175926 0.23091,-1.175926 0.41068,-1.646297 0.41068,-1.646296 0.76463,-2.645833 0.76463,-2.6458337 0.76648,-2.2930556 0.76648,-2.2930556 0.86372,-2.1754628 0.86372,-2.175463 0.75804,-1.705093 0.75804,-1.705092 1.20661,-2.410649 1.20662,-2.410648 1.04401,-1.857159 1.04402,-1.857159 1.13608,-1.847008 1.13609,-1.847007 0.78652,-1.175926 0.78653,-1.175926 1.09447,-1.469907 1.09447,-1.469908 0.88946,-1.058333 0.88946,-1.058333 1.25456,-1.293519 1.25456,-1.293519 0.1434,-0.483193 0.14341,-0.483194 -5.06793,-9.104516 -5.06793,-9.104516 -0.17037,-0.231272 -0.17036,-0.231272 -0.43084,0.411574 -0.43084,0.411574 -1.55898,1.940278 -1.55899,1.940278 -1.39374,1.5875 -1.39373,1.5875 -2.94526,3.234568 -2.94527,3.234567 -1.12346,1.292747 -1.12347,1.292748 -1.1283,1.352315 -1.1283,1.352314 -3.89245,3.879888 -3.89244,3.879887 v -0.09087 -0.09087 l 0.1796,-1.731146 0.1796,-1.731147 0.29587,-1.763889 0.29586,-1.763889 0.29084,-1.293518 0.29084,-1.293519 0.46451,-1.705092 0.4645,-1.705093 0.6931,-2.05787 0.6931,-2.057871 0.3827,-0.999537 0.38271,-0.999537 0.89577,-2.116666 0.89577,-2.116667 1.36446,-2.763426 1.36447,-2.763426 1.21234,-2.172796 1.21234,-2.172795 0.99849,-1.648964 0.99849,-1.648964 1.61094,-2.418717 1.61094,-2.418717 1.41935,-1.932209 1.41935,-1.932209 1.35298,-1.688005 1.35297,-1.688005 0.92169,-1.024201 0.92169,-1.024201 0.27582,-0.212175 0.27582,-0.212174 0.14606,0.160955 0.14606,0.160954 15.68373,24.870834 15.68373,24.870834 3.73757,5.921356 3.73757,5.921355 -0.38161,0.380494 -0.3816,0.380494 -0.79874,0.265184 -0.79873,0.265183 -0.93923,0.696395 -0.93923,0.696394 -0.95307,0.909258 -0.95307,0.909257 -0.98902,1.175926 -0.98901,1.175926 -1.1711,1.745932 -1.17109,1.7459317 -0.87523,1.781846 -0.87522,1.781846 -0.42542,1.2347222 -0.42542,1.2347222 -0.24246,0.9407408 -0.24246,0.9407408 -0.0733,3.309749 -0.0734,3.309748 -0.23518,0.263219 -0.23519,0.263219 -1.85752,1.646411 -1.85753,1.646411 -0.68157,0.83664 -0.68156,0.8366403 -0.76646,1.11713 -0.76646,1.117129 -0.67893,1.161606 -0.67893,1.161605 -0.79518,1.660617 -0.79517,1.660617 -0.76539,1.940278 -0.7654,1.940278 -0.59392,1.843967 -0.59393,1.843968 -0.52587,1.918995 -0.52587,1.918996 -0.41122,1.763889 -0.41122,1.763889 -0.47219,2.410648 -0.4722,2.410648 -0.29689,1.822685 -0.29689,1.822685 -0.29623,2.116667 -0.29623,2.116667 -0.23154,1.999074 -0.23153,1.999074 -0.23761,2.469444 -0.23761,2.469445 -0.17679,2.351852 -0.17679,2.351852 -0.17727,3.175 -0.17728,3.175 -0.11449,3.057407 -0.1145,3.057408 -0.0786,2.65455 -0.0786,2.65455 0.0877,7.01615 0.0877,7.016153 z m 40.56543,-27.508332 -1.80335,0.0529 -1.23472,-0.108265 -1.23472,-0.108265 -1.59235,-0.291081 -1.59235,-0.291081 -1.43726,-0.413686 -1.43725,-0.413685 -1.32132,-0.538584 -1.32132,-0.538585 -1.15292,-0.649856 -1.15292,-0.649857 -0.941,-0.70907 -0.94101,-0.709071 -0.91367,-0.91367 -0.91367,-0.913671 -0.64839,-0.865834 -0.6484,-0.865834 -0.49689,-0.823148 -0.4969,-0.823148 -0.44922,-0.940741 -0.44922,-0.940741 -0.43924,-1.175926 -0.43925,-1.175926 -0.32618,-1.293518 -0.32618,-1.293519 -0.18642,-1.095046 -0.18642,-1.095045 -0.13493,-1.894054 -0.13493,-1.894054 0.13488,-2.077871 0.13489,-2.077871 0.29287,-1.870993 0.29286,-1.870992 0.46898,-1.898857 0.46898,-1.898858 0.54047,-1.687717 0.54047,-1.687716 0.76141,-1.926295 0.7614,-1.926294 0.45467,-0.984122 0.45466,-0.984123 h 0.064 0.064 l 19.38987,9.760186 19.38987,9.760185 h 0.13582 0.13581 l 0.79081,-0.40093 0.79082,-0.400931 0.89025,-0.745597 0.89025,-0.745598 0.61522,-0.540007 0.61522,-0.540006 -7.54509,-13.077935 -7.54509,-13.0779343 0.0548,-0.05484 0.0548,-0.05484 0.67771,0.356494 0.6777,0.356493 1.73157,1.1593163 1.73157,1.159316 2.86996,2.049466 2.86995,2.049466 2.11666,1.476181 2.11667,1.476181 3.52778,2.450337 3.52778,2.450336 2.88101,2.058615 2.88102,2.058614 2.23426,1.658167 2.23426,1.658166 1.94028,1.338627 1.94028,1.338627 0.88194,0.669485 0.88194,0.669484 0.23045,0.257419 0.23045,0.257419 -0.35794,0.280133 -0.35794,0.280132 -0.50566,0.65542 -0.50565,0.65542 -1.27321,0.939964 -1.27321,0.939965 -4.14966,2.747393 -4.14966,2.747393 -1.29352,0.932622 -1.29352,0.932622 -3.82176,2.824642 -3.82176,2.824642 -1.78982,1.257865 -1.78983,1.257865 -1.62036,1.035751 -1.62036,1.035752 -1.23472,0.711119 -1.23472,0.711119 -1.76389,0.882195 -1.76389,0.882195 -1.64629,0.650468 -1.6463,0.650468 -1.23472,0.357295 -1.23472,0.357295 -1.05834,0.23367 -1.05833,0.23367 -1.31285,0.181919 -1.31285,0.181919 z m 4.13508,-10.286443 1.4699,0.0096 1.44051,-0.138314 1.44051,-0.138315 v -0.08191 -0.08191 l -2.79811,-1.484861 -2.79811,-1.484862 -0.14705,-0.40666 -0.14705,-0.40666 -0.82855,-0.912195 -0.82854,-0.912195 -0.46373,-0.922296 -0.46372,-0.922296 -0.34111,-1.023397 -0.3411,-1.023396 -0.18397,-1.249814 -0.18396,-1.249814 v -1.406046 -1.406046 l -3.29167,-0.156292 -3.29168,-0.156293 -0.0891,0.02259 -0.0891,0.02259 0.0285,1.378448 0.0285,1.378448 0.12336,0.999537 0.12337,0.999537 0.28553,1.199755 0.28553,1.199756 0.36306,0.941435 0.36306,0.941436 0.5633,0.862895 0.5633,0.862895 0.70382,0.817673 0.70382,0.817673 0.82082,0.671456 0.82082,0.671456 0.69113,0.416175 0.69113,0.416176 0.65384,0.248077 0.65385,0.248078 0.99953,0.214119 0.99954,0.214119 z m 108.24397,10.063617 -2.70463,0.0393 -0.91006,-0.103431 -0.91006,-0.103431 -1.14538,-0.19511 -1.14538,-0.195109 -1.35475,-0.331548 -1.35474,-0.331548 -1.23472,-0.406882 -1.23472,-0.406883 -1.29352,-0.507176 -1.29352,-0.507177 -2.41065,-1.205823 -2.41065,-1.205822 -1.5875,-0.951679 -1.5875,-0.951678 -2.17546,-1.45356 -2.17546,-1.453559 -2.11667,-1.553806 -2.11666,-1.553806 -3.41019,-2.612002 -3.41018,-2.612003 -2.13735,-1.59136 -2.13735,-1.591359 -1.36951,-0.867797 -1.3695,-0.867796 -1.90241,-1.252508 -1.9024,-1.252509 -0.40212,-0.34361 -0.40213,-0.34361 0.37049,-0.520548 0.37048,-0.520548 0.50201,-0.547289 0.50201,-0.547288 1.82268,-1.345602 1.82269,-1.345602 1.64629,-1.156475 1.6463,-1.156475 5.99722,-4.052696 5.99722,-4.052696 1.76389,-1.236378 1.76389,-1.236379 2.46945,-1.851722 2.46944,-1.851721 1.5875,-1.304236 1.5875,-1.304235 3.1162,-1.844084 3.11621,-1.8440833 0.28968,-0.184668 0.28969,-0.184668 -0.40262,0.705555 -0.40261,0.705556 -7.32475,12.7544053 -7.32474,12.754405 0.49971,0.512958 0.49971,0.512959 0.84005,0.635153 0.84005,0.635152 0.86504,0.471525 0.86505,0.471524 0.26935,0.0017 0.26935,0.0017 19.17133,-9.70307 19.17132,-9.70307 0.1257,0.07765 0.1256,0.07765 0.69,1.453323 0.69,1.453322 0.5728,1.439921 0.5728,1.439922 0.4862,1.499364 0.4862,1.499364 0.4041,1.645968 0.4042,1.645969 0.2914,1.73476 0.2914,1.734761 0.1409,1.669261 0.1408,1.669261 -0.059,2.387683 -0.059,2.387684 -0.204,1.352314 -0.2039,1.352315 -0.3865,1.545797 -0.3864,1.545797 -0.5538,1.394018 -0.5537,1.394018 -0.4787,0.881944 -0.4787,0.881945 -0.6696,0.999537 -0.6695,0.999537 -0.8123,0.937406 -0.8123,0.937407 -0.8894,0.768992 -0.8895,0.768991 -0.8703,0.583915 -0.8703,0.583915 -1.2943,0.667094 -1.2943,0.667095 -1.1486,0.426068 -1.1486,0.426068 -1.4384,0.345213 -1.4385,0.345213 -1.2347,0.192272 -1.2348,0.192272 z m -6.17361,-9.991979 1.82268,-0.04051 0.89917,-0.23936 0.89916,-0.23936 0.83739,-0.356344 0.8374,-0.356344 0.85048,-0.548913 0.85044,-0.548913 0.6796,-0.587121 0.6795,-0.587121 0.7649,-0.955594 0.7649,-0.955595 0.5808,-1.13017 0.5808,-1.130171 0.3504,-1.045807 0.3504,-1.045808 0.1861,-1.057818 0.1861,-1.057819 6e-4,-1.796889 6e-4,-1.79689 -0.052,-0.08459 -0.052,-0.08459 -3.1695,0.167862 -3.16947,0.167861 -0.0696,1.831213 -0.0696,1.831212 -0.29486,1.191408 -0.29486,1.191408 -0.45778,1.061839 -0.45778,1.061838 -0.68813,1.039347 -0.68813,1.039346 -1.06574,1.058333 -1.06574,1.058333 -2.20325,1.220743 -2.20326,1.220742 v 0.09149 0.0915 l 0.85255,0.138869 0.85255,0.138868 0.17639,0.04201 0.17638,0.04201 z"
       id="path235" /><path
       style="fill:#c86772;fill-opacity:1;stroke:#000000;stroke-width:5.4"
       d="M 3201.0198,299.5 C 3201.084,161.4856 3221.648,66.47412 3259.4102,29.71944 3270.9688,18.46926 3271,18.40682 3271,6.53254 c 0,-13.22418 5.1543,-30.3187 13.3793,-44.37272 7.3267,-12.51924 24.23,-30.13034 32.1207,-33.46586 3.575,-1.5112 6.5,-3.58672 6.5,-4.61228 0,-2.08982 -143.0121,-229.58016 -146.9332,-233.72755 -3.3875,-3.5831 -16.1317,10.90294 -37.518,42.64587 -27.8326,41.31095 -49.4839,90.56466 -55.388,126 -4.005,24.0375 -4.1002,25 -2.4727,25 3.3018,0 67.9861,-70.08998 85.8774,-93.05429 3.8333,-4.92014 7.5242,-8.92104 8.202,-8.89089 1.4874,0.0662 38.2325,66.68292 38.2325,69.31322 0,1.01602 -3.2034,4.94884 -7.1186,8.73962 -17.5421,16.98466 -46.479,66.65934 -59.9376,102.89234 -9.3855,25.26738 -19.4503,64.62274 -18.0084,70.41688 1.9108,7.679 20.761,28.30444 34.843,38.12448 L 3176.3422,81 l -6.0446,23.5 c -3.3245,12.925 -6.9281,23.5 -8.0079,23.5 -6.2173,0 -79.3638,-60.38722 -104.5207,-86.28864 -20.0142,-20.60642 -32.9484,-40.30368 -40.0199,-60.94542 -4.6789,-13.65784 -5.5234,-19.83406 -6.3162,-46.19026 -1.0324,-34.32006 0.896,-51.62068 9.8731,-88.57568 16.0365,-66.0155 52.681,-139.96609 92.2473,-186.16027 21.129,-24.66829 41.8406,-37.6898 62.5985,-39.35604 17.0198,-1.36619 24.075,1.59107 38.2424,16.02992 16.7023,17.02223 30.0782,36.32702 56.709,81.84537 12.4339,21.25256 29.474,48.99102 37.8669,61.64102 8.3929,12.65 26.3716,41.45 39.9526,64 13.5811,22.55 25.6863,42.09986 26.9006,43.44414 1.7263,1.91108 6.1302,1.36192 20.1923,-2.5179 26.095,-7.19986 60.2422,-14.10314 89.9844,-18.1915 36.5067,-5.01822 119.5457,-5.01412 156,0.008 32.3853,4.4613 69.2364,11.81294 91.152,18.1844 12.6258,3.67068 17.1333,4.27768 18.3419,2.46992 0.8813,-1.31822 6.2736,-10.04676 11.9829,-19.39676 9.3892,-15.37658 75.6209,-120.15195 120.6365,-190.84125 30.3473,-47.6551 44.3352,-59.18465 68.3762,-56.35911 29.4231,3.45811 54.4594,24.68215 87.5284,74.20036 48.833,73.1236 78.0331,161.604 77.5543,235 -0.3436,52.6694 -11.7366,76.91176 -56.9543,121.18928 -24.6782,24.16514 -39.8444,36.92376 -68.8496,57.91994 -11.9726,8.66664 -22.488,16.9125 -23.3677,18.32416 -2.4256,3.8925 -4.4844,3.082 -4.9109,-1.93338 -0.2104,-2.475 -3.1067,-12.54382 -6.4362,-22.37518 C 3953.7241,93.29348 3951,84.23516 3951,82.99524 c 0,-1.23992 2.925,-3.66982 6.5,-5.3998 9.263,-4.48244 38.4738,-32.28948 41.4386,-39.44724 3.3454,-8.07664 0.3053,-25.19646 -10.105,-56.90264 -14.2489,-43.39756 -37.2728,-86.02748 -62.5642,-115.84078 -6.1982,-7.30638 -11.2694,-13.85352 -11.2694,-14.5492 0,-1.42284 30.5455,-52.81179 36.5022,-61.41024 l 3.848,-5.55466 5.9105,7.43734 c 3.2507,4.09054 18.8244,21.44014 34.6081,38.55466 15.7837,17.11452 33.0392,36.29232 38.3455,42.61732 14.6255,17.43326 16.8588,15.58182 12.6653,-10.5 -5.0507,-31.41362 -26.8565,-81.80434 -51.9279,-120 -16.2691,-24.7854 -37.5328,-52.01563 -40.5603,-51.94121 -1.3153,0.0323 -35.556,52.45733 -76.0904,116.49999 L 3804.6019,-77 l 5.5248,4 c 18.6536,13.5054 22.6591,17.2609 29.9128,28.04626 10.0575,14.95442 15.092,29.80026 16.441,48.48242 l 1.0492,14.52866 12.2351,12.48234 c 13.5127,13.7857 24.0466,32.19356 31.813,55.59304 8.1488,24.55154 17.4701,75.9578 20.4658,112.86728 l 1.2986,16 -66.0464,28.62666 c -36.3256,15.74468 -68.5776,29.56734 -71.6711,30.71702 -4.9984,1.85756 -11.0814,-0.24544 -54.6247,-18.8846 -26.95,-11.53624 -75.8411,-32.84288 -108.647,-47.3481 l -59.6469,-26.37316 -29.3531,13.95672 c -37.1,17.64022 -52.3153,24.34272 -132.603,58.413 -35.8874,15.22894 -90.6155,39.4688 -121.6179,53.86638 C 3228.5775,331.45162 3204.6429,342 3201.9259,342 c -0.5092,0 -0.917,-19.125 -0.9061,-42.5 z m 177.5945,-61.70596 c 18.1495,-4.26576 49.0481,-21.08272 79.4855,-43.26092 16.4451,-11.98274 39.3502,-28.13826 50.9002,-35.90114 22.677,-15.24146 29.8094,-21.72452 26.8527,-24.40814 C 3528.381,127.44214 3394.9801,34 3392.7701,34 3391.7965,34 3391,34.69178 3391,35.5373 c 0,0.8455 12.536,23.31468 27.8579,49.93148 l 27.8579,48.39418 -8.0756,5.93888 -8.0757,5.93888 -73.7718,-37.37036 C 3295.019,77.07786 3282.6953,71.48792 3281.0196,74 c -3.266,4.89604 -10.1078,23.9371 -14.3728,40 -5.6088,21.124 -5.5749,52.40254 0.076,70.08484 9.1724,28.70216 25.9153,44.47718 56.2773,53.024 11.3508,3.19526 43.2621,3.58842 55.6143,0.6852 z m 422.7872,-0.0232 c 36.6666,-7.7121 59.0467,-33.33586 64.0703,-73.35622 1.8012,-14.3498 1.6132,-20.79178 -1.0685,-36.60422 -3.5831,-21.12802 -14.4399,-53.56622 -18.4422,-55.10204 -1.4008,-0.53752 -34.4412,15.2832 -73.4231,35.15718 C 3733.556,127.73948 3700.177,144 3698.3624,144 c -1.8146,0 -6.0179,-2.475 -9.3406,-5.5 l -6.0414,-5.5 28.8006,-50 c 15.8404,-27.5 28.0844,-50.27014 27.2089,-50.6003 -2.3653,-0.89204 -25.9689,13.98948 -39.6288,24.98498 -6.5698,5.28842 -31.0754,22.65688 -54.4568,38.59656 C 3602.7495,124.71922 3591,133.78378 3591,137.5675 c 0,1.07946 6.0749,5.89338 13.4998,10.69758 7.4249,4.8042 26.0999,18.2467 41.5,29.8722 36.6842,27.6928 48.5664,35.59768 68.7735,45.75276 29.1884,14.66866 59.6648,19.55202 86.6282,13.88078 z"
       id="path236"
       transform="scale(0.26458333)" /><path
       style="fill:#c86772;fill-opacity:1;stroke:#000000;stroke-width:5.4"
       d="M 3551,866.69092 C 3524.0629,855.85446 3445.0625,809.6123 3388.111,771.34528 3303.1526,714.25978 3191.4864,624.534 3117.5632,553.95534 l -20.9762,-20.02718 3.5303,-5.46408 c 1.9416,-3.00524 16.231,-18.35788 31.7543,-34.11696 l 28.224,-28.65288 73.9522,73.6878 c 114.0668,113.65904 164.8232,157.5908 220.1471,190.54636 35.1481,20.93712 84.6641,40.04652 96.2399,37.14118 l 5.502,-1.38092 -10.1468,-9.34434 c -5.5808,-5.13938 -18.3,-16.38794 -28.265,-24.99682 C 3489.3465,707.00382 3400.0441,615.67942 3356.8162,567 3324.0066,530.05276 3223.712,414.20377 3215.5088,403.77759 c -2.1858,-2.77806 3.6999,-6.06717 48,-26.82408 C 3408.8671,308.84556 3558.5204,241.32653 3564,241.381 c 9.2921,0.0924 194.3806,78.43024 185.6039,78.55601 -4.9976,0.0716 -149.0991,-13.30112 -162.1039,-15.04337 -4.9503,-0.66318 -8.5,-0.32703 -8.5,0.80493 0,5.59278 171.3507,72.70185 225.609,88.35918 12.4349,3.58836 21.8849,7.2379 21,8.1101 -0.885,0.8722 -68.659,28.25433 -150.609,60.84917 -81.95,32.59484 -149.7601,60.00532 -150.689,60.91216 -0.929,0.90684 6.721,3.72166 17,6.25512 15.8861,3.9155 24.088,4.62204 54.689,4.71102 34.0732,0.0991 37.3478,-0.2371 61.1836,-6.2811 57.0587,-14.46828 97.0878,-29.65212 185.7247,-70.44912 16.9996,-7.8244 31.5879,-13.98746 32.4183,-13.69566 0.8305,0.29182 -3.9516,6.83056 -10.6269,14.53056 -67.0285,77.31764 -96.0382,105.90268 -142.5498,140.4632 C 3676.5771,633.32608 3603.149,678 3593.0633,678 c -6.0616,0 -51.8482,-22.138 -116.5115,-56.33366 -24.9965,-13.21882 -46.3718,-23.72634 -47.5007,-23.35006 -1.1289,0.3763 29.6728,39.62132 68.4482,87.21118 l 70.5007,86.52702 7.9159,-1.11738 c 14.2018,-2.00468 37.5532,-10.9438 66.0841,-25.29756 69.1298,-34.77896 128.4334,-82.34486 256.6054,-205.81656 26.733,-25.75264 54.9841,-52.67298 62.7803,-59.82298 l 14.1749,-13 30.9129,32 30.913,32 -24.7352,24 c -108.2368,105.01996 -295.3882,241.81062 -407.0903,297.54592 -23.8413,11.89592 -30.308,14.28392 -40,14.77094 -6.3586,0.3195 -12.911,0.0378 -14.561,-0.62594 z m -101,-334.8197 c 16.9491,-2.17726 61.0173,-12.08874 60.9562,-13.70986 -0.024,-0.63874 -54.249,-23.27182 -120.5,-50.29574 -125.0832,-51.02171 -130.7246,-52.79582 -114.9325,-36.14386 3.7963,4.00303 13.9413,16.72824 22.5443,28.27824 19.5323,26.22302 46.366,58.9687 55.2174,67.38284 5.2607,5.00082 8.8798,6.5681 16.7146,7.23846 13.5412,1.15862 62.7371,-0.53256 80,-2.75008 z"
       id="path237"
       transform="scale(0.26458333)" /><path
       style="fill:#c86772;fill-opacity:1;stroke:#000000;stroke-width:1.90919"
       d="m 3359.8179,199.49471 c -6.1409,-1.60212 -10.4823,-3.87439 -15.8295,-8.28503 -11.6418,-9.60267 -17.3026,-22.62722 -18.3355,-42.18693 l -0.3268,-6.18718 h 4.0534 c 2.2294,0 7.8784,0.20567 12.5533,0.45704 l 8.5,0.45704 0.3906,9.26568 c 0.3071,7.2844 0.7604,10.32698 2.12,14.22898 2.4988,7.17124 4.522,10.85733 8.0353,14.63939 1.7061,1.83659 3.3847,4.08286 3.7302,4.99172 0.4436,1.1668 3.5558,3.19882 10.589,6.91381 5.4784,2.89373 9.9641,5.45281 9.9683,5.68685 0.01,0.54473 -10.2682,1.35133 -16.256,1.27576 -2.5279,-0.0319 -6.6644,-0.59761 -9.1923,-1.25713 z"
       id="path238"
       transform="scale(0.26458333)" /><path
       style="fill:#c86772;fill-opacity:1;stroke:#000000;stroke-width:1.90919"
       d="m 3744.1982,200.22036 -2.7607,-0.4627 8.2881,-4.57022 c 17.8015,-9.81617 26.5893,-23.72685 27.7594,-43.94206 l 0.4341,-7.5001 7.4341,-0.45486 c 4.0887,-0.25017 9.4528,-0.45485 11.9202,-0.45485 h 4.4862 v 5.88054 c 0,10.06359 -2.2731,19.32967 -6.957,28.35985 -3.0294,5.84037 -11.3231,14.51373 -17.1326,17.91698 -7.4608,4.37056 -11.3638,5.37549 -21.5188,5.54063 -5.0558,0.0822 -10.4347,-0.0587 -11.953,-0.31321 z"
       id="path239"
       transform="scale(0.26458333)" /><path
       style="fill:#c86772;fill-opacity:1;stroke:#000000;stroke-width:1.90919"
       d="m 3894.0724,348.71766 c 0.3694,-0.32619 24.2184,-13.88598 52.9976,-30.13285 28.7793,-16.24687 52.5886,-29.78196 52.9096,-30.07798 0.321,-0.29602 -2.0655,-0.75602 -5.3033,-1.02222 -6.306,-0.51846 -12.8198,0.0918 -29.9286,2.80366 -14.2289,2.25542 -22.7022,3.24945 -60.1041,7.05101 -17.5009,1.77881 -37.2134,3.84787 -43.8056,4.59792 -6.5922,0.75005 -12.0737,1.27582 -12.1812,1.16838 -0.3703,-0.37031 39.0321,-19.07269 46.7944,-22.21102 4.278,-1.7296 14.9377,-6.48861 23.6881,-10.57558 48.378,-22.59536 56.1635,-25.94333 70.2034,-30.18926 19.6015,-5.92788 47.7653,-9.96567 99.1487,-14.21475 7.3893,-0.61105 17.5716,-1.57263 22.6274,-2.13686 5.0558,-0.56422 13.9073,-1.02892 19.6699,-1.03267 l 10.4775,-0.007 -0.478,1.59099 c -3.5272,11.74175 -16.3228,35.99588 -28.7157,54.43094 -11.8995,17.70115 -27.2197,36.45353 -31.5575,38.6274 -1.4466,0.72496 -4.8576,1.83275 -7.58,2.46175 -8.2688,1.9105 -25.5778,4.11271 -28.3045,3.60117 -2.0604,-0.38653 -2.8511,-0.17711 -4.233,1.12111 -1.5317,1.43899 -8.6926,2.735 -72.6157,13.14242 -39.004,6.3503 -71.6959,11.55732 -72.6488,11.57116 -0.9937,0.0144 -1.446,-0.2277 -1.0606,-0.56792 z"
       id="path240"
       transform="scale(0.26458333)" /><path
       style="fill:#c86772;fill-opacity:1;stroke:#000000;stroke-width:1.90919"
       d="m 3954.5798,401.33272 c -46.3817,-20.66077 -49.5793,-22.19686 -47.0226,-22.58926 4.1077,-0.63043 25.9213,-3.07667 39.1593,-4.39143 6.4832,-0.64389 16.9134,-1.11347 23.4744,-1.05685 11.1367,0.0961 11.8502,0.0216 12.5637,-1.31156 0.6902,-1.28965 1.2422,-1.37601 6.3014,-0.98588 4.6943,0.362 6.7263,0.12183 13.2457,-1.56552 7.3316,-1.89754 8.4637,-1.9934 23.6107,-1.99922 20.144,-0.008 26.3482,0.80846 68.7516,9.04464 11.1731,2.17019 20.9389,3.94581 21.7018,3.94581 3.4728,0 1.2387,1.65089 -10.7656,7.95504 -27.7747,14.58618 -70.5962,29.59238 -99.1332,34.73982 -1.7133,0.30905 -11.6928,-3.88097 -51.8872,-21.78559 z"
       id="path241"
       transform="scale(0.26458333)" /></g></svg>
