<?xml version="1.0" encoding="UTF-8" standalone="no"?>
<!-- Created with Inkscape (http://www.inkscape.org/) -->

<svg
   width="63.404915mm"
   height="73.363724mm"
   viewBox="0 0 63.404915 73.363724"
   version="1.1"
   id="svg1"
   xml:space="preserve"
   xmlns="http://www.w3.org/2000/svg"
   xmlns:svg="http://www.w3.org/2000/svg"><defs
     id="defs1" /><g
     id="layer1"
     transform="translate(-289.55427,-82.631423)"><path
       style="fill:#000000"
       d="m 320.26154,155.44837 c -3.79777,-2.52629 -6.57668,-6.54705 -7.3503,-10.63499 l -0.12437,-0.65719 -0.84814,0.17619 c -0.55599,0.1155 -1.53677,0.17709 -2.84723,0.17881 -3.01397,0.004 -4.93201,-0.45701 -7.76111,-1.86524 -2.10097,-1.04579 -3.47602,-2.05549 -5.35647,-3.93324 -2.31676,-2.31344 -3.8496,-4.72025 -4.86611,-7.64059 -0.58861,-1.69104 -0.54915,-2.10228 0.22631,-2.3582 0.47928,-0.15818 0.49056,-0.20938 0.18021,-0.81774 -1.01452,-1.98862 -2.13501,-5.95277 -1.93718,-6.85349 0.17516,-0.79747 1.22971,-1.57438 2.31079,-1.70242 l 0.59564,-0.0705 -0.0781,-0.8931 c -0.32471,-3.71129 -0.30037,-5.22905 0.0935,-5.83019 0.35836,-0.54692 0.73399,-0.69853 1.68555,-0.68033 0.84534,0.0162 0.87423,0.008 0.81475,-0.24032 -0.40811,-1.70125 -0.39199,-5.41166 0.0321,-7.39008 0.89511,-4.17578 2.93543,-7.695786 6.84545,-11.809946 0.67063,-0.70564 1.92898,-2.076732 2.79634,-3.046871 2.94854,-3.297954 4.85429,-5.001253 6.89438,-6.161976 1.25369,-0.713293 1.69243,-0.746114 2.52167,-0.188634 1.42447,0.957644 3.3343,2.760164 6.32015,5.965061 l 0.84592,0.907969 1.00391,-1.166035 c 1.17116,-1.360295 3.70448,-3.743871 5.46254,-5.139642 1.62977,-1.293927 1.71858,-1.292835 3.81296,0.0469 2.00549,1.282885 3.7834,2.927157 6.52042,6.030335 0.94123,1.067153 2.19533,2.416528 2.78689,2.998611 2.28545,2.248862 4.20233,5.094293 5.39535,8.008878 1.29958,3.1749 1.73522,6.44543 1.32475,9.94524 l -0.1473,1.25596 0.8291,-0.0133 c 1.03327,-0.0166 1.53609,0.2165 1.7931,0.83118 0.15293,0.36572 0.17038,0.86339 0.11209,3.19658 -0.038,1.51989 -0.084,2.89572 -0.10219,3.05741 -0.0302,0.26789 0.019,0.30282 0.55481,0.3936 1.25527,0.21267 2.02449,0.77914 2.29723,1.69172 0.11425,0.38227 0.0819,0.64279 -0.2364,1.90238 -0.5087,2.01319 -1.01004,3.53969 -1.53801,4.68298 l -0.44719,0.96836 0.52075,0.23035 c 0.45757,0.20241 0.52075,0.27546 0.52075,0.60217 0,1.33517 -1.53624,4.79077 -3.09683,6.96598 -2.93024,4.08428 -7.52974,7.07274 -12.19021,7.92042 -1.81544,0.3302 -5.11726,0.2565 -6.48564,-0.14477 -0.16003,-0.0469 -0.21979,0.0946 -0.33775,0.79985 -0.54282,3.24537 -2.66122,6.80289 -5.43012,9.11905 -1.22981,1.02872 -2.54776,1.90958 -2.85714,1.90958 -0.13073,0 -0.60754,-0.24603 -1.05959,-0.54673 z m 2.31003,-5.14595 c 0.67112,-0.99779 1.64779,-2.89425 1.99727,-3.87821 0.15092,-0.42493 0.14595,-0.46676 -0.0699,-0.58797 -0.1278,-0.0718 -0.40561,-0.29718 -0.61736,-0.50091 l -0.385,-0.37041 v -4.76152 -4.76151 l 0.28472,-0.0715 c 0.8067,-0.20247 2.61059,-0.29719 3.62483,-0.19034 0.59847,0.0631 1.11868,0.11556 1.15601,0.11668 0.0373,0.001 0.32452,-0.53304 0.63818,-1.18703 0.39376,-0.821 0.58651,-1.3846 0.62268,-1.82077 l 0.0524,-0.6317 -3.2188,-0.0313 -3.2188,-0.0313 -0.0379,-1.23473 c -0.0468,-1.52689 0.17021,-5.67332 0.4001,-7.64351 0.52278,-4.4803 1.52521,-8.38126 3.0101,-11.71381 l 0.61377,-1.37748 -0.394,-1.12728 c -0.57859,-1.65542 -1.70328,-4.26004 -2.39092,-5.53699 -0.70556,-1.31024 -2.22304,-3.596226 -2.88822,-4.350928 l -0.46641,-0.529166 -0.37619,0.352778 c -0.56079,0.525899 -2.15695,2.770176 -2.88017,4.049666 -0.79975,1.41489 -1.54691,3.08849 -2.41383,5.40682 l -0.67794,1.81298 0.41213,0.89165 c 2.32797,5.03667 3.48038,10.70206 3.64374,17.91319 l 0.0713,3.1456 h -3.32358 -3.32358 l 0.0827,0.55165 c 0.11549,0.77009 0.7269,2.21638 1.29508,3.0635 0.0105,0.0157 0.56909,-0.0238 1.24122,-0.0879 0.85816,-0.0818 1.61711,-0.0764 2.54867,0.018 l 1.32661,0.1345 v 4.85068 4.85069 l -0.40451,0.35516 c -0.22248,0.19534 -0.48945,0.4027 -0.59328,0.4608 -0.16918,0.0947 -0.15618,0.19637 0.1253,0.97994 0.59118,1.6457 1.46474,3.1999 2.56262,4.55933 l 0.59978,0.60053 0.33425,-0.24775 c 0.22719,-0.16839 0.64932,-0.86394 1.03692,-1.44022 z m -7.98922,-9.68255 c -2.25273,-2.5524 -3.49549,-5.5635 -3.73308,-9.04489 l -0.0816,-1.19559 -1.45094,-0.5977 c -0.79802,-0.32874 -1.48751,-0.5977 -1.5322,-0.5977 -0.15608,0 0.0684,2.77152 0.30222,3.73141 0.85654,3.51615 2.99805,6.31226 6.15076,8.0309 0.46816,0.2552 0.28686,0.0672 0.34026,0.0681 0.0534,9.1e-4 0.38987,0.042 0.005,-0.39454 z m 13.61795,0.29712 c 1.48355,-0.81508 3.22793,-2.37359 4.27008,-3.81508 1.22441,-1.69358 2.05422,-4.22381 2.16491,-6.60121 l -0.11874,-1.24 -0.50749,0.10237 c -0.40936,0.0826 -1.07718,0.47116 -1.54608,0.66926 l -0.85254,0.36019 -4.8e-4,0.77745 c -0.002,3.1994 -1.574,6.964 -3.8383,9.42202 -0.35539,0.3858 -0.79787,0.99885 0.42859,0.325 z m -18.49994,-0.56657 c 0.50591,-0.0674 0.69723,-0.32403 0.76873,-0.34808 0.0715,-0.024 -0.12589,-0.40881 -0.78223,-1.07735 -1.66806,-1.69908 -2.62197,-3.25282 -3.27843,-5.33997 -0.60069,-1.90983 -0.71093,-2.75006 -0.72397,-5.51816 -0.0134,-2.83657 0.008,-2.7354 -0.81008,-3.80992 -0.58367,-0.7665 -1.79497,-1.79278 -4.07315,-3.451 -2.62089,-1.90767 -3.36004,-2.59199 -4.65941,-4.31379 -1.31836,-1.74696 -1.36871,-1.74219 -1.03975,0.0984 0.68766,3.84741 2.79268,7.16538 5.94917,9.3772 1.3719,0.96131 1.36532,1.05955 -0.0372,0.55549 -1.79273,-0.64431 -3.83027,-1.78919 -6.97437,-3.91887 -1.58104,-1.07092 -1.64513,-1.06245 -1.23716,0.16351 0.56925,1.71059 2.38074,4.70502 3.74533,6.19109 1.42518,1.55206 3.46047,3.00591 5.84091,4.17227 0.84078,0.41197 1.47578,0.75034 1.41111,0.75193 -0.27633,0.007 -2.08141,-0.4789 -3.05741,-0.82268 -1.30967,-0.4613 -4.11126,-1.71629 -5.53742,-2.48054 -0.5879,-0.31503 -1.13386,-0.57279 -1.21325,-0.57279 -0.20994,0 -0.0891,0.34647 0.63585,1.82268 0.79009,1.60894 1.84907,3.02204 3.26022,4.35043 2.38642,2.24648 5.31288,3.79133 7.91108,4.17619 0.90077,0.13343 2.87687,0.13038 3.90145,-0.006 z m 27.98204,-0.21633 c 3.97073,-0.99271 8.08584,-4.3064 10.06675,-8.10623 0.53903,-1.03397 0.82636,-1.80935 0.7259,-1.9098 -0.0303,-0.0302 -1.22862,0.45753 -2.70854,1.16228 -3.59364,1.71132 -5.08704,2.25858 -6.92408,2.53734 -0.45936,0.0697 -0.45524,0.0649 0.17639,-0.20491 4.42319,-1.88952 7.74037,-4.87879 9.66767,-8.71199 0.49254,-0.97962 1.22125,-2.99034 1.13629,-3.07531 -0.0267,-0.0267 -1.03541,0.53356 -2.35276,1.40414 -1.31735,0.87059 -3.0124,1.90704 -3.76678,2.30324 -1.36407,0.71641 -3.19978,1.46099 -3.42055,1.3874 -0.0636,-0.0212 0.1155,-0.1901 0.39798,-0.37534 0.86625,-0.56803 2.29412,-1.80435 3.10817,-2.69121 1.87732,-2.04523 3.17625,-4.68415 3.56963,-7.25212 0.0743,-0.48507 0.16214,-1.05392 0.19518,-1.26412 0.0331,-0.2102 0.015,-0.38218 -0.0402,-0.38218 -0.0551,0 -0.36047,0.35719 -0.67854,0.79375 -0.99005,1.3589 -3.37476,3.6353 -5.64067,5.38447 -2.37334,1.83211 -3.89853,3.26919 -4.28868,4.04091 -0.25139,0.49725 -0.25649,0.56938 -0.12899,1.82269 0.15025,1.47697 0.0268,3.79854 -0.27744,5.21908 -0.25211,1.17703 -0.86162,2.75521 -1.48564,3.84672 -0.60106,1.05135 -2.07147,2.85197 -2.86183,3.50449 -0.29767,0.24575 -0.54121,0.49209 -0.54121,0.54742 0,0.39563 4.50927,0.40995 6.07191,0.0193 z m -23.42314,-11.45895 c -0.35814,-2.05185 -1.03309,-3.97428 -1.9766,-5.62993 -0.73475,-1.28932 -1.41246,-2.20617 -3.18026,-4.30248 -4.09721,-4.8586 -5.82889,-7.88899 -6.67451,-11.6802 -0.23006,-1.03145 -0.27118,-1.53968 -0.26524,-3.27854 0.005,-1.41089 0.0708,-2.40909 0.20994,-3.175 0.2426,-1.335684 0.88867,-3.836297 1.30416,-5.047684 0.16471,-0.480228 0.0308,-0.619184 0.0308,-0.707961 0,-0.267713 -1.10551,1.029156 -1.97811,2.327727 -1.37083,2.040028 -2.185,3.939458 -2.75665,6.431208 -0.43074,1.87752 -0.53831,4.94367 -0.23671,6.74732 0.35545,2.12579 1.12362,3.97522 2.3858,5.74399 0.80318,1.12556 2.32695,2.68279 5.14744,5.26047 2.72809,2.49324 4.13762,3.92916 6.50012,6.62182 0.86886,0.99028 1.53353,1.60694 1.5579,1.58257 0.0244,-0.0244 0.0301,-0.33086 -0.068,-0.89331 z m 16.11341,-1.48731 c 0.7744,-0.86359 3.12919,-3.19789 5.23287,-5.18734 4.72455,-4.46801 5.79683,-5.69671 6.91799,-7.92715 1.19436,-2.37605 1.62608,-4.964 1.32416,-7.9375 -0.34555,-3.40316 -1.34454,-6.25627 -3.1498,-8.995835 -0.78794,-1.195743 -1.91875,-2.576853 -1.97525,-2.407366 -0.0205,0.06163 0.141,1.030799 0.53049,2.353786 1.12971,3.837295 1.36382,5.401105 1.16135,7.757375 -0.34465,4.0108 -2.18078,7.75322 -6.34563,12.93371 -2.13211,2.65204 -3.16069,4.04897 -3.92757,5.33407 -1.12354,1.88275 -1.86913,4.0233 -2.01102,5.77353 l -0.0671,0.82805 0.45076,-0.47758 c 0.24792,-0.26267 1.08437,-1.18416 1.85878,-2.04775 z m -19.0246,-14.6697 c -0.68692,-1.69053 -1.17707,-4.2818 -1.31844,-6.97025 -0.20669,-3.93044 0.69852,-11.455817 2.128,-17.690997 0.22157,-0.966458 0.25962,-1.621046 0.25962,-1.644004 0,-0.188778 -1.24943,0.845331 -2.5026,2.104045 -2.20921,2.218996 -3.37197,3.956058 -4.17428,6.236044 -1.08774,3.091059 -1.10847,6.553432 -0.0578,9.651542 0.69869,2.06023 2.19345,4.66488 3.87521,6.75263 0.89687,1.11337 1.6533,1.78445 1.70818,1.73993 0.0197,-0.016 0.0821,-0.17894 0.0821,-0.17894 z m 21.60207,-1.67859 c 2.23461,-2.92246 3.4541,-5.26769 4.13512,-7.95235 1.31921,-5.200501 -0.23523,-10.262045 -4.47524,-14.572172 -0.85413,-0.868256 -2.40239,-2.079491 -2.46894,-2.011079 -0.0149,0.01535 0.15743,1.343403 0.54023,3.251343 0.67747,3.376559 1.22542,6.832831 1.53806,9.70139 0.20425,1.874138 0.20575,7.550438 0.002,8.878238 -0.17777,1.16044 -0.74482,3.3789 -1.08289,4.23659 -0.12864,0.32638 -0.0819,0.36607 -0.0819,0.40975 0,0.18219 1.10033,-0.90478 1.8932,-1.94171 z m -17.71032,-9.51343 c 1.13748,-1.455113 3.03955,-4.270313 3.48113,-5.152335 0.29042,-0.580076 0.30713,-0.70995 0.30713,-2.38709 0,-1.968154 -0.0453,-2.13497 -0.76492,-2.820292 -0.23771,-0.226365 -0.84479,-0.94074 -1.34906,-1.5875 -0.50427,-0.646759 -1.12127,-1.372115 -1.37112,-1.611902 l -0.45425,-0.435977 -0.009,3.316995 c -0.0125,4.73164 -0.45781,8.153844 -1.51472,11.640711 -0.22924,0.75626 -0.21672,1.00313 -0.21514,1.05236 0.004,0.128 0.75587,-0.56451 1.88972,-2.01497 z m 13.82166,1.54653 c -0.6252,-1.96631 -1.04414,-3.881447 -1.40837,-6.438191 -0.15287,-1.073072 -0.20391,-2.304111 -0.21307,-5.138854 -0.007,-2.050259 -0.15478,-3.507949 -0.19338,-3.546579 -0.0898,-0.0898 -1.43669,1.265111 -2.73969,2.889438 l -1.01039,1.25956 v 1.963905 c 0,2.247796 -0.10151,1.948286 1.44968,4.277623 1.48857,2.235318 3.94632,5.264108 4.16685,5.264108 0.0491,0 0.10773,-0.0298 -0.0516,-0.53101 z"
       id="path1" /><path
       style="fill:#f5cb2f;fill-opacity:1;stroke:#000000;stroke-width:1.35"
       d="m 1152.5,529.53104 c -16.3128,-4.17112 -32.15,-17.47591 -39.5182,-33.19932 -1.09,-2.32599 -1.9818,-4.34901 -1.9818,-4.49561 0,-0.1466 3.8813,1.60579 8.625,3.89421 9.9384,4.79433 15.7995,7.18336 22.0559,8.99011 7.7008,2.22386 7.7434,1.64024 0.179,-2.45308 -3.7896,-2.05063 -8.6223,-4.91843 -10.7393,-6.37289 -8.2838,-5.69119 -15.8658,-14.82069 -21.2977,-25.64446 -2.2185,-4.42061 -4.0443,-9.19525 -3.6623,-9.57722 0.1066,-0.10667 3.6443,2.07209 7.8614,4.84168 4.2172,2.7696 9.8385,6.25408 12.4918,7.74329 6.982,3.91873 15.5125,7.18803 15.4722,5.92975 -0.01,-0.24062 -1.7146,-1.675 -3.7932,-3.1875 -8.2173,-5.97954 -15.2662,-14.71217 -18.9764,-23.50939 C 1116.9231,447.05287 1114.2117,436 1115.1711,436 c 0.1565,0 1.9499,2.08125 3.9852,4.625 5.0066,6.25702 8.66,9.61006 18.0937,16.6061 9.503,7.04744 16.4057,13.69724 17.2045,16.57427 0.297,1.06955 0.5451,4.98213 0.5514,8.69463 0.033,19.57867 3.657,29.95993 14.7427,42.23424 2.8896,3.19939 4.0568,4.82701 3.6444,5.08192 -0.3338,0.20625 -4.3275,0.44222 -8.8749,0.52437 -6.8591,0.12391 -8.9072,-0.014 -12.0181,-0.80949 z"
       id="path2"
       transform="scale(0.26458333)" /><path
       style="fill:#f5cb2f;fill-opacity:1;stroke:#000000;stroke-width:1.35"
       d="m 1186.5,531.65891 c -5.5017,-3.25613 -11.557,-8.85393 -14.9518,-13.82226 -2.4458,-3.57943 -5.4466,-10.28127 -6.5796,-14.69476 -0.5496,-2.14054 -1.1391,-6.30946 -1.3101,-9.26427 l -0.311,-5.37238 4.9513,2.038 c 2.7231,1.1209 5.2325,2.1563 5.5762,2.30088 0.3718,0.15639 0.6262,1.20319 0.6279,2.58438 0.013,10.38634 4.5924,23.66993 11.1257,32.27377 4.014,5.28623 4.0219,5.29804 3.5574,5.293 -0.2398,-0.003 -1.4485,-0.60396 -2.686,-1.33636 z"
       id="path3"
       transform="scale(0.26458333)" /><path
       style="fill:#f5cb2f;fill-opacity:1;stroke:#000000;stroke-width:1.35"
       d="m 1210.5911,570.08231 c -3.1971,-4.3119 -6.9875,-11.36079 -8.3296,-15.49051 l -0.8639,-2.6582 2.0512,-1.75576 2.0512,-1.75576 v -18.66292 -18.66293 l -5.3336,-0.36354 c -2.9335,-0.19995 -7.3134,-0.21409 -9.7332,-0.0314 l -4.3994,0.33211 -1.2703,-2.50668 c -1.6497,-3.25556 -3.0386,-6.86212 -3.4282,-8.9017 L 1181.025,498 h 12.5668 12.5668 l -0.3179,-11.625 c -0.1749,-6.39375 -0.5486,-14.1 -0.8305,-17.125 -1.7336,-18.60303 -5.8461,-35.49799 -12.0024,-49.30823 l -2.3663,-5.30823 2.6833,-7.19177 c 5.09,-13.64216 12.4163,-26.8135 19.2712,-34.64585 l 1.7103,-1.95409 3.034,4.02652 c 6.4832,8.60387 11.9339,18.70846 16.8763,31.28577 2.917,7.42317 3.0903,8.30212 2.038,10.33698 -3.5749,6.91313 -8.3037,21.78161 -10.4417,32.83116 -2.2213,11.48041 -3.7965,29.08218 -3.8081,42.55274 v 5.625 l 5.875,0.002 c 3.2313,10e-4 8.7668,0.1495 12.3012,0.32975 l 6.4261,0.32773 -0.317,2.04525 c -0.1743,1.12488 -1.2249,3.96722 -2.3347,6.3163 l -2.0176,4.27106 -7.3415,-0.0211 c -4.0378,-0.0116 -8.4102,0.16148 -9.7165,0.38458 l -2.375,0.40564 v 18.41733 18.41733 l 2.2496,1.92703 2.2496,1.92703 -1.9158,4.25 c -3.1733,7.03928 -9.8094,17.5 -11.1017,17.5 -0.2672,0 -1.793,-1.76296 -3.3906,-3.91769 z"
       id="path4"
       transform="scale(0.26458333)" /><path
       style="fill:#f5cb2f;fill-opacity:1;stroke:#000000;stroke-width:1.35"
       d="m 1240.1517,530.30056 c 7.7335,-9.11585 12.5798,-20.91301 13.2051,-32.14461 l 0.2837,-5.09406 4.8047,-2.08217 c 2.6427,-1.1452 5.0861,-2.19569 5.4298,-2.33444 0.8952,-0.36131 0.821,5.71089 -0.131,10.72954 -2.1682,11.43006 -7.2817,20.34331 -15.7221,27.4053 -3.4317,2.87132 -9.2413,6.71988 -10.1438,6.71988 -0.2424,0 0.7807,-1.43975 2.2736,-3.19944 z"
       id="path5"
       transform="scale(0.26458333)" /><path
       style="fill:#f5cb2f;fill-opacity:1;stroke:#000000;stroke-width:1.35"
       d="m 1255.625,530.17433 c -0.8937,-0.13073 -1.625,-0.38689 -1.625,-0.56925 0,-0.18236 1.5452,-1.91185 3.4338,-3.84332 12.103,-12.3776 16.8442,-25.99353 15.756,-45.2485 -0.267,-4.72457 -0.1846,-6.07078 0.4458,-7.27986 1.0907,-2.09191 8.661,-9.32186 14.8644,-14.19611 10.5087,-8.25712 18.5409,-15.92676 23.2241,-22.1759 0.7784,-1.03873 1.4924,-1.81151 1.5867,-1.71729 0.094,0.0942 -0.1746,2.15316 -0.5974,4.57539 -2.6077,14.93985 -9.6665,26.22851 -22.7345,36.35811 -6.0462,4.68662 -5.1258,5.05697 3.3575,1.35098 5.7133,-2.49591 11.2406,-5.65382 20.8928,-11.93665 4.1364,-2.69253 7.6017,-4.8176 7.7005,-4.72239 0.3362,0.32394 -2.557,7.46532 -4.8216,11.90156 -6.628,12.98349 -18.0867,23.6156 -33.2474,30.84889 -5.7842,2.75972 -5.2003,3.22506 1.806,1.43922 4.8072,-1.22531 11.4894,-3.9164 22.777,-9.1728 4.5066,-2.09861 8.3026,-3.70679 8.4356,-3.57373 0.1331,0.13306 -0.7848,2.35266 -2.0398,4.93244 -5.6468,11.6077 -16.7683,22.56435 -28.9483,28.51926 -7.3272,3.58233 -10.7666,4.35235 -20.3912,4.56519 -4.5375,0.10035 -8.9812,0.0755 -9.875,-0.0552 z"
       id="path6"
       transform="scale(0.26458333)" /><path
       style="fill:#f5cb2f;fill-opacity:1;stroke:#000000;stroke-width:1.35"
       d="m 1240.6621,485.96634 c 0.3559,-4.12599 2.7244,-11.56724 5.2492,-16.4913 2.7464,-5.35619 5.9994,-10.15357 12.5269,-18.47425 12.9323,-16.48487 17.0818,-22.53843 21.5681,-31.46513 6.2079,-12.35215 8.3165,-25.15884 6.1852,-37.56604 -0.4446,-2.58863 -2.0055,-8.97996 -3.4685,-14.20296 -1.463,-5.22301 -2.6007,-9.55559 -2.5284,-9.62797 0.244,-0.24399 5.2694,6.27439 7.4834,9.70666 7.3033,11.32188 11.1331,23.3665 11.6685,36.69647 0.4352,10.8356 -0.9501,18.14277 -4.9686,26.20818 -3.7099,7.44615 -5.5526,9.55779 -26.615,30.5 -11.3398,11.275 -22.1401,22.1875 -24.0009,24.25 l -3.3831,3.75 z"
       id="path7"
       transform="scale(0.26458333)" /><path
       style="fill:#f5cb2f;fill-opacity:1;stroke:#000000;stroke-width:1.35"
       d="m 1251.5,425.92182 c 0,-0.1459 0.4403,-1.54492 0.9784,-3.10894 0.5381,-1.56401 1.6014,-5.48049 2.363,-8.70327 1.3634,-5.7698 1.3845,-6.10482 1.3746,-21.85961 -0.01,-13.82496 -0.1623,-17.08752 -1.1306,-24 -1.446,-10.32251 -3.1001,-20.07032 -5.4937,-32.375 -1.0565,-5.43125 -1.7333,-9.875 -1.504,-9.875 0.2294,0 3.5248,3.09375 7.3232,6.875 7.3199,7.28697 11.5214,12.91743 14.8093,19.84588 8.5371,17.99025 6.4004,38.13607 -6.1017,57.52912 -4.0609,6.29937 -12.6185,16.92758 -12.6185,15.67182 z"
       id="path8"
       transform="scale(0.26458333)" /><path
       style="fill:#f5cb2f;fill-opacity:1;stroke:#000000;stroke-width:1.35"
       d="m 1242.4003,389.61979 c -4.2143,-4.52136 -17.8383,-24.1057 -18.831,-27.0694 -0.3137,-0.93653 -0.5693,-4.73059 -0.5693,-8.45051 v -6.7509 l 3.6992,-4.54949 c 4.5829,-5.63648 9.8534,-11.41353 10.1459,-11.12107 0.1205,0.12054 0.4103,7.49846 0.6439,16.39537 0.4693,17.87527 1.2283,23.74547 4.7147,36.46487 0.9364,3.41624 1.651,6.26525 1.588,6.33113 -0.063,0.0659 -0.6891,-0.49662 -1.3914,-1.25 z"
       id="path9"
       transform="scale(0.26458333)" /><path
       style="fill:#f5cb2f;fill-opacity:1;stroke:#000000;stroke-width:1.35"
       d="m 1184.5208,390.22839 c -0.011,-0.28689 0.5545,-2.50585 1.2575,-4.93102 3.5315,-12.18136 4.7242,-21.52585 5.0746,-39.75922 l 0.2827,-14.71185 2.3072,2.47976 c 2.1146,2.27279 8.4047,9.56518 10.8072,12.52944 0.8664,1.06892 1.0218,2.12675 1.1631,7.91586 0.1412,5.78345 0.031,6.98078 -0.8194,8.90326 -2.4829,5.613 -19.9896,29.66162 -20.0729,27.57377 z"
       id="path10"
       transform="scale(0.26458333)" /><path
       style="fill:#f5cb2f;fill-opacity:1;stroke:#000000;stroke-width:1.35"
       d="m 1172.7393,422.16199 c -7.9645,-9.29105 -15.4273,-22.27782 -17.9636,-31.26021 -4.8489,-17.17277 -1.093,-35.42908 10.2117,-49.63594 2.7009,-3.39427 14.7672,-15.26584 15.5162,-15.26584 0.2558,0 0.3684,0.28125 0.2504,0.625 -0.6414,1.8679 -3.9218,18.36967 -5.2279,26.29812 -5.2264,31.72621 -5.2501,53.03701 -0.078,69.55542 0.556,1.7757 0.9284,3.31109 0.8275,3.41199 -0.1009,0.1009 -1.6925,-1.57694 -3.5368,-3.72854 z"
       id="path11"
       transform="scale(0.26458333)" /><path
       style="fill:#f5cb2f;fill-opacity:1;stroke:#000000;stroke-width:1.35"
       d="m 1180.2949,481.22449 c -4.0694,-4.53664 -11.7067,-12.3444 -16.9719,-17.35056 -15.6373,-14.8681 -23.4092,-22.88002 -26.049,-26.85351 -6.7515,-10.16249 -9.4105,-21.53712 -8.3036,-35.52042 0.9908,-12.51553 4.3019,-22.46273 10.9016,-32.75 2.6342,-4.10602 7.6225,-10.42218 7.9625,-10.08215 0.1299,0.12991 -0.6671,3.38452 -1.7711,7.23246 -3.3287,11.60176 -4.0635,16.39432 -4.0628,26.50007 6e-4,7.67092 0.1632,9.52032 1.2207,13.88517 3.3583,13.8618 9.1979,23.85925 25.2419,43.21445 9.1733,11.0665 12.988,17.19959 16.0163,25.75 1.4966,4.22557 3.7733,13.66383 3.3888,14.04834 -0.096,0.096 -3.5041,-3.5372 -7.5734,-8.07385 z"
       id="path12"
       transform="scale(0.26458333)" /></g></svg>
