<?xml version="1.0" encoding="UTF-8" standalone="no"?>
<!-- Created with Inkscape (http://www.inkscape.org/) -->

<svg
   width="73.713165mm"
   height="56.797237mm"
   viewBox="0 0 73.713165 56.797237"
   version="1.1"
   id="svg1"
   xml:space="preserve"
   xmlns="http://www.w3.org/2000/svg"
   xmlns:svg="http://www.w3.org/2000/svg"><defs
     id="defs1" /><g
     id="layer1"
     transform="translate(-413.80437,-73.541517)"><path
       style="fill:#000000"
       d="m 437.041,124.66487 c 0.018,-8.31468 0.35116,-13.17153 1.38951,-20.2553 0.15168,-1.03482 0.26025,-1.89881 0.24126,-1.91998 -0.0464,-0.0517 -0.59979,0.90859 -2.97029,5.15378 -1.10151,1.97261 -2.24372,4.00807 -2.53825,4.52323 l -0.53551,0.93667 -9.26477,5.26605 c -8.01587,4.55618 -9.5595,5.40195 -9.55859,5.23724 9e-5,-0.0162 3.06297,-7.04086 6.80641,-15.61042 l 6.80626,-15.581013 -1.74994,-0.03246 -1.74993,-0.03246 0.005,-1.790224 0.005,-1.790224 3.08135,-1.932831 c 10.21071,-6.404852 21.56934,-13.370162 21.6551,-13.279286 0.0222,0.02347 -0.9595,2.688506 -2.18143,5.922302 -4.17258,11.042533 -7.08754,19.036102 -7.01793,19.244943 0.0204,0.06111 2.54389,-5.580144 5.60781,-12.536127 3.06392,-6.955983 5.60404,-12.647242 5.6447,-12.647242 0.0407,0 0.67548,1.468437 1.4107,3.263194 2.56376,6.258371 5.51395,13.022697 8.48245,19.448947 0.67647,1.464432 1.24919,2.64464 1.2727,2.622683 0.0766,-0.07153 -0.45779,-1.711261 -1.30089,-3.991768 -2.13684,-5.779918 -4.59631,-12.294665 -6.25763,-16.575447 -1.0029,-2.584228 -1.79927,-4.722781 -1.76971,-4.752341 0.0799,-0.07989 3.87894,2.24062 14.63594,8.939809 2.74873,1.711837 6.08248,3.766347 7.40834,4.565579 1.32585,0.799231 2.50325,1.531827 2.61643,1.62799 0.1789,0.151993 0.20579,0.40297 0.20579,1.920505 v 1.745664 h -1.77647 c -1.64339,0 -1.77059,0.01542 -1.69795,0.205787 0.0432,0.113183 3.12383,7.1541 6.84588,15.64649 3.72205,8.49238 6.74832,15.45827 6.72504,15.47975 -0.0233,0.0215 -4.27567,-2.36713 -9.44974,-5.30804 l -9.40741,-5.34711 -2.07632,-3.66505 c -1.14198,-2.01579 -2.2729,-4.06194 -2.51317,-4.54701 -0.54218,-1.0946 -1.36422,-2.49335 -1.42791,-2.42967 -0.0261,0.0262 0.11159,0.99363 0.30609,2.14995 1.01283,6.02156 1.41441,12.08831 1.41766,21.41699 l 0.002,4.38033 -13.67014,-3e-5 -13.67014,-2e-5 z m 24.15301,-0.79373 v -3.52777 h -3.27321 c -1.80026,0 -6.5363,-0.0351 -10.52453,-0.0781 l -7.25133,-0.0781 v 3.60586 3.60586 h 10.52453 10.52454 z m 15.15797,-19.29939 c -2.98626,-7.397578 -5.45482,-13.568089 -5.4857,-13.712248 l -0.0562,-0.262106 2.36651,-0.03187 1.65543,-0.160028 -9.42667,-6.835443 c -5.47627,-3.970937 -9.82777,-6.562497 -9.85063,-6.539644 -0.0229,0.02285 0.28813,1.107192 1.09276,2.877028 0.80464,1.769836 2.33623,5.149342 3.40354,7.510013 1.06731,2.360671 2.69185,5.906088 3.61008,7.878704 2.84035,6.101804 7.54509,15.343864 8.09394,15.899834 0.22703,0.22997 9.4863,6.40253 9.53789,6.36359 0.0186,-0.014 -1.95474,-5.59025 -4.941,-12.98782 z m -56.28437,12.99166 c 0,-0.13447 1.45654,-0.85956 3.20279,-2.04431 1.74625,-1.18475 3.94229,-2.69537 4.88009,-3.35694 l 1.70509,-1.20285 1.84276,-3.62765 c 3.29638,-6.48924 7.91443,-16.317753 13.98885,-29.772193 0.18488,-0.409501 -0.11562,-0.06479 -0.18273,-0.04242 -0.0671,0.02237 -4.21336,2.447624 -9.69897,6.197906 l -9.2793,6.587185 1.64081,0.26334 c 1.49447,0.239853 2.33534,0.07474 2.33534,0.153765 0,0.06706 -0.2856,0.740655 -0.63466,1.496871 -0.34907,0.756216 -1.13855,2.61848 -1.75439,4.138364 -1.38662,3.42211 -8.3892,21.231822 -8.3892,21.310632 0,0.10537 0.34352,0.14561 0.34352,-0.1017 z m 41.1264,0.13523 c 0,-0.26463 -0.67904,-4.97968 -0.94852,-6.58629 -1.74967,-10.43112 -4.03031,-18.810693 -7.66512,-28.163427 -0.7415,-1.907939 -1.44385,-3.733564 -1.56078,-4.056944 -0.11693,-0.32338 -0.25575,-0.637216 -0.30849,-0.697413 -0.13127,-0.149825 -0.58653,0.89649 -1.8384,4.225191 -3.69853,9.834278 -5.92447,17.843883 -7.59814,27.340273 -0.36426,2.06683 -1.12887,7.34145 -1.12931,7.79051 l -3.1e-4,0.32338 h 10.52453 c 9.24719,0 10.52454,-0.0213 10.52454,-0.17528 z"
       id="path13" /><path
       style="fill:#feca00;fill-opacity:1;stroke:#000000;stroke-width:1.90919"
       d="m 1663.8222,444.63754 c 0,-0.46186 0.8182,-6.42807 1.8182,-13.25825 4.9845,-34.04534 12.0161,-63.62974 22.6917,-95.47237 4.2873,-12.78812 13.9554,-38.73211 14.7175,-39.49425 0.3822,-0.38223 0.2191,-0.78322 7.4231,18.24985 15.3743,40.6195 24.0912,74.09113 30.3112,116.39025 l 1.986,13.50623 -11.0128,0.45678 c -20.0071,0.82984 -67.9349,0.56299 -67.9349,-0.37824 z"
       id="path14"
       transform="scale(0.26458333)" /><path
       style="fill:#feca00;fill-opacity:1;stroke:#000000;stroke-width:1.90919"
       d="m 1663.8222,467.75113 v -13.08147 h 15.0873 c 8.298,0 26.1171,0.21063 39.598,0.46806 l 24.5107,0.46807 v 12.61341 12.61341 h -39.598 -39.598 z"
       id="path15"
       transform="scale(0.26458333)" /><path
       style="fill:#feca00;fill-opacity:1;stroke:#000000;stroke-width:1.90919"
       d="m 1586.9139,443.96854 c 0.2095,-0.53138 3.3108,-8.4438 6.8919,-17.58315 9.3439,-23.84653 28.4902,-71.49039 31.3997,-78.1353 l 2.4768,-5.65686 -6.502,-0.176 c -10.7156,-0.29005 -10.7342,-0.31398 -3.9187,-5.02811 24.5318,-16.96785 66.5698,-45.37954 66.8013,-45.14806 0.2871,0.2871 -13.0245,29.66011 -28.4271,62.72654 -4.6195,9.91718 -13.6564,28.52249 -20.0821,41.34514 l -11.683,23.31392 -17.3241,11.90128 c -19.5848,13.45434 -20.1811,13.83218 -19.6327,12.4406 z"
       id="path16"
       transform="scale(0.26458333)" /><path
       style="fill:#feca00;fill-opacity:1;stroke:#000000;stroke-width:1.90919"
       d="m 1804.4867,434.62387 c -22.8858,-15.74376 -21.3094,-14.38811 -25.3664,-21.81422 -6.0526,-11.07876 -23.5121,-46.6265 -31.8825,-64.91312 -15.4128,-33.67185 -25.4346,-56.09532 -25.1833,-56.34661 0.1399,-0.1399 16.6554,10.96942 36.7011,24.68737 21.8258,14.93614 36.1206,25.15013 35.6337,25.46123 -0.4471,0.28573 -4.0959,0.52438 -8.1085,0.53033 -7.2371,0.0107 -7.2915,0.0235 -6.8062,1.60182 0.2692,0.87505 9.3633,23.69355 20.2093,50.70779 10.8459,27.01425 19.6363,49.33615 19.5341,49.60423 -0.1022,0.26809 -6.7313,-4.01539 -14.7313,-9.51882 z"
       id="path17"
       transform="scale(0.26458333)" /></g></svg>
