<?xml version="1.0" encoding="UTF-8" standalone="no"?>
<!-- Created with Inkscape (http://www.inkscape.org/) -->

<svg
   width="62.529289mm"
   height="71.564651mm"
   viewBox="0 0 62.529289 71.564651"
   version="1.1"
   id="svg1"
   xml:space="preserve"
   xmlns="http://www.w3.org/2000/svg"
   xmlns:svg="http://www.w3.org/2000/svg"><defs
     id="defs1" /><g
     id="layer1"
     transform="translate(-444.67387,-86.549625)"><path
       style="fill:#000000"
       d="m 475.78748,158.08839 c -0.0331,-0.0331 -0.85094,-0.21651 -1.81738,-0.40752 -7.74904,-1.53158 -16.06288,-6.18656 -21.50071,-12.0384 -2.96495,-3.19068 -5.14352,-6.51765 -6.52392,-9.96289 -0.6552,-1.63528 -1.39372,-4.17426 -1.25456,-4.31309 0.0498,-0.0497 0.76076,-0.0868 1.57987,-0.0824 1.12823,0.006 1.89685,0.0879 3.1703,0.33767 0.92455,0.18134 1.71054,0.30017 1.74663,0.26408 0.0361,-0.0361 -0.071,-0.47909 -0.23798,-0.98444 -0.8278,-2.50515 -1.13178,-4.83823 -1.13178,-8.68655 0,-4.13371 0.38641,-7.68366 1.35605,-12.45817 0.64386,-3.17034 1.74098,-7.67139 1.91144,-7.84184 0.17339,-0.17339 0.79542,0.22602 1.45214,0.93243 1.82941,1.96785 3.22628,4.20288 5.703,9.12493 1.00368,1.99464 1.85152,3.59999 1.88408,3.56742 0.0326,-0.0326 0.18236,-0.68559 0.33287,-1.45117 1.40382,-7.14066 4.67183,-14.860371 9.20134,-21.735478 1.21076,-1.837746 2.74817,-3.973759 3.73895,-5.194729 l 0.49388,-0.608618 0.47363,0.491026 c 1.05199,1.090634 3.70312,4.890163 5.34769,7.664173 3.83527,6.469196 6.46682,13.200616 7.84957,20.078936 0.0748,0.37189 0.18053,0.67616 0.23506,0.67616 0.15218,0 0.82891,-1.27014 1.85567,-3.48287 1.58046,-3.40598 3.5866,-6.7606 5.06932,-8.47679 0.67308,-0.77907 1.8124,-1.79868 2.00986,-1.79868 0.22699,0 1.963,7.36994 2.46597,10.46882 1.32013,8.13365 1.19768,14.07955 -0.39529,19.19392 -0.21214,0.68107 -0.31,0.66603 1.69625,0.26065 0.89278,-0.18039 2.10475,-0.32558 3.08681,-0.36977 l 1.6169,-0.0728 v 0.36339 c 0,0.51771 -0.71264,2.79813 -1.34794,4.31336 -1.6055,3.82922 -3.90421,7.18361 -7.17753,10.47381 -5.66283,5.69203 -13.10464,9.76593 -20.71719,11.3413 -0.95865,0.19838 -1.8262,0.38627 -1.92789,0.41751 -0.10169,0.0312 -0.21199,0.0297 -0.24511,-0.003 z m -2.42666,-2.88856 c -0.0848,0 -0.68771,-0.66277 -1.57034,-1.36417 -5.94503,-4.72438 -8.48511,-8.15308 -9.35147,-12.62297 -0.25757,-1.32891 -0.25288,-3.82219 0.01,-5.29167 0.27236,-1.52269 1.01678,-3.70498 1.71861,-5.03811 1.9907,-3.78137 5.29005,-6.64766 8.82402,-7.66578 1.0964,-0.31586 3.37582,-0.43747 4.53091,-0.24171 2.62404,0.44469 4.90988,1.68673 7.04488,3.82793 2.36571,2.37258 3.93537,5.2996 4.70031,8.76489 0.29181,1.32193 0.36112,4.15531 0.13532,5.53173 -0.72122,4.39635 -3.30256,7.8653 -9.69617,13.03026 -1.19375,0.96435 -1.29624,1.07598 -0.98789,1.07598 0.51437,0 3.31011,-0.84949 4.84806,-1.47308 7.28801,-2.95506 13.83848,-8.15625 17.7226,-14.07205 1.26247,-1.92284 2.9737,-5.4037 2.9737,-6.04889 0,-0.15137 -0.0836,-0.17194 -0.44097,-0.10849 -0.79848,0.14179 -4.17199,1.10801 -5.93843,1.70086 -0.95397,0.32017 -1.73449,0.55988 -1.73449,0.53269 0,-0.0272 0.38195,-0.72457 0.84878,-1.54973 0.46683,-0.82516 1.04504,-1.95519 1.28492,-2.51117 1.86861,-4.33106 2.10946,-11.2443 0.68668,-19.70981 -0.39172,-2.33073 -1.14557,-5.80689 -1.29211,-5.95824 -0.10996,-0.11357 -0.75302,0.84612 -1.84191,2.74883 -1.25313,2.1897 -2.20924,4.08444 -4.33171,8.58426 -2.17686,4.61512 -2.79745,5.82067 -2.84513,5.52685 -0.0157,-0.097 -0.13986,-1.07597 -0.27583,-2.17546 -1.21671,-9.83883 -4.77511,-19.2876 -10.51774,-27.928243 -1.48049,-2.227615 -1.83547,-2.666682 -2.04917,-2.534606 -0.0672,0.04151 -0.58979,0.747838 -1.1614,1.569621 -6.15726,8.852078 -10.0349,18.940858 -11.18826,29.109388 -0.12352,1.08902 -0.24535,2.0008 -0.27072,2.02618 -0.0254,0.0254 -0.81821,-1.52711 -1.76186,-3.44996 -0.94365,-1.92285 -2.40435,-4.89838 -3.246,-6.61229 -1.95832,-3.98786 -3.80358,-7.07508 -4.06975,-6.80891 -0.088,0.088 -1.18905,5.60557 -1.46431,7.33808 -0.4725,2.97395 -0.63974,5.1614 -0.64283,8.40787 -0.005,5.64131 0.55375,8.07543 2.83265,12.33209 0.43728,0.81677 0.81275,1.52489 0.83437,1.57359 0.0216,0.0487 -0.77681,-0.19742 -1.77429,-0.54694 -1.57565,-0.55212 -5.78425,-1.71707 -6.20322,-1.71707 -0.24112,0 -0.0582,0.59113 0.68831,2.22384 1.99923,4.37286 4.96918,8.17222 9.02954,11.55125 3.24416,2.69978 7.40387,5.13347 11.39071,6.66426 2.4516,0.94132 5.06492,1.3089 4.55167,1.3089 z m 8.0687,-12.15278 c 2.8572,-2.87166 5.19491,-5.2751 5.19491,-5.34098 0,-0.18876 -10.44987,-10.42811 -10.64251,-10.42811 -0.16864,0 -10.08745,9.81358 -10.29111,10.18194 -0.0812,0.14679 1.0135,1.31905 5.1335,5.49746 2.88016,2.92098 5.27572,5.31088 5.32347,5.31088 0.0478,0 2.42453,-2.34953 5.28174,-5.22119 z"
       id="path18" /><path
       style="fill:#eb430e;fill-opacity:1;stroke:#000000;stroke-width:0.675"
       d="m 1786.2678,586.23618 c -8.759,-2.2935 -19.4996,-6.50669 -28.8928,-11.33382 -30.2424,-15.54135 -52.4749,-38.23107 -63.8484,-65.16145 -1.4634,-3.46516 -1.8842,-4.96531 -1.4405,-5.13557 0.7469,-0.28663 14.191,3.40696 23.3304,6.40971 5.6186,1.84603 6.8335,2.17709 6.8335,1.86222 0,-0.0675 -1.5685,-3.18937 -3.4856,-6.9375 -1.9171,-3.74812 -4.1133,-8.36107 -4.8804,-10.25099 -4.2606,-10.49651 -5.6329,-20.6143 -5.2985,-39.06378 0.2609,-14.38943 1.0918,-21.81694 4.3212,-38.625 1.3706,-7.13387 3.3338,-16.53244 3.5144,-16.82453 0.5816,-0.9412 5.8197,7.33771 11.2775,17.82453 1.2523,2.40625 6.3912,12.74949 11.4198,22.98498 10.6233,21.62328 11.3813,23.07795 11.6621,22.37998 0.1084,-0.26948 0.5995,-3.71527 1.0914,-7.65731 2.4968,-20.01144 6.3623,-35.94146 13.1839,-54.33265 7.476,-20.15522 19.3728,-42.33622 31.5485,-58.82052 1.6872,-2.28432 1.9533,-2.54126 2.3895,-2.3078 0.6852,0.36669 2.9069,3.35155 6.4223,8.62832 13.0268,19.55388 22.7814,39.28827 29.8354,60.35949 5.425,16.20518 8.6536,31.0021 11.1316,51.01551 0.2298,1.85625 0.4723,3.43125 0.5389,3.5 0.4383,0.4526 2.4904,-3.55592 11.071,-21.625 3.4607,-7.2875 7.8419,-16.2875 9.7361,-20 4.9047,-9.61283 11.3331,-20.69886 12.7419,-21.9738 0.4512,-0.40828 0.4882,-0.34949 1.02,1.62165 0.809,2.99806 2.354,10.17016 3.3611,15.60215 6.0166,32.45259 5.7471,59.41293 -0.7682,76.84823 -1.0093,2.70097 -3.2681,7.31451 -5.9496,12.15177 -2.9345,5.29365 -3.1461,5.69657 -3.0449,5.79769 0.053,0.0532 2.8954,-0.7978 6.3161,-1.89103 13.8929,-4.44004 23.6464,-7.07974 24.1816,-6.54453 0.9334,0.93333 -6.5162,16.19791 -11.6408,23.85274 -17.7082,26.45149 -50.2317,49.26233 -81.6963,57.29895 -2.5159,0.64259 -3.25,0.73558 -3.25,0.41164 0,-0.10974 2.1094,-1.93736 4.6875,-4.06136 23.2804,-19.17966 32.4047,-31.10613 35.7536,-46.73376 0.6421,-2.99636 0.671,-3.45135 0.6773,-10.63034 0.01,-8.15906 -0.1726,-10.10856 -1.3713,-14.875 -2.9349,-11.66982 -8.5248,-21.83949 -16.6103,-30.219 -7.5606,-7.83546 -16.1614,-12.80339 -25.6368,-14.80808 -2.1619,-0.45739 -3.4409,-0.55635 -7.25,-0.56097 -8.821,-0.0107 -13.9788,1.25176 -21.0982,5.16408 -11.6369,6.39487 -21.3106,17.64389 -26.4858,30.79897 -3.4745,8.83221 -4.6677,14.94051 -4.6637,23.875 0,8.08753 1.1946,14.03403 4.2255,21.09772 3.3067,7.70633 7.85,13.99992 16.0088,22.1761 5.2027,5.21377 8.8425,8.4187 16.9571,14.93102 2.781,2.23182 5.0563,4.11126 5.0563,4.17651 0,0.23554 -1.161,0.0817 -2.9822,-0.39517 z"
       id="path19"
       transform="scale(0.26458333)" /><path
       style="fill:#eb430e;fill-opacity:1;stroke:#000000;stroke-width:0.675"
       d="m 1787.3513,547.93671 c -19.1322,-19.19693 -27.1013,-27.50882 -27.1013,-28.26712 0,-0.55219 38.1735,-38.41959 38.7301,-38.41959 0.4702,0 32.014,30.6777 37.0579,36.04043 l 3.0214,3.21233 -4.3986,4.56112 c -5.2202,5.41297 -24.155,24.48536 -30.5375,30.75935 l -4.5018,4.42518 z"
       id="path20"
       transform="scale(0.26458333)" /></g></svg>
