<?xml version="1.0" encoding="UTF-8" standalone="no"?>
<!-- Created with Inkscape (http://www.inkscape.org/) -->

<svg
   width="61.089359mm"
   height="53.519772mm"
   viewBox="0 0 61.089359 53.519772"
   version="1.1"
   id="svg1"
   xml:space="preserve"
   xmlns="http://www.w3.org/2000/svg"
   xmlns:svg="http://www.w3.org/2000/svg"><defs
     id="defs1" /><g
     id="layer1"
     transform="translate(-406.76764,-82.296195)"><path
       style="fill:#000000"
       d="m 434.75469,135.71917 c -5.30296,-0.434 -10.48111,-2.15868 -14.58148,-4.8566 -3.45657,-2.27433 -5.88462,-4.93534 -7.52174,-8.24341 -0.79812,-1.61276 -1.00049,-2.17547 -0.78237,-2.17547 0.0711,0 0.77797,0.44102 1.57085,0.98003 2.40229,1.63314 5.17006,3.11622 7.52258,4.0309 1.19523,0.46472 1.73892,0.51702 1.73892,0.16729 0,-0.12708 -0.11906,-0.29362 -0.26458,-0.37009 -0.95758,-0.50323 -2.95942,-2.71599 -4.34979,-4.80813 -1.16739,-1.75659 -1.7363,-2.96167 -2.43154,-5.15051 -0.33484,-1.05419 -0.67653,-1.94271 -0.75931,-1.97447 -0.0828,-0.0318 -0.64911,0.0536 -1.25852,0.18959 -2.21602,0.49469 -5.1429,0.31378 -6.4028,-0.39575 l -0.46726,-0.26315 0.0116,-2.34706 c 0.0205,-4.13677 0.73675,-7.50496 2.37467,-11.166511 2.27209,-5.079273 6.23028,-9.572367 11.08275,-12.58045 2.71369,-1.682236 6.33368,-3.149636 9.41831,-3.817813 2.50043,-0.541629 3.57306,-0.646317 6.5696,-0.641195 2.49999,0.0043 2.91567,0.0345 4.36052,0.317014 6.90007,1.349208 12.31544,4.363994 15.84109,8.818873 1.36924,1.730125 3.01456,4.423351 2.8207,4.617211 -0.0907,0.0907 -0.50322,-0.12456 -1.0325,-0.5387 -1.47261,-1.152273 -7.65939,-4.075656 -9.1306,-4.3144 -0.5481,-0.08894 -0.52618,0.209839 0.0466,0.634647 1.32613,0.98358 3.28977,3.024173 4.61919,4.800183 1.1413,1.52471 1.83484,2.79354 2.41417,4.416741 0.27971,0.7837 0.59217,1.55251 0.69436,1.70848 0.23653,0.36098 0.62851,0.36669 2.35585,0.0343 1.11416,-0.21439 1.5544,-0.23937 3.175,-0.18013 2.99284,0.1094 4.59438,0.46748 5.17451,1.15692 0.28568,0.33952 0.29355,0.39824 0.29355,2.19264 0,4.63216 -0.97159,8.71146 -3.06997,12.88956 -1.57682,3.13961 -4.08296,6.41998 -6.67117,8.73211 -6.57735,5.87575 -15.02804,8.81936 -23.36118,8.13735 z m 4.46852,-2.46031 c 3.87463,-0.2776 7.10087,-1.07539 10.41251,-2.5748 9.10446,-4.12226 15.48272,-13.07172 16.22381,-22.76398 0.14485,-1.89437 0.0637,-3.05092 -0.2351,-3.3497 -0.31165,-0.31165 -1.94916,-0.52079 -4.05863,-0.51837 -2.05596,0.002 -3.11866,0.16637 -3.49107,0.53878 -0.21354,0.21354 -0.22897,0.33394 -0.16059,1.25359 0.11647,1.56666 -0.11431,5.64557 -0.39827,7.03899 -0.47279,2.32 -1.47897,4.6738 -2.95535,6.91357 -1.22885,1.86424 -3.64349,4.25735 -5.62344,5.57328 -5.71003,3.79506 -13.36253,5.16999 -21.29614,3.82629 -3.5589,-0.60276 -7.46563,-1.91026 -9.64841,-3.22912 -0.73682,-0.44519 -1.23576,-0.59859 -1.15111,-0.35392 0.0606,0.17528 2.16139,1.82154 3.24333,2.54165 4.51388,3.00429 10.12987,4.85422 15.61068,5.14222 1.5215,0.0799 1.93839,0.0754 3.52778,-0.0385 z m 0.80784,-7.04861 c 3.67397,-0.72901 6.81997,-2.39452 9.43674,-4.99588 2.61829,-2.60287 4.27987,-5.43643 5.10597,-8.7074 1.0416,-4.12429 0.51801,-8.28764 -1.5455,-12.2892 -3.76118,-7.293687 -12.10184,-11.35374 -20.38968,-9.925259 -6.7816,1.168867 -12.57955,6.629908 -14.39812,13.561449 -0.49634,1.89181 -0.63994,3.26271 -0.55991,5.34507 0.29746,7.73919 5.6061,14.35899 13.30389,16.58972 0.87751,0.25429 2.00905,0.47801 3.53507,0.69892 0.93506,0.13536 4.27969,-0.033 5.51154,-0.27742 z m -4.71085,-1.47043 c -0.46244,-0.20112 -0.54745,-0.55777 -0.48925,-2.05256 0.0348,-0.89429 0.0809,-1.10092 0.29274,-1.31265 0.55039,-0.5501 2.02758,-0.35178 2.27758,0.30577 0.0643,0.16903 0.11685,0.75023 0.11685,1.29156 0,0.54132 -0.0526,1.12252 -0.11685,1.29155 -0.21627,0.56884 -1.29869,0.81659 -2.08107,0.47633 z m 7.89175,-2.16602 c -0.4262,-0.25989 -0.75512,-0.88866 -0.75451,-1.44232 10e-4,-0.98712 0.94096,-1.60926 1.916,-1.26829 1.21684,0.42552 1.27375,2.26566 0.0848,2.74139 -0.61114,0.24453 -0.80256,0.2398 -1.24627,-0.0308 z m -15.40082,-0.0611 c -1.00293,-0.43686 -1.10048,-2.11736 -0.15139,-2.60815 0.69347,-0.35861 1.6577,-0.1213 1.98383,0.48826 0.40263,0.75252 0.0665,1.81662 -0.67118,2.12485 -0.47145,0.19698 -0.69987,0.19601 -1.16126,-0.005 z m 18.63606,-4.92934 c -2.12606,-0.9588 -4.74998,-2.48551 -7.51796,-4.37429 -2.2035,-1.50359 -2.45881,-1.62262 -3.27782,-1.5282 -1.87855,0.21657 -3.42548,-0.89814 -3.96848,-2.85964 -0.26822,-0.96892 -0.11717,-1.99503 0.416,-2.8259 0.19949,-0.31088 0.36271,-0.65872 0.36271,-0.77298 0,-0.11425 -0.37663,-1.76138 -0.83695,-3.66028 -0.51433,-2.121671 -0.80904,-3.563731 -0.76455,-3.740991 0.0876,-0.34898 0.5474,-0.64581 1.74035,-1.12349 1.11557,-0.4467 1.42497,-0.45848 1.60601,-0.0611 0.075,0.16456 0.50715,1.79175 0.96038,3.615981 0.45324,1.82423 0.85573,3.43345 0.89442,3.57605 0.047,0.17322 0.31202,0.37235 0.79855,0.60003 0.93454,0.43732 1.53318,0.9679 1.97465,1.75013 l 0.35236,0.62436 6.48577,1.9e-4 c 5.94237,1.6e-4 6.51955,0.0174 6.88898,0.20578 0.60856,0.31032 0.8903,0.76813 0.8903,1.44669 0,0.49489 -0.0547,0.63183 -0.38428,0.96152 l -0.38427,0.38444 -6.22063,0.0588 c -3.42134,0.0323 -6.26123,0.0995 -6.31086,0.14915 -0.13066,0.13084 0.56249,0.81315 2.95189,2.90577 2.32477,2.036 4.50493,4.212 4.80879,4.79959 l 0.19494,0.37697 -0.2676,-5.7e-4 c -0.14719,-3.1e-4 -0.7739,-0.22889 -1.3927,-0.50796 z m 2.3882,-0.22848 c -0.69469,-0.40355 -0.8941,-1.48244 -0.4018,-2.17382 0.70535,-0.99058 2.33978,-0.65574 2.56124,0.52471 0.0946,0.50441 -0.10645,1.21686 -0.42474,1.50491 -0.30095,0.27235 -1.36223,0.36057 -1.7347,0.1442 z m -26.54551,-0.0797 c -0.5006,-0.20489 -0.70556,-0.58335 -0.70556,-1.30282 0,-0.55964 0.0512,-0.73819 0.28188,-0.98377 0.6453,-0.6869 1.8085,-0.6449 2.25128,0.0813 0.27698,0.45425 0.29646,1.14183 0.0461,1.62603 -0.2884,0.55769 -1.22155,0.84619 -1.87367,0.57928 z m -2.22976,-7.7086 c -1.01853,-0.36277 -1.28581,-1.52296 -0.52593,-2.28285 0.72107,-0.72106 2.57609,-0.64375 3.23109,0.13467 0.26585,0.31596 0.30514,0.45302 0.25567,0.89194 -0.0322,0.28524 -0.1625,0.65797 -0.28967,0.8283 -0.41091,0.55038 -1.73281,0.76215 -2.67116,0.42794 z m 28.91368,-7.46361 c -0.13462,-0.0545 -0.38598,-0.26683 -0.55856,-0.47194 -0.40446,-0.48066 -0.43886,-1.34008 -0.0723,-1.806091 0.56332,-0.71614 1.89398,-0.67317 2.35073,0.0759 0.26063,0.427451 0.29757,1.174341 0.0796,1.610491 -0.26969,0.53974 -1.18439,0.84047 -1.79951,0.59162 z M 422.28428,101.934 c -1.05015,-0.45742 -1.12961,-2.180511 -0.12001,-2.602351 0.5236,-0.21877 1.04603,-0.21911 1.4679,-9.4e-4 0.34952,0.18074 0.71558,0.811001 0.71558,1.232051 0,0.46136 -0.33492,1.05877 -0.72788,1.29835 -0.44838,0.27337 -0.82781,0.29408 -1.33559,0.0729 z m 5.49801,-5.303791 c -0.51369,-0.22318 -0.8944,-1.04054 -0.77675,-1.66766 0.16202,-0.863633 1.04126,-1.29457 1.96948,-0.965288 1.14676,0.406812 1.15493,2.166378 0.0123,2.643818 -0.49247,0.20576 -0.71089,0.2038 -1.20499,-0.0109 z m 15.4232,-0.0416 c -0.52892,-0.33201 -0.8105,-1.11301 -0.63554,-1.76276 0.37144,-1.379437 2.52581,-1.216026 2.76671,0.20986 0.20793,1.23075 -1.11209,2.1926 -2.13117,1.5529 z m -7.67511,-1.69356 c -0.55816,-0.28685 -0.77569,-0.739794 -0.77569,-1.615163 0,-0.949145 0.24043,-1.372617 0.92788,-1.634261 0.34831,-0.132569 0.52292,-0.137349 0.89919,-0.02462 0.79635,0.238594 1.17081,1.176262 0.93102,2.331333 -0.10773,0.518963 -0.20096,0.678567 -0.50438,0.863587 -0.42389,0.25847 -1.06252,0.29266 -1.47802,0.0791 z m -22.00212,16.652671 c 0.48453,-0.0989 0.91587,-0.2014 0.95852,-0.22776 0.0427,-0.0264 0.11335,-0.66981 0.15711,-1.42988 0.28328,-4.9205 1.59357,-9.03319 4.04086,-12.683331 3.75789,-5.60491 9.53448,-9.199288 16.42272,-10.218748 5.04866,-0.747202 10.52551,0.06194 15.67394,2.31564 0.60085,0.263019 1.01641,0.349634 1.05566,0.310381 0.1646,-0.164606 -1.61374,-1.591041 -2.99434,-2.408056 -4.92204,-2.912789 -12.77507,-4.102179 -18.85054,-2.855033 -10.34571,2.123721 -18.54336,10.218294 -20.86243,20.600107 -0.60613,2.71343 -0.88466,6.47573 -0.49061,6.62694 0.77767,0.29841 3.35715,0.28245 4.88911,-0.0303 z"
       id="path90" /><path
       style="fill:#af41ce;fill-opacity:1;stroke:#000000;stroke-width:0.675"
       d="m 1548.4712,422.2506 c -3.4079,-0.26879 -4.1625,-0.55832 -4.3725,-1.67776 -0.3229,-1.7215 0.096,-9.86572 0.7514,-14.59262 1.2858,-9.27912 3.1326,-16.43191 6.3206,-24.48022 13.9438,-35.2023 45.8926,-59.82344 82.9407,-63.91779 5.2175,-0.57662 15.8188,-0.56901 21.5136,0.0154 17.2444,1.76974 32.448,6.61311 43.2415,13.77534 2.7332,1.81366 7.5662,5.57088 8.4861,6.59721 1.1075,1.23552 0.3574,1.02455 -6.9579,-1.95708 -9.2368,-3.76475 -19.4763,-6.4185 -29.6447,-7.6829 -5.1981,-0.64637 -19.1695,-0.64933 -24,-0.005 -15.8765,2.11744 -29.5736,7.28703 -41.75,15.75741 -14.4632,10.06118 -26.1158,25.22822 -32.1305,41.82111 -3.1869,8.79171 -4.8931,17.16555 -5.7402,28.17312 -0.5634,7.31968 -0.2034,6.51906 -3.2144,7.14883 -4.6446,0.97144 -10.8777,1.38514 -15.4437,1.02501 z"
       id="path91"
       transform="scale(0.26458333)" /><path
       style="fill:#af41ce;fill-opacity:1;stroke:#000000;stroke-width:0.675"
       d="m 1643.75,477.96782 c -2.8263,-0.16923 -7.3048,-0.8991 -11.4782,-1.8706 -9.8135,-2.28443 -18.8977,-6.61558 -27.3968,-13.06229 -3.5095,-2.66202 -9.8012,-9.02242 -12.5232,-12.65993 -7.031,-9.39596 -11.1559,-19.20872 -12.9785,-30.875 -0.5608,-3.58901 -0.7751,-12.81982 -0.3864,-16.64079 1.3354,-13.12736 6.7769,-26.06252 15.6109,-37.10921 2.0232,-2.52994 8.0348,-8.50944 10.6522,-10.59535 15.5025,-12.35455 34.6073,-17.15605 54.75,-13.76 15.0703,2.54083 28.816,9.61722 39.5078,20.3388 5.4838,5.49904 9.6153,11.26539 13.0878,18.26655 5.0252,10.13177 7.2519,19.298 7.2271,29.75 -0.043,18.23134 -7.5053,34.9722 -21.7295,48.75 -1.6325,1.58125 -3.9245,3.63998 -5.0932,4.57495 -9.954,7.96297 -22.4652,13.15914 -34.746,14.43074 -4.0041,0.41461 -11.3753,0.64947 -14.504,0.46213 z m 7.7458,-6.54609 c 1.9239,-0.9385 2.1301,-1.57378 2.1241,-6.54673 -0.01,-5.25492 -0.1667,-5.74417 -2.2123,-6.74498 -1.2495,-0.61132 -1.6125,-0.67275 -3.5075,-0.59346 -2.4414,0.10215 -3.223,0.51154 -4.0115,2.10137 -0.4242,0.85508 -0.4882,1.54138 -0.5,5.35887 -0.015,4.73115 0.1261,5.38195 1.3618,6.29565 1.4174,1.0481 4.7316,1.11162 6.7454,0.12928 z m 28.6301,-8.05801 c 1.5581,-0.73707 2.4776,-1.93781 2.9057,-3.79428 0.9171,-3.97687 -2.371,-7.56269 -6.383,-6.96105 -4.3169,0.64736 -5.7984,5.56929 -2.901,9.63826 0.2782,0.39068 1.0957,1.00804 1.8166,1.37191 1.5355,0.77498 2.4986,0.72118 4.5617,-0.25484 z m -58.151,-0.54904 c 2.3638,-1.46143 3.3062,-5.25889 1.9443,-7.83435 -1.5559,-2.94226 -6.774,-3.38268 -8.9824,-0.75814 -1.9571,2.32583 -1.3765,6.74715 1.1152,8.4924 1.7337,1.21434 4.0571,1.2536 5.9229,0.10009 z m 71.7727,-16.50218 c 0,-0.10313 -0.3285,-0.75617 -0.7271,-1.45122 -1.3781,-2.40247 -9.4079,-10.40947 -18.6455,-18.59246 -6.2933,-5.57483 -10.625,-9.72245 -10.625,-10.17353 0,-0.39106 7.6941,-0.59998 29.6781,-0.80589 l 17.5531,-0.1644 1.2658,-1.24685 c 1.4585,-1.43677 1.8768,-2.58165 1.6724,-4.57678 -0.2789,-2.7228 -1.8853,-4.64382 -4.4533,-5.32572 -0.7761,-0.20608 -8.0751,-0.3232 -25.2801,-0.40565 l -24.189,-0.11591 -0.8973,-1.53955 c -2.1361,-3.66507 -3.7333,-5.15988 -7.7898,-7.2901 -1.2733,-0.66866 -2.4737,-1.39208 -2.6676,-1.6076 -0.194,-0.21551 -1.7228,-5.84809 -3.3975,-12.51684 -3.6855,-14.67623 -4.0601,-15.92658 -4.884,-16.30195 -1.086,-0.4948 -5.4145,0.85371 -9.1821,2.86059 -1.4795,0.78809 -2.9287,2.17972 -2.9287,2.81237 0,0.86636 1.212,6.51408 3.4076,15.87899 1.3056,5.56875 2.4366,10.64153 2.5132,11.27285 0.1256,1.03383 0.014,1.38148 -1.128,3.5 -0.6971,1.29368 -1.4419,3.02266 -1.6552,3.84217 -1.5523,5.96669 1.6793,13.48665 7.011,16.31468 2.3113,1.22595 4.0031,1.57027 7.7164,1.5705 3.0704,1.8e-4 3.3473,0.0418 4.76,0.71528 0.825,0.39329 4.875,2.95426 9,5.69104 13.1147,8.70109 22.556,14.02994 30.0674,16.9705 2.0377,0.79776 3.8106,1.11713 3.8052,0.68548 z m 8.0507,-2.60651 c 1.2323,-0.36921 2.0807,-1.36365 2.5705,-3.01322 1.0276,-3.46024 -0.351,-6.50907 -3.3494,-7.40741 -4.9735,-1.49011 -8.9731,3.51212 -6.5819,8.23205 1.002,1.97794 1.893,2.48259 4.383,2.48259 1.098,0 2.4381,-0.1323 2.9778,-0.29401 z m -101.7689,-0.21 c 2.4848,-0.69021 3.8339,-2.58589 3.8225,-5.37099 -0.01,-2.51253 -1.1021,-4.41553 -2.9307,-5.10835 -1.0319,-0.39098 -3.5473,-0.32505 -4.6167,0.12102 -1.2745,0.53157 -2.5099,1.78712 -2.8056,2.85124 -0.5752,2.07072 -0.1309,5.13688 0.9148,6.31295 1.1064,1.24426 3.5583,1.76563 5.6157,1.19413 z m -4.9542,-29.2488 c 1.9548,-0.60378 2.9684,-1.61731 3.5391,-3.53904 0.9228,-3.1074 0.1199,-4.8995 -2.8186,-6.29163 -1.5608,-0.73947 -1.8516,-0.79152 -4.4207,-0.79152 -2.4473,0 -2.9043,0.0724 -4.1517,0.6573 -2.1929,1.02825 -3.2766,2.75353 -3.254,5.18015 0.022,2.36807 1.4681,4.10105 4.1117,4.92768 1.6449,0.51432 5.0945,0.44382 6.9942,-0.14294 z m 106.5747,-28.5957 c 1.8769,-0.87396 2.4544,-1.82679 2.5649,-4.23153 0.1088,-2.37021 -0.3607,-3.80727 -1.5992,-4.89467 -1.9728,-1.73214 -5.5337,-1.70995 -7.5347,0.0469 -1.141,1.00187 -1.5809,2.04731 -1.5809,3.75743 0,2.31717 0.7821,3.89717 2.5704,5.19257 0.8692,0.62964 1.2271,0.72744 2.6546,0.72533 1.2083,-0.002 1.9913,-0.16136 2.9249,-0.59607 z m -101.7749,0.0721 c 1.4552,-0.39811 3.2171,-2.30393 3.7796,-4.08835 0.3803,-1.20649 0.3998,-1.57395 0.1367,-2.58342 -0.7003,-2.68652 -2.6727,-4.30187 -5.2528,-4.30187 -1.8965,0 -3.2254,0.45982 -4.3079,1.49066 -2.4568,2.33951 -1.6767,7.34989 1.3928,8.946 1.5996,0.83179 2.6767,0.96783 4.2516,0.53698 z m 20.8889,-20.10355 c 3.0948,-1.0919 4.5705,-3.98195 3.65,-7.14827 -0.6775,-2.33039 -2.7162,-3.72182 -5.4534,-3.72182 -2.1687,0 -3.8002,0.9798 -4.7649,2.86151 -0.4055,0.79094 -0.4825,1.31133 -0.3882,2.625 0.1897,2.64133 1.4978,4.60447 3.575,5.3649 1.3007,0.47617 2.0728,0.48043 3.3815,0.0187 z m 58.3733,0.10075 c 0.6474,-0.16301 1.5697,-0.68499 2.2168,-1.25459 1.4488,-1.27531 1.9888,-2.67408 1.8533,-4.80124 -0.1372,-2.15513 -0.9367,-3.37354 -2.8175,-4.29371 -1.8613,-0.91064 -4.2892,-0.83524 -5.8246,0.1809 -2.1204,1.40317 -2.7529,4.82587 -1.3777,7.45526 0.7624,1.45783 1.481,2.09552 2.9519,2.61951 1.2184,0.43401 1.5996,0.44594 2.9978,0.0939 z m -27.6035,-7.13252 c 1.1897,-0.69484 1.8589,-1.81935 2.2193,-3.72929 1.0838,-5.74415 -2.2458,-10.04936 -6.74,-8.71473 -1.566,0.46504 -3.1189,1.8022 -3.5533,3.05969 -0.424,1.22717 -0.4245,5.41738 -7e-4,6.61486 0.4592,1.29775 1.4533,2.41208 2.6557,2.97694 1.3262,0.62305 4.1843,0.51363 5.419,-0.20747 z"
       id="path92"
       transform="scale(0.26458333)" /><path
       style="fill:#af41ce;fill-opacity:1;stroke:#000000;stroke-width:0.675"
       d="m 1648.0994,503.72498 c -16.2592,-0.71408 -32.6984,-4.94469 -47.4744,-12.21747 -7.4479,-3.66591 -11.9839,-6.47304 -18.625,-11.52619 -4.9558,-3.77085 -6.8308,-5.45424 -6.0926,-5.46997 0.528,-0.0113 1.2661,0.34453 6.3549,3.0634 7.7874,4.16065 20.9878,8.47091 32.2541,10.53173 9.0653,1.65821 16.8637,2.26424 26.6086,2.06781 13.124,-0.26454 23.1161,-1.9586 34.5,-5.84916 14.522,-4.96302 25.8952,-12.32479 35.9489,-23.26929 5.0093,-5.45314 8.4002,-10.48048 11.9255,-17.68084 5.6204,-11.47954 7.2799,-20.38098 7.3475,-39.41126 0.032,-9.02013 -0.078,-8.56086 2.2534,-9.43304 2.301,-0.86089 5.5965,-1.09981 13.3296,-0.96635 7.4884,0.12923 10.7283,0.48595 12.5701,1.384 1.4115,0.68825 1.7264,2.01233 1.7364,7.30165 0.031,16.33318 -5.0999,33.93971 -14.4104,49.45012 -10.4615,17.42779 -25.4738,31.35383 -43.5806,40.42719 -13.5117,6.77073 -29.1275,10.7826 -44.7454,11.49562 -1.7188,0.0785 -3.6313,0.17825 -4.25,0.22174 -0.6188,0.0435 -3.1615,-0.0104 -5.6506,-0.11969 z"
       id="path93"
       transform="scale(0.26458333)" /></g></svg>
