<?xml version="1.0" encoding="UTF-8" standalone="no"?>
<!-- Created with Inkscape (http://www.inkscape.org/) -->

<svg
   width="63.439762mm"
   height="61.479362mm"
   viewBox="0 0 63.439762 61.479362"
   version="1.1"
   id="svg1"
   xml:space="preserve"
   xmlns="http://www.w3.org/2000/svg"
   xmlns:svg="http://www.w3.org/2000/svg"><defs
     id="defs1" /><g
     id="layer1"
     transform="translate(-418.91216,-82.535363)"><path
       style="fill:#000000"
       d="m 449.9156,143.62611 c -1.04833,-0.56883 -2.07301,-1.25675 -3.08962,-2.07421 -0.42755,-0.34379 -0.83583,-0.62507 -0.9073,-0.62507 -0.0715,0 -0.56832,0.28401 -1.10413,0.63113 -0.5358,0.34712 -1.38746,0.85635 -1.89257,1.13163 -0.78446,0.4275 -0.99218,0.49218 -1.4243,0.44348 -1.17277,-0.13219 -5.53548,-2.37115 -5.81479,-2.98418 -0.16259,-0.35685 -0.3282,-1.445 -0.42912,-2.81952 -0.0432,-0.58807 -0.11834,-1.1337 -0.16704,-1.21249 -0.0688,-0.11126 -0.32251,-0.0992 -1.13551,0.0538 -1.2616,0.23746 -3.71282,0.18008 -4.80992,-0.11258 -1.85411,-0.49461 -3.65486,-1.78504 -4.71384,-3.37796 -1.02528,-1.54225 -1.5144,-3.01909 -2.34749,-7.08803 -0.85206,-4.16152 -1.49987,-5.93286 -2.70483,-7.39595 -0.47849,-0.58098 -0.53711,-0.70512 -0.39548,-0.83752 0.33308,-0.31139 1.31854,-0.53827 2.33797,-0.53827 1.76706,0 3.06396,0.48338 5.33783,1.98949 0.70242,0.46526 1.29816,0.82488 1.32387,0.79917 0.0257,-0.0257 -0.43925,-0.8092 -1.03325,-1.74108 -0.594,-0.93189 -1.25057,-2.06476 -1.45905,-2.51749 l -0.37905,-0.82315 0.26822,-1.37068 c 0.58191,-2.97372 0.70562,-4.40804 0.70335,-8.15432 -0.002,-3.75735 -0.10769,-4.94285 -0.70112,-7.884356 -0.62224,-3.084303 -1.49264,-5.633733 -2.89657,-8.484108 -0.51595,-1.047517 -0.9838,-2.063976 -1.03968,-2.258797 l -0.10159,-0.35422 0.37258,0.06545 c 2.12491,0.373264 4.44887,1.42068 6.48738,2.923878 1.30707,0.963831 1.98917,1.644372 4.04904,4.039814 1.06281,1.235943 1.95212,2.227429 1.97624,2.203303 0.0357,-0.03567 -1.50605,-5.409788 -1.6879,-5.883692 -0.0289,-0.07527 0.33084,-0.577605 0.79939,-1.116294 0.46855,-0.538689 1.33008,-1.620472 1.91452,-2.403964 0.58443,-0.783491 1.1949,-1.490161 1.35658,-1.570378 0.35152,-0.174394 2.55267,-0.20127 2.98615,-0.03646 0.41321,0.157101 0.68858,0.761688 1.18262,2.596533 0.57828,2.147684 1.32306,3.6594 2.39335,4.857878 0.51723,0.579183 0.84978,1.061268 0.89229,1.293519 0.0373,0.203629 0.17539,1.666693 0.30695,3.251253 0.27488,3.310895 0.56369,5.653431 0.71692,5.814951 0.063,0.0664 0.10598,-1.85185 0.10598,-4.730676 v -4.842392 l 0.461,-1.148951 c 0.25355,-0.631923 0.60263,-1.810409 0.77573,-2.618858 0.58079,-2.712415 1.08298,-4.639842 1.38455,-5.313942 0.26434,-0.590902 0.35192,-0.682435 0.74989,-0.78379 0.24783,-0.06311 1.36723,-0.09752 2.48757,-0.07645 2.35662,0.04432 2.31021,0.02466 2.77011,1.173477 0.35211,0.879555 0.62105,1.910332 1.1904,4.562433 0.23288,1.084808 0.6059,2.476496 0.82894,3.092639 l 0.40552,1.120261 v 4.756667 c 0,2.729943 0.045,4.756662 0.10552,4.756662 0.19616,0 0.49277,-2.332329 0.65801,-5.174071 0.081,-1.392773 0.27074,-3.433525 0.36163,-3.889277 0.0332,-0.166487 0.31849,-0.573327 0.63397,-0.904089 1.11112,-1.164942 1.87449,-2.728337 2.41078,-4.937296 0.44188,-1.820085 0.62119,-2.31201 0.95809,-2.628512 0.2724,-0.255909 0.41892,-0.284723 1.64598,-0.323675 0.86693,-0.02752 1.46705,0.007 1.68392,0.09681 0.30736,0.127315 0.86888,0.830076 1.97603,2.473075 0.19612,0.291042 0.76859,1.00007 1.27215,1.575618 l 0.91556,1.046452 -0.13173,0.423456 c -0.0725,0.232901 -0.50461,1.534588 -0.96036,2.892638 -0.45574,1.358051 -0.82863,2.510573 -0.82863,2.56116 0,0.224493 0.77062,-0.514197 1.61195,-1.545171 2.79117,-3.420301 4.52762,-4.921189 7.26629,-6.280589 1.66687,-0.827383 3.85946,-1.506052 4.09729,-1.268225 0.0892,0.08919 -0.20404,0.782831 -1.00977,2.388647 -1.56024,3.109552 -2.28755,5.171291 -2.95536,8.377774 -0.50202,2.410435 -0.6807,4.101595 -0.74634,7.063825 -0.0824,3.71775 0.18166,6.7876 0.81115,9.43103 l 0.25962,1.09022 -0.6148,1.21569 c -0.33814,0.66862 -0.99611,1.79198 -1.46215,2.49635 -0.46604,0.70436 -0.89005,1.34681 -0.94225,1.42765 -0.19493,0.30191 0.16434,0.12399 1.40487,-0.69572 2.25864,-1.49245 3.84208,-2.0971 5.49183,-2.0971 0.98128,0 2.1923,0.36062 2.1923,0.65282 0,0.0911 -0.21125,0.44444 -0.46945,0.7853 -1.01523,1.34025 -1.67568,3.12692 -2.24924,6.08475 -0.72576,3.7427 -0.94824,4.76293 -1.24149,5.69303 -1.0087,3.19933 -2.98937,5.21782 -5.9176,6.03059 -1.07305,0.29784 -4.19971,0.29666 -5.27527,-0.002 -0.41138,-0.11422 -0.76841,-0.18723 -0.7934,-0.16224 -0.025,0.025 -0.12695,0.85824 -0.22658,1.85166 -0.23665,2.35976 -0.36149,2.64582 -1.42445,3.26392 -1.979,1.15077 -4.23529,2.1429 -4.87335,2.1429 -0.49976,0 -1.42414,-0.45469 -2.86718,-1.41034 -1.4751,-0.97687 -1.21442,-0.98959 -2.67176,0.13034 -1.02763,0.78971 -2.5856,1.7906 -3.16228,2.03155 -0.40538,0.16938 -0.43749,0.1621 -1.26429,-0.28653 z m 1.69946,-2.96386 c 1.53721,-1.59899 1.68465,-1.94041 2.15026,-4.97926 0.12974,-0.84682 0.39711,-2.04291 0.59413,-2.65799 0.19703,-0.61508 0.35823,-1.19826 0.35823,-1.29596 0,-0.0977 -0.21324,-0.32541 -0.47388,-0.50603 -0.89763,-0.62206 -1.55325,-1.72919 -2.04735,-3.45729 -0.36277,-1.26879 -0.67751,-1.94716 -0.95236,-2.05263 -0.29576,-0.11349 -0.9855,-0.0866 -1.23746,0.0482 -0.31976,0.17113 -0.64877,0.86914 -1.00784,2.13817 -0.52324,1.84929 -0.88275,2.45824 -1.98102,3.35553 l -0.46797,0.38234 0.38563,1.14375 c 0.21209,0.62907 0.51666,1.91222 0.67682,2.85145 0.45032,2.64083 0.70403,3.31513 1.69617,4.5079 0.61493,0.73928 1.13174,1.13915 1.47227,1.13915 0.1368,0 0.49728,-0.26673 0.83437,-0.61736 z m -9.85208,-0.0929 c 0.56491,-0.34441 1.45864,-1.27046 1.81812,-1.88385 0.28483,-0.48603 0.78154,-2.14015 0.95947,-3.19517 0.0697,-0.41363 0.0374,-0.47438 -0.56263,-1.05833 -0.79403,-0.77268 -1.18575,-1.54053 -1.5623,-3.06241 -0.33164,-1.34036 -0.54223,-1.77006 -0.961,-1.96086 -0.23014,-0.10486 -0.34792,-0.0931 -0.57835,0.0579 -0.33136,0.21712 -0.5189,0.61681 -0.79764,1.70001 -0.34284,1.33229 -0.83932,2.21643 -1.7339,3.08779 l -0.81592,0.79473 0.0772,0.49879 c 0.38082,2.45909 1.41695,4.24841 2.89245,4.99507 0.64075,0.32424 0.77132,0.32696 1.26446,0.0263 z m 19.19349,-0.13102 c 0.69312,-0.50209 1.61712,-1.4787 1.87423,-1.98093 0.29909,-0.58425 0.82189,-2.34907 0.8945,-3.01957 l 0.0614,-0.56701 -0.53676,-0.35277 c -0.93875,-0.61699 -1.49728,-1.57353 -2.06146,-3.53049 -0.20468,-0.70994 -0.45797,-1.35696 -0.56287,-1.4378 -0.10491,-0.0809 -0.36461,-0.14699 -0.57713,-0.14699 -0.52047,0 -0.65931,0.23981 -1.1642,2.01082 -0.48408,1.69799 -0.80246,2.30541 -1.61458,3.08038 l -0.59092,0.56389 0.2608,1.2588 c 0.42081,2.03117 1.05799,3.13536 2.36431,4.09715 0.66297,0.48812 1.00568,0.4932 1.65268,0.0245 z m -27.53342,-6.63065 c 1.42573,-0.33607 3.34052,-1.47539 3.79936,-2.26066 l -0.11179,-0.18105 -0.53497,0.0365 c -1.01413,0.0691 -2.43667,0.40729 -2.43667,0.2899 0,-0.0445 0.37042,-0.67798 0.82315,-1.40763 0.45273,-0.72965 0.81945,-1.3721 0.81493,-1.42767 -0.005,-0.0556 -0.51686,-0.47145 -1.13854,-0.92418 -0.68165,-0.49641 -2.32376,-1.99008 -4.13692,-3.76296 -3.03262,-2.96526 -4.24619,-3.99013 -5.79791,-4.89638 -0.93975,-0.54885 -2.20793,-1.03575 -2.70762,-1.03957 l -0.27214,0.028 0.22961,0.41727 c 0.84682,1.53892 1.68693,3.5638 2.25511,6.25554 0.7203,3.41243 1.11023,4.94576 1.40914,5.54117 0.81076,1.615 2.34788,2.82845 4.22906,3.33855 0.79311,0.21506 2.65101,0.21179 3.5762,-0.006 z m 37.8988,0.0539 c 1.05393,-0.21532 2.52495,-1.01274 3.33452,-1.80761 1.20265,-1.18082 1.47591,-1.89256 2.28745,-5.9579 0.80054,-4.01025 1.22856,-5.29821 2.34715,-7.06281 l 0.37305,-0.70644 -0.29664,-0.0376 c -0.77,-0.0976 -2.70493,0.87677 -4.54136,2.27054 -0.48507,0.36815 -2.20486,1.96716 -3.82176,3.55335 -1.92626,1.88969 -3.37565,3.20291 -4.20394,3.809 -0.69526,0.50875 -1.20211,1.00203 -1.20211,1.08859 0,0.0866 0.28725,0.69111 0.71412,1.35103 0.9771,1.51056 0.9833,1.52656 0.55919,1.44503 -0.18468,-0.0355 -0.95248,-0.15875 -1.70622,-0.27388 -1.5707,-0.23991 -1.58529,-0.22132 -0.52578,0.66999 0.70176,0.59037 2.20414,1.35875 3.13094,1.60129 0.77622,0.20314 2.68693,0.23404 3.55139,0.0574 z m -32.89121,-5.13496 c -0.40258,-0.98128 -1.44818,-4.34452 -1.87119,-6.01878 -1.4932,-5.91011 -2.09496,-10.67227 -2.47505,-19.58701 -0.0965,-2.26366 -0.20724,-4.482578 -0.24607,-4.930936 l -0.0706,-0.815196 -0.70905,-0.772304 c -0.38998,-0.424767 -1.3515,-1.565801 -2.13672,-2.535631 -1.78408,-2.203535 -2.71771,-3.200195 -3.82562,-4.08387 -0.82237,-0.655919 -2.51804,-1.578003 -2.64105,-1.454998 -0.0314,0.03136 -0.005,0.401405 0.25123,0.972385 3.31297,7.37885 4.46063,17.3208 2.67762,23.19567 -0.1654,0.54498 -0.29998,1.15352 -0.29907,1.35232 0.003,0.74384 1.55094,3.18279 4.44502,7.00543 2.68888,3.55162 4.04713,5.1973 5.45789,6.61289 1.20102,1.20513 1.46678,1.06003 1.44265,1.06003 z m 25.61649,-0.6611 c 2.6845,-2.72444 8.83603,-10.77884 10.00001,-13.09332 0.36734,-0.73043 0.38116,-1.01621 0.0855,-1.76643 -0.63529,-1.61174 -0.99462,-4.37961 -0.98865,-7.61549 0.0108,-5.857211 1.14495,-11.178124 3.4316,-16.099394 0.2677,-0.576146 0.3541,-0.969699 0.32776,-0.99604 -0.0263,-0.02634 -0.2729,0.0217 -0.68367,0.228234 -1.9456,0.978252 -3.45649,2.367251 -5.62013,5.166732 -0.67482,0.873125 -1.6395,2.013595 -2.14374,2.534377 l -0.91679,0.946877 -0.0619,1.346183 c -0.034,0.74039 -0.11651,2.827841 -0.18328,4.638771 -0.38018,10.31183 -1.34627,16.84148 -3.40135,22.98935 -0.37835,1.13183 -0.82556,2.37166 -0.76938,2.26366 0.23638,-0.45445 0.19389,-0.54351 0.92405,-0.54351 z m -22.39844,-1.92594 c 0.557,-0.81357 1.01127,-1.24797 1.98589,-1.89904 0.54676,-0.36525 0.73496,-0.56034 0.73496,-0.76185 0,-0.14899 -0.13127,-2.01233 -0.2917,-4.14076 -0.38937,-5.16567 -1.19389,-17.25351 -1.35327,-20.332841 -0.1949,-3.765581 -0.33872,-5.454393 -0.48873,-5.738749 -0.075,-0.14216 -0.38725,-0.534386 -0.6939,-0.871613 -0.91857,-1.010147 -2.02149,-3.524167 -2.43905,-5.559615 -0.22718,-1.107417 -0.25384,-1.129846 -1.38249,-1.162869 l -0.47552,-0.01391 -0.71157,1.089301 c -0.39136,0.599116 -1.03727,1.466792 -1.43536,1.928171 -0.39808,0.461378 -0.72378,0.887425 -0.72378,0.946771 0,0.05935 0.34505,1.017954 0.76677,2.130239 0.42173,1.112286 0.92973,2.643449 1.12889,3.402586 0.3463,1.319992 0.3666,1.529123 0.46498,4.790431 0.40555,13.444158 0.91544,17.353988 3.16723,24.286028 0.57218,1.76142 0.93065,2.58388 1.12621,2.58388 0.0866,0 0.36584,-0.30427 0.62044,-0.67616 z m 19.27997,-0.23518 c 1.79951,-4.70657 2.96832,-10.42842 3.42897,-16.78635 0.0656,-0.90546 0.1195,-3.61536 0.11976,-6.022 2.6e-4,-2.40665 0.0588,-4.920189 0.12996,-5.585653 0.17201,-1.607329 0.63845,-3.380873 1.50732,-5.731303 0.39328,-1.063881 0.71505,-1.994754 0.71505,-2.068607 0,-0.07385 -0.66222,-1.015801 -1.47159,-2.093217 l -1.4716,-1.95894 -0.55688,0.0018 c -0.30628,9.91e-4 -0.62652,0.04596 -0.71164,0.09994 -0.0851,0.05398 -0.25341,0.549503 -0.37396,1.101167 -0.45903,2.100557 -1.40329,4.266827 -2.48007,5.689622 -0.29924,0.395407 -0.57824,0.774193 -0.61999,0.841747 -0.11232,0.18173 -0.3841,4.077648 -0.71967,10.316194 -0.34218,6.3614 -0.52451,9.1598 -1.00751,15.46342 -0.1908,2.49003 -0.34699,4.56344 -0.34709,4.60759 -1e-4,0.0442 0.10467,0.11355 0.23282,0.15422 0.65901,0.20916 2.81829,2.30102 2.82286,2.73472 8.5e-4,0.0808 0.10353,0.14699 0.22818,0.14699 0.17432,0 0.30708,-0.21038 0.57508,-0.91134 z m -8.25969,-2.51294 1.81353,-1.30762 V 107.30185 92.519874 l -0.2923,-0.859403 c -0.16077,-0.472672 -0.53512,-1.941435 -0.83189,-3.263917 -0.29678,-1.322483 -0.68118,-2.836791 -0.85423,-3.365129 l -0.31464,-0.960615 h -1.46508 -1.46508 l -0.20262,0.665545 c -0.11144,0.366049 -0.45101,1.768341 -0.7546,3.116204 -0.30359,1.347862 -0.70406,2.918452 -0.88993,3.490198 l -0.33796,1.03954 v 14.865643 14.86563 l 0.26458,0.2267 c 0.64699,0.55436 3.21651,2.35878 3.35892,2.35878 0.0868,0 0.97386,-0.58842 1.9713,-1.30761 z"
       id="path24" /><path
       style="fill:#dd0008;fill-opacity:1;stroke:#000000;stroke-width:0.954594"
       d="m 1654.0923,484.63703 c -8.5834,-7.86441 -30.5173,-36.12909 -37.3851,-48.17537 -2.6566,-4.65982 -2.6672,-4.77319 -1.0342,-11.13693 2.3606,-9.19984 2.7117,-12.41592 2.7014,-24.74874 -0.01,-8.04693 -0.1646,-12.03945 -0.6221,-15.73313 -2.0159,-16.27605 -5.7534,-30.81945 -11.4011,-44.36336 -1.3048,-3.12915 -2.288,-5.77373 -2.1849,-5.87683 0.3007,-0.30077 4.1058,1.74639 7.6402,4.11053 4.4643,2.98613 8.5747,7.16027 16.8377,17.09898 3.8621,4.64528 7.8485,9.33877 8.8588,10.42997 l 1.8368,1.98401 0.4025,7.24769 c 0.2214,3.98623 0.6423,12.25931 0.9354,18.38463 1.8558,38.77837 5.3797,60.29354 14.2969,87.28793 0.9884,2.99218 1.7378,5.49967 1.6653,5.5722 -0.072,0.0725 -1.219,-0.86418 -2.5476,-2.08158 z"
       id="path25"
       transform="scale(0.26458333)" /><path
       style="fill:#dd0008;fill-opacity:1;stroke:#000000;stroke-width:0.954594"
       d="m 1665.8088,477.37992 c -1.8149,-3.58139 -5.9558,-16.75246 -8.1927,-26.0587 -3.8823,-16.15095 -5.3086,-31.1275 -6.7016,-70.36744 -0.2899,-8.16709 -0.6839,-15.80384 -0.8756,-16.97057 -0.5673,-3.45293 -2.3763,-9.39997 -5.3495,-17.58595 l -2.7918,-7.68645 3.0391,-3.80403 c 1.6715,-2.09222 4.0988,-5.44478 5.3939,-7.45015 l 2.3547,-3.64611 2.4749,0.20152 c 3.0944,0.25196 3.4164,0.60131 4.3943,4.76654 1.9838,8.44976 5.6062,16.50322 9.419,20.94055 0.8931,1.03934 1.8475,2.31544 2.1209,2.83577 0.7047,1.34117 1.0811,5.43692 2.1066,22.9188 1.0916,18.60988 3.2717,51.39911 4.9411,74.31613 0.6757,9.27503 1.1408,17.09226 1.0336,17.37161 -0.1072,0.27935 -1.418,1.39255 -2.9128,2.47377 -3.4886,2.5233 -4.4132,3.39589 -6.8764,6.49001 -1.1123,1.39726 -2.1773,2.63616 -2.3665,2.75313 -0.1893,0.11697 -0.7343,-0.55733 -1.2112,-1.49843 z"
       id="path26"
       transform="scale(0.26458333)" /><path
       style="fill:#dd0008;fill-opacity:1;stroke:#000000;stroke-width:0.954594"
       d="m 1698.2045,467.62271 c -2.577,-1.81097 -5.4742,-3.91505 -6.4382,-4.67572 l -1.7527,-1.38304 -0.014,-56.13478 -0.014,-56.13478 1.2267,-4.14607 c 0.6746,-2.28034 2.267,-8.5213 3.5387,-13.86879 1.2716,-5.3475 2.5537,-10.55799 2.849,-11.57888 l 0.5371,-1.85615 h 5.4244 5.4244 l 1.1,3.8007 c 0.605,2.09038 2.2066,8.33502 3.5592,13.87697 1.3525,5.54195 2.7873,11.01599 3.1884,12.16455 0.7247,2.0753 0.7293,2.43478 0.7293,57.8379 v 55.74963 l -4.6846,3.3585 c -6.4842,4.64868 -8.9874,6.30186 -9.5266,6.2915 -0.2537,-0.005 -2.5697,-1.49057 -5.1467,-3.30154 z"
       id="path27"
       transform="scale(0.26458333)" /><path
       style="fill:#dd0008;fill-opacity:1;stroke:#000000;stroke-width:0.954594"
       d="m 1738.6534,477.53512 c -1.1678,-1.99273 -7.1047,-7.62549 -9.2199,-8.74759 -1.3081,-0.69397 -1.6181,-1.04063 -1.6181,-1.80965 0,-0.52318 0.6307,-9.35344 1.4015,-19.62281 1.567,-20.87611 2.4208,-34.10964 3.725,-57.73923 1.4276,-25.866 2.2076,-35.68058 2.9252,-36.80739 0.3357,-0.52711 1.6807,-2.53379 2.9888,-4.45928 3.6461,-5.36684 6.521,-12.14998 8.3872,-19.78935 0.4367,-1.78751 0.9957,-3.5259 1.2422,-3.86309 0.3105,-0.42467 1.0876,-0.65804 2.5287,-0.75945 l 2.0805,-0.14639 4.3926,5.92161 c 2.4159,3.25688 4.915,6.69796 5.5536,7.64685 l 1.161,1.72524 -2.3138,6.61568 c -5.9839,17.10908 -6.4579,20.1064 -6.4965,41.08714 -0.026,14.34054 -0.473,26.6337 -1.2264,33.76435 -1.9407,18.36743 -5.1765,34.17091 -9.948,48.58528 -2.2302,6.73736 -3.4554,9.57084 -4.2498,9.82872 -0.2197,0.0713 -0.8109,-0.57248 -1.3138,-1.43064 z"
       id="path28"
       transform="scale(0.26458333)" /><path
       style="fill:#dd0008;fill-opacity:1;stroke:#000000;stroke-width:0.954594"
       d="m 1753.1077,478.6229 c 8.8479,-26.91196 11.7307,-47.79777 13.6508,-98.89862 l 0.4314,-11.48255 3.2857,-3.47118 c 1.8071,-1.90916 5.4753,-6.2084 8.1516,-9.55388 5.7573,-7.19687 10.905,-12.62231 14.6738,-15.4656 2.9733,-2.2431 8.6695,-5.49854 9.0156,-5.15248 0.1186,0.11865 -0.5153,1.84666 -1.4087,3.84002 -9.5329,21.2697 -13.478,42.31967 -12.5859,67.15477 0.3358,9.34941 1.2112,15.21303 3.2064,21.47664 1.3293,4.17306 1.2201,5.14758 -1.014,9.05629 -4.0854,7.14753 -17.9016,25.73039 -28.9014,38.87267 -3.6522,4.36356 -10.3708,11.49048 -10.8321,11.49048 -0.1427,0 0.9043,-3.53995 2.3268,-7.86656 z"
       id="path29"
       transform="scale(0.26458333)" /><path
       style="fill:#dd0008;fill-opacity:1;stroke:#000000;stroke-width:0.954594"
       d="m 1770.4186,505.94348 c -3.7808,-0.54352 -8.5373,-2.56555 -12.5511,-5.3356 -2.2192,-1.53152 -4.37,-3.50231 -4.1081,-3.76424 0.1502,-0.15017 7.8625,0.93228 10.914,1.5318 1.5542,0.30536 1.2468,-0.56937 -2.0364,-5.7959 -3.4517,-5.49462 -3.4803,-4.87128 0.357,-7.78949 3.8228,-2.90725 8.7242,-7.28236 15.9099,-14.20165 10.1594,-9.78269 15.1854,-14.32041 18.208,-16.43888 5.4693,-3.83337 11.8259,-6.90448 14.2908,-6.90448 0.696,0 1.2655,0.0767 1.2655,0.17055 0,0.0938 -0.633,1.20487 -1.4068,2.46903 -4.243,6.93232 -5.515,10.77653 -8.8362,26.70535 -3.2111,15.40094 -4.2705,18.08248 -8.8377,22.37109 -2.907,2.72968 -7.4176,5.37174 -10.9713,6.42641 -2.2952,0.68117 -9.1526,0.99375 -12.1976,0.55601 z"
       id="path30"
       transform="scale(0.26458333)" /><path
       style="fill:#dd0008;fill-opacity:1;stroke:#000000;stroke-width:0.954594"
       d="m 1735.5252,530.04048 c -4.4584,-3.40686 -6.9096,-8.06681 -8.6286,-16.40339 l -0.6354,-3.08119 2.3074,-2.39889 c 3.0994,-3.22243 3.8284,-4.60692 5.9461,-11.29317 2.0313,-6.41349 2.6899,-7.54866 4.3749,-7.54054 0.6179,0.003 1.3001,0.12231 1.516,0.26517 0.6467,0.42787 1.3898,2.15903 2.7613,6.43264 1.8562,5.7845 3.1508,8.29402 5.4674,10.59836 1.0919,1.08613 2.4595,2.3061 3.039,2.71103 l 1.0538,0.73624 -0.435,2.53678 c -0.2393,1.39523 -0.996,4.27204 -1.6816,6.3929 -1.6623,5.14189 -3.7166,7.94138 -8.4149,11.46724 -2.4781,1.85973 -3.792,1.77637 -6.6704,-0.42318 z"
       id="path31"
       transform="scale(0.26458333)" /><path
       style="fill:#dd0008;fill-opacity:1;stroke:#000000;stroke-width:0.954594"
       d="m 1702.5363,533.31284 c -2.6029,-1.34589 -6.8426,-6.74749 -8.2514,-10.51272 -0.3932,-1.05109 -1.1276,-4.04273 -1.6319,-6.6481 -1.4009,-7.2382 -2.6365,-12.45415 -3.6998,-15.61839 l -0.9645,-2.87049 2.2023,-1.86835 c 3.3086,-2.8069 4.7225,-5.1984 6.6828,-11.30339 1.8833,-5.86546 3.0324,-8.40596 4.0478,-8.9494 0.3764,-0.20143 1.559,-0.36624 2.6281,-0.36624 1.7484,0 2.0183,0.10471 2.6856,1.04191 0.4081,0.57306 1.6222,3.6339 2.6981,6.80188 2.4219,7.13151 3.451,8.97823 6.8065,12.21418 l 2.6515,2.55709 -0.3749,1.50878 c -0.2062,0.82983 -0.8635,3.33841 -1.4607,5.57464 -0.5971,2.23623 -1.4877,6.45235 -1.9789,9.36916 -1.0975,6.51596 -1.9064,9.4889 -3.1676,11.64097 -0.9936,1.69541 -6.8901,7.98299 -7.4828,7.97907 -0.1812,-10e-4 -0.8068,-0.24897 -1.3902,-0.5506 z"
       id="path32"
       transform="scale(0.26458333)" /><path
       style="fill:#dd0008;fill-opacity:1;stroke:#000000;stroke-width:0.954594"
       d="m 1665.2246,531.00416 c -5.3132,-2.51275 -9.5018,-9.3822 -10.9406,-17.94312 l -0.4364,-2.59657 2.5766,-2.52995 c 4.1218,-4.04731 5.3628,-6.30742 7.5834,-13.81076 0.6421,-2.17002 1.2444,-3.46158 1.9371,-4.15425 1.2361,-1.23609 1.769,-1.25505 3.1282,-0.11133 1.0962,0.92239 1.733,2.51528 3.2467,8.12177 1.1539,4.27365 2.5449,6.87595 5.2925,9.90094 1.3605,1.4978 2.4725,2.98526 2.4711,3.30546 0,0.95286 -1.362,6.39203 -2.3217,9.29888 -1.1393,3.45116 -2.3663,5.28374 -5.5845,8.34072 -3.4675,3.29386 -4.1448,3.50603 -6.9524,2.17821 z"
       id="path33"
       transform="scale(0.26458333)" /><path
       style="fill:#dd0008;fill-opacity:1;stroke:#000000;stroke-width:0.954594"
       d="m 1626.8759,505.94124 c -8.525,-1.21475 -16.4718,-7.74723 -19.0563,-15.66487 -0.4878,-1.49405 -2.023,-7.77005 -3.4118,-13.94667 -3.3341,-14.82875 -5.5852,-21.53755 -9.196,-27.40579 -0.5942,-0.96573 -1.0055,-1.83083 -0.9138,-1.92244 0.4155,-0.41559 4.9995,1.13595 8.5363,2.8893 6.368,3.15693 10.3453,6.37734 23.8472,19.30911 9.9037,9.4855 12.3816,11.72035 16.7099,15.07077 l 3.4341,2.65818 -0.5228,1.01088 c -0.2875,0.55598 -1.6339,2.85082 -2.9921,5.09964 -1.3581,2.24882 -2.4693,4.3281 -2.4693,4.62062 0,0.64775 2.5038,0.45363 7.9099,-0.61324 1.9198,-0.37887 3.5646,-0.61481 3.6551,-0.52432 0.393,0.39301 -1.6526,2.48856 -4.0409,4.13961 -2.9973,2.07203 -6.9609,3.98242 -9.7932,4.72013 -2.4928,0.64931 -8.9103,0.95607 -11.6963,0.55909 z"
       id="path34"
       transform="scale(0.26458333)" /></g></svg>
