<?xml version="1.0" encoding="UTF-8" standalone="no"?>
<!-- Created with Inkscape (http://www.inkscape.org/) -->

<svg
   width="80.600815mm"
   height="74.415977mm"
   viewBox="0 0 80.600815 74.415977"
   version="1.1"
   id="svg1"
   xml:space="preserve"
   xmlns="http://www.w3.org/2000/svg"
   xmlns:svg="http://www.w3.org/2000/svg"><defs
     id="defs1" /><g
     id="layer1"
     transform="translate(-234.56802,-60.852267)"><path
       style="fill:#000000"
       d="m 297.11594,135.17083 c -3.7382,-0.23484 -7.7393,-0.93112 -10.08203,-1.75453 -0.89518,-0.31463 -1.51732,-0.768 -1.86274,-1.35742 -0.26634,-0.45447 -0.33501,-0.49746 -0.90391,-0.56579 -0.33862,-0.0407 -0.99303,-0.0744 -1.45426,-0.075 l -0.83859,-0.001 -0.31475,0.41266 c -0.17311,0.22696 -0.53658,0.53123 -0.80771,0.67616 -0.46013,0.24595 -0.63387,0.26296 -2.60962,0.25553 -2.31863,-0.009 -3.72376,-0.20683 -6.28936,-0.88674 -3.11208,-0.82472 -5.97887,-2.26533 -6.7648,-3.39942 -0.92644,-1.33685 -1.5736,-5.5488 -1.58305,-10.30297 l -0.003,-1.54432 -0.74952,-0.55028 c -1.25656,-0.92253 -1.99463,-1.97571 -2.53424,-3.61618 -0.43171,-1.31247 -0.59144,-1.47374 -2.30636,-2.3287 -1.70995,-0.85248 -2.3063,-1.2398 -3.28222,-2.13174 -1.61802,-1.47878 -2.75995,-3.53638 -3.06344,-5.51991 -0.0736,-0.48116 -0.13967,-0.56153 -0.86294,-1.05012 -1.17195,-0.79167 -2.77371,-2.391225 -3.53652,-3.531649 -0.8667,-1.295721 -1.36847,-2.511761 -1.60605,-3.892238 -0.10427,-0.605912 -0.19795,-1.105933 -0.20818,-1.111158 -0.0102,-0.0052 -0.43953,-0.296266 -0.95402,-0.646759 -1.78649,-1.217043 -3.17803,-2.824621 -4.01719,-4.640872 -0.5601,-1.21225 -0.74686,-2.131158 -0.74888,-3.684573 l -0.002,-1.338185 -1.09154,-1.072463 c -2.01436,-1.979138 -3.4045,-4.520918 -3.89939,-7.12976 -0.22732,-1.198315 -0.22859,-1.940357 -0.005,-2.995281 0.24828,-1.172121 0.70001,-2.013739 1.51899,-2.830033 1.04826,-1.044834 2.06257,-1.455563 3.60866,-1.461273 1.10084,-0.0041 2.66895,0.291756 4.06123,0.766149 0.65682,0.223796 1.22567,0.406902 1.26413,0.406902 0.0384,0 0.0699,-0.519898 0.0699,-1.155329 0,-1.217244 0.23293,-2.154832 0.82368,-3.315444 0.59868,-1.176174 2.35098,-2.484866 3.76243,-2.809938 1.37147,-0.315864 3.05082,-0.07721 4.46379,0.63435 1.13003,0.569074 1.76482,1.106657 4.64963,3.937623 3.28086,3.219615 5.99786,5.56993 9.57628,8.283852 l 1.81517,1.376647 13.47187,-0.0363 c 10.75695,-0.02898 13.70726,-0.0046 14.63988,0.121153 2.22021,0.299291 3.40301,0.842648 3.85163,1.769374 0.34922,0.721392 0.4214,2.816417 0.17121,4.969046 -0.33798,2.907964 -0.85499,3.882026 -2.30907,4.350342 -0.63787,0.205442 -0.83912,0.326958 -0.93383,0.563853 -0.19115,0.478173 -3.51129,16.537364 -3.64774,17.643794 -0.49217,3.99077 0.49277,6.58786 2.9974,7.90353 1.08018,0.56742 2.11717,0.82663 5.57918,1.39459 1.58587,0.26017 3.30673,0.58379 3.82414,0.71916 1.27915,0.33465 2.68457,1.00671 3.4952,1.67138 2.15915,1.77037 3.50066,5.39461 3.66179,9.89267 0.1312,3.66279 -0.4061,5.11956 -2.3618,6.40346 -3.10885,2.04093 -8.95781,3.00496 -15.67251,2.58315 z m 5.15451,-6.05877 c 2.79176,-0.32599 5.94083,-1.17115 8.1778,-2.1948 l 0.80869,-0.37006 -0.0576,-1.41621 c -0.10917,-2.68466 -1.06204,-4.56425 -2.73572,-5.39641 -0.82714,-0.41126 -1.7166,-0.61775 -3.88056,-0.90088 -2.19772,-0.28756 -3.3933,-0.55068 -4.74697,-1.04471 -3.56688,-1.30175 -6.71134,-4.14861 -8.25086,-7.46999 -1.34632,-2.90456 -1.17582,-4.78289 1.40879,-15.520133 0.63988,-2.658241 1.43497,-6.156083 1.76688,-7.772981 0.87167,-4.246417 0.66013,-3.763017 1.8003,-4.11399 0.53147,-0.163599 1.03838,-0.34354 1.12647,-0.399868 0.18845,-0.120505 0.35666,-0.90132 0.36388,-1.689151 0.003,-0.307211 -0.008,-0.562707 -0.0243,-0.56777 -0.0162,-0.0051 -4.63315,-0.0588 -10.25996,-0.119414 -5.6268,-0.06061 -11.13014,-0.141234 -12.22963,-0.179153 -1.94917,-0.06722 -2.76215,0.01 -2.84898,0.270446 -0.0536,0.160705 0.84413,0.814036 4.77957,3.478501 3.71699,2.516571 6.45943,4.554199 7.21124,5.357937 0.38322,0.409701 0.60892,0.788566 0.75776,1.272048 0.31849,1.034504 0.26782,3.491336 -0.13427,6.509395 -0.38744,2.9081 -0.53714,7.692763 -0.30957,9.894203 0.29685,2.87155 1.07522,5.40045 2.12073,6.89012 0.81382,1.15956 0.94713,1.46879 0.94713,2.19695 0,0.55725 -0.0512,0.70681 -0.3638,1.06285 -0.54255,0.61793 -1.5044,0.87575 -3.81073,1.02146 -2.40032,0.15164 -13.46815,0.19278 -15.15889,0.0564 l -1.24576,-0.0374 0.0433,1.62107 c 0.0702,2.62832 0.41569,4.34284 0.80726,4.773 0.29076,0.31942 1.83498,0.98951 3.17567,1.37802 2.01019,0.58253 3.16685,0.67732 7.85106,0.6434 5.05872,-0.0366 4.9469,-0.0525 8.87874,1.25732 1.42315,0.47409 3.24878,0.99499 4.05695,1.15756 3.18189,0.64007 6.50535,0.75743 9.9753,0.35226 z m -22.85219,-13.85413 c 0.97014,-0.0958 2.41797,-0.23935 3.2174,-0.31891 1.00556,-0.10007 1.52772,-0.20473 1.69428,-0.33961 l 0.12675,-0.23003 -0.54632,-1.58368 c -1.70661,-4.94713 -2.0087,-10.04865 -1.18465,-15.764444 0.25428,-1.763706 0.32378,-2.692429 0.33001,-4.409722 l 0.008,-2.175463 -0.31208,-0.529167 c -0.81585,-1.383406 -3.10713,-3.160196 -11.44718,-8.876804 -7.88601,-5.405387 -10.57408,-7.541635 -14.84598,-11.798292 -3.60241,-3.589555 -4.47381,-4.141364 -5.71858,-3.621265 -1.14708,0.479283 -1.4225,2.808571 -0.54385,4.599602 0.92668,1.888953 3.47369,3.884285 14.40563,11.285408 4.56941,3.093577 7.97936,5.465242 8.87824,6.174939 0.27794,0.219441 0.28065,0.232251 0.0497,0.234724 -0.54091,0.0058 -3.73466,-1.504659 -6.37218,-3.013649 -2.15299,-1.231777 -7.13308,-4.316335 -9.78768,-6.062265 -4.47167,-2.941026 -6.12567,-3.837291 -7.27352,-3.941375 -0.64515,-0.0585 -0.69758,-0.04326 -0.94945,0.275983 -0.33815,0.428593 -0.27163,1.093283 0.19674,1.965968 0.32081,0.597733 1.8864,2.278572 2.79336,2.998986 l 0.47037,0.373621 -0.62796,-0.239143 c -1.34149,-0.51087 -2.47133,-1.256896 -3.54815,-2.342827 -1.03603,-1.044796 -1.42,-1.789151 -1.51301,-2.933062 l -0.11217,-0.86678 -0.60749,-0.466364 c -0.87494,-0.671687 -2.85404,-1.55866 -3.80475,-1.847193 -2.89977,-0.880057 -4.31429,0.736051 -2.98983,3.415911 0.8905,1.801821 2.28646,3.282426 4.43592,4.704925 1.501,0.993346 5.88358,3.197801 11.29569,5.681775 5.80255,2.663168 8.71212,4.057549 10.99491,5.269193 2.21568,1.176019 3.46898,1.933259 3.46898,2.095933 0,0.443221 -2.88495,-0.391739 -7.47179,-2.162476 -4.27053,-1.648632 -5.23994,-1.883427 -5.32433,-1.289581 -0.0658,0.463292 0.69298,1.660418 1.78157,2.810662 1.21031,1.278867 1.13863,1.334404 -0.62711,0.485872 -0.76633,-0.368259 -1.19315,-0.674888 -1.82935,-1.314201 -0.88945,-0.893793 -1.27358,-1.566481 -1.40857,-2.466651 l -0.0846,-0.564432 -1.71951,-0.823639 c -5.09699,-2.441444 -7.38892,-3.27302 -8.31563,-3.017144 -0.47666,0.131614 -0.63582,0.391259 -0.63582,1.037262 0,1.761027 2.61545,3.735378 8.47602,6.398382 1.20165,0.546021 4.5354,1.930029 7.40833,3.075572 5.35792,2.136395 8.76773,3.570204 9.27145,3.898597 0.27754,0.180936 0.27908,0.1902 0.0588,0.35526 -0.33395,0.250238 -1.23259,0.116707 -4.16537,-0.618945 -2.34125,-0.587276 -3.99324,-1.053393 -11.20929,-3.162759 -2.70488,-0.790678 -3.30363,-0.877859 -3.53129,-0.514167 -0.19202,0.306776 0.34296,1.327821 1.09968,2.098785 0.86266,0.8789 1.84656,1.526973 3.56891,2.350769 1.73031,0.827601 3.12561,1.325001 7.426,2.647221 3.38504,1.04078 5.37932,1.76723 6.07243,2.21197 l 0.39516,0.25356 -1.2919,0.0337 c -0.71054,0.0185 -1.33681,0.0786 -1.39172,0.13348 -0.10671,0.10671 0.15277,0.67877 0.55578,1.22529 0.35591,0.48266 1.78503,1.40263 2.79025,1.79619 l 0.8663,0.33916 -0.56076,0.0359 c -0.66185,0.0424 -2.08246,-0.32304 -2.93488,-0.75499 -0.84418,-0.42778 -1.75787,-1.33152 -2.09302,-2.07026 -0.15493,-0.34147 -0.29014,-0.63605 -0.30048,-0.65461 -0.0103,-0.0186 -1.6793,-0.32043 -3.70881,-0.67082 -2.02951,-0.35039 -3.83554,-0.6646 -4.0134,-0.69826 -0.28705,-0.0543 -0.32338,-0.0261 -0.32338,0.25151 0,0.76607 0.86355,1.8826 2.11667,2.73678 0.83442,0.56877 2.51226,1.40944 3.96645,1.98735 2.47999,0.98559 8.60247,2.84797 13.81872,4.20348 1.21228,0.31503 2.20447,0.62076 2.20486,0.6794 0.001,0.16534 -3.46882,-0.0101 -5.58494,-0.28242 -1.03481,-0.13316 -3.1133,-0.45234 -4.61886,-0.70931 -2.83835,-0.48444 -4.37697,-0.59476 -4.37697,-0.31384 0,0.25865 0.63981,1.17748 1.1016,1.582 0.94875,0.8311 2.8564,1.53313 4.83683,1.78 0.58208,0.0726 1.21708,0.15381 1.41111,0.18054 0.73843,0.10174 6.42709,-0.0505 8.11389,-0.2171 z"
       id="path35" /><path
       style="fill:#d67c7e;fill-opacity:1;stroke:#000000;stroke-width:0.954594"
       d="m 1020.0015,435.55963 c -7.0191,-1.05228 -13.6055,-3.40695 -17.5178,-6.26272 -1.525,-1.11321 -5.04358,-5.9238 -4.63303,-6.33436 0.43515,-0.43515 5.78353,-0.14326 10.58233,0.57754 2.5708,0.38615 8.1744,1.26204 12.4524,1.94641 10.1494,1.62364 15.1989,2.19617 23.7855,2.69683 4.9632,0.2894 7.2534,0.30087 7.7219,0.0387 0.6115,-0.34224 0.5792,-0.40636 -0.3947,-0.78414 -0.5834,-0.22629 -5.9927,-1.75551 -12.0208,-3.39828 -20.5117,-5.58984 -38.7299,-11.19776 -47.19938,-14.5289 -4.94373,-1.94444 -11.68144,-5.27896 -15.01887,-7.43292 -4.5641,-2.94564 -8.31566,-7.60849 -8.31566,-10.33563 0,-0.93939 0.10303,-1.05468 0.7955,-0.89022 0.43752,0.10391 5.40937,0.98724 11.04854,1.96296 5.63918,0.97573 12.00736,2.09849 14.15151,2.49503 l 3.89847,0.72099 1.22309,2.36092 c 1.5184,2.93098 4.7634,6.2265 7.6196,7.73825 3.4496,1.82581 8.0135,2.98214 11.2833,2.85875 l 2.7653,-0.10436 -2.8414,-1.15893 c -3.688,-1.50426 -8.3572,-4.31876 -10.2674,-6.18896 -0.8319,-0.81445 -1.9104,-2.27859 -2.3967,-3.25365 l -0.8841,-1.77282 0.8056,-0.22993 c 0.4431,-0.12646 2.158,-0.25495 3.8109,-0.28554 1.6528,-0.0306 3.6416,-0.17153 4.4194,-0.3132 l 1.4142,-0.25758 -1.701,-1.00573 c -2.4453,-1.44584 -7.5031,-3.38416 -15.79987,-6.05501 -3.98632,-1.28326 -11.22533,-3.61108 -16.08668,-5.17294 -10.4977,-3.37269 -13.68745,-4.58941 -19.79899,-7.55223 -5.99981,-2.90864 -9.44287,-5.25333 -12.61733,-8.59226 -3.91003,-4.11261 -5.29176,-7.54207 -3.2456,-8.05562 1.43811,-0.36095 5.19634,0.58139 23.58037,5.91251 34.4154,9.98 44.9022,12.38649 47.0698,10.80151 0.8589,-0.62806 0.5037,-1.12037 -1.5647,-2.16851 -2.3193,-1.17526 -15.5671,-6.7355 -26.52926,-11.13455 -30.7645,-12.34568 -40.73604,-16.71368 -50.02781,-21.91457 -12.03598,-6.7369 -17.14734,-11.74849 -17.14734,-16.81267 0,-6.60131 6.25054,-5.03692 35.93767,8.99448 l 3.94108,1.86273 0.23916,1.91425 c 0.3732,2.98692 2.2371,6.29571 5.20564,9.24103 1.42061,1.4095 3.18755,2.97188 3.92652,3.47195 1.42057,0.96133 6.59316,3.47818 7.93719,3.86204 1.45969,0.41689 0.89347,-0.86969 -1.59099,-3.61509 -3.15057,-3.48148 -5.25993,-6.25875 -6.30601,-8.30282 -0.97857,-1.91211 -1.07023,-2.83884 -0.34068,-3.44432 1.03357,-0.85778 4.49136,0.19148 20.74941,6.29636 11.26602,4.23038 19.26602,6.87117 23.23352,7.66939 2.6212,0.52736 3.0126,0.53471 3.482,0.0654 0.4693,-0.46934 0.3559,-0.64724 -1.0087,-1.5825 -6.4619,-4.42892 -21.18771,-11.82278 -51.02759,-25.62117 -29.90096,-13.82663 -42.11515,-20.17252 -49.32796,-25.62836 -2.74664,-2.07759 -7.69262,-7.17928 -9.49369,-9.79257 -4.71247,-6.83764 -5.97445,-12.41605 -3.57208,-15.78987 0.38298,-0.53785 1.42512,-1.33071 2.31587,-1.76191 1.42072,-0.68777 2.01719,-0.76237 4.85889,-0.60776 2.58404,0.14059 3.88402,0.42679 6.42604,1.41474 4.09924,1.59316 8.47891,3.79769 11.90373,5.99178 2.95603,1.89378 2.89865,1.78944 3.2968,5.99472 0.51577,5.44747 5.3882,11.50311 13.07595,16.25126 2.62323,1.62017 8.20786,4.07351 8.53287,3.7485 0.0784,-0.0784 -1.0791,-1.16114 -2.57225,-2.40605 -3.66438,-3.05519 -8.74577,-8.83404 -10.0331,-11.4102 -1.28173,-2.56498 -1.39366,-4.75854 -0.31978,-6.26668 0.61073,-0.85768 0.97875,-1.02685 2.23393,-1.02685 4.35101,0 10.03977,2.9613 27.97081,14.56028 29.26986,18.93365 47.41166,29.37889 58.79136,33.84932 1.9719,0.77467 3.6108,0.95781 3.6108,0.40351 0,-0.59722 -9.6954,-7.42516 -35.17854,-24.7742 -45.48871,-30.96896 -52.29722,-36.59373 -54.67512,-45.16921 -0.89867,-3.24087 -0.875,-7.60274 0.0547,-10.08767 0.80542,-2.15268 1.7225,-3.15349 3.61378,-3.94371 3.99013,-1.66719 6.96025,0.30656 20.92491,13.90536 17.98134,17.51025 25.11244,23.15102 57.53837,45.51342 29.8225,20.56694 38.0067,26.91573 41.5198,32.20853 l 1.2822,1.93174 -0.1838,9.95735 c -0.1356,7.3495 -0.3696,11.20741 -0.8932,14.73033 -1.2886,8.66991 -1.5738,13.62284 -1.3695,23.78515 0.2902,14.43544 1.8304,23.42257 6.289,36.69845 1.947,5.79711 1.9428,5.98583 -0.1484,6.66678 -1.7328,0.56424 -17.6162,2.10529 -25.6927,2.49276 -11.5485,0.55404 -22.4061,0.41041 -27.5772,-0.36482 z"
       id="path36"
       transform="scale(0.26458333)" /><path
       style="fill:#d67c7e;fill-opacity:1;stroke:#000000;stroke-width:0.954594"
       d="m 1118.6429,488.37904 c -11.4629,-1.0985 -17.0867,-2.37022 -32.3501,-7.31552 -11.2151,-3.63365 -9.6891,-3.45054 -31.2895,-3.75438 -20.5299,-0.28879 -21.6803,-0.38791 -28.8907,-2.48935 -3.6856,-1.07414 -9.276,-3.33083 -10.9204,-4.40829 -1.2713,-0.83299 -2.1495,-3.02742 -2.7736,-6.93043 -0.5965,-3.73054 -1.2537,-11.67774 -1.255,-15.17537 l -9e-4,-2.2981 h 30.6708 c 32.4449,0 36.5776,-0.1651 41.3974,-1.65378 1.6441,-0.50783 2.7394,-1.13609 3.9103,-2.24302 l 1.6265,-1.5376 -0.012,-2.76288 c -0.013,-3.10171 -0.2647,-3.72676 -3.4953,-8.68301 -3.1713,-4.86513 -5.1531,-10.17866 -6.7237,-18.02724 -1.4098,-7.04461 -1.7365,-12.08135 -1.4855,-22.89845 0.2213,-9.5408 0.6925,-16.12502 1.8089,-25.27907 0.7915,-6.48985 1.078,-16.02279 0.5773,-19.20633 -0.2241,-1.42412 -0.7863,-3.33705 -1.2494,-4.25094 -1.9566,-3.86129 -8.6974,-9.14692 -31.8471,-24.97243 -12.1708,-8.32011 -15.4549,-10.74148 -15.28,-11.2661 0.072,-0.21455 0.675,-0.51306 1.341,-0.66334 0.6661,-0.15028 13.223,-0.10136 27.9043,0.10871 14.6813,0.21008 35.5233,0.48805 46.3155,0.61771 l 19.6222,0.23575 -0.08,2.6878 c -0.044,1.47828 -0.2828,3.30792 -0.5303,4.06586 -0.4416,1.35241 -0.5188,1.40128 -4.1474,2.62408 -4.5479,1.53257 -4.5939,1.59733 -6.0613,8.52854 -0.5909,2.79108 -1.6319,7.69983 -2.3133,10.90833 -0.6815,3.20849 -3.2857,14.58407 -5.7873,25.27906 -2.5015,10.69499 -5.1069,22.16194 -5.7896,25.48211 -3.4798,16.92246 -3.5571,24.49567 -0.3302,32.32387 6.4437,15.63161 22.0079,28.28042 39.5355,32.12999 1.7501,0.38437 6.5523,1.19498 10.6716,1.80135 11.7701,1.73263 15.1212,2.95183 18.6807,6.79655 3.6909,3.98655 5.5207,9.48686 5.9757,17.96198 l 0.2183,4.06586 -4.3381,1.82424 c -13.9259,5.85606 -28.8485,8.68211 -45.1419,8.549 -3.8093,-0.0311 -7.4828,-0.10994 -8.1634,-0.17516 z"
       id="path37"
       transform="scale(0.26458333)" /></g></svg>
