<?xml version="1.0" encoding="UTF-8" standalone="no"?>
<!-- Created with Inkscape (http://www.inkscape.org/) -->

<svg
   width="82.549995mm"
   height="59.480892mm"
   viewBox="0 0 82.549995 59.480892"
   version="1.1"
   id="svg1"
   xml:space="preserve"
   xmlns="http://www.w3.org/2000/svg"
   xmlns:svg="http://www.w3.org/2000/svg"><defs
     id="defs1" /><g
     id="layer1"
     transform="translate(-360.24489,-80.643603)"><path
       style="fill:#000000"
       d="m 400.91993,139.87464 c -0.8344,-0.55618 -3.16078,-3.98714 -4.63355,-6.8336 -0.67828,-1.31091 -0.80451,-1.92831 -0.4839,-2.36677 0.15487,-0.2118 0.41357,-0.22216 5.7121,-0.22875 5.2962,-0.007 5.56086,0.003 5.78983,0.21663 0.19823,0.18468 0.2275,0.31432 0.16837,0.74572 -0.13077,0.95406 -1.42526,3.41796 -3.14937,5.99443 -0.94209,1.40783 -1.39955,1.95074 -2.02741,2.40607 -0.55462,0.40223 -0.85066,0.41649 -1.37607,0.0663 z m 1.79878,-3.63814 c 1.50704,-2.16204 2.65165,-4.04353 2.53243,-4.16275 -0.0364,-0.0364 -0.85814,-0.005 -1.82604,0.0691 -1.28904,0.0991 -2.24049,0.10155 -3.55654,0.009 -0.98818,-0.0694 -1.82787,-0.0949 -1.86597,-0.0567 -0.15207,0.1527 1.48549,2.87624 2.79522,4.64892 0.63394,0.85803 0.67233,0.88829 0.92049,0.7257 0.14242,-0.0933 0.59261,-0.64836 1.00041,-1.23341 z m -17.42659,-7.33274 c -2.79702,-0.629 -5.29457,-1.89125 -7.9375,-4.01161 -0.71144,-0.57076 -2.85536,-2.57233 -4.76428,-4.44794 -5.1747,-5.08438 -7.08485,-6.51647 -10.35775,-7.76545 -0.56909,-0.21717 -1.18591,-0.47305 -1.37071,-0.56862 -0.34161,-0.17665 -0.61698,-0.62211 -0.61698,-0.99807 0,-0.36447 0.6376,-0.83538 1.69098,-1.24892 1.20402,-0.47268 2.76727,-1.34718 4.04146,-2.26084 2.01804,-1.44704 4.17869,-3.52979 8.39536,-8.092675 3.66294,-3.963703 5.96694,-5.859569 8.93567,-7.352805 2.6273,-1.321503 3.86523,-1.378382 3.86523,-0.177597 0,0.333083 -0.19598,0.651027 -1.11649,1.811338 -5.66145,7.136259 -7.77934,16.033939 -5.44859,22.890679 0.98366,2.89379 3.46297,6.71493 6.31499,9.73273 0.44213,0.46783 0.86448,0.96619 0.93856,1.10746 0.21667,0.41322 0.1648,1.03175 -0.10716,1.27787 -0.31729,0.28714 -1.43887,0.33471 -2.46279,0.10445 z m -2.15588,-3.44595 c -4.82219,-5.79381 -6.5515,-13.03557 -4.83367,-20.24184 0.82523,-3.46183 2.60905,-7.440915 4.70495,-10.495132 0.34396,-0.501238 0.40951,-0.77905 0.32757,-0.77905 -0.1635,0 -1.29357,0.726116 -2.4102,1.585349 -1.0704,0.823648 -3.02204,2.808804 -6.23047,6.337453 -1.58778,1.74624 -3.41149,3.67309 -4.05269,4.28188 -2.11686,2.00984 -4.4824,3.78036 -6.06271,4.53771 l -0.82964,0.39759 1.16881,0.58653 c 2.80177,1.406 4.87791,3.07937 9.14384,7.36991 4.31351,4.33842 5.84793,5.60059 8.23885,6.79115 1.71311,0.85304 1.8934,0.89968 0.83536,-0.37155 z m 32.37718,3.42349 c -0.30413,-0.15193 -0.42165,-0.29374 -0.45016,-0.54319 -0.068,-0.59518 0.0788,-0.86118 1.05873,-1.91849 6.35559,-6.85733 8.35619,-12.71082 6.86215,-20.07774 -0.84464,-4.16481 -2.83265,-8.330913 -5.97499,-12.521317 -1.20551,-1.607575 -1.37418,-2.001417 -1.03315,-2.412338 0.42957,-0.517595 1.66422,-0.270165 3.75445,0.752413 3.18169,1.556539 5.35564,3.39776 10.06912,8.528022 4.98869,5.4298 7.71044,7.68976 10.68329,8.8707 1.92683,0.76542 2.31204,1.03514 2.31204,1.61888 0,0.54999 -0.40114,0.88885 -1.57172,1.32771 -3.58341,1.34345 -5.14611,2.49158 -10.24634,7.52807 -3.85378,3.80562 -5.21937,5.0155 -6.93796,6.14689 -1.97347,1.29918 -4.31752,2.30642 -6.33941,2.72405 -1.14131,0.23574 -1.67842,0.22993 -2.18605,-0.0237 z m 5.01149,-2.83902 c 2.65816,-1.27837 4.27105,-2.59095 9.3348,-7.59676 4.80901,-4.75397 6.3799,-6.04295 8.37848,-6.8749 0.50123,-0.20866 0.91134,-0.3984 0.91134,-0.42166 0,-0.0233 -0.46302,-0.28192 -1.02894,-0.57482 -2.31179,-1.19648 -5.81651,-4.36628 -10.08488,-9.12113 -3.73345,-4.158968 -6.11852,-6.351296 -7.98446,-7.339231 -0.31759,-0.168152 -0.5342,-0.21668 -0.55714,-0.193738 -0.0229,0.02294 0.34272,0.639952 0.88838,1.457032 2.34141,3.506117 3.96354,7.495657 4.66983,11.485197 0.3416,1.92951 0.41928,4.9394 0.17511,6.7845 -0.54696,4.13312 -1.98402,7.45617 -4.84964,11.21428 -0.4715,0.61834 -0.96511,1.22185 -1.09693,1.34114 -0.2716,0.2458 -0.3098,0.41644 -0.0927,0.41394 0.0808,-9.3e-4 0.68237,-0.25916 1.33672,-0.57385 z m -20.7689,2.03088 c -1.20677,-0.0869 -3.22908,-0.40824 -4.46426,-0.70935 -1.78416,-0.43496 -3.03725,-0.89624 -4.76676,-1.75472 -5.52342,-2.74166 -8.93273,-7.44491 -9.71079,-13.39636 -0.17277,-1.3215 -0.0806,-4.04372 0.17677,-5.22289 0.67121,-3.07481 2.13629,-5.78288 4.41874,-8.167647 6.74344,-7.045737 18.11288,-8.69965 27.0463,-3.934426 4.37785,2.335212 7.52018,5.853253 8.9706,10.043183 0.68608,1.98194 0.84531,3.00741 0.8385,5.4003 -0.006,2.28206 -0.20779,3.6107 -0.8273,5.46027 -1.36699,4.08121 -4.50247,7.59595 -8.68393,9.73428 -2.00273,1.02417 -5.09571,1.97389 -7.53759,2.31448 -1.34293,0.1873 -4.32618,0.31454 -5.46028,0.23288 z m 5.1633,-2.63446 c 3.79604,-0.68354 6.90442,-2.29737 9.60747,-4.98808 1.8862,-1.87758 2.94477,-3.48482 3.72184,-5.65085 0.56395,-1.57197 0.73055,-2.66333 0.72704,-4.7625 -0.003,-1.69838 -0.0419,-2.09486 -0.31353,-3.18018 -0.80572,-3.2197 -2.1615,-5.58938 -4.49097,-7.849479 -4.71171,-4.571402 -12.15549,-6.143962 -18.73724,-3.958401 -5.87898,1.952193 -9.87209,6.33238 -11.14747,12.22806 -0.28106,1.29928 -0.28798,3.99912 -0.0138,5.37936 0.61795,3.11061 2.14606,5.82925 4.5896,8.16529 4.13037,3.94866 10.15212,5.68005 16.05705,4.61678 z m -4.6923,-3.24353 c -1.78014,-0.6458 -2.81459,-2.35122 -2.67363,-4.40783 0.11237,-1.63942 1.12211,-3.14936 2.52986,-3.78308 0.85244,-0.38374 2.12179,-0.35948 2.96928,0.0567 1.45987,0.71697 2.4646,2.22638 2.5582,3.84317 0.11053,1.9094 -0.63838,3.29341 -2.20934,4.08295 -0.82165,0.41295 -2.33598,0.5122 -3.17437,0.20805 z m 9.98403,-8.37505 c -1.24239,-0.41205 -2.0169,-1.12892 -2.56243,-2.37174 -0.69177,-1.57597 -0.27313,-3.62751 1.00003,-4.90067 1.81623,-1.81623 4.81163,-1.49882 6.25512,0.66282 1.9576,2.93153 0.27559,6.5948 -3.11205,6.77777 -0.69024,0.0373 -1.08911,-0.005 -1.58067,-0.16818 z m -20.17612,-0.11326 c -0.81072,-0.28911 -1.37495,-0.73764 -1.87465,-1.49024 -0.53897,-0.81175 -0.75148,-1.54847 -0.75148,-2.6052 0,-1.13653 0.31863,-1.97621 1.05612,-2.78315 2.09836,-2.29594 5.38755,-1.76872 6.90079,1.10612 0.30144,0.57266 0.33318,0.74501 0.33318,1.8089 0,1.05911 -0.0325,1.23767 -0.32741,1.79751 -0.46747,0.88749 -1.02914,1.46056 -1.87511,1.91319 -0.65251,0.34912 -0.85858,0.3987 -1.79544,0.43198 -0.80407,0.0286 -1.20433,-0.0145 -1.666,-0.17911 z m 9.87036,-9.9006 c -2.31387,-1.16929 -2.7407,-4.13284 -0.8651,-6.006463 0.75604,-0.755243 1.45298,-1.050487 2.47972,-1.050487 0.9524,0 1.67326,0.287273 2.40962,0.960263 0.93313,0.852832 1.29663,1.661035 1.28699,2.861497 -0.009,1.10309 -0.29991,1.83617 -1.01154,2.54779 -0.72698,0.72698 -1.30048,0.95814 -2.50868,1.01118 -0.99912,0.0439 -1.09933,0.0258 -1.79101,-0.32378 z m -3.02027,-14.587995 c -0.43234,-0.129288 -0.53513,-0.2932 -0.53739,-0.856954 -0.002,-0.548484 0.47464,-1.529697 1.83829,-3.782833 2.2407,-3.702259 2.87112,-4.306367 3.92514,-3.761312 0.81987,0.423968 4.58292,6.606601 4.58292,7.529655 0,0.891855 -0.53101,1.066228 -2.50571,0.822822 -1.82948,-0.225506 -3.22844,-0.226565 -5.1966,-0.0039 -1.71617,0.194125 -1.63963,0.192215 -2.10665,0.05256 z m 7.69231,-1.761616 c -2e-5,-0.0936 -0.92848,-1.674011 -1.77418,-3.019971 -0.41474,-0.660073 -0.86435,-1.395183 -0.99912,-1.633577 l -0.23042,-0.240508 -1.56287,2.354292 c -0.90673,1.365896 -1.54823,2.559418 -1.54822,2.574317 10e-6,0.0149 1.37585,0.02709 3.05742,0.02709 1.68157,0 3.0574,-0.02774 3.05739,-0.06164 z"
       id="path38" /><path
       style="fill:#cb4257;fill-opacity:1;stroke:#000000;stroke-width:0.675"
       d="m 1513,474.98194 c -14.2654,-0.88472 -27.9762,-6.05901 -38.8133,-14.64774 -2.731,-2.16443 -7.7386,-7.14607 -10.0111,-9.9592 -6.9669,-8.62464 -11.2682,-18.81617 -12.2038,-28.91579 -0.3553,-3.83551 -0.144,-11.76941 0.395,-14.83421 1.6244,-9.23604 6.2861,-19.43212 12.2898,-26.88031 9.9752,-12.37507 24.9602,-20.64508 42.1773,-23.27709 4.2883,-0.65556 12.7043,-0.89489 17.0617,-0.4852 14.2705,1.34173 27.7994,6.77794 37.8544,15.21078 3.3006,2.76813 7.753,7.42748 10.1462,10.61774 4.8896,6.51826 8.0062,13.18863 10.2509,21.93908 1.8826,7.33941 1.7067,19.09182 -0.3979,26.58722 -1.8716,6.66527 -4.8335,12.50875 -9.2063,18.16278 -2.2051,2.85126 -7.8214,8.56558 -10.9904,11.18221 -11.2292,9.27193 -24.8127,14.40707 -40.5229,15.31945 -2.285,0.1327 -4.3234,0.22616 -4.5296,0.20768 -0.2063,-0.0185 -1.7813,-0.12081 -3.5,-0.2274 z m 8.8143,-12.84861 c 2.4813,-0.5258 5.005,-1.95328 7.0838,-4.0068 2.9783,-2.94205 4.1935,-6.16631 4.1935,-11.12653 0,-3.42536 -0.4122,-5.23656 -1.8774,-8.25 -0.8473,-1.74267 -1.4431,-2.53247 -3.3112,-4.38972 -3.6104,-3.58933 -6.8327,-4.85808 -11.5203,-4.53596 -2.7324,0.18776 -4.2671,0.70914 -6.5171,2.21405 -2.3322,1.55988 -4.3024,3.86741 -5.6238,6.58663 -1.457,2.99818 -1.8152,4.8689 -1.6757,8.75 0.102,2.83566 0.2139,3.51119 0.8779,5.29878 0.9486,2.55375 2.1716,4.41651 4.0283,6.13545 1.538,1.42396 4.3496,3.04101 5.9346,3.4132 1.5317,0.3597 6.54,0.30662 8.4074,-0.0891 z m 38.8643,-31.9951 c 5.056,-1.61108 8.85,-5.65774 10.2346,-10.91636 0.5544,-2.10556 0.5423,-6.0659 -0.025,-8.20741 -1.5962,-6.02476 -5.5892,-10.44239 -10.9935,-12.16269 -4.1529,-1.32197 -9.2609,-0.68254 -12.7892,1.60099 -8.9723,5.80684 -10.3719,18.8767 -2.8178,26.31438 1.6149,1.59008 4.6341,3.22918 7.0874,3.8477 2.3086,0.58203 6.6849,0.35784 9.3036,-0.47661 z m -76.2947,-0.026 c 4.2839,-1.11582 8.2326,-4.62561 10.4224,-9.26383 l 0.8137,-1.7234 -10e-4,-4.125 c -10e-4,-4.70661 -0.1315,-5.31211 -1.7326,-8.04169 -3.4286,-5.8451 -9.0019,-9.03545 -15.091,-8.63868 -6.1386,0.4 -11.8471,4.8039 -13.9489,10.76116 -1.0087,2.859 -0.8994,8.12913 0.2364,11.3951 1.6739,4.81326 5.7269,8.7161 10.1347,9.75916 1.6151,0.38219 7.5317,0.30289 9.1663,-0.12286 z m 38.322,-37.07917 c 4.6246,-1.43935 8.2209,-5.88384 8.7768,-10.84676 0.6209,-5.54428 -0.8788,-9.58391 -4.8757,-13.1326 -3.1287,-2.77782 -6.8449,-3.91389 -10.989,-3.35942 -2.738,0.36635 -4.7886,1.34114 -6.9096,3.28459 -3.2554,2.98296 -5.0012,6.77769 -5.0152,10.90095 -0.021,6.0643 3.2225,10.73024 9.2312,13.28126 1.3694,0.58137 1.6405,0.60846 4.8444,0.48406 2.3251,-0.0903 3.8798,-0.28303 4.9371,-0.61208 z"
       id="path39"
       transform="scale(0.26458333)" /><path
       style="fill:#cb4257;fill-opacity:1;stroke:#000000;stroke-width:0.675"
       d="m 1517.3288,519.58986 c -1.1251,-0.45832 -10.0489,-13.91566 -12.2445,-18.46486 -0.6961,-1.4425 -0.7763,-1.76448 -0.4561,-1.83243 0.2136,-0.0453 2.3572,0.039 4.7635,0.1875 5.7192,0.35285 11.1097,0.34517 17.0406,-0.0243 2.6441,-0.1647 4.8733,-0.23352 4.9539,-0.15293 0.7538,0.75384 -12.4295,20.56457 -13.5937,20.42739 -0.092,-0.0109 -0.3008,-0.074 -0.4637,-0.1404 z"
       id="path40"
       transform="scale(0.26458333)" /><path
       style="fill:#cb4257;fill-opacity:1;stroke:#000000;stroke-width:0.675"
       d="m 1584,478.22255 c 0,-0.1526 0.5685,-0.89947 1.2633,-1.65972 1.5308,-1.67497 5.8606,-7.40214 8.0165,-10.60374 8.355,-12.40767 12.9658,-25.01825 14.2446,-38.95909 0.4129,-4.50105 0.1446,-15.61698 -0.4888,-20.25 -2.1925,-16.03852 -8.3732,-31.55691 -19.1176,-48 -1.3027,-1.99375 -2.3297,-3.66564 -2.2822,-3.71532 0.1838,-0.19195 4.4851,2.26878 6.4373,3.68269 5.832,4.22394 14.4266,12.55284 25.315,24.53263 11.1113,12.2249 21.2397,22.20358 28.3024,27.88394 3.4437,2.76969 7.7046,5.62257 11.173,7.48082 l 2.7386,1.46721 -0.8636,0.38049 c -10.673,4.70262 -14.1443,7.44883 -33.9044,26.82266 -19.7212,19.33564 -24.9362,23.62852 -34.5717,28.45865 -2.4539,1.23011 -5.876,2.75623 -6.1805,2.75623 -0.045,0 -0.082,-0.12485 -0.082,-0.27745 z"
       id="path41"
       transform="scale(0.26458333)" /><path
       style="fill:#cb4257;fill-opacity:1;stroke:#000000;stroke-width:0.675"
       d="m 1447.3942,476.59514 c -7.2959,-3.37053 -12.7022,-7.05684 -19.7692,-13.47966 -1.65,-1.4996 -7.3313,-7.00677 -12.625,-12.23816 -18.7284,-18.50781 -24.3943,-23.09735 -35.7951,-28.99531 l -3.9854,-2.06174 2.5778,-1.26487 c 4.6275,-2.27072 10.1857,-6.08873 16.3277,-11.21579 6.3165,-5.27276 9.4027,-8.37388 22.3558,-22.46406 15.2955,-16.6383 19.9644,-21.26689 25.6442,-25.42279 2.7307,-1.99804 6.4134,-4.45276 6.6803,-4.45276 0.4527,0 0.066,0.73918 -2.2694,4.33272 -9.66,14.86705 -16.2236,31.434 -18.3898,46.41728 -1.3457,9.30723 -1.1224,19.53563 0.6222,28.5 2.8955,14.87798 9.0157,27.55099 19.5367,40.45447 1.9715,2.41784 2.3631,3.04759 1.8913,3.04112 -0.1767,-0.002 -1.4376,-0.52013 -2.8021,-1.15045 z"
       id="path42"
       transform="scale(0.26458333)" /><path
       style="fill:#cb4257;fill-opacity:1;stroke:#000000;stroke-width:0.675"
       d="m 1507.7239,330.52047 -1.4011,-0.14547 5.6511,-9.32935 c 5.0305,-8.30479 5.6866,-9.27946 5.9745,-8.875 0.5888,0.82714 7.3338,11.89882 9.1866,15.07935 l 1.8205,3.125 -3.2903,0.15797 c -4.0471,0.1943 -16.0299,0.18596 -17.9413,-0.0125 z"
       id="path43"
       transform="scale(0.26458333)" /></g></svg>
