<?xml version="1.0" encoding="UTF-8" standalone="no"?>
<!-- Created with Inkscape (http://www.inkscape.org/) -->

<svg
   width="48.590027mm"
   height="58.664783mm"
   viewBox="0 0 48.590027 58.664783"
   version="1.1"
   id="svg1"
   xml:space="preserve"
   xmlns="http://www.w3.org/2000/svg"
   xmlns:svg="http://www.w3.org/2000/svg"><defs
     id="defs1" /><g
     id="layer1"
     transform="translate(-388.94664,-86.370984)"><path
       style="fill:#000000"
       d="m 413.09689,144.67728 c -1.43034,-1.12168 -4.19932,-4.10859 -6.53776,-7.05232 -8.7336,-10.99425 -14.75736,-22.60924 -16.77666,-32.34872 -0.4018,-1.93799 -0.8385,-5.07341 -0.83578,-6.000815 l 0.002,-0.62994 1.46785,-1.234718 1.46785,-1.234722 2.1e-4,-1.684856 c 2.9e-4,-2.391325 0.19759,-4.473068 0.45886,-4.841533 0.33866,-0.477607 1.85077,-1.69398 2.8177,-2.266614 1.98077,-1.173056 3.58175,-1.315557 5.33008,-0.474422 1.94996,0.938135 3.46174,2.346739 9.97036,9.289944 2.4256,2.587561 2.78677,2.928971 2.97639,2.813511 0.1187,-0.0723 1.49581,-1.533256 3.06025,-3.246634 3.35129,-3.670338 5.98849,-6.333134 7.37407,-7.44563 0.54847,-0.440374 1.49209,-1.04749 2.09692,-1.349148 0.90831,-0.45301 1.23689,-0.55622 1.8879,-0.593006 1.11141,-0.0628 2.46121,0.321033 3.58655,1.019881 1.23681,0.768065 2.77816,2.011367 2.90406,2.34249 0.17065,0.44886 0.33868,2.766099 0.33976,4.685751 l 10e-4,1.777513 1.4241,1.221098 1.4241,1.221095 -0.0804,1.35232 c -0.37516,6.312505 -2.28995,12.825465 -6.0155,20.461115 -4.12691,8.45821 -9.13055,15.9326 -14.2858,21.33999 -1.09538,1.14895 -3.36633,3.23686 -3.52062,3.23686 -0.0441,0 -0.28595,-0.16132 -0.53738,-0.35849 z m 0.77758,-8.21101 c 0,-0.0566 0.61642,-0.86354 1.36981,-1.79329 3.28938,-4.05933 6.70233,-8.94366 9.02831,-12.92054 3.91192,-6.68848 7.20119,-14.72431 8.35092,-20.40162 0.16553,-0.81739 0.30096,-1.588495 0.30096,-1.713575 0,-0.42835 -0.12291,-0.3669 -2.52824,1.263955 -0.38806,0.26311 -1.11566,0.72687 -1.6169,1.03057 -0.50124,0.30371 -0.74902,0.49078 -0.94642,0.63409 0,0 -0.93181,0.63565 -1.59352,0.95103 -1.74241,0.83044 -4.11183,1.81604 -6.11647,3.06884 -0.67028,0.41889 -1.26339,0.86745 -1.31802,0.9968 -0.0546,0.12935 -0.26276,1.50519 -0.46251,3.05741 -0.19975,1.55222 -0.39137,2.96774 -0.42582,3.1456 -0.0857,0.44255 0.15016,0.4213 0.72863,-0.0656 0.92557,-0.7791 6.6487,-4.31469 6.98428,-4.31469 0.16233,0 0.044,0.56346 -0.40737,1.94027 -1.59274,4.85802 -8.28885,16.39022 -11.02177,18.98196 l -0.79624,0.7551 V 120.9734 110.86421 l 0.91201,-1.29334 c 0.50161,-0.71133 1.00719,-1.50262 1.12351,-1.75841 0.19118,-0.4204 0.37171,-0.54982 1.87887,-1.34703 5.40699,-2.86001 7.95718,-5.65182 9.72109,-10.642133 0.69032,-1.953018 1.50208,-5.891919 1.26343,-6.13057 -0.19935,-0.199346 -2.42351,1.820653 -4.47369,4.063042 -0.86228,0.943112 -2.38144,2.640792 -3.37592,3.77262 -0.99448,1.131826 -3.01157,3.274961 -4.48243,4.762501 l -2.67428,2.70463 -1.42747,-1.41111 c -0.78511,-0.77611 -2.86248,-2.97215 -4.61638,-4.880095 -1.7539,-1.907939 -3.85227,-4.150868 -4.66304,-4.984286 -1.66637,-1.712915 -4.20786,-4.070343 -4.38815,-4.070343 -0.1719,0 -0.0281,1.700156 0.26179,3.096025 0.75028,3.612279 2.59322,8.235719 4.33725,10.880969 0.3991,0.60533 0.72563,1.14706 0.72563,1.20384 0,0.12627 -0.13779,0.0642 -5.73938,-2.58481 -2.47756,-1.17165 -4.54818,-2.13028 -4.60138,-2.13028 -0.11541,0 0.13155,1.3793 0.53201,2.97134 1.46153,5.81036 5.16206,13.29011 10.4773,21.17742 2.36054,3.50281 7.61554,10.52335 8.88226,11.86647 0.38166,0.40467 0.79734,0.57966 0.79734,0.33564 z"
       id="path44" /><path
       style="fill:#3dcce1;fill-opacity:1;stroke:#000000;stroke-width:0.477297"
       d="m 1563.273,515.92033 c -1.6741,-0.72466 -5.9976,-5.96709 -16.8367,-20.41525 -15.6103,-20.80794 -24.7217,-34.32428 -34.17,-50.68948 -11.6285,-20.14149 -19.9638,-39.1626 -23.9579,-54.67184 -1.0884,-4.22633 -2.3235,-10.33014 -2.3235,-11.48254 0,-0.10827 0.1536,-0.11517 0.4082,-0.0183 0.7879,0.29954 9.6711,4.43087 19.0372,8.85368 17.7659,8.38928 19.5052,9.16915 19.7102,8.83757 0.1444,-0.23364 -0.1901,-0.83525 -2.6509,-4.76773 -3.4798,-5.56091 -5.3687,-9.19884 -8.1652,-15.7257 -3.7073,-8.65237 -6.7043,-17.95076 -8.2945,-25.73445 -0.927,-4.53738 -1.4754,-11.04854 -0.9305,-11.04854 0.5331,0 6.0468,5.01308 12.2403,11.12892 5.1058,5.04179 9.7884,9.95444 19.5536,20.51411 13.1754,14.24743 24.7426,26.24339 25.191,26.12472 0.2381,-0.063 12.8598,-12.85132 17.2387,-17.46633 4.8334,-5.09395 7.2218,-7.69589 11.9264,-12.99259 11.1678,-12.57318 16.3582,-18.08978 21.0954,-22.42102 3.7724,-3.44918 6.0202,-5.15088 6.3563,-4.812 0.3753,0.37842 -0.155,4.54879 -1.2136,9.54518 -2.7082,12.78113 -6.1443,21.64071 -11.5579,29.80021 -6.1755,9.30786 -14.364,16.0886 -28.8163,23.86223 -5.6953,3.06342 -6.2324,3.46142 -7.1597,5.30593 -0.5498,1.09367 -3.314,5.29115 -5.6559,8.5884 l -1.9453,2.73888 v 38.26537 c 0,21.04595 0.06,38.26462 0.1326,38.26371 0.2909,-0.004 4.8264,-4.62009 6.2507,-6.36231 10.9091,-13.3439 29.3148,-45.15997 36.663,-63.3753 1.8797,-4.65967 3.6228,-10.2822 3.6228,-11.68576 0,-0.49678 -0.066,-0.59936 -0.3828,-0.59936 -1.2796,0 -20.6918,11.87666 -25.8699,15.82759 -3.0866,2.35506 -3.4198,2.38862 -3.0886,0.31113 0.09,-0.56337 0.6842,-4.92224 1.3209,-9.68637 1.2295,-9.20016 1.7962,-12.89959 2.0485,-13.37246 0.085,-0.16004 0.7336,-0.72318 1.4405,-1.25143 4.3951,-3.28442 9.7253,-6.18277 20.7307,-11.27253 6.7376,-3.11601 8.5478,-4.08209 11.7802,-6.28686 1.0344,-0.70556 3.2618,-2.15316 4.9498,-3.21689 1.6879,-1.06373 5.2322,-3.37046 7.8762,-5.12606 4.4294,-2.94113 5.9182,-3.7848 6.1935,-3.50956 0.4015,0.40154 -0.9793,7.76882 -2.6872,14.3373 -4.9768,19.14107 -15.0141,43.27089 -26.8397,64.5235 -9.1385,16.42351 -21.8138,34.95419 -36.4567,53.29817 -3.2791,4.10787 -5.4276,6.91048 -6.0051,7.83349 -0.157,0.25092 -0.2419,0.25435 -0.7588,0.0306 z"
       id="path45"
       transform="scale(0.26458333)" /></g></svg>
