<?xml version="1.0" encoding="UTF-8" standalone="no"?>
<!-- Created with Inkscape (http://www.inkscape.org/) -->

<svg
   width="73.034012mm"
   height="69.488945mm"
   viewBox="0 0 73.034012 69.488945"
   version="1.1"
   id="svg1"
   xml:space="preserve"
   xmlns="http://www.w3.org/2000/svg"
   xmlns:svg="http://www.w3.org/2000/svg"><defs
     id="defs1" /><g
     id="layer1"
     transform="translate(-370.77417,-70.75382)"><path
       style="fill:#000000"
       d="m 405.11373,140.03562 c -1.98539,-0.5705 -3.47913,-2.02694 -4.65721,-4.54092 -0.24913,-0.53163 -0.95871,-2.46623 -1.57685,-4.29912 -0.61813,-1.83288 -1.18167,-3.40214 -1.2523,-3.48725 -0.10284,-0.12391 -0.4592,0.0187 -1.78909,0.71592 -6.06359,3.17902 -11.09526,4.10558 -14.08049,2.59285 -1.2393,-0.628 -2.32528,-1.92228 -2.81735,-3.35773 -0.19689,-0.57434 -0.25786,-1.02765 -0.25921,-1.92694 -0.004,-2.40752 0.83969,-4.64937 3.47526,-9.23893 1.49474,-2.60292 1.96011,-3.5185 1.88624,-3.711 -0.1056,-0.27518 -1.50936,-0.87923 -5.03455,-2.16642 -5.60437,-2.04636 -7.70526,-3.92962 -8.17837,-7.33116 -0.32798,-2.35809 0.80409,-4.588134 3.12188,-6.149744 1.56533,-1.054634 4.42604,-2.262549 7.46713,-3.152944 0.80845,-0.236704 2.06339,-0.612273 2.78876,-0.834597 l 1.31886,-0.404227 -0.34173,-0.967993 c -0.18795,-0.532395 -0.77369,-1.94695 -1.30165,-3.143455 -1.7315,-3.924037 -2.19151,-5.354731 -2.30641,-7.173149 -0.14652,-2.318865 0.74528,-4.089724 2.49284,-4.950041 0.65493,-0.322424 0.87964,-0.37227 1.6695,-0.370329 0.99376,0.0024 1.65873,0.151073 3.80176,0.849745 0.77357,0.252201 2.05395,0.597479 2.84529,0.767284 2.43016,0.52146 3.5876,0.859546 5.0533,1.476055 0.77446,0.325755 1.46222,0.574245 1.52836,0.552199 0.0661,-0.02205 0.44727,-0.990316 0.84697,-2.151711 1.27874,-3.715643 2.3488,-5.327441 4.07808,-6.142714 2.00186,-0.943782 4.68037,-0.983345 6.43339,-0.09502 1.90867,0.967196 3.10607,2.639078 4.1342,5.772406 0.65378,1.992441 0.93455,2.645834 1.13697,2.645834 0.0909,0 0.4827,-0.160246 0.87069,-0.356103 1.05042,-0.530251 2.54184,-0.997858 5.06076,-1.586716 1.24144,-0.290215 2.95889,-0.763311 3.81655,-1.051324 2.12786,-0.714559 2.88157,-0.844114 3.83231,-0.658731 1.41006,0.274945 2.76302,1.232472 3.33369,2.359355 1.07066,2.114178 0.5647,4.819921 -1.96802,10.524538 -1.17094,2.637387 -1.53732,3.59706 -1.41697,3.711482 0.0516,0.0491 1.43382,0.490763 3.0715,0.981483 3.19547,0.957497 5.03065,1.630012 6.61227,2.423114 2.5316,1.269463 3.98987,2.673803 4.69937,4.525593 0.39017,1.01835 0.39935,2.7474 0.0204,3.84415 -0.66485,1.92418 -2.19237,3.52294 -4.45682,4.66467 -0.96067,0.48437 -1.99673,0.88891 -4.56115,1.78094 -1.88198,0.65465 -4.17454,1.65862 -4.17454,1.82814 0,0.1303 0.54604,1.13071 1.8445,3.37931 3.14835,5.45218 4.10639,8.18827 3.7044,10.57953 -0.37883,2.25341 -2.17363,4.17066 -4.5453,4.85539 -1.1367,0.32818 -3.33187,0.18897 -5.37385,-0.34079 -2.29825,-0.59624 -4.66972,-1.50549 -7.02448,-2.69325 -1.12537,-0.56764 -2.06517,-1.01304 -2.08844,-0.98976 -0.0233,0.0233 -0.57157,1.62488 -1.21843,3.55912 -1.50554,4.50189 -2.15067,5.85123 -3.40065,7.11285 -1.01337,1.02279 -1.92349,1.52374 -3.29084,1.81138 -1.12587,0.23683 -2.93036,0.21739 -3.83052,-0.0413 z m 2.6845,-5.35016 c 0.53214,-0.22234 0.98323,-0.79414 1.49692,-1.89747 1.04145,-2.23688 1.96288,-7.00193 1.85325,-9.5838 l -0.0375,-0.88194 -1.17592,0.0588 c -1.49962,0.075 -4.04749,0.0748 -5.4065,-3.9e-4 l -1.05558,-0.0584 -0.11258,0.52308 c -0.34821,1.61792 0.84285,7.72241 1.99203,10.20965 0.46712,1.01101 0.77151,1.39442 1.29003,1.62488 0.45389,0.20173 0.68373,0.20284 1.1558,0.006 z m -20.91135,-8.74383 c 1.06834,-0.37487 4.7497,-2.18061 6.1477,-3.01549 1.99903,-1.19382 4.02406,-2.65373 4.02406,-2.90108 0,-0.14167 -0.18938,-0.34477 -0.49977,-0.53599 -1.09965,-0.67745 -1.47532,-0.97306 -2.55253,-2.00861 -1.17025,-1.12498 -2.44754,-2.62035 -3.09527,-3.62374 -0.20835,-0.32276 -0.46835,-0.60386 -0.57777,-0.62467 -0.14412,-0.0274 -0.56935,0.5232 -1.543,1.99794 -1.65566,2.50773 -2.59302,4.13257 -3.61661,6.26911 -1.45005,3.02666 -1.63759,3.72701 -1.16043,4.33362 0.47386,0.60241 1.37038,0.63639 2.87362,0.10891 z m 43.57769,0.11043 c 0.31901,-0.28504 0.36553,-0.40269 0.36157,-0.9145 -0.0109,-1.40122 -1.37429,-4.19173 -4.13341,-8.45976 -0.62716,-0.97014 -1.3154,-2.04583 -1.52942,-2.39043 -0.41263,-0.6644 -0.8462,-1.0333 -1.0595,-0.90147 -0.071,0.0439 -0.42415,0.53791 -0.78482,1.09787 -0.93425,1.45044 -3.28102,3.76283 -4.68211,4.6135 -0.69999,0.425 -1.06763,0.72142 -1.08578,0.87544 -0.0589,0.50008 3.48632,2.73601 7.61217,4.80086 2.43668,1.21948 3.41849,1.58226 4.31967,1.59614 0.51459,0.008 0.67554,-0.0442 0.98163,-0.31765 z m -19.76519,-6.66908 c 4.92694,-1.08928 9.17928,-4.32788 11.39388,-8.67766 1.11981,-2.19945 1.65921,-4.49776 1.65842,-7.0663 -8.1e-4,-2.65507 -0.48912,-4.755094 -1.61058,-6.926445 -2.33826,-4.527299 -6.5753,-7.694104 -11.61811,-8.68347 -1.2671,-0.248599 -5.0279,-0.217738 -6.2912,0.05163 -10.05367,2.143649 -15.60583,11.536016 -12.28211,20.777155 1.98804,5.52746 6.91169,9.5805 12.92887,10.64275 1.25035,0.22073 4.59613,0.1531 5.82083,-0.11766 z m -3.52778,-1.22087 c 0,-0.0568 0.31491,-0.47918 0.6998,-0.93872 3.04951,-3.64097 4.70104,-8.42008 4.70731,-13.62174 0.006,-5.310624 -1.53305,-9.84609 -4.79249,-14.119426 l -0.31971,-0.419166 1.11667,0.07405 c 2.10667,0.13971 4.57698,0.948325 6.43879,2.107636 1.28794,0.801969 3.19309,2.615081 4.13337,3.933685 1.31844,1.848903 2.31129,4.138763 2.66191,6.139281 0.1779,1.01504 0.24109,3.5241 0.10933,4.34179 -0.28334,1.75851 -0.73995,3.16057 -1.53947,4.72709 -2.13671,4.18648 -5.93681,6.92594 -10.68727,7.70434 -1.17461,0.19247 -2.52824,0.23057 -2.52824,0.0712 z m -19.09311,-11.33269 c -0.0373,-0.27487 -0.10271,-1.45227 -0.14536,-2.61644 -0.0869,-2.37116 0.0237,-3.56048 0.50069,-5.386704 0.16569,-0.63435 0.27427,-1.18036 0.24129,-1.21334 -0.22097,-0.22097 -6.22988,1.18163 -9.02698,2.10708 -2.95392,0.977334 -4.55629,1.858844 -4.74488,2.610274 -0.16245,0.64725 0.52931,1.38929 1.87067,2.00662 2.1045,0.96855 9.3753,2.9555 10.91906,2.98393 l 0.45332,0.008 z m 40.49496,0.19188 c 2.33783,-0.40703 7.19905,-1.80362 8.81599,-2.53277 1.64886,-0.74354 2.34921,-1.43669 2.1706,-2.14831 -0.11142,-0.44393 -1.02235,-1.21428 -1.90784,-1.61341 -1.29395,-0.58325 -4.06625,-1.493384 -6.19773,-2.034694 -1.94048,-0.4928 -5.41887,-1.157758 -5.50879,-1.067838 -0.0245,0.0245 0.008,0.267508 0.10098,0.576748 0.70004,2.326034 0.88305,5.787164 0.45675,8.637814 l -0.0213,0.45648 0.51855,-0.0237 c 0.31778,-0.0145 1.02312,-0.15467 1.57286,-0.25038 z M 392.9355,90.570406 c 0.61036,-0.626024 1.51171,-1.444219 2.003,-1.818211 1.03198,-0.785581 2.52209,-1.766532 2.68344,-1.766532 0.15607,0 0.73022,-0.465984 0.73022,-0.592651 0,-0.05787 -0.51594,-0.408289 -1.14653,-0.778717 -0.63059,-0.370429 -1.5434,-0.932779 -2.02847,-1.249666 -1.12344,-0.733922 -5.80795,-3.051851 -6.84307,-3.385996 -1.84152,-0.594459 -2.56832,0.390506 -1.7981,2.436796 0.60113,1.59705 2.56156,5.285535 3.72783,7.013784 0.75047,1.112089 1.1416,1.508613 1.36692,1.385759 0.10727,-0.05849 0.69441,-0.618541 1.30476,-1.244566 z m 30.69906,0.267622 c 1.18827,-1.476289 3.60937,-5.751412 4.23263,-7.473874 0.82929,-2.291831 0.13288,-3.076983 -2.08409,-2.349696 -1.94675,0.638638 -9.79205,4.864507 -9.79205,5.274482 0,0.107623 0.26577,0.331199 0.61736,0.519349 1.41622,0.757876 3.09369,2.001479 5.12455,3.799134 0.60639,0.536759 1.16326,0.95615 1.23749,0.93198 0.0742,-0.02417 0.37307,-0.339789 0.66411,-0.701375 z M 410.42521,83.2227 c -0.10291,-2.250116 -0.87048,-5.600587 -1.62275,-7.083372 -0.43073,-0.84902 -1.67747,-1.174646 -2.46601,-0.644079 -0.72286,0.486373 -1.48523,2.412529 -1.9293,4.874448 -0.19161,1.062267 -0.37429,4.000129 -0.26625,4.281691 0.0491,0.127882 0.67405,0.158812 3.20893,0.158812 h 3.14799 z"
       id="path46" /><path
       style="fill:#afc549;fill-opacity:1;stroke:#000000;stroke-width:0.675"
       d="m 1461.625,405.00648 c -10.7023,-1.9376 -31.5103,-7.99128 -37.75,-10.98261 -5.1523,-2.47005 -7.5783,-5.22231 -6.6272,-7.5185 1.339,-3.23277 10.1934,-7.4352 23.9011,-11.34391 8.7054,-2.48228 22.5381,-5.68617 26.1457,-6.05579 l 1.6527,-0.16932 -0.2071,1.10894 c -0.114,0.60992 -0.4977,2.25488 -0.8527,3.65547 -1.1889,4.69005 -1.6678,8.16993 -1.8132,13.17424 -0.1245,4.2819 0.207,13.9447 0.5938,17.3125 l 0.1507,1.3125 -1.3469,-0.0205 c -0.7408,-0.0112 -2.4719,-0.22413 -3.8469,-0.47306 z"
       id="path47"
       transform="scale(0.26458333)" /><path
       style="fill:#afc549;fill-opacity:1;stroke:#000000;stroke-width:0.675"
       d="m 1453.6161,476.91848 c -1.9327,-0.74739 -2.8661,-2.02103 -2.8661,-3.91091 0,-2.23926 1.2537,-5.56518 5.2059,-13.8109 3.5974,-7.50556 7.1104,-13.62671 12.7297,-22.18055 4.1979,-6.39026 5.9748,-8.76612 6.5561,-8.76612 0.43,0 1.3029,1.03066 3.3879,4 4.5106,6.42397 12.699,14.61086 18.4208,18.41747 1.8804,1.25101 3.2451,2.33212 3.3463,2.65094 0.1346,0.42405 -0.035,0.71842 -0.8004,1.3861 -2.6653,2.32617 -8.2252,6.15756 -13.8484,9.54309 -3.6515,2.19844 -16.6895,8.76458 -21.0938,10.62317 -4.8634,2.05233 -9.0281,2.82495 -11.038,2.04771 z"
       id="path48"
       transform="scale(0.26458333)" /><path
       style="fill:#afc549;fill-opacity:1;stroke:#000000;stroke-width:0.675"
       d="m 1478.4274,345.9375 c -2.9028,-2.9112 -9.0521,-13.23586 -14.3313,-24.0625 -1.408,-2.8875 -2.8658,-6.15 -3.2396,-7.25 -0.8986,-2.64464 -1.096,-5.51224 -0.4744,-6.89076 1.1479,-2.54561 4.2087,-2.82779 9.0553,-0.83482 3.2961,1.3554 12.2492,5.67117 17.2929,8.33595 3.9239,2.07317 15.7181,9.12671 18.1238,10.83898 l 0.7291,0.51895 -0.9601,0.82993 c -0.528,0.45646 -1.5418,1.09628 -2.2529,1.42182 -1.4744,0.675 -5.6622,3.4338 -9.0384,5.9543 -2.6347,1.96688 -4.7756,3.89261 -9.7262,8.74853 -1.9356,1.89867 -3.6542,3.45212 -3.8191,3.45212 -0.1648,0 -0.7764,-0.47813 -1.3591,-1.0625 z"
       id="path49"
       transform="scale(0.26458333)" /><path
       style="fill:#afc549;fill-opacity:1;stroke:#000000;stroke-width:0.675"
       d="m 1532.125,451.74617 c -7.6324,-0.81094 -17.7485,-4.50596 -25.258,-9.22576 -10.6299,-6.681 -19.2533,-16.6558 -23.982,-27.74015 -5.3388,-12.51458 -6.4159,-26.21068 -3.032,-38.55724 5.2972,-19.32805 20.1398,-34.38534 40.522,-41.10824 7.0977,-2.34111 10.7542,-2.8579 20.25,-2.86199 6.9559,-0.003 10.065,0.29437 14.2018,1.35834 4.6996,1.20873 8.003,2.42107 12.2982,4.51341 6.3113,3.07447 10.9075,6.26758 15.8332,10.99983 5.3167,5.1079 9.263,10.42125 12.5134,16.84797 4.2985,8.49929 5.8542,15.22122 5.8789,25.40266 0.023,9.39415 -1.4286,16.47719 -5.0285,24.53913 -4.7779,10.70026 -13.952,20.89483 -24.5574,27.289 -6.1076,3.68239 -13.3918,6.58333 -19.8287,7.89682 -3.9211,0.80013 -14.9702,1.16054 -19.8109,0.64622 z m 15,-5.11105 c 12.1894,-1.7344 22.6567,-6.6975 31.052,-14.72341 7.8873,-7.54038 13.588,-17.99837 16.1054,-29.54572 1.0533,-4.83168 0.9016,-16.03562 -0.2899,-21.41118 -1.4778,-6.66713 -4.8499,-14.26414 -9.0432,-20.37337 -4.2581,-6.20357 -12.1376,-13.55964 -18.1369,-16.93197 -5.6717,-3.18816 -13.0798,-5.6761 -19.3389,-6.49478 -3.6768,-0.4809 -7.4735,-0.74174 -7.4735,-0.51344 0,0.0983 0.8878,1.37241 1.9729,2.83127 8.8692,11.92446 14.2405,24.65127 16.2861,38.58865 2.5946,17.67818 -0.1695,36.06674 -7.6382,50.81383 -2.8235,5.57522 -4.6223,8.27813 -10.5124,15.79662 -0.7742,0.98814 -1.3336,1.91626 -1.2432,2.0625 0.2383,0.38554 5.279,0.32512 8.2598,-0.099 z"
       id="path50"
       transform="scale(0.26458333)" /><path
       style="fill:#afc549;fill-opacity:1;stroke:#000000;stroke-width:0.675"
       d="m 1530.25,320.2387 c -1.4438,-0.0976 -2.6709,-0.19122 -2.727,-0.20807 -0.2039,-0.0612 0.2355,-9.24001 0.5953,-12.43457 0.9035,-8.0237 3.3869,-16.37971 6.005,-20.20545 1.8286,-2.67207 4.4442,-3.51309 7.44,-2.39222 2.5468,0.95288 3.7263,2.79064 5.641,8.78936 2.3416,7.33608 4.0457,17.76634 4.0457,24.76222 V 320.5 l -9.1875,-0.0419 c -5.0531,-0.0231 -10.3688,-0.12178 -11.8125,-0.21937 z"
       id="path51"
       transform="scale(0.26458333)" /><path
       style="fill:#afc549;fill-opacity:1;stroke:#000000;stroke-width:0.675"
       d="m 1597.0816,344.8349 c -0.6636,-0.50331 -2.3879,-1.95034 -3.8316,-3.21563 -6.2437,-5.47187 -12.4148,-10.06091 -17.625,-13.10644 -2.4696,-1.44353 -3.125,-1.94261 -3.125,-2.37949 0,-0.30535 4.1428,-3.10847 7.1702,-4.85159 7.7425,-4.45787 23.7147,-12.64505 27.7685,-14.23389 4.3811,-1.71706 7.8743,-2.14934 9.2452,-1.14406 2.7338,2.0046 1.8683,6.83102 -2.8865,16.0962 -3.4709,6.76347 -7.0111,12.84879 -10.3829,17.84706 -1.8947,2.8087 -4.4749,5.90294 -4.9223,5.90294 -0.1121,0 -0.7469,-0.4118 -1.4106,-0.9151 z"
       id="path52"
       transform="scale(0.26458333)" /><path
       style="fill:#afc549;fill-opacity:1;stroke:#000000;stroke-width:0.675"
       d="m 1612.002,405.0625 c 0,-0.24063 0.1705,-1.7875 0.3764,-3.4375 1.1479,-9.19808 0.5802,-19.92438 -1.5127,-28.5805 -0.4761,-1.96928 -0.8657,-3.6994 -0.8657,-3.84471 0,-0.86389 19.5313,3.38719 29,6.31201 9.572,2.9567 15.0713,5.0824 17.7423,6.85806 1.9521,1.29779 4.1659,3.55227 4.3986,4.47956 0.6158,2.45356 -2.1259,5.21538 -7.6954,7.7519 -7.2155,3.28615 -26.4337,8.64239 -36.8888,10.28113 -4.6905,0.73518 -4.5572,0.72992 -4.5547,0.18005 z"
       id="path53"
       transform="scale(0.26458333)" /><path
       style="fill:#afc549;fill-opacity:1;stroke:#000000;stroke-width:0.675"
       d="m 1620.0636,476.99782 c -4.1449,-1.08615 -13.6167,-5.5586 -23.8136,-11.24448 -8.9628,-4.99772 -16.6093,-10.04315 -17.6669,-11.65721 -0.3814,-0.58206 -0.3711,-0.6487 0.1946,-1.25401 0.3285,-0.35161 1.7223,-1.37874 3.0973,-2.28252 3.6452,-2.39597 5.5708,-3.98658 9.5886,-7.92074 4.3273,-4.23717 6.559,-6.84964 9.2766,-10.85928 1.1276,-1.66381 2.1504,-3.08696 2.2727,-3.16256 0.4414,-0.27281 1.7464,0.66694 2.7066,1.94914 1.2634,1.68701 10.0902,15.5447 12.6971,19.93384 7.0098,11.80232 10.3998,20.02762 9.7286,23.60535 -0.2057,1.09609 -1.4667,2.59556 -2.5708,3.05689 -1.1172,0.46683 -3.3568,0.40001 -5.5108,-0.16442 z"
       id="path54"
       transform="scale(0.26458333)" /><path
       style="fill:#afc549;fill-opacity:1;stroke:#000000;stroke-width:0.675"
       d="m 1537.125,508.92478 c -1.8545,-0.88707 -2.9883,-2.22447 -4.4931,-5.29978 -4.7437,-9.69441 -9.3443,-32.94729 -7.8746,-39.8002 l 0.2573,-1.1998 h 14.3981 14.398 l -0.1351,5.75 c -0.1732,7.37319 -1.0421,13.55849 -3.0613,21.79218 -3.5406,14.43668 -8.3989,21.19253 -13.4893,18.7576 z"
       id="path55"
       transform="scale(0.26458333)" /></g></svg>
