<?xml version="1.0" encoding="UTF-8" standalone="no"?>
<!-- Created with Inkscape (http://www.inkscape.org/) -->

<svg
   width="46.78096mm"
   height="76.166756mm"
   viewBox="0 0 46.78096 76.166756"
   version="1.1"
   id="svg1"
   xml:space="preserve"
   xmlns="http://www.w3.org/2000/svg"
   xmlns:svg="http://www.w3.org/2000/svg"><defs
     id="defs1" /><g
     id="layer1"
     transform="translate(-438.91914,-79.901232)"><path
       style="fill:#000000"
       d="m 460.23713,155.49355 c -6.81287,-2.36962 -11.56753,-5.07431 -15.10167,-8.59059 -3.29668,-3.28002 -5.53168,-7.32937 -6.08498,-11.02466 -0.16199,-1.08191 -0.16918,-1.46309 -0.0487,-2.58361 0.3366,-3.13087 1.56541,-7.27693 3.00874,-10.15163 0.72524,-1.44447 1.3587,-2.37146 2.16907,-3.17419 l 0.65292,-0.64676 0.027,0.64676 c 0.0931,2.2259 0.49289,4.45104 1.09804,6.1107 0.23735,0.65097 0.46094,0.92242 0.46346,0.56267 5.6e-4,-0.0808 0.10594,-1.09949 0.23417,-2.26365 0.90633,-8.22827 2.43543,-14.79641 4.66398,-20.03386 0.52913,-1.24351 2.15651,-4.513808 2.43726,-4.897758 0.12564,-0.171811 0.19523,-0.01503 0.47782,1.076368 1.38336,5.34267 4.25094,11.40654 8.02794,16.97608 1.34098,1.97741 2.64863,3.61778 2.71803,3.40959 0.0822,-0.24669 -1.45733,-3.18328 -3.5688,-6.80723 -3.42588,-5.87989 -4.6517,-8.33369 -5.587,-11.18384 -2.39543,-7.2996 -0.91213,-13.54821 4.44087,-18.707811 1.76878,-1.704871 3.64742,-2.912407 5.77986,-3.715126 0.71065,-0.267513 2.14483,-0.649047 2.2068,-0.587076 0.0157,0.01575 -0.15321,0.601655 -0.37546,1.30201 -0.45333,1.42847 -0.89726,3.603269 -1.13066,5.53902 -0.24408,2.024337 -0.21008,7.168036 0.0598,9.048276 0.41348,2.880612 1.27623,5.761327 2.39297,7.990077 0.97571,1.94732 1.77307,3.16506 4.62811,7.06813 2.94589,4.02728 4.09408,5.85931 4.99706,7.97321 0.27085,0.63406 0.53882,1.15685 0.59549,1.16176 0.0567,0.005 0.33795,-0.38158 0.62505,-0.85886 0.75636,-1.25737 2.00422,-2.46838 3.06959,-2.97894 0.47384,-0.22708 0.88237,-0.39203 0.90785,-0.36655 0.0255,0.0255 -0.0604,0.56693 -0.1909,1.20323 -0.40727,1.98613 -0.51819,3.0896 -0.51819,5.15504 0,3.37151 0.40319,5.48476 1.7798,9.32845 0.68465,1.91165 0.7387,2.46674 0.41987,4.31229 -1.00974,5.84482 -5.6138,11.79529 -12.10569,15.64586 -3.0368,1.80123 -9.83095,4.64231 -11.08903,4.63704 -0.23881,-0.001 -1.17503,-0.25949 -2.08049,-0.57442 z m 4.79178,-4.60474 c 1.66671,-0.33829 3.10394,-0.84339 4.9684,-1.74612 7.01336,-3.39567 12.64271,-10.20358 12.64083,-15.28731 -2.8e-4,-0.7729 -0.0949,-1.36915 -0.40273,-2.53883 -0.22129,-0.84079 -0.48916,-1.9785 -0.59526,-2.52824 -0.26758,-1.38643 -0.3569,-4.32872 -0.18509,-6.09703 0.0776,-0.79867 -0.21735,-0.45458 -0.25123,-0.48845 -0.12514,-0.12514 -0.93544,0.80437 -1.45532,2.03455 -0.84003,1.98773 -1.10081,3.19452 -1.23756,5.72686 -0.12249,2.26815 -0.30215,3.3483 -0.68012,4.08884 -0.21734,0.42586 -0.68025,0.93709 -0.76015,0.83952 -0.0217,-0.0265 -0.12732,-0.68327 -0.23461,-1.45938 -0.28998,-2.09764 -0.25562,-3.19724 0.15799,-5.05648 0.69125,-3.10725 0.38374,-5.38368 -1.17794,-8.71994 -0.79449,-1.69728 -1.62749,-3.07659 -4.00158,-6.6259 -2.99731,-4.48104 -3.95066,-6.11606 -5.15265,-8.83696 -2.6622,-6.026327 -3.1675,-12.06692 -1.59081,-19.017133 0.22551,-0.994034 0.30487,-1.714036 0.27237,-1.746535 -0.12351,-0.123509 -2.0329,1.198506 -2.99599,2.11015 -2.36994,2.243341 -3.94258,5.099248 -4.40817,8.005234 -0.19641,1.225843 -0.079,3.926828 0.2296,5.281537 0.89218,3.916727 2.30247,6.973377 6.63211,14.374447 1.09905,1.87871 2.38447,4.15667 2.85648,5.06213 3.63614,6.97527 4.94354,13.57918 3.67828,18.57963 -0.2919,1.15365 -1.09922,2.89227 -1.79719,3.87038 -0.65723,0.92104 -2.30192,2.47614 -3.16104,2.98886 -1.09068,0.65092 -2.50115,1.20372 -3.706,1.45249 -0.951,0.19635 -1.44427,0.22626 -2.96358,0.17971 -1.88304,-0.0577 -2.57955,-0.18649 -3.90611,-0.72231 -2.17348,-0.8779 -3.73872,-2.47278 -4.45109,-4.53533 -0.36796,-1.0654 -0.45767,-3.31401 -0.17149,-4.29845 0.76082,-2.61712 3.03357,-4.50862 5.79241,-4.82075 1.89378,-0.21425 3.97486,0.86697 4.79816,2.49289 0.30175,0.5959 0.34767,0.81367 0.34346,1.62862 -0.004,0.79685 -0.0571,1.04539 -0.34616,1.62492 -0.61312,1.22905 -1.57592,1.83714 -2.91564,1.84148 -0.61963,0.002 -0.92615,-0.0625 -1.37339,-0.28916 -0.31665,-0.16046 -0.60088,-0.33244 -0.63162,-0.38218 -0.0307,-0.0497 0.40208,-0.0904 0.96182,-0.0904 0.86726,0 1.09526,-0.0435 1.54232,-0.29398 1.41471,-0.79277 1.53677,-2.5747 0.24066,-3.51359 -0.68324,-0.49494 -1.20869,-0.64259 -2.02379,-0.56868 -3.34179,0.30302 -4.73993,4.734 -2.27236,7.20157 1.4143,1.4143 3.64349,1.81066 5.90801,1.05049 3.61159,-1.21237 5.56222,-4.57005 5.19482,-8.94198 -0.24753,-2.94552 -1.36696,-5.62986 -4.6254,-11.09151 -3.99716,-6.69986 -6.09669,-10.90302 -7.39207,-14.79857 -0.26345,-0.79228 -0.51409,-1.44051 -0.55698,-1.44051 -0.2268,0 -1.10474,2.38043 -1.69143,4.58612 -0.86064,3.23563 -1.21582,5.46216 -1.77272,11.1125 -0.53368,5.41483 -0.88335,7.79867 -1.42304,9.70138 -0.1009,0.35572 -0.57237,1.5728 -1.0477,2.70463 -0.47534,1.13183 -0.98094,2.48121 -1.12356,2.99861 -0.14261,0.51741 -0.28435,1.02012 -0.31496,1.11713 -0.0832,0.26374 -0.50079,-0.7665 -0.6294,-1.55291 -0.079,-0.48293 -0.0582,-1.1091 0.0742,-2.23426 0.10393,-0.88351 0.1499,-1.81896 0.10572,-2.15125 -0.0911,-0.685 -0.49613,-1.81197 -1.33135,-3.70417 -0.3283,-0.74377 -0.65919,-1.63013 -0.73531,-1.96967 -0.0761,-0.33955 -0.27348,0.011 -0.31731,0.011 -0.10596,0 -0.65805,1.30783 -0.94902,2.48782 -0.66308,2.68908 -0.82771,5.44114 -0.43419,7.25833 0.38398,1.7731 1.27392,3.69185 2.51689,5.42648 0.85025,1.18657 2.82821,3.26355 4.19794,4.4081 3.47756,2.90587 8.22452,5.10631 12.05324,5.58726 0.77171,0.0969 2.87856,-0.0525 4.02743,-0.28569 z m -14.38532,-20.08205 c 1.39413,-2.77279 2.00606,-5.61531 2.01169,-9.34461 0.003,-1.99915 0.0549,-2.37576 0.53745,-3.90393 0.30374,-0.96181 1.51563,-3.57467 1.85441,-3.99815 0.18156,-0.22695 0.1861,-0.22283 0.12968,0.11759 -0.18398,1.1101 -0.40747,3.4077 -0.40571,4.17103 0.003,1.50769 0.24719,2.31325 1.31194,4.33641 0.5328,1.01239 1.16884,2.23758 1.41342,2.72265 0.43476,0.86224 0.95531,2.23613 0.87693,2.3145 -0.0217,0.0217 -0.45786,-0.3199 -0.96932,-0.75904 -1.18187,-1.01477 -2.48834,-1.94008 -2.62233,-1.85728 -0.0569,0.0352 -0.0774,0.39526 -0.0457,0.80023 0.12155,1.55127 -0.78739,3.76005 -2.07169,5.03434 -0.80308,0.79682 -1.37073,1.13816 -2.08568,1.25418 l -0.41541,0.0674 z"
       id="path56" /><path
       style="fill:#fc3205;fill-opacity:1;stroke:#000000;stroke-width:1.90919"
       d="m 1738.0685,570.282 c -14.5955,-3.25356 -30.2521,-11.29257 -42.4264,-21.7843 -13.1292,-11.3146 -21.3759,-23.95667 -23.8633,-36.58207 -0.979,-4.96946 -1.0301,-7.00163 -0.3441,-13.68653 0.764,-7.4456 2.7421,-16.4701 4.6176,-21.06625 0.8342,-2.04452 0.9529,-1.84674 4.9659,8.2769 l 4.1114,10.37147 -0.2239,10.01159 c -0.1637,7.32123 0.037,10.62914 0.7459,12.30968 0.5333,1.26396 1.1989,2.2981 1.479,2.2981 0.2802,0 0.9082,-1.35234 1.3956,-3.0052 0.4874,-1.65287 2.7712,-7.85395 5.0753,-13.78017 4.8836,-12.56125 6.0235,-18.37149 8.7759,-44.73292 2.8354,-27.15542 5.3858,-40.47001 10.4141,-54.36634 l 2.1545,-5.95413 1.0415,2.75985 c 7.6965,20.39502 12.5192,30.2911 26.3285,54.02509 14.5202,24.95602 18.2682,33.40358 19.8071,44.64293 1.9739,14.41603 -4.1107,27.74294 -15.1291,33.137 -6.1008,2.98663 -11.2277,3.89366 -16.1879,2.86392 -13.8505,-2.87534 -19.0471,-18.47365 -9.2426,-27.74264 4.0195,-3.79997 10.3098,-4.57729 14.4558,-1.78635 4.6955,3.16083 5.2231,7.74578 1.3215,11.48378 -1.7175,1.64542 -2.8945,2.05747 -6.8599,2.40145 l -4.7868,0.41524 2.0097,1.35746 c 1.1087,0.74892 3.6447,1.48109 5.6568,1.63323 13.9504,1.05481 18.629,-17.78264 6.4244,-25.86662 -6.4288,-4.25823 -13.7841,-4.40557 -21.9571,-0.43983 -4.3681,2.11948 -9.7032,7.63455 -11.7962,12.19404 -2.1622,4.71015 -2.1122,15.72669 0.097,21.39856 3.1032,7.96667 11.3651,14.75841 21.009,17.27031 5.4937,1.43092 18.4924,1.43008 23.9888,-0.002 11.8387,-3.08357 21.8648,-11.32781 27.1748,-22.34526 4.2809,-8.88193 5.2348,-14.27636 4.7977,-27.1286 -0.3866,-11.36617 -1.8673,-18.9483 -6.0218,-30.83581 -2.3643,-6.76533 -7.1759,-17.84572 -9.6093,-22.129 -0.9051,-1.59314 -6.3287,-11.10607 -12.0524,-21.13984 -19.2568,-33.75759 -24.377,-47.14432 -24.4058,-63.80938 -0.014,-7.9775 1.1132,-13.27162 4.2679,-20.049 4.078,-8.76077 11.7209,-17.6346 20.232,-23.49037 3.2215,-2.21647 3.2646,-2.22484 2.8576,-0.55463 -3.0317,12.43835 -3.681,18.29025 -3.6794,33.16206 0,12.09876 0.2653,16.40331 1.2931,21.08265 1.8504,8.42479 5.0668,17.76721 8.9965,26.13146 4.2113,8.96342 6.1344,12.19636 18.538,31.16291 11.0543,16.90349 15.2862,24.6997 17.9057,32.9869 2.6684,8.44173 2.8464,12.79281 0.9807,23.97284 -1.4843,8.89453 -1.5436,10.2477 -0.7396,16.8814 0.4807,3.96648 1.0375,7.47626 1.2373,7.79949 0.6774,1.09608 2.9877,-1.77658 4.0756,-5.06766 0.5955,-1.80157 1.4251,-7.41217 1.8435,-12.46798 0.9696,-11.71613 2.1448,-16.80183 5.573,-24.11743 4.9137,-10.48556 4.8468,-10.52808 4.8792,3.10172 0.025,10.60001 0.2567,12.9402 2.0163,20.38432 2.7916,11.81065 2.7219,19.13381 -0.2533,26.57988 -8.9592,22.42236 -37.6804,45.95101 -62.3776,51.10028 -7.6686,1.59886 -15.46,1.8764 -20.5877,0.73336 z m -30.0612,-74.51729 c 6.029,-4.07397 10.9693,-13.40851 10.9693,-20.72625 0,-1.86904 0.2471,-3.39824 0.5492,-3.39824 0.302,0 3.1648,2.06829 6.3617,4.5962 3.1969,2.5279 6.1176,4.59619 6.4905,4.59619 1.0551,0 -0.7135,-4.29645 -6.8921,-16.7433 -6.5865,-13.26845 -7.0753,-15.70778 -5.607,-27.9812 0.5001,-4.18077 0.6644,-7.6014 0.365,-7.6014 -0.7824,0 -5.8635,10.32744 -7.6951,15.64027 -1.2243,3.55152 -1.6779,7.07175 -2.1303,16.53309 -0.6582,13.76839 -2.4258,22.12728 -6.5805,31.11957 -1.3965,3.02257 -2.5391,5.77504 -2.5391,6.11658 0,1.05311 3.7421,-0.14705 6.7084,-2.15151 z"
       id="path57"
       transform="scale(0.26458333)" /></g></svg>
