<?xml version="1.0" encoding="UTF-8" standalone="no"?>
<!-- Created with Inkscape (http://www.inkscape.org/) -->

<svg
   width="57.905121mm"
   height="70.936943mm"
   viewBox="0 0 57.905121 70.936943"
   version="1.1"
   id="svg1"
   xml:space="preserve"
   xmlns="http://www.w3.org/2000/svg"
   xmlns:svg="http://www.w3.org/2000/svg"><defs
     id="defs1" /><g
     id="layer1"
     transform="translate(-375.82636,-54.433337)"><path
       style="fill:#000000"
       d="m 402.33053,125.34347 c -3.75151,-0.40835 -7.27211,-1.4372 -10.63338,-3.10748 -3.10808,-1.54446 -5.60089,-3.33952 -8.06588,-5.80822 -4.10641,-4.11258 -6.80068,-9.35037 -7.62367,-14.82082 -0.26235,-1.743855 -0.23594,-5.261435 0.0534,-7.107461 0.84158,-5.369938 3.1784,-10.014675 7.08358,-14.079524 l 1.27514,-1.327273 0.0276,-2.677593 c 0.0222,-2.149737 0.0781,-2.955777 0.28352,-4.088704 0.66558,-3.670567 1.9719,-6.941163 3.9869,-9.981888 3.71619,-5.607899 8.54072,-8.381014 13.65013,-7.846028 2.17714,0.22796 4.42169,0.95951 6.60664,2.153256 0.54974,0.300353 2.08433,1.294542 3.41018,2.209308 3.78613,2.61221 5.34196,3.411186 6.64258,3.411186 0.55061,0 0.69908,-0.05189 1.0632,-0.37159 0.23277,-0.204375 0.55837,-0.638301 0.72355,-0.964281 0.77813,-1.535549 1.31161,-1.958595 2.464,-1.953931 1.83953,0.0074 3.82569,1.622418 4.97472,4.045016 0.58962,1.243141 0.73354,1.885557 0.73171,3.266099 -0.005,3.786626 -3.0291,6.055303 -6.36684,7.965796 -1.4782,0.846107 -3.4606,1.472332 -1.86279,2.553378 6.14509,4.279808 11.34117,9.403912 12.64456,16.739141 0.39341,2.214019 0.44541,5.964982 0.11233,8.102583 -0.87718,5.62938 -3.43951,10.64901 -7.54407,14.77889 -4.59192,4.62026 -10.2364,7.54457 -16.69273,8.64822 -1.05557,0.18044 -2.06312,0.25136 -3.94577,0.27772 -1.39054,0.0195 -2.73991,0.0124 -2.99861,-0.0158 z m 6.52638,-7.31794 c 11.67156,-2.04371 19.68018,-11.58589 18.81105,-22.413122 -0.36238,-4.514402 -1.88532,-8.175218 -4.7477,-11.412432 -5.08728,-5.753469 -14.977,-8.473775 -23.25809,-6.39746 -1.99868,0.50113 -2.45165,0.435626 -2.11388,-0.305695 0.33942,-0.74495 4.4574,-2.120961 7.07561,-2.364299 0.4959,-0.04609 0.86688,-0.138263 0.89959,-0.223512 0.0744,-0.193857 -0.51704,-1.94912 -0.72975,-2.165764 -0.50762,-0.517009 -5.66564,1.128698 -9.5265,3.039504 -7.92708,3.923245 -12.8297,10.656286 -13.58064,18.651051 -0.47519,5.058936 1.28124,10.654829 4.66494,14.862269 3.97757,4.94589 9.78233,8.18401 16.03778,8.9465 1.41261,0.17218 4.91623,0.0546 6.46759,-0.21704 z M 391.30258,75.900741 c 1.28167,-0.840722 3.67766,-1.980745 5.61869,-2.673399 0.90546,-0.323113 1.79667,-0.645317 1.98047,-0.716007 l 0.33417,-0.128529 -0.25085,-0.380984 c -1.33833,-2.032685 -2.13055,-4.716794 -1.89145,-6.408389 0.29852,-2.111906 2.05135,-3.746979 4.16207,-3.882436 1.81698,-0.116607 3.1523,0.538981 6.66049,3.270037 2.33035,1.814125 3.85862,2.798228 5.93843,3.823953 2.28743,1.128116 3.46095,1.475221 5.24343,1.550906 1.06757,0.04533 1.51346,0.01439 2.05787,-0.142774 2.20815,-0.63748 3.76703,-2.31805 3.90323,-4.207932 0.0518,-0.718333 0.0211,-0.867751 -0.32028,-1.561228 -0.3882,-0.788539 -0.77981,-1.16297 -1.14316,-1.092996 -0.11387,0.02193 -0.42454,0.350053 -0.69038,0.729161 -1.53715,2.192135 -4.09345,2.530188 -7.59679,1.004625 -1.2275,-0.53453 -2.30065,-1.177183 -5.39327,-3.229766 -4.6016,-3.054092 -6.24847,-3.803494 -8.58573,-3.906898 -2.53779,-0.112275 -4.50211,0.807512 -6.76921,3.169658 -2.04442,2.130139 -3.56648,5.1587 -4.28796,8.532091 -0.43189,2.019368 -0.46536,6.851098 -0.0475,6.851098 0.0895,0 0.57445,-0.270086 1.07769,-0.600191 z m 22.30119,-4.961098 c 0,0 -2.50614,-0.944733 -4.38406,-2.392632 -1.69295,-1.305275 -5.32312,-5.506477 -8.00149,-2.836626 -1.93774,1.931578 0.50117,5.103067 1.65972,4.969799 0,0 1.72343,-0.296893 2.07069,-0.247283 0.53754,-0.110081 3.21349,2.515825 6.33074,2.597505 0,0 3.11262,0.485149 4.23515,0.110972 0.60804,-0.53788 -1.11562,-1.634622 -1.91075,-2.201735 z"
       id="path76" /><path
       style="fill:#e99a2d;fill-opacity:1;stroke:#000000;stroke-width:0.954594"
       d="m 1518.0385,446.36034 c -35.4217,-5.77538 -64.7984,-31.66905 -73.0653,-64.40248 -1.8711,-7.40876 -2.2967,-10.93512 -2.2759,-18.85853 0.021,-8.14021 0.6553,-12.81373 2.7971,-20.62387 6.264,-22.84109 22.6018,-42.17351 46.1594,-54.62002 11.1215,-5.87599 28.6863,-12.27632 35.7467,-13.02551 1.8418,-0.19543 2.038,-0.14521 2.5632,0.6564 0.5423,0.82766 1.9658,4.71298 2.4548,6.70002 0.2735,1.11132 0.2744,1.11101 -5.2009,1.8796 -9.1055,1.27817 -21.3905,5.31762 -24.1695,7.94716 -1.156,1.09386 -1.4197,2.48749 -0.5867,3.10091 0.8269,0.60896 2.5237,0.41614 8.6258,-0.98019 7.0507,-1.6134 11.0234,-2.11855 18.4203,-2.34224 10.3255,-0.31226 18.3376,0.6011 28.445,3.24267 15.0497,3.93322 28.1355,11.11242 37.6542,20.65809 13.1055,13.14263 19.9511,29.39017 20.7188,49.17475 0.5948,15.32658 -3.6793,30.37545 -12.401,43.66384 -11.1347,16.96479 -28.9998,29.62572 -49.8765,35.3474 -8.1729,2.23993 -11.9773,2.71328 -22.985,2.85977 -7.4672,0.0994 -10.6673,0.007 -13.0245,-0.37777 z"
       id="path77"
       transform="scale(0.26458333)" /><path
       style="fill:#e99a2d;fill-opacity:1;stroke:#000000;stroke-width:0.954594"
       d="m 1474.4128,287.88085 c -0.4366,-1.56097 -0.2838,-17.27789 0.2019,-20.77126 1.3303,-9.56912 5.4465,-20.27655 11.087,-28.84072 2.7045,-4.10628 10.2701,-11.81227 14.0127,-14.27269 5.4928,-3.61097 10.6997,-5.01671 17.3752,-4.69085 9.0616,0.44233 13.8438,2.74752 36.9543,17.81335 11.1353,7.25913 15.8824,9.69634 22.2758,11.43656 3.4351,0.93501 9.1718,1.29112 11.8461,0.73534 4.1975,-0.87233 7.4413,-3.13 10.8455,-7.54845 1.8892,-2.45216 2.7187,-2.60321 4.3145,-0.78566 3.4483,3.92735 3.9382,8.68762 1.4262,13.85792 -2.5761,5.30236 -8.5993,9.61566 -14.979,10.72664 -4.3918,0.7648 -12.1954,-0.15057 -17.1455,-2.0112 -5.8645,-2.20435 -14.1051,-6.4618 -19.9978,-10.33173 -1.9445,-1.27705 -6.7971,-4.78266 -10.7834,-7.79026 -11.0485,-8.33593 -14.8682,-10.64863 -19.6081,-11.8722 -9.5938,-2.47657 -19.4266,3.68602 -21.4146,13.4214 -1.3,6.36638 1.8052,17.45291 7.1835,25.64699 l 0.5895,0.89825 -5.7374,2.07376 c -9.958,3.59927 -16.9588,6.82518 -23.7529,10.94514 -2.1151,1.28257 -3.9752,2.33194 -4.1336,2.33194 -0.1584,0 -0.4104,-0.43752 -0.5599,-0.97227 z"
       id="path78"
       transform="scale(0.26458333)" /></g></svg>
