<?xml version="1.0" encoding="UTF-8" standalone="no"?>
<!-- Created with Inkscape (http://www.inkscape.org/) -->

<svg
   width="61.715256mm"
   height="75.565689mm"
   viewBox="0 0 61.715256 75.565689"
   version="1.1"
   id="svg1"
   xml:space="preserve"
   xmlns="http://www.w3.org/2000/svg"
   xmlns:svg="http://www.w3.org/2000/svg"><defs
     id="defs1" /><g
     id="layer1"
     transform="translate(-387.86744,-73.891021)"><path
       style="fill:#000000"
       d="m 417.60069,149.05816 c -1.17357,-0.5258 -2.21613,-1.12599 -4.8213,-2.77558 -3.4596,-2.19061 -4.19885,-2.5551 -9.81898,-4.84128 -7.0285,-2.85907 -9.84355,-4.43843 -12.07601,-6.77511 -1.41776,-1.48395 -2.23743,-3.09742 -2.81319,-5.53756 -0.19168,-0.81236 -0.22904,-1.28932 -0.18976,-2.42261 0.0583,-1.68314 0.37751,-2.87803 1.26823,-4.74784 l 0.5812,-1.22006 0.37974,0.0759 c 0.20886,0.0418 0.9843,0.36665 1.7232,0.72196 0.73891,0.35531 1.35968,0.6298 1.37949,0.60999 0.0198,-0.0198 -0.0997,-0.32484 -0.26552,-0.67783 -0.49417,-1.05179 -1.29815,-3.61056 -1.5587,-4.96076 -0.3849,-1.99462 -0.50652,-4.17288 -0.36224,-6.48804 0.34189,-5.48633 1.65378,-11.421217 3.18673,-14.416611 0.71802,-1.402997 1.63292,-2.629817 3.66997,-4.921179 3.26758,-3.675514 4.17174,-5.27727 4.62333,-8.190395 0.20722,-1.336766 0.16832,-4.450864 -0.0878,-7.024002 -0.0819,-0.823433 -0.11778,-1.528363 -0.0796,-1.566511 0.099,-0.099 1.76328,0.585815 2.75864,1.135132 5.48187,3.02529 10.35657,9.977559 12.07099,17.215566 0.52718,2.225666 0.66674,3.762206 0.66674,7.340863 0,1.799527 0.0317,3.430637 0.0706,3.624687 0.0941,0.47059 2.90521,4.26593 3.05138,4.11976 0.0302,-0.0302 -0.12794,-1.32005 -0.35138,-2.86639 -0.6522,-4.513767 -0.80467,-7.413337 -0.53519,-10.177988 0.8551,-8.772577 6.64693,-17.102416 13.92514,-20.027233 1.13767,-0.457183 1.2577,-0.434793 1.17791,0.219728 -0.31921,2.61845 -0.44178,5.560361 -0.29493,7.078844 0.33282,3.441653 1.22973,5.164471 4.76994,9.162252 3.13611,3.541461 3.90406,4.827104 5.16083,8.63983 2.67961,8.129257 3.14057,14.412947 1.32667,18.084737 l -0.38971,0.78887 0.20444,0.94074 c 0.11245,0.51741 0.20888,1.15682 0.2143,1.42091 0.005,0.26409 0.039,0.50934 0.0747,0.54498 0.0356,0.0356 0.32725,-0.0349 0.64802,-0.15679 0.32076,-0.12188 0.65397,-0.2216 0.74045,-0.2216 0.22885,0 1.19195,2.00302 1.55489,3.2338 0.42199,1.43101 0.52577,3.78649 0.23093,5.24156 -0.24251,1.19685 -0.73069,2.49243 -1.32599,3.51909 -0.66648,1.1494 -2.74679,3.1851 -4.32376,4.23104 -1.75826,1.16617 -5.30963,2.87674 -9.40741,4.53121 -5.28113,2.13224 -6.41508,2.71068 -10.99491,5.60856 -1.90602,1.20603 -4.1063,2.32864 -4.55475,2.32389 -0.17894,-0.002 -0.72221,-0.18126 -1.20728,-0.39858 z m 1.93191,-3.59325 c 1.01908,-0.35061 2.17423,-0.97101 4.1241,-2.21493 2.31396,-1.47618 3.47547,-2.07477 5.82084,-2.9998 1.06715,-0.4209 3.10444,-1.22338 4.52731,-1.7833 6.97796,-2.74593 10.59359,-5.23874 12.11203,-8.35068 0.8691,-1.78115 1.07301,-3.53614 0.63192,-5.43866 -0.18286,-0.78868 -0.32456,-0.79224 -1.44473,-0.0364 -2.36147,1.59351 -3.16098,2.47791 -4.15222,4.59309 -0.97388,2.07815 -2.04607,3.08861 -4.55996,4.29744 -1.25725,0.60456 -2.74319,1.06066 -3.18093,0.97636 -0.16489,-0.0318 -0.0372,-0.18941 0.54186,-0.66898 0.41667,-0.34508 0.95439,-0.85415 1.19493,-1.13127 l 0.43734,-0.50384 -1.67206,0.0144 c -0.91964,0.008 -1.8705,-0.0276 -2.11304,-0.0791 l -0.44097,-0.0935 0.002,-0.72962 c 0.005,-1.66008 0.42762,-3.38943 1.06141,-4.34626 0.47641,-0.71925 1.33788,-1.28906 3.84307,-2.54193 3.27032,-1.63553 5.5485,-3.04679 6.93294,-4.29474 l 0.55119,-0.57001 -0.15347,-0.59557 c -0.33831,-1.31287 -1.62411,-3.10834 -3.35609,-4.76412 -1.34784,-1.28855 -2.51447,-2.20095 -5.51163,-4.31055 -4.73628,-3.33371 -7.37017,-5.71011 -9.95304,-8.98002 -0.46784,-0.59229 -0.69271,-0.67932 -0.71409,-0.67932 -0.0214,0 -0.1408,-0.17267 -0.051,0.1022 0.85889,2.62968 2.78116,9.21 3.39222,11.61227 1.17994,4.63871 1.51076,7.07711 1.25238,9.23102 -0.0776,0.64675 -0.16654,1.21721 -0.19767,1.26768 -0.0311,0.0505 -0.31457,-0.33746 -0.62986,-0.86204 -0.62337,-1.0372 -1.81418,-2.49341 -1.99472,-2.49341 -0.19344,0 -0.12977,0.62944 0.18794,1.91138 0.16831,0.67909 0.34743,1.4047 0.39804,1.61246 l 0.092,0.37773 -0.47775,-0.24373 c -1.57617,-0.8041 -2.93965,-2.83665 -5.44019,-8.10972 -0.74241,-1.56559 -1.62171,-3.32755 -1.95399,-3.91548 -0.82911,-1.46698 -3.00884,-4.73901 -3.15012,-4.73901 -0.19252,0 -0.13712,1.50342 0.12544,3.22264 0.31538,2.06505 0.34168,4.26642 0.0637,5.32751 -0.22892,0.87366 -0.86501,2.27077 -1.23141,2.70463 l -0.24826,0.29398 -0.005,-0.88194 c -0.005,-0.91359 -0.24481,-2.74689 -0.48408,-3.6971 -0.12842,-0.51002 -0.15069,-0.53324 -0.34385,-0.35843 -0.11359,0.1028 -0.5378,0.80599 -0.94269,1.56265 -1.10792,2.07051 -1.61474,2.81617 -2.58353,3.80104 -0.72949,0.7416 -2.38104,1.98443 -2.63702,1.98443 -0.13281,0 -0.0646,-1.87641 0.099,-2.72368 0.31143,-1.61266 0.8708,-2.91175 2.67538,-6.21335 1.11742,-2.0444 1.60652,-3.13639 2.19137,-4.8926 1.05224,-3.15972 1.55006,-6.201777 1.63658,-10.000787 0.0698,-3.063798 -0.0631,-4.813374 -0.50352,-6.632467 -1.0262,-4.238061 -3.63799,-8.230014 -7.44869,-11.384818 -0.47887,-0.396446 -0.93045,-0.720811 -1.00351,-0.720811 -0.098,0 -0.0953,0.285417 0.0103,1.087732 0.20467,1.555202 0.1952,4.221221 -0.019,5.35042 -0.4765,2.511915 -1.1825,3.787731 -3.88808,7.0262 -2.24849,2.691351 -3.00191,4.168713 -3.28184,6.435221 -0.0874,0.707873 -0.18827,1.316351 -0.22409,1.352173 -0.14126,0.14126 -0.34799,-0.664822 -0.41388,-1.613783 l -0.12787,-0.806602 -0.32467,0.453824 c -0.61218,0.855691 -1.02172,2.490851 -1.42865,4.666198 -0.61587,3.29226 -0.7579,4.5526 -0.75958,6.74028 -0.002,2.31819 0.12816,3.214 0.84515,5.82671 0.24759,0.90223 0.40277,1.65932 0.34483,1.68242 -0.18425,0.0735 -0.68346,-0.48831 -1.1084,-1.24732 -0.22631,-0.40423 -0.43316,-0.60577 -0.49379,-0.60577 -0.15554,0 -0.0383,1.57408 0.23587,2.96643 0.41832,2.12429 1.14331,3.49658 2.61196,4.944 1.17204,1.15511 2.55468,2.04963 5.14679,3.32981 2.41953,1.19495 2.83789,1.51685 3.38818,2.60696 0.56897,1.12712 1.05422,4.21152 0.69864,4.44076 -0.0885,0.057 -1.06722,0.13014 -2.17504,0.16248 l -2.01422,0.0588 1.21887,1.14653 c 1.33413,1.25495 1.33142,1.30289 -0.054,0.95544 -1.77268,-0.44457 -3.77896,-1.52028 -5.08517,-2.72652 -0.70571,-0.6517 -0.89869,-0.93115 -1.58351,-2.29306 -0.91987,-1.82936 -1.47396,-2.58904 -2.4496,-3.35853 -0.87572,-0.69067 -2.89671,-2.05024 -2.95743,-1.98952 -0.1825,0.1825 -0.36562,1.64461 -0.36562,2.63875 0,2.48476 0.89015,4.42836 3.02189,6.43376 2.03865,1.91781 4.85392,3.40509 11.16588,5.89884 4.709,1.86044 6.93961,2.9189 9.23102,4.38025 2.18928,1.39622 2.84907,1.76038 3.79299,2.09353 0.96336,0.34 0.89603,0.33795 1.7255,0.0526 z m 24.51667,-32.34663 c 0.18119,-0.84481 0.15629,-3.26196 -0.0475,-4.61411 -0.26048,-1.72816 -0.7721,-3.91035 -1.82943,-7.80307 -0.90576,-3.33466 -1.27949,-4.374017 -1.61167,-4.482121 -0.10867,-0.03536 -0.14932,0.192317 -0.15594,0.873306 -0.005,0.506628 -0.0779,1.106351 -0.16223,1.332716 -0.14874,0.399352 -0.15533,0.402842 -0.22194,0.117593 -0.0378,-0.16169 -0.12485,-0.690857 -0.19354,-1.175926 -0.33326,-2.353462 -1.14815,-3.89069 -3.64668,-6.879167 -2.11659,-2.53165 -2.84662,-3.788823 -3.37666,-5.814914 -0.36543,-1.396862 -0.49458,-4.197624 -0.27429,-5.947827 0.0785,-0.623348 0.11183,-1.164189 0.0742,-1.201868 -0.27116,-0.27116 -3.84866,3.052475 -5.03137,4.674331 -2.51124,3.443686 -3.85807,7.245001 -3.8539,10.877315 0.003,2.840523 0.79833,4.421861 3.63613,7.231942 1.48235,1.46786 3.21047,2.85622 5.5249,4.43863 3.30052,2.25663 5.417,3.76023 6.47604,4.60076 1.35098,1.07221 3.227,2.87227 3.89248,3.73486 0.26788,0.34722 0.52915,0.63131 0.5806,0.63131 0.0514,0 0.15085,-0.26719 0.22088,-0.59376 z"
       id="path58" /><path
       style="fill:#fc4400;fill-opacity:1;stroke:#000000;stroke-width:0.954594"
       d="m 1579.4593,549.47446 c -3.3654,-1.17154 -5.574,-2.37062 -13.9149,-7.55448 -9.9956,-6.2122 -15.2038,-8.70877 -34.4814,-16.52867 -6.6115,-2.68191 -14.0891,-5.78866 -16.6171,-6.90389 -21.8149,-9.62404 -32.4684,-18.5473 -36.7044,-30.7432 -1.0751,-3.09552 -1.1114,-3.39426 -1.1185,-9.20971 -0.01,-5.66859 0.4958,-9.72272 1.2056,-9.72272 0.4187,0 8.4814,5.57378 11.0495,7.6385 3.051,2.45306 5.041,5.07257 7.9433,10.45619 1.2916,2.39577 2.8421,5.20675 3.4457,6.24661 2.1924,3.77723 8.4904,8.76456 14.8011,11.72089 5.7867,2.71079 12.2824,4.34387 12.2824,3.08787 0,-0.30077 -1.7784,-2.21058 -3.9521,-4.24403 l -3.9521,-3.69717 5.8083,-0.23701 c 8.6373,-0.35246 9.5071,-0.48468 9.8947,-1.50422 0.7966,-2.09536 -1.1658,-12.71558 -3.029,-16.39257 -1.9755,-3.89843 -3.462,-5.0081 -13.9635,-10.42408 -10.6224,-5.47836 -15.9414,-9.1484 -19.9352,-13.75508 -5.3157,-6.13139 -7.5653,-11.71163 -8.8774,-22.0208 -0.8562,-6.72653 -0.7577,-6.90066 1.7039,-3.01182 1.8612,2.94038 3.0902,4.31692 3.8542,4.31692 0.5539,0 0.2375,-1.88629 -1.4791,-8.81817 -0.9647,-3.89549 -1.938,-8.46496 -2.1628,-10.15438 -0.5633,-4.23314 -0.2232,-19.66286 0.5365,-24.33774 2.536,-15.60516 4.6188,-23.60793 7.4074,-28.46105 0.5027,-0.87504 0.9189,-1.51144 0.9247,-1.41421 0.1178,1.97634 0.7488,6.62752 1.0516,7.75214 0.6543,2.43009 1.1939,1.5553 1.8551,-3.00757 1.3977,-9.64636 3.8779,-14.53036 13.0056,-25.61111 8.5636,-10.3958 11.6151,-15.56679 13.4532,-22.79731 1.3663,-5.37439 1.7346,-12.92406 1.0456,-21.43134 -0.2512,-3.10081 -0.375,-5.71949 -0.2752,-5.81928 0.3721,-0.37205 5.8993,4.33857 10.3537,8.82398 13.2605,13.35286 20.94,28.71195 22.774,45.54793 0.4795,4.40257 0.4821,18.19106 0,24.33845 -0.8187,10.53715 -2.9231,20.91109 -6.1429,30.28128 -2.1379,6.22181 -3.7397,9.70751 -8.9064,19.38114 -7.5821,14.19606 -9.2298,18.89313 -9.5785,27.30611 -0.1342,3.23582 -0.083,5.03814 0.1418,5.03814 0.5963,0 4.3944,-2.59233 7.1778,-4.89905 4.8777,-4.04243 7.6588,-7.71028 12.5806,-16.59229 1.5394,-2.7781 3.131,-5.4692 3.5368,-5.9802 l 0.7379,-0.9291 0.5731,2.28149 c 0.843,3.35585 1.6635,10.14421 1.6635,13.76289 0,1.74013 0.094,3.16387 0.2084,3.16387 0.8424,0 3.8358,-5.48307 5.3515,-9.80245 0.9293,-2.64818 0.9646,-3.01373 0.9665,-9.99654 0,-5.55021 -0.183,-8.59864 -0.7874,-13.01491 -0.8063,-5.89151 -1.0259,-10.67317 -0.4902,-10.67317 0.3405,0 8.7027,12.59985 11.0268,16.61456 0.8435,1.45707 4.2638,8.21878 7.6007,15.02602 3.337,6.80725 6.9042,13.88826 7.9272,15.73558 4.5069,8.13859 8.8892,13.47315 12.7654,15.53911 1.1824,0.63026 2.207,1.08883 2.2768,1.01906 0.07,-0.0698 -0.4197,-2.41199 -1.0876,-5.20491 -1.4523,-6.07233 -1.893,-8.69955 -1.5519,-9.25155 0.3419,-0.55318 3.1416,2.85455 6.5496,7.97194 2.7205,4.08509 3.2088,4.66894 3.5879,4.28981 0.1117,-0.11167 0.4401,-2.23566 0.7299,-4.71999 0.9014,-7.72846 -0.1609,-16.21639 -3.9726,-31.74056 -2.5173,-10.25278 -7.8875,-29.055 -12.4122,-43.45747 -0.6668,-2.12273 -1.1589,-3.91308 -1.0934,-3.97856 0.065,-0.0655 1.8445,1.98949 3.9534,4.5666 4.6423,5.67302 13.3737,14.47856 18.9088,19.0693 4.2968,3.56373 12.4029,9.6366 22.5915,16.92496 11.9716,8.56378 19.5045,15.61318 24.1045,22.55741 2.1903,3.30654 4.5692,8.38361 4.5692,9.75175 0,0.76582 -4.8471,4.80131 -9.3691,7.80033 -4.9128,3.25817 -9.287,5.74284 -19.1806,10.89525 -8.3892,4.36891 -10.4314,5.60709 -12.5818,7.62822 -3.2126,3.01939 -5.5375,10.60918 -5.5375,18.07749 0,2.61308 0.097,3.13955 0.6187,3.36439 0.3403,0.1466 3.8711,0.3625 7.8463,0.47977 l 7.2276,0.21322 -4.132,3.88909 c -2.2726,2.13899 -4.1329,4.03051 -4.134,4.20335 0,0.56364 3.9981,-0.0328 6.8923,-1.02722 1.5556,-0.53451 4.5785,-1.84548 6.7175,-2.91327 9.0784,-4.53195 12.3579,-7.79366 16.7942,-16.7031 3.3213,-6.6704 6.2416,-9.99628 12.975,-14.77722 3.9807,-2.82645 5.6281,-3.73493 6.3031,-3.4759 1.195,0.45854 2.1943,8.0006 1.6227,12.24736 -1.4303,10.62847 -7.6034,19.27409 -19.3102,27.0447 -8.6147,5.71814 -15.723,9.08154 -37.4767,17.73248 -17.0234,6.76983 -21.432,8.88974 -31.3337,15.06693 -7.1317,4.44918 -12.3036,7.18978 -15.7661,8.35457 -1.2092,0.40677 -2.3229,0.73746 -2.4749,0.73486 -0.152,-0.003 -1.5673,-0.45415 -3.1452,-1.00344 z"
       id="path59"
       transform="scale(0.26458333)" /><path
       style="fill:#fc4400;fill-opacity:1;stroke:#000000;stroke-width:0.954594"
       d="m 1675.4114,427.21312 c -2.4858,-3.03836 -8.6397,-9.04182 -12.8386,-12.52465 -3.9266,-3.257 -9.5955,-7.38184 -20.9627,-15.25324 -15.8697,-10.98919 -20.4557,-14.66349 -27.9997,-22.43336 -8.7671,-9.02963 -11.3467,-14.04301 -11.8832,-23.09493 -0.8055,-13.58849 4.8895,-30.35161 14.7139,-43.31029 3.909,-5.15601 17.5598,-18.09516 18.3046,-17.35032 0.094,0.0941 -0.029,2.60209 -0.2739,5.57333 -0.6904,8.38081 -0.084,16.86151 1.6341,22.87434 1.8359,6.42286 4.2549,10.45745 12.2435,20.42011 6.3222,7.88441 7.9825,10.21111 9.9536,13.94857 1.9625,3.72105 3.1572,7.52393 3.9322,12.51673 0.7118,4.58617 0.9616,5.23451 1.5751,4.0882 0.3714,-0.69406 1.012,-5.55376 1.0748,-8.15407 l 0.021,-0.88388 0.6754,0.80999 c 1.3688,1.64165 3.9662,10.21238 8.3798,27.65106 3.7991,15.01044 4.4408,19.00465 4.4588,27.75394 0.011,5.38564 -0.1089,7.39595 -0.5037,8.43408 l -0.5183,1.36301 z"
       id="path60"
       transform="scale(0.26458333)" /></g></svg>
