<?xml version="1.0" encoding="UTF-8" standalone="no"?>
<!-- Created with Inkscape (http://www.inkscape.org/) -->

<svg
   width="64.695465mm"
   height="72.949951mm"
   viewBox="0 0 64.695465 72.949951"
   version="1.1"
   id="svg1"
   xml:space="preserve"
   xmlns="http://www.w3.org/2000/svg"
   xmlns:svg="http://www.w3.org/2000/svg"><defs
     id="defs1" /><g
     id="layer1"
     transform="translate(-371.9026,-84.151585)"><path
       style="fill:#000000"
       d="m 404.16717,156.74874 c -2.95805,-6.85369 -7.11262,-13.48047 -12.85449,-20.50367 -0.74881,-0.91591 -1.36083,-1.70436 -1.36004,-1.7521 8e-4,-0.0478 0.4109,-0.32201 0.91135,-0.60947 0.52045,-0.29896 1.26699,-0.87776 1.7442,-1.35232 1.06551,-1.05957 1.3904,-1.81924 1.31309,-3.07035 -0.11557,-1.87047 -1.30641,-3.21076 -6.86282,-7.7241 l -1.54042,-1.25125 -0.0824,-1.37774 c -0.31339,-5.24184 -2.02501,-8.24082 -5.47984,-9.60138 -1.22282,-0.48156 -2.04609,-0.61229 -3.82176,-0.60685 -1.54182,0.005 -2.4474,0.13636 -4.0856,0.59392 -0.25889,0.0723 -0.2498,0.0466 0.671,-1.89838 3.1487,-6.65098 8.22801,-12.875228 14.05095,-17.218234 9.39583,-7.007817 20.01568,-8.140899 29.86881,-3.186842 6.63586,3.336441 13.10025,9.660952 17.44851,17.070946 0.86581,1.47545 2.60279,5.02334 2.50649,5.11965 -0.0411,0.0411 -0.6175,-0.052 -1.28088,-0.20682 -1.65648,-0.38669 -4.38416,-0.39351 -5.76716,-0.0144 -2.55206,0.69953 -4.4891,2.37804 -5.43731,4.71162 -0.56545,1.39157 -0.99657,3.94457 -0.99657,5.90143 v 0.6712 l -1.5581,1.27192 c -4.5812,3.73975 -5.44174,4.53033 -6.18794,5.68484 -1.41896,2.1954 -0.91509,4.26339 1.44884,5.94643 0.39135,0.27863 0.9646,0.62911 1.27388,0.77885 0.30927,0.14974 0.5474,0.33791 0.52916,0.41815 -0.0182,0.0802 -1.22983,1.64314 -2.69244,3.47312 -3.78592,4.73683 -5.30632,6.92594 -7.64116,11.00199 -1.2124,2.11655 -2.97122,5.61316 -3.56283,7.08311 l -0.4023,0.99953 z m 1.18393,-8.67583 c 1.66222,-3.83732 3.31309,-6.97859 4.65817,-8.86356 1.09602,-1.53593 3.01596,-3.16265 4.5753,-3.87654 0.35697,-0.16342 0.64904,-0.33891 0.64904,-0.38997 0,-0.0511 -0.33073,-0.25693 -0.73496,-0.4575 -1.50014,-0.74435 -2.91405,-2.19689 -3.64915,-3.74884 -0.36526,-0.77114 -0.37813,-0.84987 -0.37081,-2.26877 0.007,-1.31721 0.0453,-1.58327 0.37088,-2.56119 0.46915,-1.40922 1.15061,-2.54447 2.1743,-3.62214 1.02649,-1.08064 1.82962,-1.61789 3.32687,-2.22553 l 1.17592,-0.47724 0.0798,-0.99561 c 0.48901,-6.09924 2.5157,-9.29855 7.15839,-11.30012 1.82666,-0.78752 3.08011,-1.06013 5.19721,-1.13035 1.01864,-0.0338 1.71979,-0.13764 1.71979,-0.18039 0,-0.16048 -1.10505,-2.18902 -1.9113,-3.37727 -2.30537,-3.397653 -5.47411,-6.784362 -9.02269,-9.643365 -3.75132,-3.022343 -7.96064,-4.990548 -12.39344,-5.794955 -2.06677,-0.375051 -5.9508,-0.369202 -8.08013,0.01217 -2.73323,0.489529 -4.60635,1.115112 -7.08931,2.367673 -5.50812,2.778638 -10.53165,7.466575 -14.8118,13.822297 -0.87363,1.29729 -1.46959,2.41554 -1.46959,2.5912 0,0.0257 0.65774,0.16854 1.61171,0.20314 5.12684,0.18584 9.38061,2.65913 11.14639,6.48092 0.66428,1.43775 1.18242,3.69804 1.40909,6.1469 l 0.0778,0.84067 0.54782,0.20557 c 3.32333,1.2471 5.41217,3.37513 6.29112,6.40916 0.79115,2.73098 0.40065,4.56122 -1.37119,6.4265 -0.81143,0.85423 -2.33899,1.97507 -2.87792,2.11167 -0.14834,0.0376 -0.24997,0.12755 -0.22586,0.19989 0.0241,0.0724 0.59528,0.42279 1.26924,0.77876 2.6424,1.39563 4.73273,4.13554 7.40322,9.70377 0.49629,1.03481 1.16029,2.50325 1.47555,3.26319 0.31527,0.75994 0.62723,1.38019 0.69325,1.37833 0.066,-0.002 0.51479,-0.91467 0.99726,-2.02847 z m -10.84375,-34.84842 c -0.0339,-0.0564 -0.20794,-0.55238 -0.38675,-1.10213 -0.2887,-0.88759 -0.32461,-1.17075 -0.32061,-2.52824 0.006,-1.90526 0.34255,-3.33031 1.19552,-5.05648 1.38186,-2.79649 3.58109,-4.778599 6.33354,-5.708262 0.99263,-0.335272 1.34503,-0.394053 2.63679,-0.439818 1.69176,-0.05994 2.78537,0.121741 4.11642,0.683857 4.60079,1.942953 7.54539,7.439753 6.61442,12.347403 -0.10128,0.53391 -0.26564,1.17441 -0.36524,1.42334 -0.18928,0.47307 -0.39012,0.50628 -0.39308,0.065 -0.003,-0.38565 -0.87044,-2.89092 -1.29703,-3.74421 -0.9918,-1.98387 -2.8559,-4.12449 -4.36965,-5.01782 -1.64116,-0.96853 -3.92811,-1.34106 -5.62195,-0.91578 -3.45026,0.86628 -6.3842,4.19361 -7.68349,8.71369 -0.21849,0.76011 -0.42499,1.33586 -0.45889,1.27944 z"
       id="path61" /><path
       style="fill:#1abdde;fill-opacity:1;stroke:#000000;stroke-width:1.90919"
       d="m 1526.2188,562.14989 c -4.5343,-10.46746 -13.0977,-26.9301 -17.1035,-32.88047 -5.2003,-7.72467 -9.4853,-11.98648 -16.1739,-16.08651 l -5.0643,-3.10433 2.5622,-1.36473 c 4.0908,-2.17889 11.4031,-9.44742 13.4221,-13.34173 3.7709,-7.27324 1.9991,-19.39806 -4.1886,-28.66415 -3.4742,-5.20267 -8.5092,-9.28294 -15.5664,-12.61475 l -5.4139,-2.55602 -0.4657,-4.62096 c -1.1756,-11.66645 -4.5548,-21.78993 -9.3855,-28.11692 -8.0239,-10.50937 -20.856,-16.72898 -36.4423,-17.66329 -3.8043,-0.22804 -7.0505,-0.63074 -7.2137,-0.89488 -0.1633,-0.26414 0.881,-2.38278 2.3207,-4.70808 13.543,-21.87487 32.0178,-40.75949 51.6028,-52.74757 23.2308,-14.21969 50.9848,-17.88017 75.9399,-10.01574 26.4128,8.3238 54.0041,31.47136 72.2887,60.64626 2.1631,3.45127 3.7904,6.50545 3.6163,6.78706 -0.174,0.2816 -3.7617,0.69376 -7.9726,0.9159 -8.3585,0.44096 -13.4602,1.82669 -21.3059,5.78711 -13.7854,6.95878 -20.6446,17.8374 -23.1184,36.66539 -0.5655,4.30367 -1.1017,7.88608 -1.1916,7.96089 -0.09,0.0748 -2.6128,1.26015 -5.6063,2.63406 -8.852,4.06276 -15.3773,11.16233 -18.8469,20.50552 -1.1724,3.15696 -1.5182,5.6622 -1.5131,10.96015 0.01,6.26343 0.1854,7.17936 2.0377,10.40869 2.6002,4.53298 6.929,8.98376 11.433,11.75509 l 3.5503,2.1845 -4.4006,2.57345 c -2.4204,1.4154 -6.6633,4.80084 -9.4288,7.52321 -7.2315,7.11869 -10.1649,12.23796 -24.7157,43.13351 l -1.6651,3.53553 z M 1493.4214,422.4963 c 6.3891,-19.75125 19.6996,-32.33902 34.2828,-32.42121 11.787,-0.0664 21.7384,6.52383 29.6231,19.61768 2.6175,4.34669 6.7929,15.10085 6.7929,17.49561 0,2.96736 1.8062,0.719 2.957,-3.68075 5.1773,-19.79544 -6.9553,-42.85064 -26.2915,-49.96101 -7.0551,-2.5943 -16.943,-2.7092 -24.1763,-0.28093 -10.0804,3.38405 -19.0036,11.45767 -23.932,21.65345 -3.4905,7.22109 -4.3837,11.12165 -4.453,19.44543 -0.056,6.71385 1.8048,15.04499 3.0542,13.67531 0.2979,-0.32661 1.2622,-2.82122 2.1428,-5.54358 z"
       id="path62"
       transform="scale(0.26458333)" /></g></svg>
