<?xml version="1.0" encoding="UTF-8" standalone="no"?>
<!-- Created with Inkscape (http://www.inkscape.org/) -->

<svg
   width="71.5466mm"
   height="71.731483mm"
   viewBox="0 0 71.5466 71.731483"
   version="1.1"
   id="svg1"
   xml:space="preserve"
   xmlns="http://www.w3.org/2000/svg"
   xmlns:svg="http://www.w3.org/2000/svg"><defs
     id="defs1" /><g
     id="layer1"
     transform="translate(-394.09791,-77.400062)"><path
       style="fill:#000000"
       d="m 452.85915,148.77108 c -1.29372,-0.64648 -2.6336,-2.49783 -3.27085,-4.51943 -0.19156,-0.60769 -0.22683,-0.64689 -0.58195,-0.64689 h -0.37803 l -0.0415,0.9789 c -0.0519,1.22624 -0.4001,1.84669 -1.2463,2.221 -1.52514,0.67464 -5.37589,-0.30405 -7.87574,-2.00167 -1.34306,-0.91205 -2.03193,-1.92452 -2.03193,-2.98645 v -0.40862 l -0.67615,-0.14997 c -2.65668,-0.58925 -5.15707,-2.04601 -5.80339,-3.38113 -0.2804,-0.57921 -0.3642,-1.73583 -0.18276,-2.52224 l 0.0993,-0.43027 -0.68724,-0.43737 c -0.41757,-0.26575 -1.72725,-1.49896 -3.33768,-3.14279 l -2.65044,-2.70542 -0.77167,0.86843 c -0.42442,0.47764 -1.58419,1.87385 -2.57727,3.10269 -4.2869,5.30463 -6.43192,7.67378 -7.33641,8.10299 -0.6151,0.29189 -1.24044,0.17388 -2.30994,-0.43589 -2.87811,-1.64096 -6.86086,-5.54771 -7.58281,-7.4381 -0.18736,-0.4906 -0.18927,-0.56861 -0.0223,-0.91191 0.31699,-0.65193 2.16859,-2.61378 5.92046,-6.27297 1.99953,-1.95013 3.90009,-3.87535 4.22347,-4.27826 0.32338,-0.40292 0.75994,-0.93044 0.97014,-1.17227 0.21019,-0.24183 0.38217,-0.4948 0.38217,-0.56216 0,-0.18282 -1.20862,-1.37189 -2.47115,-2.43119 -2.96485,-2.48759 -3.72728,-3.32786 -4.06089,-4.47543 l -0.18047,-0.6208 -1.43564,-0.0453 c -1.95119,-0.0615 -2.38208,-0.3009 -3.0308,-1.68375 -0.4467,-0.95223 -0.6979,-2.27793 -0.6979,-3.68319 v -1.16486 l -1.08773,-0.0585 c -1.80371,-0.097 -2.61225,-0.65741 -3.43963,-2.38422 -0.59437,-1.24048 -0.80052,-2.16534 -0.81257,-3.645367 -0.0133,-1.628142 0.1572,-2.244789 0.82618,-2.988857 0.58512,-0.650797 1.41278,-1.056311 2.35427,-1.153482 0.56029,-0.05783 0.63078,-0.09523 0.63078,-0.334707 0,-0.312831 -0.0373,-0.327024 -1.51324,-0.575296 -2.01017,-0.338145 -3.78807,-1.331715 -4.8918,-2.733769 -1.00368,-1.274951 -1.32776,-2.79868 -1.12376,-5.283696 0.19242,-2.344079 1.09653,-6.94958 1.53179,-7.802879 0.37914,-0.74327 1.11533,-1.175926 2.00092,-1.175926 0.90778,0 1.21505,0.29513 3.55045,3.410186 2.53999,3.387949 5.27275,5.200194 10.44167,6.924458 2.84296,0.948364 7.78499,2.072863 12.19571,2.774989 2.35635,0.375099 3.58405,0.682936 4.05171,1.01594 0.64837,0.461678 0.73308,0.855233 0.68026,3.160539 -0.0801,3.496582 -0.0449,4.101213 0.29862,5.13206 0.39691,1.190987 1.04022,2.270947 2.11278,3.546837 0.90236,1.07344 2.53248,2.72794 2.53248,2.57037 0,-0.0507 -0.28644,-0.76362 -0.63654,-1.58435 -0.7016,-1.64475 -1.00976,-2.68725 -1.00976,-3.416 0,-0.64334 0.44133,-1.132337 1.75576,-1.945415 3.77037,-2.332257 9.5097,-4.941567 12.85768,-5.845581 1.55458,-0.419762 3.80745,-0.584399 4.31897,-0.315626 0.95958,0.504196 1.02587,3.009499 0.17058,6.446311 -0.38086,1.530401 -1.13262,3.675851 -1.75378,5.005091 -1.43031,3.06078 -3.7323,6.03853 -5.2546,6.79713 -1.05764,0.52704 -2.70543,0.37179 -4.79483,-0.45178 -0.41542,-0.16374 -0.77925,-0.27377 -0.80851,-0.24451 -0.0782,0.0782 1.16459,1.19575 2.19598,1.97472 1.0627,0.80261 2.44085,1.50505 3.65998,1.86546 0.80712,0.23861 1.14171,0.26153 3.94401,0.27018 2.76223,0.009 3.09437,0.0306 3.39186,0.2252 0.61608,0.40305 0.87011,1.23614 1.43036,4.6909 0.86012,5.30383 1.22305,7.1992 1.89267,9.88442 1.46962,5.89325 2.89772,9.0122 4.72738,10.32451 0.36581,0.26237 1.57422,0.91868 2.68536,1.45847 2.22884,1.08276 2.96585,1.63527 3.1931,2.39376 0.28798,0.9612 0.0914,1.6286 -0.66402,2.25456 -0.50424,0.41782 -2.3257,1.32468 -3.84378,1.91371 -2.75903,1.07054 -4.56008,1.49494 -6.34421,1.49494 -0.97586,0 -1.15814,-0.0364 -1.80684,-0.36053 z m 5.17949,-2.26039 c 1.49996,-0.50926 5.3943,-2.32647 5.34546,-2.49436 -0.0188,-0.0647 -1.043,-0.6203 -2.27596,-1.23472 -4.59044,-2.28755 -5.46948,-3.37514 -7.10396,-8.78937 -1.17889,-3.90505 -2.09196,-7.92162 -2.70676,-11.90693 -0.43282,-2.80561 -0.96527,-5.0587 -1.24355,-5.26219 -0.14083,-0.10298 -0.76719,-0.14776 -2.08953,-0.14939 -4.64605,-0.006 -6.88458,-0.89178 -10.82544,-4.28485 -5.40907,-4.6572 -9.11768,-8.85155 -10.26888,-11.61384 -0.2975,-0.71383 -0.3101,-0.841777 -0.37985,-3.855369 -0.0471,-2.033532 -0.12026,-3.206959 -0.21059,-3.375727 -0.0884,-0.16519 -0.29731,-0.28645 -0.57799,-0.335491 -4.54311,-0.793803 -13.54801,-3.016178 -16.91044,-4.173431 -4.27728,-1.472122 -7.44086,-3.977336 -9.95494,-7.883258 -0.61281,-0.952067 -0.83331,-1.164596 -1.20831,-1.164596 -0.10438,0 -0.28018,0.518017 -0.52433,1.544996 -1.42106,5.977654 -1.02594,8.855905 1.38456,10.085651 1.14052,0.581848 4.43126,1.269586 9.89938,2.068891 7.72734,1.129545 9.60222,1.681706 11.81806,3.480462 1.20461,0.977871 1.87142,1.842056 3.66591,4.751012 1.92956,3.12793 3.21103,4.69156 6.0634,7.39849 l 1.59019,1.50911 -5.07179,4.7031 c -2.78948,2.58671 -5.30573,4.93141 -5.59167,5.21046 l -0.45374,0.51564 0.92113,0.94001 0.98729,0.94828 0.70853,-0.68189 c 2.72211,-2.61976 4.28177,-4.08518 7.09598,-6.66727 1.76225,-1.6169 3.271,-2.95486 3.35278,-2.97325 0.0818,-0.0184 0.78118,0.52792 1.55423,1.21401 3.04958,2.70654 4.23617,3.55404 6.6972,4.78337 5.56512,2.77987 6.36657,4.20003 7.51763,13.32124 0.75712,5.99953 2.17192,11.88983 3.21717,13.39417 0.40461,0.58233 1.04347,1.09864 1.62742,1.31524 0.8206,0.30438 2.4761,0.16269 3.95141,-0.3382 z m -11.62662,-3.08232 c 0.15645,-2.00569 0.13944,-11.48093 -0.0248,-13.81713 -0.31238,-4.44322 -0.71527,-5.46889 -2.65529,-6.75973 -1.04732,-0.69687 -3.57946,-1.96525 -3.73339,-1.87011 -0.16744,0.10348 -0.10441,0.88133 0.19425,2.39743 0.6697,3.39962 0.65487,7.03623 -0.0544,13.339 -0.19457,1.72894 -0.38734,3.65598 -0.42838,4.2823 l -0.0746,1.13878 0.72545,0.67164 c 1.26283,1.16915 3.49693,1.99338 5.24474,1.93493 l 0.70556,-0.0236 z m -8.74581,-4.43912 c 0.117,-0.27964 0.50614,-3.34269 0.71337,-5.61505 0.16543,-1.81406 0.16419,-5.88164 -0.002,-7.40833 -0.17115,-1.56983 -0.49764,-3.15806 -0.94843,-4.61371 l -0.40618,-1.12406 -0.97439,-0.92003 c -1.0045,-0.94846 -2.45107,-1.96465 -2.93915,-2.19376 -0.23256,-0.10917 -0.41357,-0.0259 -1.41111,0.64914 -0.62938,0.4259 -1.27235,0.91081 -1.42882,1.07758 l -0.28449,0.3032 0.76466,0.79439 c 1.44967,1.50603 2.40447,3.02963 2.89522,4.61999 0.7641,2.47618 0.58931,5.96931 -0.49701,9.93256 -0.55517,2.02543 -0.54931,2.16337 0.12231,2.88139 0.68555,0.73291 1.47196,1.23786 2.4842,1.5951 1.05687,0.37299 1.76175,0.38095 1.91209,0.0216 z m -24.47055,-0.74194 c 0.7248,-0.60987 6.37289,-7.1982 7.98539,-9.31471 1.08039,-1.41808 1.18695,-1.73213 0.83759,-2.46864 -0.58326,-1.22962 -3.44836,-3.61223 -4.99916,-4.15729 -0.56539,-0.19872 -0.71812,-0.21261 -0.97633,-0.0888 -0.16836,0.0807 -2.55202,2.40992 -5.29704,5.17597 l -4.99095,5.02918 0.16959,0.32859 c 0.62718,1.21517 5.92497,5.79665 6.70295,5.79665 0.11566,0 0.37124,-0.13544 0.56796,-0.30097 z m 18.53061,-5.84325 c 0.15194,-0.67114 0.29736,-2.36844 0.29736,-3.47085 0,-2.03932 -0.48279,-3.76057 -1.4778,-5.26873 -0.4604,-0.69784 -2.35137,-2.75509 -2.53241,-2.75509 -0.10394,0 -0.61756,0.53975 -2.0385,2.14219 l -0.90896,1.02507 0.5208,0.68002 c 0.59077,0.77139 1.06923,1.53057 2.39033,3.79274 0.90556,1.55064 2.02413,3.15913 2.47049,3.55253 0.28156,0.24815 0.88288,0.56503 1.07404,0.56598 0.0796,4e-4 0.1717,-0.11833 0.20465,-0.26386 z m -10.20925,-15.40687 c 0.21762,-0.17254 -1.46744,-2.32532 -2.51243,-3.15573 -1.85422,-1.47348 -3.94991,-2.09158 -7.12239,-2.10066 -1.42365,-0.004 -1.53307,0.061 -1.19663,0.7116 0.36235,0.7007 2.41567,2.69151 3.69917,3.58655 2.62604,1.83126 3.31553,2.36126 3.77285,2.90019 l 0.48591,0.4133 1.48039,-1.05065 c 0.85775,-0.60876 1.36609,-1.28316 1.39313,-1.3046 z m 3.0902,-2.99637 c 0.51956,-0.63059 0.94559,-1.22034 0.94673,-1.31055 0.002,-0.19353 -1.13231,-2.34234 -1.79172,-3.39284 -0.63323,-1.00878 -1.15588,-1.41861 -2.95169,-2.31453 -2.40713,-1.20091 -4.88238,-1.88394 -7.88674,-2.17629 -2.07898,-0.20231 -5.89859,-0.10954 -7.26049,0.17633 -0.39716,0.0834 -0.45337,0.23757 -0.53316,1.46256 -0.10586,1.62546 0.50245,3.42214 1.21961,3.60213 0.16805,0.0422 1.55519,-0.0176 3.08253,-0.13286 3.22938,-0.24368 5.24836,-0.19359 6.62618,0.16439 2.28532,0.59376 3.97318,1.63218 5.96978,3.67277 0.74378,0.76016 1.41577,1.38511 1.49331,1.38877 0.0775,0.004 0.5661,-0.50929 1.08566,-1.13988 z m 18.57571,-5.07976 c 1.04905,-0.53518 3.13883,-3.28648 4.25682,-5.6043 1.06081,-2.19928 1.80361,-4.883733 2.0947,-7.570177 0.0594,-0.548641 0.0797,-1.043418 0.0451,-1.099504 -0.19507,-0.315632 -2.76396,0.376706 -5.67903,1.530548 -3.07805,1.218351 -7.86652,3.605916 -9.26777,4.620983 -0.60243,0.43639 -0.61672,0.62414 -0.1391,1.8265 1.17921,2.96847 2.52178,4.60385 4.64437,5.65729 1.78075,0.88379 3.14289,1.09886 4.04495,0.63866 z m -21.97782,-4.71566 c 0,-0.38862 -0.22818,-0.90732 -0.64407,-1.46407 -0.14493,-0.19403 -0.61991,-1.01423 -1.0555,-1.82268 -0.4356,-0.80845 -0.96779,-1.685066 -1.18265,-1.948038 -0.50784,-0.621551 -1.54059,-1.162372 -2.64464,-1.38493 -2.08693,-0.42069 -6.65018,-0.602055 -11.17129,-0.443997 -3.84395,0.134383 -4.24267,0.221091 -4.59615,0.999497 -0.56021,1.233626 0.0173,3.455668 1.22598,4.717108 0.57088,0.59581 0.71585,0.62366 1.86357,0.35798 1.85783,-0.43005 3.74528,-0.58123 7.32743,-0.58693 3.17009,-0.005 3.6763,0.0214 4.99256,0.2606 1.5213,0.27648 3.62485,0.85833 4.94402,1.36754 0.42039,0.16227 0.80404,0.29763 0.85254,0.30079 0.0485,0.003 0.0882,-0.15563 0.0882,-0.35287 z"
       id="path63" /><path
       style="fill:#bed71d;fill-opacity:1;stroke:#000000;stroke-width:1.35"
       d="m 1555.1775,520.6923 c -2.1601,-1.54423 -5.165,-3.84819 -6.6775,-5.11991 -4.6476,-3.9077 -12.6978,-11.90525 -13.697,-13.60728 l -0.947,-1.61318 19.2905,-19.17597 c 14.2359,-14.15135 19.5936,-19.17586 20.447,-19.17557 4.8546,0.002 19.9393,11.90538 21.4418,16.9202 0.5517,1.84155 0.4939,2.19168 -0.6974,4.22446 -3.6243,6.18443 -32.9782,40.35495 -34.6666,40.35495 -0.3114,0 -2.3336,-1.26346 -4.4938,-2.8077 z"
       id="path64"
       transform="scale(0.26458333)" /><path
       style="fill:#bed71d;fill-opacity:1;stroke:#000000;stroke-width:1.35"
       d="m 1580.2322,448.96018 c -1.0902,-1.12842 -5.5822,-4.66395 -9.9822,-7.85675 -8.1184,-5.89099 -17.2737,-14.3149 -17.9815,-16.54503 -0.5902,-1.8595 0.4464,-2.14775 6.7315,-1.8719 14.1628,0.6216 22.8837,4.64667 30.5575,14.10365 4.5475,5.6043 4.6548,4.87488 -1.4315,9.73162 -2.9142,2.32552 -5.4365,4.28714 -5.6051,4.35914 -0.1685,0.072 -1.1984,-0.79232 -2.2887,-1.92073 z"
       id="path65"
       transform="scale(0.26458333)" /><path
       style="fill:#bed71d;fill-opacity:1;stroke:#000000;stroke-width:1.35"
       d="m 1628.4489,499.86093 c -2.3757,-1.59283 -5.9152,-6.46119 -11.8693,-16.32572 -2.8116,-4.65804 -6.1247,-9.84484 -7.3625,-11.52624 l -2.2505,-3.05708 5.1195,-5.72595 c 2.8157,-3.14927 5.2419,-5.7225 5.3916,-5.71829 1.2029,0.0338 8.7508,8.61285 10.7709,12.24235 3.1329,5.6286 4.0014,9.53551 4.0014,18 0,8.59838 -0.5133,13.25 -1.462,13.25 -0.3521,0 -1.4046,-0.51258 -2.3391,-1.13907 z"
       id="path66"
       transform="scale(0.26458333)" /><path
       style="fill:#bed71d;fill-opacity:1;stroke:#000000;stroke-width:0.477297"
       d="m 1680.616,546.82067 c -1.2907,-0.14569 -4.7128,-0.98656 -6.4317,-1.58039 -4.0023,-1.38271 -7.3055,-3.35293 -10.5012,-6.26363 l -1.9953,-1.81735 0.1064,-1.51426 c 0.2422,-3.4468 0.6552,-7.99484 1.1567,-12.73958 0.2928,-2.77097 0.7635,-7.22574 1.0459,-9.89949 0.4924,-4.66191 0.8413,-8.54468 1.2471,-13.87697 0.3034,-3.98793 0.4191,-16.36605 0.1858,-19.88738 -0.3501,-5.28365 -0.6945,-7.82948 -2.1521,-15.9099 -0.4114,-2.28025 -0.6085,-5.46728 -0.3605,-5.82822 0.2469,-0.35944 2.0982,0.3995 6.6504,2.7264 12.4882,6.38349 15.0289,9.45833 16.5122,19.98399 1.162,8.24475 1.3335,13.06742 1.333,37.47666 -3e-4,18.52582 -0.039,21.6813 -0.3049,24.90817 -0.1675,2.03223 -0.3046,3.84198 -0.3046,4.02167 0,0.30512 -0.1839,0.32484 -2.7842,0.29841 -1.5313,-0.0156 -3.0627,-0.0597 -3.403,-0.0981 z"
       id="path67"
       transform="scale(0.26458333)" /><path
       style="fill:#bed71d;fill-opacity:1;stroke:#000000;stroke-width:0.477297"
       d="m 1650.0337,525.99793 c -3.0109,-0.67737 -5.8902,-1.88536 -8.4118,-3.52902 -2.0359,-1.32703 -4.8791,-4.09491 -5.4909,-5.34535 -0.428,-0.87475 -0.4583,-1.07746 -0.3598,-2.40387 0.066,-0.88933 0.487,-2.88172 1.0903,-5.16087 3.3283,-12.57324 4.4555,-21.4335 3.7908,-29.79573 -0.8599,-10.81671 -4.4742,-18.17262 -13.5534,-27.58453 l -1.8099,-1.87623 1.1028,-1.04988 c 1.3575,-1.29228 2.5737,-2.22331 5.4608,-4.18027 2.6104,-1.76934 3.8325,-2.42334 4.5285,-2.42334 0.991,0 6.3307,3.84177 11.3545,8.16911 4.5327,3.90437 4.0625,3.26776 5.1944,7.03369 2.2148,7.36919 3.5598,14.17974 3.989,20.19936 0.5065,7.10182 0.3766,20.55363 -0.2633,27.26735 -0.6903,7.24371 -1.9849,17.49727 -2.4344,19.28166 -0.1323,0.52513 -0.3778,0.95879 -0.6625,1.17017 -0.6078,0.45127 -2.1024,0.54783 -3.5251,0.22775 z"
       id="path68"
       transform="scale(0.26458333)" /><path
       style="fill:#bed71d;fill-opacity:1;stroke:#000000;stroke-width:0.477297"
       d="m 1718.6168,555.42058 c -1.7139,-0.18211 -3.0504,-0.6898 -4.6731,-1.77517 -1.9241,-1.28693 -3.5959,-3.16938 -4.6542,-5.24069 -3.7364,-7.31316 -8.2258,-26.38804 -10.9109,-46.35891 -1.4439,-10.73998 -1.8948,-13.88259 -2.4851,-17.32411 -2.8705,-16.73209 -6.5222,-23.59755 -15.8856,-29.86543 -2.5318,-1.69485 -4.8182,-2.98267 -10.4484,-5.88511 -9.8128,-5.05861 -12.9761,-7.29548 -24.2988,-17.1827 -4.2244,-3.68886 -6.4054,-5.40307 -6.8743,-5.40307 -0.8528,0 -25.0739,22.25794 -40.2517,36.98912 l -1.9596,1.90192 -3.645,-3.48643 c -3.5109,-3.3581 -3.6339,-3.49886 -3.3437,-3.82439 0.7721,-0.86613 16.0869,-15.15077 37.7428,-35.20414 l 4.1999,-3.88909 -2.6127,-2.45813 c -4.3241,-4.06823 -12.7626,-12.60282 -14.6986,-14.86599 -3.8832,-4.53946 -7.1499,-9.14012 -12.0501,-16.97056 -3.5214,-5.62706 -5.8981,-9.18926 -7.6077,-11.4021 -3.3612,-4.35063 -8.5281,-8.50202 -13.6372,-10.95689 -6.403,-3.07653 -13.9987,-4.76515 -36.9971,-8.22496 -22.1636,-3.33422 -32.8344,-5.58208 -37.4208,-7.88289 -8.895,-4.46223 -10.4554,-15.48908 -5.2758,-37.28197 0.9842,-4.14081 1.5662,-5.9857 1.9684,-6.23938 0.4053,-0.25568 1.1219,-0.0219 1.8248,0.59526 0.337,0.29587 1.6709,2.10213 2.9643,4.0139 1.2933,1.91178 3.0599,4.39312 3.9256,5.51409 8.9734,11.61912 19.9585,19.3483 34.3116,24.14187 12.4666,4.16349 42.2219,11.57831 59.9199,14.93162 3.9142,0.74164 4.5352,0.92875 5.08,1.5308 0.5399,0.59658 0.8344,4.95533 1.1149,16.4998 0.1425,5.86785 0.3628,8.26662 0.9088,9.89876 1.5822,4.72865 5.9359,11.33417 12.5259,19.00423 8.3748,9.74738 23.8219,24.30158 33.5876,31.64596 8.7652,6.59198 15.4704,9.29838 25.6326,10.34605 0.9723,0.10024 4.7509,0.25229 8.3969,0.33789 7.7327,0.18156 7.8396,0.2002 8.448,1.47399 1.0568,2.21247 2.4533,8.62548 4.2769,19.64044 2.758,16.65834 5.7015,29.56946 10.0125,43.91707 4.098,13.63857 6.5831,18.78666 11.3658,23.54526 3.5315,3.51373 6.4473,5.39635 15.7333,10.15826 4.8288,2.47621 7.9671,4.15725 8.3125,4.45254 0.4124,0.35251 -6.8994,3.99648 -14.3328,7.14303 -5.2435,2.2196 -7.5429,2.98348 -10.8473,3.6036 -1.3249,0.24863 -5.1573,0.64898 -5.7453,0.60019 -0.1458,-0.0121 -0.8646,-0.0857 -1.5972,-0.16354 z"
       id="path69"
       transform="scale(0.26458333)" /><path
       style="fill:#bed71d;fill-opacity:1;stroke:#000000;stroke-width:0.477297"
       d="m 1667.7113,412.0757 c -1.9036,-0.40471 -3.6887,-1.00717 -6.0556,-2.04376 -7.433,-3.25526 -12.3966,-8.03066 -16.4792,-15.8546 -2.0674,-3.962 -4.1591,-9.26685 -4.1578,-10.54483 9e-4,-0.8885 0.5037,-1.63393 1.6964,-2.51504 5.4551,-4.02988 25.836,-14.05361 37.6463,-18.51512 8.6428,-3.26496 16.958,-5.52154 18.3692,-4.985 0.4005,0.15226 0.4468,0.26691 0.4453,1.10238 0,1.2321 -0.4442,5.15902 -0.8908,7.91513 -1.1281,6.96202 -3.3465,14.80177 -5.8348,20.61962 -3.4124,7.97863 -9.3586,16.9352 -14.5857,21.96972 -2.6355,2.53848 -4.1046,3.2005 -7.0597,3.18129 -0.875,-0.006 -2.2671,-0.15409 -3.0936,-0.32979 z"
       id="path70"
       transform="scale(0.26458333)" /><path
       style="fill:#bed71d;fill-opacity:1;stroke:#000000;stroke-width:0.477297"
       d="m 1599.0925,433.68465 c -0.8102,-0.74954 -2.9846,-2.84322 -4.8319,-4.65262 -5.0301,-4.9269 -8.5289,-7.56669 -12.9931,-9.80316 -8.6519,-4.33444 -15.7303,-5.15093 -33.7644,-3.89471 -6.8208,0.47512 -10.9698,0.63242 -11.6746,0.44262 -2.6313,-0.70853 -4.8464,-7.28107 -4.5219,-13.41735 0.1484,-2.80754 0.4073,-4.316 0.8337,-4.8581 0.4053,-0.5153 1.2583,-0.73122 4.226,-1.06982 6.1348,-0.69996 18.6772,-0.79742 24.5719,-0.19094 11.4209,1.17505 20.101,3.61136 29.6101,8.31082 6.0055,2.96795 8.6087,4.93814 10.6076,8.02822 1.4005,2.16495 3.9885,6.79339 5.6099,10.03286 l 1.6065,3.20975 -0.6035,0.9445 c -1.3965,2.18562 -6.5971,8.28073 -7.0655,8.28073 -0.076,0 -0.8007,-0.61326 -1.6108,-1.3628 z"
       id="path71"
       transform="scale(0.26458333)" /><path
       style="fill:#bed71d;fill-opacity:1;stroke:#000000;stroke-width:0.477297"
       d="m 1588.6038,394.01682 c -6.4541,-2.4175 -14.7604,-4.61285 -21.39,-5.65339 -2.2821,-0.35818 -3.2735,-0.39475 -12.7279,-0.46945 -16.079,-0.12705 -22.6972,0.30092 -30.7592,1.98902 -5.2106,1.09107 -5.1557,1.09944 -7.346,-1.12066 -3.0542,-3.09586 -4.9737,-7.26759 -5.5088,-11.97225 -0.3348,-2.94451 0.2774,-5.72799 1.5762,-7.16559 1.3101,-1.45017 3.8828,-1.88835 13.3999,-2.28232 21.0298,-0.87056 41.2507,0.10468 47.8181,2.30621 2.9715,0.99609 5.8719,2.73507 7.1217,4.26978 0.957,1.17517 2.5621,3.80957 5.0078,8.21882 1.2299,2.21744 2.8982,5.05152 3.7073,6.29797 1.5102,2.32631 2.1297,3.6646 2.3119,4.99377 0.1078,0.78598 -0.028,1.67449 -0.2534,1.65736 -0.071,-0.005 -1.402,-0.48658 -2.9576,-1.06927 z"
       id="path72"
       transform="scale(0.26458333)" /></g></svg>
