<?xml version="1.0" encoding="UTF-8" standalone="no"?>
<!-- Created with Inkscape (http://www.inkscape.org/) -->

<svg
   width="53.034229mm"
   height="67.580742mm"
   viewBox="0 0 53.034229 67.580742"
   version="1.1"
   id="svg1"
   xml:space="preserve"
   xmlns="http://www.w3.org/2000/svg"
   xmlns:svg="http://www.w3.org/2000/svg"><defs
     id="defs1" /><g
     id="layer1"
     transform="translate(-354.89445,-82.848771)"><path
       style="fill:#000000"
       d="m 381.04922,149.98935 c -1.11336,-1.48116 -3.90303,-4.1736 -7.22237,-6.97065 -8.30456,-6.99784 -10.82248,-9.49917 -13.29724,-13.20966 -3.18359,-4.77326 -4.76533,-10.66347 -5.27787,-19.65418 -0.21233,-3.72454 -0.3573,-9.83244 -0.3573,-15.053493 v -5.075091 l 1.14653,-0.597386 c 3.76884,-1.963717 10.1146,-4.080549 15.72801,-5.246586 1.72847,-0.359044 4.84561,-0.837012 6.58518,-1.009741 0.71144,-0.07064 1.69039,-0.187078 2.17546,-0.258749 0.74284,-0.109758 1.24362,-0.08942 3.175,0.128945 8.57907,0.969959 16.10356,3.010561 22.43079,6.083113 l 1.79329,0.870834 -7.3e-4,6.84528 c -0.001,11.834734 -0.34956,17.354904 -1.42035,22.511584 -0.91079,4.38616 -2.0905,7.32449 -4.2364,10.55175 -2.34276,3.52333 -5.0424,6.26705 -11.68743,11.87827 -4.39564,3.71178 -7.99728,7.09238 -8.77874,8.23998 -0.15174,0.22283 -0.3093,0.4055 -0.35013,0.40595 -0.0408,4.4e-4 -0.2234,-0.19764 -0.4057,-0.44017 z m 2.75334,-6.40215 c 5.98348,-4.62242 9.01109,-7.20835 11.89897,-10.16309 6.57194,-6.7241 8.69571,-12.00612 9.52146,-23.68082 0.21046,-2.97564 0.34432,-10.012577 0.2701,-14.199185 l -0.0717,-4.044699 -1.24518,-0.623813 C 399.29993,88.432675 393.30836,86.58087 387.35,85.675148 c -2.39427,-0.363951 -6.83207,-0.498915 -9.29953,-0.282822 -4.20179,0.367979 -8.0863,1.204454 -12.57269,2.70735 -2.76527,0.926338 -4.32138,1.569314 -6.63319,2.740784 l -1.6355,0.828766 0.0749,6.714576 c 0.0412,3.693018 0.12977,7.772908 0.1968,9.066428 0.57749,11.14506 2.48707,17.39302 7.06223,23.10694 1.16635,1.45667 4.45718,4.78918 6.27882,6.35836 1.61416,1.39046 10.43761,8.44715 10.57004,8.45357 0.0539,0.003 1.13866,-0.79925 2.41065,-1.7819 z m -2.77384,-6.10911 c -0.75935,-0.21345 -1.01754,-0.81865 -3.37893,-7.92045 -0.92472,-2.78107 -1.88596,-5.53274 -2.13609,-6.11482 l -0.45479,-1.05833 -0.52784,-0.0767 c -0.29031,-0.0422 -1.93159,-0.0472 -3.6473,-0.0113 -2.77369,0.0582 -3.18843,0.0425 -3.74161,-0.14124 -1.51072,-0.50178 -0.94355,-1.67314 1.51772,-3.13453 2.83468,-1.6831 3.35814,-1.99985 3.55246,-2.14967 0.19749,-0.15225 0.18412,-0.28407 -0.26042,-2.56686 -0.65801,-3.37898 -0.8297,-4.85817 -0.8297,-7.148 0,-5.87271 1.7014,-10.851714 5.08645,-14.885062 1.64645,-1.961768 4.35737,-4.047346 5.26092,-4.047346 0.34346,0 1.22126,0.466033 2.11744,1.12417 3.31815,2.436772 6.39438,7.168969 7.56328,11.634628 0.52835,2.01854 0.70336,3.80852 0.6266,6.40879 -0.0763,2.58641 -0.23562,3.90815 -0.85614,7.10515 l -0.43188,2.22506 0.31606,0.25201 c 0.17383,0.13861 1.14392,0.72484 2.15575,1.30273 2.93376,1.67556 3.56152,2.21924 3.56152,3.08451 0,0.18721 -0.0926,0.42304 -0.20579,0.52406 -0.4597,0.41031 -1.17027,0.4783 -4.7919,0.45849 -1.94028,-0.0106 -3.58734,0.0207 -3.66014,0.0697 -0.20256,0.13614 -1.10045,2.50926 -2.03581,5.38063 -2.1139,6.48924 -3.08267,9.03667 -3.60507,9.4798 -0.3057,0.25932 -0.73713,0.33318 -1.19479,0.20454 z m 1.12746,-15.41698 c 1.86508,-4.13628 3.44103,-9.05851 4.15088,-12.96458 0.37067,-2.03966 0.37516,-5.58478 0.009,-6.9145 -0.56084,-2.03536 -1.71342,-3.56611 -3.25565,-4.323862 -0.69323,-0.340609 -0.94244,-0.402307 -1.60305,-0.396871 -1.41811,0.01167 -2.92209,1.009288 -3.97312,2.635433 -0.87314,1.35092 -1.22344,2.89664 -1.21343,5.35443 0.0107,2.62543 0.46986,5.2207 1.56247,8.83122 1.06064,3.50483 3.28417,9.10165 3.61596,9.10165 0.0609,0 0.3791,-0.59532 0.70718,-1.32292 z"
       id="path73" /><path
       style="fill:#12afdc;fill-opacity:1;stroke:#000000;stroke-width:0.954594"
       d="m 1440.023,548.10813 c -4.6477,-3.57725 -30.2965,-24.13622 -35.3554,-28.33932 -6.7792,-5.63244 -20.6649,-19.2779 -25.4104,-24.97084 -15.2961,-18.34998 -22.8785,-38.12555 -26.3665,-68.76614 -1.4518,-12.75419 -2.0049,-26.82407 -2.495,-63.47726 l -0.213,-15.92433 8.0622,-3.9455 c 8.8434,-4.32782 12.6348,-5.90656 21.1436,-8.80428 26.0341,-8.86597 48.0887,-12.35945 70.1804,-11.11668 11.6526,0.65552 18.5794,1.61767 29.6985,4.12519 16.8046,3.78968 32.2423,9.09529 46.2271,15.88719 l 6.8059,3.30538 v 23.6233 c 0,36.21841 -0.8655,52.46923 -3.7234,70.07325 -6.0111,37.02663 -20.8801,57.62152 -69.1073,95.71928 -7.7034,6.08545 -17.6029,13.57204 -17.9396,13.56712 -0.1476,-0.002 -0.8253,-0.43252 -1.5058,-0.95636 z m 3.7007,-28.5338 c 2.4152,-1.00915 4.3342,-5.60387 12.5627,-30.07966 5.0568,-15.04146 8.6404,-24.9474 9.5219,-26.32063 0.2739,-0.42656 2.7477,-0.54657 14.937,-0.72462 12.3555,-0.18048 14.8089,-0.30151 15.9061,-0.78467 1.5418,-0.6789 2.0619,-1.52406 2.0601,-3.34793 0,-3.19996 -1.7986,-4.67635 -15.555,-12.7907 -3.0141,-1.77786 -5.838,-3.51114 -6.2754,-3.85174 l -0.7953,-0.61927 1.4165,-7.42325 c 2.0062,-10.51316 2.7699,-16.09758 3.2204,-23.54857 1.0663,-17.63462 -1.2007,-29.84146 -8.1677,-43.97876 -4.5633,-9.25982 -10.0874,-16.97374 -16.8504,-23.53018 -5.3799,-5.21557 -11.4306,-9.1735 -14.0241,-9.1735 -2.5704,0 -8.5304,3.95035 -14.6376,9.7021 -10.6984,10.07568 -18.7905,24.61501 -22.1487,39.79537 -1.8008,8.14048 -2.1513,11.80698 -2.1458,22.45064 0.01,10.94622 0.1514,12.28033 2.9992,27.4611 0.8004,4.26658 1.3739,7.96943 1.2744,8.22857 -0.099,0.25913 -4.1029,2.83151 -8.8966,5.7164 -4.8502,2.91888 -9.626,6.06889 -10.768,7.10231 -4.1288,3.73635 -3.9284,6.74014 0.5392,8.0847 1.3307,0.40048 4.489,0.50579 15.1686,0.50579 10.2507,0 13.6249,0.10608 14.0583,0.44195 1.0658,0.82599 3.1275,6.37719 10.3407,27.84232 7.1074,21.15065 9.3437,26.93642 10.9153,28.24077 1.2935,1.07351 3.5946,1.33248 5.3442,0.60146 z"
       id="path74"
       transform="scale(0.26458333)" /><path
       style="fill:#12afdc;fill-opacity:1;stroke:#000000;stroke-width:0.954594"
       d="m 1439.6835,462.35944 c -6.0223,-12.80401 -13.1006,-34.04026 -15.5259,-46.58065 -1.4077,-7.27853 -1.6078,-9.39412 -1.6216,-17.14734 -0.015,-8.60331 0.4249,-11.75715 2.2495,-16.11175 3.7287,-8.89889 12.4955,-15.21864 19.1359,-13.79454 8.4529,1.81282 15.3554,10.85176 16.6464,21.79877 0.5927,5.02517 0.216,16.5461 -0.7101,21.71932 -2.1665,12.10153 -7.276,28.89584 -13.0154,42.77996 -2.0816,5.03541 -4.9231,10.96016 -5.2565,10.96016 -0.1088,0 -0.9648,-1.63077 -1.9023,-3.62393 z"
       id="path75"
       transform="scale(0.26458333)" /></g></svg>
