<?xml version="1.0" encoding="UTF-8" standalone="no"?>
<!-- Created with Inkscape (http://www.inkscape.org/) -->

<svg
   width="47.06741mm"
   height="70.90834mm"
   viewBox="0 0 47.06741 70.90834"
   version="1.1"
   id="svg1"
   xml:space="preserve"
   xmlns="http://www.w3.org/2000/svg"
   xmlns:svg="http://www.w3.org/2000/svg"><defs
     id="defs1" /><g
     id="layer1"
     transform="translate(-477.2685,-66.425996)"><path
       style="fill:#000000"
       d="m 498.40902,135.42804 c -1.31147,-1.04846 -4.17848,-3.25196 -6.37115,-4.89667 -2.19266,-1.6447 -4.62683,-3.52316 -5.40926,-4.17436 -2.90021,-2.41376 -5.64182,-5.44698 -7.05167,-7.80172 -1.32503,-2.21307 -2.30843,-5.13574 -2.30843,-6.8607 0,-1.14608 0.22578,-1.75274 1.36263,-3.66138 3.8558,-6.47341 6.15322,-11.651805 7.04641,-15.882609 0.16741,-0.792955 0.37856,-1.554985 0.46923,-1.693401 0.0917,-0.140015 1.3032,-0.82732 2.73074,-1.54922 l 2.56589,-1.297556 -0.0813,-0.97902 c -0.0447,-0.538461 -0.0855,-1.710523 -0.0907,-2.604583 -0.0117,-2.028 0.1539,-2.580816 1.62617,-5.429992 3.3721,-6.525736 7.57454,-12.170833 9.06047,-12.170833 0.89909,0 1.21881,1.36933 1.35909,5.820833 0.12247,3.886224 0.3758,5.340194 1.2079,6.932663 0.60191,1.151941 1.73754,2.240493 3.80842,3.650553 1.97894,1.347457 1.86008,1.142051 1.86281,3.219214 9.9e-4,0.751858 0.0407,1.424236 0.0882,1.494175 0.0475,0.06994 1.23603,0.720928 2.64115,1.446643 2.90364,1.499673 2.5698,1.134311 3.021,3.306288 0.56325,2.711348 1.56961,5.415695 3.36946,9.054625 1.07173,2.16681 1.73502,3.3706 4.14682,7.52593 0.82936,1.42891 0.96788,2.02204 0.82279,3.52297 -0.36035,3.7275 -2.47335,7.45435 -6.40713,11.3007 -1.98073,1.93671 -3.68684,3.34144 -7.90716,6.51036 -1.9146,1.43762 -4.1161,3.13664 -4.89221,3.7756 -1.62292,1.33613 -4.17007,3.34778 -4.23895,3.34778 -0.0257,0 -1.11973,-0.85783 -2.43119,-1.90629 z m 3.49514,-2.81893 c 0.51741,-0.39918 3.00449,-2.28576 5.52686,-4.19238 6.27734,-4.74497 7.44774,-5.72234 9.20773,-7.68913 2.73467,-3.056 4.25662,-6.43668 4.25662,-9.45516 0,-0.81327 -0.0399,-0.95062 -0.60133,-2.06937 -0.33073,-0.65906 -1.10664,-2.07362 -1.72425,-3.14347 -2.65983,-4.60746 -4.77416,-10.078249 -5.19725,-13.447776 -0.12538,-0.998521 -0.0358,-0.909132 -2.22386,-2.220111 -0.88055,-0.527589 -1.71753,-1.033675 -1.85995,-1.124635 -0.24919,-0.15915 -0.27186,-0.137315 -0.60141,0.579406 -0.18835,0.409634 -0.51593,0.903539 -0.72796,1.097566 l -0.3855,0.352778 0.0815,-0.293981 c 0.57153,-2.060846 0.5479,-4.87427 -0.0444,-5.290377 -0.27813,-0.195389 -1.40076,-1.147116 -2.94337,-2.495287 -2.21935,-1.939619 -3.11376,-3.575444 -3.42665,-6.267141 -0.11823,-1.017121 -0.10763,-1.76383 0.0637,-4.49031 0.11306,-1.798671 0.17906,-3.402602 0.14667,-3.564292 -0.0324,-0.16169 -0.13003,-0.07578 -0.13483,-0.105641 -0.0109,-0.06742 -1.13475,1.616053 -2.14475,3.334221 -1.80334,3.067768 -4.31498,8.1255 -4.90784,9.882994 -0.42436,1.257974 -0.42714,4.192633 -0.006,5.855628 0.35424,1.397326 1.50583,3.240128 2.17069,3.595953 0.2139,0.114475 0.20492,0.212693 -0.0283,-0.606297 -0.37792,-1.327024 -0.34907,-3.845151 0.063,-5.49908 0.36611,-1.469475 0.78006,-2.606953 1.22498,-3.366159 l 0.32356,-0.552105 0.14051,0.550806 c 0.26892,1.054182 1.05254,1.99343 3.10459,3.721206 1.07647,0.906357 1.69645,1.615617 2.40264,2.748667 0.84294,1.352442 1.12514,2.299028 1.12514,3.774094 v 1.231298 l 0.73496,0.430174 c 2.5747,1.506994 5.73118,5.255124 7.66867,9.106091 2.25474,4.48152 2.74556,8.46564 1.52308,12.36318 -0.83133,2.65047 -2.82031,5.44568 -5.43375,7.63629 -2.12564,1.78173 -5.44454,3.7729 -7.71009,4.62565 l -0.79708,0.30002 -0.90331,-0.37175 c -6.84627,-2.81749 -11.73349,-7.64206 -13.13895,-12.97052 -1.28618,-4.87628 0.19013,-10.20808 4.38939,-15.852584 1.45554,-1.95649 3.96279,-4.381976 5.37916,-5.203733 0.18665,-0.108293 0.0917,-0.196308 -0.71674,-0.664147 -0.96355,-0.557619 -2.33349,-1.855336 -3.09624,-2.932989 l -0.40057,-0.496329 -1.23907,0.656309 c -0.69903,0.370261 -1.35835,0.800402 -1.4877,0.914619 -0.12935,0.114217 -0.45485,0.343862 -0.72334,0.510323 -0.47047,0.291687 -0.49303,0.333765 -0.62258,1.161057 -0.61659,3.937387 -2.68996,9.121654 -5.58708,13.969974 -0.56038,0.9378 -1.21408,2.0996 -1.45266,2.58178 l -0.43378,0.87668 0.0113,1.41637 c 0.009,1.17982 0.0646,1.59313 0.33006,2.47471 1.16459,3.86692 3.47237,6.94855 7.83129,10.45725 0.74377,0.59869 3.44252,2.64058 5.99722,4.53753 2.5547,1.89695 4.87726,3.65154 5.16124,3.8991 0.28397,0.24755 0.60147,0.44981 0.70555,0.44946 0.10408,-3.5e-4 0.61257,-0.32724 1.12997,-0.72643 z m -0.889,-8.47455 c 0.88308,-1.39821 2.32109,-4.27552 3.04134,-6.08542 2.4572,-6.17457 2.32992,-11.25358 -0.4466,-17.82173 -0.73746,-1.744519 -2.74836,-5.369454 -2.88737,-5.323118 -0.16373,0.05458 -2.02019,3.56119 -2.70685,5.192618 -1.54683,3.67513 -2.19179,6.55262 -2.19197,9.77955 -2.2e-4,3.81361 0.95324,7.10719 3.45309,11.9282 1.11605,2.15234 1.35127,2.56037 1.47583,2.56037 0.0417,0 0.17062,-0.085 0.26253,-0.23047 z"
       id="path21" /><path
       style="fill:#45c735;fill-opacity:1;stroke:#000000;stroke-width:1.35"
       d="m 1870.245,486.93155 c -12.0973,-9.11265 -24.02,-18.30928 -26.495,-20.43696 -11.2986,-9.71304 -18.6681,-19.24556 -23.0361,-29.7976 -2.2981,-5.55171 -3.0788,-8.92421 -3.4818,-15.04166 l -0.3356,-5.09468 2.1372,-3.90532 c 1.1756,-2.14794 3.7004,-6.60533 5.6108,-9.90533 10.2502,-17.70596 17.2013,-34.64753 20.1044,-49 1.1575,-5.72219 1.3014,-6.0745 3.1074,-7.60903 2.0645,-1.75418 11.7012,-7.64097 12.5082,-7.64097 0.2747,0 1.1055,0.87453 1.8463,1.94341 1.989,2.87023 8.1241,8.64738 11.4198,10.75357 l 2.8806,1.84093 -3.9054,2.94281 c -4.7908,3.61001 -12.7715,11.82216 -17.0278,17.52173 -15.6894,21.0096 -21.1858,42.21066 -15.7795,60.86648 4.2182,14.55625 14.943,27.7435 31.3002,38.48677 5.1048,3.3528 18.1754,9.92412 20.7726,10.44355 3.2707,0.65415 17.9831,-6.88761 28.3787,-14.54726 15.6401,-11.52399 25.0028,-25.6771 27.2776,-41.23427 0.7368,-5.03908 0.3481,-14.78496 -0.7785,-19.51772 -1.4378,-6.04044 -3.3395,-11.22311 -6.5131,-17.75 -7.2047,-14.81784 -17.9496,-28.0441 -28.2985,-34.8338 l -3.8126,-2.50131 -0.23,-5.33245 c -0.1788,-4.14345 -0.5053,-6.00719 -1.4644,-8.35856 -2.0387,-4.99788 -5.7754,-10.01775 -10.9184,-14.6677 -9.0782,-8.20771 -10.6272,-10.13563 -12.8644,-16.01128 -0.4479,-1.17649 -0.4894,-1.15276 -1.7478,1 -5.3622,9.17335 -7.4226,25.10231 -4.6186,35.7051 0.5214,1.9714 -3.2014,-2.81053 -5.2428,-6.73452 -2.9022,-5.57837 -3.7025,-9.3988 -3.7216,-17.76548 -0.019,-8.39505 0.3517,-9.85421 5.1588,-20.30292 5.8635,-12.74501 21.6076,-41.03039 22.3982,-40.23983 0.1419,0.14193 -0.03,5.77379 -0.3826,12.51524 -0.9435,18.05144 -0.375,23.2236 3.3829,30.77751 2.1314,4.28457 7.9159,10.41681 16.2716,17.25 2.8708,2.34772 5.0385,4.51633 5.2477,5.25 0.626,2.19492 0.2995,12.60341 -0.4979,15.875 -0.419,1.71875 -0.5902,3.125 -0.3805,3.125 0.6407,0 3.4185,-3.4098 4.492,-5.5139 0.5573,-1.09236 1.1091,-1.9861 1.2263,-1.9861 0.6606,0 13.2398,7.91984 14.3916,9.0609 0.8033,0.79578 1.375,1.90668 1.375,2.67172 0,0.72024 0.3511,3.00929 0.7802,5.08677 2.7381,13.25613 9.1681,29.04914 19.2266,47.22334 8.7073,15.7329 8.6936,15.6985 8.3378,20.90375 -1.0241,14.98261 -10.4226,30.35902 -27.0253,44.21495 -9.0254,7.53222 -47.6104,36.83857 -48.502,36.83857 -0.3175,0 -10.4751,-7.4558 -22.5723,-16.56845 z"
       id="path22"
       transform="scale(0.26458333)" /><path
       style="fill:#45c735;fill-opacity:1;stroke:#000000;stroke-width:1.35"
       d="m 1887.1067,459.625 c -9.8462,-19.5013 -12.712,-29.58324 -12.6856,-44.62831 0.019,-10.68837 1.7284,-19.68896 5.8612,-30.85787 1.9756,-5.339 11.2736,-24.80533 12.0888,-25.30915 0.5758,-0.35588 6.3685,10.27216 9.9035,18.17033 3.1784,7.10135 6.4156,17.08242 7.7913,24.02214 1.4614,7.37214 1.5808,19.37934 0.2608,26.22786 -1.9816,10.28085 -4.9529,18.52272 -11.1085,30.81354 -4.1491,8.28437 -5.9897,11.43646 -6.6782,11.43646 -0.2461,0 -2.6911,-4.44375 -5.4333,-9.875 z"
       id="path23"
       transform="scale(0.26458333)" /></g></svg>
