<?xml version="1.0" encoding="UTF-8" standalone="no"?>
<!-- Created with Inkscape (http://www.inkscape.org/) -->

<svg
   width="61.043755mm"
   height="58.342136mm"
   viewBox="0 0 61.043755 58.342136"
   version="1.1"
   id="svg1"
   xml:space="preserve"
   xmlns="http://www.w3.org/2000/svg"
   xmlns:svg="http://www.w3.org/2000/svg"><defs
     id="defs1" /><g
     id="layer1"
     transform="translate(-609.71496,-64.967231)"><path
       style="fill:#000000"
       d="m 636.56415,123.30903 h -0.0728 l 0.10323,-0.49977 0.10322,-0.49977 -9.6e-4,-1.11713 -9.7e-4,-1.11713 -0.30494,-0.64676 -0.30493,-0.64676 -0.33932,-0.3352 -0.33931,-0.3352 -0.43783,-0.22336 -0.43783,-0.22337 h -0.70898 -0.70898 l -0.55983,0.2156 -0.55982,0.2156 -0.58159,0.37236 -0.58159,0.37237 h -0.22397 -0.22397 l -3.80995,-3.72201 -3.80995,-3.72202 v -0.084 -0.084 l 0.70555,-0.25726 0.70556,-0.25725 v -0.10019 -0.10019 l -1.20532,-0.85698 -1.20533,-0.85698 -1.62836,-1.22375 -1.62837,-1.22376 -1.19386,-1.03377 -1.19385,-1.03378 -1.04439,-1.05957 -1.04439,-1.05957 0.69161,-0.13546 0.69161,-0.13546 0.61736,-0.12998 0.61736,-0.12999 v -0.0722 -0.0722 l -0.94861,-0.93798 -0.94862,-0.937976 -0.79867,-0.94074 -0.79866,-0.94074 -0.13927,-0.26633 -0.13927,-0.26633 0.15206,-0.0478 0.15206,-0.0478 1.35232,-0.4355 1.35231,-0.435495 0.0895,-0.08071 0.0895,-0.08071 -0.90068,-1.051168 -0.90069,-1.051167 -0.96484,-1.175926 -0.96485,-1.175926 -0.72412,-0.965927 -0.72413,-0.965926 -0.58431,-0.911995 -0.58431,-0.911995 0.0913,-0.09126 0.0912,-0.09126 1.22934,-0.170512 1.22934,-0.170512 1.7051,-0.134937 1.70509,-0.134937 3.72205,0.04037 3.72205,0.04037 -0.0984,-0.183756 -0.0984,-0.183755 -0.50878,-0.468982 -0.50879,-0.468982 -0.73077,-0.49626 -0.73078,-0.496259 -0.1192,-0.222728 -0.1192,-0.222727 -0.25242,-1.509294 -0.25243,-1.509294 0.002,-1.881481 0.002,-1.881482 0.25099,-1.203404 0.251,-1.203403 0.30698,-0.854467 0.30699,-0.854467 0.44469,-0.881944 0.4447,-0.881945 0.61526,-0.871628 0.61526,-0.871629 0.83608,-0.845101 0.83609,-0.845101 0.95541,-0.704845 0.95541,-0.704845 1.17429,-0.603196 1.1743,-0.603196 1.08635,-0.363959 1.08634,-0.36396 0.0404,0.04036 0.0404,0.04036 -0.52944,1.11411 -0.52944,1.11411 -0.34498,0.977382 -0.34497,0.977382 -0.25731,1.198081 -0.25731,1.198081 -0.003,1.822685 -0.003,1.822685 0.19244,0.844092 0.19245,0.844092 0.28976,0.717395 0.28977,0.717396 0.39448,0.657403 0.39448,0.657404 0.42925,0.485739 0.42925,0.485739 0.073,-0.07103 0.0729,-0.07103 -0.13938,-1.163695 -0.13939,-1.163696 0.01,-2.293055 0.01,-2.293056 0.13056,-1.058333 0.13056,-1.058334 0.1286,-0.671902 0.12861,-0.671902 0.72049,0.54945 0.72049,0.54945 1.45268,1.41597 1.45268,1.415971 1.08525,1.352315 1.08526,1.352315 1.54408,2.175463 1.54409,2.175463 0.77668,0.881944 0.77667,0.881945 0.90334,0.798018 0.90334,0.798017 1.41111,0.990406 1.41112,0.990405 1.81456,1.210188 1.81456,1.210188 0.0427,0.133165 0.0427,0.133165 -0.60583,0.444725 -0.60584,0.444726 0.27727,0.21451 0.27726,0.21451 0.64676,0.251344 0.64676,0.251344 0.82857,0.0048 0.82856,0.0048 0.6487,-0.296981 0.64869,-0.296982 0.77121,-0.721429 0.77121,-0.721429 0.62138,-0.912068 0.62139,-0.912068 0.08,-0.09233 0.08,-0.09233 1.23466,0.404444 1.23466,0.404445 0.87199,0.438802 0.87198,0.438802 0.68982,0.468065 0.68981,0.468065 0.67825,0.678248 0.67824,0.678248 0.50527,0.744036 0.50526,0.744035 0.56125,1.279807 0.56124,1.279807 0.32596,0.427361 0.32597,0.427362 0.6984,0.766848 0.6984,0.766848 0.70013,0.9403 0.70012,0.9403 0.11266,0.29442 0.11265,0.29442 -0.18072,0.735033 -0.18073,0.73502 -0.27348,0.67707 -0.27348,0.67707 -0.46612,0.70439 -0.46612,0.70438 -0.80777,0.85176 -0.80776,0.85175 -0.59321,-0.79277 -0.5932,-0.79277 -0.61941,-0.71441 -0.61941,-0.71441 -0.65784,-0.50752 -0.65784,-0.50752 -0.0649,0.0649 -0.0649,0.0649 -0.27516,1.21584 -0.27516,1.21584 -0.25337,0.67616 -0.25337,0.67616 h -0.0966 -0.0966 l -0.0581,-0.15151 -0.0581,-0.1515 -1.05255,-1.4066 -1.05256,-1.4066 -0.56185,-0.62044 -0.56184,-0.62044 -0.52264,0.79683 -0.52264,0.79683 -0.30669,0.32114 -0.3067,0.32113 -0.21341,-0.47667 -0.21341,-0.47666 -0.24701,-0.3469 -0.24702,-0.3469 -0.48986,-0.25079 -0.48987,-0.25079 -0.82315,0.006 -0.82314,0.006 -0.75248,0.25481 -0.75248,0.25481 -0.65863,0.33457 -0.65864,0.33457 -0.5129,0.37408 -0.5129,0.37409 0.39531,0.40883 0.39531,0.40884 0.87584,0.43346 0.87585,0.43346 0.88804,-0.003 0.88805,-0.003 1.88148,-0.54537 1.88148,-0.54538 0.38007,-0.0655 0.38008,-0.0655 0.46298,0.67279 0.46297,0.6728 1.01303,1.35232 1.01302,1.35231 0.46887,0.94074 0.46887,0.94074 0.12796,0.73662 0.12796,0.73662 -0.12867,1.09101 -0.12867,1.09101 -0.30889,1.22978 -0.30888,1.22978 -0.14773,0.28475 -0.14772,0.28476 -0.56768,-0.73101 -0.56768,-0.73102 -0.71198,-0.58335 -0.71199,-0.58336 -0.76435,-0.40035 -0.76435,-0.40035 -0.70555,-0.20815 -0.70556,-0.20815 -0.99954,0.002 -0.99953,0.002 -0.49977,0.14117 -0.49977,0.14117 v 0.0743 0.0743 l 0.59662,0.5385 0.59662,0.53851 -5.27093,3.61961 -5.27092,3.6196 -0.10791,-0.5328 -0.1079,-0.5328 h -0.0885 -0.0885 l -2.09666,1.03178 -2.09665,1.03178 -1.26518,0.49692 -1.26518,0.49693 z m 3.3877,-4.29342 0.0386,0.0598 2.52825,-1.40968 2.52824,-1.40968 0.14732,0.35149 0.14733,0.3515 h 0.0664 0.0664 l 2.0978,-1.53293 2.09781,-1.53293 0.0637,-0.16596 0.0637,-0.16596 -0.90527,-0.34796 -0.90527,-0.34796 -2.38843,-0.90539 -2.38843,-0.90538 -0.0613,0.0613 -0.0613,0.0613 0.72494,1.07814 0.72495,1.07815 -0.0572,0.0572 -0.0572,0.0572 -0.80507,-0.31618 -0.80508,-0.31619 -2.13137,-1.04403 -2.13136,-1.04404 -0.13831,-0.16666 -0.13832,-0.16666 0.68218,-0.19703 0.68218,-0.19703 0.79375,-0.41559 0.79375,-0.4156 v -0.0894 -0.0894 l -0.64677,-0.26251 -0.64676,-0.2625 -0.67615,-0.4675 -0.67616,-0.4675 -0.92343,-0.90055 -0.92343,-0.90056 -1.42086,-1.76388 -1.42087,-1.76389 -0.5145,-0.57927 -0.51451,-0.57927 0.15417,-0.0856 0.15417,-0.0856 1.35232,-0.26323 1.35231,-0.26323 0.10001,-0.0892 0.10001,-0.0892 -0.31697,-0.540866 -0.31697,-0.54087 0.0406,0.001 0.0406,10e-4 1.58306,0.52008 1.58307,0.520076 1.76832,2.41909 1.76832,2.41908 1.24686,0.74008 1.24686,0.74009 0.75222,0.60033 0.75221,0.60033 0.88859,0.92283 0.8886,0.92284 0.39546,0.55856 0.39546,0.55857 h 0.19908 0.19908 l 0.80992,-0.33931 0.80992,-0.3393 0.98545,-0.50573 0.98546,-0.50573 0.98812,-0.0519 0.98813,-0.0519 0.84864,0.2031 0.84865,0.2031 0.96112,0.44675 0.96112,0.44676 0.56758,0.38359 0.56759,0.38358 0.62302,0.52415 0.61476,0.43732 0.088,0.007 0.0797,-0.0797 -0.26264,-1.02192 -0.26263,-1.02193 -0.58889,-1.17592 -0.58889,-1.17593 -0.64838,-0.91134 -0.66077,-0.79145 -0.21094,-0.11989 h -0.22333 l -1.74055,0.42599 -1.74056,0.426 -1.53111,-0.0754 -1.5311,-0.0754 -0.88195,-0.0719 -0.88194,-0.0718 -1.82269,-2.63704 -1.84748,-2.47582 -0.62978,0.5538 -0.65458,0.71502 -1.6058,-1.79373 -1.60581,-1.793726 0.0849,-0.0792 0.0849,-0.0792 1.41111,-0.18594 1.41111,-0.18594 1.7051,-0.11849 1.70509,-0.11849 1.41312,-0.001 1.41311,-0.001 1.87948,0.12117 1.87947,0.12118 1.94028,0.23476 1.94028,0.23476 2.03405,0.40841 2.03405,0.40842 0.0242,-0.05846 0.0417,-0.06431 0.14052,-0.230003 0.12298,-0.35278 h 0.10862 0.10862 l 0.87311,0.56998 0.87311,0.56997 0.86044,0.740559 0.86044,0.74055 0.65389,0.80041 0.58958,0.67179 0.14679,0.0142 0.11756,-0.009 0.3922,-0.785 0.3922,-0.785 0.20291,-0.61924 0.20291,-0.61924 -0.30574,-0.521709 -0.30574,-0.5217 -0.69007,-0.85813 -0.69006,-0.85813 -0.72427,-0.705558 -0.72426,-0.705556 -0.24543,-0.823148 -0.24543,-0.823148 -0.42197,-0.814634 -0.42196,-0.814633 -0.63242,-0.683086 -0.63242,-0.683085 -0.78255,-0.519691 -0.78255,-0.51969 -0.66326,-0.292867 -0.66325,-0.292867 -0.35794,-0.07862 -0.34624,0.01492 -1.00338,0.825441 -0.9917,0.918985 -0.92693,0.548163 -0.92693,0.548164 -0.73125,0.245586 -0.73124,0.245587 -0.73866,-2.97e-4 -0.73867,-2.96e-4 -1.11554,-0.298857 -1.11554,-0.298857 -0.83977,-0.403909 -0.83976,-0.40391 -0.36715,-0.418158 -0.36714,-0.418159 4.4e-4,-0.43688 4.4e-4,-0.436881 0.2282,-0.374256 0.11127,-0.38595 -1.25824,-0.780874 -1.37517,-0.792567 -1.17592,-0.762931 -1.17593,-0.762932 -1.00469,-1.01006 -1.00468,-1.010059 -2.07377,-3.116204 -2.07376,-3.116204 -0.9785,-1.247561 -0.97849,-1.247562 -0.62727,-0.683631 -0.48694,-0.461463 -0.25486,-0.05486 -0.11454,0.167303 0.0709,1.411111 0.0709,1.411112 0.16675,1.058333 0.16676,1.058333 0.30436,1.175926 0.30437,1.175926 0.53438,1.352315 0.53438,1.352315 0.63214,1.205324 0.63213,1.205324 h -0.10177 -0.10176 l -0.80614,-0.246006 -0.80614,-0.246006 -0.89771,-0.445913 -0.89771,-0.445913 -0.74859,-0.501725 -0.74858,-0.501725 -1.18136,-1.187606 -1.18135,-1.187606 -0.55401,-0.893211 -0.554,-0.893211 -0.30671,-0.753085 -0.3067,-0.753086 -0.28268,-1.111831 -0.28267,-1.111832 -0.0716,-1.357613 -0.0716,-1.357613 0.1957,-1.324362 0.1957,-1.324362 0.24331,-0.792304 0.24331,-0.792305 0.28844,-0.688901 0.21816,-0.610353 -0.0458,-0.04583 -0.0458,-0.04583 -0.50715,0.303404 -0.57744,0.381952 -0.8015,0.755611 -0.8015,0.75561 -0.70129,0.930687 -0.70129,0.930687 -0.52095,1.077129 -0.52095,1.077128 -0.28992,0.896516 -0.28993,0.896516 -0.20045,1.198792 -0.20045,1.198792 0.0568,1.726452 0.0568,1.726451 0.19792,0.83418 0.24177,0.810794 0.80345,0.416405 0.8473,0.393019 0.76546,0.771875 0.76546,0.771875 0.4856,0.940741 0.4856,0.940741 0.64461,1.763888 0.64462,1.763889 0.30455,1.058334 0.30455,1.058333 0.034,0.340106 0.034,0.340106 -5.63588,2.025483 -5.63587,2.025486 -0.17309,0.10918 -0.0697,0.115381 0.64913,0.590509 0.75248,0.5967 1.08568,0.711089 1.08569,0.71109 0.38422,0.11694 0.38423,0.11693 1.23472,0.0637 1.23472,0.0637 0.94074,0.23958 0.94074,0.23959 1.05834,0.5226 1.05833,0.5226 0.76435,0.63337 0.76435,0.63337 0.32937,0.43269 0.32936,0.4327 h -0.23991 -0.23991 l -0.59281,0.22525 -0.59282,0.22525 -0.87835,0.54746 -0.80527,0.55914 -0.0731,0.092 0.0497,0.092 1.68479,1.03318 1.73449,1.0215 0.0584,0.0518 0.0584,0.0518 -1.22323,1.14147 -1.22322,1.14147 0.92872,1.02715 0.92873,1.02714 1.70598,-0.063 1.70597,-0.063 1.36979,-0.0598 1.36978,-0.0598 1.21725,0.90431 1.21726,0.90431 1.17034,0.95041 1.17034,0.9504 0.17183,0.1301 0.17183,0.13009 -0.61133,1.13403 -0.51212,0.98519 z m 22.11658,-22.645375 -0.0882,-0.01009 -0.70556,-0.334056 -0.70555,-0.334057 -0.91377,-0.250241 -0.91377,-0.250241 -1.32049,-0.109253 -1.32049,-0.109252 -0.11759,-0.0078 -0.1176,-0.0078 1.05834,-0.388453 1.05833,-0.388454 0.73153,-0.440529 0.73154,-0.440529 0.40987,0.253319 0.40988,0.253318 0.55021,0.610933 0.55021,0.610934 0.39565,0.586393 0.39565,0.586394 v 0.08976 0.08976 z m -20.16005,-1.583913 -0.66908,0.267432 -0.33046,-0.22488 -0.33045,-0.224881 -0.78541,-0.402627 -0.7854,-0.402628 -0.4625,-0.07396 -0.4625,-0.07396 -0.11839,-0.07576 -0.11839,-0.07576 -0.32462,-0.646759 -0.32462,-0.646759 -0.68257,-0.940741 -0.68257,-0.940741 -0.58888,-0.705555 -0.58887,-0.705556 0.55171,-0.07789 0.55171,-0.07789 1.76389,-0.0052 1.76389,-0.0052 0.48332,0.09367 0.48332,0.09367 2.86807,2.505777 2.86807,2.505776 0.23518,0.227394 0.23519,0.227394 -1.00399,-0.08037 -1.00398,-0.08037 -0.93629,0.139445 -0.9363,0.139445 z m -17.9638,11.904148 0.0756,-0.0146 0.19707,-0.16514 0.19707,-0.21776 0.6347,-0.96473 0.54168,-0.94405 -0.22076,-0.14045 -0.31378,-0.11978 -0.94074,-0.22163 -0.94074,-0.22163 -0.99953,-0.1148 -0.99954,-0.1148 -1.33843,-0.0803 -1.21272,-0.0204 -0.0454,0.07 0.0803,0.12988 1.31695,0.874 1.31695,0.874 1.29081,0.71507 1.29082,0.71508 z m -4.87013,-11.838847 h 0.27566 l 1.14794,-0.361531 1.13331,-0.41415 1.54332,-0.697042 1.52871,-0.74966 1.04885,-0.799688 1.04885,-0.799688 0.0434,-0.131203 -0.0443,-0.116586 -1.19311,-0.44009 -1.28082,-0.425473 -0.98738,-0.2335 -0.98738,-0.233501 -1.17592,-0.192737 -1.17593,-0.192737 -3.43887,-0.05888 -3.43887,-0.05887 -0.18692,0.07173 -0.0437,0.127272 0.24875,0.444149 0.392,0.499691 0.93824,0.981277 0.93824,0.981277 1.11963,0.967444 1.11963,0.967444 0.57548,0.432529 0.57547,0.432529 z"
       id="path227" /><path
       style="fill:#ec1b2b;fill-opacity:1;stroke:#000000;stroke-width:0.954594"
       d="m 2418.8355,449.50772 c 0,-0.1267 0.9435,-2.0002 2.0967,-4.16334 l 2.0968,-3.93297 -5.5439,-4.45228 c -3.0491,-2.44876 -7.4137,-5.84936 -9.699,-7.5569 l -4.1551,-3.10462 -9.2799,0.39776 c -5.104,0.21876 -10.3936,0.39397 -11.7548,0.38935 l -2.4749,-0.008 -3.3176,-3.7256 -3.3177,-3.72559 3.1409,-2.92373 c 1.7275,-1.60806 3.7375,-3.44456 4.4667,-4.08113 0.7292,-0.63656 1.3258,-1.34622 1.3258,-1.57702 0,-0.2308 -2.9623,-2.16328 -6.5828,-4.2944 -3.6205,-2.13113 -6.5897,-4.03387 -6.5981,-4.22833 -0.01,-0.19445 1.4379,-1.26802 3.2139,-2.3857 3.3238,-2.09169 7.2763,-3.80148 8.7879,-3.80148 0.8505,0 0.8469,-0.0146 -0.4115,-1.67938 -2.1778,-2.88101 -6.6691,-6.33486 -11.1283,-8.55787 -5.0707,-2.52785 -9.9871,-3.77771 -16.0957,-4.09184 -2.3334,-0.11999 -4.879,-0.38137 -5.6568,-0.58082 -2.1901,-0.5616 -15.0261,-9.28675 -15.0261,-10.21381 0,-0.36955 2.0496,-1.13836 24.5137,-9.19538 l 19.0337,-6.82663 -0.2295,-1.61261 c -0.6394,-4.49318 -5.9158,-19.61732 -9.0209,-25.85752 -1.5081,-3.03058 -2.347,-4.20913 -4.7189,-6.62962 -2.4458,-2.49584 -3.3789,-3.17651 -6.1321,-4.47291 -3.1573,-1.4867 -3.2584,-1.57174 -3.6466,-3.0666 -0.2195,-0.84562 -0.5561,-2.09434 -0.7479,-2.77493 -0.1918,-0.68059 -0.437,-4.41942 -0.5449,-8.30851 -0.1725,-6.2212 -0.1043,-7.60223 0.5675,-11.49048 1.9685,-11.39191 7.1935,-21.3507 15.0859,-28.75339 2.9111,-2.73043 6.8198,-5.6916 7.1185,-5.39287 0.071,0.0707 -0.2994,1.14011 -0.8224,2.37653 -1.7019,4.02335 -2.8981,8.51243 -3.6609,13.73851 -1.3282,9.10092 -0.249,18.03179 3.2258,26.69328 2.7608,6.88194 9.819,15.39071 16.5636,19.96774 3.9347,2.67016 9.6687,5.53207 13.2039,6.59021 4.5494,1.3617 4.4864,1.48965 1.8063,-3.66537 -6.4253,-12.35913 -9.7086,-24.11944 -10.3887,-37.21149 -0.3209,-6.17695 -0.156,-6.60248 1.8216,-4.70087 3.2372,3.11274 10.4449,12.761 18.3025,24.49986 7.6559,11.43749 8.7261,12.86988 12.0608,16.14337 3.8564,3.78559 8.4451,6.99071 17.2713,12.06372 2.4306,1.39708 4.63,2.67878 4.8874,2.84824 0.3757,0.24731 0.3236,0.54492 -0.2639,1.50856 -0.4967,0.81477 -0.7322,1.80347 -0.7331,3.07734 0,1.58897 0.1749,2.09669 1.1477,3.30973 2.5774,3.21398 13.0313,7.01098 19.3026,7.01098 2.393,0 3.7145,-0.20474 5.7163,-0.88558 4.1385,-1.40761 9.2341,-4.64698 13.3846,-8.50895 4.2158,-3.92269 4.0489,-3.88582 8.5849,-1.89594 3.752,1.6459 8.2486,4.80002 10.9939,7.71156 2.7343,2.89993 5.1632,7.34628 6.4718,11.84747 0.7791,2.67957 0.9575,2.95024 3.9676,6.01903 3.7686,3.84207 7.0062,7.81658 8.6722,10.64608 l 1.2189,2.07019 -0.7899,2.31958 c -0.7612,2.23494 -3.0858,7.17387 -3.7868,8.0455 -0.2441,0.30345 -1.0671,-0.45113 -2.9188,-2.67589 -1.4184,-1.70418 -3.9915,-4.30625 -5.718,-5.78238 -3.4165,-2.92106 -9.3764,-6.99036 -10.2381,-6.99036 -0.2962,0 -0.7711,0.55684 -1.0555,1.23743 -0.2844,0.68059 -0.725,1.23744 -0.9792,1.23744 -0.2542,0 -3.6329,-0.63995 -7.5083,-1.42211 -11.9167,-2.40513 -29.9503,-4.23514 -41.6943,-4.23103 -9.0265,0.003 -28.6751,1.83673 -29.6007,2.76227 -0.3284,0.32838 0.6915,1.53967 9.2219,10.95256 l 2.9804,3.28872 2.2755,-2.49323 c 1.2515,-1.37127 2.4112,-2.49322 2.577,-2.49322 0.1659,0 3.2952,4.35277 6.9541,9.67283 l 6.6525,9.67282 2.4748,0.22598 c 1.3612,0.1243 5.4978,0.39193 9.1924,0.59474 l 6.7175,0.36876 6.5408,-1.60233 c 3.5974,-0.88129 6.9385,-1.59964 7.4246,-1.59634 2.1274,0.0144 9.3145,12.5154 11.0874,19.28503 0.5134,1.96034 0.9334,3.67066 0.9334,3.8007 0,0.57317 -0.8184,0.1086 -2.8967,-1.64425 -4.9431,-4.16917 -11.1761,-7.42166 -16.8157,-8.7747 -2.6116,-0.62657 -3.7198,-0.707 -7.1358,-0.5179 -3.9921,0.22099 -4.0851,0.24602 -7.2478,1.9498 -3.577,1.92698 -9.87,4.63039 -10.758,4.62156 -0.3177,-0.003 -1.3525,-1.10947 -2.2997,-2.45849 -1.9307,-2.7497 -8.826,-9.62696 -12.0725,-12.04074 -1.17,-0.86994 -4.1244,-2.76764 -6.5653,-4.21712 l -4.4379,-2.63541 -6.6618,-9.11348 -6.6619,-9.11348 -6.1135,-2.02667 c -3.3624,-1.11467 -6.2096,-1.93053 -6.3271,-1.81303 -0.1175,0.11751 0.2728,1.00429 0.8674,1.97063 0.953,1.54869 1.3326,2.56266 0.9595,2.56266 -0.7559,0 -10.6756,2.19846 -11.2099,2.48439 -0.6758,0.36168 -0.5871,0.53087 1.5342,2.92721 1.2383,1.39885 4.572,5.40714 7.4083,8.90732 8.317,10.26395 14.5928,15.88906 19.9783,17.90682 1.2153,0.45535 2.2079,0.90827 2.2057,1.00648 -0.01,0.40628 -6.6962,3.58211 -8.6581,4.11182 -2.7633,0.74613 -2.8095,0.78292 -2.0559,1.63898 1.1476,1.30378 21.3898,10.86801 23.0016,10.86801 0.795,0 0.4841,-0.66139 -2.1965,-4.67286 -1.4524,-2.17359 -2.5827,-4.01006 -2.5117,-4.08105 0.1244,-0.12438 24.2048,8.94998 24.4796,9.22477 0.3978,0.39779 -0.6487,1.38642 -4.0572,3.8328 -2.0786,1.49197 -5.6504,4.07941 -7.9371,5.74988 l -4.1578,3.03722 -0.6047,-1.33047 c -0.3326,-0.73175 -0.6265,-1.37405 -0.6532,-1.42731 -0.027,-0.0533 -3.8497,2.03015 -8.4957,4.62983 -9.9451,5.56468 -10.7455,5.98813 -10.7455,5.68465 z m 84.1419,-85.43612 c -0.013,-1.45864 -6.6376,-9.3223 -9.04,-10.73023 l -1.581,-0.92654 -2.9077,1.73722 c -1.5993,0.95548 -4.6227,2.34802 -6.7187,3.09455 -2.096,0.74653 -3.8773,1.46467 -3.9584,1.59587 -0.081,0.1312 2.339,0.43352 5.378,0.6718 6.2897,0.49318 10.9825,1.63512 15.2861,3.71969 2.8243,1.36805 3.5478,1.53915 3.5417,0.83764 z m -76.0791,-5.88849 c 3.9773,-1.58119 10.9359,-2.11354 15.8021,-1.20889 l 1.0606,0.19718 -0.8839,-0.97424 c -0.4861,-0.53583 -5.8212,-5.29847 -11.8558,-10.58366 -10.7549,-9.41922 -11.0132,-9.61769 -13.0521,-10.02715 -3.7738,-0.7579 -18.3409,-0.4203 -19.2063,0.44512 -0.097,0.0974 0.7596,1.31204 1.9044,2.69918 3.5179,4.26246 7.1744,9.47017 8.5064,12.11528 0.6982,1.38634 1.5229,2.70601 1.8328,2.93259 0.3099,0.22658 1.3629,0.51641 2.34,0.64405 1.6876,0.22043 6.0883,2.31789 8.9805,4.28025 0.8671,0.58834 1.3988,0.72993 1.9446,0.51785 0.4131,-0.16053 1.5951,-0.62744 2.6267,-1.03756 z"
       id="path228"
       transform="scale(0.26458333)" /><path
       style="fill:#ec1b2b;fill-opacity:1;stroke:#000000;stroke-width:0.954594"
       d="m 2336.2808,356.32019 c -6.2752,-4.83465 -14.7197,-12.83531 -18.382,-17.41599 -1.4917,-1.86575 -1.6043,-2.12388 -1.0169,-2.33137 0.3633,-0.12834 6.7063,-0.1143 14.0956,0.0312 14.3509,0.28256 16.9896,0.55907 25.4558,2.66759 5.5069,1.37148 12.5845,3.7843 12.473,4.25216 -0.054,0.2276 -1.8895,1.78445 -4.0784,3.45968 -3.106,2.37719 -5.2793,3.66928 -9.8994,5.88554 -5.1514,2.47106 -13.7548,5.63796 -15.301,5.63224 -0.2851,-10e-4 -1.7911,-0.98252 -3.3467,-2.18103 z"
       id="path229"
       transform="scale(0.26458333)" /><path
       style="fill:#ec1b2b;fill-opacity:1;stroke:#000000;stroke-width:0.954594"
       d="m 2353.0522,400.46075 c -5.4963,-3.13854 -14.8137,-9.1473 -14.8213,-9.55816 -0.01,-0.37974 7.2203,0.008 13.0311,0.69964 4.1522,0.49402 10.023,1.73484 12.1682,2.57179 1.1663,0.45503 1.2671,0.20847 -2.1116,5.16453 -1.5917,2.33472 -2.6505,3.55644 -3.1175,3.59707 -0.3889,0.0338 -2.7059,-1.07985 -5.1489,-2.47487 z"
       id="path230"
       transform="scale(0.26458333)" /></g></svg>
