<?xml version="1.0" encoding="UTF-8" standalone="no"?>
<!-- Created with Inkscape (http://www.inkscape.org/) -->

<svg
   width="173.25253mm"
   height="151.96138mm"
   viewBox="0 0 173.25253 151.96138"
   version="1.1"
   id="svg1"
   xml:space="preserve"
   xmlns="http://www.w3.org/2000/svg"
   xmlns:svg="http://www.w3.org/2000/svg"><defs
     id="defs1" /><g
     id="layer1"
     transform="translate(-841.66245,-39.906109)"><path
       style="fill:#000000"
       d="m 898.08009,191.82028 -2.23426,0.0472 -0.76435,-0.0455 -0.76436,-0.0455 -1.64629,-0.18247 -1.6463,-0.18247 -1.5287,-0.29355 -1.52871,-0.29354 -1.35077,-0.35919 -1.35077,-0.35919 -1.53024,-0.53047 -1.53025,-0.53047 -1.5875,-0.69973 -1.5875,-0.69974 -1.23473,-0.65969 -1.23472,-0.6597 -1.17592,-0.70324 -1.17593,-0.70324 -1.00964,-0.67675 -1.00964,-0.67674 -4.04684,2.35193 -4.04684,2.35193 -1.82269,1.07626 -1.82268,1.07626 -1.20825,0.61881 -1.20825,0.61882 -0.67323,-0.003 -0.67323,-0.003 -0.47037,-0.21485 -0.47038,-0.21485 -0.47439,-0.51752 -0.47439,-0.51752 -0.94593,-1.5287 -0.94593,-1.52871 -1.24263,-2.11666 -1.24263,-2.11667 -3.17002,-5.58565 -3.17002,-5.58565 -1.14299,-1.94027 -1.14299,-1.94028 -0.0662,-0.55581 -0.0662,-0.55581 0.15232,-0.54403 0.15232,-0.54402 0.53989,-0.56802 0.5399,-0.56802 6.40879,-3.78845 6.4088,-3.78845 0.041,-0.0332 0.041,-0.0332 -0.18249,-1.3897 -0.1825,-1.38971 -0.0761,-1.76388 -0.0761,-1.76389 0.13355,-2.05787 0.13354,-2.05787 0.23642,-1.6463 0.23641,-1.6463 0.3587,-1.5875 0.3587,-1.5875 0.61933,-1.88148 0.61933,-1.88148 0.50098,-1.17593 0.50097,-1.17592 0.6922,-1.38212 0.6922,-1.38212 0.75139,-1.26371 0.7514,-1.26372 0.89752,-1.28005 0.89753,-1.28005 1.01603,-1.24819 1.01604,-1.24819 1.77306,-1.7659 1.77305,-1.76591 1.46991,-1.17527 1.46991,-1.17528 1.41111,-0.95082 1.41111,-0.95081 1.15287,-0.67531 1.15287,-0.67531 1.78694,-0.85948 1.78695,-0.85949 1.11713,-0.43637 1.11713,-0.43637 1.23472,-0.40129 1.23472,-0.40129 1.7051,-0.41759 1.70509,-0.4176 0.13536,-0.042 0.13535,-0.042 -0.28974,-0.79824 -0.28975,-0.79824 -0.40939,-1.35062 -0.40939,-1.35062 -0.34387,-1.71046 -0.34387,-1.71045 -0.20385,-1.5287 -0.20386,-1.5287 -0.006,-3.292597 -0.006,-3.292593 0.15782,-1.293518 0.15782,-1.293519 0.28891,-1.5875 0.2889,-1.5875 0.29503,-1.175926 0.29503,-1.175926 0.35755,-1.175925 0.35755,-1.175926 0.64713,-1.646297 0.64713,-1.646296 0.98559,-1.940278 0.9856,-1.940278 1.04007,-1.5875 1.04007,-1.5875 0.95019,-1.214991 0.95019,-1.214991 1.2684,-1.410579 1.2684,-1.41058 1.41764,-1.27815 1.41765,-1.27815 0.82314,-0.657075 0.82315,-0.657075 1.10894,-0.789668 1.10893,-0.789667 1.15064,-0.719607 1.15064,-0.719607 1.77034,-0.915626 1.77033,-0.915627 0.0517,-0.246248 0.0517,-0.246248 0.89679,-7.697475 0.89678,-7.697476 0.23799,-0.47521 0.23798,-0.475209 0.31044,-0.33415 0.31045,-0.334149 0.47037,-0.253814 0.47037,-0.253813 h 12.93518 12.93519 l 0.47037,0.254278 0.47037,0.254279 0.37621,0.392481 0.37622,0.39248 0.18923,0.453669 0.18923,0.453668 0.87471,7.425036 0.8747,7.425035 0.0679,0.43177 0.0679,0.431771 1.74626,0.943691 1.74625,0.94369 1.03779,0.642396 1.03779,0.642396 1.31502,0.921958 1.31502,0.921957 1.5072,1.251956 1.5072,1.251955 1.59524,1.630977 1.59524,1.630978 1.02831,1.291604 1.02831,1.291605 0.91528,1.352315 0.91527,1.352314 0.61227,1.042637 0.61228,1.042636 0.68513,1.368012 0.68513,1.368012 0.47456,1.117129 0.47456,1.11713 0.4867,1.411111 0.48671,1.411111 0.29076,1.032682 0.29077,1.032681 0.29844,1.377967 0.29844,1.377967 0.23801,1.5875 0.238,1.5875 0.0634,3.081021 0.0634,3.081019 -0.14171,1.56389 -0.14171,1.56388 -0.28414,1.66895 -0.28413,1.66895 -0.40538,1.56485 -0.40538,1.56485 -0.41821,1.22843 -0.4182,1.22843 v 0.0945 0.0945 h 0.20874 0.20874 l 1.44541,0.35296 1.44541,0.35295 1.66784,0.54372 1.66784,0.54372 1.6463,0.69947 1.6463,0.69948 1.46817,0.76907 1.46817,0.76908 1.23646,0.77455 1.23646,0.77456 0.98113,0.69555 0.98112,0.69555 1.13554,0.9059 1.13554,0.9059 1.15349,1.07264 1.15349,1.07265 1.07264,1.15348 1.07265,1.15349 0.90718,1.13716 0.90719,1.13715 0.76052,1.09711 0.76052,1.0971 0.70615,1.17593 0.70616,1.17592 0.7066,1.41111 0.70661,1.41112 0.47729,1.12279 0.47728,1.1228 0.54351,1.58183 0.54352,1.58184 0.40326,1.58072 0.40327,1.58072 0.2918,1.77066 0.2918,1.77067 0.1209,1.35232 0.1209,1.35231 v 2.35185 2.35186 l -0.1717,1.5875 -0.1717,1.5875 v 0.25096 0.25096 l 6.3794,3.79567 6.3794,3.79567 0.327,0.22674 0.3271,0.22674 0.348,0.60672 0.348,0.60672 v 0.73789 l 10e-4,0.73789 -0.4259,0.84961 -0.4259,0.84961 -1.355,2.35185 -1.355,2.35186 -1.5888,2.70463 -1.5887,2.70463 -3.2893,5.52685 -3.2892,5.52685 -0.2497,0.28015 -0.2497,0.28014 -0.5879,0.27727 -0.588,0.27727 -0.6751,0.001 -0.6751,10e-4 -1.08879,-0.57071 -1.08879,-0.57072 -3.76296,-2.23231 -3.76297,-2.23231 -1.64629,-0.94412 -1.6463,-0.94412 -0.51684,-0.2621 -0.51683,-0.2621 -0.29125,0.1327 -0.29125,0.1327 -1.6561,1.07108 -1.6561,1.07107 -1.35757,0.74 -1.35758,0.73999 -1.62121,0.71604 -1.62122,0.71604 -1.73017,0.59057 -1.73017,0.59056 -1.29352,0.34159 -1.29352,0.34159 -1.52871,0.2926 -1.5287,0.2926 -1.64629,0.19968 -1.6463,0.19969 h -2.93982 -2.93981 l -1.6463,-0.19801 -1.64629,-0.19801 -1.76389,-0.35021 -1.76389,-0.35021 -1.46982,-0.41867 -1.46982,-0.41867 -1.42494,-0.51653 -1.42495,-0.51652 -1.45537,-0.65325 -1.45538,-0.65324 -1.3531,-0.73117 -1.3531,-0.73117 -1.76463,-1.17593 -1.76463,-1.17592 -0.88121,-0.69919 -0.8812,-0.69919 -1.17592,-1.02486 -1.17593,-1.02486 -1.0879,-1.14394 -1.0879,-1.14395 -1.85368,1.80966 -1.85368,1.80966 -1.11536,0.89994 -1.11537,0.89993 -1.29352,0.9052 -1.29352,0.90521 -1.26371,0.75139 -1.26372,0.75139 -1.42648,0.71507 -1.42647,0.71508 -1.30796,0.53721 -1.30795,0.53722 -1.34418,0.45303 -1.34418,0.45303 -1.06647,0.28991 -1.06647,0.28991 -1.76389,0.35232 -1.76388,0.35232 -1.5875,0.17938 -1.5875,0.17938 z m -0.82315,-5.58209 2.70463,0.0126 1.5875,-0.18201 1.5875,-0.18201 1.41676,-0.28409 1.41677,-0.28409 1.42582,-0.41039 1.42582,-0.41039 1.15556,-0.43165 1.15556,-0.43165 1.17593,-0.52651 1.17593,-0.52651 1.17592,-0.64688 1.17593,-0.64688 1.4699,-0.96608 1.46991,-0.96609 1.23472,-0.98939 1.23473,-0.9894 1.59748,-1.58946 1.59748,-1.58947 0.9919,-1.23078 0.9919,-1.23078 0.48916,-0.34379 0.48915,-0.34379 0.59709,-0.0574 0.59708,-0.0574 0.52339,0.14654 0.52339,0.14654 0.48403,0.4143 0.48403,0.41431 1.15038,1.42387 1.15039,1.42387 1.35978,1.31458 1.35977,1.31458 1.21467,0.97019 1.21467,0.97019 1.5875,1.046 1.5875,1.04599 2.11666,1.04341 2.11667,1.04341 1.52496,0.5453 1.52495,0.5453 1.54446,0.39584 1.54445,0.39583 1.39911,0.23612 1.39911,0.23611 1.21778,0.12242 1.21778,0.12242 2.36879,-1.4e-4 2.36879,-1.5e-4 1.5875,-0.18175 1.5875,-0.18176 1.7051,-0.3414 1.70509,-0.34139 1.45268,-0.42261 1.45268,-0.4226 1.60473,-0.6305 1.60472,-0.6305 0.99954,-0.46843 0.99954,-0.46844 1.39033,-0.77962 1.39034,-0.77963 0.90272,-0.60859 0.90272,-0.6086 0.88907,-0.65863 0.88908,-0.65862 0.63224,-0.27198 0.63223,-0.27199 0.61215,0.0508 0.61215,0.0508 1.04154,0.58475 1.04154,0.58475 5.56045,3.21438 5.38505,2.96883 0.0434,-0.0448 0.0434,-0.0448 5.17743,-8.33162 5.0021,-8.57717 -0.06,-0.0971 -0.06,-0.0971 -2.6084,-1.54526 -2.6084,-1.54525 -2.4297,-1.45216 -2.42971,-1.45216 -1.21565,-0.80473 -1.21564,-0.80474 -0.21697,-0.24522 -0.21697,-0.24522 -0.16005,-0.44876 -0.16004,-0.44875 -0.004,-0.70556 -0.004,-0.70555 0.2826,-1.6463 0.28259,-1.6463 0.0789,-1.76388 0.0789,-1.76389 -0.12886,-1.75914 -0.12886,-1.75913 -0.18228,-1.23948 -0.18229,-1.23948 -0.29725,-1.35231 -0.29724,-1.35232 -0.68484,-2.05787 -0.68485,-2.05787 -0.6047,-1.35231 -0.60471,-1.35232 -0.71938,-1.29351 -0.71938,-1.29352 -0.52571,-0.82315 -0.52571,-0.82315 -0.82544,-1.11713 -0.82543,-1.11713 -0.84669,-0.99954 -0.8467,-0.99953 -1.64188,-1.59584 -1.64189,-1.59584 -1.57838,-1.18477 -1.57838,-1.18477 -0.95283,-0.59072 -0.95283,-0.59072 -1.10504,-0.61502 -1.10504,-0.61501 -1.29352,-0.57787 -1.29352,-0.57786 -1.46616,-0.53165 -1.46616,-0.53165 -1.53681,-0.39388 -1.53682,-0.39389 -1.7758,-0.24533 -1.77579,-0.24534 -0.61226,-0.18182 -0.61225,-0.18182 -0.52791,-0.48661 -0.52791,-0.48661 -0.22528,-0.44158 -0.22527,-0.44157 v -0.63304 -0.63303 l 0.22268,-0.63577 0.22268,-0.63577 0.35565,-0.78325 0.35566,-0.78325 0.48688,-1.49656 0.48688,-1.49655 0.33636,-1.42436 0.33637,-1.42436 0.18423,-1.11713 0.18423,-1.11713 0.14102,-1.17593 0.14101,-1.17593 -0.003,-2.704625 -0.003,-2.704629 -0.19896,-1.528704 -0.19896,-1.528704 -0.28511,-1.41283 -0.28511,-1.41283 -0.42132,-1.449793 -0.42132,-1.449794 -0.59945,-1.538246 -0.59945,-1.538246 -0.78153,-1.537557 -0.78154,-1.537556 -0.76026,-1.215422 -0.76025,-1.215422 -1.11178,-1.484047 -1.11178,-1.484046 -1.63934,-1.682405 -1.63934,-1.682405 -1.16851,-0.968589 -1.16851,-0.96859 -1.29411,-0.908094 -1.2941,-0.908094 -1.33106,-0.772934 -1.33105,-0.772933 -1.68089,-0.759375 -1.68088,-0.759374 -0.43734,-0.303072 -0.43733,-0.303072 -0.29685,-0.431526 -0.29686,-0.431526 -0.11941,-0.318535 -0.11941,-0.318535 -0.23402,-1.680539 -0.23401,-1.680539 -0.35499,-3.057408 -0.35499,-3.057407 -0.24454,-2.410648 -0.24453,-2.410648 -0.0659,-0.264584 -0.0659,-0.264583 h -9.79121 -9.7912 l -0.0695,0.440972 -0.0695,0.440972 -0.1824,1.763889 -0.1824,1.763889 -0.4632,3.645371 -0.4632,3.64537 -0.12549,1.411111 -0.12549,1.411111 -0.17865,0.621984 -0.17864,0.621984 -0.45502,0.436349 -0.45501,0.43635 -0.74568,0.377367 -0.74568,0.377367 -1.94028,0.932207 -1.94028,0.932208 -1.5875,1.060075 -1.5875,1.060074 -1.27173,1.024279 -1.27173,1.024278 -1.3741,1.368978 -1.3741,1.368977 -1.01001,1.234317 -1.01,1.234318 -0.59269,0.823148 -0.5927,0.823148 -0.77038,1.249638 -0.77039,1.249638 -0.7127,1.421741 -0.71269,1.421741 -0.42906,1.032788 -0.42905,1.032787 -0.45773,1.352315 -0.45773,1.352315 -0.3422,1.352315 -0.34221,1.352315 -0.23494,1.411111 -0.23494,1.411111 -0.1246,1.284544 -0.12459,1.284543 9e-5,1.890457 10e-5,1.890454 0.11937,1.29352 0.11937,1.29352 0.23756,1.41111 0.23757,1.41111 0.40139,1.53616 0.40139,1.53616 0.46751,1.28606 0.46751,1.28607 0.55275,1.33845 0.55274,1.33845 0.0526,0.71942 0.0526,0.71942 -0.27317,0.52825 -0.27316,0.52826 -0.57188,0.42821 -0.57189,0.4282 -1.07441,0.13543 -1.07441,0.13543 -1.7051,0.34774 -1.70509,0.34774 -1.5875,0.47963 -1.5875,0.47963 -1.23472,0.48027 -1.23472,0.48028 -1.20346,0.56113 -1.20345,0.56113 -1.0896,0.6118 -1.0896,0.6118 -1.33868,0.88133 -1.33869,0.88133 -1.48208,1.19065 -1.48208,1.19065 -1.35714,1.35231 -1.35714,1.35232 -1.06433,1.30598 -1.06433,1.30598 -0.65024,0.92828 -0.65024,0.92827 -0.74319,1.23473 -0.74318,1.23472 -0.79088,1.64629 -0.79088,1.6463 -0.41357,1.11713 -0.41356,1.11713 -0.40947,1.35232 -0.40946,1.35231 -0.30112,1.46991 -0.30112,1.4699 -0.18675,1.41112 -0.18675,1.41111 -0.0674,2.11666 -0.0674,2.11667 0.12774,1.5875 0.12775,1.5875 0.24452,1.5027 0.24452,1.50269 -0.0792,0.43758 -0.0792,0.43759 -0.17443,0.35277 -0.17443,0.35278 -0.25083,0.27754 -0.25083,0.27754 -6.06821,3.62903 -6.0682,3.62903 -0.13198,0.15903 0.0259,0.2701 4.80934,8.40446 4.9672,8.51554 0.17466,0.033 0.17465,0.033 1.41111,-0.78282 1.41111,-0.78282 2.90607,-1.74484 2.90607,-1.74483 1.32726,-0.75222 1.32727,-0.75221 0.87007,-0.43693 0.87007,-0.43693 0.61124,-0.0631 0.61124,-0.0631 0.76622,0.36568 0.76621,0.36568 1.16266,0.84445 1.16266,0.84445 0.94074,0.61406 0.94074,0.61406 1.4699,0.7717 1.46991,0.7717 1.38917,0.59552 1.38917,0.59553 1.37426,0.45939 1.37425,0.4594 1.41111,0.3534 1.41112,0.35341 1.06602,0.19314 1.06602,0.19315 1.28583,0.1554 1.28583,0.15541 z m -0.85739,-17.81407 -1.49446,0.0475 -0.47037,-0.0476 -0.47037,-0.0476 -1.11713,-0.18926 -1.11713,-0.18925 -1.11713,-0.35184 -1.11713,-0.35184 -1.07105,-0.51098 -1.07104,-0.51097 -1.09097,-0.72974 -1.09097,-0.72974 -1.17643,-1.12836 -1.17643,-1.12835 -0.66259,-0.88194 -0.6626,-0.88195 -0.30975,-0.48102 -0.30975,-0.48101 -0.46752,-0.9301 -0.46752,-0.93009 -0.36253,-1.02742 -0.36252,-1.02743 -0.26062,-1.32443 -0.26061,-1.32442 v -1.82269 -1.82268 l 0.26207,-1.33203 0.26207,-1.33204 0.35879,-1.07861 0.3588,-1.07862 0.56586,-1.14671 0.56587,-1.1467 0.68694,-1.02497 0.68694,-1.02496 1.11236,-1.16096 1.11236,-1.16095 0.98705,-0.74079 0.98704,-0.74079 1.13439,-0.59096 1.13439,-0.59096 1.17593,-0.40508 1.17593,-0.40509 1.05833,-0.2222 1.05833,-0.22221 2.29306,0.006 2.29305,0.006 1.19808,0.25953 1.19809,0.25952 1.03617,0.36176 1.03618,0.36176 1.03694,0.51391 1.03694,0.51392 1.02093,0.67402 1.02093,0.67402 1.4187,1.41877 1.41869,1.41877 0.73338,1.10442 0.73338,1.10442 0.51097,1.07104 0.51098,1.07104 0.36551,1.14964 0.3655,1.14964 0.1976,1.08462 0.19759,1.08462 -0.002,1.76389 -0.002,1.76389 -0.20107,1.05833 -0.20107,1.05834 -0.35706,1.17592 -0.35707,1.17593 -0.684,1.41111 -0.68401,1.41111 -0.74743,1.04951 -0.74743,1.0495 -1.06883,1.06716 -1.06882,1.06717 -0.93025,0.66413 -0.93025,0.66414 -1.11713,0.59118 -1.11713,0.59117 -1.2035,0.41579 -1.20351,0.41578 -1.24138,0.23957 -1.24139,0.23956 z m 65.03882,-0.004 -1.38699,0.0506 -0.47037,-0.0475 -0.47037,-0.0475 -1.17593,-0.1874 -1.17592,-0.1874 -1.3556,-0.44442 -1.35559,-0.44441 -0.94373,-0.4745 -0.94373,-0.4745 -1.11086,-0.73724 -1.11086,-0.73723 -1.2976,-1.30156 -1.2976,-1.30155 -0.6776,-1.02093 -0.67759,-1.02094 -0.51392,-1.03693 -0.51392,-1.03694 -0.35378,-1.01359 -0.35379,-1.01359 -0.2733,-1.22067 -0.27331,-1.22067 0.005,-2.29305 0.005,-2.29306 0.3058,-1.29352 0.3058,-1.29352 0.36445,-0.94074 0.36444,-0.94074 0.50104,-0.96809 0.50104,-0.96809 0.76435,-1.08662 0.76436,-1.08661 1.12141,-1.1203 1.12141,-1.12029 1.11285,-0.78731 1.11284,-0.78731 1.17593,-0.58798 1.17593,-0.58798 1.06831,-0.35673 1.06831,-0.35673 0.83759,-0.1762 0.83758,-0.17619 1.322,-0.12467 1.322,-0.12467 1.35822,0.12551 1.35821,0.12551 0.98058,0.23196 0.98058,0.23195 0.9009,0.30845 0.9009,0.30845 1.15456,0.57429 1.15457,0.5743 0.72691,0.48903 0.72692,0.48902 0.90748,0.75155 0.90747,0.75154 0.63675,0.72803 0.63674,0.72803 0.6446,0.90134 0.6446,0.90134 0.60372,1.17532 0.60372,1.17532 0.41194,1.23107 0.41194,1.23106 0.24882,1.45478 0.24883,1.45477 -0.0656,1.94028 -0.0656,1.94028 -0.19138,0.88194 -0.19139,0.88195 -0.39636,1.19372 -0.39636,1.19372 -0.46719,0.92921 -0.4672,0.92921 -0.74031,1.11087 -0.7403,1.11086 -1.29849,1.29516 -1.29848,1.29516 -1.09015,0.74142 -1.09015,0.74143 -1.3205,0.63267 -1.3205,0.63267 -1.05675,0.30421 -1.05675,0.3042 -0.96644,0.16854 -0.96645,0.16853 z m -33.3488,-55.56686 -0.96411,-0.0198 -0.47038,-0.0427 -0.47037,-0.0427 -0.98472,-0.17921 -0.98472,-0.17921 -0.95555,-0.30112 -0.95556,-0.30112 -1.1084,-0.51713 -1.10839,-0.51714 -1.12587,-0.75457 -1.12586,-0.75457 -0.85811,-0.76136 -0.85811,-0.76137 -0.71771,-0.80488 -0.71771,-0.80489 -0.80193,-1.22314 -0.80192,-1.22314 -0.52572,-1.24631 -0.52572,-1.2463 -0.29151,-1.12313 -0.29151,-1.12313 -0.14315,-1.22872 -0.14316,-1.22873 0.0659,-1.469904 0.0659,-1.469907 0.245,-1.198082 0.24499,-1.198081 0.36176,-1.036178 0.36176,-1.036178 0.51391,-1.036937 0.51392,-1.036937 0.67547,-1.020933 0.67546,-1.020934 1.35853,-1.362864 1.35853,-1.362865 1.11086,-0.734722 1.11086,-0.734722 0.88821,-0.445212 0.88821,-0.445213 0.88195,-0.319345 0.88194,-0.319346 1.23472,-0.289766 1.23473,-0.289766 1.70509,-0.06799 1.70509,-0.06799 1.05834,0.139973 1.05833,0.139973 1.15828,0.292133 1.15829,0.292133 1.03684,0.414988 1.03684,0.414987 1.03225,0.591882 1.03225,0.591881 0.88836,0.654389 0.88837,0.654389 0.99954,1.018799 0.99953,1.018799 0.67751,0.945935 0.6775,0.945936 0.58011,1.102079 0.58011,1.102079 0.41008,1.234722 0.41008,1.234722 0.18054,0.887742 0.18054,0.887742 0.1278,1.373296 0.12779,1.373297 -0.12925,1.404954 -0.12925,1.40495 -0.28213,1.16517 -0.28213,1.165172 -0.35987,0.90591 -0.35987,0.90591 -0.34327,0.68003 -0.34328,0.68002 -0.72615,1.08561 -0.72615,1.08561 -0.99924,1.05002 -0.99923,1.05003 -1.0764,0.81264 -1.07639,0.81265 -0.94074,0.54034 -0.94074,0.54034 -0.99954,0.40612 -0.99954,0.40612 -1.04241,0.30099 -1.04241,0.30099 -1.34486,0.17629 -1.34486,0.1763 z"
       id="path225" /><path
       style="fill:#f39524;fill-opacity:1;stroke:#000000;stroke-width:2.7"
       d="m 3367.0548,701.38624 c -17.5571,-3.16949 -39.6039,-12.39997 -54.5548,-22.84084 -4.125,-2.88067 -8.85,-5.90304 -10.5,-6.71637 -5.7227,-2.8209 -8.0571,-1.78688 -44.2747,19.61185 -7.301,4.31374 -13.4094,7.66675 -13.5741,7.45114 -2.5549,-3.34375 -36.6705,-63.33425 -36.4291,-64.05851 0.1853,-0.55584 10.6736,-7.16064 23.3074,-14.67731 27.1711,-16.16593 27.4178,-16.43752 25.2673,-27.82477 -0.7451,-3.94515 -1.2554,-13.59142 -1.2079,-22.83143 0.091,-17.82181 1.8044,-27.95769 7.4355,-44 14.6704,-41.79411 51.9333,-75.4161 96.3641,-86.94845 5.4387,-1.41165 12.4137,-2.84134 15.5,-3.17708 6.5238,-0.70969 9.5083,-2.30743 11.4982,-6.15538 1.7793,-3.44077 1.0045,-7.94552 -3.1334,-18.21909 -6.5687,-16.30852 -9.2555,-30.45302 -9.2493,-48.69155 0.012,-36.23602 13.8162,-69.26977 39.8422,-95.34534 11.9638,-11.98658 21.5184,-18.8016 37.1829,-26.52138 5.8788,-2.89719 11.5649,-6.38145 12.6357,-7.74279 1.5651,-1.9896 2.4807,-6.96005 4.6677,-25.33705 1.4964,-12.57404 2.9979,-25.67439 3.3366,-29.11189 l 0.6158,-6.25 h 36.8575 c 25.9332,0 36.8576,0.32306 36.8576,1.08996 0,2.09598 5.0318,46.45697 5.8519,51.59098 1.214,7.60022 3.025,9.61326 12.8497,14.28325 35.8652,17.04781 60.6415,44.75141 72.785,81.38449 5.2124,15.72428 6.8784,28.06026 6.2149,46.02018 -0.7129,19.29804 -3.9979,34.34487 -11.1013,50.84902 -0.8801,2.04484 -1.6002,5.35234 -1.6002,7.35 0,4.8671 5.0102,10.02323 10.5711,10.87899 20.9506,3.22405 30.7058,6.13685 45.8987,13.70484 39.3632,19.60783 66.7708,56.84451 74.0472,100.60257 1.6761,10.07947 1.6294,27.26375 -0.121,44.55665 -0.3484,3.44257 -0.1276,6.92279 0.5418,8.53895 1.2921,3.1195 -0.096,2.17152 27.5622,18.82252 11.55,6.95342 21.1506,12.75981 21.3346,12.90308 0.6104,0.4751 -37.0941,64.50573 -37.8114,64.21235 -0.3871,-0.15831 -11.4819,-6.48551 -24.6551,-14.06045 -18.0562,-10.38273 -24.8661,-13.807 -27.6677,-13.91233 -3.0297,-0.1139 -5.3313,0.9728 -12.4584,5.88239 C 3680.7892,695.26431 3656.3946,703 3624.7966,703 c -23.8311,0 -40.4489,-3.95677 -61.2966,-14.59496 -16.9578,-8.65328 -25.7636,-15.91583 -45.1787,-37.2612 C 3513.9651,646.3546 3513.3207,646 3508.9737,646 h -4.6689 l -13.0877,13.56697 c -22.6954,23.5264 -44.6304,35.84232 -73.9633,41.52851 -12.047,2.3353 -38.0394,2.48585 -50.199,0.29076 z m 40.2432,-67.75015 c 10.4404,-3.64741 17.9093,-8.54294 25.9533,-17.01109 19.1348,-20.144 23.4212,-48.53302 11.1164,-73.625 -3.3491,-6.82968 -5.8582,-10.17801 -12.768,-17.03909 C 3417.6063,512.06615 3405.1077,507 3384.8217,507 c -17.5811,0 -30.4152,4.84744 -42.8415,16.18123 -20.7434,18.91952 -27.4294,51.71005 -15.5702,76.36204 8.516,17.70248 25.8628,31.85112 44.09,35.96131 10.0277,2.26123 27.5193,1.37306 36.798,-1.86849 z m 240.5925,1.39191 c 22.4801,-5.74944 39.4452,-22.30327 46.5108,-45.38334 2.3339,-7.62379 2.8541,-22.38849 1.1123,-31.57288 -3.1397,-16.55557 -15.2073,-33.47756 -30.234,-42.39596 -10.3886,-6.16572 -20.4749,-8.91712 -32.7796,-8.9419 -10.9769,-0.0221 -16.168,0.86042 -25.4177,4.32116 -15.682,5.8674 -30.5752,21.32421 -37.2709,38.68148 -2.1173,5.48864 -2.6994,9.00419 -3.0884,18.65172 -0.5903,14.63943 0.5019,20.12387 6.4945,32.61172 13.1387,27.3797 44.6042,41.7183 74.673,34.028 z M 3528.5,423.70879 c 22.098,-7.46374 37.9249,-24.08423 43.5262,-45.70879 2.1477,-8.2911 2.1449,-24.35269 -0.01,-32.5 -3.6879,-13.97166 -13.2844,-28.32416 -24.2704,-36.29885 -6.0225,-4.37167 -17.137,-9.55365 -24.2501,-11.30623 -6.6987,-1.65046 -22.7584,-1.61135 -30.1069,0.0733 -23.3082,5.34354 -43.1087,25.63474 -48.4522,49.65294 -2.2384,10.06078 -1.5715,25.14995 1.5193,34.37882 4.1027,12.25041 14.4969,26.24968 24.5642,33.0841 5.8958,4.00249 14.856,8.10523 21.8483,10.00393 10.0293,2.72343 25.2218,2.13528 35.6273,-1.37924 z"
       id="path226"
       transform="scale(0.26458333)" /></g></svg>
