<?xml version="1.0" encoding="UTF-8" standalone="no"?>
<!-- Created with Inkscape (http://www.inkscape.org/) -->

<svg
   width="57.620319mm"
   height="75.785469mm"
   viewBox="0 0 57.620319 75.785469"
   version="1.1"
   id="svg1"
   xml:space="preserve"
   xmlns="http://www.w3.org/2000/svg"
   xmlns:svg="http://www.w3.org/2000/svg"><defs
     id="defs1" /><g
     id="layer1"
     transform="translate(-602.36861,-89.815167)"><path
       style="fill:#000000"
       d="m 631.23902,165.59977 h -0.032 l -0.11542,-0.14699 -0.11542,-0.14699 -0.97234,-1.68636 -0.97234,-1.68636 -0.93156,-1.30136 -0.93156,-1.30136 -1.02123,-1.24562 -1.02122,-1.24561 -1.73124,-1.76285 -1.73123,-1.76284 0.23007,-0.38994 0.23007,-0.38994 v -0.22648 -0.22649 l -0.57276,-0.29023 -0.57275,-0.29024 -1.04415,-0.43045 -1.04414,-0.43044 -1.82268,-0.92092 -1.82269,-0.92092 -1.31629,-0.81824 -1.3163,-0.81825 -0.85917,-0.64717 -0.85916,-0.64717 -0.8049,-0.71116 -0.80489,-0.71116 -0.578,-0.66052 -0.57801,-0.66052 -0.45219,-0.66796 -0.45219,-0.66796 -0.17989,-0.35278 -0.1799,-0.35278 -0.19986,-0.58796 -0.19986,-0.58796 -0.11198,-0.68736 -0.11198,-0.68735 0.0711,-0.22399 0.0711,-0.22399 h 0.16732 0.16732 l 0.7556,0.5173 0.75559,0.5173 0.56846,0.12034 0.56847,0.12033 0.32915,-0.0645 0.32914,-0.0645 0.34013,-0.34014 0.34014,-0.34013 0.0803,-0.53521 0.0803,-0.53522 -0.12922,-0.66794 -0.12922,-0.66795 -0.59262,-1.17592 -0.59262,-1.17593 -0.78267,-1.05833 -0.78266,-1.05833 -1.83592,-1.82269 -1.83592,-1.82268 -0.90128,-0.70556 -0.90127,-0.70556 -0.006,-0.0718 -0.006,-0.0718 0.73496,-0.3846 0.73495,-0.38461 1.17593,-0.77456 1.17592,-0.77455 0.89649,-0.8857 0.89649,-0.88569 0.59615,-0.91621 0.59615,-0.91622 0.35028,-0.90832 0.35028,-0.90831 0.20074,-0.99065 0.20073,-0.99065 -0.0617,-0.94778 -0.0617,-0.94778 -0.2467,-0.65156 -0.2467,-0.65155 -0.44173,-0.42918 -0.44173,-0.42917 -0.33104,-0.1246 -0.33103,-0.12459 -0.49211,9e-5 -0.49212,9e-5 -0.70818,0.33503 -0.70818,0.33503 -0.66601,0.75261 -0.66601,0.75261 -0.13936,-0.13771 -0.13935,-0.13772 0.19237,-2.24881 0.19237,-2.24881 0.23988,-1.84681 0.23988,-1.84681 0.34939,-2.05787 0.34939,-2.05787 0.35787,-0.73651 0.35787,-0.73652 1.49116,-1.510083 1.49117,-1.510085 1.17593,-1.034479 1.17592,-1.034479 1.5875,-1.233413 1.5875,-1.233413 1.99908,-1.320698 1.99907,-1.320699 0.49189,-0.277704 0.49189,-0.277705 0.0688,0.06885 0.0689,0.06885 0.25864,6.441386 0.25864,6.441392 0.48427,0.20758 0.48427,0.20758 0.98941,0.24452 0.9894,0.24452 0.76827,0.0755 0.76826,0.0755 0.70164,-0.14497 0.70165,-0.14496 0.57813,-0.29213 0.57812,-0.29213 0.60477,-0.60547 0.60476,-0.60546 1.01217,-1.71196 1.01217,-1.711963 0.18469,-0.153279 0.18469,-0.15328 0.16681,0.06401 0.16681,0.06401 0.67739,1.213266 0.67738,1.213266 0.47247,0.70159 0.47247,0.70158 0.53692,0.52298 0.53691,0.52299 0.62972,0.28901 0.62971,0.28901 0.7226,0.09 0.7226,0.09 0.99954,-0.10512 0.99954,-0.10512 1.04074,-0.31524 1.04074,-0.31524 0.19398,-0.2959 0.19398,-0.2959 0.0683,-5.943752 0.0683,-5.943752 0.13462,-0.323379 0.13463,-0.32338 h 0.15976 0.15977 l 2.03137,1.351192 2.03138,1.351191 1.78052,1.343307 1.78052,1.343306 1.35576,1.170896 1.35577,1.170895 1.56568,1.628961 1.56567,1.628965 0.22371,0.4385 0.22371,0.4385 0.46922,2.83547 0.46921,2.83547 0.23932,2.13839 0.23931,2.13839 0.0887,1.32931 0.0887,1.32932 -0.0712,0.11517 -0.0712,0.11518 -0.18648,-0.0716 -0.18648,-0.0716 -0.30822,-0.44477 -0.30823,-0.44477 -0.51911,-0.37279 -0.51911,-0.3728 -0.49088,-0.17319 -0.49087,-0.17319 -0.42619,0.003 -0.42619,0.003 -0.47138,0.21415 -0.47138,0.21414 -0.37612,0.42838 -0.37611,0.42837 -0.18144,0.61096 -0.18144,0.61097 8.3e-4,1.12518 8.2e-4,1.12519 0.23449,0.97812 0.23449,0.97812 0.39683,0.8589 0.39684,0.85889 0.47699,0.7024 0.47699,0.7024 0.60812,0.66538 0.60811,0.66538 0.90192,0.67576 0.90192,0.67576 1.26028,0.70555 1.26028,0.70556 10e-4,0.13762 10e-4,0.13762 -1.26412,1.03287 -1.26412,1.03287 -1.53089,1.53414 -1.53089,1.53414 -0.79279,1.05833 -0.79278,1.05834 -0.46617,0.89418 -0.46617,0.89418 -0.17937,0.68862 -0.17936,0.68863 v 0.47955 0.47954 l 0.26458,0.52468 0.26458,0.52469 0.46699,0.15248 0.46699,0.15248 0.55225,-0.13249 0.55225,-0.13248 0.90962,-0.57439 0.90962,-0.57439 0.0996,0.0616 0.0996,0.0616 v 0.59345 0.59345 l -0.18479,0.71312 -0.18479,0.71313 -0.35828,0.71496 -0.35829,0.71496 -0.58066,0.78764 -0.58065,0.78764 -1.20988,1.15263 -1.20988,1.15264 -0.96785,0.69422 -0.96784,0.69422 -1.25526,0.75859 -1.25526,0.75859 -1.99907,0.98004 -1.99908,0.98004 -1.34995,0.58806 -1.34994,0.58807 -0.0441,0.13226 -0.0441,0.13226 0.26749,0.50423 0.26749,0.50422 -1.30439,1.3044 -1.3044,1.30439 -1.04542,1.21782 -1.04543,1.21782 -0.89036,1.17569 -0.89036,1.17569 -0.83464,1.26637 -0.83463,1.26638 -0.66128,1.1679 -0.66127,1.16791 z m -0.0272,-4.35136 0.0924,4.3e-4 0.22184,-0.51754 0.22185,-0.51754 0.50243,-0.80538 0.50243,-0.80537 0.8171,-1.11713 0.81709,-1.11713 0.65637,-0.76435 0.65637,-0.76435 0.91428,-1.0109 0.84814,-1.02744 0.0661,-0.21052 v -0.22705 l -0.19165,-0.27361 -0.19164,-0.27361 -0.098,-0.43624 -0.098,-0.43625 0.0889,-0.33255 0.0889,-0.33256 1.46573,-0.55262 1.46572,-0.55262 1.17504,-0.5 1.17504,-0.5 1.72278,-0.8789 1.72278,-0.8789 1.48205,-0.90339 1.48204,-0.9034 1.02851,-0.76234 1.02851,-0.76235 0.92659,-0.88395 0.92659,-0.88395 -1.27937,-0.0657 -1.27937,-0.0657 -0.41157,-0.21267 -0.41158,-0.21267 -0.27602,-0.25083 -0.27603,-0.25082 -0.22539,-0.43953 -0.2254,-0.43952 -0.0727,-0.69529 -0.0727,-0.69528 0.14924,-0.80547 0.14924,-0.80547 0.29091,-0.82315 0.2909,-0.82315 0.53803,-1.04829 0.53802,-1.04829 0.69931,-0.95078 0.69932,-0.95078 1.04073,-1.02451 1.04072,-1.02451 0.85449,-0.60292 0.8545,-0.60292 0.55856,-0.28543 0.55857,-0.28544 v -0.0548 -0.0548 l -0.61737,-0.31225 -0.61736,-0.31224 -0.67755,-0.45942 -0.67755,-0.45941 -0.77058,-0.72085 -0.77059,-0.72084 -0.74896,-0.99794 -0.74896,-0.99793 -0.52942,-1.06872 -0.52943,-1.06872 -0.28473,-0.88194 -0.28474,-0.88195 -0.16329,-0.82315 -0.16329,-0.82314 -4.5e-4,-1.6463 -4.6e-4,-1.6463 0.2068,-0.66834 0.2068,-0.66835 0.38456,-0.50418 0.38456,-0.50419 0.49257,-0.3757 0.49258,-0.3757 0.67995,-0.265 0.67996,-0.265 0.99954,-0.009 0.99954,-0.009 0.56118,0.22277 0.56119,0.22276 0.0483,-0.0483 0.0482,-0.0482 -0.64951,-4.05507 -0.64951,-4.05507 -0.42439,-0.52916 -0.42439,-0.52917 -1.29943,-1.298073 -1.29942,-1.298072 -1.76389,-1.507812 -1.76389,-1.507811 -1.67294,-1.221663 -1.58612,-1.130711 h -0.0512 -0.0512 l 0.31988,0.906599 0.40669,0.997551 0.10433,1.560088 0.10432,1.560089 0.0841,3.309935 0.0841,3.30994 -0.34085,0.17606 -0.34086,0.17606 -1.17592,0.36167 -1.17593,0.36167 -1.08734,0.23887 -1.08734,0.23886 -1.4124,0.14122 -1.41239,0.14121 -0.94349,-0.13751 -0.9435,-0.13752 -0.52356,-0.2316 -0.52356,-0.23159 -0.40732,-0.31068 -0.40733,-0.31069 -0.54889,-0.80333 -0.5489,-0.80334 -0.50375,-1.25333 -0.48036,-1.08963 -0.0841,-0.0654 -0.0608,0.0983 -0.48211,1.21013 -0.48211,1.21012 -0.19894,0.31649 -0.19895,0.31649 -0.28515,0.35278 -0.28514,0.35278 -0.57073,0.43081 -0.57073,0.43082 -0.79546,0.27474 -0.79546,0.27474 -1.6463,-0.009 -1.6463,-0.009 -1.37169,-0.31806 -1.3717,-0.31807 -1.50932,-0.49611 -1.50932,-0.49612 0.0369,-1.99907 0.0369,-1.99908 0.10873,-2.842634 0.10874,-2.842638 0.30301,-0.802732 0.30302,-0.802732 0.071,-0.229539 -0.0448,-0.09931 -0.87431,0.558699 -0.99006,0.688923 -0.99954,0.773535 -0.99954,0.773535 -1.5875,1.366151 -1.5875,1.366151 -1.2663,1.321591 -1.2663,1.32159 -0.31217,0.40926 -0.31216,0.40927 -0.61115,4.01914 -0.61115,4.01915 0.0192,0.0247 0.0192,0.0246 0.74038,-0.23043 0.74039,-0.23043 h 0.49398 0.49399 l 0.69206,0.18026 0.69206,0.18026 0.57893,0.31509 0.57893,0.31509 0.51128,0.56867 0.51128,0.56867 0.24713,0.66051 0.24713,0.66051 0.12934,0.91458 0.12934,0.91457 -0.13123,1.15326 -0.13123,1.15325 -0.29354,1.15678 -0.29354,1.15679 -0.58451,1.22361 -0.58451,1.22361 -0.62499,0.90689 -0.62499,0.90689 -0.82314,0.83482 -0.82315,0.83483 -0.86262,0.60511 -0.86261,0.60511 -0.5191,0.19825 -0.5191,0.19824 v 0.0817 0.0817 l 1.40431,0.90777 1.40431,0.90778 1.18353,1.23961 1.18353,1.23962 0.76105,1.14318 0.76105,1.14319 0.40946,0.88623 0.40947,0.88623 0.29859,1.03038 0.29859,1.03037 -0.003,0.95699 -0.003,0.95698 -0.21663,0.47694 -0.21663,0.47693 -0.48546,0.41553 -0.48545,0.41553 -0.4555,0.13647 -0.45551,0.13647 -1.10349,0.004 -1.10348,0.004 0.85034,0.81801 0.85035,0.81802 1.14397,0.84861 1.14398,0.84861 1.53345,0.92214 1.53346,0.92215 1.99908,0.98261 1.99907,0.98261 2.27414,0.91228 2.27413,0.91228 0.16595,0.16595 0.16595,0.16595 -0.0724,0.49133 -0.0724,0.49132 -0.30017,0.6078 -0.19493,0.57857 1.0744,1.30291 1.17965,1.27369 0.91738,1.17592 0.91738,1.17593 0.6582,0.99954 0.6582,0.99953 0.4101,0.79332 0.4101,0.79331 z m 0.14741,-3.20322 -0.0257,0.0302 -0.0774,-2.91116 -0.0774,-2.91117 -0.002,-3.58657 -0.002,-3.58658 -0.16767,-5.17407 -0.16767,-5.17408 -0.0823,-5.14467 -0.0823,-5.14468 h -0.16404 -0.16403 l -2.43613,0.34611 -2.43612,0.34611 -3.52778,0.41404 -3.52778,0.41403 -2.82222,0.29185 -2.82222,0.29186 -1.35232,0.0721 -1.35231,0.0721 -0.29398,0.0535 -0.29399,0.0534 0.17639,-0.10708 0.17639,-0.10708 1.23472,-0.24581 1.23473,-0.2458 2.82222,-0.46359 2.82222,-0.4636 5.70324,-0.8313 5.70324,-0.8313 0.73496,-0.13029 0.73495,-0.13028 0.006,-3.01545 0.006,-3.01544 0.10004,-6.11482 0.10005,-6.11481 0.1213,-0.29398 0.1213,-0.29398 0.005,0.88194 0.005,0.88194 0.19412,8.52547 0.19412,8.52546 0.017,0.0227 0.017,0.0227 1.76081,0.29583 1.76081,0.29582 5.29167,0.77271 5.29167,0.77271 2.70494,0.46147 2.70494,0.46147 0.7466,0.17417 0.7466,0.17417 0.0467,0.0467 0.0467,0.0467 -0.67602,-0.045 -0.67602,-0.045 -2.64583,-0.23256 -2.64584,-0.23255 -2.93981,-0.34591 -2.93982,-0.3459 -4.28929,-0.52577 -4.28928,-0.52577 -0.0196,0.0224 -0.0196,0.0224 -0.14446,16.75694 -0.14445,16.75695 z m -2.85621,-7.97626 -0.20579,-0.009 -1.05833,-0.28984 -1.05834,-0.28984 -1.23472,-0.42325 -1.23472,-0.42326 -1.619,-0.68961 -1.61901,-0.68961 -1.52686,-0.76512 -1.52687,-0.76511 -1.1778,-0.69936 -1.17781,-0.69936 -0.67401,-0.52006 -0.67401,-0.52006 -0.23133,-0.2576 -0.23133,-0.2576 0.93688,0.34426 0.93689,0.34425 2.46944,1.06186 2.46945,1.06185 1.12352,0.35805 1.12352,0.35804 1.81629,0.48323 1.8163,0.48323 0.76435,0.23202 0.76435,0.23202 0.61736,0.24697 0.61736,0.24697 v 0.92708 0.92709 z m 5.30102,0.009 h -0.15635 v -0.92187 -0.92186 l 0.30442,-0.13871 0.30442,-0.1387 2.19442,-0.57912 2.19443,-0.57913 2.08356,-0.71336 2.08357,-0.71335 2.62014,-1.04934 2.62013,-1.04934 0.47038,-0.18722 0.47037,-0.18722 -0.52917,0.48805 -0.52917,0.48805 -0.82315,0.55659 -0.82314,0.55659 -1.52871,0.83616 -1.5287,0.83616 -1.83269,0.81433 -1.83269,0.81433 -1.34231,0.49406 -1.34231,0.49406 -1.46056,0.40042 -1.46055,0.40042 z m -5.15403,-5.20965 -0.35278,0.0232 -1.29352,-0.34806 -1.29352,-0.34806 -1.17592,-0.35944 -1.17593,-0.35943 -1.6463,-0.80872 -1.64629,-0.80873 -0.78406,-0.58656 -0.78406,-0.58656 -0.3541,-0.74267 -0.3541,-0.74267 -0.52834,-1.5875 -0.52834,-1.5875 -0.94994,-2.98143 -0.94993,-2.98143 v -0.32396 -0.32395 l 1.20532,-0.13757 1.20533,-0.13756 1.5287,-0.12896 1.5287,-0.12896 2.35185,0.065 2.35186,0.065 1.10788,0.23866 1.10788,0.23866 0.16604,0.16605 0.16605,0.16605 0.27483,1.86747 0.27483,1.86748 0.18663,1.94028 0.18663,1.94027 0.24045,3.41019 0.24046,3.41018 0.0232,0.29399 0.0232,0.29398 z m -2.96922,-3.84933 0.0882,0.004 -0.002,-0.26459 -0.002,-0.26458 -0.46218,-3.98227 -0.46219,-3.98227 -0.0525,-0.0525 -0.0525,-0.0525 -1.0413,-0.16582 -1.04131,-0.16583 -1.80976,-0.17972 -1.80976,-0.17973 h -0.14925 -0.14926 l 0.81319,3.2044 0.8132,3.2044 0.18722,0.58796 0.18722,0.58796 0.22847,0.19915 0.22847,0.19914 0.67134,0.25204 0.67133,0.25204 1.52871,0.39701 1.5287,0.39702 z m 7.98437,3.88351 -0.15893,0.001 0.0709,-0.79375 0.0709,-0.79375 0.12028,-2.11666 0.12028,-2.11667 0.17166,-2.29306 0.17167,-2.29305 0.19328,-1.57738 0.19328,-1.57738 0.19359,-0.83302 0.19359,-0.83302 0.2997,-0.14364 0.2997,-0.14365 1.10863,-0.20595 1.10862,-0.20595 3.52778,-0.003 3.52777,-0.003 0.99954,0.15414 0.99954,0.15413 0.45268,0.11813 0.45267,0.11813 -0.0561,0.1981 -0.0561,0.19811 -0.89093,2.99861 -0.89093,2.99861 -0.59315,1.73792 -0.59315,1.73793 -0.28406,0.55513 -0.28407,0.55513 -0.45113,0.42887 -0.45113,0.42886 -0.6781,0.42854 -0.6781,0.42853 -1.08082,0.52605 -1.08081,0.52604 -1.47488,0.48018 -1.47488,0.48017 -1.46991,0.33985 -1.46991,0.33984 z m 3.33369,-3.87916 h 0.27173 l 1.66113,-0.53489 1.66113,-0.53488 0.50815,-0.21782 0.50814,-0.21782 0.18054,-0.45262 0.18054,-0.45262 0.84713,-3.38968 0.84714,-3.38968 -0.0401,-0.04 -0.0401,-0.04 -2.92981,0.33871 -2.9298,0.33871 -0.0802,0.0923 -0.0802,0.0923 -0.37761,3.99815 -0.37761,3.99814 -0.041,0.20579 -0.041,0.20579 z m -21.13704,-17.40375 -0.0882,4e-5 4e-4,-0.14699 4.1e-4,-0.14699 0.17532,-1.82546 0.17532,-1.82546 0.11634,-2.99583 0.11633,-2.99584 0.002,-0.8514 0.002,-0.85141 0.55857,-0.40741 0.55856,-0.40742 1.17593,-0.57998 1.17592,-0.57998 1.0038,-0.35388 1.0038,-0.35388 1.23046,-0.29956 1.23046,-0.29955 1.24981,-0.183 1.24982,-0.18299 h 0.64277 0.64278 l 0.0766,1.67569 0.0767,1.6757 -10e-4,2.29305 -10e-4,2.29306 -0.11366,2.24984 -0.11365,2.24984 -0.11946,0.3142 -0.11945,0.3142 -0.51425,0.22747 -0.51424,0.22748 -1.10313,0.29213 -1.10313,0.29213 -1.7051,0.29815 -1.70509,0.29815 -2.58704,0.29293 -2.58703,0.29293 z m 3.46898,-2.85266 0.38218,-0.0613 2.79282,-0.33076 2.79283,-0.33076 v -1.54469 -1.54469 l 0.0775,-2.48841 0.0775,-2.4884 h -0.22639 -0.22639 l -1.60524,0.40429 -1.60524,0.4043 -1.24448,0.48656 -1.24447,0.48657 -0.002,0.0793 -0.002,0.0793 -0.17262,2.88102 -0.17262,2.88102 -0.002,0.57395 -0.002,0.57395 z m 26.9875,2.83753 -0.26458,-0.0152 -0.88194,-0.10258 -0.88195,-0.10258 -1.94028,-0.24349 -1.94027,-0.24349 -1.81337,-0.35258 -1.81337,-0.35257 -0.90966,-0.28736 -0.90966,-0.28736 -0.2508,-0.20415 -0.25081,-0.20414 -0.11644,-1.11713 -0.11644,-1.11713 0.0231,-5.31603 0.0231,-5.31603 0.14965,-0.0574 0.14965,-0.0574 1.09481,0.11233 1.09481,0.11233 0.41157,0.0704 0.41157,0.0704 1.18509,0.27402 1.18508,0.27401 1.34316,0.433 1.34316,0.433 1.05833,0.50266 1.05833,0.50266 0.6655,0.53485 0.66551,0.53485 0.0846,0.90255 0.0846,0.90255 -0.079,1.66174 -0.079,1.66173 0.23998,2.82222 0.23998,2.82222 3.1e-4,0.38218 3.2e-4,0.38217 z m -3.29259,-2.82302 0.49977,0.016 v -0.50842 -0.50842 l -0.11713,-2.16681 -0.11714,-2.16681 -0.0688,-0.84753 -0.0688,-0.84753 -1.2028,-0.46459 -1.20279,-0.46459 -1.68059,-0.42237 -1.6806,-0.42237 h -0.16446 -0.16445 v 1.74498 1.74498 l 0.0769,2.29669 0.0769,2.2967 1.77517,0.26014 1.77516,0.26015 0.88195,0.0919 0.88194,0.0919 z"
       id="path223" /><path
       style="fill:#13b6e6;fill-opacity:1;stroke:#000000;stroke-width:0.954594"
       d="m 2384.3439,606.9731 c -1.3876,-2.95095 -6.6076,-10.8411 -10.3572,-15.65506 -1.666,-2.13899 -5.0641,-6.10512 -7.5512,-8.81362 -2.4872,-2.70849 -4.5221,-5.13929 -4.5221,-5.40177 0,-0.26248 0.4551,-1.38752 1.0114,-2.50009 0.5562,-1.11256 1.1146,-2.82888 1.2409,-3.81403 0.2014,-1.5703 0.1312,-1.88279 -0.5693,-2.53406 -0.4395,-0.40859 -4.4584,-2.20202 -8.9308,-3.9854 -20.032,-7.98771 -37.3585,-17.9809 -46.7256,-26.94926 l -3.2384,-3.10064 h 3.5688 c 4.7652,0 7.0646,-0.66543 9.4203,-2.72613 1.0037,-0.87796 2.2162,-2.36854 2.6945,-3.31241 0.7689,-1.5175 0.8696,-2.17174 0.8696,-5.6526 0,-3.35215 -0.1623,-4.49535 -1.093,-7.70154 -2.4342,-8.38481 -7.468,-16.68263 -14.6131,-24.08873 -3.6689,-3.80285 -5.0042,-4.9032 -9.4964,-7.82535 -2.875,-1.87016 -5.3071,-3.48013 -5.4047,-3.57771 -0.097,-0.0976 0.7432,-0.5451 1.8683,-0.99449 5.1839,-2.07057 13.2097,-9.21723 17.418,-15.51008 10.2225,-15.28596 12.5134,-35.5214 4.9821,-44.00535 -4.3952,-4.95114 -12.3261,-7.16622 -18.3611,-5.12818 -1.2154,0.41044 -2.3025,0.65348 -2.4159,0.54011 -0.2978,-0.29784 4.1021,-29.22935 4.6005,-30.25071 0.23,-0.47128 2.7773,-3.37511 5.6607,-6.45295 5.241,-5.5945 14.3,-13.72828 21.6275,-19.41866 4.1375,-3.21303 10.7834,-7.91112 10.7834,-7.6229 0,0.0951 -0.5646,1.65242 -1.2547,3.46082 l -1.2548,3.288 -0.5229,12.91739 c -0.2877,7.10457 -0.4788,15.4492 -0.4247,18.54363 l 0.098,5.62623 5.1265,1.7284 c 2.8196,0.95062 7.7956,2.35651 11.0579,3.12421 5.6703,1.33439 6.1925,1.39582 11.8661,1.39582 5.6534,0 6.0826,-0.05 9.0544,-1.0545 6.4851,-2.19213 9.8909,-5.90887 13.0923,-14.28768 0.9366,-2.45125 1.7987,-4.45592 1.9158,-4.45483 0.1171,0.001 0.9746,1.95005 1.9056,4.33103 1.1063,2.82944 2.4388,5.4313 3.8466,7.51103 3.3456,4.94241 6.2782,6.74512 12.6105,7.75184 3.3314,0.52965 4.0587,0.53034 9.1744,0.009 7.9265,-0.80816 17.8617,-3.15217 23.4991,-5.54412 l 1.6793,-0.71256 -0.01,-1.98939 c -0.014,-5.29723 -0.7366,-25.90014 -1.0641,-30.33443 -0.3367,-4.56053 -0.4937,-5.31464 -1.7478,-8.39689 -0.7579,-1.86251 -1.2915,-3.38638 -1.1859,-3.38638 0.6282,0 12.9983,9.50196 18.6755,14.34536 6.2842,5.36122 17.4985,16.31401 19.1704,18.72329 0.5965,0.85968 1.2053,3.93073 3.0727,15.50177 1.2809,7.93633 2.3289,14.80109 2.3289,15.255 v 0.82531 l -2.1143,-0.85912 c -1.7537,-0.71258 -2.7205,-0.85911 -5.6683,-0.85911 -3.1342,0 -3.8971,0.13137 -6.4594,1.1124 -4.9362,1.88995 -8.6576,5.51139 -10.0994,9.82801 -0.6788,2.03238 -0.7609,3.05098 -0.7609,9.43445 0,9.67729 0.9842,14.16074 4.9669,22.62699 4.3788,9.30826 13.3065,18.6172 21.4612,22.37757 1.0209,0.47076 1.8562,0.95469 1.8562,1.0754 0,0.12071 -0.8717,0.64695 -1.937,1.16942 -5.3773,2.63729 -13.9356,10.20839 -18.6758,16.52147 -2.9322,3.90519 -6.546,10.55045 -8.0752,14.84924 -3.7882,10.64893 -2.5269,17.90474 3.6623,21.06799 0.9909,0.50645 2.2822,0.85318 3.182,0.85444 0.8329,0.001 2.8386,0.1052 4.4572,0.23118 l 2.9428,0.22907 -2.7661,2.8032 c -5.7815,5.85923 -17.0435,13.29747 -29.9896,19.80734 -8.0813,4.06363 -10.792,5.24976 -19.6222,8.58609 -5.8129,2.19629 -5.8353,2.20895 -6.2921,3.55878 -0.5377,1.58893 -0.06,4.28341 1.038,5.84899 1.1447,1.63294 0.8576,2.38164 -2.2177,5.78173 -9.8832,10.92734 -17.2632,20.87991 -19.653,26.504 -0.4109,0.96687 -0.8887,1.80516 -1.0618,1.86288 -0.1732,0.0577 -0.783,-0.89084 -1.3553,-2.1079 z m 2.3404,-24.05195 c 0.036,-23.62958 0.8877,-111.95506 1.0816,-112.14893 0.098,-0.0979 7.1684,0.68445 15.7122,1.73861 41.1118,5.07248 66.0404,7.50742 63.7942,6.23119 -1.7289,-0.98231 -20.3676,-4.16435 -47.7297,-8.14851 -21.0928,-3.0713 -31.3354,-4.71502 -31.709,-5.08862 -0.1287,-0.12874 -0.5321,-14.67109 -0.8963,-32.31632 -0.3642,-17.64524 -0.7516,-33.58811 -0.8609,-35.42861 -0.1848,-3.11123 -0.2329,-3.28113 -0.6852,-2.41799 -0.5855,1.1176 -1.1903,28.41763 -1.1986,54.11278 0,8.89628 -0.063,16.17506 -0.1338,16.17506 -0.071,0 -0.9855,0.16515 -2.033,0.367 -1.0474,0.20184 -12.2458,1.87753 -24.8854,3.72375 -29.3466,4.28659 -50.1478,7.72435 -52.591,8.6916 -1.2,0.47506 -1.2923,1.1632 -0.1164,0.86808 0.4707,-0.11815 3.6129,-0.38021 6.9827,-0.58237 10.8055,-0.64824 41.8819,-4.10142 60.9976,-6.77798 5.8721,-0.82221 10.7554,-1.41614 10.8517,-1.31983 0.096,0.0963 0.3496,9.87591 0.563,21.73245 0.2134,11.85654 0.5447,25.45527 0.7362,30.2194 0.1915,4.76413 0.4944,21.07178 0.6731,36.23922 0.3399,28.86042 0.6266,38.7141 1.1262,38.7141 0.1643,0 0.3086,-6.56284 0.3208,-14.58408 z m -10.3516,-19.20718 -0.1004,-3.73922 -2.5954,-1.0091 c -3.3132,-1.28811 -5.5042,-1.94274 -15.259,-4.55893 -10.5517,-2.82991 -14.5061,-4.20948 -24.3952,-8.51068 -8.3277,-3.6221 -15.8422,-6.55912 -16.1062,-6.29509 -0.3331,0.33305 1.1335,1.83268 3.7114,3.79509 7.9555,6.05596 25.7661,15.01521 39.5448,19.89211 5.0759,1.79663 12.9829,4.07618 14.3161,4.1273 l 0.9842,0.0377 z m 25.3701,2.17064 c 17.8765,-4.96982 42.8268,-17.09991 49.8231,-24.22245 0.965,-0.98237 1.6299,-1.78613 1.4776,-1.78613 -0.1523,0 -5.2375,2.00656 -11.3004,4.45903 -14.0087,5.66654 -25.7982,9.73123 -36.1557,12.46546 -4.4888,1.185 -8.7447,2.39822 -9.4575,2.69604 l -1.296,0.5415 v 3.70756 c 0,3.32803 0.065,3.70757 0.6334,3.70757 0.3483,0 3.1723,-0.70586 6.2755,-1.56858 z m 0.1622,-19.46236 c 17.5176,-4.12463 30.6268,-10.88276 33.9452,-17.4996 1.5516,-3.09389 4.8717,-13.02148 8.9907,-26.88401 1.8767,-6.31582 3.4925,-11.75343 3.5906,-12.08356 0.2218,-0.74631 -1.1535,-1.14978 -7.1,-2.08281 -3.5944,-0.56398 -6.2606,-0.66694 -17.3295,-0.66919 -12.423,-0.003 -13.3076,0.0409 -17.5738,0.86223 -6.398,1.23177 -6.3899,1.22603 -7.2999,5.21477 -1.4222,6.23436 -2.5692,18.05582 -3.9379,40.58554 -0.3958,6.51422 -0.81,12.33625 -0.9206,12.93784 l -0.201,1.0938 1.8851,-0.25884 c 1.0369,-0.14236 3.7148,-0.68964 5.9511,-1.21617 z m -24.3966,0.79001 c 0,-1.38664 -2.1945,-30.67189 -2.6378,-35.26695 -0.9679,-10.03497 -2.6908,-21.32257 -3.3631,-22.03389 -0.3806,-0.4028 -2.1179,-0.97645 -4.6394,-1.53194 -8.4394,-1.85925 -27.7511,-1.65195 -41.7726,0.44841 -1.3023,0.19508 -1.3258,0.22635 -1.3258,1.76239 0,2.37681 10.0379,33.46956 12.4871,38.67914 1.1432,2.43185 1.4906,2.83146 4.1908,4.82071 1.6194,1.19299 5.6763,3.53436 9.0154,5.20305 6.0014,2.99909 8.7132,3.96045 20.9757,7.43594 3.3492,0.94926 7.0719,1.20366 7.0697,0.48314 z m -39.8899,-80.87337 c 15.9903,-1.81857 28.779,-4.34888 33.3994,-6.60826 1.6516,-0.80767 2.1118,-1.22819 2.4428,-2.23254 0.7277,-2.20807 1.3524,-21.29873 1.1067,-33.82187 -0.1252,-6.38536 -0.3308,-12.20637 -0.4567,-12.93557 l -0.229,-1.32583 h -2.9482 c -6.0006,0 -17.2694,2.2468 -24.8735,4.95935 -4.6666,1.66467 -11.8194,5.19033 -14.5903,7.19159 l -2.0226,1.46087 -0.019,3.88909 c -0.034,6.75292 -1.0378,27.37315 -1.5836,32.52691 -0.6785,6.40729 -0.6856,7.95495 -0.037,7.95495 0.2762,0 4.6912,-0.47641 9.8111,-1.05869 z m 106.3614,-0.62069 c 0,-0.92366 -0.4077,-6.41901 -0.9086,-12.2119 -0.7983,-9.23159 -0.8724,-11.3059 -0.6001,-16.79379 0.1876,-3.78051 0.1795,-7.63126 -0.02,-9.71907 l -0.331,-3.45781 -2.3414,-1.96974 c -6.7597,-5.68678 -27.3173,-12.09879 -39.3673,-12.27885 l -3.2791,-0.049 -0.1147,19.44543 c -0.077,13.1275 0.024,21.08822 0.3124,24.50161 0.4262,5.04636 0.4292,5.05778 1.5289,5.8893 2.7591,2.08629 15.3516,4.81605 31.861,6.90674 5.8336,0.73875 11.2032,1.35966 11.9324,1.37982 l 1.3258,0.0366 z"
       id="path224"
       transform="scale(0.26458333)" /></g></svg>
