<?xml version="1.0" encoding="UTF-8" standalone="no"?>
<!-- Created with Inkscape (http://www.inkscape.org/) -->

<svg
   width="71.3284mm"
   height="68.686516mm"
   viewBox="0 0 71.3284 68.686516"
   version="1.1"
   id="svg1"
   xml:space="preserve"
   xmlns="http://www.w3.org/2000/svg"
   xmlns:svg="http://www.w3.org/2000/svg"><defs
     id="defs1" /><g
     id="layer1"
     transform="translate(-723.10526,-79.516842)"><path
       style="fill:#000000"
       d="m 735.59205,148.16422 -4.49711,-0.0321 -0.24332,-0.12077 -0.24332,-0.12077 -0.26314,-0.99636 -0.26313,-0.99636 -0.70077,-2.93982 -0.70078,-2.93981 -0.91056,-4.17454 -0.91056,-4.17454 -0.007,-2.64583 -0.007,-2.64583 -0.50357,-1.19887 -0.50356,-1.19887 -0.5163,-2.03493 -0.5163,-2.03493 -0.24147,-1.58962 -0.24147,-1.58962 -0.0794,-1.03301 -0.0794,-1.03301 -0.3207,-0.16584 -0.32071,-0.16585 -0.0871,-0.21013 -0.0871,-0.21014 -0.12149,-2.46944 -0.1215,-2.46945 0.13804,-2.70463 0.13804,-2.70463 0.17594,-1.35231 0.17594,-1.35231 0.24574,-1.234727 0.24573,-1.234722 0.38536,-1.175926 0.38536,-1.175926 0.47369,-1.023103 0.47368,-1.023103 0.66454,-1.129139 0.66453,-1.129138 1.04745,-1.391444 1.04745,-1.391445 1.20457,-1.261653 1.20457,-1.261653 1.18008,-0.994071 1.18008,-0.994071 1.54264,-1.030464 1.54263,-1.030465 1.0444,-0.538826 1.04441,-0.538826 1.17592,-0.464805 1.17593,-0.464804 1.17592,-0.301592 1.17593,-0.301593 0.84567,-0.125781 0.84568,-0.125782 h 0.68772 0.68772 l 0.67505,0.175828 0.67505,0.175829 0.47848,0.244099 0.47847,0.244099 0.51183,0.471785 0.51182,0.471784 0.29964,0.601284 0.29963,0.601284 v 7.630229 7.630228 l 0.11053,-0.0392 0.11052,-0.0392 0.27165,-0.411574 0.27165,-0.411574 0.70555,-0.352778 0.70556,-0.352777 5.76204,0.0327 5.76203,0.0327 0.52917,0.261284 0.52917,0.261285 0.41157,0.558971 0.41158,0.558971 0.0588,-7.673322 0.0588,-7.673323 0.32688,-0.665638 0.32688,-0.665638 0.46157,-0.417001 0.46157,-0.417 0.47208,-0.240838 0.47209,-0.240839 0.67505,-0.175829 0.67505,-0.175828 h 0.72424 0.72424 l 1.04434,0.176528 1.04434,0.176528 1.50199,0.482063 1.50199,0.482062 1.61422,0.801902 1.61421,0.801902 1.41111,0.930645 1.41111,0.930644 0.99954,0.791752 0.99953,0.791752 0.99046,0.901417 0.99046,0.901417 1.04603,1.177962 1.04603,1.177962 0.801,1.175926 0.801,1.175926 0.59609,1.11713 0.59609,1.117129 0.48472,1.224565 0.48471,1.224565 0.39281,1.538861 0.39282,1.53886 0.18398,1.24861 0.18397,1.24862 0.13611,1.98518 0.1361,1.98518 -0.0639,3.64537 -0.0639,3.64537 -0.0759,0.18986 -0.0759,0.18986 -0.28427,0.12952 -0.28427,0.12952 -0.052,0.26859 -0.052,0.26858 -0.12793,1.36805 -0.12793,1.36805 -0.23434,1.34954 -0.23434,1.34954 -0.36341,1.44397 -0.36341,1.44396 -0.60272,1.60048 -0.60271,1.60048 -0.0708,2.99861 -0.0708,2.99861 -1.78185,7.61883 -1.78185,7.61883 -0.0587,0.095 -0.0587,0.095 -4.91363,0.0829 -4.91363,0.0829 -0.85513,-0.18144 -0.85512,-0.18144 -0.47948,-0.24461 -0.47949,-0.24461 -0.51507,-0.47478 -0.51506,-0.47477 -0.29281,-0.60461 -0.29281,-0.6046 -0.17795,-0.69309 -0.17794,-0.69309 -0.11638,-2.30552 -0.11638,-2.30552 -0.0326,-3.88056 -0.0326,-3.88055 0.25943,-0.48498 0.25942,-0.48498 0.34857,-0.29329 0.34857,-0.2933 1.05539,-0.26078 1.0554,-0.26078 0.32215,-0.33626 0.32216,-0.33626 0.0997,-1.03533 0.0997,-1.03534 -0.0719,-1.17592 -0.0719,-1.17593 -0.15423,-0.3796 -0.15422,-0.3796 -0.38925,-0.23918 -0.38926,-0.23917 -1.5273,0.0308 -1.52731,0.0308 -0.14928,0.31187 -0.14929,0.31186 -0.1241,1.27564 -0.1241,1.27563 -0.28962,1.46991 -0.28961,1.46991 -0.41704,1.51397 -0.41704,1.51396 -0.59403,1.71983 -0.59403,1.71983 -0.63997,1.46991 -0.63997,1.46991 -0.65428,1.22192 -0.65429,1.22193 -0.79732,1.18872 -0.79732,1.18872 -0.77676,0.90332 -0.77677,0.90332 -0.90945,0.7326 -0.90945,0.73261 -0.83146,0.39559 -0.83147,0.39559 -0.5894,0.0698 -0.58941,0.0698 -0.65766,-0.19119 -0.65766,-0.19119 -0.89241,-0.59688 -0.89241,-0.59688 -0.93866,-0.92987 -0.93867,-0.92988 -0.85477,-1.14854 -0.85477,-1.14853 -0.71893,-1.23392 -0.71894,-1.23392 -0.41576,-0.82984 -0.41576,-0.82984 -0.589,-1.40442 -0.589,-1.40441 -0.46439,-1.35232 -0.4644,-1.35231 -0.36473,-1.29352 -0.36473,-1.29352 -0.29037,-1.35232 -0.29038,-1.35231 -0.18312,-1.49061 -0.18313,-1.49061 -0.14704,-0.44967 -0.14705,-0.44967 -0.58772,-0.078 -0.58772,-0.078 -0.94074,0.063 -0.94075,0.063 -0.37308,0.17104 -0.37309,0.17105 -0.21488,0.43188 -0.21487,0.43189 0.003,2.05787 0.003,2.05787 0.1947,0.36134 0.1947,0.36135 0.16628,0.138 0.16628,0.138 0.988,0.24515 0.988,0.24516 0.3765,0.23172 0.37651,0.23173 0.32905,0.67007 0.32905,0.67007 -0.0356,4.23334 -0.0356,4.23333 -0.10929,1.94028 -0.10928,1.94027 -0.16079,0.58797 -0.16079,0.58796 -0.3157,0.62138 -0.31569,0.62137 -0.47796,0.47796 -0.47796,0.47796 -0.65025,0.28757 -0.65025,0.28757 -0.91832,0.11515 -0.91832,0.11515 z m 0.75191,-3.1495 3.20138,-0.001 0.58796,-0.27458 0.58797,-0.27459 0.37301,-0.31497 0.37301,-0.31497 0.25939,-0.53583 0.25939,-0.53582 0.18108,-5.21704 0.18108,-5.21704 -0.15172,-0.18282 -0.15173,-0.18282 h -1.91748 -1.91748 l -0.17208,-0.17208 -0.17208,-0.17208 -0.0878,-1.97398 -0.0878,-1.97398 0.12448,-2.41065 0.12447,-2.41065 0.18169,-0.58796 0.18168,-0.58797 0.35124,-0.55373 0.35124,-0.55373 0.49792,-0.36069 0.49793,-0.36069 0.65426,-0.20229 0.65426,-0.20228 2.43848,0.0339 2.43849,0.034 0.23674,-0.12671 0.23675,-0.1267 v -2.5241 -2.52411 h -9.87364 -9.87364 l -0.12109,0.22627 -0.1211,0.22627 0.2394,1.8022 0.2394,1.80221 0.2288,1.12809 0.22881,1.12809 0.30135,1.04737 0.30134,1.04737 0.62648,1.35232 0.62648,1.35231 0.0698,0.64676 0.0698,0.64676 -0.11134,2.02769 -0.11133,2.0277 0.11111,0.87639 0.11112,0.87639 0.47898,1.47227 0.47898,1.47227 1.11541,4.48452 1.11541,4.48452 0.17621,0.34075 0.1762,0.34074 z m 44.88851,10e-4 h 3.13799 l 0.19776,-0.21852 0.19777,-0.21853 0.40003,-1.35947 0.40003,-1.35947 0.77873,-3.35562 0.77873,-3.35561 0.2132,-0.74023 0.2132,-0.74023 0.31558,-1.05834 0.31557,-1.05833 -0.035,-3.05741 -0.035,-3.0574 0.6746,-1.35232 0.67459,-1.35231 0.40577,-1.42431 0.40576,-1.42431 0.23916,-1.23927 0.23915,-1.23928 0.13194,-1.35124 0.13194,-1.35123 -0.13267,-0.24791 -0.13268,-0.24792 h -9.87364 -9.87364 v 2.52411 2.5241 l 0.23302,0.12471 0.23303,0.12471 2.5598,-0.0315 2.5598,-0.0315 0.68868,0.21183 0.68868,0.21184 0.55859,0.55859 0.55859,0.55859 0.26222,0.6986 0.26223,0.69861 0.10948,0.64676 0.10948,0.64676 0.007,3.70827 0.007,3.70827 -0.0855,0.34867 -0.0855,0.34868 -0.12889,0.0864 -0.12888,0.0864 -1.96274,0.002 -1.96273,0.002 -0.0868,0.14048 -0.0868,0.14047 0.0248,2.35837 0.0248,2.35837 0.11783,2.58704 0.11783,2.58703 0.16937,0.59547 0.16937,0.59546 0.34659,0.47846 0.34659,0.47846 0.7336,0.36659 0.73361,0.36658 z m -22.36627,-1.76656 0.15327,0.003 0.80899,-0.64548 0.80898,-0.64547 0.56645,-0.65516 0.56645,-0.65516 0.68158,-1.01919 0.68159,-1.0192 0.81264,-1.60155 0.81264,-1.60155 0.52368,-1.28209 0.52368,-1.28209 0.42791,-1.23326 0.4279,-1.23326 0.12408,-0.53063 0.12409,-0.53063 -0.01,-0.78711 -0.01,-0.78711 0.40706,-0.85918 0.40707,-0.85919 0.2322,-0.91121 0.23221,-0.91121 0.17636,-1.20546 0.17636,-1.20545 0.12199,-1.6463 0.12199,-1.6463 4.8e-4,-2.14606 4.8e-4,-2.14607 h -9.93658 -9.93657 l 10e-4,1.02894 10e-4,1.02893 0.11757,2.29306 0.11757,2.29305 0.18249,1.46991 0.18248,1.46991 0.27651,1.24713 0.27651,1.24712 0.36305,0.7192 0.36305,0.71919 v 0.87215 0.87214 l 0.30174,1.04209 0.30173,1.04209 0.65175,1.70509 0.65175,1.7051 0.8165,1.66678 0.81649,1.66679 0.83926,1.27074 0.87233,1.22113 0.94915,1.06851 0.98223,1.0189 0.37728,0.18604 0.37729,0.18603 z m -29.05165,-31.39812 3.43959,0.004 9.6e-4,-0.97014 9.7e-4,-0.97014 0.12099,-1.05833 0.121,-1.05833 0.22847,-1.09522 0.22847,-1.09522 0.42043,-1.25663 0.42043,-1.25664 0.52672,-1.11204 0.52671,-1.11205 0.7799,-1.171495 0.7799,-1.171496 1.24439,-1.288024 1.24439,-1.288024 1.14325,-0.861198 1.14325,-0.861198 1.29015,-0.76582 1.29015,-0.76582 0.83209,-0.419033 0.83209,-0.419033 0.61519,-0.241892 0.61519,-0.241892 0.36495,-0.277548 0.36495,-0.277549 0.0846,-3.623127 0.0846,-3.623126 -0.13401,-0.352778 -0.134,-0.352778 -0.25675,-0.277059 -0.25675,-0.27706 -0.29398,-0.113586 -0.29398,-0.113586 -0.84537,0.0042 -0.84536,0.0042 -0.80093,0.183289 -0.80093,0.183289 -1.23473,0.408963 -1.23472,0.408963 -1.5287,0.748496 -1.52871,0.748497 -1.11713,0.73555 -1.11712,0.735551 -1.11713,0.891326 -1.11713,0.891326 -1.25322,1.26452 -1.25321,1.264521 -0.99296,1.328338 -0.99297,1.328338 -0.49566,0.823148 -0.49566,0.823148 -0.50751,1.058334 -0.50751,1.058333 -0.3539,1.058333 -0.35389,1.058333 -0.24487,1.234726 -0.24488,1.23472 -0.12063,1.21778 -0.12063,1.21779 v 3.80345 l 0.0661,3.68357 0.13963,0.23975 0.28227,0.0703 z m 11.93027,0.002 5.85447,-0.0516 0.20335,-0.0415 0.14341,-0.0911 0.0634,-8.7323 10e-4,-8.724037 -0.0608,-0.237674 -0.12278,-0.229405 h -0.24681 -0.2468 l -0.95438,0.481892 -0.95438,0.481892 -1.29352,0.856718 -1.29352,0.856718 -1.02033,0.892435 -1.02034,0.892436 -0.81717,0.973352 -0.81716,0.973353 -0.52872,0.82315 -0.52873,0.82315 -0.35436,0.70555 -0.35437,0.70556 -0.35097,0.99953 -0.35098,0.99954 -0.24172,1.05833 -0.24172,1.05834 -0.11988,1.05833 -0.11989,1.05833 -0.0706,1.20533 -0.0706,1.20532 z m 17.14898,-0.009 4.41421,0.0106 0.52331,-0.26458 0.46544,-0.31419 0.37886,-0.47956 0.32098,-0.52917 0.13255,-0.86628 0.13255,-0.86629 -0.0532,-4.1314 -0.0532,-4.1314 -0.14201,-0.448606 -0.14201,-0.448607 -0.22135,-0.221347 -0.22134,-0.221347 -0.45596,-0.122777 -0.45596,-0.122777 -4.21692,-0.07118 -4.21692,-0.07118 -0.76856,0.08231 -0.74065,0.123651 -0.46066,0.391409 -0.43275,0.432749 -0.0998,0.701632 -0.0998,0.70164 0.0111,4.11574 0.0111,4.11574 0.14737,0.69122 0.14737,0.69122 0.47451,0.51479 0.47451,0.51478 0.36657,0.10631 0.36657,0.1063 z m 17.09084,0.0106 h 5.8717 l -0.0763,-1.5581 -0.0763,-1.5581 -0.18041,-1.11713 -0.18042,-1.11713 -0.29925,-1.1058 -0.29925,-1.10579 -0.45112,-1.0464 -0.45113,-1.04639 -0.38799,-0.64018 -0.38798,-0.64018 -0.59121,-0.78944 -0.59122,-0.789451 -1.01589,-1.015892 -1.01589,-1.015892 -0.98936,-0.772549 -0.98936,-0.772549 -0.98904,-0.61342 -0.98903,-0.613419 -0.82574,-0.395722 -0.82573,-0.395722 h -0.20497 -0.20496 l -0.12173,0.227454 -0.0194,0.271304 -0.10231,8.600268 v 8.64412 l 0.26135,0.18306 0.29029,0.10037 z m 11.98922,-0.0244 3.45288,-0.0344 0.21003,-0.17449 0.21002,-0.17448 -0.0672,-4.11764 -0.0672,-4.11765 -0.18364,-1.30948 -0.18363,-1.30947 -0.29648,-1.141098 -0.29648,-1.141098 -0.39454,-1.021579 -0.39453,-1.021579 -0.44072,-0.875155 -0.44072,-0.875155 -0.47782,-0.767972 -0.47781,-0.767972 -0.78955,-1.058333 -0.78954,-1.058334 -0.92305,-0.992187 -0.92304,-0.992188 -1.29351,-1.109252 -1.29352,-1.109253 -1.54665,-1.026924 -1.54664,-1.026925 -1.09919,-0.532514 -1.09919,-0.532514 -1.17593,-0.439069 -1.17592,-0.439068 -1.10281,-0.280377 -1.10281,-0.280376 h -0.96707 -0.96707 l -0.39956,0.266927 -0.39957,0.266927 -0.19427,0.386651 -0.19427,0.386651 -0.006,3.138783 -0.006,3.138782 0.0667,0.576721 0.0667,0.57672 0.28744,0.266387 0.33128,0.237154 1.33088,0.576384 1.37473,0.547152 0.99953,0.534899 0.99954,0.5349 1.05833,0.737987 1.05834,0.737987 0.94074,0.822317 0.94074,0.822317 0.82315,0.962536 0.82315,0.962536 0.62717,0.902465 0.62717,0.902459 0.80951,1.6463 0.80951,1.6463 0.40286,1.35231 0.40285,1.35232 0.19403,1.11713 0.19403,1.11713 0.0634,1.4699 0.0634,1.46991 0.0474,0.15202 0.0474,0.15201 z"
       id="path214" /><path
       style="fill:#e08f28;fill-opacity:1;stroke:#000000;stroke-width:0.954594"
       d="m 2770.3317,546.32837 c -0.4201,-0.92365 -2.6044,-9.07748 -4.8541,-18.11961 -2.2497,-9.04212 -4.9426,-19.14491 -5.9842,-22.45064 -2.4807,-7.87242 -2.7643,-10.44354 -2.2034,-19.97576 0.5894,-10.01737 0.4347,-11.09022 -2.5311,-17.55722 -3.6857,-8.03694 -5.3012,-14.28687 -7.1061,-27.49251 -0.9187,-6.72166 -0.9617,-7.47143 -0.4711,-8.22012 l 0.5398,-0.82382 h 37.0824 37.0825 v 9.50305 9.50304 l -1.0729,0.44439 c -0.8048,0.33337 -3.3363,0.40226 -10.1334,0.27576 -8.52,-0.15856 -9.2019,-0.12381 -11.4294,0.5824 -4.7709,1.51263 -7.7956,4.55872 -9.5776,9.64541 -1.7552,5.00985 -2.1129,34.72116 -0.4403,36.56933 0.5371,0.59356 1.2472,0.65176 7.9515,0.65176 7.2472,0 7.3696,0.0124 7.8725,0.7955 0.4467,0.69554 0.4224,3.25716 -0.1932,20.38806 l -0.704,19.59257 -1.0196,2.0198 c -1.1683,2.31435 -2.8139,3.75189 -6.0447,5.28029 l -2.2558,1.06714 -11.8719,2.8e-4 -11.872,2.8e-4 z"
       id="path215"
       transform="scale(0.26458333)" /><path
       style="fill:#e08f28;fill-opacity:1;stroke:#000000;stroke-width:0.954594"
       d="m 2866.0806,540.41371 c -2.3121,-1.22594 -8.2177,-7.75377 -11.6813,-12.91205 -5.2898,-7.87801 -12.4091,-23.64203 -15.5118,-34.34744 -0.8828,-3.04603 -1.0912,-4.41482 -1.0912,-7.1673 0,-3.26311 -0.5268,-4.51692 -1.4101,-6.20668 -1.6632,-3.18147 -3.1718,-9.57663 -4.0787,-16.66167 -0.744,-5.81195 -1.5596,-19.32012 -1.5722,-26.03819 l -0.01,-5.39169 h 37.2999 37.2999 v 8.75851 c 0,18.07583 -1.9771,32.07983 -5.5026,38.97559 -1.2942,2.53135 -1.363,2.84075 -1.573,7.06667 -0.2017,4.05692 -0.3587,4.82542 -1.9145,9.36917 -5.4404,15.8886 -12.3923,29.58654 -19.0772,37.58955 -2.1924,2.62467 -8.2955,7.85573 -9.1302,7.8256 -0.2508,-0.009 -1.1719,-0.39609 -2.0469,-0.86007 z"
       id="path216"
       transform="scale(0.26458333)" /><path
       style="fill:#e08f28;fill-opacity:1;stroke:#000000;stroke-width:0.954594"
       d="m 2850.1249,422.02719 c -0.7904,-0.25548 -1.9541,-1.16156 -3.0301,-2.35932 -2.791,-3.10692 -2.9346,-4.21356 -2.9346,-22.62302 0,-9.35307 0.1515,-16.19677 0.3947,-17.83202 0.3787,-2.54593 0.4688,-2.72374 2.2177,-4.3778 1.7784,-1.68193 1.891,-1.73026 4.6034,-1.97605 4.0726,-0.36905 32.5143,0.0926 35.0018,0.5681 2.8218,0.53941 4.1517,1.73625 4.907,4.41605 0.8342,2.9595 1.1207,30.91336 0.3651,35.61645 -0.7048,4.38633 -2.0326,6.60714 -4.788,8.00817 l -2.0229,1.02855 -16.7154,-0.0272 c -11.7551,-0.0191 -17.0963,-0.15026 -17.9987,-0.44194 z"
       id="path217"
       transform="scale(0.26458333)" /><path
       style="fill:#e08f28;fill-opacity:1;stroke:#000000;stroke-width:0.954594"
       d="m 2781.4315,419.22593 c 0.7931,-13.23236 3.2156,-24.15502 7.0376,-31.73142 3.2398,-6.42227 9.6368,-14.55401 15.3221,-19.4772 6.6009,-5.71592 18.9541,-13.40326 21.5386,-13.40326 1.9636,0 1.9013,-1.29685 1.6462,34.21889 -0.1485,20.66851 -0.3644,32.94276 -0.5845,33.22142 -0.2727,0.34523 -5.2516,0.44194 -22.7526,0.44194 h -22.4035 z"
       id="path218"
       transform="scale(0.26458333)" /><path
       style="fill:#e08f28;fill-opacity:1;stroke:#000000;stroke-width:0.954594"
       d="m 2744.7234,422.11443 c -0.5741,-0.33437 -0.6188,-1.45713 -0.6188,-15.55953 0,-8.35954 0.1658,-16.74411 0.3684,-18.63238 1.2846,-11.97159 4.8956,-22.92333 10.7275,-32.53551 7.0234,-11.57604 19.1094,-23.9239 31.2751,-31.95264 10.7809,-7.11481 26.4359,-13.01449 34.5345,-13.01449 3.4778,0 4.9216,0.48067 6.2751,2.08918 1.7133,2.03618 1.7699,2.71753 1.4261,17.15246 l -0.3184,13.36389 -1.2203,1.00786 c -0.6712,0.55433 -2.0954,1.35908 -3.1649,1.78835 -3.277,1.31532 -9.8455,4.69335 -14.5356,7.47539 -10.256,6.0836 -19.865,14.86133 -25.438,23.23735 -8.0038,12.02945 -12.6773,27.28539 -12.699,41.45413 l -0.01,4.50781 -12.993,-0.0108 c -8.1655,-0.007 -13.223,-0.14465 -13.6118,-0.37112 z"
       id="path219"
       transform="scale(0.26458333)" /><path
       style="fill:#e08f28;fill-opacity:1;stroke:#000000;stroke-width:0.954594"
       d="m 2964.9391,420.64015 c -0.103,-1.02089 -0.2719,-3.8449 -0.3753,-6.27558 -0.4227,-9.93018 -2.8952,-19.12534 -7.7956,-28.99138 -1.7869,-3.5974 -4.2516,-7.97262 -5.4773,-9.72271 -5.561,-7.94042 -11.941,-14.25353 -19.9797,-19.77035 -5.4161,-3.71688 -9.2858,-5.7743 -15.9363,-8.47273 -2.9313,-1.18938 -5.9542,-2.66539 -6.7175,-3.28001 l -1.3879,-1.11749 -0.1199,-13.79179 -0.1199,-13.79179 0.9253,-1.57891 c 0.5089,-0.8684 1.5538,-1.99485 2.322,-2.50322 2.9981,-1.98404 10.8799,-0.92354 20.9376,2.81719 6.937,2.58004 12.3933,5.3857 18.8349,9.68498 20.583,13.73773 34.3667,31.95832 39.5904,52.33445 2.0956,8.17426 2.5832,13.40101 2.8066,30.08315 l 0.1969,14.70357 -0.8137,0.76439 c -0.8033,0.75474 -0.9769,0.76438 -13.7585,0.76438 h -12.9448 z"
       id="path220"
       transform="scale(0.26458333)" /><path
       style="fill:#e08f28;fill-opacity:1;stroke:#000000;stroke-width:0.954594"
       d="m 2909.656,421.80915 -0.7955,-0.66363 0.011,-32.64702 c 0.012,-34.8579 -0.037,-33.88445 1.7043,-33.88445 0.4145,0 2.3062,0.77186 4.2036,1.71524 12.2653,6.09807 23.4138,15.85561 30.3284,26.54439 5.404,8.35387 8.9503,21.15851 9.5291,34.40771 l 0.2278,5.21491 -22.2067,-0.0118 c -21.1941,-0.0112 -22.2431,-0.042 -23.0023,-0.67539 z"
       id="path221"
       transform="scale(0.26458333)" /><path
       style="fill:#e08f28;fill-opacity:1;stroke:#000000;stroke-width:0.954594"
       d="m 2938.1642,546.5953 c -2.1311,-1.0898 -2.9704,-1.76331 -4.0228,-3.22822 -2.0872,-2.90518 -2.5512,-5.2404 -2.977,-14.98154 -0.6936,-15.86828 -0.8711,-27.90361 -0.4239,-28.73918 0.4005,-0.74835 0.6155,-0.77132 8.0879,-0.86405 l 7.6765,-0.0953 0.5349,-1.06066 c 0.4579,-0.90812 0.5194,-3.24706 0.4274,-16.26346 -0.059,-8.36154 -0.2596,-16.07784 -0.4456,-17.14734 -0.6811,-3.91623 -2.0217,-6.72414 -4.3528,-9.11655 -1.9167,-1.9672 -2.4696,-2.31567 -4.8169,-3.03605 -2.5555,-0.78428 -2.9942,-0.80775 -12.0992,-0.64751 -7.0931,0.12483 -9.7144,0.0558 -10.5182,-0.27722 l -1.0707,-0.44349 v -9.50304 -9.50305 h 37.114 37.1141 l 0.5367,1.03791 c 0.4793,0.92682 0.4799,1.60438 0.01,6.3308 -1.1176,11.14471 -4.1195,22.46865 -8.0122,30.22435 l -2.5147,5.01012 0.2261,11.26787 0.2261,11.26786 -2.0951,7.11691 c -1.1524,3.9143 -3.4622,13.00358 -5.1331,20.19839 -3.5052,15.09393 -5.4131,21.7643 -6.5807,23.00714 l -0.8058,0.85771 -11.694,-0.0177 -11.694,-0.0177 z"
       id="path222"
       transform="scale(0.26458333)" /></g></svg>
