<?xml version="1.0" encoding="UTF-8" standalone="no"?>
<!-- Created with Inkscape (http://www.inkscape.org/) -->

<svg
   width="73.730446mm"
   height="51.342846mm"
   viewBox="0 0 73.730446 51.342846"
   version="1.1"
   id="svg1"
   xml:space="preserve"
   xmlns="http://www.w3.org/2000/svg"
   xmlns:svg="http://www.w3.org/2000/svg"><defs
     id="defs1" /><g
     id="layer1"
     transform="translate(-612.44881,-94.86987)"><path
       style="fill:#000000"
       d="m 637.37797,146.1407 -0.76435,0.0423 -0.74947,-0.28555 -0.74947,-0.28554 -0.6441,-0.44361 -0.6441,-0.4436 -0.52446,-0.64384 -0.52447,-0.64384 -0.49261,-1.03806 -0.49262,-1.03806 -0.54004,-0.16526 -0.54005,-0.16526 -0.47751,-0.24361 -0.47752,-0.24361 -0.36654,-0.44438 -0.36654,-0.44439 -0.21745,-0.58796 -0.21745,-0.58797 -0.0787,-0.52916 -0.0787,-0.52917 -0.60529,-0.35278 -0.60528,-0.35277 -0.95066,-0.94075 -0.95065,-0.94074 -0.3761,-0.71513 -0.37609,-0.71513 -0.18006,-0.69129 -0.18006,-0.69128 -0.002,-0.71025 -0.002,-0.71025 0.20002,-1.89264 0.20003,-1.89263 -0.16049,-1.21255 -0.16049,-1.21255 0.12638,-1.12815 0.12638,-1.12815 0.25814,-0.70555 0.25813,-0.70556 0.053,-0.17639 0.053,-0.17639 -0.73941,-0.38051 -0.73941,-0.38051 -0.63023,-0.51796 -0.63023,-0.51796 -0.51379,-0.62634 -0.51379,-0.62635 -0.41753,-0.85626 -0.41754,-0.85627 -0.41526,-1.49947 -0.41526,-1.49948 -0.53178,-1.67317 -0.53178,-1.67317 -0.79171,-1.56062 -0.79171,-1.56063 -1.46983,-2.46944 -1.46983,-2.46945 -0.54322,-1.0035 -0.54322,-1.003492 -0.30169,-0.898719 -0.30169,-0.898719 v -0.451472 -0.451471 l 0.21966,-0.40974 0.21966,-0.409739 0.51826,-0.266862 0.51825,-0.266861 1.05537,-0.125134 1.05538,-0.125134 1.5287,0.07413 1.5287,0.07413 1.6463,0.235695 1.6463,0.235696 1.29351,0.288916 1.29352,0.288916 1.46991,0.426191 1.46991,0.42619 1.41111,0.522902 1.41111,0.522902 1.88148,0.924065 1.88148,0.924066 1.21594,0.769564 1.21593,0.76956 1.54749,1.16282 1.5475,1.16283 1.41111,1.21052 1.41111,1.21053 1.25002,1.15659 1.25002,1.15659 h 0.0729 0.0729 l 0.002,-0.55857 0.002,-0.55856 0.16548,-0.78075 0.16549,-0.78075 0.25355,-0.5894 0.25355,-0.58939 0.25508,-0.23892 0.25508,-0.23892 0.29834,-0.113 0.29833,-0.11299 0.45135,0.15516 0.45134,0.15516 0.39629,0.38411 0.39629,0.3841 0.32394,-0.29848 0.32393,-0.29848 0.29075,-0.19442 0.29075,-0.19442 h 0.39125 0.39125 l 0.34578,0.17881 0.34578,0.17881 0.25428,0.49735 0.25427,0.49734 0.15787,0.58796 0.15786,0.58797 0.0767,0.97014 0.0767,0.97014 h 0.0712 0.0712 l 0.88399,-0.79506 0.88398,-0.79507 1.58512,-1.36161 1.58511,-1.36161 1.17593,-0.91621 1.17592,-0.91622 1.6463,-1.08988 1.6463,-1.0899 1.5875,-0.826925 1.5875,-0.826927 1.44184,-0.59017 1.44185,-0.59017 1.46992,-0.478216 1.46992,-0.478216 1.43916,-0.353564 1.43916,-0.353564 1.40795,-0.231768 1.40795,-0.231768 1.8511,-0.138425 1.85111,-0.138425 1.35783,0.133032 1.35783,0.133033 0.54432,0.27145 0.54432,0.27145 0.21866,0.407703 0.21865,0.407703 v 0.446516 0.446516 l -0.24365,0.731245 -0.24365,0.731244 -0.62186,1.175926 -0.62187,1.17593 -1.49532,2.52824 -1.49533,2.52824 -0.74625,1.52871 -0.74625,1.5287 -0.36518,1.04761 -0.36517,1.04762 -0.45736,1.71667 -0.45735,1.71668 -0.29788,0.79139 -0.29788,0.7914 -0.31548,0.53832 -0.31548,0.53832 -0.59061,0.64622 -0.59061,0.64623 -0.71664,0.50771 -0.71664,0.50772 -0.52917,0.26396 -0.52917,0.26397 -0.0384,0.0337 -0.0384,0.0337 0.39114,1.09837 0.39113,1.09837 -0.0309,2.70463 -0.0309,2.70463 0.18913,1.57691 0.18913,1.57691 -0.0805,0.65735 -0.0805,0.65735 -0.23225,0.70556 -0.23226,0.70555 -0.41456,0.63142 -0.41456,0.63141 -0.45084,0.48911 -0.45084,0.4891 -0.94174,0.6358 -0.94173,0.63579 -0.0652,0.24276 -0.0652,0.24276 -0.004,0.41158 -0.004,0.41157 -0.23926,0.52917 -0.23925,0.52916 -0.37553,0.39248 -0.37552,0.39248 -0.41157,0.20876 -0.41158,0.20876 -0.60017,0.19625 -0.60017,0.19626 -0.32264,0.80146 -0.32264,0.80146 -0.58084,0.7756 -0.58084,0.7756 -0.70203,0.52772 -0.70203,0.52772 -0.64837,0.24259 -0.64836,0.24258 -0.64205,0.0755 -0.64205,0.0755 -0.52653,-0.14742 -0.52652,-0.14741 -0.46145,-0.39499 -0.46145,-0.39498 -0.21013,-0.50246 -0.21012,-0.50245 0.0204,-1.74547 0.0204,-1.74546 -0.12474,-0.78084 -0.12474,-0.78083 -0.23485,-0.53111 -0.23484,-0.53111 -0.31708,-0.3382 -0.31707,-0.33821 -0.47037,-0.21778 -0.47037,-0.21777 -0.50446,-0.003 -0.50445,-0.003 -0.44952,0.22933 -0.44953,0.22933 -0.53149,0.59115 -0.53149,0.59115 -0.56208,0.91401 -0.56208,0.91402 -0.40186,0.50159 -0.40187,0.50159 -0.34341,0.17759 -0.34341,0.17758 -0.32366,-0.16737 -0.32366,-0.16737 -0.23359,-0.25811 -0.23359,-0.25812 -0.21124,-0.11305 -0.21124,-0.11306 -0.54463,0.4794 -0.54463,0.47941 -0.28427,0.0713 -0.28428,0.0713 -0.58727,-0.57379 -0.58728,-0.5738 -0.71703,-1.16161 -0.71704,-1.16162 -0.55383,-0.55383 -0.55383,-0.55383 -0.53792,-0.1506 -0.53792,-0.15061 -0.4416,0.0828 -0.44161,0.0829 -0.35684,0.18006 -0.35684,0.18007 -0.27575,0.25082 -0.27576,0.25083 -0.16522,0.31754 -0.16521,0.31754 v 0.45882 0.45882 l 0.26458,0.37132 0.26458,0.37132 0.33718,0.46605 0.33718,0.46605 -0.0651,0.16967 -0.0651,0.16966 -0.64521,0.13395 -0.64521,0.13394 -0.14173,0.17079 -0.14174,0.17078 0.0811,0.92993 0.0811,0.92993 -0.1279,0.47498 -0.1279,0.47498 -0.30568,0.36328 -0.30568,0.36328 -0.48498,0.24765 -0.48498,0.24765 z m -0.49442,-2.31639 0.25339,-0.0405 0.30517,-0.24316 0.23076,-0.32171 0.0587,-0.17806 8.1e-4,-0.21113 -0.19689,-1.17593 -0.1969,-1.17592 0.18301,-1.05833 0.18302,-1.05834 0.25606,-0.67446 0.25607,-0.67445 0.47929,-0.71776 0.4793,-0.71775 0.57098,-0.45133 0.57098,-0.45133 0.6764,-0.25539 0.6764,-0.25538 0.7948,0.0548 0.7948,0.0548 0.73662,0.36263 0.73663,0.36264 0.67047,0.6546 0.67046,0.65461 0.49006,0.72164 0.49006,0.72164 0.4066,0.45006 0.41537,0.3799 0.20416,-0.0438 0.21293,-0.11396 0.25621,-0.41455 0.2562,-0.41454 0.21549,-0.11533 0.21549,-0.11533 0.64407,0.67024 0.64408,0.67023 0.20479,-0.16996 0.20479,-0.16996 1.17018,-1.50767 1.17019,-1.50766 0.48898,-0.35546 0.48898,-0.35545 0.41157,-0.18597 0.41158,-0.18598 1.05833,-0.0101 1.05834,-0.0101 0.70555,0.33013 0.70556,0.33012 0.53714,0.57177 0.53715,0.57177 0.36344,0.6856 0.36344,0.68561 0.24292,0.74518 0.24292,0.74518 0.13287,0.99839 0.13286,0.9984 -0.20008,1.11122 -0.20008,1.11123 0.18931,0.28894 0.20379,0.27033 0.28313,0.0933 0.29759,0.0747 0.52191,-0.19931 0.52191,-0.19932 0.48419,-0.54967 0.4842,-0.54966 0.63509,-1.29042 0.63509,-1.29043 v -0.15008 -0.15009 h 0.68064 0.68064 l 0.52469,-0.26458 0.52468,-0.26459 0.21217,-0.41157 0.21217,-0.41157 -0.0658,-0.52045 -0.0658,-0.52044 -0.24083,-0.40819 -0.24083,-0.40818 0.0944,-0.0858 0.0944,-0.0859 0.58796,-0.19185 0.58797,-0.19184 0.62275,-0.35724 0.59071,-0.381 0.9061,-0.8065 0.87406,-0.83028 0.31111,-0.63589 0.31112,-0.63589 0.009,-0.90963 0.009,-0.90963 -0.22072,-1.57522 -0.22071,-1.57522 0.13867,-0.95912 0.13868,-0.95913 -0.002,-0.93463 -0.0605,-0.93464 -0.11568,-0.73866 -0.17415,-0.73865 -0.24078,-0.47197 -0.24078,-0.47197 -0.42047,-0.46541 -0.42047,-0.46541 -0.45623,-0.25641 -0.45623,-0.25642 0.96999,-0.2775 0.96999,-0.2775 0.96255,-0.47391 0.96254,-0.47391 0.76041,-0.69677 0.7232,-0.73812 0.46369,-0.60118 0.42648,-0.64252 0.35116,-0.82521 0.32324,-0.83657 0.67867,-2.25462 0.65076,-2.266 0.42582,-0.99953 0.42582,-0.99954 0.58112,-1.05833 0.58112,-1.05834 1.65747,-2.64574 1.65748,-2.645745 0.57164,-1.085833 0.52822,-1.092034 0.006,-0.312371 -0.0374,-0.318572 -0.41157,-0.107807 -0.41158,-0.107808 -2.23426,0.06043 -2.23426,0.06043 -1.4699,0.250676 -1.46991,0.250676 -1.23472,0.300898 -1.23473,0.300899 -1.70509,0.560474 -1.70509,0.560474 -1.29352,0.55198 -1.29352,0.551983 -1.23472,0.65106 -1.23472,0.65106 -1.29352,0.85203 -1.29352,0.85204 -1.20051,0.93771 -1.20051,0.93771 -2.19344,1.93297 -2.19344,1.93297 -1.66253,1.44341 -1.66253,1.44341 -1.152,0.70265 -1.152,0.70266 h -0.0467 -0.0467 l 0.22167,-0.50111 0.22166,-0.50111 0.31179,-1.17459 0.31179,-1.17458 0.0592,-1.5875 0.0124,-1.56411 -0.13987,-0.25857 -0.18665,-0.23519 -0.38323,0.42738 -0.38324,0.42738 -0.37959,0.45457 -0.37959,0.45456 -0.2622,-0.35278 -0.26221,-0.35278 -0.4321,-0.44097 -0.4321,-0.44097 h -0.13434 l -0.10511,0.0555 -0.14391,0.2461 -0.11468,0.30163 v 0.67159 0.67159 l 0.12183,0.99645 0.12182,0.99645 0.23856,0.88195 0.23856,0.88194 0.22901,0.51794 0.229,0.51794 -0.0371,0.0371 -0.037,0.0371 -1.1697,-0.77761 -1.16969,-0.7776 -0.76435,-0.64472 -0.76436,-0.64472 -2.46944,-2.2695 -2.46944,-2.2695 -1.2893,-1.07284 -1.28929,-1.07284 -1.18015,-0.80177 -1.18015,-0.80177 -1.26244,-0.72581 -1.26243,-0.72581 -1.03062,-0.47786 -1.03062,-0.477855 -1.33636,-0.520246 -1.33635,-0.520246 -1.36828,-0.403385 -1.36827,-0.403386 -1.05834,-0.23358 -1.05833,-0.23358 -1.70509,-0.256739 -1.7051,-0.256739 -2.18588,-0.01446 -2.16522,0.02067 -0.22359,0.132523 -0.15125,0.1842 0.0225,0.286171 0.0742,0.302707 0.64743,1.163019 0.64743,1.163016 1.54117,2.48235 1.54117,2.48235 0.74866,1.4325 0.74865,1.43249 0.35769,0.97816 0.35768,0.97815 0.63198,2.19734 0.63199,2.19734 0.35985,0.79365 0.35986,0.79364 0.48361,0.62685 0.48361,0.62685 0.71922,0.54509 0.71921,0.54509 0.83698,0.39016 0.83697,0.39015 0.95617,0.27605 0.95616,0.27604 -0.46355,0.26053 -0.46355,0.26053 -0.47312,0.53749 -0.47312,0.5375 -0.25625,0.66405 -0.25624,0.66406 -0.0556,1.02024 -0.0556,1.02024 0.13336,1.50828 0.13335,1.50828 -0.24139,1.76361 -0.2414,1.76361 0.0707,0.58796 0.0707,0.58796 0.34933,0.72828 0.34933,0.72828 0.76653,0.70238 0.76653,0.70239 0.90508,0.46581 0.90509,0.46582 0.42331,0.13528 0.42331,0.13529 -0.27632,0.54581 -0.27632,0.5458 v 0.55901 0.55901 l 0.30666,0.36445 0.30667,0.36446 0.2519,0.13711 0.2519,0.13711 0.80215,0.066 0.80215,0.066 0.43942,1.06656 0.43941,1.06656 0.40125,0.52094 0.40125,0.52094 0.35626,0.39603 0.35626,0.39604 0.35277,0.15793 0.35278,0.15792 z m 1.58798,-15.87166 -0.094,-0.001 -0.76435,-0.535 -0.76435,-0.53499 -1.4066,-0.72786 -1.4066,-0.72785 -0.67859,-0.6281 -0.67859,-0.6281 -0.35417,-0.72422 -0.35417,-0.72421 -0.23588,-0.93016 -0.23587,-0.93015 v -0.72106 -0.72106 l 0.49977,-0.48922 0.49977,-0.48923 0.58796,-0.26478 0.58797,-0.26478 1.24796,-0.0473 1.24796,-0.0473 0.9863,0.24834 0.98629,0.24833 0.97516,0.46667 0.97516,0.46666 0.68831,0.52965 0.68832,0.52964 0.48884,0.55536 0.48884,0.55535 0.46595,0.7113 0.46596,0.7113 0.35045,0.90626 0.35045,0.90626 0.14139,0.82453 0.14139,0.82453 -0.0719,0.0719 -0.0719,0.0719 -0.27632,-0.18105 -0.27631,-0.18105 -0.60884,-0.13058 -0.60884,-0.13057 -0.63844,0.16261 -0.63845,0.1626 -0.9059,0.51832 -0.90591,0.51832 -0.39709,0.38565 -0.39709,0.38566 z m 21.57471,10e-4 h -0.0519 l -0.72426,-0.58127 -0.72427,-0.58126 -0.85311,-0.42091 -0.8531,-0.42092 -0.59495,-0.0699 -0.59496,-0.0699 -0.72796,0.29404 -0.72797,0.29403 0.002,-0.48609 0.002,-0.4861 0.17783,-0.76436 0.17783,-0.76435 0.5487,-1.11713 0.5487,-1.11713 1.12382,-1.12299 1.12381,-1.12299 1.08495,-0.5568 1.08495,-0.55681 0.91412,-0.23724 0.91413,-0.23724 1.11713,-0.0129 1.11713,-0.0129 0.64676,0.19374 0.64676,0.19374 0.62222,0.35968 0.62223,0.35967 0.22988,0.37702 0.22988,0.37702 4.4e-4,0.49398 4.4e-4,0.49398 -0.12922,0.62315 -0.12921,0.62315 -0.51318,1.09425 -0.51317,1.09425 -0.73932,0.73291 -0.73933,0.73291 -1.78909,0.91093 -1.7891,0.91094 -0.34455,0.28991 -0.34454,0.28992 z"
       id="path212" /><path
       style="fill:#cc53ec;fill-opacity:1;stroke:#000000;stroke-width:0.675"
       d="m 2404.75,542.76913 c -1.5923,-0.77545 -2.7253,-1.93123 -5.5328,-5.64413 -1.1807,-1.56138 -1.8585,-2.84984 -3.0905,-5.875 -0.868,-2.13125 -1.5916,-3.89628 -1.6081,-3.92228 -0.016,-0.026 -1.4208,-0.16806 -3.1208,-0.31568 -3.6731,-0.31893 -4.3913,-0.64284 -6.0966,-2.74961 -1.1561,-1.42816 -1.1762,-1.48359 -1.1762,-3.23773 0,-1.62029 0.1051,-1.9939 1.1406,-4.05576 0.6273,-1.24909 1.1054,-2.29967 1.0625,-2.33462 -0.043,-0.0349 -0.8656,-0.30385 -1.8281,-0.59755 -0.9625,-0.2937 -3.2288,-1.32128 -5.0361,-2.28351 -2.7577,-1.46821 -3.7369,-2.16111 -6.0895,-4.30945 -2.6613,-2.43012 -2.8717,-2.69593 -4.1484,-5.24162 -1.164,-2.32093 -1.3831,-2.99415 -1.6287,-5.00444 -0.265,-2.16959 -0.2236,-2.76046 0.6286,-8.96066 l 0.9124,-6.63791 -0.5222,-5.76971 c -0.4455,-4.92311 -0.4858,-6.33351 -0.2749,-9.61209 0.228,-3.54445 0.3196,-4.02654 1.181,-6.21738 1.2262,-3.11839 3.5237,-5.84259 6.2901,-7.45818 1.0201,-0.59575 1.8171,-1.11465 1.7712,-1.15311 -0.046,-0.0385 -1.7118,-0.54547 -3.702,-1.12667 -7.5059,-2.192 -13.4905,-5.77115 -16.9499,-10.13704 -2.7767,-3.50436 -4.2187,-6.92875 -7.0991,-16.85928 -1.3738,-4.73652 -3.1018,-10.26522 -3.8399,-12.28599 -1.9246,-5.26901 -5.9155,-12.67343 -12.9919,-24.10473 -6.9301,-11.19473 -10.5289,-17.55671 -10.7643,-19.02896 -0.1454,-0.9092 -0.089,-1.07724 0.5215,-1.5576 0.668,-0.52544 0.8754,-0.53845 8.5883,-0.53897 l 7.9038,-5.3e-4 6.75,1.01636 c 3.7125,0.55899 8.4937,1.40435 10.625,1.87856 12.8014,2.84839 26.4607,8.10699 37.2366,14.33548 10.7117,6.19138 17.2105,11.25704 32.7634,25.53825 5.1562,4.73465 10.4972,9.56447 11.8688,10.73293 3.128,2.6647 11.8923,8.5884 12.2208,8.25991 0.1479,-0.14796 -0.1064,-1.00976 -0.682,-2.3107 -1.9688,-4.44977 -3.6576,-13.0888 -3.6576,-18.71002 0,-2.56154 0.6017,-4.48971 1.4011,-4.48971 0.4758,0 2.4033,1.99298 5.1484,5.32321 l 0.5755,0.69821 2.0454,-2.44821 c 1.1249,-1.34652 2.433,-2.8225 2.9067,-3.27996 l 0.8614,-0.83176 0.5672,0.79657 c 0.5633,0.79107 0.5661,0.83648 0.3957,6.58175 l -0.1714,5.78519 -1.2297,4.6412 c -0.6763,2.55266 -1.5718,5.40377 -1.99,6.3358 -0.8144,1.81506 -0.8954,2.148 -0.5227,2.148 0.1307,0 2.2401,-1.23195 4.6875,-2.73766 4.7914,-2.94774 5.9941,-3.94651 26.2118,-21.76737 8.9917,-7.92571 14.939,-12.59341 21.5058,-16.87854 9.1861,-5.99435 18.6481,-10.46887 30.0324,-14.20217 7.7739,-2.54934 13.7795,-4.0453 21.5943,-5.37907 5.7474,-0.98091 6.0084,-1.00258 14.1236,-1.17295 7.2272,-0.15173 8.4434,-0.12259 9.6612,0.23142 1.376,0.40003 1.3945,0.41805 1.5073,1.46817 0.1018,0.94775 -0.1037,1.48386 -1.8931,4.93817 -1.1041,2.13125 -4.8899,8.4875 -8.4129,14.125 -11.1029,17.76641 -12.5954,20.87947 -16.4989,34.41355 -3.8742,13.43224 -5.8275,17.324 -11.1561,22.22651 -2.4473,2.25166 -3.0955,2.69476 -6.3505,4.34118 -2.8119,1.42227 -4.481,2.07509 -7.4409,2.91026 -2.0988,0.59219 -3.73,1.15971 -3.625,1.26117 0.105,0.10146 0.9348,0.61487 1.844,1.1409 2.0525,1.18744 4.4494,3.80291 5.6255,6.13819 0.4733,0.9399 1.1386,2.88571 1.4785,4.32402 0.8121,3.43695 0.8655,9.18691 0.1297,13.9796 l -0.4881,3.17996 0.8606,6.04233 c 0.6261,4.39631 0.8612,6.93372 0.8631,9.31449 v 3.27217 l -1.2135,2.47783 c -1.1571,2.36267 -1.3691,2.62437 -4.5625,5.63036 -3.778,3.55635 -6.3483,5.20465 -10.086,6.46808 -1.2203,0.4125 -2.4152,0.9278 -2.6554,1.14513 -0.4122,0.37306 -0.3831,0.48838 0.5221,2.0647 0.7712,1.34321 0.9934,2.0285 1.1366,3.50577 0.1648,1.69994 0.1247,1.94774 -0.5404,3.33925 -0.68,1.4226 -0.822,1.55514 -2.6541,2.4763 -1.8829,0.94669 -2.0075,0.97325 -4.5663,0.97325 -2.4606,0 -2.6305,0.0322 -2.6305,0.49816 0,0.27399 -1.1138,2.77711 -2.475,5.5625 -2.1669,4.43402 -2.6967,5.31114 -4.2567,7.04727 -1.575,1.75288 -1.9912,2.06455 -3.5875,2.68658 -2.054,0.80036 -1.9872,0.79119 -3.2364,0.44424 -0.6511,-0.18081 -1.1431,-0.56505 -1.6376,-1.27898 l -0.707,-1.02052 0.7476,-4.11262 0.7476,-4.11261 -0.4495,-3.66951 c -0.5533,-4.51732 -1.862,-8.80102 -3.7987,-12.43487 -1.036,-1.94368 -1.8385,-3.03047 -3.5312,-4.78191 -1.995,-2.06419 -2.4169,-2.36973 -4.725,-3.42214 l -2.5344,-1.15559 h -3.9935 c -3.9139,0 -4.027,0.0152 -5.6681,0.75926 -3.4552,1.56667 -4.9436,2.96162 -9.6461,9.04024 -2.3722,3.06652 -4.6643,5.87961 -5.0933,6.2513 l -0.7802,0.67579 -2.5,-2.47134 -2.5,-2.47134 -0.875,0.46434 c -0.5724,0.30377 -1.2159,1.02915 -1.8608,2.09771 -0.6193,1.02608 -1.2442,1.74041 -1.6807,1.92124 -0.6603,0.27349 -0.7609,0.21665 -2.0143,-1.13827 -0.7255,-0.78438 -2.235,-2.7697 -3.3544,-4.41183 -2.9635,-4.34769 -6.2786,-7.4323 -9.9716,-9.27828 l -2.7432,-1.37125 -3.125,-0.16722 -3.125,-0.16723 -2.5482,0.9794 c -3.8137,1.46581 -6.0452,3.30192 -8.5529,7.03748 -2.5086,3.73681 -3.5452,6.48532 -4.4952,11.91816 l -0.707,4.04317 0.7108,4.20683 c 0.9713,5.74773 0.9625,5.93829 -0.3346,7.25988 -1.3006,1.32525 -2.1624,1.39324 -4.3229,0.34109 z m 10.2495,-60.48146 c 0.9633,-0.90113 2.9032,-2.22984 5.0548,-3.46225 2.7945,-1.60061 3.9505,-2.11331 5.7897,-2.56776 2.2915,-0.56621 2.3042,-0.56654 4.477,-0.11548 1.3251,0.27509 2.6468,0.73766 3.3728,1.18043 1.8679,1.13917 1.9848,0.86256 1.2973,-3.07081 -1.4938,-8.54702 -6.2528,-16.46854 -12.9911,-21.62433 -3.8164,-2.92009 -8.7419,-5.26948 -13.6789,-6.5246 l -3.5711,-0.90789 -4.9415,0.16578 -4.9414,0.16577 -2.1836,0.99956 c -1.7744,0.81227 -2.5466,1.3591 -4.121,2.91837 l -1.9375,1.91881 v 2.70608 c 0,3.67213 1.1754,8.4234 3.0835,12.46457 1.2971,2.74723 1.4273,2.92018 3.9415,5.23554 2.4487,2.25517 2.9054,2.55232 7.85,5.1078 2.9357,1.51723 6.568,3.63012 8.2399,4.79303 1.6445,1.14384 3.1489,2.07971 3.3431,2.07971 0.1943,0 1.0567,-0.65805 1.9165,-1.46233 z m 81.2235,0.37955 c 0.7771,-0.6589 3.9683,-2.46498 8.152,-4.61358 l 6.875,-3.53081 2.7927,-2.82391 2.7927,-2.82392 1.8762,-4.05446 c 2.0595,-4.4507 2.9134,-7.63267 2.9134,-10.85671 0,-1.54611 -0.092,-1.86346 -0.9249,-3.19616 -0.8141,-1.30234 -1.211,-1.6437 -3.3125,-2.84903 -1.3665,-0.78375 -3.3499,-1.65909 -4.6376,-2.04675 -2.1246,-0.6396 -2.5068,-0.67512 -6.8576,-0.63742 -4.4165,0.0383 -4.7484,0.0769 -8,0.93122 -2.8077,0.73766 -4.0603,1.23699 -7.2674,2.89685 l -3.875,2.00555 -4.4439,4.40346 -4.4439,4.40345 -2.0197,4.125 c -1.6165,3.30153 -2.1636,4.72388 -2.7406,7.125 -0.7229,3.00815 -0.986,6.625 -0.4819,6.625 0.1347,0 1.4003,-0.46066 2.8125,-1.02368 2.5199,-1.00471 2.6068,-1.02042 4.6875,-0.84777 1.9835,0.16459 2.3536,0.29405 5.75,2.01138 2.7839,1.40766 4.1836,2.30126 6.005,3.83391 1.3062,1.09914 2.5316,2.00467 2.723,2.0123 0.1915,0.008 0.9227,-0.47339 1.625,-1.06892 z"
       id="path213"
       transform="scale(0.26458333)" /></g></svg>
