<?xml version="1.0" encoding="UTF-8" standalone="no"?>
<!-- Created with Inkscape (http://www.inkscape.org/) -->

<svg
   width="73.495308mm"
   height="71.601265mm"
   viewBox="0 0 73.495308 71.601265"
   version="1.1"
   id="svg1"
   xml:space="preserve"
   xmlns="http://www.w3.org/2000/svg"
   xmlns:svg="http://www.w3.org/2000/svg"><defs
     id="defs1" /><g
     id="layer1"
     transform="translate(-634.00753,-56.420823)"><path
       style="fill:#000000"
       d="m 671.28426,128.02086 -0.0588,-0.002 -0.88194,-1.61089 -0.88195,-1.61089 -1.18058,-1.89161 -1.18059,-1.89162 -0.98382,-1.38683 -0.98382,-1.38682 -0.99735,-1.25138 -0.99735,-1.25137 -1.15707,-1.30638 -1.15707,-1.30638 -1.75524,-1.7052 -1.75524,-1.70519 -1.74584,-1.46073 -1.74584,-1.46074 -1.41111,-1.06297 -1.41111,-1.06297 -0.97014,-0.67752 -0.97014,-0.67752 v -0.0367 -0.0367 l 2.23426,-1.43869 2.23426,-1.43869 v -0.0971 -0.0971 l -0.79375,-0.461948 -0.79375,-0.461944 -1.6463,-0.879042 -1.64629,-0.879041 -1.46991,-0.683831 -1.46991,-0.683831 -1.70509,-0.681408 -1.70509,-0.681409 -4.14508,-1.385305 -4.14508,-1.385305 0.003,-0.0588 0.003,-0.0588 2.84883,-0.92396 2.84884,-0.923959 2.05787,-0.767709 2.05787,-0.767709 1.76389,-0.761242 1.76389,-0.761242 1.82268,-0.921744 1.82269,-0.921744 1.64629,-0.959905 1.6463,-0.959905 0.26458,-0.242651 0.26459,-0.242652 v -0.07943 -0.07942 l -2.46668,-1.634568 -2.46667,-1.634569 0.005,-0.0588 0.005,-0.0588 1.25612,-0.608251 1.25613,-0.60825 1.41111,-0.938532 1.41111,-0.938532 1.29352,-1.034398 1.29352,-1.034397 2.05787,-2.06399 2.05787,-2.06399 1.28881,-1.576349 1.28881,-1.57635 1.10312,-1.480796 1.10311,-1.480795 1.21121,-1.822686 1.2112,-1.822685 1.05753,-1.847687 1.05753,-1.847686 0.82781,1.436112 0.82781,1.436113 1.18467,1.798732 1.18466,1.798733 1.02594,1.372754 1.02594,1.372755 1.28992,1.532217 1.28991,1.532217 1.88832,1.890667 1.88833,1.890667 1.511,1.249272 1.511,1.249271 1.45175,1.034599 1.45176,1.034598 1.58418,0.950093 1.58418,0.950093 -2.69485,1.920893 -2.69486,1.920892 v 0.100865 0.100865 l 0.97014,0.629368 0.97014,0.629368 1.16933,0.672275 1.16933,0.672275 1.94687,0.973935 1.94688,0.973936 1.54622,0.659546 1.54623,0.659547 1.72743,0.648363 1.72744,0.648363 2.53903,0.823597 2.53904,0.823597 h 0.15513 0.15512 v 0.109248 0.109249 l -0.67615,0.18754 -0.67616,0.18754 -3.2338,1.057918 -3.23379,1.057917 -1.99908,0.802473 -1.99907,0.802472 -1.5875,0.730972 -1.5875,0.730972 -1.58872,0.876975 -1.58872,0.876975 -1.3426,0.850388 -1.3426,0.85038 -0.0361,0.11759 -0.0361,0.11759 0.96834,0.51218 0.96834,0.51218 1.91088,1.06601 1.91088,1.06602 -0.001,0.0681 -10e-4,0.0681 -0.90196,0.47037 -0.90197,0.47037 -1.53681,1.00642 -1.53681,1.00642 -1.50796,1.21261 -1.50796,1.21261 -1.5572,1.54393 -1.5572,1.54394 -1.064,1.24775 -1.064,1.24776 -1.08,1.43022 -1.08001,1.43022 -1.21522,1.84934 -1.21522,1.84934 -0.87568,1.5287 -0.87568,1.52871 -0.75503,1.43859 -0.75503,1.4386 z m -0.10656,-4.11031 h 0.0966 l 0.28462,-0.49977 0.28462,-0.49977 0.73188,-1.29352 0.73189,-1.29352 1.5647,-2.35185 1.56471,-2.35185 1.26589,-1.5875 1.26589,-1.5875 1.8317,-1.82838 1.8317,-1.82837 1.41111,-1.05565 1.41111,-1.05564 1.66965,-1.05533 1.66964,-1.05534 0.006,-0.0928 0.006,-0.0928 -2.99809,-1.45703 -2.99809,-1.45703 0.0598,-0.15573 0.0598,-0.15574 1.49782,-0.95316 1.49782,-0.953159 1.6463,-0.964159 1.6463,-0.964158 2.41991,-1.220568 2.41992,-1.220567 2.0486,-0.874131 2.0486,-0.874132 1.67874,-0.623285 1.67874,-0.623285 -0.038,-0.113926 -0.038,-0.113926 -2.11114,-0.723547 -2.11113,-0.723546 -1.76389,-0.750039 -1.76388,-0.750039 -2.11667,-1.074675 -2.11667,-1.074676 -1.61795,-0.97418 -1.61796,-0.974181 -1.20286,-0.841277 -1.20285,-0.841277 -0.028,-0.176389 -0.0279,-0.176389 2.88019,-1.816579 2.88019,-1.816579 -0.0405,-0.123699 -0.0405,-0.123699 -0.69127,-0.486068 -0.69127,-0.486068 -0.36743,-0.197872 -0.4025,-0.01078 -2.79893,1.819768 -2.83402,2.006857 h -0.072 -0.072 l -0.58293,-0.545259 -0.58292,-0.545258 0.005,-0.189695 0.005,-0.189696 2.69915,-1.87394 2.69915,-1.873941 v -0.02269 -0.02269 l -0.89861,-0.676344 -0.8986,-0.676345 -0.48311,0.238537 -0.48311,0.238538 -1.76389,1.297912 -1.76389,1.297912 -0.62045,0.435619 -0.62046,0.435618 -0.67306,-0.52189 -0.67306,-0.52189 -0.0348,-0.237538 -0.0348,-0.237539 2.6484,-1.755867 2.64839,-1.755866 0.003,-0.133508 0.003,-0.133508 -0.76866,-0.719039 -0.76865,-0.719038 h -0.26917 -0.26917 l -1.51982,1.037294 -1.51981,1.037295 -0.97468,0.667798 -0.97469,0.667798 h -0.15478 -0.15479 l -0.60502,-0.63972 -0.60502,-0.63972 0.003,-0.15403 0.003,-0.15403 2.47343,-1.639063 2.47343,-1.639064 0.0579,-0.09366 -0.0707,-0.157972 -0.97657,-1.260373 -1.10519,-1.324685 -0.88899,-1.183191 -0.88899,-1.18319 -1.17489,-1.785563 -1.1749,-1.785562 -0.45274,-0.8819 -0.45275,-0.8819 -0.0697,-5.04e-4 -0.0697,-5.05e-4 -0.62827,1.146528 -0.62826,1.146528 -0.76309,1.234722 -0.76309,1.234722 -0.8225,1.175926 -0.8225,1.175926 -0.76732,0.999537 -0.76732,0.999537 -1.23758,1.469908 -1.23758,1.469907 -1.59483,1.5875 -1.59482,1.5875 -1.40746,1.136487 -1.40747,1.136487 -1.30646,0.862588 -1.30647,0.862587 -0.20036,0.117592 -0.0776,0.138056 2.0308,1.460095 2.15358,1.480559 0.0377,0.193641 0.0377,0.193642 -1.50764,0.986079 -1.50764,0.986079 -1.5875,0.906973 -1.5875,0.906973 -2.11667,1.039006 -2.11666,1.039007 -1.82269,0.756696 -1.82269,0.756696 -2.05787,0.727433 -2.05787,0.727434 -0.16023,0.05522 -0.0238,0.09656 0.004,0.127397 0.14004,0.168739 2.25445,0.729167 2.25445,0.729167 1.82269,0.757244 1.82268,0.757245 2.41065,1.220248 2.41065,1.220248 2.08727,1.246801 2.08727,1.2468 v 0.08925 0.0892 l -0.26459,0.2459 -0.26458,0.24589 -2.05787,1.37506 -2.05787,1.37505 -0.0462,0.043 -0.0462,0.043 0.16375,0.19989 0.16374,0.19988 0.92153,0.6849 0.93392,0.62703 0.2243,0.0579 0.24703,-0.0455 2.50287,-1.37577 2.5132,-1.42125 0.22809,-0.0597 0.22809,-0.0596 0.6278,0.49624 0.6278,0.49625 v 0.15418 0.15418 l -2.29305,1.48454 -2.23518,1.50522 -0.0579,0.122 0.0641,0.12407 1.01848,1.04453 1.08256,0.93825 0.21385,0.0877 h 0.21385 l 1.49183,-0.87061 1.49182,-0.87061 0.93384,-0.65809 0.93383,-0.65809 h 0.17733 0.17732 l 0.5891,0.46565 0.58911,0.46566 0.0779,0.24554 0.0779,0.24554 -0.13198,0.15902 -0.13197,0.15902 -2.02381,1.30277 -2.0238,1.30276 -0.28609,0.22499 -0.15161,0.25423 1.16826,1.36515 1.30273,1.39439 0.8078,0.94074 0.8078,0.94074 0.72926,0.95802 0.72925,0.95803 1.03287,1.57448 1.03288,1.57447 0.98613,1.78903 0.98613,1.78903 z m 0.082,-19.63797 h -0.0381 l -1.3504,-1.35896 -1.3504,-1.35896 -1.41111,-1.22655 -1.41111,-1.226546 -1.29352,-1.005001 -1.29352,-1.005001 -1.61013,-1.118147 -1.61013,-1.118147 -1.81885,-1.082778 -1.81885,-1.082778 -0.85619,-0.47037 -0.85619,-0.470371 -0.0403,-0.129424 -0.0403,-0.129424 1.64366,-0.894837 1.64366,-0.894838 1.44709,-0.903247 1.44709,-0.903247 1.32159,-0.940099 1.3216,-0.940099 1.38303,-1.10409 1.38304,-1.104091 1.60935,-1.468461 1.60935,-1.468461 0.86009,-1.018046 0.8601,-1.018045 0.13903,-0.04593 0.13902,-0.04593 2.27162,2.282167 2.31503,2.24496 1.4265,1.253249 1.46991,1.216041 1.29352,0.96144 1.29351,0.961441 1.52871,1.002581 1.5287,1.002581 1.23472,0.706446 1.23473,0.706446 0.55856,0.270698 0.55856,0.270698 -1.1e-4,0.123559 -1.2e-4,0.123558 -0.97002,0.520934 -0.97002,0.520934 -1.29352,0.761919 -1.29352,0.761919 -1.5875,1.054731 -1.5875,1.05473 -1.29895,0.965891 -1.29896,0.96589 -1.42856,1.197033 -1.42856,1.197032 -1.76364,1.7025 -1.76363,1.7025 z m -11.41133,-7.061975 -0.0294,-0.0064 -5.52685,-2.769974 -5.52685,-2.769973 -0.057,-0.05387 -0.057,-0.05387 0.29222,-0.222894 0.29223,-0.222894 1.46991,-0.656129 1.4699,-0.656129 1.88148,-1.01221 1.88149,-1.012211 1.88148,-1.117476 1.88148,-1.117476 1.94028,-1.23638 1.94027,-1.236381 1.41111,-0.938704 1.41112,-0.938703 0.35277,-0.302805 0.35278,-0.302804 -1.35231,1.389212 -1.35232,1.389213 -1.27,1.098728 -1.27,1.098729 -1.14065,0.874111 -1.14064,0.87411 -1.41112,0.939442 -1.41111,0.939441 -1.23472,0.707992 -1.23472,0.707991 -0.97014,0.486468 -0.97014,0.486468 0.004,0.08688 0.004,0.08688 2.25616,1.528704 2.25616,1.528704 1.50306,1.094929 1.50307,1.094929 v 0.110395 0.110395 z"
       id="path210" /><path
       style="fill:#d142fd;fill-opacity:1;stroke:#000000;stroke-width:0.954594"
       d="m 2536.308,467.65885 c -0.1875,-0.24092 -1.9067,-3.30183 -3.8205,-6.80201 -3.6562,-6.68676 -10.3127,-17.01712 -14.2386,-22.09708 -3.522,-4.55725 -8.1269,-9.88182 -13.4001,-15.49413 -4.5567,-4.84981 -4.7328,-5.09242 -4.1574,-5.72824 0.3305,-0.36518 4.2345,-2.99248 8.6756,-5.83847 4.4411,-2.84599 8.2559,-5.39271 8.4772,-5.65937 0.8248,-0.99382 0.017,-2.57778 -2.2482,-4.41102 -2.9242,-2.36607 -3.3942,-2.32737 -7.6138,0.62684 -4.627,3.23945 -14.4221,8.92766 -15.3694,8.92532 -1.0671,-0.003 -8.9314,-7.43145 -8.6483,-8.16933 0.1136,-0.29611 4.0334,-2.99371 8.7106,-5.99468 6.3681,-4.0859 8.5083,-5.63397 8.5212,-6.16368 0.011,-0.46231 -0.8096,-1.36063 -2.3693,-2.59292 -1.9828,-1.56658 -2.5659,-1.85582 -3.4472,-1.70991 -0.5833,0.0966 -5.301,2.57597 -10.4836,5.50973 -5.5796,3.15849 -9.8045,5.33411 -10.3585,5.33411 -1.2634,0 -9.2469,-5.99986 -8.6416,-6.49443 0.076,-0.0624 3.7344,-2.52866 8.1291,-5.48067 8.2486,-5.54081 9.733,-6.7344 9.4128,-7.56886 -0.3434,-0.89482 -16.2216,-10.01281 -25.5876,-14.69355 -11.7972,-5.89575 -19.7295,-9.19293 -30.3528,-12.61656 -4.6669,-1.50403 -8.7603,-2.99353 -9.0965,-3.31 -0.5694,-0.53604 -0.098,-0.7549 6.8943,-3.20045 20.5627,-7.19188 39.3511,-16.25411 56.0253,-27.0227 5.336,-3.44612 6.094,-4.05089 6.0988,-4.86552 0,-0.81765 -0.9562,-1.58801 -7.9382,-6.36396 -4.369,-2.98854 -7.9454,-5.51326 -7.9475,-5.61048 0,-0.0972 2.4191,-1.76777 5.3804,-3.71231 2.9613,-1.94455 7.5161,-5.2565 10.1219,-7.3599 17.5887,-14.19795 36.519,-37.38294 47.9213,-58.6919 l 2.0475,-3.82639 0.665,1.09355 c 0.3657,0.60145 1.2141,2.18392 1.8852,3.5166 3.0218,6.00048 13.6357,21.04476 21.3462,30.25634 1.9486,2.328 3.4541,4.37654 3.3454,4.55232 -0.1086,0.17578 -4.3919,3.0945 -9.5183,6.48606 -7.5191,4.97452 -9.3208,6.31745 -9.3208,6.94764 0,0.94365 4.4883,5.53519 5.4107,5.53519 0.341,0 4.9236,-2.94333 10.1835,-6.54074 5.2599,-3.5974 9.8887,-6.54073 10.2861,-6.54073 0.6661,0 6.6466,5.42882 6.6466,6.03343 0,0.13813 -4.5343,3.23159 -10.0762,6.87435 -6.57,4.3185 -10.0677,6.82362 -10.0515,7.19915 0.051,1.17843 0.5652,1.80857 2.9449,3.60808 l 2.4394,1.84464 1.0962,-0.59727 c 0.6028,-0.32849 4.6758,-3.22847 9.051,-6.4444 7.1355,-5.24481 10.6861,-7.55783 11.6016,-7.55783 0.3306,0 6.4297,4.51421 6.4297,4.75891 0,0.0792 -4.5344,3.29113 -10.0763,7.13762 -11.8029,8.192 -11.4366,7.68251 -7.8122,10.86449 1.2452,1.09325 2.4274,1.98772 2.6271,1.98772 0.1997,0 5.0936,-3.35177 10.8755,-7.44838 8.2407,-5.83879 10.6829,-7.40558 11.3014,-7.25034 0.8633,0.21668 5.5641,3.30206 6.8354,4.4865 0.7591,0.70716 0.766,0.76146 0.1514,1.18881 -0.3543,0.24629 -5.258,3.35177 -10.8971,6.90106 -5.6392,3.54929 -10.2865,6.48012 -10.3274,6.51295 -0.041,0.0328 0.018,0.41428 0.1317,0.84767 0.2615,1.00013 7.1376,5.85326 14.9799,10.57278 13.5175,8.13482 29.2735,15.48005 43.9823,20.50385 4.2911,1.46564 7.8683,2.72437 7.9493,2.79717 0.3097,0.27824 -0.4586,0.61581 -7.0989,3.11893 -20.0988,7.5764 -37.7428,16.39957 -56.7418,28.37472 -4.0084,2.52648 -6.487,4.30955 -6.602,4.74943 -0.1935,0.73998 -0.1879,0.74293 17.3508,9.17446 2.771,1.33212 5.0381,2.55763 5.0381,2.72336 0,0.16574 -2.7444,2.03335 -6.0988,4.15024 -19.3152,12.18967 -31.7568,24.72971 -46.4686,46.83616 -3.2999,4.95859 -7.6352,11.92017 -9.634,15.47019 -1.9988,3.55001 -3.7585,6.53136 -3.9103,6.62523 -0.1519,0.0939 -0.4296,-0.0265 -0.6171,-0.26739 z m 7.9939,-80.09845 c 11.0181,-10.56127 20.2855,-18.02815 32.572,-26.24393 5.8818,-3.93305 15.6223,-9.77416 20.61,-12.35927 3.7069,-1.92124 3.892,-2.47739 1.2184,-3.65979 -2.9524,-1.30567 -11.2865,-6.19964 -17.5774,-10.32174 -13.3339,-8.73712 -22.6115,-16.32623 -34.8739,-28.52691 -8.0509,-8.01039 -9.3197,-9.14005 -9.9104,-8.82389 -0.3726,0.19941 -2.0249,1.98206 -3.6718,3.96144 -3.4389,4.1332 -12.6734,12.72111 -20.1416,18.73126 -10.269,8.2641 -21.8233,15.96468 -32.8805,21.91377 -3.014,1.62165 -5.6756,3.09913 -5.9146,3.28329 -0.8134,0.62684 0.1874,1.57584 3.6047,3.41807 19.5775,10.55396 39.9428,25.65832 54.8075,40.64925 2.5251,2.54654 4.7322,4.63008 4.9046,4.63008 0.1725,0 3.4363,-2.99323 7.253,-6.65163 z m -50.1595,-20.50478 c 0,-0.75705 -8.3167,-6.90102 -20.1526,-14.8878 -4.3752,-2.95236 -8.0057,-5.51227 -8.0678,-5.68868 -0.062,-0.1764 1.9266,-1.34319 4.4194,-2.59285 16.2516,-8.14718 32.7207,-20.27133 45.9865,-33.85416 5.0969,-5.2188 6.2773,-6.71616 3.5355,-4.48515 -0.8264,0.67247 -3.8891,2.81491 -6.8059,4.76098 -20.7394,13.83702 -40.771,25.5334 -53.5633,31.27533 -6.0917,2.7343 -8.367,4.09812 -7.7936,4.67153 0.3636,0.36361 41.6723,21.32357 42.1766,21.40034 0.1459,0.0222 0.2652,-0.24759 0.2652,-0.59954 z"
       id="path211"
       transform="scale(0.26458333)" /></g></svg>
