<?xml version="1.0" encoding="UTF-8" standalone="no"?>
<!-- Created with Inkscape (http://www.inkscape.org/) -->

<svg
   width="63.41835mm"
   height="74.049248mm"
   viewBox="0 0 63.41835 74.049248"
   version="1.1"
   id="svg1"
   xml:space="preserve"
   xmlns="http://www.w3.org/2000/svg"
   xmlns:svg="http://www.w3.org/2000/svg"><defs
     id="defs1" /><g
     id="layer1"
     transform="translate(-792.07466,-37.583902)"><path
       style="fill:#000000"
       d="m 814.8432,111.57969 -0.47037,-0.005 -0.52917,-0.14896 -0.52917,-0.14896 -0.45324,-0.19243 -0.45324,-0.19243 -0.79005,-0.52522 -0.79004,-0.52522 -0.9435,-0.98277 -0.9435,-0.98277 -0.49082,-0.82618 -0.49083,-0.82618 -0.23361,-0.66468 -0.23362,-0.66468 -0.10979,-1.08837 -0.10979,-1.08836 -0.0831,-5.321063 -0.0831,-5.321069 -0.7176,-0.02255 -0.71761,-0.02255 -0.88194,0.03074 -0.88194,0.03073 -1.5875,0.231686 -1.5875,0.231685 -1.11713,0.06989 -1.11713,0.06989 -0.86403,-0.145934 -0.86402,-0.145933 -0.91717,-0.459054 -0.91716,-0.459053 -0.69541,-0.674914 -0.69541,-0.674913 -0.37146,-0.545179 -0.37146,-0.54518 -0.2381,-0.604066 -0.2381,-0.604066 -0.12547,-0.808616 -0.12546,-0.808617 0.13226,-0.965925 0.13225,-0.965924 0.423,-1.299699 0.423,-1.2997 0.92938,-1.828173 0.92937,-1.828173 0.16432,-0.709914 0.16432,-0.709915 0.17668,-1.469907 0.17667,-1.469908 0.237,-2.939814 0.237,-2.939815 0.17812,-3.527777 0.17812,-3.527778 0.12648,-1.646296 0.12648,-1.646296 0.28135,-1.528704 0.28135,-1.528703 0.34988,-1.176771 0.34989,-1.176772 0.52823,-1.26081 0.52824,-1.260811 0.65318,-1.109856 0.65319,-1.109856 0.6966,-0.92108 0.69661,-0.921081 1.15736,-1.129014 1.15736,-1.129015 0.97528,-0.719326 0.97527,-0.719326 1.16987,-0.662385 1.16986,-0.662384 1.44144,-0.586326 1.44143,-0.586327 1.46991,-0.406939 1.4699,-0.406939 1.6463,-0.278673 1.6463,-0.278673 1.76389,-0.150331 1.76388,-0.150332 2.82223,0.0094 2.82222,0.0094 1.5875,0.133321 1.5875,0.133321 1.79161,0.296896 1.79162,0.296897 1.47364,0.403881 1.47365,0.403881 1.20473,0.471028 1.20473,0.471028 1.05686,0.541387 1.05686,0.541387 1.11713,0.745981 1.11713,0.74598 0.88195,0.780506 0.88194,0.780507 0.79737,0.903339 0.79736,0.903339 0.63563,0.94274 0.63563,0.94274 0.5303,0.997537 0.5303,0.997538 0.48509,1.224565 0.48509,1.224565 0.39205,1.538861 0.39205,1.538861 0.18425,1.117129 0.18425,1.11713 0.17937,2.05787 0.17938,2.05787 0.35719,5.762037 0.35719,5.762036 0.17252,2.055711 0.17251,2.055711 1.01261,2.110416 1.0126,2.110415 0.48115,1.184336 0.48115,1.184336 0.0455,1.664734 0.0455,1.664734 -0.46329,0.981099 -0.46329,0.9811 -0.5589,0.73748 -0.55891,0.73748 -0.76467,0.545659 -0.76468,0.545659 -0.78156,0.29124 -0.78156,0.291239 -1.29352,0.05284 -1.29352,0.05284 -1.8968,-0.304305 -1.89681,-0.304304 h -1.65034 -1.65033 l -0.0661,0.852546 -0.0661,0.852546 -0.068,2.70463 -0.068,2.704627 -0.1105,2.341627 -0.1105,2.34162 -0.19091,0.77458 -0.19091,0.77458 -0.38312,0.83748 -0.38312,0.83748 -0.49864,0.73428 -0.49863,0.73427 -0.6738,0.67379 -0.67379,0.6738 -0.55463,0.38159 -0.55463,0.3816 -0.75417,0.34196 -0.75417,0.34195 -0.79658,0.13646 -0.79657,0.13645 -0.43752,-0.0822 -0.43751,-0.0822 -0.34329,-0.28887 -0.3433,-0.28886 -0.2064,-0.50021 -0.20641,-0.5002 -0.0981,-3.05741 -0.0981,-3.05741 -0.12048,-1.15468 -0.12049,-1.15468 -0.17935,-0.7856 -0.17935,-0.785587 -0.0848,-0.13356 -0.0848,-0.13357 -1.23472,0.11648 -1.23472,0.11647 -4.40973,-0.0574 -4.40972,-0.0574 -0.16378,-0.0431 -0.16379,-0.0431 -0.15946,0.587967 -0.15947,0.58796 -0.18632,1.05833 -0.18632,1.05833 -0.0827,3.52778 -0.0827,3.52778 -0.20979,0.43028 -0.20979,0.43028 -0.21907,0.19826 -0.21908,0.19826 -0.44876,0.16005 -0.44875,0.16005 z m -0.83184,-3.43057 0.0519,-0.20716 0.14991,-2.58851 0.0755,-2.75386 0.19085,-1.24339 0.19084,-1.2434 0.22989,-0.829563 0.22988,-0.82956 0.40379,-0.88605 0.40378,-0.88605 0.21713,-0.11433 0.21713,-0.114321 0.70556,-0.0774 0.70555,-0.0774 2.52824,0.181226 2.52824,0.181229 1.61122,2.9e-4 1.61122,2.9e-4 2.03415,-0.185781 2.03415,-0.185781 0.60545,0.07516 0.60545,0.07516 0.1889,0.208738 0.1889,0.20873 0.46156,1.22484 0.46156,1.22483 0.23775,1.175893 0.23774,1.1759 0.12277,1.64629 0.12276,1.6463 0.002,1.46991 0.002,1.4699 0.097,0.15296 0.13208,0.0828 0.8741,-0.53794 0.90918,-0.6081 0.45337,-0.57355 0.45336,-0.57355 0.22954,-0.6176 0.22953,-0.61761 0.13012,-0.82315 0.13011,-0.82315 0.11555,-1.82268 0.11555,-1.822693 0.12138,-3.586569 0.12137,-3.586574 0.03,-1.376507 0.03,-1.376507 0.11692,-0.114014 0.11692,-0.114015 1.88148,-0.193737 1.88149,-0.193738 1.35231,-0.003 1.35231,-0.003 1.52871,0.294867 1.5287,0.294866 0.65956,0.06855 0.65956,0.06855 0.68902,-0.127373 0.68903,-0.127374 0.43038,-0.219564 0.40868,-0.243335 0.50005,-0.519658 0.47834,-0.543429 0.19755,-0.594739 0.19754,-0.594739 -0.0611,-0.718832 -0.0611,-0.718831 -0.27376,-0.823148 -0.27377,-0.823148 -0.81637,-1.5875 -0.81638,-1.5875 -0.33884,-0.652646 -0.33883,-0.652647 -0.16715,-1.522816 -0.16716,-1.522817 -0.23693,-3.939351 -0.23693,-3.939352 -0.23914,-3.704166 -0.23913,-3.704166 -0.17986,-1.705093 -0.17987,-1.705092 -0.29495,-1.469908 -0.29496,-1.469907 -0.34922,-1.043613 -0.34922,-1.043613 -0.65536,-1.281229 -0.65537,-1.281229 -0.53465,-0.732565 -0.53465,-0.732565 -0.63386,-0.728033 -0.63386,-0.728032 -0.90748,-0.755662 -0.90747,-0.755663 -0.83773,-0.540887 -0.83772,-0.540886 -1.3224,-0.649012 -1.3224,-0.649011 -1.45956,-0.474845 -1.45955,-0.474845 -1.32463,-0.286393 -1.32463,-0.286393 -1.34689,-0.18893 -1.3469,-0.188929 -2.99861,-0.06605 -2.99861,-0.06605 -1.82268,0.138333 -1.82269,0.138333 -1.12158,0.167059 -1.12158,0.167058 -0.86351,0.181645 -0.86351,0.181646 -1.01352,0.292746 -1.01352,0.292747 -1.06224,0.410435 -1.06225,0.410436 -1.04842,0.539482 -1.04843,0.539482 -1.05578,0.723117 -1.05578,0.723116 -0.98477,0.932167 -0.98477,0.932167 -0.76141,1.010381 -0.76142,1.01038 -0.68836,1.352315 -0.68837,1.352314 -0.30775,0.9009 -0.30776,0.9009 -0.23377,0.984302 -0.23377,0.984302 -0.17297,1.524983 -0.17296,1.524983 -0.12399,1.822685 -0.12398,1.822685 -0.23692,4.174537 -0.23691,4.174537 -0.17907,1.999073 -0.17907,1.999074 -0.23201,1.66459 -0.23201,1.66459 -0.21758,0.628466 -0.21758,0.628465 -0.89086,1.768162 -0.89086,1.768161 -0.37089,1.107037 -0.37089,1.107038 0.0454,0.770171 0.0454,0.770171 0.28878,0.573472 0.28879,0.573472 0.51022,0.449117 0.51022,0.449117 0.60802,0.204966 0.60801,0.204965 0.99954,-0.01229 0.99954,-0.0123 1.5875,-0.322971 1.5875,-0.322971 1.5875,0.0124 1.5875,0.0124 1.63416,0.174641 1.63417,0.17464 0.0985,0.15539 0.0985,0.155391 0.004,1.411111 0.004,1.411111 0.17238,3.351388 0.17237,3.351392 0.004,1.940265 0.004,1.94028 0.10692,1.01592 0.10693,1.01592 0.29317,0.57158 0.29316,0.57158 0.68555,0.65919 0.68555,0.6592 0.57927,0.43143 0.57927,0.43144 z m 6.82906,-22.105955 -0.94074,0.03965 -0.3733,-0.169499 -0.3733,-0.1695 -0.20188,-0.308109 -0.20188,-0.308108 0.066,-0.847828 0.066,-0.847827 0.31656,-0.999537 0.31657,-0.999537 0.63939,-1.646296 0.63939,-1.646296 0.60718,-1.22433 0.60718,-1.224331 0.53791,-0.584992 0.5379,-0.584992 h 0.48414 0.48414 l 0.35094,0.249892 0.35094,0.249892 0.35817,0.559893 0.35817,0.559894 0.47634,0.999537 0.47633,0.999537 0.72008,1.999073 0.72008,1.999074 0.27873,0.764352 0.27873,0.764352 0.002,0.767585 0.002,0.767585 -0.18353,0.262022 -0.18352,0.262021 -0.3398,0.175718 -0.3398,0.175717 -0.682,-0.0014 -0.682,-0.0014 -0.58796,-0.157294 -0.58796,-0.157294 -0.5957,-0.302681 -0.59569,-0.302682 -0.93301,0.424241 -0.93301,0.42424 z m -11.04901,-5.382387 -0.71025,-0.0077 -0.61448,-0.165502 -0.61448,-0.165502 -0.7183,-0.3626 -0.71831,-0.362599 -0.53027,-0.488788 -0.53027,-0.488788 -0.33103,-0.65576 -0.33103,-0.65576 -0.14532,-0.738682 -0.14533,-0.738682 0.0683,-1.667272 0.0683,-1.667271 0.1945,-1.11713 0.1945,-1.11713 0.36467,-1.110826 0.36468,-1.110827 0.47726,-0.709139 0.47726,-0.709138 0.50273,-0.380188 0.50274,-0.380189 0.438,-0.121644 0.43801,-0.121644 0.78821,-6.56e-4 0.78822,-6.56e-4 2.26919,0.41384 2.26919,0.41384 1.05834,0.302016 1.05833,0.302017 0.84117,0.388366 0.84117,0.388366 0.52722,0.485976 0.52722,0.485977 0.26332,0.612084 0.26331,0.612085 -0.0684,0.816071 -0.0684,0.81607 -0.48176,1.004002 -0.48175,1.004001 -0.80238,1.12232 -0.80237,1.12232 -0.88676,1.012846 -0.88676,1.012845 -0.9799,0.786593 -0.9799,0.786594 -0.82315,0.403655 -0.82315,0.403654 -0.70086,0.178157 -0.70086,0.178156 z m 27.74716,-0.0069 -0.58797,-0.01115 -0.47037,-0.09441 -0.47037,-0.09441 -0.68247,-0.256291 -0.68246,-0.256291 -0.89567,-0.599058 -0.89567,-0.599058 -0.89582,-0.889437 -0.89583,-0.889437 -0.65068,-0.823148 -0.65068,-0.823148 -0.66512,-0.952459 -0.66512,-0.952458 -0.44357,-0.929023 -0.44357,-0.929023 v -0.881944 -0.881945 l 0.21884,-0.440242 0.21884,-0.440242 0.47065,-0.484979 0.47066,-0.484978 0.95793,-0.448903 0.95793,-0.448903 1.2803,-0.3595 1.28029,-0.3595 1.5408,-0.310769 1.54079,-0.310769 1.35232,-0.01348 1.35231,-0.01348 0.6634,0.325786 0.6634,0.325787 0.47577,0.516151 0.47578,0.516151 0.29978,0.591596 0.29978,0.591597 0.24017,0.875412 0.24017,0.875413 0.23121,1.571609 0.23122,1.571608 -10e-4,1.293519 -10e-4,1.293518 -0.17777,0.754165 -0.17777,0.754164 -0.31585,0.580317 -0.31584,0.580317 -0.56978,0.512277 -0.56977,0.512277 -0.63129,0.298647 -0.63129,0.298648 -0.74363,0.175309 -0.74363,0.17531 z"
       id="path208" /><path
       style="fill:#2ba64d;fill-opacity:1;stroke:#000000;stroke-width:0.675"
       d="m 3073.9213,407.12912 c -1.1433,-0.8783 -3.249,-2.72412 -4.6794,-4.10182 -2.2341,-2.15183 -2.7562,-2.81482 -3.7039,-4.7036 -1.0487,-2.08984 -1.1234,-2.38437 -1.5086,-5.9487 -0.2781,-2.57365 -0.4052,-6.02427 -0.4052,-11 0,-4.38322 -0.2463,-11.9456 -0.6229,-19.125 -0.3426,-6.53125 -0.6262,-14.6875 -0.6302,-18.125 -0.01,-5.59445 -0.054,-6.31046 -0.4507,-6.82639 -0.4088,-0.53126 -0.8734,-0.62518 -5.932,-1.1993 -3.8519,-0.43717 -7.4639,-0.66259 -12.1134,-0.75598 l -6.625,-0.13306 -6.2359,1.26986 c -5.88,1.19741 -6.4506,1.2696 -10,1.26516 -3.6178,-0.005 -3.8492,-0.0361 -5.9547,-0.8125 -1.6885,-0.62261 -2.5962,-1.15165 -3.9598,-2.30779 -1.524,-1.29208 -1.9344,-1.82921 -2.961,-3.875 -1.1471,-2.28587 -1.1979,-2.47937 -1.3552,-5.1559 l -0.1634,-2.7809 1.4765,-4.2315 c 1.0588,-3.03441 2.4076,-6.09266 4.7678,-10.81033 4.4575,-8.90985 4.7666,-9.85192 5.8725,-17.89637 1.2771,-9.29028 2.0078,-18.09818 3.1418,-37.875 2.0359,-35.50679 2.5884,-40.29649 5.7959,-50.25 1.8945,-5.87869 5.7677,-13.26108 9.6104,-18.31742 8.6313,-11.35713 21.9162,-19.87278 38.2151,-24.49592 7.8762,-2.23406 14.8851,-3.38741 25.5,-4.19618 6.6178,-0.50423 7.6167,-0.51817 18.2963,-0.25539 10.2313,0.25175 11.7751,0.34626 16.375,1.0025 11.8941,1.69688 22.0261,4.59425 30.5993,8.75023 11.121,5.39107 18.3374,11.28647 25.1865,20.57595 2.9098,3.94653 6.5869,11.27201 8.3759,16.68623 1.7788,5.38315 3.3624,13.32813 4.1608,20.875 0.6441,6.08761 1.5704,19.54531 3.3813,49.125 0.5513,9.00625 1.2647,18.74264 1.5852,21.63642 l 0.5828,5.26142 4.4104,8.5966 c 5.1045,9.9494 6.2551,12.9382 6.629,17.21855 0.2147,2.45751 0.1912,2.70013 -0.4653,4.81193 -0.6169,1.98457 -0.8836,2.44504 -2.4783,4.27845 -2.3142,2.66056 -4.1323,3.67148 -7.7445,4.30597 -3.2651,0.57353 -4.8798,0.43363 -13.0614,-1.13166 -6.0833,-1.16386 -6.6357,-1.22798 -10.625,-1.23343 -5.1874,-0.007 -19.7169,1.36685 -20.364,1.92568 -0.3443,0.2973 -0.4322,1.27069 -0.5779,6.40283 -0.4241,14.93253 -1.1641,34.29131 -1.5119,39.55224 -0.49,7.4119 -0.9281,10.35676 -2.0515,13.78935 -0.8124,2.48234 -1.1113,3.04203 -2.7154,5.08506 -1.6079,2.04794 -2.1612,2.53471 -5.1268,4.51021 -3.0155,2.0088 -3.3543,2.1751 -3.6469,1.78995 -0.2402,-0.316 -0.3252,-1.8309 -0.3326,-5.92457 -0.01,-3.03045 -0.2336,-8.44273 -0.5081,-12.05383 -0.6664,-8.76432 -1.5951,-13.31452 -4.0456,-19.82117 -2.2211,-5.89754 -2.364,-6.06406 -5.5221,-6.43339 -1.9999,-0.23389 -3.3318,-0.17355 -10.0552,0.4555 -10.2795,0.96176 -16.2514,0.96331 -29.375,0.008 -8.5676,-0.62392 -9.9134,-0.66764 -12.25,-0.39792 -4.0245,0.46455 -4.1018,0.52423 -5.9236,4.57486 -2.0023,4.45173 -3.1052,8.48747 -4.0426,14.79334 -0.6844,4.60326 -0.779,5.97759 -0.9288,13.5 -0.1959,9.84087 -0.3246,11.59725 -0.855,11.6727 -0.2063,0.0293 -1.3104,-0.66528 -2.4537,-1.54358 z m 35.5406,-83.53172 3.4619,-1.57789 2.175,1.09232 c 3.1909,1.6026 6.3008,2.38777 9.4582,2.38799 2.2525,1.6e-4 2.716,-0.0778 3.8928,-0.65498 0.9321,-0.45715 1.5382,-0.97509 2.0055,-1.71372 0.6301,-0.9959 0.6697,-1.23577 0.6697,-4.0527 v -2.99414 l -3.8378,-10.60464 c -5.3866,-14.8841 -8.4534,-21.06559 -11.4537,-23.08607 -1.2303,-0.82857 -1.4635,-0.89341 -3.2052,-0.89136 l -1.8783,0.002 -2.0944,2.3103 c -1.9393,2.13916 -2.2691,2.67139 -4.453,7.18529 -2.5176,5.20366 -6.6175,15.53179 -8.2867,20.875 -0.8119,2.59912 -1.0715,3.91488 -1.2963,6.56995 l -0.2811,3.31994 0.7057,1.1468 c 0.5454,0.8861 1.0461,1.31023 2.2029,1.86573 l 1.4971,0.71894 3.6279,-0.16054 3.6279,-0.16053 z M 3066.25,304.28301 c 4.3631,-1.12021 7.9073,-3.04477 12.625,-6.85565 3.15,-2.54455 4.4927,-3.84784 7.1769,-6.96626 4.9128,-5.70766 8.7336,-11.20427 10.8829,-15.65651 1.7723,-3.67103 1.7771,-3.68686 2.0854,-6.80459 l 0.309,-3.125 -1.0268,-2.5 c -0.9707,-2.36325 -1.1378,-2.60072 -3.0536,-4.3412 -4.0799,-3.70647 -10.6193,-5.9761 -24.5481,-8.51997 C 3063.085,248.12295 3062.1239,248 3058.867,248 c -4.7157,0 -5.9717,0.33147 -8.4742,2.23645 -1.576,1.1997 -2.226,1.93179 -3.7156,4.18455 -1.5754,2.38263 -1.9766,3.24199 -3.1494,6.74597 -1.9292,5.76353 -2.7898,11.00329 -3.148,19.16577 -0.2621,5.97163 -0.2516,6.31394 0.2756,9 0.4317,2.19943 0.8264,3.34958 1.8592,5.41726 1.1574,2.31702 1.5432,2.83459 3.2884,4.4114 2.363,2.13514 6.0022,4.081 9.572,5.11811 3.405,0.98923 7.0311,0.9904 10.875,0.003 z m 104.2903,0.0899 c 4.0764,-0.94341 7.1885,-2.50169 9.8898,-4.95195 2.8831,-2.6152 4.148,-4.87494 5.2054,-9.29938 0.6772,-2.83356 0.7395,-3.47317 0.7395,-7.58917 0,-3.85318 -0.1275,-5.36296 -0.8933,-10.57611 -1.568,-10.67475 -3.2239,-15.44293 -6.7001,-19.29276 -1.5707,-1.73943 -2.0887,-2.12538 -4.4058,-3.28264 l -2.6258,-1.31145 -5.25,0.1075 c -4.9858,0.10209 -5.5371,0.16413 -10.9542,1.23273 -8.2168,1.62085 -14.5253,3.44654 -18.9478,5.48348 -3.2366,1.49073 -3.7813,1.83669 -5.4227,3.44451 -1.3703,1.34227 -2.0396,2.24424 -2.6875,3.62213 -0.8511,1.80994 -0.8628,1.88069 -0.8628,5.22499 v 3.3902 l 1.6785,3.52501 c 2.7731,5.82387 8.3878,13.45819 14.4281,19.61799 3.2496,3.31395 4.2674,4.17539 7.3934,6.25781 6.892,4.59122 12.7976,5.92868 19.4153,4.39711 z"
       id="path209"
       transform="scale(0.26458333)" /></g></svg>
