<?xml version="1.0" encoding="UTF-8" standalone="no"?>
<!-- Created with Inkscape (http://www.inkscape.org/) -->

<svg
   width="76.200577mm"
   height="59.390747mm"
   viewBox="0 0 76.200577 59.390747"
   version="1.1"
   id="svg1"
   xml:space="preserve"
   xmlns="http://www.w3.org/2000/svg"
   xmlns:svg="http://www.w3.org/2000/svg"><defs
     id="defs1" /><g
     id="layer1"
     transform="translate(-612.09079,-80.659492)"><path
       style="fill:#000000"
       d="m 650.0791,140.0479 -0.18226,-0.002 -0.83294,-0.63367 -0.83295,-0.63366 -0.46057,-0.52522 -0.46057,-0.52521 -0.75518,-1.27899 -0.75518,-1.27898 -0.28599,-0.37992 -0.28599,-0.37992 -3.72133,-2.54772 -3.72133,-2.54772 -2.92314,-2.06644 -2.92313,-2.06644 -0.1,-0.26297 -0.1,-0.26297 -0.12095,-1.17861 -0.12095,-1.17861 0.0756,-0.72311 0.0756,-0.72311 0.67939,-0.76535 0.67938,-0.76535 0.36594,-0.68656 0.36593,-0.68656 0.22475,-0.65325 0.22475,-0.65324 0.13048,-0.95299 0.13049,-0.95298 -0.0998,-0.0998 -0.0998,-0.0998 -0.7231,0.34197 -0.7231,0.34197 -1.38972,0.94222 -1.38971,0.94222 -0.82315,0.38495 -0.82315,0.38494 -0.82315,0.005 -0.82315,0.005 -0.79266,-0.37549 -0.79266,-0.37549 -0.57928,-0.57928 -0.57929,-0.57928 -0.31625,-0.6241 -0.31626,-0.62411 -0.16292,-0.54861 -0.16292,-0.54861 -0.11285,-1.09081 -0.11286,-1.09081 -0.0351,-0.0308 -0.0351,-0.0308 -0.64675,-0.3245 -0.64676,-0.32451 -0.66394,-0.51026 -0.66393,-0.51025 -0.49459,-0.5611 -0.49459,-0.5611 -0.57323,-0.87234 -0.57323,-0.87233 -0.34627,-0.83276 -0.34627,-0.83276 -0.0798,-0.31942 -0.0798,-0.31942 1.31601,-0.0334 1.31601,-0.0334 -0.94528,-0.74416 -0.94528,-0.74417 -0.83277,-0.87669 -0.83277,-0.87669 -0.69717,-0.94027 -0.69717,-0.940266 -0.67151,-1.08424 -0.67151,-1.084246 -0.68577,-1.304189 -0.68577,-1.30419 v -0.212325 -0.211355 l 0.79375,0.07722 0.79375,0.07722 1.67228,0.197222 1.67227,0.197223 0.0738,-0.07379 0.0738,-0.07379 -0.76789,-1.07342 -0.76789,-1.073421 -0.37284,-0.895609 -0.37284,-0.895609 -0.29114,-1.125805 -0.29113,-1.125805 -0.0651,-1.705092 -0.0651,-1.705093 0.13899,-1.058333 0.13899,-1.058334 0.23909,-1.028935 0.23908,-1.028935 h 0.0814 0.0814 l 1.25118,1.440509 1.25118,1.44051 2.27362,2.238497 2.27362,2.238496 1.46991,1.242802 1.46991,1.242802 1.72959,1.306772 1.72959,1.306772 1.32781,0.872578 1.32782,0.872579 1.11713,0.646535 1.11713,0.646535 0.31012,0.310173 0.31012,0.310173 0.13085,0.519669 0.13086,0.519669 0.002,0.447692 0.002,0.4477 0.0888,0.13958 0.0888,0.13958 1.19269,-0.68611 1.19268,-0.686102 2.97949,-1.640572 2.9795,-1.640573 2.88102,-1.506966 2.88102,-1.506966 0.69651,-0.38298 0.69651,-0.38298 1.42016,0.710844 1.42015,0.710845 3.46898,1.855601 3.46898,1.855601 2.93982,1.648155 2.93981,1.648153 0.0724,-0.13755 0.0724,-0.13756 0.0684,-0.77458 0.0684,-0.774573 0.14132,-0.310155 0.14132,-0.310155 0.80388,-0.477576 0.80387,-0.477576 1.79505,-1.188277 1.79505,-1.188277 1.35231,-1.002626 1.35232,-1.002627 1.17593,-0.948818 1.17592,-0.948817 1.5287,-1.364517 1.52871,-1.364518 1.72136,-1.774814 1.72136,-1.774815 1.03562,-1.245826 1.03563,-1.245827 0.101,0.180492 0.10101,0.180491 0.29587,1.263177 0.29586,1.263177 0.0639,1.940278 0.0639,1.940278 -0.19406,1.112531 -0.19406,1.112532 -0.35553,1.062931 -0.35552,1.062932 -0.40447,0.724506 -0.40447,0.724506 -0.52047,0.686605 -0.52047,0.686605 0.0794,0.02828 0.0794,0.02828 2.55764,-0.208364 2.55764,-0.208364 v 0.01707 0.01707 l -1.09167,1.985697 -1.09166,1.9857 -0.45273,0.70555 -0.45272,0.70556 -0.80117,1.068368 -0.80117,1.06838 -1.04883,0.9981 -1.04884,0.99811 -0.54475,0.34417 -0.54475,0.34416 -2.1e-4,0.0596 -2.1e-4,0.0596 1.35232,-0.0429 1.35231,-0.0429 v 0.0797 0.0797 l -0.36961,0.90317 -0.36962,0.90317 -0.54173,0.94074 -0.54172,0.94074 -1.05834,1.0641 -1.05833,1.0641 -0.91084,0.46461 -0.91084,0.46461 -0.003,0.70555 -0.003,0.70556 -0.1722,0.81285 -0.1722,0.81285 -0.35014,0.74822 -0.35013,0.74822 -0.5933,0.5779 -0.59331,0.57789 -0.79072,0.38928 -0.79073,0.38927 -0.94321,-0.002 -0.94322,-0.002 -0.77626,-0.36576 -0.77627,-0.36576 -1.22281,-0.81777 -1.2228,-0.81777 -0.52917,-0.30755 -0.52917,-0.30754 -0.45866,-0.19153 -0.45866,-0.19154 0.0756,0.72369 0.0756,0.72369 0.18507,0.72579 0.18507,0.72579 0.40505,0.82684 0.40504,0.82683 0.75164,0.85412 0.75164,0.85412 0.071,0.78849 0.071,0.78849 -0.0963,1.23516 -0.0963,1.23517 -0.11618,0.20761 -0.11619,0.20762 -1.52276,1.12584 -1.52276,1.12584 -4.64491,3.08907 -4.6449,3.08906 -0.6079,0.48178 -0.60789,0.48178 -0.90968,1.53047 -0.90967,1.53046 -0.59304,0.66538 -0.59304,0.66538 -0.70575,0.51353 -0.70574,0.51353 z m -0.0456,-2.82004 h 0.3965 l 0.5372,-0.55856 0.5372,-0.55857 1.10196,-1.65888 1.10196,-1.65889 1.35747,-1.26605 1.35747,-1.26606 v -8.68733 l -0.11576,-8.65425 -1.6e-4,-0.0331 h -0.11593 l -3.07472,1.36522 -3.07472,1.36522 -0.98566,-0.42809 -0.98566,-0.42809 -2.10043,-0.99593 -2.10042,-0.99593 h -0.0733 -0.0733 v 8.81087 8.81087 l 1.25102,1.09527 1.25102,1.09526 1.12347,1.70614 1.12347,1.70613 0.58238,0.61736 0.59116,0.59105 z m -8.04398,-7.65037 0.0889,0.007 -0.0301,-8.77147 -0.0301,-8.77148 -2.76343,-1.29514 -2.76342,-1.29514 -0.11759,-0.0914 -0.1176,-0.0914 -1.11713,-0.56156 -1.11713,-0.56155 -0.72216,-0.56925 -0.72217,-0.56924 -0.19289,-0.4821 -0.1929,-0.48209 -4e-5,-2.13439 -3e-5,-2.13439 0.0689,-1.822686 0.0689,-1.82269 -2.38756,-1.558537 -2.38756,-1.558543 -1.39522,-1.04808 -1.39523,-1.048081 -1.48579,-1.235744 -1.4858,-1.235743 -1.71768,-1.625689 -1.71768,-1.62569 -0.98695,-1.061111 -0.94018,-0.920795 -0.14177,0.274036 -0.095,0.414352 0.12685,1.324497 0.12684,1.324497 0.30184,0.968559 0.30183,0.968558 0.41258,0.764352 0.41258,0.764352 0.48171,0.646759 0.4817,0.646759 0.71235,0.748309 0.71234,0.748308 1.05833,0.909903 1.05834,0.909903 1.76389,1.319849 1.76388,1.31985 -0.35277,-0.0834 -0.35278,-0.0834 -0.69971,-0.27954 -0.69971,-0.27954 -1.2048,-0.713066 -1.2048,-0.713061 -1.38808,-0.100539 -1.38809,-0.100539 -1.45257,-0.192143 -1.32395,-0.110292 -0.13435,0.0408 -0.0759,0.134338 0.51689,0.803783 0.56366,0.932409 0.59114,0.80424 0.59114,0.804246 1.2448,1.23472 1.2448,1.23472 1.0171,0.673 1.0171,0.67299 1.39264,0.69145 1.39264,0.69144 0.88194,0.3325 0.88195,0.3325 0.11759,0.11109 0.11759,0.11109 -0.88194,-0.0662 -0.88195,-0.0662 -0.56789,-0.19792 -0.56789,-0.19793 -0.43165,0.0681 -0.43164,0.0681 -0.87399,0.24015 -0.87399,0.24014 h -0.87308 l -0.74446,0.0935 -0.06,0.0852 0.0686,0.17873 0.46352,0.68257 0.46353,0.68257 0.44241,0.38845 0.44242,0.38844 0.63184,0.40419 0.63185,0.40419 0.78746,0.30333 0.78746,0.30334 1.14604,0.0124 1.14605,0.0124 -0.0361,0.11759 -0.0361,0.1176 -0.56609,0.38314 -0.56609,0.38314 -0.45563,0.0729 -0.45563,0.0729 0.002,0.24955 0.002,0.24956 0.11733,0.82315 0.11733,0.82314 0.18499,0.56222 0.18498,0.56221 0.29811,0.35429 0.29811,0.35428 0.47444,0.24204 0.47444,0.24205 0.46123,-0.0738 0.46122,-0.0738 0.60764,-0.30498 0.60765,-0.30497 1.9875,-1.29996 1.9875,-1.29995 0.65833,-0.27082 0.65833,-0.27081 0.20993,-0.003 0.20992,-0.003 0.31925,0.20112 0.31924,0.20112 0.69329,0.52449 0.69328,0.5245 -0.0748,1.42045 -0.0748,1.42045 -0.12095,0.76436 -0.12096,0.76435 -0.067,0.32826 -0.067,0.32826 -0.43056,0.51332 -0.43055,0.51333 -0.66689,1.04772 -0.66689,1.04773 0.0974,1.48771 0.12427,1.47738 0.30744,0.30089 0.33431,0.29055 1.70509,1.07613 1.70509,1.07612 1.7051,1.15848 1.70509,1.15848 z m 16.04114,0.007 h 0.0787 l 3.42114,-2.22704 3.42114,-2.22704 0.42963,-0.38939 0.42964,-0.3894 0.0735,-1.48328 0.0735,-1.48327 -0.57618,-0.69219 -0.57618,-0.69218 -0.20899,-0.41158 -0.209,-0.41157 -0.37947,-0.42351 -0.37947,-0.42351 -0.13215,-0.92881 -0.13215,-0.9288 -0.13006,-1.36899 -0.13007,-1.36898 0.12841,-0.23993 0.12841,-0.23993 0.4999,-0.39987 0.4999,-0.39987 0.44048,-0.26416 0.44047,-0.26415 0.44147,0.14318 0.44147,0.14319 0.90739,0.45338 0.90738,0.45338 1.62086,1.09098 1.63547,1.03251 0.67201,0.32048 0.68662,0.26202 h 0.2882 0.2882 l 0.43629,-0.22374 0.43629,-0.22374 0.25884,-0.27749 0.25884,-0.2775 0.23189,-0.5277 0.23189,-0.5277 0.12663,-0.91985 0.12663,-0.91985 v -0.23037 l -0.0992,-0.15699 -0.10657,-0.14388 -0.20579,-0.0705 -0.66994,-0.29182 -0.66994,-0.29182 -0.20083,-0.22192 -0.20083,-0.22191 h 0.72997 0.72996 l 0.84636,-0.18931 0.84637,-0.1893 0.81463,-0.4242 0.81463,-0.4242 0.70497,-0.65063 0.70498,-0.65061 0.52148,-0.70556 0.52149,-0.70555 -1.20197,-0.0808 -1.20197,-0.0808 -0.79858,-0.24256 -0.79858,-0.24256 h -0.34914 -0.34913 l -0.50207,0.17714 -0.50207,0.17714 -0.83563,0.0731 -0.83564,0.0731 0.1176,-0.11433 0.11759,-0.11434 0.76435,-0.27064 0.76435,-0.27065 1.43271,-0.67656 1.4327,-0.67656 1.09554,-0.74366 1.09553,-0.74366 1.42437,-1.41421 1.33375,-1.425899 0.79523,-1.046637 0.70462,-1.058336 0.25226,-0.495084 0.25227,-0.495083 -0.0496,-0.03041 -0.0331,-0.05521 -0.29949,-0.03924 -0.38218,0.0021 -1.05833,0.178216 -1.05833,0.178216 -1.44715,0.09854 -1.44714,0.09854 -0.49313,0.352892 -0.49314,0.352892 -0.9547,0.478973 -0.95469,0.47898 -0.73376,0.24718 -0.73375,0.24719 -0.10627,-0.0354 -0.10627,-0.0354 0.91278,-0.60957 0.91277,-0.60958 1.41111,-1.093037 1.41111,-1.093041 1.42789,-1.413111 1.40309,-1.421378 0.57912,-0.854841 0.55431,-0.863108 0.29143,-0.717214 0.29143,-0.717213 0.22398,-1.006715 0.22397,-1.006716 0.079,-1.397824 0.079,-1.397825 -0.11909,0.04551 -0.11908,0.04551 -1.23309,1.352315 -1.23309,1.352314 -1.75357,1.60575 -1.75357,1.605749 -1.17593,0.972472 -1.17592,0.972473 -1.38079,1.031739 -1.38078,1.031739 -2.41158,1.614551 -2.41157,1.614551 0.004,1.24308 0.004,1.24308 0.10909,1.82269 0.10909,1.82268 -0.0726,0.98447 -0.0726,0.98448 -0.36373,0.53917 -0.36372,0.53917 -0.76436,0.51329 -0.76435,0.51329 -2.93981,1.44125 -2.93982,1.44126 -0.90731,0.40236 -0.90731,0.40237 -0.004,8.73125 -0.004,8.73125 z m -8.03527,-15.06306 0.0985,0.0112 4.25241,-2.06129 4.25242,-2.06128 2.08538,-1.11346 2.08538,-1.11348 1.29051,-0.76603 1.29052,-0.76604 0.28731,-0.38074 0.28731,-0.38074 0.19487,-0.47037 0.19487,-0.47037 0.21126,-1.38172 0.16784,-1.30316 -0.0547,-0.0302 -0.0443,-0.001 -0.29398,0.38678 -0.29398,0.43227 -0.70556,0.71474 -0.70555,0.71475 -0.72761,0.5585 -0.72761,0.5585 -0.91929,0.57016 -0.91928,0.57016 -2.70403,1.47084 -2.70403,1.47086 -2.71357,1.41938 -2.71357,1.41938 -0.28653,0.0719 -0.28653,0.0719 -1.40962,-0.72686 -1.40963,-0.72686 -3.23379,-1.70388 -3.2338,-1.70389 -1.05833,-0.59524 -1.05834,-0.59524 -1.16905,-0.77145 -1.16905,-0.77144 -0.98273,-0.93023 -0.98273,-0.93024 -0.31766,-0.54035 -0.24751,-0.22465 -0.10566,0.30081 -0.0355,0.61651 0.12373,0.67701 0.12374,0.677 0.35707,0.72876 0.35707,0.72877 0.55424,0.48872 0.55425,0.48872 0.99953,0.59175 0.99954,0.59174 1.52871,0.82351 1.5287,0.8235 4.64491,2.26555 4.6449,2.26555 z m 0.0734,-4.81257 0.29679,-0.0448 2.9958,-1.52788 3.00311,-1.57464 2.23426,-1.26059 2.23426,-1.26059 1.20231,-0.78075 1.20232,-0.78074 0.0695,-0.47037 0.0694,-0.47037 -0.0371,-0.74619 -0.037,-0.74619 -6.57767,-3.538609 -6.57767,-3.538615 -1.7714,0.902318 -1.77141,0.902317 -4.87332,2.636236 -4.67453,2.601153 -0.28128,0.2582 -0.0825,0.22313 0.0985,0.97703 0.0985,0.97703 0.0361,0.0277 0.0361,0.0277 0.70555,0.4697 0.70556,0.4697 1.03471,0.60812 1.03471,0.60811 3.02223,1.66605 3.02224,1.66605 1.6463,0.85844 1.67552,0.81312 z"
       id="path119" /><path
       style="fill:#fdcd22;fill-opacity:1;stroke:#000000;stroke-width:0.954594"
       d="m 2449.5947,411.1314 c -12.9424,-6.73938 -34.9225,-19.08285 -39.8112,-22.3569 l -2.4385,-1.63313 -0.3948,-3.62413 c -0.2908,-2.66884 -0.2908,-3.84947 0,-4.47904 0.2926,-0.63368 5.1068,-3.40743 18.6028,-10.71826 10.0144,-5.42483 21.2225,-11.38079 24.9068,-13.23545 l 6.6987,-3.37211 1.433,0.6973 c 2.3146,1.1263 47.7227,25.57676 48.0148,25.85402 0.422,0.40066 0.389,7.62961 -0.039,8.42842 -0.948,1.77129 -17.0088,11.18409 -36.9159,21.63543 -8.3086,4.36209 -11.8279,6.03545 -12.6845,6.03134 -0.798,-0.004 -3.2079,-1.05876 -7.3727,-3.22749 z"
       id="path120"
       transform="scale(0.26458333)" /><path
       style="fill:#fdcd22;fill-opacity:1;stroke:#000000;stroke-width:0.954594"
       d="m 2437.5738,423.41789 c -24.408,-11.97603 -33.9694,-17.22872 -37.8792,-20.80952 -2.0132,-1.84378 -4.0059,-5.6901 -4.7291,-9.12798 -0.5792,-2.75329 -0.6923,-5.84087 -0.2246,-6.12994 0.1654,-0.10218 0.6825,0.48641 1.1491,1.30799 0.4666,0.82158 2.519,3.10192 4.5607,5.06742 6.1398,5.9104 11.7988,9.32226 39.7748,23.98026 13.6095,7.13069 16.0633,8.30392 16.9706,8.11415 2.0026,-0.41887 39.423,-20.33981 46.1491,-24.56772 6.1235,-3.84916 12.8235,-9.7843 15.3242,-13.57494 1.1289,-1.71117 1.1394,-1.49966 0.2151,4.33056 -1.2978,8.18615 -2.2544,9.66332 -8.7897,13.57195 -7.9661,4.76436 -19.2696,10.66513 -36.2156,18.90569 -8.9085,4.33206 -16.4657,7.95217 -16.7938,8.0447 -0.3337,0.0941 -8.9302,-3.92078 -19.5116,-9.11262 z"
       id="path121"
       transform="scale(0.26458333)" /><path
       style="fill:#fdcd22;fill-opacity:1;stroke:#000000;stroke-width:0.954594"
       d="m 2420.4265,485.59493 c -3.3057,-2.25436 -9.3515,-6.22332 -13.435,-8.81989 -4.0836,-2.59658 -7.7805,-5.10061 -8.2155,-5.56452 -0.7027,-0.74946 -0.8347,-1.444 -1.184,-6.23107 l -0.3932,-5.3876 2.3738,-3.78692 c 1.3056,-2.08281 2.9647,-4.50287 3.6869,-5.37791 0.7223,-0.87505 1.5628,-1.98874 1.8678,-2.47488 0.803,-1.27986 1.6643,-6.98839 2.0671,-13.7001 0.3257,-5.4276 0.3059,-5.87232 -0.2798,-6.30567 -5.1244,-3.79106 -7.1265,-5.08334 -7.8848,-5.0894 -1.8263,-0.0146 -6.3601,2.34093 -13.5875,7.05932 -11.6537,7.60814 -13.9415,8.53237 -17.1258,6.91873 -3.2736,-1.65883 -4.9151,-4.79482 -5.8849,-11.2428 -0.7018,-4.66563 -0.7695,-4.39334 1.1612,-4.6738 2.4115,-0.35032 6.4523,-3.03362 6.4523,-4.28467 0,-0.0813 -1.8955,-0.14786 -4.2123,-0.14786 -3.9459,0 -4.4136,-0.0768 -7.3964,-1.2151 -5.5324,-2.11126 -10.0315,-5.48558 -12.8161,-9.6122 -2.6179,-3.87958 -2.6721,-3.66839 0.9416,-3.66839 2.0595,0 3.9816,-0.2449 5.6945,-0.72554 1.4222,-0.39906 3.6316,-0.94438 4.9099,-1.21183 2.1999,-0.46028 2.4409,-0.44297 4.5079,0.32354 1.4487,0.53725 3.3689,0.88409 5.7049,1.03044 3.4499,0.21615 3.5071,0.20722 2.8284,-0.44201 -0.381,-0.36444 -2.2412,-1.23502 -4.1339,-1.9346 -5.0617,-1.87096 -12.891,-5.90708 -17.5621,-9.05358 -3.1288,-2.10754 -5.2336,-3.92059 -8.8925,-7.65973 -5.1199,-5.23223 -7.2135,-7.88488 -10.5995,-13.42962 -2.1038,-3.44515 -2.1198,-3.49126 -1.2517,-3.60016 0.4836,-0.0607 2.756,0.15103 5.0497,0.47044 2.2937,0.31941 6.7411,0.77768 9.8831,1.01838 l 5.7127,0.43762 4.6217,2.71673 c 4.5872,2.69641 8.6695,4.54749 11.3642,5.15294 0.7718,0.17343 1.3971,0.2129 1.3894,0.0877 -0.01,-0.12517 -2.908,-2.37542 -6.4453,-5.00055 -21.3263,-15.82665 -28.2189,-25.22222 -29.7584,-40.56439 -0.3585,-3.57237 -0.4,-5.38775 -0.1446,-6.31294 0.3009,-1.08978 0.4334,-1.2201 0.8241,-0.81034 0.256,0.26856 1.9531,2.08938 3.7713,4.04626 12.4443,13.39355 30.042,27.8861 47.6257,39.22199 l 8.2263,5.3033 -0.1998,1.23744 c -0.1099,0.68059 -0.3043,7.30571 -0.432,14.72249 l -0.2321,13.48506 0.8218,2.02479 c 0.6904,1.70118 1.2448,2.36098 3.4688,4.12829 1.4559,1.15693 4.572,3.06518 6.9246,4.24057 2.3527,1.17538 4.4968,2.31802 4.7647,2.53919 0.2679,0.22117 5.1204,2.57079 10.7834,5.22136 l 10.2963,4.81923 0.2594,17.45464 c 0.1427,9.60004 0.2222,24.49979 0.1768,33.11054 l -0.083,15.6559 z"
       id="path122"
       transform="scale(0.26458333)" /><path
       style="fill:#fdcd22;fill-opacity:1;stroke:#000000;stroke-width:0.954594"
       d="m 2453.4148,516.27634 c -1.4412,-1.46479 -4.0587,-4.9809 -6.7775,-9.104 -4.3995,-6.67222 -4.4603,-6.74374 -9.0187,-10.6066 l -4.5892,-3.88909 -0.026,-33.14563 c -0.014,-18.2301 0.062,-33.14563 0.1684,-33.14563 0.1069,0 4.2037,1.89129 9.104,4.20286 9.8214,4.63293 13.8584,6.40374 14.5988,6.40374 0.2686,0 5.542,-2.2459 11.7186,-4.99089 6.1766,-2.74498 11.429,-5.06894 11.6721,-5.16435 0.3516,-0.13801 0.4416,6.53511 0.4401,32.65644 v 32.8299 l -4.9944,4.5962 c -4.7286,4.35145 -5.2201,4.93507 -9.2314,10.96015 -2.3303,3.50018 -5.2083,7.35833 -6.3956,8.57367 -2.9452,3.0149 -3.5427,2.99906 -6.6674,-0.17677 z"
       id="path123"
       transform="scale(0.26458333)" /><path
       style="fill:#fdcd22;fill-opacity:1;stroke:#000000;stroke-width:0.954594"
       d="m 2487.0713,456.76641 v -32.89624 l 2.5633,-1.12319 c 6.9251,-3.03449 26.9324,-13.06492 29.3601,-14.71938 1.9484,-1.32773 3.1633,-2.47918 4.1518,-3.93488 1.3392,-1.97205 1.4093,-2.21682 1.6798,-5.8679 0.1761,-2.37574 0.1174,-6.47678 -0.1558,-10.89408 -0.241,-3.89624 -0.4429,-9.07281 -0.4486,-11.50349 l -0.01,-4.41941 8.0094,-5.30331 c 8.9951,-5.95593 18.4856,-12.8734 24.7332,-18.02756 7.3263,-6.04403 17.8928,-15.92137 22.9125,-21.41818 2.6731,-2.92711 4.9101,-5.27211 4.9711,-5.21111 0.061,0.061 -0.034,2.43088 -0.2116,5.2664 -0.5642,9.01869 -2.3481,15.08215 -6.2199,21.14112 -3.9617,6.19953 -16.3236,17.41599 -27.2985,24.76906 -2.2188,1.48658 -3.1681,2.31262 -2.8696,2.49707 1.0594,0.65474 11.1926,-3.72949 15.5544,-6.72975 1.9405,-1.33473 1.9542,-1.33803 6.5407,-1.56866 2.5279,-0.12711 6.5487,-0.53962 8.9349,-0.91669 4.2059,-0.66458 7.5054,-0.88309 7.5054,-0.49705 0,0.57513 -2.2064,4.37233 -4.6102,7.93407 -3.6547,5.41541 -11.4828,13.19833 -17.1977,17.09843 -3.9289,2.68134 -13.7686,7.60222 -17.7901,8.89695 -2.4467,0.78773 -3.8891,1.51058 -3.8891,1.94904 0,0.52265 5.1474,0.0371 7.8331,-0.73892 3.0158,-0.87139 4.868,-0.85478 7.7233,0.0693 1.3971,0.45216 4.2119,0.90157 7.18,1.14634 l 4.8819,0.40262 -1.8939,2.5302 c -2.9756,3.9754 -6.668,7.20291 -10.3448,9.04233 -3.7904,1.89627 -8.6373,3.09994 -12.4827,3.09994 h -2.7065 l 1.0538,1.03567 c 0.5797,0.56963 2.4062,1.59047 4.0591,2.26856 3.5158,1.44234 3.4961,1.39773 2.8298,6.41848 -0.7116,5.36173 -2.4673,8.46551 -5.7167,10.10578 -1.1235,0.56713 -2.3613,1.03116 -2.7507,1.03116 -1.7914,0 -6.4292,-2.37876 -12.3476,-6.33324 -6.4029,-4.27814 -11.0931,-6.8626 -14.4538,-7.96442 -1.8283,-0.59945 -1.8767,-0.59668 -3.1819,0.18209 -2.8311,1.68915 -6.0761,4.36939 -6.4848,5.35609 -0.4667,1.12661 -0.1038,6.50546 0.9727,14.41633 0.5283,3.88263 0.6126,4.1296 1.872,5.48008 0.7253,0.77782 1.7635,2.20971 2.3071,3.18198 0.5436,0.97227 1.9315,2.92043 3.0842,4.32924 l 2.0959,2.56147 -0.2515,5.4987 -0.2515,5.49871 -1.8044,1.53791 c -1.4597,1.24405 -15.3206,10.4756 -25.4042,16.91948 l -2.0329,1.29914 z"
       id="path124"
       transform="scale(0.26458333)" /></g></svg>
