<?xml version="1.0" encoding="UTF-8" standalone="no"?>
<!-- Created with Inkscape (http://www.inkscape.org/) -->

<svg
   width="62.555546mm"
   height="71.990631mm"
   viewBox="0 0 62.555546 71.990631"
   version="1.1"
   id="svg1"
   xml:space="preserve"
   xmlns="http://www.w3.org/2000/svg"
   xmlns:svg="http://www.w3.org/2000/svg"><defs
     id="defs1" /><g
     id="layer1"
     transform="translate(-647.58238,-91.251587)"><path
       style="fill:#000000"
       d="m 676.56897,163.23191 -1.17593,-0.0105 -0.99953,-0.19968 -0.99954,-0.19968 -0.64676,-0.21515 -0.64676,-0.21516 -0.9398,-0.46948 -0.93981,-0.46948 -0.83784,-0.56537 -0.83783,-0.56536 -0.92699,-0.74022 -0.92699,-0.74023 -3.35139,-3.3003 -3.35138,-3.3003 -1.05834,-0.87694 -1.05833,-0.87695 -0.82315,-0.53864 -0.82315,-0.53865 -1.5875,-1.04053 -1.5875,-1.04053 -0.94074,-0.94938 -0.94074,-0.94938 -0.55364,-0.93942 -0.55364,-0.93942 -0.35129,-1.05834 -0.35129,-1.05833 -0.13302,-1.05833 -0.13302,-1.05834 0.0804,-0.88194 0.0804,-0.88194 0.2131,-0.83413 0.2131,-0.83414 0.36006,-0.79409 0.36006,-0.7941 0.51939,-0.72785 0.51938,-0.72785 0.89397,-0.8001 0.89396,-0.80009 v -0.0958 -0.0958 l -1.02893,-1.13737 -1.02894,-1.13737 -0.6711,-0.94308 -0.67109,-0.94308 -0.58979,-1.14818 -0.58978,-1.14819 -0.34734,-1.04529 -0.34734,-1.0453 -0.18507,-1.08778 -0.18506,-1.08778 v -0.57941 -0.5794 l 0.12537,-0.91985 0.12538,-0.91985 0.4101,-1.23472 0.41011,-1.23473 0.51731,-0.973 0.51732,-0.973 0.5641,-0.84265 0.5641,-0.84266 1.04321,-1.12416 1.0432,-1.12415 0.32108,-0.47038 0.32108,-0.47037 0.67702,-1.32833 0.67702,-1.32833 0.51468,-0.68468 0.51469,-0.68468 0.61901,-0.42381 0.61901,-0.4238 0.51456,-0.17962 0.51455,-0.17962 h 0.46142 0.46143 l 0.31754,0.16522 0.31754,0.16522 0.25897,0.27736 0.25897,0.27736 0.19968,0.46876 0.19968,0.46877 0.0948,2.82222 0.0948,2.82222 0.24507,0.99954 0.24506,0.99954 0.49161,0.99953 0.4916,0.99954 0.0882,-1.23472 0.0882,-1.23472 0.12409,-0.73271 0.12408,-0.73271 0.28263,-0.83538 0.28263,-0.83538 0.39048,-0.64744 0.39048,-0.64744 0.61877,-0.75227 0.61878,-0.75226 0.79234,-0.65814 0.79233,-0.65814 1.11713,-0.73677 1.11713,-0.73677 2.17546,-1.20766 2.17546,-1.20766 1.31858,-0.870489 1.31857,-0.870488 1.26846,-1.041708 1.26847,-1.041709 1.23472,-1.285214 1.23472,-1.285213 1.0274,-1.07248 1.0274,-1.072479 0.75346,-0.370928 0.75346,-0.370927 0.70171,-0.06363 0.7017,-0.06363 0.59689,0.198254 0.59689,0.198254 0.41228,0.456346 0.41228,0.456345 0.0932,0.447989 0.0932,0.447988 -0.0223,0.723431 -0.0223,0.723431 -0.2477,0.970161 -0.2477,0.970161 -0.57333,1.599001 -0.57333,1.599004 -0.28743,0.99954 -0.28743,0.99953 -0.3658,1.5875 -0.3658,1.5875 -0.58134,2.64584 -0.58134,2.64583 -0.40837,1.41111 -0.40837,1.41111 0.0373,0.0385 0.0373,0.0385 0.4904,-0.72213 0.49039,-0.72213 0.88631,-1.66818 0.88631,-1.66818 0.63708,-0.96519 0.63708,-0.96519 0.88573,-1.09268 0.88573,-1.09268 1.49134,-1.62943 1.49135,-1.62943 0.82315,-0.7137 0.82315,-0.713708 0.68841,-0.445827 0.68841,-0.445828 0.6639,-0.25908 0.66391,-0.259079 0.94074,-0.0032 0.94074,-0.0032 0.61822,0.273262 0.61822,0.273262 0.34879,0.397249 0.34878,0.397249 0.19452,0.66913 0.19452,0.66912 -0.076,0.91155 -0.076,0.91155 -0.29175,1.12343 -0.29176,1.12344 -0.31335,1.14652 -0.31335,1.14653 -0.004,2.11667 -0.004,2.11666 0.26494,1.88149 0.26494,1.88148 0.0639,1.64629 0.0639,1.6463 -0.18185,1.17593 -0.18184,1.17592 -0.30449,1.05834 -0.30449,1.05833 -0.62994,1.29352 -0.62995,1.29352 -0.54137,0.73495 -0.54137,0.73495 h 0.13028 0.13029 l 0.66619,-0.35507 0.6662,-0.35508 0.82017,-0.61506 0.82018,-0.61506 1.08839,-1.64294 1.0884,-1.64293 0.5579,-0.56766 0.5579,-0.56767 0.53866,-0.34653 0.53866,-0.34652 0.69606,-0.24783 0.69606,-0.24784 0.82315,-0.005 0.82315,-0.005 0.47037,0.19931 0.47037,0.1993 0.39218,0.37622 0.39219,0.37622 0.28215,0.47759 0.28216,0.4776 0.23519,0.93352 0.2352,0.93351 2e-5,0.99954 2e-5,0.99953 -0.22901,1.25972 -0.22901,1.25971 -0.36181,1.53861 -0.36181,1.53862 -0.40977,2.72852 -0.40978,2.72853 -0.22372,0.94314 -0.22373,0.94314 -0.35676,0.97755 -0.35676,0.97755 -0.40692,0.72514 -0.40692,0.72514 -0.58029,0.82315 -0.5803,0.82315 -1.00348,1.12625 -1.00349,1.12624 -1.10074,0.92381 -1.10074,0.9238 -0.97133,0.63337 -0.97133,0.63337 -0.96959,0.45436 -0.9696,0.45437 -1.03693,0.30049 -1.03693,0.30049 -1.13789,0.10291 -1.13788,0.1029 -0.42167,-0.0534 -0.42166,-0.0534 -0.13986,0.99974 -0.13986,0.99975 -0.24307,0.74043 -0.24307,0.74044 -0.3942,0.78276 -0.39419,0.78277 -0.70952,0.9416 -0.70952,0.9416 -0.73752,0.68351 -0.73752,0.68351 -0.91648,0.68011 -0.91648,0.68011 -1.14139,0.64584 -1.14139,0.64584 -1.29352,0.54404 -1.29352,0.54405 -1.41111,0.28101 -1.41111,0.28102 z m 0.35278,-3.8797 1.05833,0.007 0.88195,-0.15919 0.88194,-0.15918 0.76435,-0.25696 0.76435,-0.25697 0.84864,-0.40543 0.84863,-0.40544 1.09164,-0.72813 1.09165,-0.72813 0.88716,-0.88623 0.855,-0.93008 0.39493,-0.60291 0.36276,-0.64676 0.21069,-0.64676 0.21069,-0.64676 8.3e-4,-1.05833 8.3e-4,-1.05833 -0.15183,-0.70556 -0.15183,-0.70556 -0.35268,-1.05833 -0.35269,-1.05833 -0.5669,-1.42276 -0.56691,-1.42277 -0.87428,-1.98742 -0.87428,-1.98742 -2.1436,-4.5203 -2.1436,-4.52029 -0.10483,-0.27574 -0.10484,-0.27575 -0.64723,-0.9828 -0.64723,-0.98281 -0.64627,-0.59065 -0.64627,-0.59066 -0.60738,-0.20174 -0.60738,-0.20173 -0.95208,0.0639 -0.95208,0.0639 -0.94074,0.31532 -0.94074,0.31531 -2.88102,1.39237 -2.88101,1.39237 -1.41112,0.46712 -1.41111,0.46711 -1.15375,0.24822 -1.15375,0.24821 -1.60967,0.23536 -1.60968,0.23536 -0.87664,0.23925 -0.87665,0.23926 -0.82845,0.43351 -0.82844,0.43352 -0.77709,0.77424 -0.70693,0.81808 -0.49663,0.82942 -0.42647,0.87326 -0.18181,0.70556 -0.18181,0.70555 -0.0684,0.88195 -0.0684,0.88194 0.13016,0.70556 0.13016,0.70555 0.41012,0.83511 0.41011,0.83511 0.76532,0.76532 0.76533,0.76532 0.79497,0.53275 0.79497,0.53276 1.35232,0.73688 1.35231,0.73689 1.25053,0.69893 1.25052,0.69894 1.04253,0.78105 1.04254,0.78105 1.39768,1.35319 1.39768,1.35318 1.77732,1.93358 1.77732,1.93357 0.93471,0.73937 0.93471,0.73938 0.79935,0.42004 0.79934,0.42004 0.67659,0.23749 0.67659,0.23749 0.76435,0.15685 0.76435,0.15685 z m 18.05046,-13.23558 0.64676,-0.0556 0.70556,-0.17188 0.70555,-0.17187 0.95387,-0.4612 0.95386,-0.46119 0.98641,-0.72926 0.98642,-0.72926 1.00551,-1.02889 1.00551,-1.0289 0.74078,-1.03918 0.74078,-1.03919 0.56466,-1.17592 0.56466,-1.17593 0.35206,-1.11713 0.35206,-1.11713 0.15249,-0.70555 0.15249,-0.70556 0.007,-1.2372 0.007,-1.23719 -0.38911,-0.7904 -0.42839,-0.76663 -0.45356,-0.36043 -0.49283,-0.33665 -0.41157,-0.12406 -0.41158,-0.12407 -0.48708,-0.0687 -0.48709,-0.0687 -0.61532,0.11669 -0.61532,0.11669 -1.01426,0.42549 -1.01426,0.42548 -0.76435,0.28974 -0.76435,0.28974 -1.94028,0.52707 -1.94028,0.52708 -0.87632,0.29382 -0.87632,0.29381 -0.81228,0.40766 -0.81229,0.40766 -0.50207,0.34543 -0.50208,0.34544 -0.70294,0.76714 -0.70295,0.76714 -0.35616,0.73628 -0.35615,0.73627 -0.14685,0.6345 -0.14684,0.6345 0.0678,1.24698 0.0678,1.24698 0.17097,0.52917 0.17097,0.52917 0.25192,0.63311 0.25191,0.63311 0.52822,0.81654 0.52821,0.81654 0.57294,0.57293 0.57293,0.57293 0.62885,0.3991 0.62885,0.39909 0.54652,0.20614 0.54653,0.20613 0.6294,0.0938 0.6294,0.0938 z m -6.46759,-17.6332 0.64676,-0.0556 0.64676,-0.18057 0.64676,-0.18057 0.82314,-0.42716 0.82315,-0.42716 1.18513,-1.17919 1.18513,-1.17919 0.49736,-0.76436 0.49737,-0.76435 0.5224,-1.07738 0.5224,-1.07738 0.28783,-1.09808 0.28783,-1.09808 0.12742,-0.94074 0.12741,-0.94075 8.3e-4,-1.88148 -0.0357,-1.88002 -0.0884,-0.8834 -0.12496,-0.88195 -0.18652,-0.76435 -0.18652,-0.76435 -0.44578,-0.96161 -0.44578,-0.96161 -0.5471,-0.5471 -0.5471,-0.5471 -0.55226,-0.25275 -0.56979,-0.20304 -0.86441,-0.0517 -0.88194,0.0535 -0.70556,0.28971 -0.70555,0.34525 -0.65278,0.65429 -0.65278,0.65428 -0.37425,0.54759 -0.37425,0.54758 -0.95017,1.80427 -0.95017,1.80427 -1.24643,1.88148 -1.24642,1.88148 -0.45415,0.88195 -0.45415,0.88194 -0.30392,0.94074 -0.30393,0.94074 -0.0605,1.35232 -0.0605,1.35231 0.13611,0.6544 0.1361,0.65441 0.34125,0.72158 0.34126,0.72158 0.50478,0.54762 0.50478,0.54762 0.48907,0.33649 0.48908,0.3365 0.62343,0.24573 0.62342,0.24573 0.65408,0.10109 0.65408,0.1011 z m -31.24706,-0.43861 1.02383,-0.11165 0.76179,-0.30481 0.72458,-0.41644 0.55945,-0.54457 0.53051,-0.59006 0.26187,-0.67047 0.26187,-0.67047 0.0506,-1.77373 0.0505,-1.77373 -0.19402,-1.34247 -0.19403,-1.34247 -0.23153,-0.99954 -0.23152,-0.99954 -0.36497,-1.11713 -0.36497,-1.11713 -0.44374,-0.88194 -0.44375,-0.88195 -0.48426,-0.54871 -0.48427,-0.54872 -0.50617,-0.24503 -0.50618,-0.24504 h -0.67571 -0.67571 l -0.65321,0.30902 -0.65322,0.30902 -0.79549,0.75043 -0.7955,0.75043 -0.60362,0.87318 -0.60363,0.87317 -0.46898,0.97779 -0.46899,0.9778 -0.18799,0.88194 -0.18799,0.88195 0.0634,1.23472 0.0634,1.23472 0.3072,1.05109 0.3072,1.05108 0.53347,1.03289 0.53346,1.03289 0.78355,0.84655 0.78355,0.84655 0.64494,0.41272 0.64495,0.41273 0.64857,0.21523 0.64857,0.21523 z m 49.77885,-0.67199 0.0441,-0.0634 0.1782,-1.11314 0.17408,-1.22476 0.002,-0.80048 0.002,-0.80047 -0.13196,-0.52408 -0.13197,-0.52409 -0.34742,-0.29234 -0.34743,-0.29234 -0.25556,0.003 -0.25556,0.003 -0.47694,0.21663 -0.47693,0.21663 -0.40848,0.47721 -0.40848,0.47722 -0.73322,1.23089 -0.73322,1.23089 -0.17466,0.14495 -0.17465,0.14495 v 0.10319 0.1032 h 1.0355 1.0355 l 0.69899,0.23747 0.69899,0.23747 0.58797,0.45492 c 0.19599,0.15164 -0.35519,-0.50843 0.54662,0.37844 z m -35.9837,-4.93934 1.06892,0.01 0.88823,-0.22717 0.88824,-0.22718 0.72112,-0.36402 0.72112,-0.36402 0.86622,-0.82283 0.86622,-0.82282 0.58584,-0.84964 0.58583,-0.84964 0.47042,-0.94074 0.47042,-0.94074 0.4331,-1.15947 0.4331,-1.15947 0.40429,-1.47514 0.40429,-1.47513 0.65586,-2.95104 0.65585,-2.95105 0.34591,-1.3422 0.34591,-1.3422 -0.0748,-0.42169 -0.0748,-0.42168 -0.21275,-0.35278 -0.21275,-0.35278 -0.3903,-0.22992 -0.39237,-0.20305 -0.76262,-0.0199 -0.76468,0.007 -0.52706,0.26889 -0.52706,0.26888 -1.60863,1.08371 -1.60863,1.08371 -2.68528,1.3639 -2.68527,1.3639 -0.82314,0.55149 -0.82315,0.55148 -0.52917,0.46303 -0.52917,0.46303 -0.50549,0.60774 -0.50549,0.60773 -0.52539,1.05834 -0.52539,1.05833 -0.22832,1.06056 -0.22833,1.06057 -0.13313,1.36348 -0.0849,1.36787 0.0845,1.08692 0.13269,1.0913 0.23738,0.70464 0.23737,0.70465 0.38873,0.60768 0.38873,0.60769 0.48393,0.41422 0.48392,0.41422 0.64597,0.3163 0.64597,0.3163 0.67958,0.16464 0.67958,0.16464 z m -12.39751,-13.03307 0.0779,-0.53908 0.0103,-1.32669 0.0103,-1.32669 -0.17028,-0.40754 -0.17027,-0.40753 -0.29235,-0.13321 -0.29235,-0.1332 -0.38992,0.22464 -0.38992,0.22463 -0.48925,0.72634 -0.48925,0.72634 -0.35415,0.91835 -0.35416,0.91836 -0.0769,0.30633 -0.0769,0.30633 0.59049,-0.11676 0.59049,-0.11675 0.50619,0.0762 0.50618,0.0762 0.58796,0.27144 0.50319,0.11943 z m 38.5425,-3.62778 0.0851,-0.0417 0.43297,-0.9779 0.45051,-1.10652 0.22565,-0.725 0.22564,-0.725 v -0.64212 -0.64213 l -0.17204,-0.33268 -0.17204,-0.33269 -0.19035,-0.0731 -0.19036,-0.073 -0.31376,0.003 -0.31376,0.003 -0.51177,0.23223 -0.51177,0.23222 -0.4596,0.36401 -0.45959,0.364 -0.89958,1.07688 -0.89959,1.07688 -0.42211,0.40583 -0.42211,0.40583 1.05834,0.1329 1.05833,0.1329 0.58796,0.19667 0.58797,0.19667 0.58796,0.46041 0.52657,0.39902 z m -13.1028,-6.539922 0.11759,-0.02323 0.72327,-1.455013 0.72327,-1.455012 0.19523,-0.598226 0.19523,-0.598227 0.0669,-0.548699 0.0668,-0.548698 -0.30385,-0.303848 -0.30385,-0.303847 h -0.35778 -0.35778 l -0.49129,0.440972 -0.4913,0.440972 -1.31577,1.646296 -1.31577,1.646297 -0.31565,0.290441 -0.10664,0.259747 0.002,0.114164 0.21149,0.08347 0.52917,0.01107 0.52916,0.01107 0.43064,0.100072 0.43063,0.100072 0.51011,0.356694 0.5101,0.356695 z"
       id="path125" /><path
       style="fill:#b9d645;fill-opacity:1;stroke:#000000;stroke-width:1.35"
       d="m 2549.75,600.96865 c -9.187,-2.39177 -15.8371,-7.05158 -26.0855,-18.27834 -8.4158,-9.2193 -15.759,-16.33101 -20.7427,-20.08891 -2.2431,-1.69133 -7.6431,-5.03174 -12,-7.42314 -13.4827,-7.40019 -15.703,-8.81406 -19.6508,-12.51346 -3.164,-2.96492 -4.1649,-4.30575 -5.7851,-7.75 -1.8372,-3.90551 -1.9575,-4.44496 -1.932,-8.6648 0.015,-2.475 0.3214,-5.7375 0.6811,-7.25 1.088,-4.57466 4.1064,-9.93669 7.3486,-13.05447 5.2391,-5.03799 10.3717,-7.09991 21.6664,-8.704 13.9745,-1.98469 21.5787,-4.41487 36.6617,-11.71646 12.1687,-5.8908 15.9401,-7.28912 20.8634,-7.7355 4.4406,-0.40262 7.5003,0.64585 10.6481,3.64874 2.1001,2.00341 7.3268,8.99315 7.3268,9.79819 0,0.15492 4.022,8.77133 8.9378,19.14758 17.5412,37.02617 22.5622,50.23 22.5622,59.33278 0,7.38931 -1.5051,10.81297 -7.4528,16.95319 -11.8112,12.19337 -29.0892,17.93247 -43.0472,14.2986 z"
       id="path126"
       transform="scale(0.26458333)" /><path
       style="fill:#b9d645;fill-opacity:1;stroke:#000000;stroke-width:1.35"
       d="m 2477.8032,482.97434 c -10.8075,-3.8563 -19.2803,-17.23542 -19.6156,-30.97434 -0.1462,-5.99007 0.6523,-9.69182 3.1817,-14.75 6.7863,-13.57075 16.5988,-20.46493 23.8574,-16.76188 7.9129,4.03684 15.0705,26.23057 14.3965,44.63912 -0.282,7.70057 -0.9888,10.0008 -4.0838,13.29047 -4.401,4.67781 -11.9566,6.61892 -17.7362,4.55663 z"
       id="path127"
       transform="scale(0.26458333)" /><path
       style="fill:#b9d645;fill-opacity:1;stroke:#000000;stroke-width:1.35"
       d="m 2486.5,414.02236 c -2.7447,-1.18327 -5.2828,-1.52242 -7.5563,-1.00968 -1.0536,0.23763 -1.9842,0.36353 -2.0679,0.27976 -0.4419,-0.44188 3.1418,-8.74145 4.8793,-11.29997 3.1049,-4.57223 5.5124,-5.24935 7.084,-1.99247 0.708,1.46742 0.7991,2.7592 0.5637,8 -0.1544,3.4375 -0.4207,6.39278 -0.5918,6.56729 -0.171,0.17451 -1.211,-0.0707 -2.311,-0.54493 z"
       id="path128"
       transform="scale(0.26458333)" /><path
       style="fill:#b9d645;fill-opacity:1;stroke:#000000;stroke-width:1.35"
       d="m 2529.5,461.79549 c -7.4315,-1.84143 -12.1312,-6.30839 -14.7902,-14.0579 -1.0546,-3.07348 -1.1932,-4.34846 -1.1674,-10.73759 0.068,-16.88622 4.9101,-27.20783 16.4007,-34.9616 2.0703,-1.39701 8.4425,-4.93841 14.1605,-7.86976 5.718,-2.93136 12.7589,-6.93415 15.6464,-8.8951 8.2339,-5.59178 9.6587,-6.27354 13.1108,-6.27354 6.3187,0 8.6654,3.64671 6.8411,10.63079 -0.5199,1.99057 -2.2899,9.58171 -3.9332,16.86921 -6.5367,28.98834 -10.2626,38.10687 -19.4766,47.66511 -3.6294,3.76504 -7.8675,6.24401 -12.9076,7.55003 -3.5589,0.9222 -10.3289,0.96138 -13.8845,0.0803 z"
       id="path129"
       transform="scale(0.26458333)" /><path
       style="fill:#b9d645;fill-opacity:1;stroke:#000000;stroke-width:1.35"
       d="m 2583.3002,373.47887 c -1.6801,-1.21704 -2.7696,-1.57531 -5.4501,-1.7921 -4.9166,-0.39767 -5.0065,-0.46191 -3.2544,-2.32777 0.831,-0.88495 3.6875,-4.34382 6.3479,-7.68638 4.7273,-5.93941 7.5415,-8.67262 8.9295,-8.67262 0.3794,0 1.2965,0.63325 2.038,1.40722 1.2787,1.33471 1.3227,1.54185 0.8526,4.02061 -0.2726,1.43736 -1.204,4.23537 -2.0697,6.21778 -1.8325,4.19639 -4.8807,10.35439 -5.1253,10.35439 -0.093,0 -1.1136,-0.68451 -2.2685,-1.52113 z"
       id="path130"
       transform="scale(0.26458333)" /><path
       style="fill:#b9d645;fill-opacity:1;stroke:#000000;stroke-width:1.35"
       d="m 2632.75,397.98561 c -1.9373,-1.64469 -6.7127,-3.24963 -11.1246,-3.73876 l -2.8746,-0.3187 3.3746,-3.83792 c 5.7373,-6.52509 9.031,-9.58565 11.4158,-10.60791 2.9953,-1.28391 3.9974,-1.23913 5.4815,0.24495 2.1833,2.18324 1.4751,7.27716 -2.2259,16.0113 -0.813,1.91872 -1.6624,3.54351 -1.8875,3.61065 -0.2251,0.0671 -1.1968,-0.54648 -2.1593,-1.36361 z"
       id="path131"
       transform="scale(0.26458333)" /><path
       style="fill:#b9d645;fill-opacity:1;stroke:#000000;stroke-width:1.35"
       d="m 2596.1555,485.02617 c -3.1212,-0.60721 -8.1768,-3.41472 -10.6338,-5.90524 -4.7257,-4.79015 -6.6025,-10.55894 -6.045,-18.5809 0.5753,-8.27845 2.8406,-13.66227 10.7297,-25.50151 2.6712,-4.00868 6.3935,-10.21352 8.2717,-13.78852 5.6424,-10.73999 8.4729,-14.29164 13.3826,-16.79272 2.3418,-1.1929 3.4873,-1.45728 6.314,-1.45728 6.3532,0 9.9137,2.54843 13.0874,9.36748 3.2402,6.96182 3.7423,10.16177 3.7081,23.63252 -0.028,11.06059 -0.1066,12.03473 -1.3406,16.6029 -1.4235,5.27013 -4.3344,11.91124 -6.8962,15.73375 -0.8896,1.32734 -3.7811,4.62442 -6.4254,7.32685 -3.5574,3.63546 -5.6854,5.36008 -8.1812,6.63039 -5.4563,2.77712 -10.9286,3.7133 -15.9713,2.73228 z"
       id="path132"
       transform="scale(0.26458333)" /><path
       style="fill:#b9d645;fill-opacity:1;stroke:#000000;stroke-width:1.35"
       d="m 2619.8907,551.51518 c -3.1379,-0.74573 -7.2708,-3.17106 -10.4137,-6.11115 -6.1902,-5.79059 -9.8821,-13.64292 -10.4161,-22.15403 -0.5016,-7.99385 1.3586,-12.90097 7.0849,-18.68968 5.2494,-5.30661 11.0741,-7.99696 26.121,-12.06486 4.1308,-1.11677 10.2607,-3.17268 13.6219,-4.56868 7.4357,-3.08823 10.9403,-3.81112 14.4968,-2.99019 4.2507,0.98118 6.5332,2.77799 8.381,6.59748 1.5905,3.28768 1.6128,3.43195 1.3571,8.77927 -0.5888,12.31545 -7.0365,26.41953 -16.8586,36.87752 -6.0719,6.46493 -15.1424,12.27827 -21.8831,14.02496 -3.1465,0.81534 -8.7102,0.96028 -11.4912,0.29936 z"
       id="path133"
       transform="scale(0.26458333)" /><path
       style="fill:#b9d645;fill-opacity:1;stroke:#000000;stroke-width:1.35"
       d="m 2669.75,479.55753 c -2.6043,-2.0967 -6.0378,-3.05753 -10.9262,-3.05753 h -4.2481 l 1.006,-1.125 c 0.5534,-0.61875 2.3364,-3.33969 3.9622,-6.04653 3.368,-5.60739 5.8395,-8.12058 8.4712,-8.61429 4.4276,-0.83063 6.3993,3.9866 5.2979,12.9438 -0.7092,5.76674 -1.0316,7.34933 -1.4922,7.32525 -0.1765,-0.009 -1.1083,-0.65078 -2.0708,-1.4257 z"
       id="path134"
       transform="scale(0.26458333)" /></g></svg>
