<?xml version="1.0" encoding="UTF-8" standalone="no"?>
<!-- Created with Inkscape (http://www.inkscape.org/) -->

<svg
   width="64.922066mm"
   height="76.459007mm"
   viewBox="0 0 64.922066 76.459007"
   version="1.1"
   id="svg1"
   xml:space="preserve"
   xmlns="http://www.w3.org/2000/svg"
   xmlns:svg="http://www.w3.org/2000/svg"><defs
     id="defs1" /><g
     id="layer1"
     transform="translate(-732.60224,-55.990953)"><path
       style="fill:#000000"
       d="m 765.50451,132.44993 h -0.39897 l -0.8122,-0.57621 -0.81219,-0.5762 -1.96364,-1.86385 -1.96365,-1.86384 -3.50441,-3.59357 -3.50441,-3.59358 -1.94028,-1.86198 -1.94028,-1.86199 -1.45716,-1.21775 -1.45717,-1.21776 -1.22451,-0.83351 -1.2245,-0.8335 -1.21528,-0.58053 -1.21528,-0.58053 -0.87497,-0.18987 -0.87498,-0.18988 -0.53579,0.0804 -0.5358,0.0803 -0.79136,0.4773 -0.79137,0.47729 -0.36202,0.10383 -0.36202,0.10383 -0.44014,-0.11852 -0.44014,-0.11852 -0.60414,-0.47754 -0.60414,-0.47754 -0.45342,-0.70154 -0.45343,-0.70154 -0.0723,-0.32936 -0.0723,-0.32935 2.54466,-6.27951 2.54466,-6.279514 1.32985,-3.180482 1.32986,-3.180482 1.35299,-3.051926 1.35299,-3.051925 1.13382,-2.410648 1.13382,-2.410649 1.33008,-2.587037 1.33008,-2.587037 0.97618,-1.763889 0.97618,-1.763889 1.22894,-2.054266 1.22895,-2.054266 1.34308,-2.045288 1.34309,-2.045289 0.84138,-1.192112 0.84138,-1.192112 0.75743,-0.789691 0.75743,-0.78969 0.83717,-0.57798 0.83717,-0.577979 0.80166,-0.424631 0.80166,-0.424631 0.65107,-0.189271 0.65107,-0.189272 0.89912,0.0431 0.89913,0.0431 0.79505,0.374803 0.79504,0.374803 1.03499,0.708874 1.03498,0.708875 0.7743,0.796002 0.77429,0.796002 0.39261,0.470371 0.39261,0.47037 1.65327,1.881482 1.65326,1.881481 1.35268,1.5875 1.35267,1.5875 1.23987,1.528704 1.23987,1.528704 1.27088,1.705092 1.27088,1.705093 1.13848,1.705092 1.13848,1.705093 0.9452,1.590836 0.94519,1.590836 0.83186,1.584164 0.83185,1.584164 0.9316,2.057871 0.93159,2.05787 1.00377,2.528241 1.00377,2.52824 0.96758,2.645834 0.96757,2.645834 1.11308,2.998615 1.11308,2.99861 0.81149,1.71825 0.81148,1.71825 0.17691,0.5014 0.1769,0.50139 v 0.28311 0.28311 l -0.28309,0.55866 -0.2831,0.55866 -1.2466,1.20069 -1.2466,1.20069 -0.90275,0.71738 -0.90274,0.71738 -0.28727,0.10922 -0.28727,0.10922 -1.13145,0.24337 -1.13145,0.24337 -1.11713,0.412 -1.11712,0.412 -1.6463,0.8463 -1.6463,0.8463 -1.57757,1.03253 -1.57757,1.03253 -1.53863,1.15722 -1.53864,1.15722 -1.5875,1.32361 -1.5875,1.32361 -1.5287,1.35792 -1.5287,1.35792 -1.76389,1.71114 -1.76389,1.71114 -0.82315,0.65886 -0.82315,0.65886 -0.37633,0.19126 -0.37634,0.19127 z m -0.0113,-6.47352 0.042,-0.0585 0.35649,-0.88828 0.34823,-0.98751 -0.0228,-0.26231 -0.0228,-0.24577 -0.88027,-1.85436 -0.92988,-1.87089 -0.92221,-1.53151 -0.9222,-1.5315 -0.93671,-1.33376 -0.93671,-1.33376 -1.1922,-1.42687 -1.25834,-1.36071 -1.27393,-1.40625 -1.36487,-1.2905 -1.18975,-1.06136 -1.21455,-1.01174 -1.1373,-0.85422 -1.13731,-0.85422 -0.89418,-0.46572 -0.89418,-0.46572 -0.68863,-0.17937 -0.68862,-0.17936 -0.88664,0.0117 -0.88664,0.0117 -0.29398,0.0942 -0.10381,0.0693 0.0608,0.0365 0.25096,0.0117 0.92496,0.46729 0.92496,0.46728 0.88195,0.75573 0.88194,0.75574 0.78875,0.91825 0.78875,0.91825 -0.0417,0.0417 -0.0417,0.0417 -0.80585,-0.55518 -0.80585,-0.55519 -0.97534,-0.45994 -0.97533,-0.45995 -1.14133,-0.30424 -1.14133,-0.30423 -1.41112,-0.009 -1.41111,-0.009 -1.34577,0.46793 -1.34577,0.46794 -0.0457,0.14699 -0.0457,0.14699 h 0.52356 0.52356 l 0.98668,0.17206 0.98667,0.17206 0.93961,0.30316 0.93961,0.30316 0.917,0.46123 0.917,0.46124 1.31726,0.87888 1.31726,0.87888 1.5287,1.22077 1.52871,1.22076 1.29115,1.16784 1.29115,1.16783 3.06424,2.99861 3.06424,2.99861 2.39579,2.49943 2.37099,2.41676 z m 6.02099,-4.48395 3.25585,-3.22427 1.41111,-1.21219 1.41111,-1.21219 1.37512,-1.03776 1.37512,-1.03776 2.57954,-1.70699 2.57954,-1.70699 1.63899,-1.22412 1.59222,-1.24457 0.4684,-0.49581 0.42163,-0.51627 0.18716,-0.41158 0.18716,-0.41157 -0.0417,0.94074 -0.0417,0.94074 -0.23365,0.64676 -0.23365,0.64676 -0.0894,0.20578 -0.0894,0.20579 h 0.109 0.10901 l 0.50991,-0.43646 0.50992,-0.43647 0.3344,-0.5273 0.3344,-0.52729 v -0.29066 -0.29065 l -0.89415,-2.88483 -0.89415,-2.88483 -0.68,-1.946172 -0.67999,-1.946172 -0.73438,-1.940277 -0.73438,-1.940278 -0.79653,-1.881482 -0.79654,-1.881481 -0.94941,-2.029308 -0.94942,-2.029307 -1.02004,-1.910044 -1.02005,-1.910045 -0.94356,-1.5875 -0.94356,-1.5875 -0.85331,-1.315886 -0.85331,-1.315886 -1.0834,-1.506336 -1.0834,-1.506337 -1.31869,-1.646296 -1.31869,-1.646296 -1.5666,-1.763889 -1.5666,-1.763889 -1.59534,-1.594839 -1.59534,-1.594839 -1.18577,-0.942408 -1.18577,-0.942408 -0.73488,-0.446414 -0.73487,-0.446415 -0.52476,-0.157929 -0.52476,-0.157928 -0.33559,0.06712 -0.33558,0.06712 -0.41875,0.345164 -0.41874,0.345164 -0.75607,1.259401 -0.75606,1.259401 -0.8953,1.792619 -0.89529,1.792618 -0.71969,1.676363 -0.71969,1.676363 -1.73683,4.409723 -1.73682,4.409722 -1.26014,3.351389 -1.26013,3.351389 -1.2209,3.381473 -1.22089,3.381473 -1.41205,3.998954 -1.22189,3.37057 0.0331,0.07246 0.0331,0.12208 0.16203,-0.0116 0.0794,-0.0778 1.26582,-2.066243 1.53868,-2.57893 2.24737,-3.38515 2.24738,-3.38515 1.6527,-2.351852 1.6527,-2.351852 1.2104,-1.82132 1.2104,-1.82132 v 0.132554 0.132555 l -0.4803,1.394784 -0.4803,1.394784 -0.59257,1.469908 -0.59257,1.469907 -1.09574,2.267221 -1.09573,2.26722 -1.1461,2.083706 -1.14609,2.083705 -0.98424,1.626302 -0.5791,1.0806 -0.0134,0.151088 0.15196,0.05188 0.11667,-0.05892 0.58796,-0.769985 2.6993,-3.215944 2.6993,-3.215945 2.05532,-2.410648 2.05532,-2.410648 1.82486,-2.057871 1.82487,-2.05787 1.18436,-1.293519 1.18437,-1.293518 0.55773,-0.667744 0.55774,-0.667744 0.41709,-0.257779 0.4171,-0.25778 0.42374,0.06876 0.42374,0.06876 0.60926,0.298081 0.60925,0.298082 0.95929,0.714142 0.95928,0.714143 1.27502,1.275022 1.27503,1.275023 1.11907,1.391736 1.11907,1.391735 1.00086,1.469908 1.00086,1.469907 1.05707,1.763889 1.05707,1.763889 0.99753,1.822685 0.99754,1.822685 2.22272,4.407429 2.22273,4.407402 0.0461,0.11112 0.0461,0.11113 -0.45766,-0.37055 -0.45765,-0.37055 -0.55958,-0.41444 -0.55958,-0.41445 h -0.23928 -0.23915 l -3.43906,3.38079 -3.43906,3.38079 -2.52769,2.46944 -2.48093,2.52206 -1.07384,1.10742 -1.02706,1.16001 -0.71341,0.95666 -0.71341,0.95663 -0.44844,0.94075 -0.44844,0.94075 -0.15424,0.64674 -0.15424,0.64676 0.008,0.94127 0.008,0.94129 0.20047,0.68958 0.25008,0.36714 z m -10.95114,-24.206561 0.72726,0.0038 0.80418,-0.169164 0.80418,-0.169165 0.32316,-0.122866 0.32316,-0.122866 -0.69533,-0.854498 -0.69533,-0.854497 -0.27733,-0.243747 -0.27733,-0.243746 -0.58941,-0.367935 -0.5894,-0.367935 -0.42188,-0.176269 -0.42187,-0.176269 -1.45816,-0.242308 -1.45817,-0.242308 -0.26458,-0.05971 -0.26459,-0.05971 v 0.227677 0.227676 l 0.23719,0.568314 0.23719,0.568314 0.25378,0.47037 0.25377,0.470371 0.2896,0.385138 0.28961,0.385139 0.47221,0.373998 0.47221,0.373998 0.59931,0.207164 0.5993,0.207163 z m 11.14958,-0.03301 1.05834,-0.0364 0.56366,-0.253005 0.56367,-0.253005 0.40317,-0.332326 0.40317,-0.332326 0.52774,-0.679631 0.52775,-0.67963 0.29871,-0.631413 0.2987,-0.631413 v -0.249582 -0.249587 l -0.85254,0.07695 -0.85255,0.07696 -1.17593,0.228878 -1.17592,0.228878 -0.61054,0.294559 -0.61053,0.294559 -1.12396,1.21375 -1.09295,1.211683 -0.031,0.135322 v 0.133256 l 0.0882,0.0068 0.0882,0.0068 0.82315,0.228181 0.82315,0.22818 z"
       id="path135" /><path
       style="fill:#17b165;fill-opacity:1;stroke:#000000;stroke-width:1.35"
       d="m 2903.5657,469.97246 c -0.1252,-0.39735 -0.4725,-1.48729 -0.7717,-2.42207 -0.7063,-2.20674 -0.696,-7.47605 0.021,-10.45398 0.9949,-4.13449 4.1796,-10.21319 7.9093,-15.09641 4.067,-5.32475 53.7487,-54.9697 55.0261,-54.98538 0.4125,-0.005 2.5171,1.35374 4.6768,3.01956 2.1598,1.66582 4.0303,2.92534 4.1567,2.79893 0.2451,-0.24509 -14.6282,-29.72019 -20.4785,-40.58311 -16.6367,-30.89152 -34.3095,-52.65478 -47.8925,-58.97758 -4.7186,-2.19649 -6.8026,-1.6004 -10.7304,3.06931 -1.3454,1.59955 -4.7158,5.38327 -7.4897,8.40827 -12.4121,13.53565 -45.6106,52.23126 -54.1777,63.14852 -0.9269,1.18117 -1.7898,2.04301 -1.9177,1.91518 -0.1278,-0.12783 1.5476,-3.23195 3.7231,-6.89806 11.1031,-18.7108 19.4295,-35.85264 24.9598,-51.38608 3.1697,-8.90303 2.7215,-9.39488 -2.0359,-2.23408 -2.1758,3.27498 -7.0346,10.34202 -10.7973,15.70452 -10.538,15.01821 -24.2539,35.85363 -29.7122,45.13502 -2.7121,4.61176 -5.0386,8.27752 -5.17,8.14613 -0.6608,-0.66081 21.8453,-62.28775 34.8879,-95.53115 7.6992,-19.62375 10.6955,-26.64214 15.3695,-36 7.4631,-14.94199 10.6786,-19.29372 14.3327,-19.3973 3.6576,-0.10367 13.3944,6.41844 22.2401,14.8973 5.7997,5.55921 18.6634,19.89391 25.351,28.25 26.1333,32.6531 45.6859,71.97008 61.7631,124.19499 l 3.5233,11.445 -0.9161,1.75784 c -0.8684,1.66648 -5.4732,6.53617 -5.8313,6.17801 -0.092,-0.0925 0.5662,-1.65518 1.0993,-3.13509 1.1117,-3.08672 1.8689,-11.3367 0.8946,-9.74655 -3.7285,6.08474 -8.1039,9.71574 -26.0786,21.64197 -19.6257,13.02163 -24.6449,17.22916 -47.8533,40.11472 -5.155,5.08323 -7.9315,7.4958 -8.081,7.02157 z"
       id="path136"
       transform="scale(0.26458333)" /><path
       style="fill:#17b165;fill-opacity:1;stroke:#000000;stroke-width:0.477297"
       d="m 2872.7097,367.56873 c -0.5348,-0.0338 -1.9465,-0.38352 -3.1372,-0.77723 -2.0428,-0.67548 -2.2671,-0.79807 -3.9775,-2.17452 -2.1814,-1.75556 -3.5465,-3.45915 -5.0404,-6.29062 -2.1751,-4.12244 -3.3426,-7.71644 -2.3848,-7.34126 0.1701,0.0667 3.1029,0.59209 6.5173,1.16765 5.8304,0.98282 6.3142,1.09298 7.955,1.81133 1.9673,0.86135 5.2833,2.90378 6.7403,4.15158 0.8899,0.76216 6.3433,7.23495 6.2043,7.36405 -0.273,0.25349 -3.2458,1.08751 -5.6894,1.59614 -2.9777,0.61982 -4.0322,0.69213 -7.1876,0.49288 z"
       id="path137"
       transform="scale(0.26458333)" /><path
       style="fill:#17b165;fill-opacity:1;stroke:#000000;stroke-width:0.477297"
       d="m 2909.7444,366.79426 c -1.6529,-0.47035 -3.1842,-0.85772 -3.403,-0.86084 -0.3148,-0.004 -0.3975,-0.10696 -0.397,-0.4918 6e-4,-0.38867 0.8364,-1.3899 4.1686,-4.99394 l 4.1678,-4.50781 2.328,-1.16663 2.328,-1.16664 4.773,-0.90377 c 2.8118,-0.53243 5.7898,-0.98259 7.2478,-1.09559 1.3612,-0.10549 2.6539,-0.22936 2.8726,-0.27525 0.3695,-0.0775 0.3978,-0.0222 0.3978,0.77705 0,0.69443 -0.2219,1.32525 -1.1499,3.26891 -0.9425,1.97402 -1.5157,2.87962 -3.1781,5.02072 -2.6138,3.3665 -4.131,4.64275 -7.116,5.98568 l -2.1081,0.94844 -3.256,0.0988 c -1.7909,0.0543 -3.5743,0.1256 -3.9632,0.15832 -0.4633,0.039 -1.7431,-0.23532 -3.7123,-0.79568 z"
       id="path138"
       transform="scale(0.26458333)" /><path
       style="fill:#17b165;fill-opacity:1;stroke:#000000;stroke-width:0.477297"
       d="m 2883.6093,466.57094 c -10.2291,-10.65452 -29.523,-29.64294 -36.8858,-36.30182 -6.4553,-5.83817 -15.1322,-12.68131 -21.2429,-16.75362 -6.5961,-4.39577 -10.0853,-6.18618 -15.3604,-7.88199 -4.6063,-1.48081 -9.5177,-2.40587 -12.7734,-2.40587 h -2.1036 l 0.1219,-0.48577 c 0.067,-0.26718 0.1353,-0.49634 0.1517,-0.50926 0.016,-0.0129 2.3423,-0.8276 5.1686,-1.81041 l 5.1388,-1.78693 5.291,0.10367 5.2911,0.10367 4.2426,1.12442 c 3.9718,1.05263 4.474,1.23351 7.8666,2.83317 2.981,1.40559 4.1673,2.08369 6.6866,3.82196 1.885,1.30065 3.1652,2.07387 3.3293,2.0109 0.1466,-0.0563 0.2401,-0.17862 0.2077,-0.27189 -0.032,-0.0933 -1.3952,-1.72687 -3.0283,-3.63021 -2.5012,-2.91487 -3.4908,-3.90799 -6.2756,-6.29746 l -3.3062,-2.83684 -3.4896,-1.75298 c -2.7102,-1.36142 -3.6579,-1.75603 -4.2427,-1.76667 l -0.753,-0.0137 0.8839,-0.32615 c 0.7383,-0.27243 1.4389,-0.32841 4.2531,-0.33986 3.3099,-0.0135 3.4126,-0.003 5.8336,0.61948 2.1939,0.56366 2.8429,0.82909 5.9116,2.4177 3.0874,1.59831 3.8899,2.11692 7.6898,4.96972 11.1356,8.36011 20.3573,17.04569 28.5106,26.8529 8.4347,10.1458 15.2559,20.73444 21.6441,33.59855 4.257,8.57257 4.0662,7.48836 2.2352,12.70049 -0.694,1.97553 -1.3203,3.65742 -1.3919,3.73752 -0.072,0.0801 -4.3935,-4.29513 -9.6044,-9.72272 z"
       id="path139"
       transform="scale(0.26458333)" /></g></svg>
