<?xml version="1.0" encoding="UTF-8" standalone="no"?>
<!-- Created with Inkscape (http://www.inkscape.org/) -->

<svg
   width="64.344391mm"
   height="67.968529mm"
   viewBox="0 0 64.344391 67.968529"
   version="1.1"
   id="svg1"
   xml:space="preserve"
   xmlns="http://www.w3.org/2000/svg"
   xmlns:svg="http://www.w3.org/2000/svg"><defs
     id="defs1" /><g
     id="layer1"
     transform="translate(-711.63126,-54.148584)"><path
       style="fill:#000000"
       d="m 743.84802,122.11711 h -0.3291 l -0.46581,-0.52919 -0.46581,-0.52919 -0.41618,-0.79373 -0.41618,-0.79373 -0.4913,-1.23472 -0.49129,-1.23472 -0.40769,-1.41111 -0.40769,-1.41111 -0.27956,-1.29352 -0.27955,-1.29352 -0.18021,-1.05833 -0.1802,-1.05834 -0.17492,-1.35231 -0.17492,-1.35232 -0.18575,-2.11666 -0.18574,-2.11667 -0.10254,-2.805661 -0.10253,-2.805651 -0.0989,-0.09431 -0.0989,-0.09431 -12.34723,-4.787408 -12.34722,-4.787408 -0.49221,-0.170411 -0.49221,-0.170411 -0.30154,-0.301537 -0.30154,-0.301538 v -0.320709 -0.320707 l 0.29837,-0.29837 0.29837,-0.298371 0.27681,-0.06947 0.27681,-0.06948 4.04033,-0.830562 4.04033,-0.830562 3.29259,-0.707521 3.29259,-0.70752 3.2338,-0.768669 3.2338,-0.768669 0.0411,-0.03819 0.0411,-0.03819 -0.14392,-0.448851 -0.14393,-0.448851 -1.56142,-4.409723 -1.56142,-4.409722 -0.37195,-1.200721 -0.37194,-1.200721 0.20031,-0.422114 0.2003,-0.422114 5.83402,-5.736797 5.83401,-5.736796 0.8479,-0.783656 0.84789,-0.783655 h 0.13387 0.13387 l 0.37055,0.178259 0.37055,0.178259 6.49015,6.495121 6.49015,6.49512 0.0824,0.339492 0.0824,0.339493 -0.31842,1.130415 -0.31843,1.130415 -0.62689,1.646296 -0.6269,1.646297 -0.8286,2.175463 -0.8286,2.175463 -0.29081,0.999537 -0.29081,0.999537 0.13706,0.131049 0.13706,0.13105 2.58704,0.600231 2.58703,0.600232 2.96505,0.652753 2.96504,0.652753 5.14122,1.05597 5.14122,1.05597 0.27019,0.253827 0.27018,0.253827 0.0715,0.225254 0.0715,0.225255 -0.14127,0.341055 -0.14127,0.341055 -2.36825,0.930833 -2.36825,0.930834 -10.64213,4.147501 -10.64213,4.147501 -0.0699,0.10545 -0.0698,0.10545 -0.0782,2.249656 -0.0782,2.249653 -0.12205,1.71244 -0.12206,1.71244 -0.23283,2.11667 -0.23283,2.11666 -0.29397,1.7051 -0.29398,1.70509 -0.36575,1.46991 -0.36574,1.4699 -0.52181,1.5267 -0.52181,1.5267 -0.62036,1.30511 -0.62037,1.30512 -0.44285,0.49018 -0.44285,0.49018 z m -0.10426,-3.76297 h 0.0757 l 0.37178,-0.7552 0.37178,-0.75519 0.46236,-1.40804 0.46236,-1.40804 0.29141,-1.15875 0.29142,-1.15876 0.30467,-1.57415 0.30468,-1.57414 0.22969,-1.83604 0.22968,-1.83604 0.11964,-1.64629 0.11963,-1.6463 4.8e-4,-2.028471 4.8e-4,-2.02848 h -0.108 -0.10801 l -1.31269,0.41158 -1.3127,0.41157 h -0.68706 -0.68705 l -1.15544,-0.39216 -1.15544,-0.39217 -0.32338,-0.0804 -0.32338,-0.0804 5.5e-4,1.44275 5.4e-4,1.442751 0.1185,1.94028 0.1185,1.94028 0.18441,1.64629 0.1844,1.6463 0.2877,1.76389 0.28771,1.76389 0.41468,1.68746 0.41469,1.68746 0.57083,1.60513 0.57083,1.60513 0.1542,0.38218 0.15421,0.38217 z m 0.0989,-21.942654 0.28493,-0.06186 5.10858,-1.822128 5.10858,-1.822129 8.18843,-2.997229 8.18843,-2.997229 0.97014,-0.362978 0.97014,-0.362979 V 85.882972 85.78099 h -0.0883 -0.0884 l -1.99891,-0.229576 -1.99892,-0.229576 -4.08223,-0.588216 -4.08222,-0.588215 -8.26124,3.469811 -8.26123,3.46981 -0.53293,-0.20047 -0.53293,-0.200471 -3.64537,-1.555671 -3.64537,-1.555672 -3.95462,-1.711346 -3.95462,-1.711347 -0.86668,0.113461 -0.86667,0.113461 -4.7625,0.647774 -4.7625,0.647773 -0.64676,0.09428 -0.39871,0.16456 -0.0129,0.03285 0.23519,0.103128 14.05231,5.203003 13.90031,5.121153 z m 0.42007,-7.271296 0.40233,-0.168106 0.85744,-0.497846 0.85744,-0.497845 0.88195,-0.591677 0.88194,-0.591676 0.57726,-0.535421 0.57727,-0.535422 0.5571,-1.175925 0.5571,-1.175926 1.58308,-4.468519 1.58307,-4.468519 1.08511,-3.085635 1.08511,-3.085635 -0.0396,-0.108895 -0.0396,-0.108895 -5.92546,-5.961116 -5.92546,-5.961116 -5.99915,5.999147 -5.99915,5.999147 1.44325,4.09724 1.44325,4.09724 1.35312,3.64537 1.35312,3.645371 0.46779,0.988275 0.46778,0.988276 0.59197,0.567577 0.59197,0.567578 1.15585,0.776874 1.15584,0.776873 1.00796,0.518656 1.00795,0.518657 z"
       id="path140" /><path
       style="fill:#e50919;fill-opacity:1;stroke:#000000;stroke-width:0.954594"
       d="m 2807.0371,335.04382 c -4.9246,-2.64032 -11.0412,-6.78213 -13.9132,-9.42115 -1.7975,-1.65177 -2.4216,-2.58332 -4.1451,-6.18718 -2.2726,-4.75217 -9.3027,-23.56856 -17.4245,-46.63736 l -5.4073,-15.35865 22.5515,-22.54938 22.5514,-22.54938 22.2004,22.39251 c 12.2102,12.31588 22.3173,22.59181 22.4601,22.8354 0.1447,0.24682 -1.4715,5.35254 -3.6507,11.53266 -13.3365,37.82264 -16.3891,46.20908 -18.2628,50.17334 -1.786,3.77879 -2.3995,4.71 -4.2935,6.51652 -1.2153,1.15924 -3.352,2.87704 -4.7482,3.81733 -5.4795,3.69031 -12.744,7.7708 -13.6163,7.64834 -0.1298,-0.0182 -2.0655,-1.01406 -4.3018,-2.213 z"
       id="path141"
       transform="scale(0.26458333)" /><path
       style="fill:#e50919;fill-opacity:1;stroke:#000000;stroke-width:0.954594"
       d="m 2757.0058,344.67344 c -29.3205,-10.8591 -53.3776,-19.8114 -53.4602,-19.89398 -0.2616,-0.26155 1.3697,-0.50412 23.9648,-3.56354 l 22.1198,-2.99507 14.2962,6.19515 c 22.4881,9.74511 44.5733,19.11872 46.118,19.57392 1.4041,0.41376 1.5889,0.3418 32.5525,-12.67622 l 31.1403,-13.09234 16.943,2.43098 c 9.3186,1.33704 19.7669,2.71925 23.2184,3.07158 3.4516,0.35232 6.2756,0.74757 6.2756,0.87831 0,0.13075 -2.0285,0.98398 -4.5078,1.89606 -49.9835,18.38796 -101.8275,37.12134 -104.2499,37.66978 -0.9201,0.20831 -9.85,-2.99115 -54.4107,-19.49463 z"
       id="path142"
       transform="scale(0.26458333)" /><path
       style="fill:#e50919;fill-opacity:1;stroke:#000000;stroke-width:0.954594"
       d="m 2810.4378,446.05332 c -2.0941,-5.01183 -5.3943,-15.19225 -6.7197,-20.72859 -3.5158,-14.68649 -5.846,-34.86312 -5.8658,-50.7913 l -0.01,-6.0668 1.6794,0.45251 c 0.9237,0.24887 3.3256,1.02997 5.3375,1.73576 5.2969,1.85812 7.6709,1.80722 14.3543,-0.30772 2.7652,-0.87505 5.1337,-1.59099 5.2633,-1.59099 0.4396,0 0.2375,13.57571 -0.3078,20.68287 -1.0474,13.64953 -2.9253,26.05275 -5.5135,36.416 -1.604,6.42208 -4.771,15.93922 -6.2937,18.91267 l -1.3567,2.64921 z"
       id="path143"
       transform="scale(0.26458333)" /></g></svg>
