<?xml version="1.0" encoding="UTF-8" standalone="no"?>
<!-- Created with Inkscape (http://www.inkscape.org/) -->

<svg
   width="58.405994mm"
   height="67.10466mm"
   viewBox="0 0 58.405994 67.10466"
   version="1.1"
   id="svg1"
   xml:space="preserve"
   xmlns="http://www.w3.org/2000/svg"
   xmlns:svg="http://www.w3.org/2000/svg"><defs
     id="defs1" /><g
     id="layer1"
     transform="translate(-676.30147,-66.378404)"><path
       style="fill:#000000"
       d="m 705.75618,137.25856 -0.88194,0.0568 -0.63153,-0.22583 -0.63152,-0.22584 -0.40006,-0.40006 -0.40005,-0.40005 -1.58191,-6.22781 -1.58191,-6.2278 -1.44346,-5.68609 -1.44345,-5.68609 -12.52362,-7.61264 -12.52361,-7.612628 -0.44097,-0.411436 -0.44097,-0.411435 v -0.267606 -0.267606 l 0.4143,-0.56439 0.4143,-0.564389 3.78963,-3.631753 3.78964,-3.631753 2.05787,-1.935365 2.05787,-1.935366 3.05741,-2.824738 3.0574,-2.824738 4.40973,-4.048489 4.40972,-4.048488 3.13551,-2.914493 3.13551,-2.914493 0.31173,-0.118519 0.31173,-0.118519 h 0.4086 0.4086 l 0.44575,0.227404 0.44575,0.227404 1.16567,1.036716 1.16567,1.036717 2.38782,2.31908 2.38781,2.31908 3.19863,2.976416 3.19863,2.976416 4.9378,4.582282 4.93779,4.582283 3.1761,3.008926 3.17609,3.008927 1.85487,1.81237 1.85486,1.81237 -0.003,0.342157 -0.003,0.342157 -0.44098,0.408896 -0.44097,0.408897 -12.52237,7.557576 -12.52237,7.55758 -0.091,0.15803 -0.091,0.15804 -2.92684,11.87646 -2.92683,11.87647 -0.41796,0.36129 -0.41796,0.3613 -0.44598,0.14476 -0.44599,0.14476 z m -0.24265,-3.83159 h 0.11595 l 0.1843,-0.61736 0.1843,-0.61736 0.22953,-1.29352 0.22952,-1.29352 0.2896,-2.17546 0.2896,-2.17547 0.18315,-1.99907 0.18315,-1.99907 0.29499,-4.23334 0.29499,-4.23333 0.16935,-1.94028 0.16935,-1.94028 0.25454,-4.17453 0.25454,-4.17454 0.0748,-0.0821 0.0748,-0.0821 3.21204,-1.645365 3.21205,-1.645368 1.13888,-0.760321 1.13888,-0.760321 0.47037,-0.419096 0.33394,-0.435632 -0.0198,-0.08789 -0.15629,-0.104421 -1.1151,-0.209899 -1.1151,-0.209898 -1.43325,0.0711 -1.43324,0.0711 -1.40244,0.238204 -1.40243,0.238203 -1.46626,0.119064 -1.46626,0.119064 -1.71742,-4.78e-4 -1.71741,-4.79e-4 -1.6463,-0.123232 -1.6463,-0.123232 -2.02076,-0.287864 -2.02077,-0.287863 h -1.0531 -1.05309 l -1.1514,0.236909 -1.15139,0.236909 -0.0669,0.06898 -0.0669,0.06898 0.50155,0.433799 0.50154,0.433798 1.20355,0.752825 1.20355,0.752825 3.23216,1.665817 3.23217,1.665822 0.90245,12.04051 0.90246,12.04051 0.31088,2.41065 0.31089,2.41065 0.35227,1.74228 0.35227,1.74229 0.1088,0.28618 0.10881,0.28619 z m -5.66353,-28.12948 0.14983,0.0249 -0.0322,-1.96274 -0.0322,-1.96273 -2.52824,-1.3039 -2.52825,-1.303903 -0.76435,-0.516867 -0.76435,-0.516866 -0.92249,-0.890804 -0.9225,-0.890803 -1.23291,-1.621857 -1.24739,-1.570181 -0.18197,0.0071 -0.19644,0.05876 -2.41065,0.539146 -2.41065,0.539145 -0.21755,0.06547 -0.0772,0.07716 0.25362,0.400443 0.39395,0.412135 1.05518,0.899122 1.05519,0.899123 1.47305,1.334091 1.47306,1.334091 3.38499,2.899255 3.38498,2.89924 1.84789,0.0633 1.84788,0.0633 z m 12.98826,-0.0653 1.79616,-0.0314 0.26437,-0.059 0.26437,-0.059 2.55785,-2.1978 2.55786,-2.1978 3.29259,-2.884129 3.29259,-2.884127 0.3817,-0.379539 0.24526,-0.358867 -0.30406,-0.138692 -0.44049,-0.118021 -2.40986,-0.581987 -2.33545,-0.561317 -0.0513,0.08542 -0.12161,0.09369 -1.13685,1.43379 -1.11617,1.462729 -0.82941,0.823149 -0.82941,0.823148 -0.92981,0.640832 -0.9298,0.640833 -2.47508,1.300558 -2.47507,1.30056 -0.0323,1.93916 -0.0323,1.93916 z m -35.47947,-9.792751 0.82192,-0.0052 0.41158,-0.151895 0.41157,-0.151896 1.29352,-0.9132 1.29352,-0.913201 2.03995,-1.352468 2.03996,-1.352467 4.13365,-2.650472 4.13366,-2.650471 0.35278,-0.189072 0.35278,-0.189072 0.0392,-0.08819 0.0392,-0.08819 h 0.18623 0.18622 l 0.74698,-0.410593 0.74698,-0.410592 1.79103,-1.159203 1.79102,-1.159203 1.5875,-0.918224 1.5875,-0.918223 0.47037,-0.318111 0.47037,-0.318112 0.49509,-0.251277 0.49508,-0.251277 h 0.32031 0.32031 l 4.59387,2.754155 4.59386,2.754156 2.8271,1.754172 2.8271,1.754172 2.46457,1.564223 2.46457,1.564224 3.54479,2.340489 3.5572,2.286746 0.91132,0.01917 0.92372,-0.03457 -3.41018,-3.336578 -3.41019,-3.336579 -11.07189,-11.123584 -11.07189,-11.123585 -12.44663,12.36493 -12.44663,12.36493 -2.11544,2.124631 -2.11544,2.124631 z m 28.1622,-4.233346 0.99954,0.0035 0.99783,-0.239196 0.99783,-0.239196 0.98308,-0.306506 0.98307,-0.306507 -0.0708,-0.364816 -0.0708,-0.364816 -0.51956,-1.079978 -0.51957,-1.079978 -0.58403,-0.8603 -0.58403,-0.8603 -0.33613,-0.311503 -0.33613,-0.311502 -0.58158,-0.364655 -0.58159,-0.364655 h -0.62765 -0.62764 l -0.55466,0.281388 -0.55466,0.281388 -0.65296,0.688751 -0.65297,0.688751 -0.36057,0.529166 -0.36057,0.529167 -0.50017,0.99617 -0.50017,0.99617 -0.15695,0.444864 -0.0576,0.41563 0.33655,0.213861 0.43594,0.184628 1.5287,0.39846 1.52871,0.398461 z"
       id="path144" /><path
       style="fill:#c61d1e;fill-opacity:1;stroke:#000000;stroke-width:0.954594"
       d="m 2583.3209,334.71027 c 14.3381,-14.23476 39.0604,-38.76841 54.9384,-54.51921 l 28.8692,-28.63782 45.1172,45.28259 c 24.8144,24.90543 49.2694,49.34859 54.3443,54.31814 l 9.2271,9.03554 -1.5867,0.21747 c -4.1695,0.5715 -3.4363,0.91742 -16.8687,-7.95889 -22.531,-14.88884 -44.5982,-28.71838 -72.8876,-45.67875 -13.3439,-8.00013 -16.5535,-9.78449 -17.5993,-9.78449 -1.3174,0 -4.8228,1.57269 -6.7391,3.02346 -0.5834,0.44164 -4.004,2.50377 -7.6014,4.58251 -3.5974,2.07875 -9.4841,5.69234 -13.0815,8.03022 -7.3604,4.78337 -11.8481,6.94385 -12.7946,7.52156 -0.3549,0.21661 -0.7393,0.31491 -1.0317,0.48243 -0.2669,0.1529 -1.0494,0.59046 -1.73,0.93857 -3.6775,1.88094 -43.6191,27.87336 -53.2098,34.62685 -5.5221,3.88847 -6.8467,4.43957 -10.6184,4.41761 l -2.8166,-0.0164 z"
       id="path145"
       transform="scale(0.26458333)" /><path
       style="fill:#c61d1e;fill-opacity:1;stroke:#000000;stroke-width:0.954594"
       d="m 2658.0144,343.27572 c -2.9168,-0.76089 -6.3067,-1.73564 -7.5332,-2.16611 -2.7039,-0.94907 -2.7127,-0.73487 0.2836,-6.91621 2.6495,-5.46624 4.3883,-8.07384 7.5604,-11.33854 3.2485,-3.34325 5.7176,-4.65681 8.7534,-4.65681 1.9775,0 2.4333,0.15197 4.6947,1.56517 2.939,1.83669 3.9886,2.90362 6.7019,6.81241 2.1058,3.03367 6.0102,10.79217 6.4029,12.72332 l 0.2288,1.12513 -3.47,1.1132 c -11.1978,3.59233 -15.3456,3.89758 -23.6225,1.73844 z"
       id="path146"
       transform="scale(0.26458333)" /><path
       style="fill:#c61d1e;fill-opacity:1;stroke:#000000;stroke-width:0.954594"
       d="m 2665.9849,503.48904 c -0.2055,-0.38384 -1.0056,-3.78669 -1.7782,-7.56188 -2.6397,-12.89921 -3.6316,-22.63591 -7.262,-71.28629 -1.8492,-24.78014 -3.3991,-45.08119 -3.4443,-45.11343 -0.045,-0.0323 -5.545,-2.87449 -12.2217,-6.3161 -10.5409,-5.43348 -18.8502,-10.15775 -21.5269,-12.23917 -1.7019,-1.32345 -3.3465,-2.87389 -3.2019,-3.01852 0.084,-0.0838 2.1112,-0.55128 4.5052,-1.03887 5.9406,-1.20989 10.2948,-1.17606 19.5049,0.15155 18.8398,2.71572 35.4562,2.79043 50.0806,0.22518 2.9079,-0.51008 7.2495,-0.96441 10.5524,-1.1043 4.9339,-0.20896 6.1029,-0.14437 9.6776,0.53467 2.2362,0.42478 4.225,0.93343 4.4194,1.13034 0.237,0.2399 -0.1713,0.82356 -1.2374,1.76922 -3.6149,3.20646 -10.183,7.15509 -21.9517,13.19698 -6.6914,3.4353 -12.3991,6.47218 -12.6838,6.74862 -0.4083,0.39648 -0.7205,3.84388 -1.4784,16.32425 -0.5285,8.7019 -1.2918,19.64001 -1.6962,24.30691 -0.4045,4.66691 -1.2144,15.40609 -1.7998,23.86486 -0.5854,8.45876 -1.3693,18.6411 -1.742,22.62741 -1.5489,16.56586 -4.7844,36.53364 -6.0462,37.31348 -0.1629,0.10064 -0.4642,-0.13107 -0.6696,-0.51491 z"
       id="path147"
       transform="scale(0.26458333)" /><path
       style="fill:#c61d1e;fill-opacity:1;stroke:#000000;stroke-width:0.954594"
       d="m 2635.7839,397.48297 -4.9063,-0.1095 -13.3017,-11.41029 c -7.3159,-6.27567 -15.2904,-13.21714 -17.7211,-15.42549 -2.4306,-2.20836 -6.5672,-5.88103 -9.1923,-8.1615 -5.0124,-4.35431 -7.3057,-6.58473 -7.0417,-6.8487 0.087,-0.0868 4.4511,-1.1238 9.6985,-2.30445 5.2474,-1.18065 9.859,-2.22296 10.2479,-2.31626 0.575,-0.13795 1.4995,0.89436 4.9497,5.52675 4.8344,6.49083 10.12,11.91531 14.689,15.07485 1.6438,1.13667 7.2227,4.24217 12.3976,6.90111 l 9.409,4.83443 0.2254,1.64431 c 0.1239,0.90437 0.2253,4.1677 0.2253,7.25182 v 5.60751 l -2.3864,-0.0776 c -1.3126,-0.0426 -4.5944,-0.12682 -7.2929,-0.18704 z"
       id="path148"
       transform="scale(0.26458333)" /><path
       style="fill:#c61d1e;fill-opacity:1;stroke:#000000;stroke-width:0.954594"
       d="m 2687.5794,394.12364 c 0.024,-1.99316 0.1432,-5.26412 0.2652,-7.2688 l 0.2218,-3.64487 9.546,-5.03941 c 5.2502,-2.77167 11.0573,-6.09147 12.9047,-7.37733 4.4425,-3.09233 8.5661,-7.34478 13.8032,-14.23464 2.9222,-3.84442 4.4866,-5.62224 4.8827,-5.54882 1.8058,0.33475 19.6236,4.70097 19.9126,4.87954 0.1943,0.1201 -0.014,0.60299 -0.4766,1.10346 -1.0627,1.15044 -23.0403,20.43818 -35.9534,31.55318 l -10.0291,8.63253 -5.3505,0.25847 c -2.9428,0.14215 -6.3449,0.27019 -7.5602,0.28453 l -2.2097,0.0261 z"
       id="path149"
       transform="scale(0.26458333)" /></g></svg>
