<?xml version="1.0" encoding="UTF-8" standalone="no"?>
<!-- Created with Inkscape (http://www.inkscape.org/) -->

<svg
   width="274.08231mm"
   height="296.83383mm"
   viewBox="0 0 274.08231 296.83383"
   version="1.1"
   id="svg1"
   xml:space="preserve"
   xmlns="http://www.w3.org/2000/svg"
   xmlns:svg="http://www.w3.org/2000/svg"><defs
     id="defs1" /><g
     id="layer1"
     transform="translate(-790.80937,113.88932)"><path
       style="fill:#000000"
       d="m 798.3009,182.93673 -0.43518,-0.008 -0.53748,-0.14492 -0.53747,-0.14492 -0.5326,-0.31212 -0.5326,-0.31213 -0.65935,-0.71217 -0.65935,-0.71218 -0.4299,-0.76874 -0.42991,-0.76874 -0.39592,-0.93876 -0.39592,-0.93876 -0.34616,-1.20169 -0.34615,-1.20168 -0.24876,-1.16554 -0.24877,-1.16555 -0.2248,-1.53908 -0.2248,-1.53909 -0.15119,-1.46991 -0.15118,-1.46991 -0.002,-3.70416 -0.002,-3.70417 0.21553,-1.5287 0.21553,-1.52871 0.45934,-2.33035 0.45934,-2.33036 0.60182,-2.37334 0.60181,-2.37335 0.69925,-2.35186 0.69925,-2.35185 0.94346,-2.82222 0.94346,-2.82222 1.11397,-2.98236 1.11396,-2.98237 0.80544,-2.01532 0.80545,-2.01532 1.05186,-2.46945 1.05187,-2.46944 1.27733,-2.82222 1.27733,-2.82222 2.02455,-4.05695 2.02456,-4.05694 1.227,-2.23426 1.22699,-2.23426 1.03144,-1.76389 1.03143,-1.763893 1.3133,-2.06449 1.31331,-2.06449 1.27427,-1.787 1.27428,-1.786995 1.21989,-1.469773 1.21989,-1.469774 1.33554,-1.329359 1.33554,-1.329359 1.10369,-0.926795 1.10369,-0.926796 1.56,-1.162892 1.56,-1.162893 1.6738,-1.068977 1.6738,-1.068977 2.05787,-1.165754 2.05787,-1.165754 3.29259,-1.626769 3.29259,-1.626768 4.80075,-2.1883 4.80075,-2.188299 2.44969,-1.169266 2.44969,-1.169265 1.92178,-1.020274 1.92179,-1.020273 0.76343,-0.463454 0.76343,-0.463454 0.70648,-0.506522 0.70647,-0.506522 0.88195,-0.777308 0.88194,-0.777309 0.85697,-0.969827 0.85698,-0.969827 0.82213,-1.215092 0.82214,-1.215091 0.69695,-1.430742 0.69696,-1.430742 0.45985,-1.352314 0.45986,-1.352315 0.24454,-1.058333 0.24453,-1.058334 0.18008,-1.234722 0.18007,-1.234722 0.0752,-1.646296 0.0752,-1.646296 -0.13606,-1.5875 -0.13606,-1.5875 -0.28481,-1.411111 -0.28482,-1.411111 -0.66153,-2.351852 -0.66154,-2.351852 -0.33041,-1.293518 -0.3304,-1.293519 -0.21281,-1.175926 -0.21282,-1.175925 -0.005,-2.23426 -0.005,-2.234259 0.21312,-0.999537 0.21312,-0.999537 0.41026,-1.234722 0.41026,-1.234722 0.5914,-1.206203 0.59139,-1.206203 0.90189,-1.343266 0.90189,-1.343267 0.97696,-1.177131 0.97696,-1.177131 1.69862,-1.647204 1.69862,-1.6472043 1.73414,-1.390544 1.73415,-1.390543 1.41111,-1.007847 1.41111,-1.007848 1.23472,-0.82036 1.23472,-0.8203607 1.99908,-1.2378539 1.99907,-1.2378539 2.58704,-1.4739261 2.58704,-1.473926 4.11574,-2.2627995 4.11574,-2.2627995 1.5287,-0.8832467 1.52871,-0.8832468 1.70509,-1.0606436 1.70509,-1.060644 1.82269,-1.238144 1.82268,-1.238144 1.70509,-1.235408 1.7051,-1.235408 1.46991,-1.120337 1.4699,-1.120338 1.99908,-1.584362 1.99907,-1.584361 1.6463,-1.352383 1.64629,-1.352383 3.55479,-2.991428 3.55478,-2.991428 -0.30174,-0.366911 -0.30174,-0.366911 -0.7836,-0.678191 -0.7836,-0.678191 -0.78554,-0.397532 -0.78555,-0.397532 -0.84291,-0.142176 -0.84292,-0.142176 -0.89395,0.132959 -0.89395,0.132959 -1.05995,0.363936 -1.05995,0.363936 -1.51313,0.684641 -1.51312,0.684641 -1.19572,0.67406 -1.19572,0.67406 -3.1162,1.897047 -3.1162,1.897047 -1.41111,0.809172 -1.41112,0.809172 -1.29351,0.612628 -1.29352,0.612629 -0.98841,0.310041 -0.98841,0.310042 -1.07083,0.0029 -1.07083,0.0029 -0.55003,-0.123266 -0.55004,-0.123266 -0.62215,-0.245229 -0.62215,-0.245229 -0.76673,-0.510235 -0.76672,-0.510235 -0.89491,-0.921337 -0.89491,-0.921337 -0.73405,-1.11713 -0.73405,-1.117129 -0.58413,-1.208858 -0.58413,-1.208857 -0.5702,-1.730957 -0.5702,-1.730958 -0.2609,-1.293518 -0.2609,-1.293518 -0.0561,-2.377796 -0.0561,-2.377796 0.13522,-1.149982 0.13523,-1.149982 0.23713,-1.175926 0.23713,-1.175925 0.52821,-1.5875 0.52821,-1.5875 0.68941,-1.411111 0.68942,-1.411111 0.66695,-1.058334 0.66695,-1.058333 0.7967,-1.058333 0.7967,-1.058333 1.02689,-1.147758 1.02688,-1.147757 1.48119,-1.300316 1.48119,-1.300315 1.21053,-0.882191 1.21054,-0.882191 1.49997,-0.939526 1.49998,-0.939526 2.06,-1.026715 2.05999,-1.026715 1.29352,-0.51299 1.29352,-0.51299 1.5287,-0.518289 1.52871,-0.51829 1.76388,-0.458128 1.76389,-0.458127 1.17593,-0.233742 1.17593,-0.233742 1.23472,-0.179279 1.23472,-0.179279 1.34297,-0.125292 1.34296,-0.125291 2.4788,0.0014 2.47879,0.0014 1.23472,0.123207 1.23472,0.123208 1.44819,0.240055 1.44819,0.240054 1.78561,0.454337 1.78561,0.454337 1.76389,0.610141 1.76388,0.61014 1.61757,0.691192 1.61757,0.691192 1.79262,0.896625 1.79262,0.896625 1.75612,0.997403 1.75612,0.997403 1.71286,1.067129 1.71286,1.067129 2.11667,1.410576 2.11666,1.410576 3.175,2.195107 3.175,2.195108 0.25686,0.136338 0.25685,0.136338 0.5075,0.0012 0.5075,0.0012 2.11929,-2.147229 2.1193,-2.147229 3.58091,-3.939352 3.58092,-3.939351 2.23729,-2.414386 2.23729,-2.414386 1.697,-1.877744 1.69701,-1.877743 1.75278,-2.041844 1.75279,-2.041845 1.32273,-1.662322 1.3228,-1.662322 0.8328,-1.125621 0.8327,-1.125621 1.0366,-1.579008 1.0365,-1.579009 0.834,-1.646296 0.834,-1.646297 0.4339,-1.352314 0.4338,-1.352315 0.2415,-1.11713 0.2416,-1.117129 0.4034,-2.763426 0.4034,-2.763427 0.1891,-0.94074 0.1891,-0.94074 0.2954,-0.94074 0.2955,-0.94074 0.4701,-0.94074 0.47,-0.94074 0.5825,-0.78979 0.5825,-0.78978 0.895,-0.83586 0.8951,-0.83586 1.0643,-0.70118 1.0643,-0.70118 1.1781,-0.57475 1.178,-0.57476 1.176,-0.40493 1.1759,-0.40492 1.0583,-0.24278 1.0583,-0.24278 1.1512,-0.14059 1.1512,-0.14059 2.259,0.0607 2.259,0.0607 1.5875,0.30326 1.5875,0.30326 1.3523,0.40064 1.3523,0.40064 1.176,0.43324 1.1759,0.43323 2.3519,1.16398 2.3518,1.16399 1.2656,0.79889 1.2656,0.7989 1.4567,1.03459 1.4568,1.0346 1.4985,1.2438 1.4986,1.24379 1.4116,1.36698 1.4116,1.36697 1.0746,1.186395 1.0747,1.18639 0.9188,1.142331 0.9188,1.14233 0.8819,1.257853 0.882,1.257853 0.7706,1.293518 0.7705,1.293519 0.7922,1.5875 0.7922,1.5875 0.425,1.088257 0.425,1.088257 0.2868,1.103866 0.2868,1.103865 0.1406,1.249581 0.1407,1.249582 -0.1365,1.203203 -0.1364,1.203203 -0.2421,0.863972 -0.242,0.863971 -0.3998,0.933975 -0.3997,0.933974 -0.4923,0.847887 -0.4923,0.847887 -0.5879,0.881945 -0.588,0.881944 -0.907,1.175926 -0.9069,1.175926 -1.6123,1.881481 -1.6123,1.881482 -2.1356,2.348396 -2.1357,2.348396 -2.1166,2.233806 -2.1167,2.233806 -2.7046,2.78257 -2.7046,2.782571 -4.9389,5.042931 -4.9389,5.042931 -2.8347,2.996925 -2.8347,2.996926 -1.3626,1.4991 -1.3626,1.4991 -1.6272,1.852289 -1.6272,1.852288 -1.2396,1.469907 -1.2395,1.469908 -1.2383,1.545027 -1.2383,1.545027 -1.3697,1.813457 -1.3696,1.813458 v 0.348948 0.348947 l 0.8581,0.943693 0.8582,0.943692 1.1248,1.346097 1.1248,1.346097 0.9724,1.293519 0.9724,1.2935183 1.2066,1.8226851 1.2066,1.8226851 0.9004,1.5715281 0.9005,1.5715282 0.8134,1.6237098 0.8134,1.6237097 0.7178,1.6848545 0.7177,1.6848549 0.7526,2.208006 0.7527,2.208006 0.5209,2.0841233 0.5209,2.084123 0.3028,1.763889 0.3027,1.763889 0.1989,1.822685 0.1989,1.822685 v 2.998611 2.998611 l -0.1452,1.411111 -0.1452,1.411111 -0.2924,1.82 -0.2924,1.82 -0.4041,1.676083 -0.404,1.676083 -0.6001,1.829911 -0.6001,1.829911 -0.567,1.376783 -0.567,1.376784 -0.5876,1.252853 -0.5877,1.252854 -0.6768,1.216591 -0.6769,1.216591 -1.0929,1.660737 -1.0928,1.660737 -0.9625,1.220281 -0.9625,1.220282 -1.8962,1.886277 -1.8963,1.886278 -1.3523,1.002534 -1.3523,1.002534 -0.8819,0.561453 -0.882,0.561453 -1.7639,0.868838 -1.7639,0.868838 -1.7639,0.580824 -1.7638,0.580824 -1.5287,0.296906 -1.5288,0.296907 -1.21774,0.124231 -1.21778,0.124232 h -1.86498 -1.86498 l -1.32575,-0.184911 -1.32576,-0.18491 -1.52991,-0.392351 -1.52991,-0.392351 -1.27676,-0.479828 -1.27675,-0.479828 -1.13389,-0.554803 -1.1339,-0.554804 -1.23061,-0.822361 -1.23061,-0.822361 -0.94485,-0.95309 -0.94485,-0.953089 -0.39448,-0.666216 -0.39448,-0.666215 -0.28008,-0.693424 -0.28009,-0.693423 -0.13348,-0.897462 -0.13348,-0.897462 0.12961,-0.871453 0.12961,-0.871453 0.24403,-0.652225 0.24403,-0.652224 0.57306,-0.877846 0.57307,-0.877846 0.86087,-0.908595 0.86088,-0.908595 1.88148,-1.653141 1.88148,-1.653141 0.80274,-0.828175 0.80273,-0.828176 0.86193,-1.058333 0.86192,-1.058333 0.78692,-1.175926 0.78692,-1.175926 0.75013,-1.528703 0.75014,-1.528704 0.41342,-1.247123 0.41343,-1.247124 0.23781,-1.155787 0.23782,-1.155788 0.0985,-1.477645 0.0986,-1.477644 -0.0552,-0.512946 -0.0552,-0.512946 -0.37908,0.06151 -0.37907,0.06151 -1.4594,0.657704 -1.4594,0.657704 -1.82269,1.008716 -1.82269,1.008717 -0.38948,0.295871 -0.38947,0.295872 -0.12024,0.311824 -0.12024,0.311824 -0.27195,1.091555 -0.27194,1.091554 -0.32586,0.644053 -0.32587,0.644053 -0.61018,0.73976 -0.61019,0.739761 -0.75173,0.596292 -0.75173,0.596292 -0.82315,0.504913 -0.82315,0.504913 -1.05833,0.496076 -1.05834,0.496075 -1.5875,0.591922 -1.5875,0.591923 -3.12075,0.950146 -3.12076,0.950145 -2.52369,0.948339 -2.52369,0.948339 -1.88148,0.774754 -1.88148,0.774753 -2.19009,1.021112 -2.19008,1.021113 -1.74927,0.968923 -1.74927,0.968924 -1.64629,1.098756 -1.6463,1.098756 -0.95265,0.768384 -0.95266,0.768385 -1.05941,1.067503 -1.0594,1.067504 -0.67392,0.935993 -0.67392,0.935993 -0.40252,0.795036 -0.40251,0.795036 -0.35884,1.113343 -0.35884,1.113343 -0.50875,2.061657 -0.50875,2.061657 -0.48898,2.52824 -0.48897,2.528241 -0.65059,3.339491 -0.65059,3.33949 -0.50974,2.010972 -0.50973,2.010972 -1.13688,3.880556 -1.13689,3.880555 -0.99956,3.233796 -0.99955,3.233795 -0.87337,2.61798 -0.87336,2.61798 -0.77408,2.144522 -0.77408,2.14452 -0.99986,2.52824 -0.99985,2.52824 -0.88509,1.99908 -0.88509,1.99907 -1.15357,2.30608 -1.15357,2.30608 -0.90144,1.57448 -0.90144,1.57447 -1.21627,1.82269 -1.21627,1.82268 -1.03005,1.28552 -1.03006,1.28552 -1.1814,1.19398 -1.18139,1.19397 -1.23472,0.9812 -1.23472,0.9812 -1.56415,1.02871 -1.56414,1.0287 -1.55206,0.76092 -1.55206,0.76091 -1.07074,0.41712 -1.07073,0.41712 -1.45751,0.41378 -1.4575,0.41379 -1.17593,0.23505 -1.17593,0.23505 -1.5287,0.20708 -1.5287,0.20708 -4.58611,-0.001 -4.58612,-10e-4 -4.17453,-0.27633 -4.17454,-0.27633 -3.58657,-0.003 -3.58658,-0.003 -1.46991,0.14216 -1.4699,0.14216 -1.51043,0.22845 -1.51042,0.22845 -1.3385,0.3002 -1.3385,0.3002 -1.32561,0.41602 -1.32562,0.41602 -1.82268,0.71412 -1.82269,0.71412 -2.82222,1.42905 -2.82222,1.42906 -1.82269,1.09353 -1.82268,1.09354 -2.17547,1.44183 -2.17546,1.44183 -2.22037,1.60737 -2.22037,1.60737 -1.83657,1.42928 -1.83658,1.42928 -2.12477,1.73599 -2.12477,1.73599 -2.22616,1.90819 -2.22615,1.90819 -2.11667,1.88589 -2.11667,1.88589 -2.52824,2.31468 -2.52824,2.31468 -1.47664,1.51064 -1.47665,1.51064 -2.69789,2.81244 -2.69789,2.81243 -1.5875,1.46189 -1.5875,1.4619 -1.14814,0.86776 -1.14813,0.86777 -0.96853,0.46236 -0.96854,0.46236 -0.62315,0.12819 -0.62315,0.12818 z m 6.14486,-20.73062 0.35765,-0.11576 3.12532,-2.86999 3.47258,-3.49838 3.40396,-3.51447 3.40397,-3.51447 2.17546,-2.07225 2.17546,-2.07226 1.7051,-1.51641 1.70509,-1.5164 2.35185,-1.96266 2.35185,-1.96265 1.91127,-1.48201 1.91127,-1.48201 1.49892,-1.08975 1.49891,-1.08974 1.11713,-0.68306 1.11713,-0.68305 0.90755,-0.35001 0.90755,-0.35 h 0.35657 0.35657 v -0.12533 -0.12532 l -0.12173,-0.22746 -0.12173,-0.22745 h 0.36465 0.36464 l 0.25686,-0.13579 0.25685,-0.13579 0.52917,-0.46499 0.52916,-0.465 1.51501,-0.76024 1.51501,-0.76024 1.30722,-0.53691 1.30721,-0.53692 1.35231,-0.45894 1.35232,-0.45895 1.44811,-0.41113 1.44812,-0.41113 1.55049,-0.35289 1.5505,-0.35288 1.99908,-0.34217 1.99907,-0.34217 2.11667,-0.23568 2.11666,-0.23568 1.94028,-0.12281 1.94028,-0.12282 2.70463,0.002 2.70463,0.002 1.76389,0.11665 1.76389,0.11666 1.70509,0.18774 1.70509,0.18775 1.29352,0.48753 1.29352,0.48753 1.76389,-0.009 1.76389,-0.009 1.2069,-0.25799 1.20689,-0.25799 1.37241,-0.416 1.37241,-0.41599 1.36005,-0.53236 1.36004,-0.53236 2.11667,-1.03835 2.11666,-1.03835 1.24456,-0.75508 1.24456,-0.75507 0.87211,-0.64601 0.87211,-0.64601 1.23472,-1.12424 1.23472,-1.12424 0.66913,-0.6889 0.66914,-0.68889 0.77267,-1.23472 0.77268,-1.23472 1.68372,-3.35139 1.68372,-3.35139 0.89602,-2.11667 0.89602,-2.116663 0.83641,-2.23341 0.83641,-2.23341 0.92721,-2.764277 0.92721,-2.764277 1.60011,-5.115277 1.60011,-5.115278 1.27879,-3.880555 1.27878,-3.880555 0.35783,-1.763889 0.35783,-1.763889 0.29732,-2.263657 0.29732,-2.263658 0.29768,-2.263657 0.29768,-2.263657 0.34356,-1.705093 0.34356,-1.705092 0.3038,-1.045552 0.3038,-1.045553 0.42071,-1.12991 0.4207,-1.129911 0.75231,-1.484915 0.75231,-1.484915 0.81541,-1.219715 0.8154,-1.219714 0.79261,-0.999537 0.79261,-0.999537 1.71259,-1.709665 1.71259,-1.709665 1.29351,-1.027728 1.29352,-1.027727 1.7051,-1.157036 1.70509,-1.157035 1.64629,-0.965318 1.6463,-0.965319 2.46945,-1.213697 2.46944,-1.213698 1.84047,-0.776738 1.84046,-0.776739 1.56972,-0.595519 1.56972,-0.595519 2.13511,-0.751704 2.13512,-0.751705 1.45146,-0.412772 1.45146,-0.412773 2.52824,-0.360774 2.52824,-0.360774 0.68513,-0.189882 0.68512,-0.189883 0.33995,-0.339951 0.33995,-0.33995 0.40278,-0.847362 0.40278,-0.847362 0.64974,-1.352315 0.64973,-1.352315 0.59495,-0.662584 0.59495,-0.662585 1.09043,-0.878942 1.09042,-0.878942 1.08347,-0.722298 1.08347,-0.722297 1.39011,-0.793583 1.39012,-0.793583 2.37711,-1.233361 1.92108,-0.976115 0.11693,-0.251214 0.0351,-0.147007 10e-4,-0.237895 -0.18564,-0.214511 -0.18551,0.03607 -0.32584,0.117925 -0.18484,0.07537 -0.18484,0.07537 -0.1388,-0.304635 -0.1388,-0.304635 -0.38192,-0.156823 -0.38191,-0.156823 -1.17593,-0.129878 -1.17592,-0.129878 -2.35185,-0.1330093 -2.35186,-0.133009 -5.58565,-0.01048 -5.58564,-0.01048 -1.43643,0.2018063 -1.43643,0.201806 -1.62098,0.298334 -1.62098,0.298334 -2.11667,0.455618 -2.11666,0.455619 -3.41019,0.78601 -3.41018,0.786009 -2.46945,0.698256 -2.46944,0.698257 -0.19611,0.059 -0.1961,0.059 -0.31466,-0.412538 -0.31465,-0.412537 0.38088,-1.150415 0.38088,-1.150415 0.87785,-2.2930553 0.87785,-2.293056 0.33129,-0.940741 0.33129,-0.94074 0.35097,-1.186001 0.35096,-1.186001 0.20082,-1.2806888 0.20083,-1.280689 -0.0635,-2.0018285 -0.0635,-2.0018286 -0.24531,-1.0583333 -0.24531,-1.0583333 -0.36643,-1.1171295 -0.36642,-1.1171296 -1.11521,-2.7604671 -1.11522,-2.760468 -0.0872,-0.943699 -0.0872,-0.943699 -0.44775,-1.038953 -0.44775,-1.038953 -0.44955,-0.695537 -0.36687,-0.298663 -0.31758,-0.198438 -0.38372,0.06615 -4.14065,3.896862 -4.1241,4.161444 -1.62989,1.3360089 -1.62988,1.3360088 -0.58711,0.4412129 -0.5871,0.441213 -0.66403,0.1814748 -0.66403,0.1814749 -0.39602,0.1757638 -0.39603,0.1757638 -1.19147,1.1104948 -1.19148,1.1104948 -1.29352,1.0096591 -1.29351,1.009659 -2.35186,1.5635461 -2.35185,1.5635461 -2.17546,1.2887378 -2.17546,1.2887381 -3.52778,1.978694 -3.52778,1.978695 -2.70463,1.553973 -2.70463,1.5539723 -3.41019,1.85683 -3.41018,1.856829 -1.5875,0.941406 -1.5875,0.941406 -0.88195,0.587182 -0.88194,0.587183 -1.5875,1.255847 -1.5875,1.255847 -0.7472,0.519067 -0.74719,0.519066 -0.29101,0.705556 -0.29101,0.705555 -0.29217,1.11713 -0.29217,1.11713 -0.0646,1.763888 -0.0646,1.763889 0.18757,1.411111 0.18756,1.411111 0.40748,1.646297 0.40748,1.646296 0.7724,2.514341 0.77239,2.514342 0.29399,1.159791 0.29399,1.159791 0.23506,1.374936 0.23506,1.374936 0.0723,1.712505 0.0723,1.712505 -0.14104,1.705093 -0.14104,1.705092 -0.2843,1.546234 -0.28431,1.546235 -0.42233,1.39358 -0.42232,1.393581 -0.52761,1.293518 -0.52761,1.293519 -0.64953,1.234722 -0.64953,1.234722 -0.96876,1.469907 -0.96875,1.469908 -0.94016,1.175925 -0.94015,1.175926 -1.30071,1.411111 -1.3007,1.411111 -1.57185,1.428666 -1.57184,1.428665 -1.23472,1.030146 -1.23472,1.030146 -1.05833,0.699174 -1.05834,0.699173 -2.52824,1.256451 -2.52824,1.256451 -1.85688,0.849298 -1.85689,0.849297 -4.33053,1.872312 -4.33054,1.872312 -1.75008,0.7819 -1.75008,0.7819 -2.41065,1.204302 -2.41065,1.204302 -1.41111,0.79827 -1.41111,0.79827 -1.99907,1.324061 -1.99908,1.324057 -1.23472,0.97652 -1.23472,0.97652 -0.99954,1.00822 -0.99954,1.00821 -1.01008,1.23458 -1.01009,1.23457 -0.64768,0.881951 -0.64769,0.88194 -1.1752,1.76389 -1.1752,1.76389 -1.12737,1.88148 -1.12737,1.88148 -1.30561,2.35185 -1.30561,2.35186 -2.44396,4.88009 -2.44396,4.88009 -1.62518,3.46898 -1.62518,3.46898 -1.2901,2.82223 -1.29011,2.82222 -1.10984,2.63394 -1.10985,2.63394 -0.92506,2.48133 -0.92507,2.48134 -0.60254,1.92854 -0.60254,1.92853 -0.39726,1.54045 -0.39725,1.54045 -0.30236,1.49792 -0.30237,1.49793 -0.17824,1.35971 -0.17825,1.35972 0.002,1.37569 0.002,1.37569 0.11671,0.80731 0.0919,0.41044 0.10564,0.16191 0.10564,-0.0117 z m 192.76881,-112.070821 3.02803,-0.01882 0.8231,-0.2903 0.8232,-0.2903 1.5486,-0.925256 1.5487,-0.925257 1.1159,-0.838632 1.116,-0.838633 1.146,-0.999537 1.1459,-0.999537 1.1611,-1.286013 1.1611,-1.286014 0.8076,-1.069689 0.8075,-1.069688 0.7396,-1.172076 0.7396,-1.172075 0.7899,-1.5875 0.79,-1.5875 0.4195,-1.13233 0.4196,-1.132331 0.3497,-1.219521 0.3498,-1.219521 0.2338,-1.179335 0.2339,-1.179336 0.1523,-1.290109 0.1523,-1.290109 -0.01,-2.822222 -0.01,-2.822222 -0.2019,-1.469907 -0.2019,-1.469908 -0.2318,-1.140813 -0.2318,-1.140814 -0.4052,-1.407789 -0.4052,-1.407789 -0.4242,-1.1555643 -0.4242,-1.155564 -1.0469,-2.116666 -1.0469,-2.116667 -0.8567,-1.3607438 -0.8567,-1.3607441 -0.8024,-1.128727 -0.8024,-1.128727 -1.0657,-1.332288 -1.0656,-1.332288 -1.1894,-1.3508756 -1.1893,-1.3508756 -2.7634,-2.7763746 -2.7634,-2.776375 -3.76301,-3.510095 -3.76296,-3.510096 -2.44966,-2.41682 -2.44967,-2.41682 -1.4025,-1.539071 -1.40251,-1.53907 -0.82646,-1.103519 -0.82646,-1.103519 -0.0655,-0.261144 -0.0656,-0.261143 0.0858,-0.138773 0.0858,-0.138773 0.54901,0.06502 0.54902,0.06502 0.47682,0.190789 0.47683,0.190789 0.15783,0.294909 0.15783,0.29491 1.12288,0.656982 1.12288,0.656982 2.41065,1.549621 2.41065,1.549622 0.87688,0.510364 0.87687,0.510364 1.0634,0.496422 1.06341,0.496423 0.80613,0.248533 0.80614,0.248533 0.84016,-0.0026 0.84014,-0.0026 0.4781,-0.217133 0.478,-0.217133 0.4407,-0.386897 0.4406,-0.386897 0.5083,-0.716304 0.5083,-0.716304 1.6785,-2.881018 1.6785,-2.881019 0.5654,-0.841504 0.5654,-0.841504 0.5625,-0.445139 0.5624,-0.445138 0.5678,-0.536042 0.5678,-0.536043 0.1898,-0.352778 0.1897,-0.352777 0.2491,-0.764352 0.2491,-0.764352 0.9819,-0.673392 0.9819,-0.673392 0.2895,-0.267348 0.2895,-0.267349 0.8872,-1.11713 0.8871,-1.117129 1.0026,-1.175926 1.0025,-1.175926 1.1199,-1.234722 1.1198,-1.234723 2.5911,-2.629996 2.5911,-2.629997 5.762,-5.499696 5.7621,-5.499697 4.7103,-4.746695 4.7103,-4.746695 1.1756,-1.352315 1.1756,-1.352315 0.7134,-0.883386 0.7134,-0.883386 0.7858,-1.110268 0.7858,-1.110268 0.67,-0.539237 0.67,-0.539237 0.1725,-0.46572 0.1724,-0.46572 v -1.483982 -1.483983 l -0.5282,-1.044258 -0.5282,-1.044258 -1.3836,-2.085475 -1.3837,-2.085475 -0.7819,-0.971932 -0.782,-0.971932 -0.9721,-1.062365 -0.9722,-1.062364 -1.1364,-0.995506 -1.1365,-0.995506 -1.0772,-0.804352 -1.0772,-0.804353 -1.0512,-0.650713 -1.0512,-0.650712 -1.2869,-0.702324 -1.2869,-0.702323 -1.8614,-0.864514 -1.8615,-0.86451 -0.8674,-0.65287 -0.8674,-0.65287 h -2.9033 -2.9033 l -0.6728,0.34212 -0.6728,0.34212 -0.8232,0.58633 -0.8231,0.58632 -0.4995,0.486729 -0.4994,0.486726 -0.221,0.436913 -0.2211,0.436913 -0.1389,0.646759 -0.139,0.646759 0.077,2.763426 0.077,2.763426 -0.313,1.578181 -0.3129,1.578181 -0.4121,1.361634 -0.4121,1.361633 -0.4787,1.234722 -0.4786,1.234723 -0.6676,1.411111 -0.6675,1.411111 -0.8018,1.411111 -0.8018,1.411111 -0.8803,1.352315 -0.8803,1.352314 -1.0112,1.411111 -1.0113,1.411111 -1.6026,1.999074 -1.6026,1.999074 -1.7035,1.940278 -1.7035,1.940278 -1.6945,1.821377 -1.6946,1.821378 -2.70459,2.829025 -2.70463,2.829025 -1.71823,1.830616 -1.71823,1.830616 -1.60562,1.809259 -1.60562,1.809259 -0.46014,0.881944 -0.46014,0.881944 -0.42401,0.493808 -0.424,0.493807 -1.08367,0.909304 -1.08368,0.909304 -1.05833,0.696518 -1.05833,0.696519 -1.1209,0.563811 -1.12089,0.563811 -1.02843,0.320648 -1.02843,0.320648 -1.31966,-0.142407 -1.31966,-0.142407 -1.70509,-0.285463 -1.70509,-0.285463 -0.20205,-0.06411 -0.20205,-0.06412 -0.26229,-0.466678 -0.26229,-0.466677 -1.12316,-0.728714 -1.12316,-0.728714 -1.32998,-0.67557 -1.32999,-0.67557 -0.64356,-0.202866 -0.64357,-0.202866 0.0627,-0.153694 0.0627,-0.153693 0.0702,-0.173184 -0.0995,-0.114719 -0.32727,-0.137915 -0.49683,-0.07945 -0.68568,-0.611818 -0.68567,-0.611818 -0.70732,-0.2579 -0.70732,-0.2579 -0.1794,-0.256132 -0.1794,-0.256132 v -0.20902 -0.20902 h -0.0806 -0.0806 l -0.25634,0.240816 -0.25633,0.240816 -0.0703,-0.351508 -0.0703,-0.351508 -0.68048,-0.499294 -0.68047,-0.499293 -0.0392,-0.09557 -0.0392,-0.09557 h -0.12423 -0.12422 l -0.14217,0.194422 -0.14216,0.194422 -0.13486,-0.386865 -0.13487,-0.386864 -0.2063,-0.167557 -0.20631,-0.167557 -2.52824,-1.686843 -2.52824,-1.686843 -1.29352,-0.726061 -1.29352,-0.726061 -1.99907,-0.975733 -1.99908,-0.975733 -1.35231,-0.537145 -1.35232,-0.537145 -1.05833,-0.305831 -1.05834,-0.305831 -1.00765,-0.22522 -1.00765,-0.225219 -1.37962,-0.180853 -1.37962,-0.180853 h -1.86944 -1.86943 l -1.38774,0.181795 -1.38773,0.181794 -0.82315,0.181681 -0.82315,0.18168 -1.19445,0.342364 -1.19444,0.342363 -1.3338,0.535564 -1.33379,0.535563 -1.57256,0.81607 -1.57256,0.81607 -1.35496,0.890999 -1.35497,0.891 -1.12942,0.857204 -1.12942,0.857204 -1.41111,1.246125 -1.41112,1.246125 -0.38684,0.07744 -0.38684,0.07744 -0.27537,0.368213 -0.27538,0.368214 -0.84033,1.451769 -0.84034,1.451768 -0.29299,0.696101 -0.29298,0.6961 -0.29727,1.20352 -0.29728,1.20352 -0.0698,1.533749 -0.0698,1.53375 0.0838,0.671111 0.0838,0.671112 h 0.23063 0.23064 l 0.56776,-0.287706 0.56776,-0.287706 2.10356,-1.39602 2.10356,-1.396019 1.60906,-0.957526 1.60906,-0.957525 1.33076,-0.703934 1.33075,-0.703933 1.35232,-0.543818 1.35231,-0.543818 1.306,-0.337919 1.30599,-0.337918 1.39864,-0.205655 1.39863,-0.205655 3.05741,-6e-4 3.05741,-6e-4 2.41064,0.320385 2.41065,0.320385 0.24443,0.05303 0.24442,0.05303 0.12249,0.268836 0.12249,0.268837 0.69142,0.279955 0.69142,0.279956 1.04007,0.530015 1.04006,0.530015 1.1354,0.758392 1.1354,0.758392 0.6191,0.528053 0.6191,0.528054 0.88435,1.09952 0.88435,1.09952 0.39191,0.242214 0.39191,0.242213 h 0.30974 0.30973 l 0.80379,1.087731 0.80379,1.087732 0.9386,1.411111 0.93859,1.411111 0.95034,1.5875 0.95034,1.5875 2.0841,3.704166 2.08409,3.704167 0.88616,1.469907 0.88615,1.469908 1.16029,1.718434 1.16029,1.718435 1.25739,1.574157 1.25739,1.574158 1.5911,1.589827 1.5911,1.589826 1.23472,0.9889898 1.23473,0.9889897 1.64629,1.0819048 1.6463,1.0819048 1.76389,0.9794143 1.76389,0.9794143 4.7625,2.3072049 4.7625,2.3072049 1.4699,0.8020845 1.46991,0.8020845 0.88195,0.5300704 0.88194,0.5300708 1.17593,0.798296 1.17592,0.798296 0.99954,0.799711 0.99954,0.79971 1.12441,1.117405 1.12437,1.117405 0.8924,1.11713 0.8924,1.1171293 0.7664,1.147495 0.7665,1.147496 0.6431,1.263153 0.6431,1.263152 0.4397,1.175926 0.4397,1.175926 0.3338,1.352315 0.3338,1.352315 0.1739,1.352314 0.1738,1.352315 0.079,1.705093 0.079,1.705092 -0.1345,2.175463 -0.1346,2.175463 -0.1788,1.234722 -0.1787,1.234722 -0.2318,0.999537 -0.2317,0.999537 -0.3683,1.11713 -0.3683,1.117129 -0.3906,0.860656 -0.3906,0.860656 -0.5844,0.962029 -0.5845,0.96203 -0.7525,0.94074 -0.7525,0.940741 -2.49408,2.675231 -2.49416,2.675232 h -0.58538 -0.58538 l -0.39833,0.166433 -0.39833,0.166434 -0.12706,0.23741 -0.12706,0.237409 v 0.34625 0.346249 z"
       id="path150" /><path
       style="fill:#21df7e;fill-opacity:1;stroke:#000000;stroke-width:3.81838"
       d="m 3039.3623,611.70375 c -2.9601,-7.71372 1.7147,-34.56588 10.5967,-60.86757 9.972,-29.52984 43.1338,-101.38804 62.6538,-135.7645 32.28,-56.84815 46.8009,-68.74556 126.0499,-103.2765 41.7856,-18.20712 50.4026,-23.00006 65.9027,-36.65619 34.0445,-29.9945 49.3161,-60.1122 49.1588,-96.94808 -0.047,-10.96283 -0.9203,-17.99539 -3.3378,-26.87006 -9.3163,-34.20101 -10.7211,-40.5842 -10.7211,-48.71502 0,-4.8149 0.9857,-11.892756 2.1905,-15.72857 3.4694,-11.046083 10.8537,-16.099633 81.9552,-56.087744 45.4299,-25.5501617 60.032,-34.7014994 74.3356,-46.587182 6.3926,-5.311999 13.4873,-9.892553 13.4873,-9.892553 0,0 13.0709,-8.386623 33.1746,-28.118677 17.177,-16.859392 18.3904,-17.328311 20.3996,-14.704972 1.1596,1.514116 2.8134,5.298522 3.675,8.409792 0.8615,3.11127 4.4686,13.611805 8.0157,23.334524 5.2859,14.489117 6.5525,19.845885 7.0223,29.6984842 0.6278,13.1697011 -0.4987,18.1016408 -10.4002,45.5317938 -3.8488,10.662446 -5.0177,15.57033 -3.961,16.631205 1.0592,1.063314 7.9074,-0.124775 23.3345,-4.048291 45.6542,-11.610998 54.5011,-12.866754 90.1648,-12.798284 31.6093,0.06069 44.2697,1.152751 45.1846,3.89755 0.2562,0.7686 1.8672,1.095425 3.58,0.72628 1.7128,-0.369147 -3.753,3.039492 -12.1462,7.574751 -24.7005,13.346878 -32.1331,19.60182 -39.0182,32.835917 -6.4773,12.450171 -4.549,11.3357 -25.9875,15.019288 -14.9014,2.560358 -45.2467,13.629458 -67.5219,24.629988 -37.769,18.65212 -60.9026,39.73866 -73.4596,66.95922 -6.6271,14.36606 -7.6381,18.52615 -12.1317,49.92138 -2.678,18.70971 -5.1746,30.00072 -9.8002,44.32215 -3.4137,10.56931 -9.8303,30.67206 -14.2591,44.67277 -10.9454,34.60161 -18.6327,54.02814 -30.6552,77.46822 -9.6871,18.88672 -10.6944,20.26763 -21.5474,29.54016 -25.0071,21.3654 -66.0898,35.74979 -82.096,28.74451 -4.529,-1.98219 -11.192,-2.61553 -33.4194,-3.17667 -36.9055,-0.93172 -60.6764,1.90729 -88.1617,10.52925 -15.5719,4.8848 -38.9279,19.23775 -38.9279,19.23775 0,0 -27.3559,15.85601 -28.9675,16.91032 -26.5616,17.3768 -45.5632,37.37896 -78.6531,70.85951 -27.07,27.38956 -34.9895,34.66081 -35.7089,32.78605 z"
       id="path151"
       transform="scale(0.26458333)" /><path
       style="fill:#21df7e;fill-opacity:1;stroke:#000000;stroke-width:3.81838"
       d="m 3758.54,187.96027 c 0.3586,-1.09516 2.621,-2.64307 5.0274,-3.43979 4.7082,-1.55884 23.3022,-20.78552 29.3187,-30.31636 7.5019,-11.88372 10.9597,-25.93209 11.6746,-47.431 0.7763,-23.348125 -1.2935,-35.59636 -8.5951,-50.861933 -13.0837,-27.35434 -28.6801,-40.274567 -78.0317,-64.6422445 -33.49,-16.5358905 -43.7936,-23.3610965 -58.8575,-38.9874075 -14.1875,-14.717324 -19.029,-21.650039 -37.2903,-53.397805 -16.4629,-28.62112 -26.8828,-44.38639 -30.1358,-45.59518 -1.307,-0.48567 -5.8765,-4.46979 -10.1545,-8.8536 -4.5863,-4.69975 -11.4802,-9.80799 -16.7995,-12.44814 -4.9618,-2.46267 -9.9439,-5.24313 -11.0713,-6.1788 -1.3433,-1.11483 -10.1776,-1.9127 -25.6292,-2.31472 -33.482,-0.87111 -44.2783,2.44331 -76.9942,23.63687 -7.3187,4.74103 -13.8168,8.62006 -14.4403,8.62006 -0.6235,0 -0.7885,-5.03542 -0.3667,-11.18981 0.6405,-9.3448 1.6476,-12.86556 6.1076,-21.353 2.9373,-5.58975 6.2947,-10.52929 7.4607,-10.97674 1.1661,-0.44746 7.4699,-5.10591 14.0086,-10.35213 13.6959,-10.9887 26.0138,-17.82271 42.0639,-23.33728 9.8085,-3.37005 13.5715,-3.8965 28.2843,-3.95706 20.327,-0.0837 29.0405,1.99345 49.8641,11.88652 16.226,7.7088 39.4441,23.10726 40.0194,23.79055 0.8062,0.95767 3.6249,2.5029 3.9749,2.78129 0.4716,0.37524 3.7191,2.29399 3.7191,2.29399 l 2.2814,1.86498 2.4433,1.53592 3.6881,2.72464 c 0,0 3.3991,2.12028 5.7325,4.27163 2.3335,2.15136 8.446,5.96118 13.5833,8.46629 5.1374,2.50511 11.0697,6.28376 13.1829,8.397 3.1536,3.15357 6.0017,4.15759 15.8899,5.6015 11.0313,1.61086 12.6629,1.52786 19.344,-0.98399 10.0439,-3.77619 26.3498,-16.35612 30.1804,-23.28411 1.7203,-3.11127 17.225,-20.61216 34.4548,-38.89087 17.2298,-18.27871 36.4703,-39.59798 42.7568,-47.37615 29.825,-36.90237 42.0329,-63.92066 42.0329,-93.02635 0,-16.55412 1.4665,-20.12669 10.7994,-26.30859 5.9033,-3.91011 7.8067,-4.40875 16.8295,-4.40875 7.6766,0 11.0011,0.63383 13.5461,2.58264 1.855,1.42045 7.7962,4.62884 13.2028,7.12975 22.4543,10.38664 42.7374,27.26162 55.4696,46.14904 9.6639,14.33592 12.1781,20.27673 11.3125,26.7305 -0.4231,3.15458 -1.4516,5.96303 -2.2856,6.24101 -0.8339,0.27798 -4.5245,4.42824 -8.2013,9.2228 -12.9945,16.94469 -29.2587,33.88028 -69.3886,72.25289 -22.3175,21.34022 -45.6573,44.73083 -51.8663,51.97915 -6.2089,7.24833 -14.9593,16.82985 -19.4454,21.29226 -4.4861,4.46242 -8.2007,10.04317 -8.1565,10.14285 0,0 -2.492,4.16242 -5.5378,6.76949 -3.1135,2.66507 -9.6097,11.64181 -14.8394,20.50596 -13.4473,22.792324 -17.1372,24.889815 -31.7883,18.069586 -8.3593,-3.89135 -39.3413,-22.891596 -40.5706,-24.880626 -0.9636,-1.5591 -9.0873,-1.65262 -9.0873,-0.10462 0,4.22742 16.9236,22.381608 49.2,52.777569 43.3139,40.790458 58.7422,59.26243498 71.1133,85.14267 9.0553,18.943617 11.627,30.907256 11.7555,54.687554 0.094,17.384064 -0.3837,22.228597 -3.1379,31.819807 -8.3705,29.14941 -29.6709,56.6791 -54.7688,70.7859 -7.2496,4.0748 -10.4918,4.96437 -21.0519,5.77608 -10.3961,0.79911 -12.3736,0.62666 -11.8305,-1.03169 z"
       id="path152"
       transform="scale(0.26458333)" /></g></svg>
