<?xml version="1.0" encoding="UTF-8" standalone="no"?>
<!-- Created with Inkscape (http://www.inkscape.org/) -->

<svg
   width="69.27581mm"
   height="70.228973mm"
   viewBox="0 0 69.27581 70.228973"
   version="1.1"
   id="svg1"
   xml:space="preserve"
   xmlns="http://www.w3.org/2000/svg"
   xmlns:svg="http://www.w3.org/2000/svg"><defs
     id="defs1" /><g
     id="layer1"
     transform="translate(-838.3537,-69.83793)"><path
       style="fill:#000000"
       d="m 838.56085,139.98741 -0.20713,0.0795 0.0547,-0.16009 0.0547,-0.16008 0.54867,-1.70509 0.54866,-1.7051 0.63443,-1.6328 0.63442,-1.6328 0.59992,-1.36581 0.59991,-1.36581 1.16509,-2.33925 1.16508,-2.33926 0.64583,-1.15068 0.64583,-1.15068 -0.80344,-1.33136 -0.80344,-1.33136 -0.65731,-1.23472 -0.65732,-1.23473 -0.47042,-1.11713 -0.47041,-1.11713 -0.4107,-1.23472 -0.4107,-1.23472 -0.30488,-1.24678 -0.30487,-1.24678 -0.22789,-1.34026 -0.22789,-1.34026 -0.12545,-1.35231 -0.12546,-1.35232 -4e-4,-1.97302 -4e-4,-1.97302 0.18061,-1.731145 0.1806,-1.73115 0.29255,-1.46991 0.29255,-1.469905 0.42464,-1.469908 0.42465,-1.469907 0.63654,-1.587501 0.63654,-1.5875 0.65246,-1.234722 0.65247,-1.234722 0.73492,-1.11713 0.73493,-1.11713 0.85821,-1.104896 0.85821,-1.104896 1.24714,-1.292071 1.24715,-1.292071 1.11713,-0.936812 1.11713,-0.936813 1.06573,-0.745998 1.06574,-0.745999 1.22732,-0.731586 1.22732,-0.731587 1.29352,-0.611226 1.29351,-0.611226 1.41112,-0.534036 1.41111,-0.534037 1.5287,-0.418928 1.5287,-0.418928 1.17593,-0.234699 1.17593,-0.234698 1.5287,-0.200728 1.5287,-0.200728 h 2.93982 2.93981 l 1.52871,0.200093 1.5287,0.200092 1.71045,0.343867 1.71045,0.343866 1.40576,0.423806 1.40575,0.423805 1.35231,0.537344 1.35232,0.537343 1.41111,0.70424 1.41111,0.70424 0.82315,0.473633 0.82315,0.473634 1.31846,0.872404 1.31846,0.872404 1.50376,-1.223944 1.50376,-1.223944 1.5875,-1.179426 1.5875,-1.179426 1.88148,-1.236397 1.88148,-1.236396 0.77412,-0.424777 0.77412,-0.424777 h 0.0755 0.0755 l -0.355,0.970139 -0.35501,0.970139 -0.95055,2.234259 -0.95055,2.23426 -1.73656,3.55015 -1.73656,3.550151 0.95781,1.449727 0.9578,1.449728 0.73687,1.428313 0.73687,1.428312 0.62899,1.568106 0.62899,1.568107 0.30452,0.999537 0.30452,0.999537 0.35927,1.469909 0.35928,1.46991 0.23192,1.5875 0.23191,1.587505 0.12519,1.99114 0.12518,1.99113 -0.12529,2.01448 -0.12529,2.01448 -0.22381,1.52494 -0.22381,1.52494 -0.31168,1.38965 -0.31167,1.38966 -0.47507,1.48766 -0.47507,1.48766 -0.46467,1.17593 -0.46467,1.17592 -0.73595,1.46991 -0.73595,1.46991 -0.68115,1.11713 -0.68115,1.11713 -0.72032,0.99953 -0.72033,0.99954 -1.01228,1.17593 -1.01228,1.17592 -1.04672,1.00069 -1.04672,1.00068 -0.9284,0.7553 -0.9284,0.75529 -1.47259,0.98342 -1.47259,0.98341 -2.00873,0.98655 -2.00874,0.98656 -1.11712,0.40999 -1.11713,0.40999 -1.40576,0.42599 -1.40575,0.42599 -1.71045,0.34121 -1.71045,0.34121 -1.23472,0.15335 -1.23473,0.15334 -3.1162,-0.008 -3.1162,-0.008 -1.7051,-0.26205 -1.70509,-0.26204 -1.6463,-0.3985 -1.64629,-0.3985 -1.29352,-0.42977 -1.29352,-0.42977 -1.24916,-0.50994 -1.24915,-0.50995 -1.42648,-0.71507 -1.42648,-0.71507 -1.26372,-0.75692 -1.26371,-0.75692 -0.68808,-0.46417 -0.68808,-0.46417 -1.07003,0.77125 -1.07004,0.77125 -1.47568,0.9642 -1.47569,0.9642 -1.76388,1.05897 -1.76389,1.05897 -2.05787,1.12485 -2.05787,1.12484 z m 33.8386,-5.0192 1.5287,0.0158 1.29352,-0.11988 1.29352,-0.11988 1.11713,-0.18413 1.11713,-0.18414 1.2276,-0.28665 1.22761,-0.28665 1.47519,-0.49056 1.47518,-0.49056 1.82453,-0.90665 1.82452,-0.90664 1.41111,-0.94173 1.41111,-0.94174 0.99954,-0.80018 0.99953,-0.80018 1.47359,-1.47359 1.47359,-1.47359 0.79954,-0.99953 0.79955,-0.99954 0.97925,-1.46991 0.97926,-1.46991 0.53281,-0.97149 0.5328,-0.97149 0.55291,-1.20397 0.55291,-1.20397 0.45245,-1.26569 0.45246,-1.26569 0.34448,-1.38014 0.34448,-1.38015 0.18303,-1.11713 0.18302,-1.11713 0.13422,-1.5875 0.13421,-1.5875 -0.0774,-1.70509 -0.0774,-1.7051 -0.17737,-1.293515 -0.17737,-1.29352 -0.2987,-1.35232 -0.2987,-1.35231 -0.41324,-1.293521 -0.41323,-1.293519 -0.52549,-1.293518 -0.52549,-1.293519 -0.54133,-1.028935 -0.285,-0.384014 -0.068,-0.01654 -0.0349,-0.09095 -0.0505,-0.02572 -0.10837,0.106569 0.23,1.028016 0.2796,1.234722 0.17865,1.058334 0.17865,1.058333 0.11349,1.058334 0.1135,1.058338 0.0772,1.5287 0.0772,1.5287 -0.136,1.812385 -0.136,1.81239 -0.23219,1.36709 -0.23219,1.36709 -0.26939,0.87747 -0.26939,0.87747 -0.0828,-1.50538 -0.0828,-1.50538 -0.18033,-1.38993 -0.18033,-1.38993 -0.0905,-0.33848 -0.0905,-0.33849 -0.10913,0.0346 -0.10914,0.0346 0.0366,0.53647 0.0366,0.53648 -0.12942,1.31043 -0.12942,1.31044 -0.29524,1.46991 -0.29524,1.46991 -0.34718,1.19444 -0.34717,1.19445 -0.53519,1.33379 -0.5352,1.3338 -0.65179,1.23472 -0.65179,1.23472 -0.76801,1.17593 -0.76801,1.17593 -0.77641,0.99662 -0.77642,0.99662 -0.74855,0.7935 -0.74855,0.7935 -0.95888,0.8126 -0.95887,0.8126 -1.15257,0.78019 -1.15257,0.78019 -1.37568,0.6885 -1.37567,0.68851 -1.15907,0.43312 -1.15908,0.43313 -1.54555,0.39453 -1.54556,0.39453 -1.29351,0.19625 -1.29352,0.19626 -2.01117,0.0659 -2.01117,0.0659 -1.51661,-0.14238 -1.51661,-0.14238 -0.94074,-0.17433 -0.94074,-0.17433 -0.91826,-0.24373 -0.91827,-0.24373 0.0562,-0.14644 0.0562,-0.14644 1.73586,-2.22006 1.73587,-2.22006 3.65352,-4.89551 3.65352,-4.89551 3.175,-4.27577 3.175,-4.27577 1.75514,-2.294 1.75514,-2.294005 3.60192,-4.586114 3.60192,-4.586112 1.76704,-2.293055 1.76704,-2.293056 1.47517,-2.009455 1.47517,-2.009454 1.89417,-2.73762 1.89418,-2.737619 -0.0666,-0.10776 -0.14928,-0.01681 -2.52426,2.428379 -2.60693,2.51933 -3.35139,3.394772 -3.35139,3.394772 -1.88148,2.003907 -1.88149,2.003908 -2.06403,2.287287 -2.06404,2.287288 -2.13111,2.43206 -2.13111,2.432067 -4.91828,5.74135 -4.91828,5.74135 -2.94409,3.52706 -2.94409,3.52705 -1.871,2.29305 -1.871,2.29306 -1.18758,1.41111 -1.18758,1.41111 -0.28003,0.41158 -0.28004,0.41157 -0.65526,0.74465 -0.65525,0.74466 -0.26459,0.36915 -0.26458,0.36916 v 0.0915 0.0915 h 0.12544 0.12544 l 0.37433,0.28277 0.37433,0.28278 0.70555,0.4105 0.70556,0.41051 1.17592,0.52728 1.17593,0.52728 1.59582,0.59382 1.59581,0.59383 1.75558,0.48267 1.75557,0.48266 1.5875,0.2915 1.5875,0.29149 1.05833,0.10019 1.05833,0.10019 z m -27.74044,-1.98603 0.89336,-0.879 1.95826,-2.11921 1.95826,-2.1192 2.41065,-2.7078 2.41065,-2.70779 2.59387,-2.99291 2.59386,-2.99291 5.86612,-6.87916 5.86611,-6.87917 3.06409,-3.521545 3.0641,-3.52155 1.99036,-2.240491 1.99036,-2.240495 1.8902,-2.052122 1.89019,-2.052121 3.32199,-3.395268 3.32199,-3.395268 v -0.169118 -0.169119 l -0.67616,-0.434042 -0.67616,-0.434042 -1.76388,-0.905012 -1.76389,-0.905011 -1.35232,-0.533952 -1.35231,-0.533952 -1.35691,-0.408999 -1.3569,-0.408999 -1.45169,-0.306507 -1.4517,-0.306507 -1.48281,-0.173454 -1.48281,-0.173454 h -2.2357 -2.2357 l -1.48281,0.173454 -1.48282,0.173454 -1.45628,0.305922 -1.45628,0.305922 -1.76389,0.586283 -1.76389,0.586284 -1.64629,0.79478 -1.6463,0.79478 -1.11713,0.68108 -1.11713,0.681079 -1.34769,1.011704 -1.34769,1.011703 -1.22874,1.17988 -1.22874,1.17988 -0.88423,1.058333 -0.88423,1.058334 -0.81532,1.234722 -0.81532,1.234723 -0.69343,1.424008 -0.69343,1.424008 -0.51781,1.574603 -0.51781,1.574603 -0.29517,1.411114 -0.29518,1.41111 -0.12139,1.11713 -0.12139,1.11713 -0.0729,1.175925 -0.0729,1.17593 0.1321,1.74547 0.13209,1.74547 0.23194,1.31194 0.23194,1.31194 0.36348,1.29351 0.36348,1.29352 0.45833,1.15163 0.45832,1.15163 0.42494,0.84383 0.42494,0.84382 0.46996,0.74413 0.32964,0.49857 0.11551,-0.0278 0.10381,-0.098 -0.18459,-1.173 -0.18458,-1.46533 -0.008,-2.88102 -0.008,-2.88102 0.14733,-1.23472 0.14733,-1.23472 0.16958,-0.99954 0.16958,-0.99954 0.36276,-1.46991 0.36277,-1.469905 0.47096,-1.29352 0.47097,-1.29352 0.74899,-1.5059 0.74899,-1.505897 0.66483,-1.022343 0.66483,-1.022343 0.77649,-0.999537 0.77648,-0.999537 1.00184,-1.043245 1.00184,-1.043244 1.05834,-0.888969 1.05833,-0.88897 1.23472,-0.819141 1.23472,-0.819141 1.6463,-0.795672 1.6463,-0.795673 1.23472,-0.415312 1.23472,-0.415312 1.41111,-0.352427 1.41111,-0.352428 1.41111,-0.235933 1.41112,-0.235934 1.11713,-0.120681 1.11713,-0.120682 1.64629,-0.07708 1.6463,-0.07708 1.64629,0.138281 1.6463,0.138281 0.2633,0.06589 0.26329,0.06589 -2.0426,2.13364 -2.0426,2.13364 -1.20167,1.352315 -1.20167,1.352315 -1.72909,2.05787 -1.7291,2.057871 -1.6458,2.057871 -1.64579,2.057872 -1.59308,2.05787 -1.59307,2.05787 -2.58412,3.46898 -2.58412,3.46898 -2.23158,3.11621 -2.23158,3.1162 -1.71243,2.46945 -1.71243,2.46944 -1.98814,2.99861 -1.98814,2.99861 -1.22127,1.99908 -1.22127,1.99907 -0.85833,1.6463 -0.85832,1.6463 -0.3582,0.86871 -0.24128,0.63486 0.0351,0.0606 0.10524,0.0402 z"
       id="path153" /><path
       style="fill:#10ae4b;fill-opacity:1;stroke:#000000;stroke-width:1.35"
       d="m 3189.9803,503.5 c 0.6916,-2.55083 8.363,-17.14731 12.9158,-24.57511 19.4254,-31.69233 57.8143,-85.31175 88.5452,-123.67489 13.2143,-16.49621 23.009,-27.75861 35.1972,-40.47147 5.1974,-5.42118 7.4375,-8.08517 7.002,-8.32688 -1.4033,-0.77867 -14.3543,-1.54842 -20.6405,-1.22676 -30.4496,1.55805 -53.6129,9.54444 -71.25,24.56599 -17.0588,14.52897 -28.0646,32.63368 -33.2576,54.70912 -2.8933,12.2993 -3.37,17.66509 -3.0649,34.5 0.1471,8.1125 0.4136,15.65 0.5924,16.75 l 0.325,2 -1.5627,-2.41634 c -7.7066,-11.91695 -12.6807,-29.25864 -13.3614,-46.58366 -0.5088,-12.94861 0.9248,-23.54991 4.9357,-36.5 9.1081,-29.4074 34.7915,-54.05175 67.6435,-64.90697 12.76,-4.21625 23.0802,-5.84556 36.9851,-5.83904 16.1035,0.008 31.0747,2.91535 46.2649,8.98581 5.7389,2.29344 19.3709,9.32137 21.7292,11.20237 l 1.4791,1.17982 -14.2759,14.689 c -24.6283,25.3411 -39.5153,42.07193 -86.7006,97.43901 -39.8615,46.77342 -66.8929,77.30852 -77.2387,87.25 -2.2021,2.11606 -2.5496,2.30803 -2.2628,1.25 z"
       id="path154"
       transform="scale(0.26458333)" /><path
       style="fill:#10ae4b;fill-opacity:1;stroke:#000000;stroke-width:1.35"
       d="m 3287.5,509.45495 c -17.1161,-1.76309 -41.6847,-9.51555 -53.6674,-16.93438 -2.0171,-1.24881 -4.0889,-2.51164 -4.6041,-2.80628 -0.8654,-0.49486 -0.7475,-0.7617 1.5464,-3.5 1.3658,-1.63036 3.4312,-4.20179 4.5899,-5.71429 1.1587,-1.5125 3.8079,-4.775 5.8871,-7.25 2.0793,-2.475 7.3664,-8.8875 11.7493,-14.25 14.1576,-17.32215 27.5319,-33.23188 48.967,-58.25 31.4712,-36.73186 42.214,-48.81512 61.7466,-69.45086 11.4357,-12.08166 46.5374,-46.96357 46.8973,-46.60369 0.242,0.24195 -13.295,19.7286 -20.3598,29.30817 -6.7319,9.12817 -16.4732,21.74872 -33.7662,43.74638 -15.9721,20.3174 -25.3112,32.63126 -51.9861,68.54467 -11.825,15.92045 -25.1563,33.64936 -29.625,39.39758 -4.4688,5.74821 -8.125,10.74783 -8.125,11.11025 0,0.36242 0.9562,0.90373 2.125,1.20291 1.1687,0.29918 2.4625,0.65989 2.875,0.80158 4.9711,1.70754 18.2114,2.8863 28.5,2.53731 9.7585,-0.33101 15.5353,-1.15135 23.9289,-3.3981 26.8688,-7.19205 45.7634,-22.62267 59.9341,-48.9462 6.6312,-12.31821 11.27,-28.82619 11.9663,-42.58467 0.1789,-3.53506 0.4245,-6.32815 0.5458,-6.20688 0.4228,0.42282 2.1086,13.56634 2.1536,16.79155 0.025,1.7875 0.2055,4.2625 0.4012,5.5 l 0.3557,2.25 1.0782,-3.5 c 4.3559,-14.14021 4.7227,-37.60984 0.8751,-56 -1.9618,-9.37633 -1.9646,-9.34931 0.4935,-4.62712 10.7922,20.73253 14.8788,47.07714 10.9558,70.62712 -2.8027,16.82422 -8.7539,31.57709 -18.8587,46.75 -4.8938,7.34844 -8.3682,11.48108 -15.7111,18.68791 -10.3254,10.13405 -18.1828,15.83572 -29.908,21.70253 -17.5483,8.78044 -41.2938,13.09033 -60.9604,11.06451 z"
       id="path155"
       transform="scale(0.26458333)" /></g></svg>
