<?xml version="1.0" encoding="UTF-8" standalone="no"?>
<!-- Created with Inkscape (http://www.inkscape.org/) -->

<svg
   width="64.206673mm"
   height="66.682343mm"
   viewBox="0 0 64.206673 66.682343"
   version="1.1"
   id="svg1"
   xml:space="preserve"
   xmlns="http://www.w3.org/2000/svg"
   xmlns:svg="http://www.w3.org/2000/svg"><defs
     id="defs1" /><g
     id="layer1"
     transform="translate(-717.84238,-106.8038)"><path
       style="fill:#000000"
       d="m 775.38817,173.47808 -0.71025,-0.008 -0.61565,-0.16581 -0.61565,-0.1658 -0.56758,-0.28762 -0.56759,-0.28761 -0.65468,-0.5333 -0.65468,-0.5333 -0.58649,-0.74003 -0.58649,-0.74004 -0.97427,-1.5665 -0.97427,-1.5665 -0.83093,-0.72656 -0.83092,-0.72655 -4.59053,-4.58611 -4.59052,-4.58611 -2.40997,-2.25052 -2.40996,-2.25052 -1.23473,-1.08169 -1.23472,-1.08169 -0.72049,-0.51895 -0.72049,-0.51895 -0.63692,-0.58704 -0.65345,-0.53744 -0.21488,0.18689 -0.32236,0.24476 -0.41427,0.37536 -0.38947,0.31748 -0.58728,0.5457 -0.62034,0.51263 -1.79179,2.0389 -2.65169,2.63421 -0.59299,0.29523 -0.59298,0.29524 -0.70054,0.21234 -0.70053,0.21234 -1.41111,-10e-4 -1.41111,-0.001 -0.70556,-0.15468 -0.70555,-0.15468 -0.94074,-0.28959 -0.94074,-0.2896 -1.52871,-0.75055 -1.5287,-0.75056 -1.23472,-0.93075 -1.23473,-0.93076 -1.15491,-1.09308 -1.15492,-1.09308 -0.94321,-1.12708 -0.94322,-1.12709 -0.82023,-1.22349 -0.82023,-1.22349 -0.52135,-1.03807 -0.52135,-1.03807 -0.28598,-0.85464 -0.28598,-0.85465 -0.17667,-1.05833 -0.17668,-1.05833 -0.0745,-1.46991 -0.0745,-1.46991 0.18383,-0.9374 0.18383,-0.9374 0.39532,-0.82649 0.39531,-0.82649 0.55344,-0.73144 0.55343,-0.73145 0.72763,-0.6311 0.72762,-0.6311 0.70555,-0.512 0.70556,-0.512 0.59883,-0.44791 0.59882,-0.4479 0.12878,-0.10335 -0.0139,-0.0682 -0.008,-0.0716 -0.0124,-0.17083 -0.0157,-0.50004 -0.0219,-0.55586 -0.0974,-3.82176 -0.0974,-3.82176 0.0228,-1.52557 0.0229,-1.52557 0.18852,-0.49362 0.18851,-0.49363 0.51182,-0.47177 0.51182,-0.47178 0.60149,-0.17862 0.60149,-0.17863 3.14324,0.10987 3.14324,0.10986 1.23472,0.11573 1.23473,0.11572 1.96296,0.004 1.96296,0.004 0.62407,-0.8085 0.62408,-0.80851 0.86934,-1.19217 0.86934,-1.19217 0.79262,-0.74771 0.79261,-0.74772 0.64425,-0.30477 0.64424,-0.30478 0.51602,-0.11896 0.51603,-0.11896 1.43437,-0.003 1.43438,-0.003 1.74062,0.4008 1.74063,0.4008 0.97995,0.35892 0.97995,0.35892 0.78394,0.43558 0.78393,0.43559 0.85171,0.5716 0.85171,0.57161 1.02978,0.85831 1.02977,0.85832 0.8722,0.93195 0.87221,0.93195 0.86095,1.15313 0.86095,1.15313 0.45737,0.78715 0.45737,0.78715 0.35788,0.7133 0.35787,0.7133 0.42358,1.21692 0.42359,1.21692 0.17361,0.9956 0.17362,0.9956 -0.002,1.07232 -0.002,1.07233 -0.17282,0.82315 -0.17283,0.82315 -0.42505,0.86374 -0.42506,0.86374 -0.72299,0.73448 -0.723,0.73448 -0.67222,0.44428 -0.67221,0.44428 -1.26806,0.66213 -1.26807,0.66213 -0.43177,0.82315 -1.29168,1.41845 -0.077,0.13756 -0.077,0.13755 -0.29316,0.93732 0.49231,0.95385 0.56897,1.17593 0.56896,1.17592 0.84017,1.46589 0.90185,1.79045 1.01261,1.52694 1.01261,1.52693 1.37053,1.82848 1.37054,1.82847 1.82258,2.17547 1.82257,2.17546 1.83911,2.03826 1.83911,2.03826 0.49433,0.63293 1.10237,0.25876 0.35748,0.1283 0.35748,0.1283 0.64675,0.31671 0.64675,0.31671 0.82315,0.53745 0.82316,0.53746 0.88195,0.73405 0.88194,0.73405 0.63094,0.72757 0.63093,0.72757 0.35574,0.7466 0.35574,0.7466 0.053,0.7821 0.053,0.7821 -0.18491,0.88195 -0.18492,0.88194 -0.4909,0.99954 -0.4909,0.99954 -0.89304,0.89534 -0.89304,0.89535 -0.73415,0.37005 -0.73414,0.37006 -0.67227,0.17511 -0.67228,0.1751 z m -0.005,-3.31976 0.82315,-0.029 0.57289,-0.27947 0.57288,-0.27947 0.72691,-0.67998 0.7269,-0.67999 0.31438,-0.57762 0.31439,-0.57762 0.12775,-0.59568 0.12775,-0.59568 -0.13418,-0.49827 -0.13417,-0.49828 -0.25544,-0.34751 -0.25543,-0.34751 -1.60093,-1.20762 -1.60092,-1.20763 -0.78396,-0.38594 -0.78395,-0.38594 -0.31834,0.16492 -0.31833,0.16492 -1.79471,1.77573 -1.7947,1.77574 v 0.31622 0.31622 l 0.25174,0.49508 0.25174,0.49508 0.44062,0.64676 0.44062,0.64676 0.86575,0.83507 0.86574,0.83506 0.41157,0.223 0.41157,0.22299 0.35278,0.14429 0.35278,0.14429 z m -6.66015,-7.02064 h 0.16544 l 1.11709,-1.08774 1.11708,-1.08773 0.33698,-0.52279 0.33698,-0.52279 v -0.27014 -0.27014 l -1.44435,-1.67651 -1.44435,-1.67652 -1.1803,-1.41111 -1.1803,-1.41111 -1.58988,-1.99907 -1.58988,-1.99908 -1.17703,-1.5875 -1.17704,-1.5875 -1.1776,-1.70509 -1.1776,-1.70509 -0.76894,-1.24435 -0.76893,-1.24436 -0.40696,-0.81351 -0.40696,-0.81352 -0.47372,-1.14928 -0.29181,-0.96739 -0.098,-0.10602 -0.098,-0.10602 -0.85024,0.0157 -0.85023,0.0157 -0.64774,0.18831 -0.64774,0.1883 -0.77144,0.38849 -0.77143,0.38848 -0.70629,0.53093 -0.70629,0.53093 -0.92478,0.92288 -0.92479,0.92288 -0.5209,0.67498 -0.5209,0.67498 -0.30267,0.66113 -0.30268,0.66113 0.1442,0.48128 0.1814,0.44615 0.7446,0.8084 0.78181,0.77326 1.23472,0.87833 1.23472,0.87832 2.05787,1.63874 2.05787,1.63874 1.76389,1.47607 1.76389,1.47607 1.41111,1.23082 1.41111,1.23083 1.76389,1.58936 1.76389,1.58937 1.70509,1.65778 1.7051,1.65779 0.46776,0.37411 0.46777,0.37412 z m -32.75542,-10.84431 0.52917,0.0102 0.88194,-0.16122 0.88195,-0.16122 0.39267,-0.16949 0.39266,-0.16949 1.00004,-1.1057 1.00003,-1.1057 0.65786,-0.74376 0.51731,-0.73549 -0.0285,-0.11525 -0.16908,-0.10699 -1.18992,-0.002 -1.18992,-0.002 -1.04434,-0.17855 -1.04434,-0.17854 -1.31551,-0.41052 -1.31551,-0.41051 -1.28576,-0.64365 -1.28577,-0.64365 -0.91646,-0.65754 -0.91647,-0.65753 -0.69479,-0.60432 -0.6948,-0.60431 -0.79989,-0.94502 -0.7999,-0.94503 -0.52892,-0.82314 -0.52893,-0.82315 -0.41295,-0.82315 -0.41294,-0.82315 -0.36834,-1.04408 -0.36834,-1.04409 -0.17435,-0.99979 -0.17435,-0.99979 v -0.7386 -0.73861 l 0.17637,-0.92169 0.17637,-0.92168 2e-5,-0.21225 -0.10522,-0.11871 -0.93469,0.61873 -1.03994,0.71226 -0.70778,0.73708 -0.70778,0.73708 -0.25247,0.49489 -0.25247,0.49488 -0.18628,0.79626 -0.18628,0.79626 0.0546,1.5875 0.0546,1.5875 0.24757,0.89423 0.24756,0.89424 0.41906,0.97907 0.41906,0.97906 0.54847,0.92204 0.54847,0.92205 0.74726,0.99566 0.74725,0.99566 1.1397,1.1523 1.1397,1.1523 0.97284,0.73788 0.97284,0.73788 0.90864,0.53865 0.90864,0.53864 0.74313,0.33471 0.74313,0.3347 0.96196,0.29778 0.96196,0.29778 0.70556,0.1007 0.70556,0.10071 z m 4.17454,-6.69997 0.70556,0.013 0.44097,-0.0729 0.44097,-0.0729 10e-4,-0.66077 10e-4,-0.66077 0.28663,-0.61567 0.28664,-0.61566 1.68219,-1.67739 1.6822,-1.6774 2.49854,-2.3907 2.49854,-2.3907 v -0.10814 l -0.0661,-0.0503 -0.14876,-0.0579 h -0.21491 l -0.75267,-0.30584 -0.75266,-0.30583 -0.70812,-0.35615 -0.70812,-0.35615 -0.88195,-0.58747 -0.88194,-0.58746 -0.79702,-0.64805 -0.79701,-0.64804 -1.08447,-1.1408 -1.08446,-1.14081 -0.79363,-1.10684 -0.79362,-1.10684 -0.69411,-1.35231 -0.6941,-1.35232 -0.35994,-1.17592 -0.35994,-1.17593 -0.1374,-0.81279 -0.13739,-0.81279 0.0612,-0.9805 0.0612,-0.98049 h -0.0613 -0.0613 l -0.36666,0.23297 -0.36666,0.23297 -4.89028,4.91171 -4.89027,4.9117 -0.25038,0.88194 -0.25038,0.88195 -0.1368,0.81164 -0.1368,0.81164 0.0593,1.42262 0.0592,1.42262 0.25759,0.99953 0.25759,0.99954 0.56455,1.17593 0.56455,1.17592 0.47589,0.69151 0.47589,0.69152 0.73724,0.82343 0.73724,0.82343 0.84746,0.67345 0.84746,0.67344 0.90075,0.56141 0.90074,0.56141 1.02316,0.44064 1.02315,0.44063 0.89904,0.25184 0.89904,0.25184 0.68846,0.10056 0.68846,0.10056 z m 13.54207,-12.4577 1.19485,0.009 0.73294,-0.22812 0.73294,-0.22812 0.62785,-0.27165 0.62784,-0.27165 0.002,-0.14699 0.002,-0.14699 h -0.0977 -0.0977 l -1.22525,-0.22389 -1.22524,-0.22389 -0.88195,-0.32012 -0.88194,-0.32011 -0.94074,-0.4696 -0.94074,-0.46959 -0.99954,-0.64759 -0.99954,-0.6476 -1.0149,-0.80747 -1.0149,-0.80747 -1.27815,-1.33328 -1.27816,-1.33327 -0.68669,-0.95897 -0.68668,-0.95896 -0.51288,-0.89998 -0.51288,-0.89999 -0.41902,-1.04692 -0.41902,-1.04692 -0.2923,-1.12497 -0.29229,-1.12497 v -0.3987 -0.3987 h -0.17143 -0.17143 l -0.31766,0.54203 -0.31765,0.54204 -0.16859,0.72208 -0.1686,0.72209 0.0803,0.94074 0.0803,0.94074 0.34036,1.35231 0.34037,1.35232 0.7032,1.41111 0.70321,1.41111 0.83633,1.11713 0.83633,1.11713 0.9023,0.92178 0.9023,0.92179 0.94075,0.73881 0.94074,0.73881 0.82314,0.50237 0.82315,0.50236 0.94074,0.40357 0.94074,0.40357 0.88195,0.21778 0.88194,0.21778 z m 5.03756,-3.37118 0.70556,-0.0498 0.64676,-0.1771 0.64676,-0.17711 0.55841,-0.3022 0.55841,-0.3022 0.63325,-0.66389 0.63325,-0.6639 0.30909,-0.60997 0.30909,-0.60996 0.18746,-0.7948 0.18746,-0.7948 -0.063,-1.01863 -0.063,-1.01862 -0.41273,-1.23343 -0.41273,-1.23343 -0.47007,-0.93492 -0.47007,-0.93491 -0.82017,-1.22276 -0.82018,-1.22275 -1.05173,-1.18167 -1.05172,-1.18166 -1.07396,-0.90107 -1.07396,-0.90107 -0.85488,-0.57687 -0.85489,-0.57687 -0.9398,-0.47203 -0.93981,-0.47203 -0.99954,-0.3209 -0.99954,-0.32089 -1.35231,-0.0605 -1.35232,-0.0605 -0.67256,0.13988 -0.67257,0.13987 -0.67975,0.33973 -0.67975,0.33973 -0.62495,0.62178 -0.62496,0.62178 -0.34849,0.6091 -0.34849,0.6091 -0.24676,0.9758 -0.24676,0.9758 0.0615,1.41475 0.0615,1.41475 0.31211,1.05108 0.31212,1.05109 0.54119,1.04784 0.54119,1.04784 0.65823,0.91947 0.65823,0.91947 0.79321,0.88174 0.79321,0.88173 1.08827,0.91335 1.08827,0.91334 0.94074,0.6112 0.94074,0.61119 1.05834,0.52646 1.05833,0.52646 0.94074,0.30456 0.94074,0.30457 0.70556,0.12387 0.70555,0.12388 0.47037,0.04 0.47038,0.04 z m -31.89699,-5.08901 0.14699,-0.002 4.8213,-4.75431 4.82129,-4.75431 -0.94074,-0.009 -0.94074,-0.009 -2.11667,-0.17054 -2.11666,-0.17053 -1.35232,-0.002 -1.35231,-0.002 -0.41789,0.11609 -0.4179,0.11609 -0.27139,0.25284 -0.2714,0.25285 0.0759,1.60008 0.0759,1.60009 -0.016,0.35277 -0.0159,0.35278 0.0111,0.47037 0.0111,0.47037 0.0548,1.41111 0.0548,1.41112 0.005,0.73495 0.0313,0.6911 z"
       id="path156" /><path
       style="fill:#e1952a;fill-opacity:1;stroke:#000000;stroke-width:1.35"
       d="m 2792.25,549.66589 c -3.2147,-0.50901 -9.4529,-2.39763 -13.1603,-3.98429 -15.1887,-6.50035 -27.2166,-19.71586 -31.3374,-34.4316 -1.686,-6.02118 -1.702,-16.24488 -0.035,-22.75 l 1.2169,-4.75 18.4137,-18.5205 c 10.1275,-10.18627 19.1216,-18.93867 19.9868,-19.44978 l 1.5732,-0.9293 -0.3284,3.53291 c -0.8149,8.76874 4.1022,22.53614 11.9607,33.48858 3.8558,5.37391 11.6416,13.29561 16.9602,17.25626 5.0001,3.72347 9.4886,6.23915 15.3534,8.60507 l 3.9121,1.5782 -4.1327,3.95114 c -2.2731,2.17313 -7.1435,8.69063 -13.5733,15.01805 -12.5485,12.34883 -13.5595,13.71066 -13.5595,18.265 0,2.06647 -2.4065,2.87966 -3.375,3.13922 -1.2023,0.3222 -7.8004,0.30953 -9.875,-0.019 z"
       id="path157"
       transform="scale(0.26458333)" /><path
       style="fill:#e1952a;fill-opacity:1;stroke:#000000;stroke-width:1.35"
       d="m 2746.5501,460.14796 c -0.1717,-5.99388 -0.3657,-13.82296 -0.4311,-17.39796 l -0.119,-6.5 2.2309,-1.125 c 2.7451,-1.38426 7.6945,-1.47697 20.0191,-0.375 4.5375,0.40571 9.8053,0.74043 11.7063,0.74382 l 3.4563,0.006 -17.8982,17.625 c -9.8441,9.69375 -18.0679,17.69158 -18.2752,17.77296 -0.2073,0.0814 -0.5174,-4.75613 -0.6891,-10.75 z"
       id="path158"
       transform="scale(0.26458333)" /><path
       style="fill:#e1952a;fill-opacity:1;stroke:#000000;stroke-width:1.35"
       d="m 2840.5,502.00524 c -8.3752,-2.1753 -17.0541,-7.42203 -25.1063,-15.17771 -9.2198,-8.88029 -15.3333,-18.7417 -17.9158,-28.89907 -2.3002,-9.04755 -2.1607,-14.89053 0.4668,-19.54961 1.352,-2.39735 2.3053,-2.43339 2.3053,-0.0872 0,2.53186 1.6649,8.71117 3.7083,13.7634 3.3517,8.28717 8.088,15.27703 15.4945,22.86714 12.5556,12.86675 25.5356,20.53021 38.6722,22.83239 2.8187,0.49398 5.125,1.03944 5.125,1.21214 0,0.35436 -1.6828,1.06172 -6.7126,2.82167 -4.3004,1.50472 -10.7434,1.59183 -16.0374,0.21681 z"
       id="path159"
       transform="scale(0.26458333)" /><path
       style="fill:#e1952a;fill-opacity:1;stroke:#000000;stroke-width:1.35"
       d="m 2859.6606,489.77032 c -21.1776,-3.66853 -44.2173,-23.93351 -50.0853,-44.05356 -1.0038,-3.44154 -1.317,-5.67175 -1.3647,-9.71676 -0.1335,-11.31222 3.8335,-18.60683 12.2894,-22.59801 3.4214,-1.6149 3.6515,-1.65199 10.25,-1.65199 5.8089,0 7.238,0.16669 10.25,1.19557 13.4265,4.58639 26.8545,15.45314 36.2366,29.32503 4.2493,6.28279 6.4495,10.66479 8.3998,16.7294 2.5895,8.05244 2.4437,14.37024 -0.4661,20.20077 -1.3235,2.65198 -5.6301,7.09912 -8.1241,8.38924 -4.6797,2.42077 -11.2447,3.24408 -17.3856,2.18031 z"
       id="path160"
       transform="scale(0.26458333)" /><path
       style="fill:#e1952a;fill-opacity:1;stroke:#000000;stroke-width:1.35"
       d="m 2776,574.74675 c -7.2204,-1.36775 -15.5927,-5.1061 -22.75,-10.15819 -4.3552,-3.07415 -13.4448,-11.95103 -16.9968,-16.59906 -5.6901,-7.44569 -9.3102,-14.42418 -11.4635,-22.09782 -0.8009,-2.85438 -1.0383,-5.13367 -1.0338,-9.92357 0.01,-8.93999 0.9582,-11.99207 5.236,-16.82765 2.0002,-2.26091 10.1197,-8.44556 10.5382,-8.02698 0.082,0.0819 -0.1723,1.83365 -0.565,3.89273 -1.3398,7.0257 -0.6148,13.96704 2.2901,21.92677 2.6479,7.25529 5.4359,12.03865 10.8854,18.67557 11.2675,13.72261 30.2742,22.89107 47.4549,22.89136 2.8025,5e-5 5.2152,0.19376 5.3615,0.43046 0.3452,0.55869 -11.3483,13.60376 -12.9438,14.43968 -1.5377,0.80573 -8.4487,2.14431 -10.7632,2.08474 -0.9625,-0.0248 -3.325,-0.34339 -5.25,-0.70804 z"
       id="path161"
       transform="scale(0.26458333)" /><path
       style="fill:#e1952a;fill-opacity:1;stroke:#000000;stroke-width:0.357188"
       d="m 765.93845,160.66823 c -5.87182,-5.55493 -13.36615,-11.01015 -17.3826,-13.88254 -1.53646,-1.09882 -3.7546,-2.22096 -3.93867,-2.77872 -0.25087,-0.7602 1.90929,-2.48124 3.61339,-4.25388 2.18668,-2.27465 3.92935,-3.26758 6.09989,-3.47552 1.03444,-0.0991 1.02722,-0.1054 1.56996,1.36662 0.52446,1.4224 1.0052,2.35707 2.12164,4.12486 2.66628,4.22191 6.60641,9.3944 11.635,15.27414 1.17287,1.3714 2.13251,2.55681 2.13251,2.63425 0,0.52222 -2.65528,3.40511 -3.13629,3.40511 -0.0895,0 -1.31119,-1.08645 -2.71483,-2.41432 z"
       id="path163" /><path
       style="fill:#e1952a;fill-opacity:1;stroke:#000000;stroke-width:0.357188"
       d="m 773.66282,169.72843 c -0.97554,-0.49995 -2.60281,-2.22468 -3.23053,-3.42408 -0.27215,-0.51996 -0.4948,-1.02678 -0.4948,-1.12625 0,-0.21288 3.50163,-3.71756 3.93335,-3.93678 0.24432,-0.12406 0.41566,-0.0896 0.99219,0.19938 1.09103,0.54694 4.02399,2.79247 4.36245,3.33999 0.88794,1.43643 -0.29433,3.85396 -2.4375,4.98423 -0.90205,0.47573 -2.15419,0.4611 -3.12516,-0.0365 z"
       id="path164" /></g></svg>
