<?xml version="1.0" encoding="UTF-8" standalone="no"?>
<!-- Created with Inkscape (http://www.inkscape.org/) -->

<svg
   width="59.146389mm"
   height="65.851631mm"
   viewBox="0 0 59.146389 65.851631"
   version="1.1"
   id="svg1"
   xml:space="preserve"
   xmlns="http://www.w3.org/2000/svg"
   xmlns:svg="http://www.w3.org/2000/svg"><defs
     id="defs1" /><g
     id="layer1"
     transform="translate(-1099.9894,-15.09685)"><path
       style="fill:#000000"
       d="m 1128.0946,80.931038 -1.2348,-0.01752 -0.3527,-0.04021 -0.3528,-0.04021 -1.0584,-0.127406 -1.0583,-0.127406 -1.3116,-0.288495 -1.3116,-0.288496 -1.2754,-0.4131 -1.2755,-0.413101 -1.2935,-0.574091 -1.2935,-0.574092 -0.9995,-0.55272 -0.9996,-0.552721 -1.007,-0.688836 -1.007,-0.688835 -1.1226,-0.936948 -1.1225,-0.936948 -0.7994,-0.858487 -0.7994,-0.858486 -0.846,-1.131449 -0.8459,-1.131449 -0.6141,-1.073108 -0.614,-1.073108 -0.4561,-1.05155 -0.4561,-1.05155 -0.3529,-1.153615 -0.3528,-1.153616 -0.1819,-0.906 -0.1818,-0.906001 -0.1327,-1.210666 -0.1328,-1.210666 0.065,-1.705093 0.065,-1.705092 0.2384,-1.352315 0.2383,-1.352315 0.3621,-1.21416 0.3622,-1.21416 0.6513,-1.490469 0.6514,-1.49047 0.052,-0.176389 0.052,-0.176389 -0.6651,-0.47037 -0.6652,-0.470371 -0.9034,-0.881944 -0.9033,-0.881944 -0.5627,-0.764352 -0.5627,-0.764352 -0.4154,-0.823148 -0.4155,-0.823148 -0.2811,-0.823149 -0.2811,-0.823148 -0.1726,-0.985542 -0.1726,-0.985542 v -1.081013 -1.081004 l 0.1895,-1.108454 0.1895,-1.108453 0.3535,-1.058333 0.3534,-1.058333 0.5643,-1.124556 0.5642,-1.124556 0.5552,-0.815722 0.5552,-0.815722 0.8364,-0.990614 0.8365,-0.990614 1.0284,-0.884462 1.0284,-0.884462 0.8531,-0.571204 0.8531,-0.571203 1.0409,-0.522934 1.0409,-0.522933 h 0.2932 0.2933 l 0.3315,0.195824 0.3315,0.195823 0.143,0.303945 0.1431,0.303945 0.088,2.116667 0.088,2.116667 0.2652,1.205324 0.2653,1.205324 h 0.1015 0.1014 v -0.690152 -0.690152 l 0.1795,-1.029404 0.1795,-1.029403 0.3862,-1.028158 0.3862,-1.028158 0.5162,-0.90216 0.5162,-0.902159 0.7405,-0.92557 0.7405,-0.92557 0.8529,-0.737029 0.8528,-0.737028 0.9407,-0.61166 0.9407,-0.61166 0.7056,-0.352383 0.7055,-0.352384 0.882,-0.316856 0.8819,-0.316856 1.1172,-0.284723 1.1171,-0.284723 0.5698,-0.0011 0.5698,-0.0011 0.3382,0.199761 0.3382,0.19976 0.1209,0.346954 0.121,0.346954 v 2.892869 2.892869 l 0.1098,2.822222 0.1098,2.822222 0.08,2.969213 0.08,2.969213 h 0.791 0.7909 l 0.084,-2.633576 0.084,-2.633576 -0.022,-6.038878 -0.021,-6.038877 0.1224,-0.307937 0.1225,-0.307937 0.3186,-0.250628 0.3186,-0.250628 h 0.3978 0.3977 l 1.1337,0.245621 1.1337,0.245621 1.1778,0.409953 1.1777,0.409953 0.8284,0.417143 0.8283,0.417143 0.7681,0.507591 0.7681,0.507592 0.7825,0.647213 0.7824,0.647213 0.7343,0.853138 0.7343,0.853138 0.5208,0.80509 0.5208,0.80509 0.4091,0.897747 0.4091,0.897746 0.2944,1.00794 0.2944,1.007939 0.152,1.058333 0.152,1.058333 0.1368,-0.335723 0.1367,-0.335724 0.1761,-1.094288 0.1761,-1.094288 0.091,-2.004302 0.091,-2.004301 0.2754,-0.293152 0.2754,-0.293151 0.3238,-0.07111 0.3238,-0.07111 0.6397,0.215979 0.6398,0.215979 0.8942,0.511642 0.8942,0.511641 0.9203,0.688713 0.9203,0.688714 0.985,0.971132 0.985,0.971133 0.7311,0.940741 0.7311,0.940741 0.5498,0.912967 0.5498,0.912968 0.3039,0.674532 0.3039,0.674533 0.3325,0.968001 0.3324,0.968001 0.2073,0.972276 0.2073,0.972277 4e-4,1.528704 3e-4,1.528704 -0.1482,0.705555 -0.1482,0.705556 -0.2443,0.764352 -0.2443,0.764351 -0.4996,0.999537 -0.4996,0.999537 -0.5517,0.748397 -0.5518,0.748396 -0.8429,0.81847 -0.8429,0.818469 -0.9569,0.650209 -0.9569,0.650208 0.4487,0.971215 0.4487,0.971214 0.356,1.162637 0.3561,1.162637 0.1815,0.983129 0.1816,0.983129 v 1.162936 1.162936 h 0.1115 0.1115 l 0.6823,-0.568644 0.6822,-0.568645 0.1679,-0.203461 0.1678,-0.203461 0.3261,-0.168635 0.3261,-0.168636 h 0.3952 0.3953 l 0.2723,0.253742 0.2724,0.253742 0.2883,0.629806 0.2884,0.629805 0.3434,1.649022 0.3434,1.649021 v 1.925606 1.925605 l -0.1686,0.880961 -0.1685,0.880961 -0.3565,1.064122 -0.3565,1.064123 -0.4895,0.975677 -0.4894,0.975678 -0.71,1.038485 -0.71,1.038486 -0.8696,0.878113 -0.8696,0.878112 -0.9408,0.697542 -0.9407,0.697543 -1.0036,0.547063 -1.0036,0.547062 -0.9651,0.378875 -0.9651,0.378876 -1.1698,0.301899 -1.1699,0.3019 -0.8819,0.152814 -0.8819,0.152815 -2.1167,-0.0046 -2.1167,-0.0046 -1.3523,-0.253559 -1.3523,-0.253558 -1.113,-0.350207 -1.113,-0.350206 -0.021,0.02374 -0.021,0.02374 -0.248,0.807439 -0.2479,0.807439 -0.1176,1.038043 -0.1176,1.038043 -0.1047,0.271185 -0.1048,0.271184 -0.28,0.260244 -0.28,0.260243 -0.7026,0.177719 -0.7026,0.177719 -1.2935,0.120504 -1.2935,0.120505 z m 0.8525,-3.168672 1.3817,0.01139 V 77.233663 76.69357 l 0.238,-1.167756 0.238,-1.167755 0.3027,-0.967383 0.3028,-0.967383 0.6963,-1.462152 0.6962,-1.462153 0.7497,-1.124884 0.7497,-1.124885 0.9599,-1.024843 0.9599,-1.024843 0.9046,-0.73059 0.9045,-0.730589 1.2348,-0.808148 1.2347,-0.808148 1.8305,-0.92751 1.8305,-0.927511 1.4583,-0.599446 1.4583,-0.599446 0.7272,-0.406719 0.7273,-0.40672 0.5488,-0.533315 0.5487,-0.533315 0.2867,-0.626316 0.2868,-0.626316 0.1305,-0.693113 0.1305,-0.693112 -0.067,-1.175926 -0.067,-1.175926 -0.2898,-1.132916 -0.2898,-1.132917 -0.3737,-0.851531 -0.3737,-0.85153 -0.5252,-0.88835 -0.5252,-0.88835 -0.7433,-0.948962 -0.7432,-0.948962 -1.2197,-1.179453 -1.2196,-1.179452 -0.7056,-0.538558 -0.7056,-0.538559 -1.0705,-0.70231 -1.0706,-0.70231 -1.1637,-0.594602 -1.1637,-0.594602 -1.1759,-0.438265 -1.1759,-0.438266 -1.0811,-0.274852 -1.081,-0.274853 -1.3043,-0.181913 -1.3042,-0.181913 h -1.7923 -1.7924 l -0.9964,0.123174 -0.9965,0.123173 -1.1759,0.236061 -1.1759,0.23606 -1.6257,0.539074 -1.6256,0.539074 -1.5494,0.779238 -1.5493,0.779237 -1.0323,0.69077 -1.0323,0.690769 -1.1432,0.961154 -1.1432,0.961155 -0.9799,1.109651 -0.9799,1.109651 -0.7066,1.052783 -0.7065,1.052783 -0.5102,1.015801 -0.5102,1.0158 -0.4151,1.192791 -0.4152,1.192791 -0.2457,1.26594 -0.2457,1.265941 -0.069,1.352315 -0.069,1.352314 0.1451,1.411111 0.1451,1.411112 0.3276,1.293518 0.3277,1.293519 0.425,1.050114 0.425,1.050114 0.6018,1.086402 0.6018,1.086401 0.9141,1.214873 0.914,1.214873 1.2776,1.239615 1.2777,1.239616 0.9736,0.738002 0.9736,0.738002 0.9667,0.600878 0.9666,0.600878 1.5287,0.733804 1.5287,0.733805 1.2347,0.40872 1.2348,0.408719 1.0583,0.251305 1.0583,0.251305 1.0584,0.161425 1.0583,0.161425 z m -4.8425,-4.845499 -1.0077,0.03481 -0.7644,-0.21878 -0.7643,-0.21878 -0.6468,-0.259485 -0.6467,-0.259485 -0.9408,-0.512026 -0.9407,-0.512026 -0.882,-0.61609 -0.8819,-0.61609 -1.2976,-1.303646 -1.2976,-1.303647 -0.6721,-1.012595 -0.672,-1.012595 -0.4626,-0.987125 -0.4626,-0.987126 -0.3014,-1.04025 -0.3015,-1.040251 -0.1281,-0.781788 -0.1282,-0.781788 v -1.469907 -1.469908 l 0.1885,-1.058333 0.1885,-1.058333 0.399,-1.19372 0.3991,-1.193719 0.4902,-0.981744 0.4903,-0.981743 0.6316,-0.940741 0.6317,-0.940741 0.7524,-0.866886 0.7524,-0.866886 0.8668,-0.756054 0.8669,-0.756054 1.0428,-0.703646 1.0429,-0.703646 1.0738,-0.521293 1.0739,-0.521292 1.2347,-0.40124 1.2347,-0.401239 1.1759,-0.219863 1.176,-0.219864 2.1754,0.0083 2.1755,0.0083 1.2347,0.262605 1.2347,0.262604 1.364,0.454053 1.364,0.454053 1.1692,0.586738 1.1692,0.586738 1.0534,0.705906 1.0534,0.705906 0.9694,0.902358 0.9695,0.902359 0.7513,1.001073 0.7514,1.001072 0.4802,0.95903 0.4803,0.959029 0.193,0.758309 0.1929,0.758309 -0.069,0.506188 -0.069,0.506187 -0.2371,0.464756 -0.2371,0.464755 -0.3844,0.306686 -0.3843,0.306685 -3.1143,1.619531 -3.1144,1.619531 -1.1,0.680828 -1.1001,0.680828 -0.9024,0.679938 -0.9023,0.679937 -0.8702,0.8046 -0.8701,0.804599 -0.8608,1.033201 -0.8609,1.033201 -0.6921,1.029308 -0.6921,1.029309 -0.5359,1.067019 -0.5358,1.067019 -0.5386,1.198295 -0.5386,1.198296 -0.3116,0.470936 -0.3117,0.470936 -0.5301,0.310714 -0.5302,0.310713 z m -1.0827,-3.063852 0.5129,-0.04964 0.2158,-0.218747 0.2157,-0.218747 0.9977,-2.004986 0.9977,-2.004986 0.8114,-1.22881 0.8115,-1.228811 0.7403,-0.918081 0.7403,-0.918082 0.9552,-0.969795 0.9552,-0.969796 1.0913,-0.904226 1.0913,-0.904226 1.5801,-1.046874 1.5801,-1.046875 1.8847,-0.962855 1.8848,-0.962855 0.522,-0.507324 0.522,-0.507324 0.1317,-0.489085 0.1317,-0.489086 -0.182,-0.625948 -0.182,-0.625948 -0.5101,-0.690162 -0.5101,-0.690161 -0.7657,-0.713628 -0.7657,-0.713627 -0.8334,-0.554054 -0.8334,-0.554054 -1.096,-0.516695 -1.096,-0.516695 -0.7643,-0.255452 -0.7644,-0.255452 -0.9995,-0.232838 -0.9995,-0.232838 -1.9403,-0.06261 -1.9403,-0.06261 -1.1171,0.194239 -1.1171,0.194239 -1.1948,0.399748 -1.1948,0.399749 -0.8338,0.419918 -0.8338,0.419918 -0.6345,0.405884 -0.6345,0.405884 -0.9029,0.726332 -0.9029,0.726332 -0.6857,0.796699 -0.6857,0.7967 -0.496,0.730354 -0.496,0.730355 -0.507,1.072751 -0.507,1.072751 -0.2367,0.85744 -0.2366,0.85744 -0.138,1.187255 -0.138,1.187256 0.138,1.226448 0.138,1.226448 0.2925,1.009272 0.2924,1.009273 0.4066,0.879955 0.4066,0.879955 0.6741,1.013225 0.6742,1.013224 1.061,1.071426 1.0611,1.071426 1.0417,0.679005 1.0416,0.679005 0.7807,0.281857 0.7807,0.281856 z m 19.0662,3.204954 0.9995,0.0107 1.1176,-0.168481 1.1177,-0.168481 0.999,-0.313843 0.999,-0.313843 0.9408,-0.451152 0.9407,-0.451152 0.6468,-0.429873 0.6467,-0.429873 0.8135,-0.66443 0.8135,-0.66443 0.6748,-0.783931 0.6748,-0.783932 0.4655,-0.685976 0.4656,-0.685976 0.4722,-0.940741 0.4723,-0.94074 0.3154,-0.999537 0.3154,-0.999537 0.1801,-1.175926 0.1802,-1.175926 -0.057,-1.195223 -0.057,-1.195223 -0.077,-0.125358 -0.1832,0.0208 -0.6243,0.424885 -0.7294,0.571049 -0.9995,0.644125 -0.9996,0.644125 -0.9995,0.536926 -0.9996,0.536927 -2.6458,1.193546 -2.6458,1.193546 -1.4699,0.735812 -1.4699,0.735813 -1.0843,0.672096 -1.0842,0.672097 -0.921,0.682852 -0.921,0.682853 -0.8074,0.752692 -0.8075,0.752692 -0.5093,0.689093 -0.5093,0.689094 v 0.494057 0.494057 l 0.2396,0.257258 0.2397,0.257257 0.4365,0.22172 0.4365,0.22172 0.9995,0.315802 0.9996,0.315803 0.9995,0.156745 0.9995,0.156744 z m 7.7839,-29.268473 h 0.1274 l 0.9823,-0.653607 0.9823,-0.653607 0.745,-0.734056 0.7449,-0.734055 0.5011,-0.737826 0.501,-0.737826 0.2956,-0.667336 0.2956,-0.667335 0.2232,-0.871357 0.2232,-0.871357 v -1.325816 -1.325817 l -0.1705,-0.801438 -0.1705,-0.801437 -0.234,-0.673997 -0.234,-0.673997 -0.5036,-0.968008 -0.5036,-0.968009 -0.7003,-0.945032 -0.7003,-0.945031 -0.8998,-0.889438 -0.8998,-0.889437 -0.9118,-0.609868 -0.9118,-0.609869 h -0.09 -0.09 l -0.07,1.675695 -0.07,1.675694 -0.2473,1.269938 -0.2473,1.269937 -0.3529,1.079849 -0.3529,1.079849 -0.5255,1.109327 -0.5255,1.109326 -0.4844,0.774221 -0.4844,0.77422 -0.6105,0.764352 -0.6104,0.764352 -0.2015,0.30977 -0.2014,0.30977 0.7966,0.568474 0.7967,0.568474 1.1776,1.0153 1.1776,1.015301 0.6468,0.702101 0.6468,0.702101 0.5063,0.608752 0.5325,0.541518 z m -41.5264,-0.117593 h 0.097 l 0.5654,-0.672143 0.5653,-0.672143 0.7056,-0.750737 0.7055,-0.750738 0.9445,-0.802326 0.9445,-0.802325 1.0101,-0.68928 1.0101,-0.689279 -0.5199,-0.64269 -0.5199,-0.642691 -0.6306,-0.94074 -0.6306,-0.940741 -0.5842,-1.175926 -0.5842,-1.175926 -0.3031,-0.84574 -0.3031,-0.84574 -0.1926,-0.74176 -0.1927,-0.74176 -0.2231,-1.293518 -0.2231,-1.293519 -8e-4,-1.26412 -0.1042,-1.218646 -0.03,-0.04547 h -0.1338 l -0.9293,0.669088 -0.9293,0.669088 -0.9689,1.006607 -0.969,1.006606 -0.5426,0.764352 -0.5425,0.764352 -0.4272,0.779798 -0.4271,0.779798 -0.3431,0.940299 -0.3432,0.940299 -0.1968,1.043329 -0.1969,1.043329 0.062,1.234722 0.062,1.234722 0.2575,0.823148 0.2576,0.823149 0.4841,0.94074 0.4841,0.940741 1.1211,1.125619 1.121,1.125618 0.7484,0.49128 0.7483,0.491279 z m 30.4819,-8.126688 0.091,0.0128 0.5404,-0.498128 0.5404,-0.498128 0.5015,-0.707196 0.5014,-0.707196 0.3556,-0.7097 0.3556,-0.709699 0.2756,-0.877801 0.1889,-0.886068 0.087,-1.638028 -0.054,-1.646296 -0.2107,-0.916221 -0.2645,-0.916222 -0.4265,-0.847667 -0.4266,-0.847668 -0.4778,-0.705556 -0.4779,-0.705555 -0.8879,-0.888406 -0.8879,-0.888406 -0.9309,-0.62772 -0.931,-0.627721 -0.9505,-0.444764 -0.9505,-0.444764 -0.9083,-0.266628 -0.9083,-0.266629 -0.075,0.07457 -0.074,0.07457 0.1453,3.093693 0.1453,3.093692 -0.077,4.409723 -0.077,4.409722 -0.066,0.727734 -0.065,0.727734 0.4511,0.07226 0.451,0.07226 1.1902,0.227125 1.1902,0.227125 1.5145,0.518182 1.5144,0.518183 z m -19.2107,-0.222386 h 0.2051 l 0.8731,-0.298207 0.8732,-0.298208 1.172,-0.298268 1.172,-0.298268 1.0035,-0.146425 1.0034,-0.146425 -0.014,-0.344831 -0.014,-0.344831 -0.1332,-2.179253 -0.1333,-2.179254 V 22.99329 17.197721 l -0.2058,0.05972 -0.2058,0.05972 -0.5037,0.130194 -0.5037,0.130194 -0.9432,0.397755 -0.9431,0.397754 -0.905,0.559822 -0.905,0.559822 -1.2347,1.241683 -1.2347,1.241682 -0.4805,0.823148 -0.4806,0.823148 -0.3121,0.781588 -0.3121,0.781587 -0.1894,0.805913 -0.1481,0.801778 0.011,1.532838 0.052,1.528704 0.3564,1.025679 0.3564,1.02568 0.5037,0.880401 0.5038,0.880401 0.7556,0.827947 0.7557,0.827947 z"
       id="path165" /><path
       style="fill:#a4c735;fill-opacity:1;stroke:#000000;stroke-width:1.35"
       d="m 4239.389,262.77652 c -4.4377,-1.74058 -8.727,-4.75845 -13.8085,-9.71539 -8.9448,-8.72556 -13.9544,-18.55826 -15.3739,-30.17549 -1.9057,-15.59675 5.1201,-32.03496 18.2934,-42.80096 8.3234,-6.80238 17.2727,-10.91602 27.918,-12.83274 6.6799,-1.20274 18.8427,-0.49638 25.582,1.48569 12.191,3.58547 22.9341,10.42868 28.4308,18.1101 5.603,7.82983 3.8206,11.60334 -8.3782,17.73779 -7.4538,3.74834 -17.9787,10.52735 -23.5922,15.1955 -11.6133,9.65771 -19.5443,19.90937 -27.1441,35.0866 -2.2176,4.4287 -4.23,8.1745 -4.4719,8.32401 -1.4562,0.9 -4.5403,0.72828 -7.4554,-0.41511 z"
       id="path166"
       transform="scale(0.26458333)" /><path
       style="fill:#a4c735;fill-opacity:1;stroke:#000000;stroke-width:1.35"
       d="m 4257,292.93899 c -16.4454,-2.95466 -31.1957,-9.34709 -43.75,-18.96021 -4.6354,-3.5494 -13.4357,-12.54513 -16.8544,-17.22878 -13.7671,-18.86066 -17.4107,-42.56142 -9.887,-64.31345 7.6441,-22.10036 27.3346,-40.32858 52.4914,-48.5931 9.9236,-3.2601 16.3407,-4.4106 26.25,-4.70626 18.9718,-0.56607 34.414,4.01211 50.75,15.04601 12.8774,8.6978 23.7032,21.13225 28.2206,32.41386 2.6852,6.70595 3.6653,11.90584 3.4218,18.15294 -0.2572,6.59656 -1.2615,9.30014 -4.7907,12.89634 -2.8542,2.90834 -5.6698,4.54079 -13.1436,7.62051 -17.0995,7.04616 -30.3376,15.40003 -39.0602,24.64891 -6.3032,6.68362 -13.0756,18.35298 -15.8755,27.35509 -1.3798,4.43607 -3.0224,12.33515 -3.0224,14.53419 V 293.5 l -6.125,-0.0559 c -3.3688,-0.0308 -7.25,-0.25805 -8.625,-0.50509 z m -2.873,-18.12537 c 2.6294,-1.35974 3.4807,-2.6477 8.3451,-12.62501 7.9451,-16.29633 14.5374,-24.75988 26.1767,-33.60733 5.5564,-4.22362 11.4469,-7.7154 23.3512,-13.84218 5.775,-2.97221 11.4577,-6.05372 12.6282,-6.8478 2.3365,-1.58507 3.9206,-4.20687 4.4168,-7.31032 0.9742,-6.09226 -5.2819,-17.67273 -14.1095,-26.1175 -8.4426,-8.07643 -22.9246,-15.29349 -35.4355,-17.65912 -2.2,-0.41599 -7.6,-0.9024 -12,-1.08092 -6.9421,-0.28165 -8.7313,-0.18551 -13.5298,0.72701 -6.5886,1.25292 -14.0617,3.69763 -19.2202,6.28753 -9.1172,4.57746 -18.5097,12.62336 -24.3826,20.88698 -15.1069,21.25634 -16.0867,46.42615 -2.5839,66.37504 3.0533,4.5108 11.9632,13.61838 16.2165,16.5762 4.2788,2.97559 10.8347,6.31768 15.513,7.90827 3.927,1.33515 5.0195,1.50232 8.7535,1.3395 2.6543,-0.11575 4.8688,-0.49752 5.8605,-1.01035 z"
       id="path167"
       transform="scale(0.26458333)" /><path
       style="fill:#a4c735;fill-opacity:1;stroke:#000000;stroke-width:1.35"
       d="m 4186.25,163.17513 c -1.5125,-0.9748 -4.6148,-3.60674 -6.894,-5.84875 -10.6694,-10.49545 -13.2961,-24.26818 -7.5155,-39.40605 3.2035,-8.38907 10.9138,-18.326457 18.6012,-23.974018 l 4.0583,-2.981421 0.3008,5.392554 c 0.9307,16.683655 6.6966,31.936485 16.8069,44.460685 l 1.6695,2.06813 -5.0543,3.60859 c -4.9026,3.50029 -13.2825,11.31514 -17.2681,16.10389 L 4189,164.94748 Z"
       id="path168"
       transform="scale(0.26458333)" /><path
       style="fill:#a4c735;fill-opacity:1;stroke:#000000;stroke-width:1.35"
       d="m 4228.3427,130.26956 c -3.507,-3.74902 -6.2496,-8.40429 -8.2073,-13.9308 -1.2266,-3.46291 -1.3845,-4.60918 -1.3776,-10 0.011,-8.434457 1.3198,-13.262826 5.5002,-20.288952 2.4418,-4.10396 10.1041,-11.704186 14.492,-14.374586 4.4531,-2.71008 12.8593,-6.153168 15.0699,-6.172434 0.176,-0.0015 0.4598,12.990962 0.6308,28.872212 0.1709,15.88125 0.3644,29.88155 0.43,31.11178 l 0.1193,2.23679 -4,0.58385 c -4.6422,0.67757 -10.4411,2.12631 -15.7126,3.92548 -2.0419,0.6969 -3.7599,1.2671 -3.8177,1.2671 -0.058,0 -1.4649,-1.4537 -3.127,-3.23044 z"
       id="path169"
       transform="scale(0.26458333)" /><path
       style="fill:#a4c735;fill-opacity:1;stroke:#000000;stroke-width:1.35"
       d="m 4297.75,131.95144 c -3.1625,-1.08476 -8.4131,-2.46141 -11.668,-3.05924 l -5.9181,-1.08695 0.2718,-1.35863 c 0.6291,-3.14552 0.9041,-39.651199 0.3739,-49.623518 -0.305,-5.734793 -0.4447,-10.604586 -0.3104,-10.82176 0.349,-0.564712 6.8831,1.562738 11.0008,3.581745 12.132,5.948684 21.0598,16.011575 24.3201,27.41203 1.2403,4.337283 1.3055,15.297303 0.1154,19.427923 -1.0081,3.49949 -3.2432,8.03346 -5.5837,11.32696 -1.9074,2.68393 -5.5336,6.21807 -6.3518,6.19054 -0.275,-0.009 -3.0875,-0.90435 -6.25,-1.9891 z"
       id="path170"
       transform="scale(0.26458333)" /><path
       style="fill:#a4c735;fill-opacity:1;stroke:#000000;stroke-width:1.35"
       d="m 4341.9024,160.80607 c -4.0098,-4.62261 -11.2781,-11.22193 -16.8077,-15.26045 l -2.9052,-2.12188 1.3708,-1.83687 c 0.754,-1.01028 2.1817,-2.84937 3.1728,-4.08687 5.794,-7.23459 10.8618,-18.75093 12.7614,-29 0.4842,-2.6125 1.0211,-7.62132 1.193,-11.130718 l 0.3125,-6.380717 3.5,2.315862 c 9.483,6.274685 17.8503,17.625083 20.9966,28.482343 1.0402,3.58935 1.2534,5.38776 1.2534,10.57199 0,6.54404 -0.613,9.99527 -2.5645,14.4375 -2.9047,6.61205 -9.7275,13.673 -17.721,18.33947 -0.2944,0.17192 -2.3474,-1.77643 -4.5621,-4.32966 z"
       id="path171"
       transform="scale(0.26458333)" /><path
       style="fill:#a4c735;fill-opacity:1;stroke:#000000;stroke-width:1.35"
       d="m 4309,275.26728 c -3.998,-0.69314 -10.2873,-2.52013 -12.5,-3.63112 -5.7223,-2.87308 -5.0124,-6.35514 2.8408,-13.93567 8.4142,-8.12203 17.8365,-13.73525 38.9607,-23.21026 13.8884,-6.22951 22.6112,-11.08024 28.6422,-15.92787 1.0691,-0.8593 2.1056,-1.56236 2.3033,-1.56236 0.8356,0 0.9948,8.82933 0.2434,13.5 -2.8176,17.51359 -12.8376,31.26857 -28.7404,39.45342 -10.0285,5.16144 -21.5281,7.08609 -31.75,5.31386 z"
       id="path172"
       transform="scale(0.26458333)" /></g></svg>
