<?xml version="1.0" encoding="UTF-8" standalone="no"?>
<!-- Created with Inkscape (http://www.inkscape.org/) -->

<svg
   width="64.146538mm"
   height="63.516052mm"
   viewBox="0 0 64.146538 63.516052"
   version="1.1"
   id="svg1"
   xml:space="preserve"
   xmlns="http://www.w3.org/2000/svg"
   xmlns:svg="http://www.w3.org/2000/svg"><defs
     id="defs1" /><g
     id="layer1"
     transform="translate(-674.51738,-30.594671)"><path
       style="fill:#000000"
       d="m 706.09102,94.092255 -0.41157,-0.01847 -0.41158,-0.0397 -0.41157,-0.0397 -1.41111,-0.188958 -1.41111,-0.188957 -1.31498,-0.330408 -1.31498,-0.330407 -0.91928,-0.479884 -0.91928,-0.479885 -0.94074,-0.711384 -0.94074,-0.711385 -2.3662,-2.047695 -2.36619,-2.047696 -1.74955,-1.630889 -1.74954,-1.630888 -1.86401,-1.931202 -1.864,-1.931202 -0.70017,-0.927247 -0.70016,-0.927248 -0.39373,-0.781836 -0.39373,-0.781837 -0.36181,-1.171935 -0.36181,-1.171934 -0.30443,-1.293519 -0.30442,-1.293518 -0.80649,-4.056944 -0.80649,-4.056945 -0.31738,-1.289139 -0.31738,-1.289139 -0.22311,-0.520477 -0.2231,-0.520477 -0.87791,-1.318307 -0.87792,-1.318307 -0.22757,-0.517447 -0.22756,-0.517448 -0.23733,-0.94074 -0.23733,-0.940741 -0.15367,-1.058333 -0.15368,-1.058334 0.004,-3.704166 0.004,-3.704167 0.20717,-1.705093 0.20716,-1.705092 0.2233,-1.10322 0.2233,-1.10322 0.31908,-0.660669 0.31908,-0.660669 0.89246,-0.885694 0.89247,-0.885693 1.17593,-0.778394 1.17593,-0.778395 1.39766,-0.79619 1.39766,-0.796191 1.24817,-0.556761 1.24817,-0.556761 0.76435,-0.263343 0.76436,-0.263344 0.94074,-0.04998 0.94074,-0.04998 0.87079,0.301552 0.87079,0.301553 0.87617,0.546094 0.87617,0.546094 1.86462,1.447528 1.86462,1.447528 1.26851,0.900204 1.26851,0.900203 1.05834,0.622012 1.05833,0.622011 0.56489,0.189882 0.56489,0.189881 0.25826,-0.137007 0.25826,-0.137006 0.17639,-0.240809 0.17638,-0.240808 0.35278,-0.649132 0.35278,-0.649131 0.39774,-0.266095 0.39774,-0.266094 0.42541,-0.129877 0.42541,-0.129877 0.98781,-0.06342 0.98781,-0.06341 0.80338,0.143571 0.80337,0.14357 0.38428,0.256474 0.38427,0.256473 0.70556,1.054589 0.70555,1.054589 0.21472,0.04129 0.21471,0.04129 1.13679,-0.568906 1.13679,-0.568907 1.41192,-0.943219 1.41193,-0.94322 1.88021,-1.453428 1.88021,-1.453427 0.82442,-0.555704 0.82441,-0.555705 0.52351,-0.266548 0.52351,-0.266549 0.64143,-0.220683 0.64143,-0.220684 h 0.55907 0.55907 l 1.12616,0.299737 1.12615,0.299737 1.61891,0.735011 1.61891,0.735012 1.24336,0.649328 1.24336,0.649328 0.87275,0.579035 0.87276,0.579036 1.00287,1.000083 1.00287,1.000082 0.4261,0.823148 0.4261,0.823149 0.13072,0.47037 0.13071,0.47037 0.2924,2.757771 0.29239,2.757771 1.7e-4,2.592692 1.7e-4,2.592692 -0.1208,1.293519 -0.12081,1.293518 -0.11278,0.851231 -0.11278,0.851231 -0.33982,0.749441 -0.33981,0.749442 -0.84908,1.320482 -0.84909,1.320481 -0.33463,0.724217 -0.33464,0.724216 -0.41523,1.705093 -0.41522,1.705092 -0.71131,3.998148 -0.7113,3.998149 -0.35295,1.469907 -0.35295,1.469907 -0.24711,0.764352 -0.24711,0.764352 -0.40129,0.774162 -0.40129,0.774163 -0.78534,0.989726 -0.78535,0.989727 -2.88515,2.889059 -2.88515,2.889059 -1.41111,1.233993 -1.41111,1.233993 -1.44199,1.196332 -1.442,1.196333 -0.86509,0.651119 -0.86509,0.65112 -0.92671,0.52935 -0.92671,0.52935 -1.0626,0.341414 -1.0626,0.341413 -0.99527,0.186038 -0.99527,0.186037 -1.82269,0.174893 -1.82268,0.174893 z m 0.47037,-2.943298 0.88195,-0.03987 1.11713,-0.560376 1.11713,-0.560377 1.65489,-0.335818 1.65489,-0.335818 0.64437,-0.304837 0.64437,-0.304837 1.34611,-1.076366 1.34611,-1.076366 1.17265,-1.013334 1.17265,-1.013334 2.12776,-2.116667 2.12775,-2.116666 1.35258,-1.528704 1.35257,-1.528704 1.16785,-1.392408 1.16786,-1.392408 0.20475,-0.321781 0.20476,-0.321782 0.22982,-0.931644 0.22982,-0.931643 0.18312,-1.293519 0.18313,-1.293518 0.29652,-3.197092 0.29653,-3.197092 0.97861,-2.094575 0.97861,-2.094575 -0.0855,-0.03451 -0.0855,-0.03451 -1.63095,0.708389 -1.63096,0.708389 1.13852,-1.058611 1.13851,-1.058612 0.75264,-0.908784 0.75263,-0.908785 0.47414,-0.705555 0.47414,-0.705556 0.44385,-0.881944 0.44384,-0.881945 0.2837,-0.75366 0.28371,-0.753659 0.16556,-0.716248 0.16556,-0.716248 0.12633,-1.570452 0.12632,-1.570453 -0.12443,-1.66652 -0.12443,-1.666519 -0.28081,-1.231546 -0.2808,-1.231547 -0.39666,-0.94074 -0.4442,-0.886998 -0.19947,-0.05374 -0.19948,0.04961 -1.07253,1.039228 -1.02498,1.088837 -0.56312,1.348511 -0.56312,1.34851 -0.32843,0.561264 -0.32842,0.561263 -1.12484,1.13052 -1.12484,1.13052 -0.98006,0.721373 -0.98007,0.721374 -1.12638,0.558755 -1.12637,0.558754 -1.06856,-0.0098 -1.06856,-0.0098 -1.29148,-0.437055 -1.29149,-0.437056 -1.49365,-0.776196 -1.49366,-0.776197 -0.59803,-0.452633 -0.58049,-0.367858 -0.0708,-0.01169 -0.0562,0.02923 0.0371,0.786262 0.0751,0.888577 -0.54077,-0.388351 -0.54077,-0.388351 -0.81285,-0.855716 -0.81284,-0.855717 -0.53971,-0.73224 -0.53972,-0.732241 -0.39943,-0.7921 -0.39944,-0.7921 -0.29885,-0.912993 -0.29886,-0.912993 -0.35544,-1.763888 -0.35544,-1.763889 -0.10366,-0.105965 -0.10366,-0.105965 -0.56431,-0.09281 -0.56432,-0.09281 -0.91512,-0.007 -0.91512,-0.007 -0.40087,0.167494 -0.40087,0.167494 -0.11967,0.449867 -0.11968,0.449867 -0.25,1.411111 -0.25001,1.411111 -0.23388,0.705556 -0.23389,0.705555 -0.40176,0.840995 -0.40176,0.840996 -0.60749,0.908274 -0.60749,0.908275 -0.84888,0.859969 -0.84888,0.85997 -0.39685,0.241941 -0.39685,0.241942 -0.0997,4.39e-4 -0.0997,4.4e-4 0.0732,-0.676158 0.0732,-0.676157 -0.10652,-0.160754 -0.14745,-0.05844 -0.5871,0.394119 -0.62804,0.496433 -1.59078,0.792954 -1.59078,0.792955 -0.8286,0.313008 -0.82861,0.313009 -0.80654,0.16875 -0.80655,0.168751 -0.5991,-0.110355 -0.59911,-0.110355 -0.95237,-0.467994 -0.95237,-0.467993 -0.97696,-0.698353 -0.97696,-0.698353 -1.03021,-0.950079 -1.0302,-0.950079 -0.5247,-0.794723 -0.5247,-0.794724 -0.38016,-0.881945 -0.38016,-0.881944 -0.39935,-0.767953 -0.39935,-0.767952 -0.99516,-0.989994 -0.99516,-0.989994 -0.46756,0.997731 -0.46755,0.99773 -0.28801,1.112994 -0.28801,1.112994 -0.1465,1.336684 -0.1465,1.336685 0.0703,1.661926 0.0703,1.661927 0.23192,1.090935 0.23192,1.090936 0.25895,0.790546 0.25895,0.790546 0.45396,0.960692 0.45397,0.960692 0.72449,1.083133 0.75034,1.073832 1.16171,1.200632 1.18754,1.19133 0.44909,0.333507 0.44908,0.333506 -0.0584,0.05837 -0.0584,0.05837 -1.61462,-0.77643 -1.58246,-0.720889 -0.0431,0.0314 0.01,0.08402 0.91171,2.135498 0.98479,2.231967 0.25263,2.700088 0.25262,2.700088 0.23617,1.646296 0.23617,1.646296 0.24466,0.976853 0.24467,0.976852 0.43786,0.669444 0.43786,0.669444 0.81014,0.890409 0.81014,0.890409 1.64629,1.871721 1.6463,1.871721 2.35185,2.358668 2.35185,2.358667 1.50268,1.279611 1.50268,1.279612 0.59968,0.403852 0.59969,0.403853 0.51616,0.228321 0.51616,0.228322 1.61481,0.343438 1.61481,0.343439 1.29352,0.658281 1.29352,0.658281 z m -13.91872,-11.501636 -0.016,-2.12e-4 -0.67482,-0.617149 -0.67482,-0.617149 -0.6377,-1.030315 -0.6377,-1.030316 -0.38766,-0.909962 -0.38766,-0.909962 -0.0457,-1.484439 -0.0457,-1.48444 0.1928,-1.314707 0.1928,-1.314707 0.29549,-1.140205 0.29549,-1.140206 0.3852,-0.705556 0.3852,-0.705555 0.40205,-0.276918 0.40206,-0.276919 1.23472,0.06048 1.23472,0.06048 2.05787,0.435307 2.05788,0.435308 0.97145,0.144373 0.97145,0.144373 0.10992,-0.132448 0.10992,-0.132449 0.28789,-0.99515 0.21968,-0.953809 -0.83068,-0.100141 -0.89889,-0.0588 -0.43757,-0.272071 -0.43757,-0.272071 -0.48967,-0.551078 -0.48966,-0.551077 -0.27582,-0.587963 -0.27583,-0.587963 0.0935,-0.03193 0.0935,-0.03193 1.26138,0.590497 0.87189,0.311039 0.0896,0.0081 0.0202,-0.05504 -1.58975,-1.937305 -2.11382,-2.263658 0.0769,-0.140322 0.0769,-0.140322 0.66618,-0.477039 0.66618,-0.477039 h 0.17581 0.17581 l 2.15568,2.440046 2.15568,2.440047 0.76435,0.805281 0.76435,0.805282 0.31754,0.164857 0.31754,0.164857 h 0.30567 0.30566 l 0.37292,-0.192844 0.37292,-0.192844 0.67957,-0.648204 0.67957,-0.648204 0.67958,0.648204 0.67957,0.648204 0.37292,0.192844 0.37292,0.192844 h 0.28213 l 0.26145,-0.04961 0.50496,-0.275643 0.48429,-0.325253 1.19719,-1.350442 1.19719,-1.350442 1.58296,-1.73449 1.58296,-1.734491 h 0.16242 0.16243 l 0.50378,0.382176 0.50378,0.382176 0.28557,0.187134 0.28557,0.187135 -2.12846,2.28231 -2.00857,2.137616 0.0964,0.06236 0.19145,0.01275 1.10614,-0.448361 1.33764,-0.584786 0.0437,0.04366 0.0437,0.04366 -0.33504,0.617394 -0.33504,0.617393 -0.52917,0.541352 -0.52916,0.541352 -0.56185,0.262451 -0.56185,0.26245 -0.68044,0.07112 -0.60188,0.124863 0.19245,0.881911 0.27101,0.935654 0.0669,0.10821 0.0669,0.10821 0.43403,-0.0035 0.43404,-0.0035 1.5287,-0.292424 1.5287,-0.292424 1.68504,-0.292087 1.68504,-0.292088 h 0.58446 0.58446 l 0.32948,0.170382 0.32948,0.170382 0.35818,0.407943 0.35818,0.407943 0.25813,0.685796 0.25813,0.685795 0.21693,0.842568 0.21693,0.842568 0.19803,1.368373 0.19803,1.368372 -0.0529,1.375633 -0.0529,1.375634 -0.39399,0.940741 -0.39399,0.940741 -0.47872,0.805389 -0.47873,0.805389 -0.86041,0.899703 -0.86041,0.899704 0.0721,-0.293982 0.0721,-0.293981 0.30911,-1.11713 0.30911,-1.117129 0.009,-1.763889 0.009,-1.763889 -0.29826,-0.579589 -0.29826,-0.57959 -0.12312,-0.04104 -0.12312,-0.04104 -0.14699,0.503037 -0.147,0.503037 -0.41323,0.764351 -0.41323,0.764352 -0.31191,0.411574 -0.31192,0.411574 -0.0588,-1.414336 -0.0588,-1.414336 -0.39192,-0.795356 -0.39192,-0.795355 -0.25484,0.07697 -0.25484,0.07697 -0.66721,0.351055 -0.66722,0.351056 -0.14282,0.605743 -0.14282,0.605744 -0.39113,0.782554 -0.39113,0.782554 -0.63886,0.687353 -0.63887,0.687353 -0.36483,0.212436 -0.36483,0.212435 v -0.03913 -0.03913 l -0.12396,-0.988582 -0.12395,-0.988582 -0.0508,-0.08214 -0.0508,-0.08214 -0.4643,0.229715 -0.46429,0.229714 -0.91909,0.163171 -0.91908,0.163171 -1.88148,0.07882 -1.88149,0.07882 -1.69927,-0.141772 -1.69928,-0.141772 -0.88359,-0.280591 -0.88359,-0.280591 -0.0866,0.140107 -0.0866,0.140107 -0.0646,0.443377 -0.0646,0.443378 -0.0692,0.470863 -0.0692,0.470864 -0.35744,-0.20628 -0.35743,-0.206281 -0.49611,-0.477905 -0.49611,-0.477906 -0.42905,-0.767207 -0.42904,-0.767207 -0.11236,-0.342387 -0.11235,-0.342388 -0.12152,-0.476169 -0.12152,-0.476169 -0.81328,-0.393442 -0.81329,-0.393442 -0.19391,0.07441 -0.19392,0.07441 -0.31428,0.677606 -0.31427,0.677606 -0.0453,1.322917 -0.0453,1.322917 h -0.0989 -0.0989 l -0.29751,-0.390056 -0.29751,-0.390056 -0.47282,-1.008985 -0.47283,-1.008984 v -0.18152 -0.181519 l -0.10835,-0.06696 -0.12074,0.01365 -0.29769,0.553185 -0.31009,0.6338 -0.11081,0.782467 -0.11081,0.782467 0.12659,1.135266 0.12659,1.135266 0.33046,1.271451 0.33046,1.271451 z m 3.81045,-35.758621 1.00423,0.01068 0.68192,-0.177617 0.68192,-0.177618 0.56202,-0.241773 0.56201,-0.241773 0.36598,-0.377591 0.36598,-0.377592 0.0668,-0.349545 0.0668,-0.349546 -0.73215,-0.411574 -0.73215,-0.411574 -1.41959,-0.988238 -1.41959,-0.988238 -1.6463,-1.254452 -1.6463,-1.254452 -1.88148,-1.444433 -1.88148,-1.444433 -0.39941,-0.409634 -0.3994,-0.409635 -0.30615,0.07136 -0.30615,0.07136 -1.11713,0.188273 -1.11713,0.188274 -0.46628,0.236453 -0.46627,0.236453 -0.50384,0.421153 -0.50383,0.421152 -0.0672,0.211738 0.0497,0.217585 1.00858,1.225855 1.12551,1.231703 v 0.04949 0.04949 l -0.96982,-0.40902 -0.96983,-0.40902 -0.86264,-0.236663 -0.86265,-0.236663 -0.075,0.07501 0.0448,0.07209 0.002,0.08472 0.12136,0.0818 1.40393,1.014232 1.40394,1.014233 1.5287,0.99844 1.5287,0.99844 1.41112,0.800322 1.41111,0.800323 1.5287,0.738365 1.5287,0.738365 0.64676,0.17152 0.64676,0.171519 z m 20.13675,0.0044 1.03265,0.0063 0.73124,-0.243497 0.73124,-0.243496 2.05788,-1.064515 2.05787,-1.064514 1.23472,-0.709822 1.23472,-0.709821 1.17593,-0.757782 1.17592,-0.757782 1.32292,-0.946155 1.32292,-0.946155 v -0.09999 -0.09999 h -0.2228 -0.2228 l -0.80614,0.248206 -0.80613,0.248207 -0.75352,0.340797 -0.75351,0.340796 -0.0434,-0.04344 -0.0434,-0.04344 0.41617,-0.317425 0.41617,-0.317426 0.59538,-0.786704 0.59538,-0.786704 0.16758,-0.09404 0.16758,-0.09404 V 34.80319 34.655712 l -0.38218,-0.358798 -0.38217,-0.358799 -0.56153,-0.377512 -0.56153,-0.377512 -0.73199,-0.117842 -0.73199,-0.117841 -0.67438,-0.168453 -0.67439,-0.168453 h -0.10635 -0.10635 l -1.04195,0.895102 -1.04195,0.895102 -1.26215,0.992479 -1.26216,0.992479 -2.97118,2.120421 -2.97118,2.120422 -0.79494,0.489914 -0.79494,0.489915 0.0715,0.352778 0.0715,0.352777 0.15884,0.251282 0.15884,0.251281 0.39108,0.241697 0.39107,0.241697 0.99664,0.294513 0.99665,0.294513 z"
       id="path173" /><path
       style="fill:#d74a5e;fill-opacity:1;stroke:#000000;stroke-width:0.954594"
       d="m 2662.0581,341.89831 c -4.4381,-2.245 -5.2412,-2.52117 -10.7834,-3.70813 -6.4794,-1.38767 -9.099,-2.40565 -12.7395,-4.9505 -7.6933,-5.37804 -24.5585,-21.6453 -37.0353,-35.72241 -4.3077,-4.8602 -8.9195,-10.03092 -10.2484,-11.49048 -3.6329,-3.99026 -5.327,-6.95051 -6.3748,-11.13903 -1.1946,-4.77571 -2.4885,-14.19785 -3.6157,-26.32882 l -0.9353,-10.06536 -3.5244,-7.96586 c -1.9384,-4.38122 -3.607,-8.16437 -3.7079,-8.40699 -0.101,-0.24261 2.476,0.83131 5.7267,2.38649 3.2507,1.55518 6.1314,2.82761 6.4015,2.82761 0.8291,0 0.5484,-0.61946 -0.6579,-1.45169 -0.632,-0.436 -3.3535,-2.95265 -6.0477,-5.59254 -8.8975,-8.71799 -13.9514,-17.76854 -16.6976,-29.9021 -1.3218,-5.84018 -1.7465,-15.32738 -0.9893,-22.09709 0.7315,-6.53917 2.4099,-12.96486 4.5587,-17.45282 l 1.6698,-3.48747 3.5218,3.48747 c 3.7335,3.69709 4.9077,5.5918 8.441,13.62102 2.1504,4.88663 4.6614,8.31822 9.0208,12.32812 7.6619,7.0476 16.6129,12.41637 21.5639,12.93385 2.6368,0.2756 6.5468,-0.49307 11.0119,-2.16487 4.9157,-1.84047 14.8248,-6.93255 17.4152,-8.94926 1.6019,-1.24722 2.3767,-1.65815 2.5745,-1.36551 0.1557,0.23025 0.1818,1.65166 0.058,3.15868 -0.1581,1.92583 -0.1068,2.74004 0.1725,2.74004 1.8361,0 8.6929,-6.55175 12.0441,-11.50838 4.8268,-7.13899 6.8264,-12.16846 8.4835,-21.33839 1.5294,-8.4625 1.4528,-8.26346 3.4524,-8.98015 1.9895,-0.71306 6.3709,-0.7953 10.0449,-0.18855 1.9694,0.32523 2.551,0.56486 2.7891,1.14904 0.1655,0.40597 0.8767,3.6019 1.5805,7.10208 2.101,10.4494 4.194,15.86996 8.3275,21.56692 2.8312,3.90198 7.9127,9.23476 10.5878,11.1112 l 2.23,1.56429 -0.2423,-3.44744 c -0.2729,-3.88235 -0.465,-3.77678 2.6041,-1.43097 3.3483,2.55917 12.5514,7.10154 18.269,9.01698 4.9681,1.66436 5.3971,1.74733 9.0352,1.74733 h 3.8194 l 4.3256,-2.16506 c 5.935,-2.97061 9.4691,-5.59135 15.3998,-11.41989 5.6919,-5.59378 6.3219,-6.53294 9.5824,-14.28338 l 2.1221,-5.04454 3.8134,-4.05165 c 4.8511,-5.15416 4.9388,-5.16067 6.8941,-0.51214 3.4398,8.17796 5.0298,20.74484 4.0304,31.85467 -0.7366,8.18789 -2.0378,12.83823 -5.5429,19.80956 -3.1747,6.31402 -8.5357,13.1603 -15.1563,19.35505 -2.3635,2.21151 -4.2307,4.08746 -4.1494,4.1688 0.081,0.0813 2.9052,-1.04573 6.2753,-2.50458 3.3701,-1.45884 6.1767,-2.60319 6.2369,-2.543 0.06,0.0602 -1.5416,3.67352 -3.5597,8.0296 l -3.6691,7.92015 -1.1226,12.37437 c -1.6081,17.72534 -2.9751,26.1351 -4.7413,29.16815 -0.9293,1.59592 -7.8045,9.84432 -14.5855,17.49884 -5.4096,6.10636 -20.6118,21.36049 -25.8107,25.89893 -6.2036,5.41535 -14.5567,11.87967 -16.8304,13.02468 -1.7767,0.89475 -4.0677,1.55774 -8.8576,2.56326 -5.9588,1.25091 -6.7972,1.52571 -10.7866,3.53545 l -4.3256,2.17911 -3.2758,-0.0185 -3.2758,-0.0185 z m -45.2178,-45.88573 c -2.5398,-9.84087 -2.6235,-16.39125 -0.2705,-21.16287 1.1394,-2.31056 1.6698,-2.80535 1.6698,-1.55764 0,0.95026 3.582,8.48809 4.7799,10.05856 0.5285,0.69292 1.2369,1.25985 1.5741,1.25985 0.5441,0 0.6354,-0.56833 0.8096,-5.03814 0.1843,-4.72564 0.2665,-5.1866 1.3261,-7.43182 1.572,-3.33096 1.8364,-3.41154 5.3791,-1.63914 1.6088,0.80486 2.9612,1.49436 3.0055,1.53222 0.044,0.0379 0.482,1.4544 0.9727,3.14785 1.6958,5.85164 5.6731,11.39725 9.6482,13.45255 1.3676,0.70713 1.2941,0.83964 1.8529,-3.33968 0.2227,-1.66566 0.5401,-3.24717 0.7053,-3.51448 0.2469,-0.39941 0.9507,-0.28875 3.9502,0.62106 4.9084,1.4888 12.411,2.05433 22.6712,1.70889 8.1018,-0.27276 13.7202,-1.08447 16.1751,-2.33687 0.8057,-0.41101 1.5423,-0.66989 1.6369,-0.57527 0.095,0.0946 0.3965,1.88148 0.6709,3.97079 0.2745,2.08931 0.5684,3.86818 0.6533,3.95305 0.3684,0.3684 3.0797,-1.7003 5.2172,-3.98068 2.623,-2.79825 5.0009,-7.11779 5.9347,-10.78049 0.5738,-2.25055 0.6261,-2.31839 2.6847,-3.48556 1.1547,-0.65468 2.6712,-1.39584 3.3699,-1.64701 l 1.2704,-0.45668 1.4567,3.05835 c 1.4472,3.03823 1.4582,3.09263 1.6832,8.27325 0.1246,2.8682 0.3293,5.20871 0.4549,5.20113 0.8563,-0.0517 5.434,-8.09343 6.0802,-10.6812 0.2306,-0.92366 0.6049,-1.67938 0.8318,-1.67938 0.2269,0 0.9239,1.03715 1.549,2.30479 l 1.1366,2.30479 -0.012,6.26888 -0.012,6.26888 -1.5383,5.48007 c -0.8461,3.01405 -1.4722,5.55135 -1.3914,5.63847 0.081,0.0871 1.5777,-1.26523 3.3263,-3.00521 3.5859,-3.56806 6.0581,-7.37348 8.4864,-13.06308 1.4906,-3.49242 1.5117,-3.60021 1.7327,-8.83884 0.1898,-4.49759 0.099,-6.16271 -0.596,-10.96015 -1.3061,-9.01363 -3.2009,-15.10878 -5.6111,-18.05013 -1.7428,-2.12684 -3.4679,-2.9863 -5.9942,-2.9863 -2.0552,0 -9.783,1.25496 -20.8002,3.37788 -6.7854,1.30749 -8.7761,1.47355 -9.3066,0.77637 -0.1849,-0.24306 -0.6905,-1.71473 -1.1234,-3.27036 -0.433,-1.55564 -0.8614,-3.08369 -0.952,-3.39568 -0.136,-0.46821 0.2677,-0.60745 2.3119,-0.79744 4.9892,-0.46369 9.2293,-3.48145 12.053,-8.57833 0.7674,-1.38512 1.3952,-2.61814 1.3952,-2.74004 0,-0.50431 -1.1823,-0.11458 -5.8143,1.91665 -2.6819,1.17606 -4.9205,2.09088 -4.9746,2.03293 -0.054,-0.0579 2.3584,-2.73049 5.3613,-5.93899 3.0029,-3.20849 6.5628,-7.04408 7.9108,-8.52352 l 2.4511,-2.68989 -2.9091,-2.16916 c -1.8299,-1.36447 -3.2542,-2.17002 -3.8395,-2.17147 -0.7617,-0.002 -2.1425,1.32904 -7.6092,7.33393 -3.6733,4.03492 -8.3939,9.27394 -10.4901,11.64224 -5.4076,6.10946 -7.7039,7.38647 -10.5979,5.89375 -0.6223,-0.32099 -2.3394,-1.67333 -3.8157,-3.0052 -1.4764,-1.33187 -2.8342,-2.42159 -3.0173,-2.42159 -0.1832,0 -1.2027,0.89427 -2.2655,1.98727 -3.6842,3.7887 -6.51,4.87371 -9.1446,3.5113 -1.188,-0.61434 -5.9337,-5.68267 -15.5767,-16.6355 -5.8568,-6.65231 -7.345,-8.15184 -8.1804,-8.24229 -0.7546,-0.0817 -1.6615,0.33357 -3.4745,1.59099 -1.3493,0.93585 -2.6022,2.02035 -2.7842,2.40999 -0.2857,0.61149 0.726,1.84223 7.393,8.99309 4.2481,4.55656 7.6726,8.336 7.6098,8.39877 -0.063,0.0628 -2.1369,-0.84191 -4.6092,-2.0104 -3.8941,-1.84053 -5.8694,-2.50712 -5.8694,-1.98072 0,0.0791 0.4574,1.15302 1.0165,2.38648 1.2019,2.65202 4.0791,6.03907 6.3656,7.49372 1.4221,0.90472 2.0568,1.06167 4.9039,1.21263 2.5621,0.13585 3.2704,0.2859 3.2704,0.69282 0,0.71888 -1.7765,6.47881 -2.2145,7.18022 -0.3285,0.52606 -0.6886,0.52111 -4.4631,-0.0613 -2.2582,-0.34844 -7.4469,-1.33797 -11.5304,-2.19896 -5.478,-1.155 -8.6168,-1.62445 -11.9716,-1.79051 -4.5319,-0.22432 -4.5521,-0.22183 -6.1123,0.7549 -3.2679,2.04588 -5.9082,9.04827 -7.568,20.07185 -0.6326,4.20148 -0.7102,5.83164 -0.5133,10.78338 0.229,5.76169 0.2491,5.8749 1.6284,9.18076 2.1625,5.18281 5.878,10.8581 8.9052,13.60216 1.4026,1.27134 2.6574,2.3133 2.7886,2.31545 0.1311,0.002 -0.3672,-2.34279 -1.1075,-5.21099 z"
       id="path174"
       transform="scale(0.26458333)" /><path
       style="fill:#d74a5e;fill-opacity:1;stroke:#000000;stroke-width:0.954594"
       d="m 2626.0858,165.03898 c -5.1365,-1.4372 -20.0134,-9.29753 -30.2968,-16.0076 -6.8477,-4.46819 -17.2894,-11.98208 -16.8531,-12.12752 0.6087,-0.2029 6.6899,1.70425 9.9684,3.12621 5.1199,2.22065 5.1119,2.0627 -0.1864,-3.6826 -2.3771,-2.57766 -4.0658,-4.7043 -4.0658,-5.12015 0,-0.98906 3.2573,-3.79084 5.8336,-5.01776 1.4163,-0.6745 3.7663,-1.29743 7.0711,-1.87436 l 4.9497,-0.86412 1.591,1.49854 c 1.5937,1.50106 3.4905,2.98138 19.2432,15.0178 10.0086,7.6474 18.7766,13.83055 22.5249,15.88455 l 2.7005,1.47979 -0.2865,1.27038 c -0.6095,2.70239 -4.1454,5.02123 -9.8955,6.48935 -3.6978,0.94412 -8.7718,0.9142 -12.2983,-0.0725 z"
       id="path175"
       transform="scale(0.26458333)" /><path
       style="fill:#d74a5e;fill-opacity:1;stroke:#000000;stroke-width:0.954594"
       d="m 2700.9711,164.63951 c -5.8058,-1.75867 -7.6575,-3.126 -8.2902,-6.12171 -0.2278,-1.07867 -0.1531,-1.16193 2.5251,-2.81385 8.2161,-5.06764 31.4029,-22.24667 40.1986,-29.78302 l 3.0296,-2.59574 3.8075,0.88629 c 2.0941,0.48746 4.5799,0.99162 5.5239,1.12035 1.1411,0.15561 2.3263,0.66536 3.5356,1.52066 4.739,3.35184 6.1016,5.0085 4.5591,5.54338 -0.3403,0.118 -1.5733,1.49958 -2.7401,3.07017 -1.6716,2.25023 -3.9674,4.56742 -5.4271,5.47753 -0.068,0.0425 -0.023,0.2404 0.1004,0.43988 0.1393,0.22543 1.233,-0.097 2.8898,-0.85208 4.6609,-2.12403 10.7761,-3.88362 10.7301,-3.08749 -0.018,0.31441 -9.3471,6.9358 -14.1158,10.01887 -8.9277,5.77207 -27.576,15.78227 -32.5578,17.47667 -3.8937,1.32435 -8.7562,1.21844 -13.7687,-0.29991 z"
       id="path176"
       transform="scale(0.26458333)" /></g></svg>
