<?xml version="1.0" encoding="UTF-8" standalone="no"?>
<!-- Created with Inkscape (http://www.inkscape.org/) -->

<svg
   width="59.776707mm"
   height="75.858986mm"
   viewBox="0 0 59.776707 75.858986"
   version="1.1"
   id="svg1"
   xml:space="preserve"
   xmlns="http://www.w3.org/2000/svg"
   xmlns:svg="http://www.w3.org/2000/svg"><defs
     id="defs1" /><g
     id="layer1"
     transform="translate(-848.91495,8.8873622)"><path
       style="fill:#000000"
       d="m 878.79508,66.894493 -0.0773,0.07713 -1.41982,-2.742696 -1.41981,-2.742696 -1.50153,-2.909414 -1.50153,-2.909413 -0.0697,-10e-4 -0.0697,-10e-4 -0.39352,1.305733 -0.39352,1.305734 -0.13386,0.05136 -0.13385,0.05136 -1.56555,-0.659123 -1.56555,-0.659123 -1.84896,-0.925842 -1.84896,-0.925843 -1.04493,-0.615005 -1.04494,-0.615005 -1.36204,-0.910158 -1.36204,-0.910157 -1.22499,-0.973545 -1.225,-0.973544 -1.39473,-1.359768 -1.39473,-1.359767 -0.76003,-0.940741 -0.76004,-0.940741 -0.74634,-1.117129 -0.74634,-1.11713 -0.47217,-0.881944 -0.47217,-0.881945 -0.42015,-1.04634 -0.42014,-1.04634 -0.29627,-1.087509 -0.29627,-1.087509 -0.17951,-0.982354 -0.17952,-0.982355 -0.0673,-1.881482 -0.0673,-1.881481 0.13857,-1.293519 0.13856,-1.293518 0.23591,-1.175926 0.2359,-1.175926 0.35637,-1.228767 0.35636,-1.228767 0.45072,-1.123085 0.45071,-1.123084 0.36784,-0.803721 0.36784,-0.80372 0.59322,-1.077761 0.59321,-1.077761 1.09524,-1.646297 1.09523,-1.646296 1.03297,-1.293518 1.03297,-1.293519 2.18238,-2.182914 2.18238,-2.1829147 1.5875,-1.2693086 1.5875,-1.269309 1.88255,-1.2514802 1.88254,-1.2514802 1.38574,-0.7494624 1.38574,-0.7494625 0.0556,0.055555 0.0556,0.055555 -0.47086,2.123301 -0.47086,2.1233011 -0.34898,2.0419688 -0.34898,2.041968 -0.18154,1.7287657 -0.18155,1.728765 v 0.697692 0.697692 l -1.06752,1.216532 -1.06752,1.216532 -0.82191,1.223489 -0.8219,1.22349 -0.53352,1.062298 -0.53351,1.062299 -0.38233,1.006805 -0.38234,1.006804 -0.30701,1.175926 -0.30702,1.175926 -0.17665,1.100502 -0.17666,1.100503 -0.0772,1.486534 -0.0772,1.486535 0.13849,1.274731 0.13849,1.27473 0.28568,1.099526 0.28568,1.099527 0.46072,1.068639 0.46071,1.068639 0.62922,1.016914 0.62921,1.016913 1.17593,1.198076 1.17593,1.198076 0.64519,0.427531 0.64519,0.427531 h 0.077 0.077 l -0.22624,-1.015317 -0.22623,-1.015317 0.0332,-0.02948 0.0332,-0.02948 1.50812,-0.642299 1.50813,-0.642298 -1.21414,-0.806751 -1.21415,-0.80675 -0.8888,-0.886942 -0.88881,-0.886942 -0.48052,-0.823148 -0.48052,-0.823148 -0.21817,-0.646759 -0.21818,-0.646759 0.007,-1.5875 0.007,-1.5875 0.30622,-0.940741 0.30622,-0.940741 5.68055,-18.7826277 5.68055,-18.782629 0.0789,0.085407 0.0789,0.085407 3.01881,10.3481479 3.01881,10.3481478 0.69439,2.293056 0.69439,2.293055 1.42162,4.350926 1.42161,4.350926 0.62952,2.175463 0.62953,2.175463 0.18647,0.906385 0.18647,0.906385 -0.002,0.975096 -0.002,0.975097 -0.17759,0.753408 -0.17759,0.753407 -0.36171,0.678646 -0.36172,0.678646 -0.50706,0.594033 -0.50705,0.594034 -0.71841,0.62654 -0.7184,0.62654 -1.05019,0.639966 -1.05019,0.639965 0.0292,0.104086 0.0292,0.104086 1.494,0.592239 1.49401,0.592239 -0.002,0.185619 -0.002,0.18562 -0.22144,0.852546 -0.22145,0.852546 h 0.0555 0.0555 l 0.55011,-0.319374 0.5501,-0.319374 1.12911,-1.121135 1.1291,-1.121135 0.58912,-0.881945 0.58912,-0.881944 0.43464,-0.863114 0.43464,-0.863114 0.39766,-1.194756 0.39765,-1.194757 0.18513,-1.058333 0.18513,-1.058333 0.0723,-1.411111 0.0723,-1.411111 -0.13975,-1.293519 -0.13975,-1.293518 -0.2395,-1.11713 -0.2395,-1.11713 -0.35327,-1.117129 -0.35327,-1.11713 -0.68757,-1.444553 -0.68756,-1.444553 -0.7522,-1.148022 -0.75219,-1.148021 -0.69571,-0.758814 -0.69571,-0.758815 -0.49851,-0.555937 -0.49852,-0.555937 -0.001,-0.972767 -10e-4,-0.972766 -0.17662,-1.5875 -0.17662,-1.5875003 -0.23069,-1.423833 -0.2307,-1.4238341 -0.30312,-1.4571848 -0.30312,-1.4571848 -0.29458,-1.1171296 -0.29458,-1.1171296 -0.0622,-0.2122964 -0.0622,-0.2122964 0.82564,0.4157873 0.82564,0.4157874 1.03643,0.6087821 1.03643,0.6087822 1.52871,1.0306519 1.5287,1.030652 1.58569,1.2720476 1.58568,1.2720472 1.6341,1.588731 1.6341,1.5887313 1.01982,1.180457 1.01982,1.180457 0.90366,1.193258 0.90366,1.193257 0.74566,1.154063 0.74565,1.154064 0.65542,1.175926 0.65542,1.175926 0.53422,1.19182 0.53421,1.191821 0.42514,1.218827 0.42514,1.218828 0.27457,1.058333 0.27457,1.058333 0.18441,1.11713 0.1844,1.11713 0.1271,1.431416 0.1271,1.431416 -0.12791,1.508398 -0.12791,1.508399 -0.28609,1.423053 -0.28609,1.423053 -0.36454,1.046391 -0.36455,1.046392 -0.64471,1.352315 -0.64471,1.352314 -0.86363,1.293519 -0.86364,1.293518 -0.93571,1.11713 -0.9357,1.11713 -1.11295,1.063723 -1.11294,1.063723 -1.22599,0.980089 -1.22599,0.980088 -1.64629,1.082511 -1.6463,1.082512 -0.94074,0.533732 -0.94074,0.533733 -1.5287,0.764251 -1.52871,0.764252 -1.41111,0.616002 -1.41111,0.616002 -0.44012,0.157645 -0.44011,0.157645 -0.0719,-0.317862 -0.0718,-0.317861 -0.31794,-1.094479 -0.31794,-1.094479 -0.11084,-0.01069 -0.11084,-0.0107 -2.88102,5.593426 -2.88102,5.593426 z m -1.1e-4,-5.114282 h 0.11422 l 0.38195,-0.911342 0.38195,-0.911343 0.6913,-1.880129 0.6913,-1.88013 1.00479,-3.160222 1.00479,-3.160222 0.80604,-2.367982 0.80604,-2.367981 0.53442,-1.290298 0.45174,-1.25309 -0.003,-0.114417 -0.0855,-0.07721 -0.47037,-0.14804 -0.47037,-0.148041 -0.8217,-0.410884 -0.8217,-0.410884 -1.00098,-0.681709 -1.00099,-0.681709 -0.4536,-0.467156 -0.4536,-0.467155 0.3948,-0.189712 0.3948,-0.189712 1.17593,-0.883349 1.17593,-0.883349 1.27028,-1.121902 1.27028,-1.121902 0.13199,-0.289685 0.13199,-0.289685 -0.67607,-4.082648 -0.67607,-4.082648 -0.75906,-4.174537 -0.75907,-4.174537 -0.71192,-3.586574 -0.71192,-3.586574 -0.63065,-2.9398143 -0.63065,-2.9398147 -0.59862,-2.7634259 -0.59862,-2.7634259 -0.23579,-0.7937499 -0.23578,-0.79375 h -0.0964 -0.0964 l -0.12814,0.6173611 -0.12813,0.6173611 -1.06971,4.9388887 -1.0697,4.9388891 -1.16656,5.8208327 -1.16656,5.820833 -0.5386,2.939815 -0.5386,2.939815 -0.64046,3.821759 -0.64045,3.821759 -5.6e-4,0.306097 -5.6e-4,0.306098 1.08773,1.049003 1.08774,1.049003 0.99953,0.773924 0.99954,0.773923 0.85641,0.566026 0.8564,0.566026 -0.38603,0.404973 -0.38604,0.404974 -0.76435,0.585369 -0.76435,0.585369 -1.28913,0.635498 -1.28913,0.635499 -0.38657,0.07252 -0.2784,0.122215 v 0.06683 0.06683 l 0.58555,1.722475 0.69371,1.772171 1.25345,3.880555 1.25345,3.880556 0.41835,1.234722 0.41835,1.234722 0.64869,1.763889 0.64869,1.763889 0.44718,0.970138 0.44719,0.970139 z m -10.81787,-7.393539 0.0882,2.1e-4 v -0.04789 -0.04789 l 0.0179,-0.08013 -0.97014,-0.653085 -0.99954,-0.790672 -0.99953,-0.790672 -1.77078,-1.771546 -1.77077,-1.771547 -0.86351,-1.117129 -0.8635,-1.11713 -0.67198,-1.017846 -0.67198,-1.017847 -0.66504,-1.300139 -0.66504,-1.300139 -0.45956,-1.386181 -0.45956,-1.386181 -0.1988,-1.290764 -0.19881,-1.290764 0.0588,-2.001828 0.0588,-2.001829 0.2584,-1.289289 0.2584,-1.289288 0.53994,-1.646719 0.53993,-1.646719 0.92674,-1.852964 0.92674,-1.852963 0.96726,-1.448422 0.96727,-1.448422 0.91878,-1.14233 0.91878,-1.14233 1.45081,-1.505915 1.45081,-1.505916 0.47078,-0.32625 0.47077,-0.32625 0.0726,-0.783482 0.0725,-0.783481 0.22665,-1.184143 0.22666,-1.1841417 0.40998,-1.410797 0.40999,-1.4107971 0.58526,-1.4595277 0.29294,-1.1438155 -0.0485,-0.048488 -0.0485,-0.048488 -0.26922,0.141149 -0.56155,0.4568611 -1.70509,1.545701 -1.7051,1.5457012 -1.71078,1.747615 -1.71078,1.7476147 -0.70107,0.823148 -0.70108,0.823148 -0.65091,0.823148 -0.65091,0.823149 -0.71087,0.999537 -0.71086,0.999537 -0.71845,1.177258 -0.71846,1.177258 -0.82742,1.713112 -0.82743,1.713112 -0.5814,1.754537 -0.5814,1.754537 -0.29558,1.352315 -0.29558,1.352315 -0.12411,1.141893 -0.12411,1.141893 0.002,1.386347 0.002,1.386348 0.16475,1.237315 0.16474,1.237314 0.24494,0.959318 0.24493,0.959317 0.36607,1.037164 0.36606,1.037165 0.57446,1.144753 0.57445,1.144754 0.48557,0.795524 0.48557,0.795524 0.82134,1.094811 0.82134,1.09481 1.30041,1.352696 1.3004,1.352696 1.06727,0.914735 1.06728,0.914736 1.13422,0.83835 1.13422,0.83835 1.04124,0.634211 1.04124,0.63421 1.05834,0.544849 0.0703,-0.02811 z m 21.15896,0.37554 0.20202,-0.06976 1.46991,-0.869708 1.46991,-0.869709 1.02889,-0.736772 1.0289,-0.736771 1.02259,-0.813017 1.02259,-0.813017 1.16912,-1.121575 1.16912,-1.121574 0.9354,-1.117129 0.93539,-1.11713 0.82097,-1.224595 0.82097,-1.224595 0.63452,-1.265205 0.63452,-1.265205 0.46296,-1.342626 0.46296,-1.342626 0.2406,-1.165259 0.2406,-1.165259 0.13061,-1.548491 0.13061,-1.548491 -0.12846,-1.608749 -0.12845,-1.60875 -0.23486,-1.216968 -0.23485,-1.216969 -0.3477,-1.212929 -0.34771,-1.212929 -0.48033,-1.233232 -0.48033,-1.233233 -0.56952,-1.175925 -0.56952,-1.175926 -0.75336,-1.249568 -0.75337,-1.249567 -0.87089,-1.219877 -0.87088,-1.219877 -1.17907,-1.410203 -1.17906,-1.410202 -1.88148,-1.8854187 -1.88148,-1.885419 -2.03624,-1.8196562 -2.03624,-1.8196563 -0.17426,-0.039106 -0.17425,-0.039105 0.19378,0.4506796 0.19379,0.4506796 0.44139,1.1759259 0.44139,1.1759259 0.31009,1.0583336 0.31009,1.058333 0.23095,1.1171296 0.23096,1.117129 0.13831,1.087732 0.13832,1.087731 h 0.11347 0.11347 l 1.53012,1.499306 1.53012,1.499305 0.86293,1.025379 0.86293,1.025379 0.46845,0.634117 0.46845,0.634117 0.69366,1.045134 0.69366,1.045133 0.59057,1.058334 0.59057,1.058333 0.49444,1.10239 0.49445,1.10239 0.29591,0.779091 0.29591,0.779092 0.39256,1.528704 0.39256,1.528703 0.14424,1.159025 0.14424,1.159024 -0.0686,1.898383 -0.0686,1.898383 -0.23211,0.999537 -0.2321,0.999537 -0.37571,1.057908 -0.37572,1.057909 -0.62653,1.249262 -0.62652,1.249262 -0.93621,1.396996 -0.93621,1.396996 -0.93865,1.11713 -0.93865,1.117129 -1.57141,1.537008 -1.57141,1.537007 -1.22551,0.973106 -1.22552,0.973106 -0.45451,0.286923 -0.20312,0.181687 0.0669,0.108244 0.0669,0.108244 z"
       id="path177" /><path
       style="fill:#f4c325;fill-opacity:1;stroke:#000000;stroke-width:1.35"
       d="m 3319.787,230.20336 c -2.627,-5.56353 -8.033,-20.71566 -13.8085,-38.70336 -2.958,-9.2125 -6.5949,-19.87878 -8.0819,-23.70283 -2.715,-6.98171 -2.7956,-7.76381 -0.8032,-7.78952 0.9874,-0.0127 10.6749,-4.90374 12.6043,-6.36359 2.4469,-1.8515 6.5523,-5.69802 6.5523,-6.13913 0,-0.19702 -1.5188,-1.36935 -3.375,-2.60518 -8.3458,-5.55635 -18.625,-14.7909 -18.625,-16.7322 0,-1.59475 3.8504,-24.63286 7.0058,-41.91755 3.1548,-17.281105 10.8845,-55.378478 15.9271,-78.5 l 3.9257,-18 1.0386,3.5 c 1.2376,4.170851 7.4038,32.656162 11.9059,55 6.4778,32.14959 14.5589,78.7395 14.0259,80.8633 -0.5001,1.99238 -15.4307,14.60367 -20.224,17.08239 -0.8828,0.45649 -1.605,1.00236 -1.605,1.21304 0,0.68729 4.181,4.41073 7.25,6.45657 3.3438,2.22902 10.8795,6.1305 11.8639,6.14235 0.3498,0.004 0.9498,0.20632 1.3333,0.44912 0.5682,0.35979 0.2769,1.44527 -1.5742,5.86734 -1.2492,2.98424 -5.0064,13.86339 -8.3494,24.17589 -6.0024,18.5164 -11.8412,35.19382 -14.1627,40.45336 l -1.1933,2.70336 z"
       id="path178"
       transform="scale(0.26458333)" /><path
       style="fill:#f4c325;fill-opacity:1;stroke:#000000;stroke-width:1.35"
       d="m 3277.5,204.08891 c -17.5127,-9.75788 -34.7515,-25.63706 -43.6947,-40.24849 -8.8729,-14.49666 -12.5622,-28.46592 -11.8976,-45.0491 0.7755,-19.350815 8.724,-40.591505 22.2807,-59.54132 7.8976,-11.039336 17.3845,-21.415288 30.5247,-33.385251 10.9175,-9.945202 10.4886,-9.579713 10.8356,-9.232706 0.1665,0.16646 -0.6009,2.623597 -1.7052,5.460305 -3.4485,8.858675 -5.8455,18.283027 -6.8676,27.001915 -0.3021,2.576667 -0.5138,2.969241 -2.2503,4.172644 -2.1903,1.517903 -11.782,11.658256 -16.3005,17.233093 -10.6566,13.147665 -19.556,31.45327 -22.6484,46.58684 -1.2812,6.2698 -1.4559,19.58882 -0.3433,26.16316 1.9207,11.34861 7.8655,23.50413 17.6062,36 4.041,5.18403 17.8278,18.68999 22.9604,22.49264 4.9937,3.69977 5.0651,3.75955 4.475,3.7483 -0.2613,-0.005 -1.6,-0.6359 -2.975,-1.40203 z"
       id="path179"
       transform="scale(0.26458333)" /><path
       style="fill:#f4c325;fill-opacity:1;stroke:#000000;stroke-width:1.35"
       d="m 3361.2433,205.65311 c 8.9709,-6.51611 20.4531,-17.2111 27.2171,-25.35113 8.3888,-10.09526 14.7253,-21.97256 17.8999,-33.55198 1.4083,-5.13662 1.9834,-17.97933 1.1084,-24.75 -2.1692,-16.78461 -10.6981,-35.359495 -23.7753,-51.780045 C 3379.8446,65.387148 3367.3124,52.5 3366.4615,52.5 c -0.3826,0 -0.7417,-1.1755 -0.9545,-3.125 -1.055,-9.663161 -3.9646,-20.167404 -9.0371,-32.625 -0.3765,-0.924704 -0.3342,-0.94377 0.5615,-0.253218 3.3256,2.564011 16.6701,15.047862 23.2909,21.788894 17.0243,17.333338 26.655,31.408754 33.3315,48.714324 11.1883,29.00033 8.8007,56.03993 -7.0401,79.72733 -9.0721,13.56577 -23.9176,27.11997 -39.9229,36.45008 -4.956,2.88906 -7.7892,4.17665 -5.4475,2.4757 z"
       id="path180"
       transform="scale(0.26458333)" /></g></svg>
