<?xml version="1.0" encoding="UTF-8" standalone="no"?>
<!-- Created with Inkscape (http://www.inkscape.org/) -->

<svg
   width="258.9606mm"
   height="260.86569mm"
   viewBox="0 0 258.9606 260.86569"
   version="1.1"
   id="svg1"
   xml:space="preserve"
   xmlns="http://www.w3.org/2000/svg"
   xmlns:svg="http://www.w3.org/2000/svg"><defs
     id="defs1" /><g
     id="layer1"
     transform="translate(-1075.4149,69.748186)"><path
       style="fill:#000000"
       d="m 1198.8678,191.10405 -4.715,-0.0133 -6.8792,-0.91628 -6.8791,-0.91629 -2.1764,-0.42509 -2.1763,-0.42509 -2.1746,-0.53079 -2.1746,-0.5308 -2.1755,-0.63755 -2.1754,-0.63754 -2.466,-0.83345 -2.4659,-0.83345 -2.473,-0.98501 -2.4729,-0.985 -1.7639,-0.78134 -1.7639,-0.78134 -2.587,-1.28116 -2.5871,-1.28115 -1.9402,-1.07874 -1.9403,-1.07874 -2.0579,-1.23534 -2.0579,-1.23534 -2.1754,-1.43659 -2.1755,-1.43659 -1.7639,-1.26659 -1.7639,-1.26659 -1.7638,-1.35889 -1.7639,-1.35889 -1.5287,-1.25609 -1.5287,-1.25609 -1.6463,-1.43848 -1.6463,-1.43847 -2.4704,-2.33723 -2.4704,-2.33722 -2.2489,-2.3846 -2.2489,-2.38459 -1.1494,-1.29352 -1.1493,-1.29352 -1.592,-1.91442 -1.5921,-1.91442 -1.3811,-1.77725 -1.3811,-1.77725 -1.2107,-1.6588 -1.2107,-1.65879 -2.0056,-2.99861 -2.0056,-2.99861 -1.4774,-2.46945 -1.4774,-2.46944 -0.9546,-1.72914 -0.9546,-1.72914 -1.2394,-2.4767 -1.2394,-2.47669 -0.8773,-1.93653 -0.8772,-1.93652 -1.0711,-2.67708 -1.0712,-2.67709 -1.0439,-3.1162 -1.044,-3.11621 -0.4241,-1.46991 -0.4242,-1.469903 -0.5707,-2.23426 -0.5707,-2.23426 -0.4169,-1.94934 -0.4169,-1.94933 -0.4147,-2.40159 -0.4147,-2.40159 -0.2892,-2.29306 -0.2893,-2.293056 -0.179,-1.999074 -0.1791,-1.999074 -0.1359,-2.70463 -0.1359,-2.70463 0.072,-3.880556 0.072,-3.880556 0.1793,-2.293055 0.1793,-2.293056 0.1803,-1.5875 0.1803,-1.5875 0.2902,-2.025935 0.2901,-2.025935 0.2982,-1.619436 0.2983,-1.619435 0.4793,-2.23426 0.4793,-2.234259 0.5806,-2.175463 0.5805,-2.175463 0.5234,-1.72629 0.5234,-1.72629 0.6556,-1.919081 0.6555,-1.919081 1.1102,-2.79761 1.1102,-2.797611 0.7588,-1.663817 0.7588,-1.663816 -0.058,-0.05757 -0.058,-0.05756 -0.4395,0.209435 -0.4395,0.209436 -1.292,0.887103 -1.2921,0.887103 -2.8819,2.112184 -2.882,2.112185 -0.5297,0.26822 -0.5297,0.268219 -0.6387,0.189503 -0.6387,0.189504 -0.5372,-0.0011 -0.5372,-0.0011 -0.6027,-0.2806 -0.6026,-0.280599 -0.4177,-0.546982 -0.4176,-0.546982 -0.3751,-0.901048 -0.3751,-0.901048 0.059,-0.886657 0.059,-0.886657 1.0164,-3.527778 1.0164,-3.527778 1.2799,-3.82176 1.2798,-3.821759 1.0533,-2.7634263 1.0532,-2.763426 0.901,-2.158868 0.901,-2.158867 1.1382,-2.54483696 1.1383,-2.54483604 1.7752,-3.5277783 1.7751,-3.5277784 1.2171,-2.175463 1.2171,-2.175463 1.2026,-2.00915 1.2026,-2.00915 1.3367,-2.080879 1.3366,-2.08088 1.4585,-2.083582 1.4586,-2.083581 1.1838,-1.587501 1.1838,-1.5875 1.6049,-1.999074 1.605,-1.999074 1.38,-1.5875 1.38,-1.5875 2.1256,-2.261001 2.1257,-2.261 2.1836,-2.049885 2.1836,-2.049884 1.7639,-1.512161 1.7639,-1.51216 1.7051,-1.337414 1.7051,-1.337413 1.9666,-1.399092 1.9666,-1.399092 1.8211,-1.168983 1.8211,-1.168982 1.8567,-1.078451 1.8568,-1.07845 2.587,-1.311921 2.5871,-1.311921 1.6624,-0.727185 1.6624,-0.727184 1.9829,-0.778568 1.983,-0.778568 2.2343,-0.740622 2.2342,-0.740621 1.9403,-0.531026 1.9403,-0.531025 1.5491,-0.362578 1.5492,-0.362579 2.449,-0.402268 2.449,-0.402268 2.7634,-0.442584 2.7634,-0.442583 0.8704,-0.119357 0.8936,-0.119356 6.059,-0.231061 6.0589,0.143116 1.3123,0.04044 0.8211,0.04044 0.9308,0.08496 1.3984,0.08496 2.1754,0.180788 2.1755,0.180787 1.4111,0.177109 1.4111,0.177109 2.1755,0.356475 2.1754,0.356475 2.3519,0.46907 2.3519,0.46907 2.8671,0.700253 2.8671,0.700253 2.6009,0.758799 2.601,0.758799 2.587,0.87327 2.587,0.873271 1.1172,0.410751 1.1171,0.410752 2.4694,0.997138 2.4695,0.997138 2.1754,0.978264 2.1755,0.978265 2.9398,1.491247 2.9398,1.491246 1.4112,0.793083 1.4111,0.793083 1.999,1.190112 1.9991,1.190112 2.7634,1.837889 2.7635,1.837888 2.587,1.944374 2.587,1.944374 1.8314,1.530998 1.8314,1.530999 1.814,1.642347 1.814,1.642346 2.5889,2.631914 2.589,2.631914 1.5272,1.763889 1.5272,1.76389 0.9507,1.175926 0.9506,1.175926 1.3249,1.763888 1.3249,1.763889 1.3822,2.057871 1.3822,2.05787 0.9377,1.528704 0.9377,1.528704 0.8867,1.5875 0.8866,1.5875 1.1414,2.2811512 1.1414,2.2811511 0.7099,1.5994047 0.7099,1.5994047 0.7632,1.940278 0.7632,1.94027804 0.6992,2.05786996 0.6991,2.057871 0.5239,1.801488 0.5238,1.801488 0.882,4.3721233 0.8819,4.372124 0.1702,0.637131 0.1701,0.637131 0.1524,0.139419 0.1524,0.139418 1.2936,0.506498 0.8726,0.36618 0.8357,0.486423 0.8358,0.533196 0.8867,0.760266 1.2141,1.181216 v -0.81268 -0.812678 l -0.1726,-1.469187 -0.1725,-1.469187 -0.1877,-0.999537 -0.1877,-0.999537 -1.0494,-4.67236 -1.0494,-4.6723593 -0.6555,-2.618382 -0.6555,-2.61838196 -0.8682,-3.17500004 -0.8681,-3.1750001 -0.9438,-3.1367481 -0.9437,-3.1367485 -0.9566,-2.978067 -0.9567,-2.978067 -0.919,-2.645833 -0.919,-2.645834 -1.8839,-4.489589 -1.884,-4.489589 -0.5822,-1.56643 -0.5823,-1.566429 -0.2378,-0.823149 -0.2377,-0.823148 -0.1276,-0.623149 -0.1277,-0.623149 v -0.552777 -0.552777 l 0.1214,-0.526809 0.1214,-0.526809 0.3028,-0.397011 0.3028,-0.39701 0.4251,-0.177613 0.4251,-0.177613 0.6764,0.06133 0.6763,0.06133 0.7352,0.345057 0.7351,0.345056 0.8232,0.623447 0.8231,0.623446 1.2019,1.111836 1.2018,1.111837 1.9885,2.134763 1.9886,2.134764 2.4418,2.763426 2.4419,2.763426 1.9609,2.351852 1.9609,2.351852 1.1151,1.411111 1.1151,1.411111 1.5881,2.116667 1.5881,2.116667 1.295,1.822685 1.295,1.822685 1.412,2.116667 1.4121,2.1166668 1.3932,2.2342594 1.3932,2.2342595 1.5847,2.76342604 1.5848,2.76342596 1.6225,3.175 1.6226,3.175001 0.8968,1.9402773 0.8968,1.940278 0.8298,1.940278 0.8298,1.940278 0.6445,1.646297 0.6446,1.646296 0.8656,2.433783 0.8656,2.433782 0.7769,2.563903 0.777,2.563903 0.6881,2.70463 0.6881,2.70463 0.4719,2.351852 0.4718,2.351852 0.9468,7.191333 0.9467,7.191333 v 6.848963 6.848962 l -0.8234,5.972809 -0.8235,5.972809 -0.4718,2.347099 -0.4717,2.347098 -0.5305,2.146223 -0.5304,2.14623 -0.5793,2.0107 -0.5793,2.0107 -0.8975,2.64442 -0.8974,2.64441 -0.8628,2.176876 -0.8628,2.17689 -0.7756,1.74508 -0.7756,1.74509 -0.994,2.01788 -0.9941,2.01787 -0.8979,1.6463 -0.898,1.6463 -1.1777,1.97925 -1.1777,1.97926 -1.4679,2.19528 -1.4679,2.19528 -1.5404,2.0542 -1.5403,2.0542 -1.4713,1.76756 -1.4714,1.76756 -1.0623,1.17593 -1.0624,1.17592 -1.5876,1.62966 -1.5876,1.62967 -1.7196,1.57843 -1.7195,1.57843 -1.6319,1.36352 -1.6318,1.36351 -2.0578,1.54333 -2.0579,1.54334 -2.0579,1.36675 -2.0578,1.36674 -1.4807,0.88866 -1.4807,0.88865 -1.5968,0.88484 -1.5968,0.88484 -2.3318,1.16625 -2.3318,1.16625 -1.999,0.88306 -1.9991,0.88307 -1.9426,0.76791 -1.9427,0.76792 -2.2041,0.77432 -2.2042,0.77433 -2.4972,0.75459 -2.4972,0.75459 -2.8222,0.70549 -2.8222,0.7055 -2.2931,0.47238 -2.293,0.47238 -2.4695,0.41237 -2.4694,0.41237 -2.4107,0.29647 -2.4106,0.29647 -1.9991,0.17989 -1.9991,0.17988 -1.9309,0.11719 -1.9309,0.11719 -3.2734,0.0793 -3.2733,0.0793 0.044,0.0439 0.044,0.0438 2.0442,0.58823 2.0442,0.58823 0.882,0.17069 0.8819,0.17069 4.3509,0.65078 4.351,0.65078 2.4172,0.40547 2.4171,0.40546 1.7496,0.35591 1.7495,0.3559 1.5871,0.41753 1.5871,0.41753 0.8549,0.35589 0.8549,0.35588 0.4641,0.33621 0.4641,0.33621 0.2916,0.39021 0.2915,0.39022 0.1421,0.44341 0.1421,0.44341 -0.081,0.49733 -0.081,0.49733 -0.3579,0.67824 -0.3579,0.67825 -0.6972,0.76091 -0.6972,0.7609 -1.0786,0.80817 -1.0786,0.80817 -1.5287,0.92056 -1.5287,0.92056 -1.999,1.01466 -1.9991,1.01467 -1.2935,0.56615 -1.2936,0.56615 -2.1166,0.85155 -2.1167,0.85156 -2.4694,0.84552 -2.4695,0.84552 -2.3215,0.69504 -2.3215,0.69504 -2.2646,0.58491 -2.2646,0.5849 -2.4106,0.53142 -2.4107,0.53143 -2.4106,0.41129 -2.4107,0.41129 -5.3391,0.59199 -5.3392,0.59198 z m 8.5729,-7.92975 4.351,-0.0457 1.5287,-0.11955 1.5287,-0.11954 1.8815,-0.18354 1.8814,-0.18354 2.4376,-0.34752 2.4376,-0.34751 2.2073,-0.41498 2.2074,-0.41497 2.1166,-0.52098 2.1167,-0.52097 2.1755,-0.70298 2.1754,-0.70297 -0.2847,-0.2205 1.3524,-0.40759 v -0.21654 -0.21653 l -0.4704,-0.15922 -0.4704,-0.15923 0.049,-0.20089 -1.5875,-0.0138 -2.3518,0.19931 -2.3519,0.19932 -3.2338,0.13597 -3.2338,0.13597 -4.4685,-0.0709 -4.4685,-0.0709 -1.9403,-0.12081 -1.9403,-0.12081 -2.2342,-0.1815 -2.2343,-0.1815 -2.1167,-0.2337 -2.1166,-0.2337 -2.8584,-0.4123 -2.8584,-0.41229 -2.5509,-0.47139 -2.5509,-0.4714 -2.587,-0.58115 -2.587,-0.58116 -2.2343,-0.5959 -2.2342,-0.59591 -1.9393,-0.59198 -1.9393,-0.59198 -1.8237,-0.6207 -1.8237,-0.62071 -1.6463,-0.61938 -1.6463,-0.61938 -2.0578,-0.87244 -2.0579,-0.87244 -2.8222,-1.39357 -2.8222,-1.39357 -1.8815,-1.08229 -1.8815,-1.08228 -2.0579,-1.35489 -2.0579,-1.35489 -1.5287,-1.13877 -1.5287,-1.13877 -1.4111,-1.17931 -1.4111,-1.17931 -1.4111,-1.32064 -1.4111,-1.32064 -1.1577,-1.25582 -1.1577,-1.25582 -1.6089,-1.99908 -1.6089,-1.99907 -1.1093,-1.52871 -1.1093,-1.5287 -1.1951,-1.76389 -1.1951,-1.76389 -1.0569,-1.70509 -1.0569,-1.70509 -1.0265,-1.80562 -1.0266,-1.80562 -1.0453,-2.12201 -1.0454,-2.12201 -0.5812,-1.48163 -0.5813,-1.48163 -0.2365,-0.70847 -0.2365,-0.70846 -0.255,-0.98348 -0.2549,-0.98349 -0.1529,-0.95388 -0.1529,-0.95389 0.054,-0.0882 0.054,-0.0882 h 0.1635 0.1635 l 0.2915,0.38218 0.2914,0.38217 1.0552,1.89754 1.0551,1.89754 0.8506,1.33626 0.8506,1.33626 1.0861,1.5287 1.0862,1.5287 1.1806,1.487 1.1807,1.48699 1.2746,1.44726 1.2746,1.44727 1.3523,1.40621 1.3524,1.40622 1.6462,1.52693 1.6463,1.52692 1.7051,1.42643 1.7051,1.42642 1.5875,1.18289 1.5875,1.1829 1.5875,1.05938 1.5875,1.05939 1.0584,0.64917 1.0583,0.64916 1.2935,0.74261 1.2935,0.74261 2.5871,1.2635 2.587,1.26351 1.9403,0.76126 1.9403,0.76126 1.4874,0.48008 1.4875,0.48009 1.6287,0.40678 1.6288,0.40677 1.2347,0.2336 1.2347,0.2336 1.6463,0.20631 1.6463,0.2063 2.6458,-10e-4 2.6459,-0.001 1.4699,-0.20049 1.4699,-0.2005 1.3523,-0.30024 1.3523,-0.30024 1.5287,-0.51031 1.5287,-0.51031 -1.2274,-0.24129 0.6908,-0.30743 -0.054,-0.0538 -0.054,-0.0538 -0.1217,-0.65798 -2.0399,-0.59183 -1.7522,-0.5906 -1.7521,-0.5906 -1.7838,-0.68187 -1.7839,-0.68186 -1.7638,-0.7463 -1.7639,-0.74629 -3.2926,-1.65757 -3.2926,-1.65757 -1.7639,-1.03808 -1.7639,-1.03807 -2.1807,-1.43575 -2.1807,-1.43575 -1.3471,-0.98067 -1.347,-0.98067 -1.6744,-1.33138 -1.6744,-1.33139 -1.4418,-1.26416 -1.4419,-1.26416 -1.8071,-1.76446 -1.8072,-1.76445 -1.3358,-1.47785 -1.3358,-1.47785 -1.0722,-1.28557 -1.0723,-1.28558 -1.2393,-1.6463 -1.2393,-1.64629 -1.2052,-1.82269 -1.2051,-1.82268 -0.961,-1.6463 -0.9609,-1.6463 -1.0382,-2.05787 -1.0381,-2.05787 -0.615,-1.41111 -0.6151,-1.41111 -0.5664,-1.49046 -0.5664,-1.49045 -0.7009,-2.15492 -0.7009,-2.15491 -0.4768,-1.881483 -0.4769,-1.88149 -0.3571,-1.73007 -0.3572,-1.73007 -0.2885,-2.03289 -0.2885,-2.03289 -0.1544,-1.52871 -0.1545,-1.5287 0.01,-3.998148 v -3.998148 l 0.2056,-1.763889 0.2056,-1.763889 0.2371,-1.411111 0.237,-1.411112 0.3009,-1.352314 0.3008,-1.352315 0.5161,-1.734802 0.5161,-1.734802 0.6525,-1.675383 0.6526,-1.675384 0.8107,-1.646297 0.8106,-1.646296 0.8,-1.32195 0.7999,-1.32195 0.7298,-1.029902 0.7299,-1.029902 0.793,-0.999537 0.7929,-0.999537 1.8874,-1.895252 1.8874,-1.895252 1.2347,-0.97671 1.2347,-0.976711 1.4699,-0.969697 1.4699,-0.969697 1.3523,-0.708143 1.3523,-0.708142 0.9996,-0.426819 0.9995,-0.426818 1.1698,-0.407379 1.1698,-0.407378 1.3585,-0.339004 1.3584,-0.339005 1.1171,-0.184571 1.1172,-0.184572 1.7051,-0.128632 1.705,-0.128632 1.1172,0.07282 1.1171,0.07282 1.1171,0.122198 1.1172,0.122197 1.4111,0.294338 1.4111,0.294337 1.5875,0.524702 1.5875,0.524703 2.1265,1.042627 2.1266,1.042627 0.3135,0.372576 0.3135,0.372576 v 0.289096 0.289097 l -0.1913,0.291982 -0.1913,0.291982 -2.8955,1.928945 -2.8955,1.928945 -1.3726,1.286485 -1.3726,1.286485 -1.1458,1.221553 -1.1457,1.221552 -1.1593,1.449074 -1.1593,1.449074 -1.0971,1.66713 -1.0971,1.66713 -0.6801,1.222442 -0.6802,1.222442 -0.6406,1.358096 -0.6406,1.358096 -0.461,1.157206 -0.4611,1.157205 -0.4614,1.380494 -0.4615,1.380493 -0.4192,1.664468 -0.4191,1.664468 -0.2895,1.683962 -0.2894,1.683963 -0.1521,1.234722 -0.1521,1.234722 7e-4,3.939349 8e-4,3.93936 0.2137,1.64629 0.2136,1.6463 0.2822,1.5287 0.2822,1.52871 0.4201,1.70414 0.4201,1.70415 0.7465,2.235196 0.7465,2.23521 0.7295,1.70509 0.7295,1.7051 0.8638,1.70509 0.8637,1.70509 0.9825,1.6463 0.9824,1.64629 0.7486,1.11713 0.7486,1.11713 1.0577,1.41111 1.0576,1.41112 1.1209,1.35231 1.1209,1.35232 2.7117,2.71055 2.7117,2.71056 1.5287,1.27164 1.5287,1.27164 1.621,1.22212 1.621,1.22211 1.736,1.16106 1.736,1.16105 1.7583,1.05555 1.7583,1.05554 1.9083,1.02215 1.9083,1.02216 1.9134,0.89007 1.9135,0.89008 1.8185,0.7573 1.8184,0.7573 2.1105,0.76335 2.1104,0.76336 2.1271,0.6477 2.1271,0.64771 2.0579,0.52612 2.0579,0.52613 2.587,0.51866 2.5871,0.51865 2.0578,0.29659 2.0579,0.29658 1.7639,0.17742 1.7639,0.17742 2.0578,0.13547 2.0579,0.13548 4.1746,-0.0673 4.1745,-0.0673 1.4624,-0.18394 1.4623,-0.18395 3.8293,-0.76202 3.8293,-0.76203 1.3183,-0.25897 1.4011,-0.31686 1.5605,-0.29758 1.2078,-0.22176 1.2401,-0.26494 0.4431,-0.11153 0.6975,-0.14068 0.4678,-0.14811 0.6906,-0.2457 1.0082,-0.43539 1.2737,-0.53503 1.2737,-0.53504 2.7047,-0.95788 2.7046,-0.95789 1.5287,-0.5996 1.5287,-0.5996 3.2926,-1.66153 3.2926,-1.66153 1.7639,-1.03698 1.7639,-1.03699 2.1765,-1.43939 2.1766,-1.43939 1.8848,-1.40902 1.8849,-1.40901 1.583,-1.32169 1.5831,-1.32169 1.7904,-1.64962 1.7904,-1.64963 1.565,-1.66334 1.565,-1.66334 0.9147,-1.0387 0.9146,-1.0387 1.3763,-1.72473 1.3763,-1.72473 1.0123,-1.41111 1.0123,-1.41111 1.1161,-1.70509 1.1162,-1.70509 1.0122,-1.73138 1.0122,-1.73138 0.9962,-1.91399 0.9962,-1.913996 0.7843,-1.70509 0.7842,-1.70509 0.8729,-2.1619 0.8728,-2.16191 0.8134,-2.39272 0.8133,-2.39273 0.5308,-1.85417 0.5309,-1.854165 0.4655,-1.940278 0.4655,-1.940277 0.4115,-2.116667 0.4115,-2.116667 0.2427,-1.5875 0.2427,-1.5875 0.1717,-1.352315 0.1716,-1.352315 0.1814,-2.057871 0.1814,-2.05787 0.1179,-2.23426 0.1178,-2.234259 -2e-4,-2.822222 -10e-5,-2.822223 -0.119,-2.293055 -0.1189,-2.293056 -0.1778,-2.057871 -0.1778,-2.05787 -0.2935,-2.351852 -0.2935,-2.351852 -0.4168,-2.469445 -0.4168,-2.469444 -0.5287,-2.528241 -0.5286,-2.528241 -0.6301,-2.469445 -0.6301,-2.469444 -0.544,-1.881482 -0.544,-1.881482 -1.0416,-3.116204 -1.0417,-3.116203 -0.7914,-2.057871 -0.7915,-2.05787 -0.7374,-1.772016 -0.7374,-1.7720163 -0.8028,-1.814558 -0.8027,-1.814559 -1.541,-3.116204 -1.541,-3.11620396 -0.8598,-1.58750004 -0.8597,-1.5875 -1.1745,-2.0578706 -1.1746,-2.0578705 -1.1163,-1.8226853 -1.1162,-1.8226853 -1.9171,-2.903809 -1.9171,-2.903809 -1.2052,-1.682302 -1.2052,-1.682303 -1.4089,-1.881481 -1.409,-1.881482 -1.8913,-2.377116 -0.5818,0.0083 -0.1507,-0.0041 -0.1507,-0.0041 -0.067,0.175397 -0.067,0.175397 0.2367,0.401108 0.2367,0.401109 -0.4269,-0.404248 0.8827,1.981134 1.2919,2.895683 1.292,2.895684 0.9994,2.572372 0.9994,2.572373 1.1741,3.292592 1.1742,3.2925932 1.1226,3.4101855 1.1226,3.41018504 0.9417,3.12278996 0.9417,3.12279 0.8815,3.227211 0.8815,3.2272103 0.471,1.881482 0.471,1.881481 0.6001,2.624493 0.6001,2.624494 0.5765,2.902359 0.5765,2.902359 0.4761,2.881019 0.476,2.881018 0.3477,2.763426 0.3477,2.763426 0.1806,2.057871 0.1806,2.05787 0.1184,1.940278 0.1184,1.940278 -6e-4,3.527778 -6e-4,3.527778 -0.1172,1.705093 -0.1172,1.705093 -0.1212,1.117129 -0.1213,1.11713 -0.1811,1.293519 -0.1812,1.293518 -0.3442,1.705093 -0.3441,1.705093 -0.363,1.175926 -0.363,1.175926 -0.6444,1.631097 -0.6444,1.631098 -0.7628,1.661495 -0.7628,1.661495 -0.7165,1.293519 -0.7164,1.293519 -0.6912,1.015014 -0.6911,1.015014 -0.6459,0.610864 -0.6459,0.610865 -0.1445,-0.05117 -0.1445,-0.05117 0.028,-0.358368 0.028,-0.358369 0.9484,-2.509855 0.9484,-2.509855 0.3991,-1.528704 0.3992,-1.528703 0.3018,-1.569025 0.3017,-1.569025 0.2342,-1.824047 0.2342,-1.824047 0.1249,-2.338439 0.1248,-2.338439 -0.1295,-2.433499 -0.1296,-2.433498 -0.2369,-1.889158 -0.2369,-1.889158 -0.4621,-2.293056 -0.4621,-2.293055 -0.5231,-1.881482 -0.5231,-1.881482 -0.7525,-2.175463 -0.7526,-2.175463 -0.7545,-1.822685 -0.7545,-1.822685 -0.955,-1.881482 -0.955,-1.881482 -0.6586,-0.972735 -0.6585,-1.393685 -0.1314,0.0378 -0.1315,0.0378 -0.094,0.0917 -0.094,0.0917 -0.073,1.154039 -0.073,0.733091 0.1314,1.521257 0.1314,1.521258 v 3.821759 3.82176 l -0.1378,1.940278 -0.1377,1.940278 -0.2926,2.627271 -0.2925,2.627271 -0.3993,2.370414 -0.3994,2.370415 -0.4268,1.999074 -0.4269,1.999074 -0.4682,1.822685 -0.4683,1.822686 -0.656,2.175463 -0.6561,2.175463 -0.7443,2.062092 -0.7443,2.062091 -0.7765,1.877261 -0.7765,1.87726 -1.2795,2.587037 -1.2795,2.587038 -0.9643,1.642132 -0.9643,1.642132 -1.0521,1.57194 -1.0521,1.57193 -0.9495,1.25445 -0.9496,1.25445 -1.0116,1.17545 -1.0115,1.17545 -1.2901,1.3339 -1.2901,1.3339 -1.3391,1.19482 -1.3391,1.19482 -1.3409,1.07174 -1.3409,1.07175 -1.3216,0.941913 -1.3216,0.94193 -1.3368,0.84361 -1.3368,0.84361 -1.8103,1.00612 -1.8103,1.00612 -1.733,0.79621 -1.7329,0.79621 -1.4111,0.55889 -1.4112,0.55889 -1.7051,0.56257 -1.705,0.56257 -1.5875,0.41817 -1.5875,0.41817 -1.7639,0.3537 -1.7639,0.35371 -1.8249,0.23395 -1.8249,0.23396 -2.1732,0.13258 -2.1733,0.13258 -1.9403,-0.077 -1.9403,-0.077 -1.6918,-0.17314 -1.6917,-0.17313 -1.6878,-0.29049 -1.6878,-0.2905 -1.8533,-0.4724 -1.8533,-0.4724 -1.5793,-0.5353 -1.5794,-0.5353 -1.4781,-0.65114 -1.478,-0.65113 -0.9996,-0.5377 -0.9995,-0.5377 -1.2347,-0.7589 -1.2347,-0.75889 -1.1172,-0.82471 -1.1171,-0.82472 -1.1368,-0.98562 -1.1368,-0.98563 -1.0165,-1.068223 -1.0166,-1.06823 -0.8575,-1.07405 -0.8575,-1.07404 -0.7092,-1.06316 -0.7093,-1.06316 -0.5834,-1.05351 -0.5834,-1.0535 -0.4868,-1.0843 -0.4868,-1.08429 -0.456,-1.32635 -0.4559,-1.32636 -0.3048,-1.29352 -0.3048,-1.293514 -0.2071,-1.352315 -0.2071,-1.352315 10e-4,-2.645833 10e-4,-2.645834 0.2083,-1.409182 0.2083,-1.409183 0.044,-0.04416 0.044,-0.04416 2.1528,0.967131 2.1529,0.967131 1.705,0.736555 1.7051,0.736555 1.1223,0.418651 1.1223,0.418651 1.5823,0.478848 1.5824,0.478848 1.8815,0.403966 1.8815,0.403967 1.7051,0.235537 1.705,0.235538 1.9991,0.13785 1.9991,0.13785 2.1755,-0.07527 2.1754,-0.07527 1.5875,-0.174102 1.5875,-0.174101 1.7051,-0.30582 1.7051,-0.30582 1.7639,-0.451381 1.7639,-0.451381 1.9252,-0.662368 1.9253,-0.662367 1.3673,-0.594385 1.3674,-0.594385 1.2454,-0.623598 1.2454,-0.623597 1.1652,-0.668811 1.1653,-0.668811 1.3523,-0.884809 1.3523,-0.884808 1.3837,-1.054307 1.3837,-1.054308 1.4385,-1.263049 1.4385,-1.26305 1.2093,-1.266789 1.2093,-1.26679 0.8578,-1.014859 0.8577,-1.014858 0.8055,-1.058334 0.8055,-1.058333 0.9657,-1.469908 0.9656,-1.469907 0.7411,-1.293519 0.7411,-1.293518 0.7873,-1.646297 0.7873,-1.646296 0.5315,-1.352315 0.5315,-1.352315 0.4848,-1.469907 0.4847,-1.469908 0.4657,-1.881482 0.4657,-1.881481 0.2883,-1.705093 0.2884,-1.705093 0.2109,-2.05787 0.2109,-2.057871 -10e-4,-4.821296 -10e-4,-4.821297 -0.2068,-2.05787 -0.2069,-2.057871 -0.2934,-2.05787 -0.2935,-2.057871 -0.4698,-2.351852 -0.4698,-2.351852 -0.5172,-1.9990743 -0.5171,-1.999074 -0.6065,-1.999074 -0.6066,-1.999075 -0.8856,-2.410648 -0.8856,-2.410648 -0.87,-2.035132 -0.87,-2.035131 -0.9302,-1.9327188 -0.9301,-1.9327186 -0.9693,-1.7941873 -0.9693,-1.794187 -1.2285,-2.054068 -1.2285,-2.054068 -1.4233,-2.120469 -1.4233,-2.12047 -1.5857,-2.112111 -1.5857,-2.112112 -1.1731,-1.415666 -1.173,-1.415667 -1.3571,-1.528704 -1.3572,-1.528703 -2.2969,-2.299939 -2.2969,-2.299939 -1.5287,-1.354133 -1.5287,-1.354133 -1.414,-1.171621 -1.414,-1.171621 -1.8198,-1.360525 -1.8198,-1.360525 -1.4699,-1.002244 -1.4699,-1.002243 -1.7051,-1.054087 -1.7051,-1.054088 -1.6463,-0.920761 -1.6463,-0.920762 -2.5283,-1.26391 -2.5282,-1.263909 -1.6463,-0.728239 -1.6463,-0.728238 -2.2342,-0.883431 -2.2343,-0.883432 -2.587,-0.864043 -2.5871,-0.864043 -2.1228,-0.57979 -2.1227,-0.57979 -2.1694,-0.475913 -2.1693,-0.475912 -1.7639,-0.295153 -1.7639,-0.295153 -1.7639,-0.232993 -1.7639,-0.232993 -2.3518,-0.196412 -2.3519,-0.196412 -3.8218,-0.0024 -3.8217,-0.0024 -1.7051,0.136193 -1.7051,0.136194 -1.6463,0.180329 -1.6463,0.18033 -1.5287,0.23399 -1.5287,0.23399 -1.8227,0.356738 -1.8227,0.356738 -1.4555,0.345142 -1.4556,0.345143 -1.4843,0.41354 -1.4842,0.413539 -2.1755,0.715402 -2.1754,0.715402 -2.1755,0.853551 -2.1755,0.853551 -1.7278,0.774917 -1.7279,0.774916 -1.4471,0.724286 -1.4472,0.724285 -1.4111,0.766164 -1.4111,0.766164 -2.0579,1.234462 -2.0578,1.234462 -1.8815,1.265708 -1.8815,1.265708 -1.4111,1.029053 -1.4111,1.029054 -1.9779,1.576439 -1.9779,1.576438 -1.9027,1.662809 -1.9026,1.662809 -3.2357,3.239976 -3.2356,3.239975 -1.8439,2.116667 -1.8438,2.116666 -1.2525,1.528704 -1.2524,1.528704 -2.0261,2.70463 -2.026,2.70463 -1.0649,1.528703 -1.0648,1.528704 -1.2575,1.920216 -1.2574,1.920216 -1.2054,1.961243 -1.2054,1.961243 -1.4119,2.4685417 -1.4119,2.468541 -1.1389,2.133194 -1.139,2.133195 -1.8085,3.687639 -1.8086,3.6876403 1.2447,-2.4388179 -1.1406,2.5658049 0.051,0.05071 0.051,0.05071 2.9541,-2.0216173 5.3395,-7.026239 1.7135,-1.99907396 1.7134,-1.99907504 1.8742,-2.054119 1.8742,-2.05412 2.5916,-2.590788 2.5916,-2.5907877 1.9357,-1.767012 1.9357,-1.767012 1.6463,-1.41021 1.6463,-1.410209 1.7639,-1.418556 1.7639,-1.418555 2.0899,-1.554867 2.0899,-1.554867 2.3198,-1.563314 2.3199,-1.563313 1.8814,-1.155616 1.8815,-1.155616 1.8815,-1.05057 1.8815,-1.050569 2.0579,-1.030668 2.0578,-1.030668 2.0579,-0.912213 2.0579,-0.912213 1.3523,-0.526015 1.3523,-0.526015 1.4699,-0.525757 1.4699,-0.525756 1.9124,-0.578003 1.9124,-0.578003 1.8506,-0.463081 1.8505,-0.463082 1.7639,-0.351146 1.7639,-0.351147 1.7051,-0.240392 1.7051,-0.240392 1.1171,-0.122332 1.1172,-0.122333 1.7639,-0.115699 1.7638,-0.1157 h 2.1167 2.1167 l 1.7639,0.115212 1.7639,0.115212 1.5875,0.183508 1.5875,0.183508 1.7638,0.292929 1.7639,0.292928 1.5875,0.358942 1.5875,0.358943 2.1755,0.62692 2.1755,0.626921 2.0578,0.721424 2.0579,0.721423 0.2058,0.240514 0.2058,0.240515 v 0.33975 0.33975 l -1.5581,-0.0012 -1.5581,-0.0012 -3.211,-0.234119 -3.211,-0.234119 -2.1983,0.11915 -2.1982,0.11915 -1.5727,0.181544 -1.5727,0.181544 -1.7508,0.287322 -1.7508,0.287323 -1.3802,0.297106 -1.3803,0.297106 -1.8108,0.474293 -1.8109,0.474293 -1.8933,0.591928 -1.8933,0.591927 -2.0231,0.753598 -2.0231,0.753598 -1.975,0.834564 -1.9751,0.834564 -2.2342,1.083762 -2.2343,1.083763 -1.9726,1.082816 -1.9726,1.082816 -1.6728,1.016259 -1.6727,1.016259 -1.5875,1.059595 -1.5875,1.059595 -1.47,1.064086 -1.4699,1.064086 -1.7051,1.36753 -1.705,1.36753 -1.661,1.477255 -1.6611,1.477254 -1.8553,1.803103 -1.8554,1.8031034 -2.1059,2.2172699 -0.095,0.6737879 0.054,0.05435 0.054,0.05435 1.3345,-0.581294 -0.6766,0.9621867 5.2917,-2.3770896 5.2916,-2.3770893 2.6743,-1.16442 2.6743,-1.164419 2.4799,-1.007582 2.48,-1.007582 2.4893,-0.919465 2.4893,-0.919464 1.8227,-0.594366 1.8226,-0.594367 1.8227,-0.526344 1.8227,-0.526344 1.7051,-0.415082 1.7051,-0.415081 2.1755,-0.416078 2.1754,-0.416078 1.6463,-0.234381 1.6463,-0.234381 1.7639,-0.177951 1.7639,-0.177951 2.1755,-0.119303 2.1754,-0.119302 h 1.7639 1.7639 l 2.1755,0.119163 2.1754,0.119164 1.7051,0.179616 1.7051,0.179615 1.2347,0.175645 1.2348,0.175645 1.8814,0.35573 1.8815,0.355729 1.6918,0.412251 1.6918,0.412251 1.764,0.531049 1.7641,0.531049 1.5767,0.576652 1.5768,0.576653 1.5277,0.64996 1.5277,0.64996 1.7888,0.894881 1.7888,0.894881 1.2347,0.708653 1.2347,0.708654 1.5287,0.995669 1.5287,0.995668 1.5287,1.1532293 1.5287,1.1532295 1.1172,0.956045 1.1171,0.9560449 1.6329,1.607159 1.6329,1.607159 1.1411,1.296962 1.1411,1.29696104 0.9165,1.17592596 0.9165,1.175926 1.2001,1.822685 1.2001,1.822686 0.5333,0.940741 0.5334,0.94074 0.8212,1.646297 0.8211,1.6462963 0.5938,1.469908 0.5938,1.469907 0.4291,1.293519 0.429,1.293518 0.4066,1.646297 0.4065,1.646296 0.2559,1.646297 0.256,1.646296 0.01,2.822222 0.01,2.822223 -0.2119,1.293518 -0.2119,1.293519 -0.3351,1.299968 -0.3351,1.299968 -0.4369,1.169477 -0.4369,1.169476 -0.5239,1.04576 -0.524,1.045759 -0.6575,1.062805 -0.6574,1.062806 -0.908,1.128808 -0.9079,1.128808 -1.1244,1.074845 -1.1243,1.074844 -0.9661,0.735445 -0.9661,0.735445 -0.9766,0.613149 -0.9767,0.613148 -1.0905,0.529462 -1.0906,0.529462 -1.0583,0.374902 -1.0583,0.374902 -0.9996,0.223253 -0.9995,0.223253 -0.2058,0.0025 -0.2058,0.0025 V 48.902168 47.91509 l -0.1211,-1.217783 -0.1211,-1.217784 -0.1836,-1.11713 -0.1837,-1.117129 -0.5084,-1.999075 -0.5084,-1.999074 -0.6092,-1.881481 -0.6091,-1.881482 -0.7627,-1.940278 -0.7627,-1.940278 -1.0985,-2.234259 -1.0985,-2.23426 -1.1183,-1.856472 -1.1182,-1.856473 -0.85,-1.200935 -0.85,-1.200935 -0.8841,-1.11713 -0.884,-1.117129 -1.1464,-1.293519 -1.1463,-1.293518 -1.0963,-1.0701 -1.0963,-1.070099 -0.9996,-0.872687 -0.9995,-0.872687 -1,-0.778391 -0.9999,-0.778391 -1.2931,-0.9066663 -1.2931,-0.906665 -1.5875,-0.947341 -1.5875,-0.947341 -1.9991,-0.984141 -1.999,-0.984142 -1.7639,-0.690233 -1.7639,-0.690233 -1.5278,-0.486939 -1.5278,-0.486938 -1.891,-0.467129 -1.8911,-0.467129 -2.0492,-0.344724 -2.0492,-0.344724 -1.9403,-0.17814896 -1.9403,-0.17815 -1.9991,-0.07531 -1.999,-0.07531 -2.3519,0.130048 -2.3518,0.130048 -1.5875,0.18250696 -1.5875,0.182507 -2.0579,0.345327 -2.0579,0.345328 -2.587,0.641315 -2.5871,0.641315 -2.1166,0.698034 -2.1167,0.698033 -1.9403,0.762697 -1.9403,0.762698 -1.5287,0.674843 -1.5287,0.674844 -2.7634,1.392405 -2.7634,1.3924043 -2.2863,1.36805 -2.2864,1.368049 -1.5917,1.075461 -1.5917,1.07546 -1.8252,1.369599 -1.8252,1.369598 -1.2856,1.075045 -1.2855,1.075044 -1.4779,1.336792 -1.4778,1.336791 -1.7082,1.747375 -1.7082,1.747375 -1.2554,1.434754 -1.2555,1.434754 -1.1021,1.387468 -1.1021,1.387468 -0.9404,1.293519 -0.9404,1.293519 -0.8249,1.234722 -0.825,1.234722 -0.9982,1.646297 -0.9982,1.646296 -0.8984,1.649583 -0.8984,1.649583 -0.8156,1.701806 -0.8156,1.701806 -0.7256,1.705093 -0.7257,1.705093 -0.7541,2.076943 -0.7542,2.076943 -0.5876,1.94858 -0.5877,1.948579 -0.4215,1.673777 -0.4215,1.673777 -0.4542,2.296997 -0.4542,2.296997 -0.2436,1.705093 -0.2436,1.705093 -0.1712,1.646296 -0.1713,1.646296 -0.1384,2.410649 -0.1384,2.410648 0.07,3.410186 0.07,3.410185 0.1809,1.999076 0.1808,1.99907 0.2384,1.82269 0.2384,1.82268 0.2965,1.7051 0.2965,1.70509 0.5251,2.37158 0.5252,2.371573 0.7541,2.62611 0.7542,2.62611 0.6079,1.76389 0.6079,1.76389 0.8662,2.18915 0.8662,2.18915 0.8864,1.95659 0.8863,1.9566 1.0147,2.02787 1.0147,2.02786 1.1783,2.114 1.1783,2.114 0.9982,1.64896 0.9983,1.64897 1.5607,2.35185 1.5607,2.35185 1.2015,1.6463 1.2014,1.64629 1.4259,1.81165 1.4259,1.81165 1.5687,1.83372 1.5687,1.83372 1.8055,1.94702 1.8055,1.94701 1.8002,1.75716 1.8001,1.75715 1.7636,1.59134 1.7636,1.59134 1.7639,1.46795 1.7639,1.46795 1.5304,1.18723 1.5304,1.18723 1.8798,1.34879 1.8798,1.3488 1.5875,1.05806 1.5875,1.05805 1.839,1.13142 1.8391,1.13142 1.5524,0.89203 1.5524,0.89204 2.1249,1.11431 2.1249,1.11431 2.1051,1.00252 2.1051,1.00251 2.0212,0.86283 2.0211,0.86283 1.999,0.76588 1.9991,0.76589 1.9403,0.66727 1.9403,0.66726 2.3,0.68873 2.3,0.68872 2.3982,0.60133 2.3983,0.60133 2.2985,0.47101 2.2985,0.47102 2.066,0.34101 2.0659,0.34101 2.5202,0.29551 2.5201,0.29552 1.5882,0.13329 1.5882,0.13329 1.822,0.0982 1.822,0.0982 z"
       id="path181" /><path
       style="fill:#fd4d17;fill-opacity:1;stroke:#000000;stroke-width:5.4"
       d="m 4532,690.84836 c -3.3,-0.46564 -14.55,-1.83256 -25,-3.0376 -10.45,-1.20504 -30.7,-5.14266 -45,-8.75026 C 4337.086,647.54728 4230.4795,561.38286 4174.8842,447 c -45.9327,-94.50276 -47.201,-192.29698 -3.6286,-279.78352 34.8003,-69.87354 99.5234,-125.16662 176.7531,-151.0006 67.518,-22.5853 140.5756,-13.433 191.9913,24.05176 41.7654,30.44922 73.2917,85.27498 80.0573,139.22366 1.2654,10.09102 1.5184,10.44694 6.6292,9.32862 22.7095,-4.96916 46.8982,-25.278 58.1465,-48.81992 l 7.167,-15 -0.075,-28 c -0.071,-26.59256 -0.3977,-28.84824 -6.4972,-44.87514 -39.1892,-102.972366 -160.0005,-155.53377 -287.652,-125.14893 -25.9085,6.166972 -57.1435,17.641572 -99.3666,36.503572 -18.4749,8.253138 -34.0202,14.576318 -34.545,14.051478 -1.7515,-1.75146 38.1643,-38.377946 54.2579,-49.786746 60.035,-42.558954 123.0092,-63.737064 181.5131,-61.042544 23.5274,1.0836 25.5831,0.89773 25,-2.2605 -0.8425,-4.56341 -26.8474,-13.0592 -53.7345,-17.55503 -25.8708,-4.32591 -68.5909,-3.02844 -94.16,2.85978 -85.5508,19.70119 -172.5656,80.802062 -240.8194,169.10082 -10.7285,13.87926 -19.9069,24.83442 -20.3965,24.3448 -0.4896,-0.48962 6.1598,-14.67532 14.7764,-31.52378 57.7334,-112.8882 137.8785,-189.56674 232.5965,-222.53591 36.7939,-12.80713 56.0734,-15.90043 99.1022,-15.90043 42.7361,0 62.2342,3.08506 101,15.98058 119.9509,39.90196 209.4357,140.174464 236.301,264.78798 3.8108,17.6761 4.5136,26.85642 4.4401,58 -0.1013,42.8875 -2.7139,55.90044 -17.4089,86.70836 -18.5394,38.8677 -47.3047,67.15764 -87.7881,86.33748 -24.6634,11.6848 -42.7237,15.5283 -73.5441,15.65136 -31.4326,0.1255 -45.0209,-2.6326 -73.9149,-15.00294 -10.4968,-4.494 -20.2101,-8.60994 -21.5851,-9.14656 -1.9083,-0.74472 -2.4878,4.16408 -2.4484,20.73832 0.041,17.13468 0.9946,24.47996 4.5229,34.82962 13.6238,39.96244 47.8647,69.77512 94.4255,82.21378 24.4983,6.54472 68.8214,6.09842 95.5547,-0.96214 63.0381,-16.64912 114.2407,-58.76872 144.0782,-118.51966 10.3081,-20.64228 20.7502,-52.07702 26.8175,-80.7309 4.7185,-22.28382 5.3314,-29.67794 5.434,-65.5569 l 0.1156,-40.44018 7.8001,15.44018 c 27.8173,55.06352 33.7961,111.22254 17.1353,160.95178 -6.721,20.06064 -6.6031,19.4884 -4.0133,19.4884 6.7478,0 23.6077,-31.89336 30.189,-57.10796 5.429,-20.79932 7.1717,-61.96256 4.0176,-94.89204 -6.2693,-65.45186 -32.1382,-162.44724 -61.2991,-229.8413 -5.9226,-13.687662 -10.4888,-25.16621 -10.1471,-25.50788 1.0102,-1.01021 26.9464,34.55726 41.7785,57.292762 17.8128,27.304458 42.3578,76.453398 53.9635,108.056418 62.4899,170.16342 22.617,337.42348 -102.2068,428.74056 -21.0859,15.42574 -49.8825,30.48386 -80.3991,42.04168 -90.3253,34.20972 -177.6106,30.93256 -263.0348,-9.87574 -39.7472,-18.98782 -82.8606,-54.3816 -104.6676,-85.9266 -13.4352,-19.43472 -27.1143,-48.23678 -32.2859,-67.9799 -6.0137,-22.95792 -7.2984,-57.52388 -2.9405,-79.11692 8.7028,-43.12172 34.0842,-83.01734 66.0755,-103.8605 16.9486,-11.04242 17.0467,-14.29506 0.6647,-22.04252 -17.1769,-8.12336 -31.3948,-10.66394 -52.63,-9.40434 -22.2152,1.3177 -38.3395,6.71498 -57.5511,19.26406 -21.3165,13.924 -37.8824,33.06276 -49.4762,57.16022 -12.683,26.3615 -16.0379,40.4867 -17.3884,73.2097 -4.9757,120.56532 76.5199,229.12072 206.4157,274.95396 21.9158,7.7329 23.5466,8.64446 18.7788,10.49684 -19.9623,7.75562 -54.7195,7.91024 -81.7788,0.36378 -8.25,-2.30082 -24.9,-9.00188 -37,-14.89126 C 4339.557,551.55462 4296.6941,512.69668 4268.829,467.09696 4263.0829,457.69362 4257.5056,450 4256.4351,450 c -1.163,0 -1.411,3.34768 -0.6163,8.31794 4.5485,28.44472 41.5203,88.42832 74.1099,120.23718 36.7285,35.8486 97.0672,65.45806 163.4952,80.23062 46.767,10.40026 66.1268,12.20328 130.0427,12.11116 l 59.4667,-0.0857 -18.4667,5.6907 c -27.9326,8.60778 -60.4978,13.5226 -95.4666,14.40808 -17.05,0.43174 -33.7,0.40402 -37,-0.0616 z"
       id="path182"
       transform="scale(0.26458333)" /></g></svg>
