<?xml version="1.0" encoding="UTF-8" standalone="no"?>
<!-- Created with Inkscape (http://www.inkscape.org/) -->

<svg
   width="53.374454mm"
   height="47.767857mm"
   viewBox="0 0 53.374454 47.767857"
   version="1.1"
   id="svg1"
   xml:space="preserve"
   xmlns="http://www.w3.org/2000/svg"
   xmlns:svg="http://www.w3.org/2000/svg"><defs
     id="defs1" /><g
     id="layer1"
     transform="translate(-497.12495,-59.526421)"><path
       style="fill:#000000"
       d="m 506.22584,107.13558 c -3.18584,-0.70603 -5.95893,-2.90112 -7.41336,-5.86819 -0.74352,-1.516788 -1.01128,-2.642958 -1.02052,-4.292129 -0.0141,-2.513727 0.70944,-4.534959 2.37238,-6.627593 1.47473,-1.8558 3.88814,-3.294464 6.24286,-3.721456 1.29589,-0.234991 3.08192,-0.164622 4.37683,0.172445 1.66547,0.433526 1.64808,0.437226 2.62459,-0.558463 0.46243,-0.471508 0.92644,-1.022939 1.03113,-1.225402 l 0.19036,-0.368114 -0.76778,-0.603374 c -0.9676,-0.760415 -1.06685,-1.001476 -0.82433,-2.002303 0.26524,-1.094607 0.24028,-1.763802 -0.0838,-2.246267 -0.50825,-0.756682 -0.68639,-0.670942 -2.51564,1.210831 -0.89939,0.925208 -1.99897,2.065841 -2.44352,2.534742 -0.44667,0.471141 -0.90746,0.852546 -1.03,0.852546 -0.34937,0 -0.88674,-0.319904 -2.11034,-1.256309 -1.26812,-0.970478 -1.5099,-1.263441 -1.5099,-1.829592 0,-0.654564 0.66324,-1.433377 2.4851,-2.918163 1.16387,-0.94853 1.87426,-1.686783 2.17425,-2.25954 l 0.17081,-0.326104 -1.97546,-2.025748 c -2.42604,-2.487811 -3.86681,-4.270706 -5.02922,-6.223469 -1.03829,-1.744259 -1.2799,-1.975891 -2.06098,-1.975891 -0.50515,0 -0.60026,-0.0463 -0.99693,-0.485374 -0.93751,-1.037708 -1.23677,-2.485881 -0.77106,-3.731202 0.32315,-0.864087 0.7059,-1.2396 1.60157,-1.571293 0.53332,-0.197503 0.9631,-0.259548 1.82367,-0.263274 1.04848,-0.0045 1.15487,0.01718 1.54672,0.315801 0.28455,0.216849 0.57154,0.635662 0.88637,1.293519 0.60083,1.255441 1.10276,1.719942 3.69316,3.417732 1.12071,0.734531 2.54036,1.74503 3.15478,2.245553 3.4518,2.811924 4.17875,3.317554 4.5845,3.188774 0.12199,-0.03872 1.30582,-1.179156 2.63072,-2.5343 1.78446,-1.825193 2.48058,-2.463899 2.6854,-2.463899 0.41971,0 1.67667,0.793081 2.58009,1.627909 1.29261,1.194471 1.20331,1.442102 -1.44411,4.004701 -0.96212,0.931291 -1.86429,1.879297 -2.00482,2.106678 l -0.25551,0.413422 0.36954,0.308505 c 0.20325,0.169678 1.19418,0.749186 2.20207,1.287796 l 1.83252,0.979289 0.2492,-0.219473 c 0.13706,-0.120711 3.9521,-3.725204 8.47788,-8.009984 4.52577,-4.28478 8.28872,-7.79051 8.36212,-7.79051 0.34323,0 1.74667,0.978529 2.69847,1.881482 0.57949,0.549745 1.21014,1.147178 1.40144,1.327628 0.42332,0.39931 0.38572,0.803034 -0.14156,1.520029 -0.39422,0.536054 -0.38014,0.638781 0.13727,1.001551 l 0.37459,0.262634 0.30482,-0.292032 c 0.16765,-0.160618 0.35169,-0.292032 0.40898,-0.292032 0.0573,0 0.63648,0.514139 1.28708,1.142531 3.6425,3.518128 3.71116,3.590458 3.71116,3.909106 0,0.45908 -0.80334,1.373464 -4.95213,5.636619 l -3.67435,3.775634 h -0.48983 c -0.35042,0 -0.55358,-0.07101 -0.71384,-0.249505 -0.12321,-0.137228 -0.75318,-0.624823 -1.39994,-1.083546 -0.64676,-0.458723 -1.55957,-1.213597 -2.02847,-1.677497 -0.7279,-0.720138 -0.85255,-0.902284 -0.85255,-1.24583 0,-0.221307 0.0777,-0.505094 0.17265,-0.630638 0.095,-0.125544 0.17433,-0.343484 0.17639,-0.484311 0.004,-0.260954 -0.49367,-0.743489 -0.76652,-0.743489 -0.0828,0 -1.74197,1.624565 -3.687,3.610145 -3.30159,3.370414 -3.52602,3.626148 -3.37971,3.851157 0.0862,0.132558 1.47467,1.474528 3.0855,2.982156 8.53355,7.986825 12.45234,12.496341 14.6834,16.896821 1.44347,2.84705 1.46471,3.93935 0.0766,3.93935 -1.27701,0 -4.01274,-1.01023 -7.48029,-2.76225 -4.63869,-2.343768 -8.87451,-5.089717 -15.89637,-10.305116 -1.36994,-1.017512 -2.59104,-1.903661 -2.71353,-1.96922 -0.19051,-0.101958 -0.39706,0.05573 -1.42806,1.090254 l -1.20534,1.209451 0.47399,1.282562 c 0.57372,1.552427 0.72025,2.328329 0.71823,3.803002 -0.005,3.481707 -1.661,6.734517 -4.31839,8.481297 -0.92767,0.60978 -1.92459,1.0273 -3.38238,1.41658 -1.26473,0.33772 -4.08896,0.41919 -5.29167,0.15265 z m 4.46852,-2.21727 c 2.53511,-0.68042 4.79819,-2.48773 5.88379,-4.6988 0.74709,-1.521608 0.91813,-2.306676 0.84725,-3.888771 -0.0698,-1.557196 -0.35735,-2.562443 -1.09692,-3.834332 -0.28536,-0.490753 -0.51884,-1.042756 -0.51884,-1.226672 0,-0.286371 1.4434,-1.7794 10.05106,-10.39661 l 10.05106,-10.062217 0.62047,0.656568 c 0.34125,0.361112 1.03057,0.956803 1.53181,1.323757 0.50124,0.366955 0.91134,0.73666 0.91134,0.821569 0,0.08491 -0.23813,0.368353 -0.52917,0.629878 -0.29104,0.261524 -0.52866,0.548863 -0.52805,0.63853 6.2e-4,0.08967 0.82111,0.815953 1.82331,1.613969 l 1.82219,1.450937 0.56512,-0.473146 c 0.90428,-0.757106 2.25586,-2.234108 2.25586,-2.465199 0,-0.190777 -1.36121,-1.315844 -1.59203,-1.315844 -0.0489,0 -0.36717,0.30427 -0.70731,0.676157 l -0.61844,0.676157 -0.42259,-0.405243 c -0.23243,-0.222884 -0.42259,-0.479693 -0.42259,-0.570685 0,-0.09099 0.23812,-0.430294 0.52916,-0.754003 0.80259,-0.892667 0.74217,-1.054283 -0.83022,-2.220691 -0.61053,-0.452898 -1.10958,-0.886993 -1.10901,-0.964655 5.7e-4,-0.07766 0.25934,-0.442941 0.57503,-0.81173 0.3157,-0.368789 0.70846,-0.842352 0.87282,-1.052362 l 0.29883,-0.381838 0.91943,0.750737 c 0.50568,0.412905 1.17167,0.961654 1.47998,1.219443 l 0.56056,0.468706 0.34943,-0.334775 c 0.19218,-0.184127 0.38006,-0.431292 0.4175,-0.549256 0.10713,-0.337537 0.35258,-0.254312 0.80345,0.272421 l 0.41677,0.486903 -0.5252,0.584149 c -0.28886,0.321282 -0.5252,0.678777 -0.5252,0.794434 0,0.237963 0.6787,0.87851 1.05859,0.999083 0.32502,0.103158 0.93237,-0.314413 1.85211,-1.273396 1.07875,-1.124771 1.08015,-1.132014 0.35189,-1.819162 -0.93287,-0.880216 -3.01895,-2.728358 -3.07962,-2.728358 -0.0294,0 -0.20193,0.158867 -0.3834,0.353038 l -0.32994,0.353037 -1.04226,-0.941 c -0.57325,-0.517551 -1.08892,-0.941001 -1.14593,-0.941001 -0.20381,0 -0.0961,-0.222931 0.40667,-0.841767 0.78296,-0.963689 0.83478,-1.100079 0.52695,-1.386863 -0.14216,-0.132448 -0.29591,-0.240814 -0.34165,-0.240814 -0.0457,0 -0.5386,0.525942 -1.09523,1.168761 -0.92939,1.073299 -1.05412,1.17507 -1.52714,1.246003 -1.05343,0.157972 -1.03752,0.101453 0.43148,-1.533238 0.75536,-0.840557 1.37435,-1.567433 1.37553,-1.615279 10e-4,-0.04785 -0.2833,-0.276513 -0.63217,-0.508148 -0.44807,-0.297498 -0.73672,-0.410063 -0.98313,-0.383377 -0.2883,0.03122 -2.68299,2.404809 -13.80019,13.678519 -7.50959,7.61532 -13.55603,13.656001 -13.68833,13.675286 -0.13033,0.019 -0.58012,-0.1205 -0.99953,-0.309998 -1.04406,-0.471725 -1.95278,-0.642412 -3.4084,-0.640211 -3.56636,0.0054 -6.74477,2.08646 -8.24711,5.399802 -0.7123,1.570934 -0.92262,3.648524 -0.52815,5.217249 0.78114,3.106498 3.7159,5.847538 6.9944,6.532708 0.97919,0.20465 3.10006,0.14303 4.07391,-0.11836 z m -3.41018,-2.25501 c -2.75866,-0.42871 -4.78749,-2.25765 -5.40348,-4.87111 -0.61529,-2.610446 0.40158,-5.457734 2.43382,-6.814811 1.10095,-0.735188 2.1022,-0.996732 3.7928,-0.990753 2.19427,0.0078 3.66536,0.562138 4.93889,1.861209 3.21221,3.276629 1.97901,9.071225 -2.24375,10.543085 -0.69291,0.24152 -2.71136,0.39778 -3.51828,0.27238 z m 3.25068,-1.77808 c 0.92033,-0.45308 1.64291,-1.191128 2.08092,-2.125478 0.2819,-0.601357 0.31284,-0.80108 0.31284,-2.019666 0,-1.234454 -0.0287,-1.413807 -0.32908,-2.05787 -0.72958,-1.564248 -2.14046,-2.506587 -3.91902,-2.617547 -2.38774,-0.148966 -4.24837,0.91647 -4.97035,2.846128 -0.33174,0.886672 -0.34061,2.394121 -0.0195,3.307877 0.45898,1.305888 1.54423,2.406286 2.8291,2.868606 0.52033,0.18722 0.90012,0.22757 1.94276,0.20641 1.19723,-0.0243 1.35515,-0.0554 2.07228,-0.40846 z m 35.18784,1.82268 c -0.40429,-0.68357 -1.92379,-2.861128 -2.91651,-4.179558 -2.60298,-3.457023 -6.18543,-7.350647 -11.81566,-12.84197 -1.95621,-1.90794 -3.6454,-3.483782 -3.75377,-3.501872 -0.27783,-0.04638 -3.90474,3.485957 -3.89748,3.795853 0.003,0.148978 0.31194,0.472257 0.84148,0.881945 0.45978,0.355717 2.32301,1.907987 4.14052,3.449488 1.81751,1.541501 3.75209,3.129001 4.29906,3.527778 0.54698,0.398777 1.26135,0.980007 1.5875,1.291623 0.56796,0.542648 0.57562,0.558107 0.18143,0.36606 -0.84776,-0.41302 -2.52283,-1.652334 -4.78293,-3.538702 -1.83753,-1.533672 -4.58301,-3.613158 -6.79764,-5.148682 -0.24075,-0.166922 -0.72484,0.100846 -0.94219,0.52116 -0.10277,0.198732 -0.15593,0.411361 -0.11814,0.47251 0.0378,0.06115 0.52943,0.427002 1.09254,0.813007 0.5631,0.386005 1.7382,1.290586 2.61132,2.01018 3.39791,2.800413 5.7935,4.68645 7.22549,5.688575 4.2324,2.961897 8.04462,4.991095 11.53053,6.137575 1.29206,0.42494 1.65065,0.48533 1.51445,0.25503 z M 519.04019,80.74048 c 1.47516,-1.491398 2.63499,-2.753228 2.5774,-2.804066 -0.0576,-0.05084 -1.30452,-1.005366 -2.77096,-2.121174 l -2.66625,-2.028741 2.63685,-3.000062 c 1.45027,-1.650034 2.63685,-3.044599 2.63685,-3.099033 0,-0.234379 -0.88072,-0.943122 -1.13027,-0.909564 -0.14486,0.01948 -1.49643,1.17872 -3.05696,2.621957 -1.53851,1.42287 -2.92158,2.685428 -3.07349,2.805683 l -0.2762,0.218646 -1.19982,-1.160629 c -2.01371,-1.947915 -6.43971,-5.5514 -8.60358,-7.004712 -2.27091,-1.525198 -2.19582,-1.443548 -2.35249,-2.558232 -0.14321,-1.018911 -0.53401,-1.137111 -2.13999,-0.647255 -0.93516,0.285239 -0.97722,0.313287 -1.10223,0.734953 -0.0715,0.241119 -0.11295,0.728047 -0.0922,1.082064 0.036,0.612516 0.0606,0.65684 0.5082,0.915892 0.34454,0.1994 0.592,0.257782 0.92502,0.218235 0.5452,-0.06474 0.58946,-0.02339 1.74718,1.632391 1.70431,2.437515 4.6321,5.733789 7.14678,8.04625 0.74378,0.683961 1.47691,1.39007 1.62919,1.56913 l 0.27688,0.325563 -0.30518,0.400114 c -0.16785,0.220063 -1.33755,1.49072 -2.59933,2.823684 -1.26178,1.332964 -2.29415,2.479907 -2.29415,2.548763 0,0.235719 0.48872,0.811704 0.84508,0.995989 0.1959,0.101301 0.47753,0.153726 0.62585,0.116499 0.14833,-0.03723 1.33722,-1.200758 2.64198,-2.585626 1.30477,-1.384868 2.63796,-2.741948 2.96265,-3.015733 l 0.59035,-0.497791 0.3986,0.190077 c 0.51634,0.246229 1.40789,1.460244 1.63568,2.22731 0.23622,0.795415 0.22397,1.275799 -0.0576,2.260402 -0.12935,0.45232 -0.23518,0.944259 -0.23518,1.093197 0,0.635521 0.63076,1.300943 1.24436,1.312743 0.16659,0.0032 1.10185,-0.861755 2.92693,-2.706924 z"
       id="path86" /><path
       style="fill:#c66b6e;fill-opacity:1;stroke:#000000;stroke-width:0.3375"
       d="m 1917.0794,397.25079 c -5.3556,-0.51744 -11.6552,-3.27663 -16.8294,-7.37118 -1.4926,-1.18112 -4.4571,-4.10876 -5.574,-5.50461 -2.9068,-3.63295 -4.8032,-7.17561 -5.9898,-11.1895 -1.8632,-6.30248 -1.0689,-14.68629 2.0041,-21.15575 4.6028,-9.68971 13.2623,-16.68795 23.459,-18.95842 2.9146,-0.64897 3.9089,-0.74485 7.7882,-0.75105 5.5225,-0.009 8.0802,0.46546 12.3142,2.28345 1.4653,0.62919 2.6922,1.0458 3.5233,1.19644 0.4562,0.0827 0.4846,0.0628 2.0625,-1.44899 5.7489,-5.50758 25.7969,-25.58412 48.0366,-48.10473 26.1059,-26.43579 42.3052,-42.74074 46.6492,-46.95344 5.227,-5.06907 6.3944,-6.14399 7.1899,-6.62043 0.5201,-0.31145 0.5339,-0.31277 1.2811,-0.12136 0.9775,0.25043 1.543,0.54361 3.0682,1.59062 1.4518,0.99666 1.9384,1.4074 1.9351,1.63341 0,0.20559 -1.1731,1.60728 -4.0431,4.8433 -4.8138,5.4276 -5.5159,6.32047 -5.4325,6.90826 0.037,0.26117 0.1133,0.28887 0.8891,0.32276 1.011,0.0442 2.745,-0.23399 3.402,-0.54574 0.6914,-0.32807 1.7473,-1.35398 3.851,-3.74133 2.668,-3.02776 4.4589,-4.9375 4.6302,-4.9375 0.208,0 1.3493,0.962 1.6111,1.35791 0.1199,0.18127 0.2183,0.47408 0.2188,0.65068 0,0.45447 -0.7303,1.59972 -2.2419,3.51016 -0.7179,0.90729 -1.5195,1.97038 -1.7813,2.36244 -0.4838,0.72457 -0.6255,1.36881 -0.3009,1.36881 0.3584,0 2.5266,1.80542 6.8171,5.67661 l 1.6504,1.48911 1.3572,-1.35301 1.3572,-1.35302 0.7903,0.6753 c 2.9044,2.48197 8.0587,7.0913 10.5488,9.43349 1.7252,1.62274 2.2795,2.38885 2.1375,2.95454 -0.1725,0.68731 -1.197,1.94239 -3.4341,4.20704 -3.4872,3.53007 -5.2066,4.75555 -6.4723,4.61289 -1.0521,-0.11859 -3.579,-2.20055 -4.0496,-3.33656 -0.1605,-0.38747 -0.1488,-0.46356 0.1623,-1.05573 0.3066,-0.58354 1.3667,-1.90546 3.0467,-3.79895 l 0.649,-0.73158 -1.2557,-1.45682 c -0.6906,-0.80125 -1.5126,-1.62703 -1.8267,-1.83507 -0.9221,-0.61073 -1.2728,-0.51406 -1.7421,0.48013 -0.2231,0.47273 -0.7299,1.11219 -1.542,1.94584 l -1.2097,1.24172 -0.3157,-0.24172 c -0.1737,-0.13294 -1.433,-1.16886 -2.7985,-2.30203 -1.3655,-1.13318 -3.7466,-3.09644 -5.2913,-4.3628 l -2.8086,-2.30247 -0.3789,0.47813 c -0.2084,0.26297 -1.1664,1.43131 -2.1289,2.59631 -2.5295,3.06172 -3.9032,4.82914 -4.0742,5.24196 -0.14,0.33782 -0.118,0.3941 0.3372,0.86378 0.5544,0.57195 2.6308,2.25564 4.9207,3.9899 2.7843,2.10872 3.8788,3.30601 3.8788,4.24294 0,0.68568 -0.5075,1.55424 -1.7531,3.00007 -1.3557,1.57378 -2.1219,2.67794 -2.1219,3.05799 0,0.15372 0.1752,0.527 0.3893,0.8295 0.4915,0.69446 2.6205,2.86251 2.8109,2.86251 0.078,0 1.0492,-0.98104 2.1573,-2.18008 1.1081,-1.19905 2.2159,-2.33349 2.4617,-2.52099 l 0.4469,-0.34091 0.5232,0.2572 c 0.9973,0.49026 3.9136,2.82942 4.8408,3.88271 0.2722,0.30924 0.4948,0.68091 0.4947,0.82592 -8e-4,0.91083 -5.2213,6.50164 -9.1708,9.82133 -1.2033,1.0114 -1.3818,1.12185 -1.5625,0.96669 -0.1122,-0.0963 -2.1975,-1.76781 -4.634,-3.71436 -4.4887,-3.58613 -7.3755,-6.01381 -8.3633,-7.0333 -0.4959,-0.51179 -0.5298,-0.58646 -0.3894,-0.8562 0.085,-0.16253 0.8681,-1.02676 1.741,-1.92051 1.7639,-1.80601 2.1292,-2.24552 2.1292,-2.5615 0,-0.32207 -1.1161,-1.3818 -2.9375,-2.78926 -3.0141,-2.32904 -4.4912,-3.61931 -6.5958,-5.7616 l -2.0958,-2.13332 -24.7594,24.74784 c -32.5787,32.5636 -46.3741,46.52649 -49.4833,50.08436 -1.8908,2.16364 -1.9958,2.45064 -1.4385,3.93127 0.293,0.77847 0.6304,1.44947 2.4869,4.94535 2.3548,4.43423 3.2299,8.40306 3.2464,14.72436 0.01,2.58449 -0.035,3.42397 -0.2216,4.4375 -0.4567,2.48384 -1.3425,4.96772 -2.9006,8.13415 -3.1769,6.45594 -8.6931,11.85722 -15.6758,15.34906 -3.7102,1.85535 -6.5853,2.74373 -10.375,3.2058 -1.4148,0.1725 -7.8992,0.25919 -9.2956,0.12428 z m 6.4206,-9.1301 c 4.7144,-0.3299 6.751,-0.76522 9.3449,-1.9973 10.073,-4.78472 15.2984,-16.87669 12.2887,-28.43715 -1.9693,-7.56407 -7.8065,-13.91283 -14.9403,-16.24971 -2.943,-0.96406 -5.8644,-1.3497 -10.1933,-1.34559 -6.2102,0.006 -9.7627,0.93758 -13.8377,3.62911 -3.102,2.04891 -5.4601,4.79077 -7.2824,8.46745 -1.1202,2.26034 -1.7519,4.06261 -2.1905,6.25 -1.7963,8.95799 0.9981,17.86466 7.4055,23.60362 3.6409,3.26112 8.8627,5.55248 13.9676,6.12907 0.8464,0.0956 3.7405,0.0693 5.4375,-0.0495 z"
       id="path87"
       transform="scale(0.26458333)" /><path
       style="fill:#c66b6e;fill-opacity:1;stroke:#000000;stroke-width:0.3375"
       d="m 1950.0278,315.24224 c -1.7101,-0.33702 -3.5111,-2.23613 -3.9174,-4.13089 -0.1672,-0.77977 -0.018,-1.62525 0.9236,-5.23635 0.6271,-2.40467 0.6357,-2.46276 0.6367,-4.3125 0,-1.64215 -0.04,-2.02913 -0.3333,-3.11608 -0.5845,-2.1695 -1.9336,-4.57848 -3.8551,-6.88392 -0.5158,-0.61875 -1.2431,-1.35787 -1.6163,-1.64249 -0.741,-0.56516 -2.1144,-1.29501 -2.4368,-1.29501 -0.3536,0 -3.2734,2.62704 -5.993,5.39221 -1.4445,1.46866 -4.9646,5.11716 -7.8225,8.10779 -4.734,4.95385 -7.6121,7.8167 -9.1119,9.06339 -0.539,0.44803 -0.5899,0.46374 -1.3125,0.40505 -1.0228,-0.0831 -1.8288,-0.49366 -2.8381,-1.44573 -0.9055,-0.85417 -1.8512,-2.14903 -1.8512,-2.53456 0,-0.40514 2.0341,-2.68147 9.8187,-10.98815 5.8282,-6.21909 8.2265,-8.86055 9.1062,-10.02954 l 0.7278,-0.96703 -0.6303,-0.72047 c -0.8761,-1.00154 -3.8165,-3.88097 -7.1474,-6.99926 -6.3285,-5.92459 -12.9782,-12.96903 -18.4981,-19.5962 -3.6144,-4.33934 -5.3666,-6.61968 -8.8654,-11.53738 -2.2334,-3.13909 -3.2723,-4.39089 -3.9379,-4.74487 -0.2989,-0.159 -0.7529,-0.20675 -2.0111,-0.21155 -1.5709,-0.006 -1.6541,-0.0199 -2.5,-0.41765 -1.3709,-0.64463 -2.034,-1.14437 -2.3326,-1.75796 -0.5814,-1.1947 -0.4044,-5.43153 0.2868,-6.86361 0.3259,-0.67514 0.8863,-1.00935 2.6743,-1.59484 3.9257,-1.28547 6.546,-1.68676 7.5237,-1.15225 1.0025,0.548 1.2802,1.1626 1.7334,3.83591 0.5794,3.41863 0.7422,3.59683 7.4269,8.13227 5.7229,3.88285 10.5778,7.54554 17.875,13.48548 7.3921,6.01714 12.5869,10.57989 17.8538,15.68135 1.4665,1.42043 2.7173,2.5826 2.7796,2.5826 0.2485,0 1.4287,-1.05099 9.5541,-8.50797 10.7224,-9.84037 14.0853,-12.73789 14.7875,-12.74083 0.3857,-0.002 0.9201,0.28207 1.9259,1.02241 0.9441,0.69494 2.0991,1.89856 2.0991,2.18752 0,0.33814 -4.0366,5.07392 -13.6705,16.03823 -3.4127,3.88403 -6.1908,7.10139 -6.1735,7.14969 0.017,0.0483 1.8596,1.47832 4.094,3.17783 4.1117,3.12742 15.4046,11.74191 16.0243,12.22375 0.1853,0.14403 0.34,0.29399 0.3438,0.33324 0.05,0.51128 -13.2868,14.31545 -17.6806,18.30088 -1.4497,1.31493 -2.8801,2.45479 -3.045,2.42655 -0.044,-0.008 -0.3206,-0.0611 -0.6147,-0.11906 z"
       id="path88"
       transform="scale(0.26458333)" /><path
       style="fill:#c66b6e;fill-opacity:1;stroke:#000000;stroke-width:0.3375"
       d="m 2060.625,388.30313 c -1.9098,-0.49854 -7.2258,-2.32388 -10,-3.43368 -11.3134,-4.52583 -23.1516,-11.10846 -36.1108,-20.07944 -5.5192,-3.82061 -13.3431,-9.90793 -24.9517,-19.41343 -6.8508,-5.60964 -10.4034,-8.39266 -13.25,-10.37975 -0.825,-0.57589 -2.1328,-1.51716 -2.9063,-2.0917 -1.6349,-1.21453 -1.642,-1.23318 -0.9881,-2.59616 0.4462,-0.92987 1.1038,-1.62376 1.9463,-2.05356 0.9831,-0.50156 1.0341,-0.47861 4.6479,2.0932 8.3861,5.96804 15.6598,11.5422 23.3745,17.9128 8.306,6.85896 13.9724,11.03722 17.0931,12.6042 1.6137,0.81027 1.664,0.61886 0.2076,-0.79072 -1.4715,-1.42416 -3.6238,-3.21878 -6.3125,-5.26339 -3.4262,-2.60539 -7.9679,-6.33145 -17.0625,-13.9981 -7.0117,-5.91081 -11.7027,-9.82044 -14.3125,-11.92841 -2.2741,-1.83683 -3.3816,-2.85995 -3.7693,-3.48202 -0.2453,-0.39376 -0.2467,-0.42266 -0.037,-0.75 0.5963,-0.92958 2.3129,-2.79262 5.5542,-6.02797 4.5133,-4.50504 8.3088,-7.86977 8.8817,-7.87369 0.9251,-0.006 23.0848,21.59246 35.2664,34.37369 9.4764,9.94287 17.1436,18.81604 23.4384,27.125 4.4093,5.82025 11.4055,15.96258 11.2191,16.26424 -0.1109,0.17945 -0.6648,0.11883 -1.9287,-0.21111 z"
       id="path89"
       transform="scale(0.26458333)" /></g></svg>
