<?xml version="1.0" encoding="UTF-8" standalone="no"?>
<!-- Created with Inkscape (http://www.inkscape.org/) -->

<svg
   width="60.38517mm"
   height="60.287708mm"
   viewBox="0 0 60.38517 60.287708"
   version="1.1"
   id="svg1"
   xml:space="preserve"
   xmlns="http://www.w3.org/2000/svg"
   xmlns:svg="http://www.w3.org/2000/svg"><defs
     id="defs1" /><g
     id="layer1"
     transform="translate(-509.29065,-35.836334)"><path
       style="fill:#000000"
       d="m 527.25579,96.069593 -1.17593,0.05445 -0.86777,-0.09728 -0.86777,-0.09728 -0.95491,-0.256223 -0.95492,-0.256222 -0.99954,-0.399737 -0.99954,-0.399738 -0.94074,-0.526823 -0.94074,-0.526823 -1.01942,-0.729761 -1.01943,-0.729762 -0.90516,-0.81435 -0.90516,-0.814351 -0.88006,-1.006641 -0.88007,-1.00664 -0.78593,-1.17762 -0.78592,-1.17762 -0.4949,-1.015669 -0.49489,-1.015669 -0.34241,-1.047816 -0.34241,-1.047816 -0.20376,-1.218568 -0.20376,-1.218569 0.0681,-1.480446 0.0681,-1.480447 0.23971,-0.967984 0.23971,-0.967985 0.35236,-0.913708 0.35237,-0.913709 0.6067,-1.058121 0.60671,-1.058122 0.82275,-1.11713 0.82275,-1.117129 2.07163,-2.061225 2.07163,-2.061225 2.27481,-1.878127 2.2748,-1.878127 1.59,-1.192162 1.59,-1.192162 0.88095,-0.50404 0.88095,-0.504041 0.60471,-0.16497 0.60471,-0.164971 1.613,0.06938 1.613,0.06938 2.67913,0.232769 2.67913,0.23277 2.06592,9.19e-4 2.06593,9.19e-4 0.6387,-0.18961 0.63871,-0.189611 0.64676,-0.328899 0.64676,-0.328898 0.88194,-0.61853 0.88194,-0.61853 1.17922,-1.185414 1.17923,-1.185415 0.66497,-1.000784 0.66497,-1.000784 0.26292,-0.586716 0.26291,-0.586716 0.0522,-1.340789 0.0522,-1.34079 -0.13078,-0.436493 -0.13077,-0.436493 -0.53389,-0.203893 -0.53388,-0.203892 -0.35236,-0.29649 -0.35236,-0.296489 -0.17216,-0.332931 -0.17217,-0.332931 0.001,-0.740793 10e-4,-0.740794 0.2844,-0.610843 0.28441,-0.610844 0.50143,-0.543992 0.50143,-0.543991 0.51122,-0.299591 0.51121,-0.299591 0.75967,-0.06098 0.75967,-0.06098 v -0.193005 -0.193005 l 0.41142,-0.858475 0.41141,-0.858476 0.68263,-0.682628 0.68263,-0.682629 0.60714,-0.307662 0.60714,-0.307661 h 0.77204 0.77204 l 0.43559,0.182001 0.43559,0.182001 0.25124,0.236027 0.25123,0.236027 0.2092,0.463916 0.2092,0.463916 h 0.43911 0.43911 l 0.74835,0.490848 0.74836,0.490847 3.18398,3.183921 3.18398,3.183921 0.32908,0.564549 0.32908,0.564549 -0.0614,0.457698 -0.0614,0.457697 0.37009,0.07984 0.37009,0.07984 0.4359,0.220636 0.43589,0.220636 0.3132,0.534429 0.3132,0.534429 -0.052,0.627116 -0.052,0.627116 -0.32024,0.654541 -0.32024,0.654541 -0.52644,0.585527 -0.52644,0.585527 -0.53317,0.258106 -0.53318,0.258107 -0.55878,0.0084 -0.55878,0.0084 -0.13315,0.560521 -0.13315,0.560522 -0.4034,0.630618 -0.4034,0.630619 -0.63016,0.620295 -0.63016,0.620295 -0.50212,0.294261 -0.50211,0.294261 -0.70485,0.06391 -0.70485,0.06391 -0.52064,-0.198836 -0.52065,-0.198835 -0.47148,-0.511504 -0.47149,-0.511505 -0.14437,-0.48185 -0.14436,-0.48185 -0.83394,-0.02517 -0.83393,-0.02517 -0.58796,0.02865 -0.58797,0.02865 -0.55732,0.181942 -0.55732,0.181942 -0.91258,0.593169 -0.91259,0.593168 -1.30627,1.308674 -1.30627,1.308673 -0.7294,0.990038 -0.72941,0.990037 -0.58126,0.984093 -0.58126,0.984093 -0.11987,0.534892 -0.11987,0.534892 0.12404,1.783107 0.12404,1.783107 0.22523,1.940278 0.22522,1.940278 0.1972,1.983892 0.1972,1.983893 -0.0573,1.249904 -0.0573,1.249903 -0.25671,0.668373 -0.25671,0.668372 -0.9371,1.416306 -0.9371,1.416306 -1.17443,1.472202 -1.17442,1.472202 -0.8478,0.970434 -0.84779,0.970435 -1.21663,1.311381 -1.21662,1.311381 -1.2925,1.157033 -1.2925,1.157033 -1.10188,0.825606 -1.10188,0.825605 -0.96241,0.572481 -0.96241,0.572481 -0.99901,0.407293 -0.99901,0.407294 -1.19351,0.209823 -1.1935,0.209823 z m -0.33107,-2.150787 1.43282,0.0083 0.80144,-0.170529 0.80143,-0.170529 0.674,-0.233968 0.674,-0.233968 0.9135,-0.475506 0.9135,-0.475506 1.11713,-0.838827 1.11713,-0.838827 1.12157,-0.976351 1.12157,-0.97635 2.05343,-2.098427 2.05343,-2.098427 1.17907,-1.409402 1.17906,-1.409402 0.83839,-1.175926 0.83839,-1.175926 0.47973,-0.881944 0.47974,-0.881944 0.002,-1.599566 0.002,-1.599565 -0.34753,-2.810157 -0.34753,-2.810157 -0.1359,-1.800665 -0.13591,-1.800665 0.0445,-1.197946 0.0445,-1.197946 0.50973,-1.01437 0.50973,-1.01437 0.9494,-1.278685 0.94939,-1.278686 1.24351,-1.277501 1.2435,-1.2775 0.94074,-0.757901 0.94075,-0.7579 1.10808,-0.551636 1.10809,-0.551636 h 1.86923 1.86924 l 0.11185,-0.199582 0.11186,-0.199583 0.32101,-0.381318 0.32101,-0.381319 0.82314,-1.35576 0.82315,-1.355761 0.41158,-0.144253 0.41157,-0.144252 0.67726,-0.186349 0.67726,-0.186349 1.07,-1.045825 1.07,-1.045825 -0.0422,-0.116311 -0.0422,-0.11631 -1.43097,-1.568287 -1.43097,-1.568286 -0.86208,-0.883931 -0.86209,-0.88393 -1.15,-1.026949 -1.15,-1.02695 h -0.27716 -0.27717 l -0.64068,0.79375 -0.64068,0.79375 -0.7134,0.940741 -0.7134,0.940741 -0.57014,0.552362 -0.57014,0.552362 -0.76436,0.341994 -0.76435,0.341994 -0.50556,0.213847 -0.50556,0.213846 -0.36429,0.414904 -0.36429,0.414904 0.0705,1.717505 0.0705,1.717505 -0.16031,0.757536 -0.16031,0.757537 -0.25355,0.586716 -0.25355,0.586716 -0.66532,1.000784 -0.66532,1.000784 -1.30025,1.293519 -1.30025,1.293518 -0.98341,0.70011 -0.9834,0.70011 -0.99718,0.500461 -0.99718,0.500462 -0.88506,0.196906 -0.88505,0.196906 -2.59864,-0.06692 -2.59863,-0.06692 -2.52824,-0.242288 -2.52824,-0.242289 -1.3276,-5.32e-4 -1.3276,-5.33e-4 -0.43629,0.222797 -0.43629,0.222798 -0.76435,0.56059 -0.76435,0.56059 -2.63593,2.068233 -2.63593,2.068233 -1.42102,1.246129 -1.42101,1.24613 -1.2088,1.266282 -1.2088,1.266282 -0.92053,1.226005 -0.92053,1.226005 -0.59258,1.141676 -0.59258,1.141676 -0.29935,0.840835 -0.29934,0.840836 -0.18315,0.965442 -0.18314,0.965441 v 0.971144 0.971143 l 0.17519,1.004604 0.17519,1.004604 0.30723,0.862883 0.30723,0.862882 0.52273,0.999538 0.52274,0.999537 0.75501,1.058333 0.75502,1.058333 0.89774,0.974419 0.89775,0.97442 0.95806,0.804357 0.95806,0.804357 0.99954,0.646975 0.99953,0.646975 0.70556,0.352384 0.70555,0.352384 0.88195,0.320838 0.88194,0.320838 0.99954,0.214743 0.99954,0.214744 z m 1.74218,-9.527595 -0.58797,-0.0057 -0.45231,-0.165874 -0.45231,-0.165873 -0.78241,-0.550512 -0.78241,-0.550511 -2.65437,-2.656116 -2.65436,-2.656116 -0.25605,-0.536896 -0.25605,-0.536895 v -0.379132 -0.379132 l 0.23334,-0.457398 0.23335,-0.457399 0.678,-0.523523 0.66559,-0.550396 2.24542,-2.298164 2.23301,-2.325035 1.04005,-0.803803 1.04005,-0.803802 0.75567,-0.360648 0.75567,-0.360648 0.85136,-0.180548 0.85136,-0.180549 0.68033,0.05876 0.68033,0.05876 0.4074,0.310739 0.4074,0.310738 v 0.274881 0.274882 l -1.4933,1.379377 -1.4933,1.379377 -1.70744,1.485359 -1.70745,1.485359 -1.06199,0.950505 -1.02252,0.965122 -0.0395,0.205212 v 0.219829 l 0.49443,0.347504 0.49444,0.347505 0.5051,-0.415701 0.5051,-0.4157 2.58704,-2.385604 2.58703,-2.385604 1.32349,-1.215377 1.32349,-1.215376 h 0.1501 0.1501 l 0.67248,0.679567 0.67247,0.679567 v 0.127204 0.127204 l -4.29213,4.153315 -4.29213,4.153315 v 0.08783 0.08783 l 0.43837,0.361339 0.43837,0.361339 h 0.20943 l 0.23283,-0.128623 4.10058,-3.869525 4.12396,-3.998148 h 0.15264 0.15264 l 0.25853,0.600965 0.25853,0.600964 0.16548,0.780749 0.16549,0.780748 0.002,0.539876 0.002,0.539875 -0.16032,0.532718 -0.16033,0.532718 -0.39105,0.573703 -0.39105,0.573703 -1.4183,1.420728 -1.4183,1.420729 -1.6463,1.402894 -1.64629,1.402894 -0.53593,0.435184 -0.53592,0.435184 -0.52241,0.23699 -0.52241,0.236991 z m -0.35785,-1.635428 h 0.38493 l 0.29662,-0.233325 0.29663,-0.233325 0.0754,-0.300547 0.0754,-0.300546 -0.22228,-0.502503 -0.22228,-0.502503 -1.22165,-1.215746 -1.22165,-1.215746 -1.2105,-1.011074 -1.21049,-1.011073 -0.58451,-0.335698 -0.5845,-0.335698 -0.28321,0.07108 -0.2832,0.07108 -0.36184,0.304469 -0.36184,0.304469 v 0.377927 0.377926 l 2.14606,2.009622 2.14607,2.009621 0.98093,0.835795 0.98092,0.835795 z m 4.64771,-3.436023 h 0.0674 l 0.67402,-0.654241 0.67298,-0.680079 -0.56293,-0.554464 -0.56293,-0.554465 -0.6974,0.704751 -0.69739,0.704751 0.51995,0.529793 0.52615,0.503954 z m -3.29033,-3.154218 0.17639,-0.09486 0.57875,-0.591937 0.57875,-0.591936 -0.5199,-0.475237 -0.5199,-0.475236 h -0.10628 l -0.10191,0.02777 -0.6625,0.589164 -0.64497,0.63009 -0.0554,0.08491 -0.0423,0.09807 0.33633,0.355548 0.33632,0.355548 0.23519,0.09148 0.23518,0.09148 z m 6.69276,-0.112536 0.0593,-0.0217 0.6576,-0.626372 0.64002,-0.648076 -0.6135,-0.613498 -0.62072,-0.582492 -0.69948,0.668322 -0.68913,0.715864 -0.0176,0.06533 0.0289,0.0705 0.57439,0.491743 0.61779,0.466938 z m -10.41343,-2.709453 0.10108,0.0048 0.78086,-0.758757 0.78086,-0.758758 -0.52425,-0.534761 -0.52425,-0.534761 h -0.11934 -0.11935 l -0.73812,0.731557 -0.73811,0.731556 v 0.105013 l 0.0145,0.09054 0.4853,0.466596 0.49976,0.452126 z m 6.86829,-0.347955 h 0.0441 l 0.63693,-0.558564 0.63693,-0.558565 10e-4,-0.15875 10e-4,-0.15875 -0.41464,-0.414638 -0.4229,-0.385698 -0.62274,0.544448 -0.63102,0.573388 -0.0127,0.17079 -0.0127,0.170791 0.37585,0.387774 0.37585,0.387774 z m -2.51183,-3.636425 0.82816,-0.828156 -0.5155,-0.525257 -0.51551,-0.525257 -0.19021,0.101798 -0.17367,0.121434 -0.63609,0.69268 -0.59371,0.71335 0.47126,0.538266 0.49711,0.539299 z m 30.8627,-13.767278 h 0.43697 l 0.42092,-0.214599 0.42092,-0.214598 0.53421,-0.437742 0.53421,-0.437741 0.43694,-0.634428 0.43695,-0.634428 0.0123,-0.469966 0.0123,-0.469967 -0.28291,-0.301136 -0.2829,-0.301136 h -0.45571 -0.45571 l -0.3255,0.168319 -0.32549,0.168318 -0.64902,0.743024 -0.64903,0.743024 -0.37196,0.517412 -0.37195,0.517412 v 0.319276 0.319276 l 0.24372,0.30984 0.24372,0.30984 z m 4.88191,-4.233333 h 0.2022 l 0.64391,-0.411904 0.64391,-0.411904 0.34997,-0.55186 0.34998,-0.551859 v -0.370326 -0.370326 l -0.23041,-0.208521 -0.23041,-0.208522 -0.52694,-0.05939 -0.52694,-0.05939 -0.2913,0.07311 -0.29129,0.07311 -0.65645,0.599952 -0.65644,0.599953 c 0.007,-0.0021 -0.14672,0.128277 -0.10524,0.362631 -0.0935,0.292326 0.10524,0.432789 0.10524,0.432789 0,0 -0.0464,0.186286 0.42716,0.548771 0.20463,0.344944 0.59086,0.513692 0.59086,0.513692 z m -16.33086,-6.897991 0.35278,-0.06534 0.3653,-0.22166 0.3653,-0.22166 0.53238,-0.569165 0.53239,-0.569165 0.0799,-0.363833 0.0799,-0.363832 -0.1795,-0.347111 -0.17949,-0.347111 -0.19036,-0.07305 -0.19036,-0.07305 h -0.48509 -0.48509 l -0.73064,0.748825 -0.73064,0.748826 -0.14568,0.486243 -0.14568,0.486244 0.13535,0.29707 0.13535,0.297071 0.26554,0.108017 0.26554,0.108018 z m 4.78058,-4.102066 0.34665,-0.201556 c 0,0 0.0304,-0.01654 0.29499,-0.173633 0.19017,-0.124024 0.27017,-0.165364 0.27017,-0.165364 l 0.33995,-0.170381 0.33993,-0.269598 0.37104,-0.422594 0.37104,-0.422593 v -0.366985 -0.366984 l -0.29996,-0.393276 -0.29997,-0.393276 h -0.41027 -0.41028 l -0.44767,0.228385 -0.44767,0.228385 -0.61962,0.677958 -0.61961,0.677958 -0.1306,0.286628 -0.13059,0.286628 c 0,0 -0.0894,0.17165 0.28265,0.659475 0.35554,0.496094 0.87797,0.36182 0.87797,0.36182 z"
       id="path183" /><path
       style="fill:#cd5cef;fill-opacity:1;stroke:#000000;stroke-width:0.675"
       d="m 1990.25,354.74814 c -6.4677,-0.18056 -9.2196,-0.69296 -15,-2.79304 -4.5173,-1.64116 -7.4794,-3.13603 -12.0505,-6.08134 -15.6931,-10.11175 -28.1263,-27.0033 -30.7076,-41.71901 -0.4882,-2.78323 -0.6169,-4.37438 -0.6169,-7.62546 0,-7.46725 1.6298,-13.50746 5.8093,-21.52929 4.5324,-8.69944 12.5284,-18.06547 23.9407,-28.04269 9.0202,-7.88596 29.1033,-23.49545 32.3063,-25.10988 l 1.6812,-0.84743 5.5688,5.6e-4 c 4.4355,4.4e-4 7.4002,0.1758 14.5687,0.86173 7.055,0.67507 11.1346,0.91969 18.8777,1.13193 l 9.8778,0.27075 3.2929,-0.74758 c 2.8652,-0.65047 3.8065,-1.00585 7.2472,-2.73615 5.9172,-2.97567 9.9189,-5.93412 15.8401,-11.71057 4.485,-4.3754 4.9968,-4.97021 7.5049,-8.72078 3.1491,-4.70906 4.4222,-7.50957 5.2404,-11.52734 0.5568,-2.7341 0.564,-2.95914 0.2958,-9.22695 l -0.2748,-6.42449 1.363,-1.55246 c 1.2395,-1.41185 1.6176,-1.66142 4.174,-2.7554 6.0988,-2.60991 6.7269,-2.95853 8.7629,-4.86335 1.0735,-1.00439 3.4029,-3.71908 5.1765,-6.03266 1.7735,-2.31357 4.1577,-5.38399 5.2981,-6.82316 2.9746,-3.75381 2.6745,-3.8052 8.5186,1.45848 2.5052,2.2564 5.9173,5.49078 7.5824,7.1875 4.4577,4.54227 14.0975,15.18842 14.0975,15.56916 0,0.18091 -1.783,2.06659 -3.9622,4.1904 l -3.9623,3.86146 -3.3502,0.93835 c -1.8427,0.51609 -3.7296,1.12672 -4.1932,1.35696 -0.6803,0.33782 -1.4313,1.38705 -3.8914,5.43656 -1.6766,2.75987 -3.6428,5.7323 -4.3694,6.60541 -0.7266,0.87311 -1.4405,1.84941 -1.5863,2.16955 l -0.2653,0.58209 h -7.0876 -7.0877 l -4.1847,2.09596 c -3.7227,1.86454 -4.6125,2.44193 -8.0597,5.22954 -8.6005,6.95492 -17.8961,17.95288 -21.8323,25.83045 l -1.8892,3.78094 -0.1636,4.96906 c -0.2088,6.33971 0.3996,14.40158 2.1397,28.35588 1.2043,9.65829 1.2453,10.19977 1.2433,16.42535 v 6.43782 l -1.7699,3.25 c -4.2829,7.8644 -12.732,18.34825 -24.566,30.48199 -14.7745,15.14871 -24.9262,22.98054 -34.0348,26.25703 -2.2845,0.82176 -9.0776,2.45375 -9.727,2.33682 -0.1502,-0.027 -2.748,-0.11825 -5.773,-0.2027 z m 12.4632,-36.71494 c 2.1266,-1.00941 2.9261,-1.63162 12.0368,-9.36757 6.592,-5.59733 16.1339,-15.0356 18.2386,-18.04063 1.9151,-2.73434 2.8864,-5.54299 2.8864,-8.34646 0,-2.53235 -1.1006,-7.46551 -2.3071,-10.34104 -0.9204,-2.19363 -1.0875,-2.43742 -1.6703,-2.43664 -0.5171,6.9e-4 -3.7933,3.04799 -16.2608,15.125 -13.2767,12.86089 -15.7205,15.12414 -16.3308,15.12414 -0.4955,0 -1.214,-0.40629 -2.321,-1.3125 -0.8818,-0.72188 -1.6048,-1.4391 -1.6067,-1.59383 0,-0.15473 7.3092,-7.35273 16.2467,-15.99556 11.0316,-10.66786 16.25,-15.87767 16.25,-16.22315 0,-0.31272 -0.9895,-1.495 -2.5668,-3.06693 -3.3071,-3.29589 -3.2935,-3.29482 -6.3334,-0.49553 -1.2319,1.13437 -7.8582,7.2375 -14.725,13.5625 -11.9137,10.97359 -15.7477,14.37402 -16.2075,14.37469 -0.1143,1.7e-4 -0.9864,-0.53407 -1.938,-1.18719 -2.5512,-1.75103 -2.5153,-1.85204 2.1457,-6.02875 2.0625,-1.84821 6.7312,-5.95542 10.375,-9.12715 3.6437,-3.17172 9.1844,-8.12981 12.3125,-11.01797 l 5.6875,-5.25121 v -1.1791 c 0,-1.14718 -0.041,-1.21057 -1.5113,-2.34199 -1.5026,-1.15627 -1.5265,-1.16426 -4.1875,-1.40349 -2.5252,-0.22702 -2.8684,-0.19848 -6.0835,0.50603 -4.743,1.03932 -7.7026,2.54481 -12.8195,6.52105 -3.289,2.55581 -5.0123,4.20533 -12.2991,11.77275 -5.9355,6.16416 -9.2443,9.39701 -11.045,10.79178 -2.2926,1.77573 -2.6647,2.17759 -3.4375,3.71218 -1.2685,2.51892 -1.2209,3.92554 0.2329,6.87651 1.0921,2.21694 1.1669,2.29889 11.1875,12.2576 8.6619,8.60847 10.4838,10.29694 12.8881,11.94427 3.7984,2.60258 5.2235,3.12712 8.5381,3.14277 2.4984,0.0118 2.6587,-0.0213 4.625,-0.95458 z"
       id="path184"
       transform="scale(0.26458333)" /><path
       style="fill:#cd5cef;fill-opacity:1;stroke:#000000;stroke-width:0.238649"
       d="m 1991.5922,309.55186 c -2.8488,-2.43717 -5.523,-4.8706 -11.7707,-10.71086 l -8.0843,-7.5572 -0.01,-1.42172 -0.01,-1.42172 1.3432,-1.13422 1.3433,-1.13423 0.9327,-0.25031 c 0.513,-0.13767 1.0093,-0.25034 1.1028,-0.25038 0.094,-5e-5 1.1458,0.56224 2.3383,1.24953 l 2.1684,1.2496 4.7327,3.95988 4.7327,3.95988 4.4505,4.45625 4.4505,4.45625 0.8287,1.87905 0.8288,1.87905 -0.2758,1.10143 -0.2759,1.10143 -1.1054,0.8772 -1.1054,0.8772 -1.4673,-0.006 -1.4673,-0.006 z"
       id="path185"
       transform="scale(0.26458333)" /><path
       style="fill:#cd5cef;fill-opacity:1;stroke:#000000;stroke-width:0.238649"
       d="m 1985.6442,275.49011 c -1.8536,-1.68461 -1.8562,-1.68744 -1.8837,-2.08878 l -0.028,-0.40188 2.7671,-2.76816 2.7671,-2.76815 h 0.4056 0.4057 l 1.979,2.00176 1.9791,2.00176 -2.9145,2.85619 c -2.8477,2.79068 -2.9226,2.85615 -3.2681,2.85516 -0.3348,-9.6e-4 -0.4518,-0.0904 -2.2097,-1.6879 z"
       id="path186"
       transform="scale(0.26458333)" /><path
       style="fill:#cd5cef;fill-opacity:1;stroke:#000000;stroke-width:0.238649"
       d="m 2000.3019,287.82177 -0.8104,-0.3123 -1.2447,-1.31572 c -0.6846,-0.72365 -1.243,-1.36598 -1.241,-1.4274 0.011,-0.32352 0.5223,-0.87277 2.7722,-2.9763 2.3965,-2.2407 2.4767,-2.30608 2.8284,-2.30539 0.3466,6.7e-4 0.4425,0.0743 2.2623,1.73758 1.0452,0.95529 1.9108,1.76184 1.9235,1.79234 0.013,0.0305 -0.9364,1.03959 -2.1092,2.24242 -1.792,1.83784 -2.2331,2.24281 -2.7632,2.53682 -0.347,0.19242 -0.6706,0.3477 -0.7192,0.34506 -0.049,-0.003 -0.4531,-0.14534 -0.8987,-0.31711 z"
       id="path187"
       transform="scale(0.26458333)" /><path
       style="fill:#cd5cef;fill-opacity:1;stroke:#000000;stroke-width:0.238649"
       d="m 1999.3498,263.23272 c -0.9693,-1.05846 -1.7749,-1.96203 -1.7902,-2.00794 -0.015,-0.0459 1.0064,-1.27328 2.2705,-2.7275 2.2069,-2.53877 2.3257,-2.65899 2.9835,-3.01968 l 0.6851,-0.37565 1.9176,1.96005 1.9175,1.96005 -3.0661,3.0715 c -1.6864,1.68932 -3.0863,3.06973 -3.1108,3.06757 -0.025,-0.002 -0.8378,-0.86994 -1.8071,-1.9284 z"
       id="path188"
       transform="scale(0.26458333)" /><path
       style="fill:#cd5cef;fill-opacity:1;stroke:#000000;stroke-width:0.238649"
       d="m 2012.2393,274.37953 -1.4065,-1.48051 0.03,-0.58789 0.03,-0.58789 2.2187,-2.01956 c 1.2202,-1.11077 2.2952,-2.07454 2.3888,-2.14172 0.1572,-0.11285 0.2872,-0.005 1.7075,1.41327 l 1.5373,1.53541 v 0.5512 0.55119 l -2.4228,2.1235 c -1.3325,1.16793 -2.4799,2.1235 -2.5499,2.1235 -0.07,0 -0.7601,-0.66622 -1.5337,-1.4805 z"
       id="path189"
       transform="scale(0.26458333)" /><path
       style="fill:#cd5cef;fill-opacity:1;stroke:#000000;stroke-width:0.238649"
       d="m 2024.6924,285.62002 c -2.0595,-1.64397 -2.2812,-1.84647 -2.3051,-2.10561 -0.025,-0.26963 0.1293,-0.4404 2.5874,-2.86569 1.4376,-1.41844 2.6431,-2.57898 2.6788,-2.57898 0.036,0 1.0786,1.01427 2.3175,2.25393 l 2.2526,2.25392 -2.4294,2.43066 c -1.7261,1.72698 -2.4865,2.43066 -2.6263,2.43066 -0.1233,0 -1.0478,-0.67931 -2.4755,-1.81889 z"
       id="path190"
       transform="scale(0.26458333)" /><path
       style="fill:#cd5cef;fill-opacity:1;stroke:#000000;stroke-width:0.238649"
       d="m 2012.1665,297.87255 -1.9334,-1.94073 1.0683,-1.13077 c 0.5876,-0.62192 1.7575,-1.81683 2.5998,-2.65536 l 1.5315,-1.52459 2.0757,2.07708 2.0757,2.07708 -2.5179,2.51901 c -1.9751,1.97599 -2.5662,2.519 -2.742,2.519 -0.1745,0 -0.6528,-0.4302 -2.1577,-1.94072 z"
       id="path191"
       transform="scale(0.26458333)" /><path
       style="fill:#cd5cef;fill-opacity:1;stroke:#000000;stroke-width:0.238649"
       d="m 2138.1028,193.75551 c -0.2978,-0.189 -0.7552,-0.56884 -1.0164,-0.84409 -0.2612,-0.27526 -0.8155,-0.84614 -1.2318,-1.26863 -0.4164,-0.42248 -0.826,-0.92725 -0.9103,-1.12171 -0.084,-0.19445 -0.1985,-0.4331 -0.2537,-0.53033 -0.3297,-0.58071 -0.3485,-0.67179 -0.2993,-1.45113 0.027,-0.43049 0.098,-0.88983 0.1578,-1.02074 0.1059,-0.2323 4.7617,-4.5632 5.2002,-4.83726 0.1215,-0.076 0.6746,-0.24848 1.229,-0.38338 l 1.0081,-0.24527 1.7762,0.19396 c 0.9769,0.10667 1.8652,0.21285 1.9741,0.23594 0.1089,0.0231 0.5763,0.38558 1.0386,0.80552 l 0.8406,0.76354 -6e-4,1.37842 -7e-4,1.37842 -1.3176,2.07636 -1.3176,2.07635 -2.4521,1.56967 -2.4521,1.56966 -0.7154,-8.4e-4 c -0.6787,-8e-4 -0.7431,-0.0185 -1.257,-0.34446 z"
       id="path192"
       transform="scale(0.26458333)" /><path
       style="fill:#cd5cef;fill-opacity:1;stroke:#000000;stroke-width:0.238649"
       d="m 2118.4138,208.91274 -0.9384,-1.18635 v -1.16102 -1.16102 l 1.3773,-1.91736 c 0.9961,-1.38669 2.0664,-2.70887 3.867,-4.77715 l 2.4897,-2.85978 1.2142,-0.60946 1.2141,-0.60946 h 1.7139 1.7138 l 1.0341,1.10218 1.034,1.10217 -0.029,1.74835 -0.029,1.74835 -1.4515,2.12132 c -0.7983,1.16673 -1.5677,2.27094 -1.7097,2.45381 -0.142,0.18287 -1.1282,1.04404 -2.1914,1.91371 -1.8508,1.51377 -2.0028,1.6174 -3.5646,2.42964 l -1.6314,0.84843 h -1.5876 -1.5876 z"
       id="path193"
       transform="scale(0.26458333)" /><path
       style="fill:#cd5cef;fill-opacity:1;stroke:#000000;stroke-width:0.238649"
       d="m 2075.3584,167.83877 c -0.4861,-0.19544 -0.9264,-0.40226 -0.9784,-0.45959 -0.052,-0.0573 -0.3041,-0.56602 -0.5603,-1.13044 l -0.4657,-1.0262 0.5384,-1.79617 0.5385,-1.79616 0.6842,-0.71316 c 0.3763,-0.39225 1.6263,-1.67771 2.7779,-2.85659 l 2.0936,-2.14342 1.7518,-8.3e-4 c 1.7476,-8.3e-4 1.7535,-1.8e-4 2.5062,0.27781 l 0.7544,0.27863 0.6681,1.31036 0.6681,1.31036 -0.2947,1.33857 -0.2948,1.33857 -0.509,0.54627 c -0.28,0.30045 -1.1839,1.26921 -2.0086,2.15281 l -1.4994,1.60655 -1.3732,0.83452 -1.3732,0.83451 -1.2017,0.22893 c -0.6609,0.12591 -1.2774,0.22692 -1.37,0.22447 -0.093,-0.002 -0.5661,-0.16436 -1.0522,-0.3598 z"
       id="path194"
       transform="scale(0.26458333)" /><path
       style="fill:#cd5cef;fill-opacity:1;stroke:#000000;stroke-width:0.238649"
       d="m 2093.257,152.70152 c -0.6338,-0.1422 -1.1151,-0.39875 -1.5625,-0.833 -0.718,-0.69674 -1.5285,-2.09367 -1.5302,-2.6372 -5e-4,-0.1529 0.2274,-0.77212 0.5074,-1.37861 l 0.5082,-1.10103 2.2981,-2.52616 2.2981,-2.52616 1.7381,-0.89031 1.7382,-0.8903 h 1.497 1.497 l 1.118,1.4706 1.118,1.4706 v 1.39164 1.39163 l -1.3682,1.54998 c -1.5522,1.75853 -2.3288,2.43772 -3.4057,2.97873 -0.4127,0.20734 -0.9493,0.5037 -1.1924,0.65858 -1.596,1.01696 -2.7974,1.64443 -3.3739,1.76208 -0.9879,0.20163 -1.3728,0.22387 -1.8852,0.10893 z"
       id="path195"
       transform="scale(0.26458333)" /></g></svg>
