<?xml version="1.0" encoding="UTF-8" standalone="no"?>
<!-- Created with Inkscape (http://www.inkscape.org/) -->

<svg
   width="75.672211mm"
   height="78.995438mm"
   viewBox="0 0 75.672211 78.995438"
   version="1.1"
   id="svg1"
   xml:space="preserve"
   xmlns="http://www.w3.org/2000/svg"
   xmlns:svg="http://www.w3.org/2000/svg"><defs
     id="defs1" /><g
     id="layer1"
     transform="translate(-441.44945,-91.081877)"><path
       style="fill:#000000"
       d="m 477.37978,169.79587 c -5.1029,-1.18486 -9.79041,-3.19969 -13.02739,-5.59958 -1.59889,-1.18542 -3.35704,-3.03415 -3.86313,-4.06217 -0.33554,-0.68158 -0.3956,-0.92927 -0.3956,-1.63166 0,-1.42548 0.60354,-2.38121 2.62255,-4.15295 0.95289,-0.83619 0.95135,-0.83097 0.65085,-2.19852 -0.24393,-1.11012 -0.56469,-1.45436 -1.79652,-1.92806 -3.09552,-1.19037 -6.17276,-1.08692 -9.0616,0.30464 -0.96629,0.46546 -1.26796,0.68955 -2.23425,1.65968 -1.23477,1.23969 -1.65151,1.47841 -2.9261,1.67617 -2.04595,0.31744 -3.81418,-0.50522 -4.4938,-2.0907 -1.329,-3.10044 -1.88029,-13.23834 -0.92369,-16.98633 1.08127,-4.23646 4.40223,-9.71791 8.079,-13.33485 0.66293,-0.65214 1.20532,-1.24571 1.20532,-1.31905 0,-0.17994 -0.26458,-0.2999 -1.20871,-0.54803 -2.44606,-0.64283 -4.09951,-3.00636 -4.12255,-5.893 -0.007,-0.82658 0.0334,-1.0188 0.30984,-1.49058 0.45993,-0.78481 1.30403,-1.1775 2.67162,-1.24289 1.21015,-0.0579 2.03543,0.14253 3.16119,0.76758 1.25557,0.69711 3.37313,2.90275 3.95567,4.12018 0.10216,0.2135 0.27268,0.38218 0.38637,0.38218 0.32702,0 0.7262,-0.34425 0.7262,-0.62627 0,-0.15118 -0.45079,-0.8257 -1.07614,-1.61023 -2.56078,-3.21264 -5.07425,-7.59578 -6.03318,-10.52104 -1.4384,-4.387897 -1.47712,-8.93681 -0.0885,-10.39642 1.07052,-1.125243 3.2204,-1.08096 6.78624,0.139784 2.0701,0.708687 6.70982,2.823593 7.9737,3.634626 0.67467,0.432932 0.83136,0.740802 1.3745,2.700618 0.44093,1.591012 0.75105,2.332632 0.97544,2.332632 0.24887,0 1.31395,-1.17786 2.55199,-2.822223 1.26013,-1.673714 4.17816,-4.662695 5.53614,-5.670759 0.74405,-0.552332 1.80461,-1.184106 3.63684,-2.166469 0.4747,-0.254512 0.75745,-0.192134 1.95738,0.431828 2.16435,1.12546 4.09187,2.631491 6.30229,4.924175 1.6602,1.721984 3.11468,3.453358 3.83312,4.562868 0.32148,0.49646 0.6214,0.83708 0.7248,0.82315 0.26386,-0.0356 0.62975,-0.88941 1.18696,-2.769954 0.27506,-0.928315 0.58354,-1.783712 0.68551,-1.900882 0.26874,-0.3088 5.97186,-3.168859 7.4844,-3.753356 2.11744,-0.818245 3.78805,-1.210806 5.22461,-1.227676 1.08074,-0.01269 1.3057,0.02044 1.80386,0.265689 1.04652,0.515214 1.4818,1.409853 1.73167,3.559142 0.33417,2.874407 -0.49447,6.520687 -2.36104,10.389377 -1.21313,2.51433 -3.39864,5.92875 -5.12077,8.00017 -0.85262,1.02554 -0.94096,1.36147 -0.41531,1.5792 0.49662,0.20571 0.74417,0.0239 1.31774,-0.9677 1.0254,-1.77275 3.01226,-3.3724 4.86654,-3.91814 0.96771,-0.28481 2.53522,-0.29039 3.25771,-0.0116 1.54552,0.59637 1.94478,2.5005 1.03447,4.93351 -0.66582,1.77956 -1.78436,2.83825 -3.58913,3.39707 -1.34799,0.41739 -1.47084,0.58202 -0.81262,1.08893 2.7322,2.10413 7.06844,8.71614 8.45083,12.88605 0.71774,2.16501 0.82153,3.03619 0.82652,6.93796 0.007,5.53688 -0.6425,10.23278 -1.65549,11.96768 -0.59707,1.02257 -1.83627,1.49211 -3.73517,1.41526 -1.62929,-0.0659 -2.00756,-0.2543 -3.4481,-1.7171 -0.94748,-0.96212 -1.31296,-1.24669 -2.05721,-1.60179 -3.08849,-1.47357 -7.65532,-1.48068 -9.84786,-0.0153 -0.62271,0.41618 -1.28986,1.59647 -1.38637,2.45267 -0.0567,0.5027 -0.0421,0.53024 0.51363,0.97397 1.08304,0.86471 2.03165,1.94141 2.45368,2.78501 0.36391,0.72741 0.41131,0.92717 0.41131,1.73348 0,0.83449 -0.0414,0.99399 -0.49073,1.89178 -1.34356,2.68435 -5.77568,5.77135 -11.20973,7.80765 -2.66704,0.99941 -6.33558,1.94672 -7.48129,1.93184 -0.34793,-0.005 -1.16177,-0.13108 -1.80852,-0.28125 z m -0.95591,-9.22755 c 1.5e-4,0.0148 0.0344,-2.35927 -0.0146,-2.57416 l -0.0101,-0.39656 -1.95986,-0.61566 c -2.12259,-0.66678 -3.08951,-1.15639 -4.65273,-2.18286 -0.59163,-0.38849 -1.12042,-0.70634 -1.17507,-0.70634 -0.0547,0 -0.43548,0.122 -0.84628,0.27111 -1.17497,0.42649 -2.32077,1.12353 -3.06055,1.86187 -2.37294,2.3683 -1.14784,4.86826 3.52987,7.20307 2.38234,1.18911 6.61228,2.61174 7.87254,2.64772 l 0.37372,0.0107 z m 7.83507,5.05511 c 4.40949,-1.11649 7.34933,-2.51031 9.20168,-4.36267 2.10092,-2.10092 1.86858,-4.15734 -0.66085,-5.84913 -0.88372,-0.59107 -2.46755,-1.31889 -2.87007,-1.31889 -0.12387,0 -0.66995,0.3218 -1.2135,0.7151 -1.50914,1.09199 -3.21396,1.83828 -5.71723,2.50273 l -1.03308,0.27421 -0.0309,4.2512 -0.0309,4.25121 0.26605,-0.001 c 0.14632,-6.2e-4 1.08626,-0.2088 2.08873,-0.46263 z m -0.66426,-11.54067 c 0.70299,-0.18766 2.20142,-0.8977 2.51386,-1.19122 0.34527,-0.32437 0.33833,-0.71781 -0.0348,-1.9738 -0.263,-0.88524 -0.29718,-1.21468 -0.29884,-2.88102 -0.004,-4.21727 1.03946,-9.27333 2.56087,-12.40602 0.91302,-1.87997 2.40129,-3.13964 4.17128,-3.53056 0.89823,-0.19838 2.34264,-0.0933 3.19186,0.23232 0.88945,0.34099 1.97268,1.33684 2.37178,2.18047 0.62423,1.31951 0.61775,3.02924 -0.0159,4.19346 -0.84326,1.54935 -2.74955,2.21204 -6.47999,2.25265 -1.66256,0.0181 -2.05284,0.0543 -2.14298,0.19852 -0.13243,0.21193 -0.65448,2.45886 -0.81964,3.52777 -0.16847,1.09029 -0.14503,3.12888 0.0442,3.83938 0.2129,0.7996 0.74093,1.75406 1.17023,2.11529 0.42876,0.36078 1.31028,0.81105 1.79125,0.91494 0.34114,0.0737 0.36996,0.0519 0.49838,-0.37671 0.32817,-1.09533 1.6348,-2.6132 3.00287,-3.48835 0.79589,-0.50912 2.1097,-1.04881 3.34531,-1.37419 1.17337,-0.30899 3.67934,-0.42429 4.90929,-0.22588 2.30905,0.37249 4.40141,1.44687 6.60238,3.39017 1.2037,1.0628 1.62129,1.32017 2.14195,1.32017 0.51245,0 0.77766,-0.35889 1.07316,-1.45226 0.68422,-2.53159 0.99001,-5.7098 0.89996,-9.35347 -0.0722,-2.9212 -0.1847,-3.67413 -0.84487,-5.65474 -1.80969,-5.42931 -6.18686,-10.99528 -11.38799,-14.48089 -1.71608,-1.15005 -4.19967,-2.3907 -5.84423,-2.91942 l -1.23892,-0.39831 2.54002,-2.53782 c 3.47409,-3.47108 5.18864,-5.56556 6.65994,-8.13572 1.55842,-2.72233 2.29114,-5.29765 2.46398,-8.660197 l 0.0801,-1.558101 h -0.59256 c -0.82149,0 -2.33027,0.301625 -3.6035,0.720388 -1.2139,0.399251 -5.05581,2.246969 -5.78944,2.784358 -0.58324,0.427223 -1.19595,1.627622 -2.22857,4.366102 -0.48199,1.27823 -0.94705,2.24989 -1.57285,3.28623 -0.48869,0.80927 -0.94144,1.48723 -1.00612,1.50659 -0.0647,0.0194 -0.42559,-0.57319 -0.80203,-1.31677 -1.37221,-2.71054 -4.0952,-6.40004 -6.48436,-8.785946 -1.25824,-1.256528 -2.23763,-2.023811 -2.43085,-1.904398 -0.10775,0.0666 -0.14686,57.937834 -0.0392,58.045474 0.0679,0.0679 0.84762,-0.061 1.62507,-0.26849 z m -7.09685,-28.74141 c 0,-15.94261 -0.11278,-28.884061 -0.16128,-28.883819 -0.43919,0.0022 -2.34497,1.80963 -4.13023,3.954189 -2.20945,2.65413 -3.64749,4.70744 -4.60114,6.56974 l -0.71995,1.40595 -0.42503,-0.57766 c -0.6606,-0.89783 -1.41486,-2.43131 -2.25949,-4.59371 -1.47354,-3.772529 -1.73086,-4.085286 -4.4421,-5.399086 -2.71393,-1.315106 -5.50122,-2.167732 -7.08647,-2.167732 h -0.66985 l 0.0709,1.568909 c 0.2699,5.971209 3.2973,11.250049 10.32024,17.995279 l 1.45361,1.39613 -0.99476,0.28638 c -6.28503,1.80937 -12.59407,7.37433 -16.04047,14.14867 -1.78594,3.5105 -2.5394,7.20306 -2.37546,11.64167 0.0828,2.24048 0.29304,3.79715 0.79895,5.91418 0.66104,2.76626 1.25368,2.88047 3.64113,0.70175 1.53606,-1.40178 3.41048,-2.41347 5.55191,-2.99657 0.81494,-0.2219 1.26646,-0.2623 2.96067,-0.2649 1.72794,-0.003 2.13357,0.0337 2.99075,0.2679 1.78691,0.48827 3.5983,1.48054 4.61476,2.52792 0.256,0.26379 0.73335,0.97657 1.06078,1.58396 0.32743,0.60738 0.66982,1.13291 0.76085,1.16785 0.34021,0.13055 1.27674,-0.362 1.93081,-1.01546 1.46187,-1.4605 1.72332,-3.78437 0.85923,-7.63707 -0.4654,-2.07505 -0.16783,-1.84574 -2.51898,-1.94119 -3.09063,-0.12546 -4.57312,-0.4648 -5.66163,-1.29594 -1.78094,-1.35985 -1.73493,-4.73511 0.0874,-6.41491 1.51398,-1.39554 3.95088,-1.71416 5.84424,-0.76413 2.14369,1.07565 3.31928,3.18635 4.549,8.16753 0.7915,3.20609 0.88308,3.89942 0.88534,6.70278 0.002,2.40612 -0.0142,2.59063 -0.33446,3.81988 l -0.3365,1.29164 0.45409,0.39512 c 0.24975,0.21731 0.71137,0.52632 1.02583,0.68669 0.62042,0.31641 2.05478,0.72777 2.57386,0.73816 l 0.32338,0.006 z m -23.8419,-8.13057 c 0.55375,-0.0915 0.5743,-0.33499 0.0983,-1.16481 -0.64398,-1.12272 -1.92623,-1.989 -3.06754,-2.07242 l -0.52917,-0.0387 0.0279,0.64242 c 0.0797,1.83805 1.54697,2.95144 3.47052,2.63349 z m 54.76875,-0.0513 c 1.13231,-0.25891 1.79549,-1.09244 1.94859,-2.44913 l 0.085,-0.75319 -0.64901,0.067 c -1.46093,0.15078 -3.08284,1.49347 -3.33658,2.76218 -0.0689,0.34477 -0.0507,0.36819 0.3221,0.41385 0.73379,0.0899 1.09871,0.0807 1.62991,-0.0407 z"
       id="path79" /><path
       style="fill:#bbd130;fill-opacity:1;stroke:#000000;stroke-width:0.954594"
       d="m 1795.0635,582.10497 c -1.6127,-0.47681 -3.7606,-1.28618 -4.773,-1.7986 -1.8966,-0.95998 -5.553,-3.64053 -5.553,-4.07099 0,-0.1335 0.5149,-2.28343 1.1443,-4.77763 l 1.1443,-4.53489 -0.018,-9.54594 c -0.021,-11.14389 -0.336,-13.74833 -2.9596,-24.43649 -4.6425,-18.91305 -8.8098,-27.04224 -16.1052,-31.41621 -3.2793,-1.96611 -6.1237,-2.73219 -10.253,-2.76138 -9.8912,-0.0699 -17.1931,5.80459 -18.6082,14.97058 -1.1197,7.2522 1.9196,13.44889 7.9892,16.28923 3.9836,1.86416 7.2874,2.34009 22.7316,3.27462 3.429,0.20749 3.5005,0.31798 5.0568,7.81619 3.0176,14.53879 1.9338,22.71546 -3.7194,28.06209 -2.0488,1.93766 -5.1653,3.68062 -6.282,3.51331 -0.5059,-0.0758 -1.466,-1.35186 -3.1413,-4.17501 -3.0777,-5.18662 -4.9211,-7.27281 -8.5402,-9.66523 -3.635,-2.40297 -6.3123,-3.74673 -10.159,-5.09894 -4.817,-1.69328 -7.0714,-1.9473 -15.7331,-1.77279 -7.2056,0.14516 -8.0124,0.22764 -10.9602,1.12037 -4.4041,1.33381 -9.208,3.49392 -12.8373,5.77246 -2.8265,1.77454 -4.2671,2.88879 -9.8862,7.64665 -1.8984,1.60742 -5.0421,3.40047 -5.9756,3.40824 -0.9352,0.008 -2.5892,-1.8964 -3.3111,-3.81192 -2.0022,-5.31254 -3.7158,-15.39314 -4.2605,-25.06193 -1.3887,-24.64937 5.2253,-44.65243 21.5476,-65.1679 3.6228,-4.5535 13.1848,-14.09721 17.7283,-17.69434 8.9051,-7.05024 18.6239,-12.39946 28.2564,-15.55239 l 5.7244,-1.8737 -8.6227,-8.69112 c -11.9097,-12.00403 -16.6723,-17.59247 -22.5803,-26.49552 -8.7373,-13.16662 -13.3844,-27.35716 -13.3844,-40.87153 v -3.01914 h 2.1542 c 6.0267,0 17.6038,3.68216 28.0746,8.92935 8.6103,4.31478 9.771,5.76997 15.0159,18.82459 1.4063,3.50018 3.4137,8.17282 4.461,10.38365 1.8045,3.80952 5.5665,9.95068 6.0898,9.94134 0.1335,-0.002 1.0382,-1.55182 2.0105,-3.4432 4.5836,-8.91642 9.9802,-16.67091 19.2534,-27.66517 4.1979,-4.97707 10.4852,-11.40513 12.7842,-13.07052 1.3897,-1.0067 1.5511,-1.04938 1.7794,-0.47064 0.1382,0.35005 0.2624,49.51964 0.2761,109.26574 l 0.025,108.62928 -1.3258,-0.0188 c -0.7292,-0.0104 -2.6453,-0.40893 -4.2581,-0.88575 z"
       id="path80"
       transform="scale(0.26458333)" /><path
       style="fill:#bbd130;fill-opacity:1;stroke:#000000;stroke-width:0.954594"
       d="m 1821.6776,576.05916 c -0.3214,-8.99884 -0.05,-211.43074 0.2842,-211.76461 0.4322,-0.43221 3.1863,1.73817 7.4546,5.87446 9.1745,8.89099 18.6317,21.19591 24.4567,31.82119 3.3036,6.02608 4.1751,7.42462 4.6265,7.42462 0.5023,0 4.4271,-6.14876 6.3329,-9.9213 0.7307,-1.44641 2.793,-6.24101 4.5829,-10.65467 3.7113,-9.1516 5.5746,-12.56474 7.6999,-14.10429 3.1042,-2.24869 18.3125,-9.34494 23.3117,-10.87733 3.4275,-1.05061 9.5379,-2.17211 11.8345,-2.17211 h 1.9767 l -0.2407,4.33103 c -0.6927,12.46544 -2.6776,20.58799 -7.3174,29.94517 -5.525,11.14228 -11.9399,19.2533 -28.7452,36.34552 -4.4526,4.52864 -8.0324,8.28177 -7.955,8.3403 0.077,0.0585 0.8567,0.30958 1.7317,0.55788 5.5746,1.58183 15.396,6.09529 21.869,10.04991 11.8631,7.24772 24.4177,19.24002 33.1851,31.699 7.5306,10.70126 13.2854,23.42619 15.1825,33.57126 0.7415,3.96513 1.069,22.37384 0.5157,28.98444 -0.7612,9.09454 -2.6937,19.17935 -4.2655,22.26033 -1.6524,3.23898 -4.1496,2.51755 -10.8021,-3.12059 -12.3207,-10.44209 -22.0152,-13.91545 -35.8035,-12.82765 -10.7548,0.84847 -19.2684,4.31028 -25.3998,10.32817 -2.9481,2.89343 -5.2012,6.02669 -6.1878,8.60465 -0.5069,1.32465 -0.9651,2.00195 -1.3544,2.00195 -1.083,0 -6.2756,-2.74297 -7.4862,-3.95458 -1.5358,-1.53709 -3.3234,-4.89979 -4.0139,-7.55059 -0.74,-2.84099 -0.7234,-11.35146 0.031,-15.74453 0.8538,-4.974 2.4629,-11.29212 3.017,-11.84616 0.3649,-0.36499 2.5805,-0.57721 8.7909,-0.84204 9.3068,-0.39687 13.4815,-1.0773 17.1541,-2.79594 2.8981,-1.35616 5.5627,-3.85061 6.7148,-6.28598 2.0471,-4.3272 1.9655,-10.65891 -0.1968,-15.28219 -2.0277,-4.33514 -7.2329,-8.3511 -11.9703,-9.23523 -2.4498,-0.4572 -7.893,-0.4426 -9.9396,0.0267 -4.765,1.09258 -10.4498,5.36241 -13.4372,10.0927 -3.4082,5.39649 -6.7724,15.14717 -9.0114,26.11799 -1.4893,7.29789 -2.0081,12.40702 -2.1982,21.64787 l -0.1907,9.2735 1.1386,4.44581 c 1.2113,4.72984 1.1999,5.69276 -0.082,6.90265 -1.8935,1.78744 -9.1982,4.67776 -13.7451,5.43867 l -1.2866,0.21531 z"
       id="path81"
       transform="scale(0.26458333)" /><path
       style="fill:#bbd130;fill-opacity:1;stroke:#000000;stroke-width:0.954594"
       d="m 1821.5071,621.29593 c 0,-3.49344 0.105,-10.66934 0.2333,-15.94645 l 0.2334,-9.59475 1.9763,-0.54984 c 11.2186,-3.12112 16.3708,-5.31848 23.4885,-10.01747 2.1089,-1.39229 4.1248,-2.53143 4.4798,-2.53143 0.9706,0 5.842,2.13898 8.7707,3.85115 3.5271,2.06196 7.218,5.60671 8.4499,8.11525 4.839,9.85367 -8.1612,21.91413 -31.2552,28.99608 -4.7243,1.44874 -12.2873,3.37524 -14.8744,3.78893 l -1.5023,0.24024 z"
       id="path82"
       transform="scale(0.26458333)" /><path
       style="fill:#bbd130;fill-opacity:1;stroke:#000000;stroke-width:0.954594"
       d="m 1797.6422,627.31805 c -11.8011,-2.6234 -26.886,-8.63374 -35.0946,-13.98284 -3.4822,-2.26915 -8.1784,-6.96503 -9.2899,-9.28924 -3.1417,-6.56941 0.9035,-13.5289 10.8149,-18.60641 1.7686,-0.90603 4.0888,-1.92256 5.1559,-2.25895 l 1.9403,-0.61162 4.3771,2.73912 c 6.3234,3.95709 10.6275,5.94296 18.0727,8.33857 l 6.5829,2.11817 0.223,1.62664 c 0.1226,0.89465 0.2229,8.04795 0.2229,15.89621 v 14.26957 l -1.149,-0.041 c -0.632,-0.0226 -1.4673,-0.11174 -1.8562,-0.1982 z"
       id="path83"
       transform="scale(0.26458333)" /><path
       style="fill:#bbd130;fill-opacity:1;stroke:#000000;stroke-width:0.16875"
       d="m 1707.5312,443.15128 c -2.4436,-0.23785 -4.3213,-0.92823 -5.9375,-2.18311 -0.6891,-0.53506 -1.5645,-1.46795 -2.0287,-2.16195 -1.2019,-1.79696 -1.7358,-3.61468 -1.843,-6.27497 -0.021,-0.51563 -0.053,-1.14955 -0.073,-1.40872 l -0.035,-0.47121 0.646,0.0472 c 1.5347,0.11209 2.1889,0.18985 2.8574,0.33962 3.7419,0.8383 7.5687,3.6256 9.7559,7.10586 0.8807,1.40135 1.5639,2.94737 1.5639,3.53912 0,0.78994 -0.5251,1.13098 -2.074,1.34701 -0.6974,0.0973 -2.351,0.16802 -2.8323,0.12117 z"
       id="path84"
       transform="scale(0.26458333)" /><path
       style="fill:#bbd130;fill-opacity:1;stroke:#000000;stroke-width:0.238649"
       d="m 1913.7845,443.12183 c -0.9984,-0.0668 -2.8093,-0.29333 -3.0374,-0.38002 -0.3178,-0.12085 -0.4055,-0.39471 -0.3133,-0.97849 0.4696,-2.97175 2.9966,-6.24856 6.5731,-8.52351 1.3457,-0.85595 3.3835,-1.71334 4.8209,-2.02831 0.9718,-0.21293 3.6241,-0.48151 3.6234,-0.36691 0,0.34774 -0.3871,3.2703 -0.5329,4.04621 -0.212,1.12808 -0.6858,2.54327 -1.1177,3.33863 -1.4618,2.69171 -3.6431,4.16195 -7.0074,4.7231 -0.8353,0.13934 -2.2588,0.21943 -3.0087,0.1693 z"
       id="path85"
       transform="scale(0.26458333)" /></g></svg>
