<?xml version="1.0" encoding="UTF-8" standalone="no"?>
<!-- Created with Inkscape (http://www.inkscape.org/) -->

<svg
   width="71.758667mm"
   height="69.647972mm"
   viewBox="0 0 71.758667 69.647972"
   version="1.1"
   id="svg1"
   xml:space="preserve"
   xmlns="http://www.w3.org/2000/svg"
   xmlns:svg="http://www.w3.org/2000/svg"><defs
     id="defs1" /><g
     id="layer1"
     transform="translate(-568.40663,-72.213254)"><path
       style="fill:#000000"
       d="m 602.27293,141.84171 -0.14005,-0.004 -1.00091,-0.39196 -1.00091,-0.39197 -1.0756,-0.5402 -1.07561,-0.5402 -0.99925,-0.59022 -0.99926,-0.59021 -1.21186,-0.90189 -1.21185,-0.9019 -1.1655,-1.12855 -1.1655,-1.12854 -0.67426,-0.82315 -0.67426,-0.82315 -0.73474,-1.11713 -0.73475,-1.11713 -0.56074,-1.11713 -0.56075,-1.11713 -0.42332,-1.13309 -0.42332,-1.13309 -0.30171,-1.15996 -0.3017,-1.15997 -0.24016,-1.41111 -0.24016,-1.41111 -0.065,-2.59974 -0.065,-2.59973 0.11775,-0.0728 0.11776,-0.0728 1.16215,-0.18234 1.16216,-0.18235 0.32806,-0.13056 0.32806,-0.13056 0.16612,-0.23716 0.16611,-0.23716 -0.10673,-0.19941 -0.10672,-0.19942 -1.62218,-0.73981 -1.62217,-0.7398 -1.5875,-0.80935 -1.5875,-0.80935 -1.82268,-1.29942 -1.82269,-1.29943 -0.3341,-0.17618 -0.3341,-0.17618 -0.4856,0.33194 -0.48561,0.33194 -2.53168,1.89341 -2.53169,1.8934 -1.35231,1.20493 -1.35232,1.20493 -0.34134,0.24446 -0.34135,0.24446 0.0834,-0.34418 0.0834,-0.34419 0.80625,-1.64629 0.80626,-1.6463 0.84342,-1.41111 0.84343,-1.41111 0.83497,-1.17593 0.83496,-1.17592 0.88517,-1.10667 0.88517,-1.10666 1.07541,-1.18639 1.07541,-1.18639 1.16322,-1.11914 1.16322,-1.119142 1.17593,-1.011121 1.17592,-1.011121 1.71435,-1.29397 1.71435,-1.293969 1.78403,-1.193161 1.78403,-1.193161 V 92.305067 91.92154 l -0.18353,-0.262022 -0.18352,-0.262022 -0.37504,-0.201478 -0.37504,-0.201479 -0.99954,0.0035 -0.99953,0.0035 -0.30825,0.07949 -0.30825,0.07949 -0.0726,-0.439414 -0.0726,-0.439414 -3.3e-4,-1.058334 -3.2e-4,-1.058333 0.11887,-1.058333 0.11887,-1.058334 0.23868,-0.930359 0.23868,-0.93036 0.40763,-0.83596 0.40763,-0.835961 0.7906,-1.055902 0.79059,-1.055902 1.29488,-1.294554 1.29488,-1.294553 1.29351,-1.037807 1.29352,-1.037808 1.11713,-0.745131 1.11713,-0.74513 0.88195,-0.473234 0.88194,-0.473234 1.56747,-0.544605 1.56746,-0.544605 0.1697,0.06512 0.16969,0.06512 0.0609,0.158745 0.0609,0.158744 -0.65055,1.036208 -0.65055,1.036208 -0.69551,1.365354 -0.6955,1.365353 -0.43881,1.058334 -0.43881,1.058333 -0.34237,0.999537 -0.34237,0.999537 -0.35374,1.411111 -0.35374,1.411111 -0.0692,1.379244 -0.0692,1.379244 -0.20607,0.0654 -0.20606,0.0654 -0.4862,0.352197 -0.48619,0.352197 -0.23085,0.378619 -0.23086,0.37862 -4.4e-4,0.489553 -4.4e-4,0.489553 1.85209,-0.857962 1.85208,-0.857963 1.65455,-0.654914 1.65456,-0.654915 1.05007,-0.319071 1.05008,-0.319071 1.05833,8.63e-4 1.05834,8.64e-4 1.46258,0.502053 1.46259,0.502053 1.5317,0.644875 1.53171,0.644875 1.46253,0.694372 1.46253,0.694372 h 0.0564 0.0564 l -0.0611,-0.542442 -0.0611,-0.542442 -0.33933,-0.482808 -0.33933,-0.482807 -0.59562,-0.297667 -0.59561,-0.297667 -0.0645,-1.528704 -0.0645,-1.528704 -0.30742,-1.149462 -0.30743,-1.149461 -0.53591,-1.496372 -0.5359,-1.496371 -1.04131,-2.116667 -1.04131,-2.116667 -0.58651,-0.940309 -0.5865,-0.940309 0.11037,-0.206219 0.11036,-0.206218 h 0.1877 0.18769 l 1.07229,0.365484 1.07229,0.365484 1.29744,0.613767 1.29743,0.613767 1.13375,0.712574 1.13375,0.712575 0.89403,0.672868 0.89403,0.672869 1.11391,0.991745 1.1139,0.991744 v -0.658749 -0.658749 l 0.11602,0.0717 0.11601,0.0717 0.87712,1.317086 0.87712,1.317085 0.53468,1.128733 0.53469,1.128734 0.4053,1.237264 0.40529,1.237264 0.23147,1.220442 0.23147,1.220443 0.0702,1.058333 0.0702,1.058334 -0.0887,0.646759 -0.0887,0.646759 -1.29352,0.0034 -1.29352,0.0034 -0.32332,0.140675 -0.32333,0.140675 -0.2348,0.385107 -0.2348,0.385107 0.005,0.352778 0.005,0.352778 1.96129,1.352315 1.96128,1.352314 1.48879,1.11713 1.48879,1.11713 1.40726,1.202191 1.40727,1.202196 1.75784,1.80644 1.75784,1.80645 1.11767,1.40108 1.11767,1.40109 0.71355,0.99953 0.71354,0.99954 0.75812,1.23472 0.75813,1.23473 0.51026,0.9306 0.51027,0.9306 0.56461,1.23954 0.56462,1.23954 -0.0443,0.0443 -0.0443,0.0443 -4.59377,-3.53734 -4.59377,-3.53734 h -0.14678 -0.14678 l -2.19486,1.47949 -2.19486,1.4795 -3.15819,1.60731 -3.1582,1.60731 v 0.29398 0.29399 l 0.41158,0.20133 0.41157,0.20133 1.22853,0.18445 1.22852,0.18444 0.065,0.0654 0.065,0.0655 -0.006,2.31219 -0.006,2.3122 -0.14433,1.05833 -0.14432,1.05833 -0.2443,1.23473 -0.2443,1.23472 -0.40266,1.23472 -0.40266,1.23472 -0.70112,1.45279 -0.70113,1.45279 -0.74345,1.13425 -0.74344,1.13425 -0.88834,1.05833 -0.88833,1.05833 -0.89025,0.84561 -0.89026,0.84561 -0.91829,0.73192 -0.91829,0.73192 -1.19999,0.79282 -1.2,0.79281 -1.09306,0.58831 -1.09306,0.58831 -1.14911,0.48849 -1.14911,0.48849 -0.30257,-0.037 -0.30256,-0.037 0.84551,-1.64629 0.8455,-1.6463 0.53198,-1.23472 0.53198,-1.23472 0.6813,-2.05787 0.6813,-2.05787 0.31391,-1.40964 0.31392,-1.40963 0.25079,-1.58898 0.2508,-1.58898 -0.028,-3.175 -0.028,-3.175 -0.0267,-0.70299 -0.0267,-0.70299 0.57722,-0.37859 0.57723,-0.37859 0.0971,-0.15314 0.0971,-0.15314 0.002,-1.06526 0.002,-1.06525 -0.14699,-0.18885 -0.14699,-0.18885 -0.64676,-0.12847 -0.64676,-0.12847 -1.64629,-0.23805 -1.6463,-0.23805 -2.23426,-0.0708 -2.23426,-0.0708 -1.4699,0.1388 -1.46991,0.1388 -1.5287,0.23789 -1.52871,0.23789 -0.42502,0.10967 -0.42502,0.10966 -0.0747,0.54534 -0.0747,0.54534 v 0.61449 0.61449 l 0.22778,0.28956 0.22777,0.28957 0.51236,0.27181 0.51235,0.2718 -0.10119,0.8362 -0.1012,0.8362 -0.006,2.58704 -0.006,2.58703 0.19263,1.5927 0.19262,1.59269 0.34036,1.6543 0.34035,1.6543 0.42783,1.44446 0.42782,1.44446 0.69748,1.77614 0.69748,1.77614 0.94252,1.86399 0.94251,1.86399 -0.0653,0.10568 -0.0653,0.10569 z m -3.22426,-3.28824 h 0.11076 l -0.0681,-0.14699 -0.0681,-0.14699 -0.64122,-1.5875 -0.64123,-1.5875 -0.52628,-1.82269 -0.52629,-1.82268 -0.24272,-1.17863 -0.24271,-1.17863 -0.17295,-1.17322 -0.17295,-1.17323 -0.13376,-1.5875 -0.13376,-1.5875 0.0351,-2.26372 0.0351,-2.26373 -0.71529,-0.6913 -0.71529,-0.69129 -0.0801,-0.70786 -0.0801,-0.70785 0.0693,-0.80564 0.0693,-0.80564 0.0569,-0.37555 0.0569,-0.37555 0.25238,-0.0801 0.25238,-0.0801 0.45857,-0.33218 0.45857,-0.33219 0.84307,-0.18274 0.84306,-0.18274 1.45212,-0.16404 1.45212,-0.16405 0.0359,-0.12358 -0.0343,-0.1002 -0.45406,-0.21104 -0.68791,-0.19936 -2.17546,-0.70668 -2.17547,-0.70668 -1.41111,-0.52621 -1.41111,-0.52621 -2.11667,-1.04573 -2.11666,-1.04573 -0.34481,-0.27971 -0.34481,-0.27972 0.33465,-0.57606 0.33465,-0.57607 0.49447,-0.64676 0.49447,-0.64675 0.9268,-0.90701 0.9268,-0.90701 0.99897,-0.78332 0.99897,-0.78332 0.74093,-0.52872 0.0133,-0.0822 -0.059,-0.059 -0.059,-0.059 -1.43816,0.6121 -2.16576,1.05859 -1.27901,0.73558 -1.27901,0.73558 -1.41111,0.88155 -1.41111,0.88154 -1.70509,1.2213 -1.7051,1.22131 -0.2898,0.24301 -0.1261,0.26639 0.1261,0.20661 0.2898,0.23 1.23326,0.82494 1.23326,0.82494 1.70656,0.86347 1.70655,0.86348 1.22577,0.55001 1.22576,0.55002 0.6933,0.53348 0.6933,0.53348 0.17896,0.37529 0.17896,0.37529 -0.13575,0.50415 -0.13575,0.50414 -0.47929,0.51997 -0.47929,0.51997 -0.60104,0.16885 -0.60104,0.16885 -0.58796,0.0748 -0.58796,0.0748 -0.20579,0.0568 -0.20579,0.0568 v 0.85051 0.85052 l 0.12376,1.5816 0.12376,1.58161 0.28611,1.42873 0.28611,1.42873 0.36103,1.09951 0.36103,1.09951 0.74788,1.52871 0.74787,1.5287 0.64342,0.91855 0.64341,0.91854 0.80702,0.94849 0.80703,0.9485 0.96405,0.8602 0.96406,0.86021 1.09381,0.81934 1.09382,0.81933 0.98955,0.59856 0.98956,0.59856 z m 11.10991,-0.34786 0.67615,-0.36166 1.52871,-1.11325 1.5287,-1.11326 0.89918,-0.8217 0.89917,-0.82171 0.91653,-1.09107 0.91653,-1.09107 0.68705,-1.05833 0.68704,-1.05833 0.58355,-1.18591 0.58355,-1.18591 0.46395,-1.41289 0.46395,-1.4129 0.26578,-1.34055 0.26577,-1.34055 0.006,-2.23245 0.006,-2.23245 -0.88194,-0.19003 -0.88195,-0.19002 -0.35225,-0.14323 -0.35226,-0.14323 -0.39271,-0.29953 -0.39271,-0.29954 -0.22473,-0.36855 -0.22474,-0.36856 -4.4e-4,-0.58018 -4.4e-4,-0.58018 0.58617,-0.565 0.58617,-0.56499 3.02981,-1.502 3.0298,-1.50201 1.35231,-0.90675 1.35232,-0.90676 0.21806,-0.17217 0.21806,-0.17217 -0.74723,-0.69459 -0.74723,-0.6946 -0.60329,-0.53161 -0.6033,-0.5316 -0.74901,-0.53398 -0.74902,-0.53397 -0.88664,-0.52373 -0.88664,-0.52373 -2.28836,-1.18673 -2.28836,-1.18673 -1.55811,-0.64645 -0.76435,-0.16688 v 0.0383 0.0383 l 0.56757,0.54296 1.36132,1.02251 0.94,0.82832 0.94001,0.82832 0.75823,0.88864 0.75823,0.88864 0.40943,0.61683 0.40942,0.61683 v 0.0558 0.0558 l -1.5581,0.89122 -1.5581,0.89121 -1.42359,0.63806 -1.42359,0.63805 -1.75141,0.64639 -1.75141,0.64638 -1.29352,0.41354 -1.29352,0.41354 -0.68791,0.19848 -0.5359,0.19263 -0.0403,0.11762 0.11177,0.11176 1.75207,0.22543 1.75208,0.22542 0.55004,0.16614 0.55005,0.16615 0.34594,0.24632 0.34593,0.24633 0.31145,0.11841 0.31145,0.11842 0.10253,0.26967 0.10253,0.26967 0.0845,1.12715 0.0845,1.12716 -0.24403,0.55166 -0.24402,0.55167 -0.69172,0.72885 -0.69171,0.72885 0.11803,1.82268 0.11803,1.82269 -0.13449,2.11666 -0.13449,2.11667 -0.18407,1.23472 -0.18408,1.23472 -0.33474,1.46991 -0.33475,1.46991 -0.48443,1.48763 -0.48442,1.48763 -0.58555,1.45214 -0.58555,1.45214 v 0.0951 l 0.0506,0.0352 z m -5.98296,-27.75996 0.0739,-0.003 0.42979,-0.90815 0.42979,-0.90815 1.15437,-1.64629 1.15437,-1.6463 0.75722,-1.23472 0.75722,-1.23472 0.80422,-1.56755 0.80422,-1.567539 V 99.62088 99.512728 h -1.00572 -1.00572 l -0.82155,-0.186857 -0.82154,-0.186857 -0.49385,-0.376667 -0.49384,-0.376667 -0.26593,-0.394607 -0.26592,-0.394607 0.004,-0.423582 0.004,-0.423582 0.14325,-0.187716 0.14325,-0.187716 0.41157,-0.215139 0.41158,-0.215139 0.94074,-0.0487 0.94074,-0.0487 1.1268,0.184001 1.12681,0.184002 1.43184,0.412128 1.43185,0.412127 1.85107,0.733342 1.85107,0.733341 2.76343,1.37526 2.76343,1.375257 1.35231,0.81104 1.35232,0.81104 2.52824,1.64985 2.52824,1.64985 0.88194,0.50901 0.88195,0.50901 0.81782,0.63658 0.81782,0.63659 0.33963,0.17563 0.22271,0.0792 0.0413,-0.0413 0.0413,-0.0414 -0.96654,-1.33345 -1.08347,-1.42992 -0.845,-0.98433 -0.845,-0.98432 -1.56339,-1.52261 -1.56339,-1.52261 -1.17593,-0.983441 -1.17593,-0.983443 -2.32727,-1.747413 -2.32728,-1.747413 -0.81077,-0.481672 -0.81078,-0.481672 -0.27213,-0.266001 -0.27214,-0.266002 -0.30533,-0.40124 -0.37354,-0.376436 -1.44914,-0.863758 -1.47059,-0.716176 -0.65032,-0.187987 -0.60355,-0.06521 -1.39552,-0.70252 -1.39553,-0.70252 -1.05833,-0.43503 -1.05833,-0.435029 -1.52871,-0.562116 -1.5287,-0.562115 -0.65989,-0.135157 -0.65989,-0.135156 -0.81002,0.169428 -0.81001,0.169429 -1.52866,0.554698 -1.52865,0.554697 -2.23431,0.975757 -2.23431,0.975757 -0.82315,0.250124 -0.82315,0.250124 -1.37003,0.775121 -1.37002,0.775121 -0.36462,0.517282 -0.36461,0.517283 -1.73434,1.130432 -1.73434,1.130433 -1.35231,1.030361 -1.35232,1.030362 -1.5287,1.274682 -1.52871,1.274686 -1.77002,1.76434 -1.77002,1.76434 -0.89469,1.06593 -0.89469,1.06592 -0.66703,0.9297 -0.66702,0.92969 -0.11199,0.20924 0.10434,0.0397 0.0923,-4.1e-4 0.0923,-4.1e-4 1.11309,-0.82681 1.32942,-0.99635 0.43447,-0.11502 0.43447,-0.11502 0.30096,-0.0608 0.30096,-0.0608 1.05135,-0.7934 1.05136,-0.79339 2.11115,-1.34091 2.11114,-1.34091 1.82672,-1.05606 1.82672,-1.05606 1.76538,-0.921516 1.76537,-0.921516 1.46991,-0.666114 1.46991,-0.666114 1.63233,-0.645515 1.63234,-0.645514 1.00153,-0.183901 1.00154,-0.183901 0.87072,0.135368 0.87072,0.135368 0.58673,0.252403 0.58672,0.252402 0.17142,0.24473 0.17141,0.24473 v 0.342131 0.342131 l -0.23507,0.380355 -0.23507,0.380354 -0.44109,0.287126 -0.44108,0.287126 -0.35278,0.14087 -0.35278,0.140869 -0.88194,0.113242 -0.88195,0.113242 -0.56629,0.0036 -0.5663,0.0036 -0.22139,0.118486 -0.22139,0.118485 0.47557,1.145643 0.47557,1.14563 0.59386,1.15871 0.59387,1.15872 1.89726,2.83943 1.89726,2.83944 0.15771,0.38217 0.15771,0.38218 z m -13.40673,-18.699255 0.0751,-0.0052 0.94074,-0.566149 0.94075,-0.566149 -0.0588,-0.222379 -0.0588,-0.222379 0.005,-0.940741 0.005,-0.940741 0.31375,-0.604093 0.31374,-0.604094 0.57372,-0.513036 0.57372,-0.513036 0.14357,-1.283285 0.14356,-1.283285 0.34302,-1.330339 0.34301,-1.33034 0.51949,-1.384523 0.51948,-1.384524 0.58439,-1.352315 0.5844,-1.352314 -0.0319,-0.03807 -0.0318,-0.03807 -0.3931,0.201243 -0.39311,0.201243 -1.15158,0.757008 -1.15158,0.757008 -1.20027,0.955923 -1.20027,0.955923 -1.13197,1.131607 -1.13197,1.131608 -0.72147,0.973058 -0.72148,0.973057 -0.41117,0.854854 -0.41117,0.854854 -0.23951,0.926413 -0.23951,0.926412 -0.0241,1.234723 -0.0241,1.234722 0.88763,0.06312 0.88763,0.06312 0.53675,0.314557 0.53675,0.314557 0.36311,0.413555 0.3631,0.413554 0.0777,0.414089 0.0777,0.414088 z m 27.13219,-0.0019 0.0953,-0.05491 0.17458,-0.410308 0.14151,-0.47232 0.37602,-0.428258 0.37601,-0.428258 0.58882,-0.274199 0.58882,-0.274199 0.73496,-0.0011 0.73495,-0.0011 v -0.690152 -0.690152 l -0.17653,-1.044339 -0.17653,-1.044338 -0.47572,-1.469908 -0.47572,-1.469907 -0.61187,-1.161035 -0.61187,-1.161035 -0.61104,-0.200466 -0.61103,-0.200466 -0.80473,-0.759143 -0.80473,-0.759142 -1.34766,-1.0101 -1.34766,-1.0101 -0.78698,-0.479816 -0.78698,-0.479817 -0.59083,-0.299393 -0.59082,-0.299394 h -0.055 -0.055 l 0.56633,1.209759 0.56633,1.20976 0.53741,1.358758 0.5374,1.358758 0.35676,1.223843 0.35676,1.223844 0.17813,1.044338 0.17813,1.044339 v 0.525198 0.525198 l 0.58437,0.525396 0.58437,0.525397 0.3724,0.756467 0.37241,0.756467 -0.057,1.089769 -0.057,1.08977 0.95231,0.549635 0.95231,0.549634 z"
       id="path196" /><path
       style="fill:#c21315;fill-opacity:1;stroke:#000000;stroke-width:0.954594"
       d="m 2260.2365,521.37376 c -4.5688,-2.79399 -10.9801,-7.60456 -15.7028,-11.78228 -4.0546,-3.5867 -8.5732,-8.72193 -12.2561,-13.92872 -2.8569,-4.03882 -7.6747,-13.86104 -9.4421,-19.24957 -2.5695,-7.83395 -4.4359,-20.29011 -4.4574,-29.74854 -0.01,-3.6441 -0.2328,-3.38756 3.3514,-3.82946 0.9723,-0.11986 3.0065,-0.55277 4.5205,-0.962 2.5005,-0.67586 2.9135,-0.91985 4.5055,-2.66179 1.2452,-1.36248 1.9181,-2.48672 2.324,-3.8829 0.554,-1.9056 0.5476,-2.01468 -0.21,-3.59799 -1.071,-2.2382 -4.7476,-4.96358 -9.7023,-7.19203 -11.4867,-5.16628 -21.0515,-10.44713 -27.8824,-15.39416 -1.6561,-1.19938 -1.681,-1.24483 -1.0606,-1.93492 0.3494,-0.38867 3.59,-2.82359 7.2014,-5.41093 11.6126,-8.31977 23.083,-15.18901 34.9359,-20.92195 4.1585,-2.01136 7.6187,-3.59931 7.6892,-3.52877 0.071,0.0705 -0.6272,0.66348 -1.5505,1.31765 -10.6347,7.53453 -19.0747,15.8352 -22.6865,22.31197 l -1.1111,1.99237 1.1343,0.95443 c 0.6238,0.52494 4.8846,2.82977 9.4684,5.12185 10.0229,5.01189 18.1211,8.03087 38.2978,14.27726 0.7292,0.22575 1.331,0.56956 1.3373,0.76401 0.01,0.19495 -2.4124,0.62985 -5.3917,0.96944 -8.0314,0.91547 -11.6958,1.79338 -13.7356,3.29075 -0.9257,0.67951 -2.1626,1.40265 -2.7487,1.60697 -0.9945,0.34665 -1.0852,0.52939 -1.3563,2.73225 -0.1598,1.29841 -0.2799,4.47597 -0.2669,7.06126 l 0.024,4.70051 2.8635,2.90088 2.8636,2.90089 -0.1983,7.84954 c -0.5062,20.04186 3.2318,40.80344 10.6417,59.10679 1.4263,3.5233 2.4974,6.3929 2.3802,6.3769 -0.1173,-0.016 -1.8179,-1.01037 -3.7791,-2.20971 z"
       id="path197"
       transform="scale(0.26458333)" /><path
       style="fill:#c21315;fill-opacity:1;stroke:#000000;stroke-width:0.954594"
       d="m 2305.9103,517.73393 c 7.9849,-19.47118 11.6762,-40.82717 10.406,-60.20358 l -0.4411,-6.72892 2.5446,-2.75047 c 1.5868,-1.71527 2.9255,-3.58058 3.557,-4.95604 l 1.0125,-2.20557 -0.3519,-4.33517 c -0.4288,-5.2834 -0.7509,-6.20174 -2.4158,-6.88829 -0.6957,-0.28688 -1.7422,-0.87914 -2.3256,-1.31612 -1.7702,-1.32605 -5.3469,-2.24006 -11.844,-3.0267 -3.403,-0.41202 -6.4679,-0.8303 -6.8111,-0.92952 -0.8764,-0.25344 -0.4589,-0.73673 0.8931,-1.03362 5.1948,-1.14076 23.3529,-7.62761 31.542,-11.26809 4.8661,-2.1633 16.9118,-8.71347 17.3613,-9.44071 0.1057,-0.17105 -0.6568,-1.5432 -1.6944,-3.04922 -4.5271,-6.57105 -9.854,-11.86009 -18.4073,-18.27658 -2.2898,-1.71773 -4.0861,-3.20022 -3.9919,-3.29442 0.4003,-0.40032 9.8782,3.879 18.3022,8.26355 15.225,7.92435 18.413,10.04578 26.8932,17.8955 l 3.8063,3.52331 -0.8011,0.61278 c -0.4406,0.33703 -3.0575,2.15181 -5.8154,4.03283 -3.9498,2.69404 -7.3841,4.57824 -16.1779,8.87591 -9.8107,4.79462 -11.4633,5.72211 -13.6357,7.65279 l -2.4719,2.19695 v 2.60776 c 0,3.06908 0.7959,4.60321 3.3336,6.42565 1.9977,1.43468 2.8771,1.77502 6.9194,2.67791 l 3.3588,0.75023 0.095,8.46389 c 0.089,7.89282 0.033,8.77501 -0.8186,13.0748 -2.8278,14.27232 -8.7815,26.65697 -18.0062,37.45606 -4.6097,5.39637 -8.1261,8.5917 -15.0345,13.66165 -4.8247,3.54078 -10.3083,7.05654 -11.0063,7.05654 -0.132,0 0.7796,-2.48629 2.0258,-5.52509 z"
       id="path198"
       transform="scale(0.26458333)" /><path
       style="fill:#c21315;fill-opacity:1;stroke:#000000;stroke-width:0.25257"
       d="m 604.00334,110.06155 c -0.085,-0.19732 -1.03412,-1.67706 -2.1091,-3.2883 -1.07495,-1.61123 -2.19445,-3.4072 -2.48777,-3.99104 -0.56988,-1.13429 -1.44187,-3.136867 -1.44187,-3.311355 0,-0.193071 0.46863,-0.322632 1.16694,-0.322632 0.88117,0 2.00896,-0.156367 2.45864,-0.340892 1.3625,-0.559081 2.05764,-1.655416 1.54536,-2.437244 -0.23876,-0.3644 -1.19341,-0.755213 -2.25584,-0.923486 -0.87987,-0.139358 -0.96973,-0.137202 -1.94397,0.04666 -1.67797,0.316669 -5.55964,1.931654 -9.03971,3.760999 -3.65424,1.92091 -8.52675,4.89296 -10.66651,6.50616 -0.90628,0.68326 -1.07977,0.77616 -1.71233,0.91689 -0.65286,0.14525 -0.7991,0.22772 -2.01751,1.13772 -0.72252,0.53961 -1.33514,0.95963 -1.36138,0.93337 -0.0665,-0.0665 1.25687,-1.89743 2.10457,-2.91176 0.38698,-0.46304 1.59152,-1.73943 2.67677,-2.83642 2.89028,-2.92159 5.98701,-5.457246 9.38117,-7.681463 1.51992,-0.996018 1.85245,-1.256215 2.16733,-1.69596 0.32962,-0.460299 0.52708,-0.607002 1.73437,-1.288611 0.89191,-0.503542 1.66177,-0.862084 2.22925,-1.038199 0.47678,-0.147963 1.87711,-0.709406 3.11192,-1.247656 2.6525,-1.156245 4.83095,-1.963745 5.95839,-2.208641 0.73824,-0.160358 0.87228,-0.164581 1.44992,-0.04566 1.28344,0.264221 4.85963,1.500393 7.10384,2.620773 0.9352,0.466882 1.79214,0.819819 2.2299,0.984017 0.46997,0.17628 0.68763,0.237148 1.98197,0.952227 0.87865,0.485447 1.54622,0.894801 1.71457,1.035946 0.74066,0.620952 1.11867,0.981878 1.76572,1.468286 0.83549,0.628063 5.09948,3.738995 6.70087,5.073445 1.34755,1.122906 3.96245,3.678426 5.08801,4.972476 0.78992,0.90816 2.91005,3.63311 2.91005,3.7402 0,0.11658 -0.65,-0.29125 -1.40317,-0.88041 -0.43733,-0.34209 -1.15294,-0.82803 -1.59025,-1.07988 -0.43733,-0.25185 -2.03694,-1.26427 -3.5547,-2.24984 -3.78912,-2.4605 -4.87966,-3.0958 -7.90448,-4.604742 -5.48436,-2.7359 -9.96246,-4.153101 -12.59771,-3.986847 -0.74176,0.0468 -1.06868,0.112183 -1.40722,0.281461 -0.50392,0.251979 -0.5907,0.37737 -0.68183,0.985184 -0.0584,0.389781 -0.035,0.481436 0.21715,0.847894 0.30046,0.436679 0.96996,1.03137 1.33831,1.188725 0.53187,0.227214 1.56163,0.379461 2.56659,0.379461 0.58846,0 1.06995,0.02156 1.06995,0.04794 0,0.02638 -0.32099,0.689364 -0.71334,1.473324 -0.92091,1.84016 -2.00676,3.62813 -3.4789,5.72842 -0.64913,0.92608 -1.39827,2.12579 -1.66479,2.66601 l -0.48453,0.98222 z"
       id="path199" /><path
       style="fill:#c21315;fill-opacity:1;stroke:#000000;stroke-width:0.954594"
       d="m 2232.372,345.0359 c -0.3049,-1.90629 -2.2726,-4.23417 -4.9043,-5.80188 -1.8212,-1.08486 -2.4383,-1.25169 -5.3998,-1.45987 l -3.3436,-0.23503 v -4.39155 c 0,-5.36834 0.9532,-9.57066 3.335,-14.70229 4.1261,-8.89 15.2273,-20.17382 28.6616,-29.13311 3.7368,-2.49207 6.8886,-4.34814 7.3837,-4.34814 0.09,0 -0.7863,2.16707 -1.9478,4.81571 -5.3061,12.10002 -8.0537,21.05086 -9.1576,29.83252 l -0.6888,5.48008 -2.283,2.12132 c -1.5544,1.44437 -2.6387,2.84523 -3.3979,4.38976 -1.0951,2.22797 -1.1128,2.3452 -0.9919,6.56936 l 0.1231,4.30092 -3.2793,2.00431 c -1.8036,1.10237 -3.4141,2.00431 -3.5787,2.00431 -0.1647,0 -0.4035,-0.65089 -0.5307,-1.44642 z"
       id="path200"
       transform="scale(0.26458333)" /><path
       style="fill:#c21315;fill-opacity:1;stroke:#000000;stroke-width:0.954594"
       d="m 2331.3702,344.45938 -3.4965,-1.99933 0.2354,-4.16532 0.2354,-4.16532 -1.4106,-2.80562 c -1.0801,-2.14822 -1.9521,-3.28984 -3.7215,-4.87209 l -2.3108,-2.06647 v -2.47487 c 0,-7.21778 -4.0841,-20.69008 -10.1091,-33.37901 -1.0535,-2.21874 -1.8676,-4.08191 -1.8091,-4.14037 0.058,-0.0585 2.1377,1.04092 4.6205,2.44308 5.3792,3.03787 13.8444,9.24182 18.5665,13.60696 2.8646,2.64811 3.7691,3.26948 5.7027,3.91777 l 2.2981,0.77049 2.3945,4.67823 c 4.021,7.85611 6.9746,18.50245 6.9746,25.13973 v 2.69625 h -2.6027 c -4.8543,0 -9.2747,2.91378 -10.6354,7.01053 -0.334,1.00557 -0.7933,1.82299 -1.0208,1.81649 -0.2274,-0.006 -1.9869,-0.9115 -3.9099,-2.01113 z"
       id="path201"
       transform="scale(0.26458333)" /></g></svg>
