<?xml version="1.0" encoding="UTF-8" standalone="no"?>
<!-- Created with Inkscape (http://www.inkscape.org/) -->

<svg
   width="65.190079mm"
   height="62.970837mm"
   viewBox="0 0 65.190079 62.970837"
   version="1.1"
   id="svg1"
   xml:space="preserve"
   xmlns="http://www.w3.org/2000/svg"
   xmlns:svg="http://www.w3.org/2000/svg"><defs
     id="defs1" /><g
     id="layer1"
     transform="translate(-638.67107,-69.688355)"><path
       style="fill:#000000"
       d="m 671.3802,132.65915 h -0.31178 l -0.24318,-0.26458 -0.24317,-0.26459 -0.47368,-0.94923 -0.47368,-0.94923 -0.58872,-1.40262 -0.58872,-1.40262 -1.25228,-3.29259 -1.25227,-3.2926 -0.76915,-2.17546 -0.76914,-2.17546 -0.69523,-2.11667 -0.69524,-2.11667 -0.69357,-2.29305 -0.69358,-2.29306 -0.77969,-2.70463 -0.77968,-2.70463 -0.0662,-0.70673 -0.0662,-0.70673 0.57293,-0.51912 0.57294,-0.519122 0.57051,-0.52453 0.57051,-0.52453 -0.48232,-1.01493 -0.48232,-1.01493 v -0.0786 -0.0787 l -0.12238,-0.32188 -0.12238,-0.32189 -0.30853,0.46122 -0.30853,0.46122 -0.44853,0.54251 -0.44854,0.5425 -0.92947,0.73211 -0.92946,0.73212 0.62479,1.057332 0.62479,1.05733 0.11715,0.33603 0.11714,0.33604 -1.41791,2.09451 -1.4179,2.09452 -1.30184,1.82269 -1.30184,1.82268 -1.72393,2.29795 -1.72394,2.29796 -1.44805,1.81779 -1.44806,1.81779 -2.26677,2.72036 -2.26677,2.72036 -0.95247,1.00623 -0.95248,1.00622 -0.55086,0.36488 -0.55086,0.36487 -0.28386,-0.0345 -0.28386,-0.0345 -0.24681,-0.33168 -0.24682,-0.33168 -0.0386,-2.72573 -0.0386,-2.72573 0.13076,-2.85234 0.13077,-2.85233 0.16946,-2.26295 0.16947,-2.26294 0.23769,-3.88055 0.23769,-3.88056 0.18278,-1.99907 0.18278,-1.999082 0.17342,-1.29351 0.17342,-1.29352 0.0637,-0.31666 0.0637,-0.316659 0.4919,-0.179531 0.4919,-0.17953 0.68758,-0.171787 0.68757,-0.171787 0.0393,-0.03927 0.0393,-0.03927 -0.23401,-0.821456 -0.234,-0.821457 -0.0681,-1.131005 -0.0681,-1.131004 0.14947,-0.809273 0.14947,-0.809274 0.28335,-0.764352 0.28335,-0.764352 0.47276,-0.797343 0.47275,-0.797344 0.72201,-0.771826 0.722,-0.771825 0.72952,-0.520574 0.72952,-0.520574 0.98113,-0.455558 0.98114,-0.455558 1.02037,-0.247523 1.02038,-0.247523 h 0.15731 0.15732 l 0.98601,-2.969213 0.98601,-2.969213 0.55696,-1.50192 0.55696,-1.50192 0.27315,-0.398633 0.27315,-0.398634 0.46194,-0.299526 0.46194,-0.299527 0.5424,-0.09298 0.5424,-0.09298 h 2.05787 2.05787 l 0.54671,0.252726 0.5467,0.252726 0.45673,0.456729 0.45673,0.456729 0.22562,0.466471 0.22561,0.466471 0.0466,0.764352 0.0466,0.764351 -1.84117,5.030826 -1.84116,5.030826 0.37513,0.473638 0.37513,0.473638 0.5029,0.882472 0.5029,0.882472 0.38293,-0.566102 0.38294,-0.566103 0.61956,-0.714651 0.61955,-0.714652 0.92984,-0.73241 0.92985,-0.73241 0.0776,-3.363968 0.0776,-3.363968 v -2.471982 -2.471983 l 0.24205,-0.500022 0.24206,-0.500021 0.4582,-0.413957 0.4582,-0.413956 0.50507,-0.269677 0.50506,-0.269676 h 2.88102 2.88102 l 0.6634,0.325786 0.6634,0.325787 0.47721,0.517716 0.47722,0.517717 0.2117,0.6852 0.2117,0.685201 -0.0292,5.43203 -0.0292,5.432029 1.10139,0.885848 1.10138,0.885848 0.64204,0.796475 0.64204,0.796474 0.27137,0.393252 0.27137,0.393251 0.36735,-0.687233 0.36735,-0.687233 0.50457,-0.719032 0.50457,-0.719033 -1.51837,-4.043468 -1.51837,-4.043467 -0.33406,-0.999537 -0.33406,-0.999537 0.006,-0.646759 0.006,-0.64676 0.2586,-0.505067 0.25861,-0.505067 0.40746,-0.451014 0.40747,-0.451013 0.61612,-0.26505 0.61612,-0.26505 2.06086,-0.05909 2.06085,-0.05909 0.69096,0.200866 0.69095,0.200867 0.5631,0.550184 0.56309,0.550185 0.57977,1.5875 0.57976,1.5875 0.96569,2.909291 0.96569,2.909292 0.0966,0.05968 0.0966,0.05968 0.88351,0.169044 0.88351,0.169044 0.89676,0.37332 0.89675,0.37332 0.87663,0.572267 0.87662,0.572268 0.74201,0.742007 0.74201,0.742008 0.38754,0.563273 0.38754,0.563273 0.44963,0.96112 0.44964,0.96112 0.20104,0.995405 0.20104,0.995405 -0.0659,1.062466 -0.0659,1.062465 -0.24232,0.764352 -0.24232,0.764352 -0.002,0.122599 -0.002,0.1226 1.04666,0.326271 1.04666,0.326271 0.21063,0.154016 0.21063,0.154012 0.26861,2.39573 0.26861,2.395717 0.29478,3.52778 0.29478,3.52778 0.176,2.99861 0.17601,2.99861 0.19137,5.05648 0.19138,5.05649 -0.0498,1.29351 -0.0498,1.29352 -0.14259,0.2632 -0.14259,0.26319 -0.27792,0.0698 -0.27793,0.0697 -0.39484,-0.19957 -0.39484,-0.19957 -1.17592,-1.1939 -1.17593,-1.1939 -2.1278,-2.52605 -2.12779,-2.52606 -1.70243,-2.11666 -1.70243,-2.11667 -1.6487,-2.17546 -1.6487,-2.17547 -1.99736,-2.76342 -1.99735,-2.76343 -0.47362,-0.70555 -0.47362,-0.70556 -0.19339,-0.37634 -0.19338,-0.37633 v -0.33614 -0.33614 l 0.4225,-0.69863 0.42251,-0.69864 0.23246,-0.452367 0.23245,-0.45237 -0.0376,-0.0319 -0.0376,-0.0319 -0.70556,-0.55614 -0.70555,-0.55614 -0.39142,-0.42949 -0.39142,-0.42949 -0.51181,-0.67806 -0.5118,-0.67807 -0.0515,0.0901 -0.0515,0.0901 -0.15068,0.47037 -0.15068,0.47037 -0.40315,0.88194 -0.40315,0.88195 0.68538,0.58796 0.68538,0.587957 0.4999,0.48443 0.4999,0.48442 -0.0721,0.39752 -0.0721,0.39752 -0.64262,2.41065 -0.64262,2.41065 -0.58655,2.05787 -0.58656,2.05787 -0.76446,2.4592 -0.76447,2.4592 -0.59126,1.77413 -0.59127,1.77414 -0.82327,2.28422 -0.82328,2.28423 -0.92204,2.30189 -0.92204,2.30188 -0.82879,1.8719 -0.82878,1.87191 -0.25756,0.27416 -0.25756,0.27416 z m -0.12493,-4.69978 0.17587,-0.13843 0.53111,-1.17243 0.49749,-1.19874 0.709,-1.89277 0.709,-1.89276 1.69065,-5.08528 1.69065,-5.08528 0.7114,-2.3796 0.7114,-2.3796 0.52372,-1.96523 0.52371,-1.96523 v -0.5409 -0.5409 l -0.54526,-0.58292 -0.54525,-0.58293 h -1.86539 -1.86539 l 0.002,-0.14699 0.002,-0.14699 0.67415,-0.290782 0.67415,-0.29077 0.94741,-0.94395 0.9474,-0.94395 0.41983,-0.82314 0.41983,-0.82315 0.22026,-0.64676 0.22027,-0.646761 -0.007,-1.646296 -0.007,-1.646296 -0.31295,-0.940741 -0.31295,-0.940741 -0.44398,-0.764333 -0.44398,-0.764333 -0.94074,-0.944634 -0.94074,-0.944634 -0.95607,-0.494526 -0.95607,-0.494525 -0.0713,-0.265952 -0.0713,-0.265952 -0.002,-6.016167 -0.002,-6.016168 -0.3618,-0.304434 -0.36181,-0.304435 h -1.99778 -1.99778 l -0.25685,0.1368 -0.25686,0.136801 -0.14325,0.186579 -0.14325,0.186579 -0.004,6.320602 -0.004,6.320602 h -0.17798 -0.17799 l -0.26298,0.146991 -0.26299,0.146991 -0.0588,0.0588 -0.0588,0.0588 -0.41158,0.190141 -0.41157,0.19014 -0.52763,0.441204 -0.52764,0.441204 -0.61787,0.775371 -0.61787,0.775372 -0.53052,1.062728 -0.53051,1.062729 -0.17607,0.700864 -0.17606,0.700863 0.002,1.121822 0.002,1.121822 0.17527,0.743491 0.17528,0.74349 0.43007,0.88197 0.43006,0.88196 0.80827,0.86548 0.80826,0.86548 0.81519,0.50304 0.8152,0.503034 -0.14327,0.0893 -0.14327,0.0893 -1.17593,-0.0696 -1.17592,-0.0696 -0.52896,0.1443 -0.52896,0.14431 -0.55878,0.55877 -0.55877,0.55877 v 0.23929 0.23929 l 0.35974,1.39441 0.35973,1.39441 0.75275,2.46944 0.75275,2.46944 1.34574,4.05695 1.34575,4.05694 0.93976,2.58704 0.93976,2.58704 0.76322,1.99907 0.76323,1.99908 0.0813,0.3814 0.10469,0.34194 z m -0.0913,-29.880312 -1.13605,-0.008 -0.49104,-0.15354 -0.49105,-0.15354 -0.40107,-0.24788 -0.40108,-0.24787 -0.58525,-0.61965 -0.58524,-0.61965 -0.30479,-0.64676 -0.30479,-0.646763 -0.14587,-0.744365 -0.14588,-0.744365 0.14198,-0.794464 0.14198,-0.794464 0.28409,-0.613183 0.28409,-0.613182 0.64885,-0.680252 0.64885,-0.680253 0.63141,-0.30917 0.63141,-0.30917 0.51568,-0.118886 0.51569,-0.118886 0.70555,-0.0015 0.70556,-0.0015 0.58796,0.156675 0.58796,0.156676 0.41158,0.211436 0.41157,0.211436 0.77964,0.791283 0.77964,0.791283 0.24429,0.652937 0.2443,0.652937 0.13741,0.789103 0.13742,0.789102 -0.064,0.601568 -0.064,0.601569 -0.48719,0.881946 -0.48718,0.88194 -0.25741,0.27708 -0.25741,0.27707 -0.5175,0.35814 -0.51751,0.35814 -0.6983,0.21733 -0.69829,0.21734 z m 0.0399,-2.11658 0.82315,0.003 0.47869,-0.21741 0.47869,-0.21742 0.35722,-0.433375 0.35723,-0.433377 0.13422,-0.447999 0.13423,-0.447999 -0.003,-0.57432 -0.003,-0.57432 -0.2399,-0.529167 -0.2399,-0.529166 -0.25729,-0.276028 -0.25728,-0.276027 -0.41158,-0.206973 -0.41157,-0.206973 -0.4573,-0.07082 -0.4573,-0.07082 -0.56438,0.121038 -0.56438,0.121038 -0.52658,0.463507 -0.52657,0.463506 -0.24503,0.506173 -0.24503,0.506172 v 0.672206 0.672206 l 0.15856,0.378399 0.15857,0.378399 0.32604,0.386673 0.32603,0.38667 0.42674,0.22549 0.42674,0.22549 z M 640.79061,122.311 h 0.10202 l 0.87676,-0.85255 0.79409,-0.88561 1.2579,-1.43684 1.17522,-1.46991 1.43563,-1.86422 1.43564,-1.86423 1.50663,-2.07513 1.50662,-2.07512 2.66485,-3.79699 2.66484,-3.79699 v -0.32567 -0.32567 l -0.41832,-0.69864 -0.41833,-0.69863 -0.19903,-0.190292 -0.19904,-0.19028 -1.38357,-0.56851 -1.38356,-0.5685 0.042,-0.12316 0.042,-0.12315 0.93,-0.004 0.93,-0.004 0.64676,-0.21803 0.64676,-0.21803 0.47037,-0.23247 0.47037,-0.23248 0.62061,-0.47377 0.62061,-0.47376 0.5696,-0.71815 0.5696,-0.718146 0.37461,-0.744912 0.37462,-0.744912 0.26718,-0.566312 0.10738,-0.589697 -0.0688,-1.26412 -0.0688,-1.264121 -0.25617,-0.823148 -0.25616,-0.823148 -0.27349,-0.540646 -0.27349,-0.540646 -0.54584,-0.63528 -0.54583,-0.63528 -0.16053,-0.305372 -0.16053,-0.305372 0.32975,-1.046943 0.32975,-1.046943 1.02942,-2.70463 1.02942,-2.704629 0.57482,-1.582645 0.57481,-1.582646 v -0.38432 -0.38432 l -0.2779,-0.182089 -0.27791,-0.18209 -1.91429,0.03239 -1.9143,0.03239 -0.09,0.176389 -0.09,0.176389 -0.52496,1.411111 -0.52496,1.411111 -1.15249,3.468982 -1.15249,3.468982 -0.12673,0.08639 -0.12672,0.08639 -1.0076,0.0018 -1.00759,0.0018 -0.6387,0.187719 -0.63871,0.187719 -0.82314,0.427073 -0.82315,0.427072 -1.06099,1.060903 -1.061,1.060903 -0.37152,0.767634 -0.37153,0.767633 -0.13967,0.802014 -0.13966,0.802015 0.049,1.370167 0.049,1.370167 0.24955,0.470371 0.24955,0.47037 0.28549,0.591243 0.28549,0.591246 0.7361,0.76107 0.73611,0.76107 -0.19089,0.0384 -0.19088,0.0384 -0.95793,-0.31902 -0.95792,-0.31902 -0.42182,0.003 -0.42182,0.003 -0.64676,0.24864 -0.64676,0.24864 -0.16355,0.10482 -0.16354,0.10483 -0.26547,1.86431 -0.26547,1.864306 -0.24301,2.17546 -0.24301,2.17546 -0.23903,2.93982 -0.23903,2.93981 -0.29427,3.88678 -0.29427,3.88678 v 1.84586 1.84586 z m 12.06881,-26.664552 -0.58796,0.061 -0.62489,-0.10392 -0.62489,-0.10391 -0.65543,-0.31008 -0.65544,-0.310068 -0.44929,-0.449285 -0.44928,-0.449284 -0.24254,-0.47542 -0.24254,-0.475419 -0.18838,-0.734784 -0.18838,-0.734783 0.0679,-0.810912 0.0679,-0.810912 0.30742,-0.628355 0.30743,-0.628354 0.52237,-0.522369 0.52237,-0.522369 0.67491,-0.33142 0.67491,-0.331421 h 1.23473 1.23472 l 0.67234,0.330163 0.67235,0.330164 0.5247,0.509946 0.52469,0.509945 0.29134,0.574922 0.29133,0.574921 0.14275,0.725594 0.14275,0.725595 -0.0795,0.635969 -0.0794,0.635969 -0.32773,0.692966 -0.32772,0.692966 -0.66577,0.608481 -0.66578,0.608484 -0.61697,0.22745 -0.61696,0.22746 z m -0.55478,-2.030626 0.62113,0.0026 0.4329,-0.180874 0.43289,-0.180873 0.2267,-0.201303 0.22669,-0.201302 0.216,-0.47037 0.21599,-0.470371 0.003,-0.339134 0.003,-0.339135 -0.14032,-0.46834 -0.14032,-0.468339 -0.47704,-0.525649 -0.47704,-0.525649 -0.60554,-0.156467 -0.60553,-0.156466 -0.4437,0.100071 -0.4437,0.10007 -0.30308,0.224519 -0.30308,0.224518 -0.37492,0.488464 -0.37491,0.488463 -0.0781,0.520729 -0.0781,0.520729 0.13973,0.423379 0.13973,0.423379 0.30841,0.366523 0.30841,0.366524 0.47523,0.215869 0.47524,0.21587 z m 49.39257,28.409958 0.0471,-0.22642 -0.13465,-3.85882 -0.13465,-3.85882 -0.11208,-1.26522 -0.11209,-1.26522 -0.11297,-1.52871 -0.11296,-1.5287 -0.13459,-1.82268 -0.13459,-1.82269 -0.17812,-1.70237 -0.15201,-0.95608 -0.296,-2.13976 -0.296,-2.139752 -0.0862,-0.52917 -0.0862,-0.52917 -0.58156,-0.28814 -0.58156,-0.28814 -0.67076,-0.0485 -0.67077,-0.0485 -0.94268,0.32035 -0.94269,0.32034 -0.15043,-0.0501 -0.15042,-0.0501 0.73837,-0.79369 0.73837,-0.7937 0.28415,-0.642506 0.28414,-0.642508 0.004,-0.143638 0.004,-0.143637 0.22721,-0.470371 0.2272,-0.47037 0.004,-1.020426 0.004,-1.020427 -0.12663,-0.919851 -0.12663,-0.919852 -0.20907,-0.47037 -0.20908,-0.470371 -0.21091,-0.343901 -0.2996,-0.361654 -0.32021,-0.369553 -0.32022,-0.369552 -0.82315,-0.736383 -0.82315,-0.736384 -0.82648,-0.394049 -0.82649,-0.39405 -0.89942,-0.172086 -0.89941,-0.172087 -0.77294,0.07218 -0.77294,0.07218 V 83.45879 83.025228 L 688.0199,80.226514 687.02036,77.4278 v -0.168953 -0.168953 l -0.52804,-1.629453 -0.52804,-1.629452 -0.13311,-0.160397 -0.13312,-0.160397 h -1.97614 -1.97614 l -0.24372,0.30984 -0.24372,0.30984 v 0.291163 0.291163 l 0.40602,1.015895 0.40602,1.015895 0.60221,1.5875 0.60221,1.5875 0.42081,1.234723 0.42081,1.234722 c 0,0 0.20097,0.478452 0.199,0.482797 l 0.47054,1.207406 0.47054,1.207407 v 0.163357 0.163357 l -0.4879,0.445712 -0.4879,0.445712 -0.44346,0.679889 -0.44347,0.679889 -0.31238,0.907611 -0.31239,0.907611 -0.0622,1.234722 -0.0622,1.234723 0.19083,0.809827 0.19082,0.809827 0.42273,0.804467 0.42274,0.804469 0.6922,0.75542 0.69221,0.75542 0.67454,0.44773 0.67453,0.44773 0.76613,0.2795 0.76612,0.27949 0.64676,0.0447 0.64676,0.0447 0.26459,0.004 0.26458,0.004 v 0.1603 0.1603 l -1.08773,0.38437 -1.08773,0.38438 -0.59052,0.601851 -0.59051,0.60186 -0.20324,0.42934 -0.20323,0.42935 v 0.29659 0.29658 l 0.2733,0.3324 0.2733,0.33241 0.80679,1.17592 0.80678,1.17593 1.00137,1.41111 1.00138,1.41111 2.40776,3.29259 2.40775,3.2926 0.99695,1.35231 0.99694,1.35232 1.00428,1.22505 1.00428,1.22505 1.23613,1.24439 1.23613,1.24439 z m -11.26695,-26.450782 -0.88195,0.0352 -0.52916,-0.15413 -0.52917,-0.15412 -0.51608,-0.264531 -0.51608,-0.264528 -0.56094,-0.560941 -0.56094,-0.560942 -0.26711,-0.516079 -0.2671,-0.516079 -0.004,-0.999537 -0.004,-0.999537 0.153,-0.610078 0.153,-0.610079 0.33412,-0.526861 0.33413,-0.526862 0.59639,-0.471418 0.59638,-0.471417 0.67641,-0.261518 0.6764,-0.261518 0.99954,-0.0044 0.99953,-0.0044 0.58797,0.261575 0.58796,0.261575 0.7552,0.789488 0.75521,0.789487 0.27983,0.705579 0.27984,0.70558 0.066,0.532991 0.066,0.532992 -0.19167,0.748159 -0.19166,0.748159 -0.32026,0.588419 -0.32026,0.588419 -0.59452,0.448863 -0.59451,0.448863 -0.5826,0.259154 -0.58261,0.25914 z m 0.0256,-2.103478 0.78999,-0.03677 0.32714,-0.238438 0.32714,-0.238438 0.26458,-0.517801 0.26458,-0.517801 -0.003,-0.533648 -0.003,-0.533648 -0.21709,-0.47037 -0.21709,-0.470371 -0.2801,-0.25675 -0.28009,-0.25675 -0.33104,-0.125426 -0.33103,-0.125426 h -0.54318 -0.54319 l -0.51525,0.249432 -0.51526,0.249431 -0.28107,0.426726 -0.28108,0.426726 -0.0781,0.494179 -0.0781,0.49418 0.0776,0.413702 0.0776,0.413701 0.31383,0.372973 0.31384,0.372972 0.47523,0.222189 0.47524,0.222189 z"
       id="path202" /><path
       style="fill:#e06bf2;fill-opacity:1;stroke:#000000;stroke-width:0.477297"
       d="m 2421.5756,455.38317 c 0,-6.8046 0.014,-7.07134 1.1492,-22.0529 2.5937,-34.22535 3.6462,-45.29611 5.6602,-59.53595 0.5363,-3.79186 1.0101,-7.05419 1.053,-7.24963 0.1084,-0.49432 0.8686,-0.90986 3.628,-1.98316 2.2781,-0.88609 2.4628,-0.92833 4.0658,-0.93006 1.6003,-0.002 1.8439,0.0531 5.1818,1.16564 3.0303,1.01002 3.6098,1.15138 4.2976,1.04824 0.4372,-0.0656 0.7703,-0.19181 0.7401,-0.28054 -0.03,-0.0887 -1.2548,-1.41559 -2.7215,-2.94858 l -2.6667,-2.78727 -2.0507,-4.06586 -2.0507,-4.06587 -0.1934,-5.12652 -0.1934,-5.12652 0.5347,-3.00128 c 0.5237,-2.94009 0.5624,-3.059 1.8975,-5.83363 l 1.3628,-2.83236 3.9856,-4.02832 3.9856,-4.02832 3.182,-1.6457 c 2.5493,-1.31848 3.68,-1.79169 5.6869,-2.37984 l 2.5049,-0.73413 3.7707,-8.7e-4 c 3.6518,-8.6e-4 3.7852,-0.0134 4.2338,-0.39775 0.388,-0.33243 1.1299,-2.42066 4.569,-12.85963 3.8116,-11.57016 7.8069,-22.85539 8.7672,-24.76418 l 0.408,-0.81095 7.1752,-0.12085 7.1753,-0.12085 1.0564,0.71741 1.0565,0.71741 v 1.25267 c 0,1.16088 -0.1607,1.69471 -2.1932,7.28545 -1.2062,3.31803 -3.9205,10.56711 -6.0317,16.10906 -2.1112,5.54195 -4.4334,11.94529 -5.1604,14.22965 l -1.3218,4.15339 0.6163,1.2383 c 0.4014,0.80632 1.3378,2.07083 2.6844,3.62479 2.6316,3.03675 3.6638,4.98839 5.0957,9.63433 l 0.9807,3.18198 0.2413,4.65364 c 0.1705,3.289 0.189,4.97373 0.063,5.74524 -0.1316,0.80629 -0.6768,2.10073 -2.086,4.95245 -1.7795,3.60091 -2.0536,4.04491 -4.0715,6.59471 -1.9856,2.50904 -2.3599,2.88376 -4.5509,4.55671 -2.8247,2.15676 -4.7933,3.19324 -8.301,4.37057 l -2.5567,0.8581 h -3.4806 -3.4807 l -0.1873,0.53728 c -0.1687,0.48386 -0.1466,0.55277 0.2224,0.69306 0.2254,0.0857 2.5889,1.04896 5.2523,2.14062 4.0749,1.67017 4.962,2.09888 5.5956,2.70408 0.4157,0.39713 1.4646,1.91314 2.3422,3.3852 1.562,2.61994 1.5894,2.68565 1.5891,3.80651 l -3e-4,1.14055 -10.3035,14.67247 c -16.653,23.71458 -24.6147,34.46978 -36.4452,49.2325 -3.8704,4.82961 -5.1283,6.25964 -7.8915,8.97142 -1.808,1.77429 -3.4189,3.22598 -3.5797,3.22598 -0.2672,0 -0.2925,-0.597 -0.2925,-6.88789 z m 46.5394,-93.87257 c 1.3141,-0.13795 2.2733,-0.3822 4.0147,-1.02226 l 2.2881,-0.84099 2.5348,-2.29568 2.5348,-2.29568 1.2476,-2.65165 c 1.2358,-2.62623 1.2506,-2.67537 1.5473,-5.12652 l 0.2995,-2.47488 -0.5218,-2.66307 c -0.4774,-2.43661 -0.6198,-2.85879 -1.675,-4.96445 -1.1219,-2.23893 -1.2074,-2.3529 -3.1484,-4.19978 -1.9095,-1.81691 -2.1047,-1.95096 -4.5479,-3.12308 l -2.5528,-1.22468 h -4.6337 -4.6337 l -2.5433,1.21984 -2.5434,1.21984 -2.0616,2.09472 c -1.9326,1.96361 -2.1313,2.23303 -3.1738,4.30443 l -1.1122,2.20971 -0.2946,3.18198 -0.2946,3.18198 0.6912,2.74004 c 0.9999,3.96388 1.9079,5.68255 4.2793,8.09988 1.7267,1.76021 1.8734,1.86484 4.1761,2.97838 2.1796,1.05404 2.5933,1.18956 4.7729,1.56322 1.3126,0.22502 2.6649,0.37781 3.0052,0.33954 0.3403,-0.0383 1.3957,-0.15115 2.3453,-0.25084 z"
       id="path203"
       transform="scale(0.26458333)" /><path
       style="fill:#e06bf2;fill-opacity:1;stroke:#000000;stroke-width:0.477297"
       d="m 2536.2187,483.44007 c -0.05,-0.21877 -0.2006,-0.87505 -0.3339,-1.45841 -0.1333,-0.58336 -1.529,-4.43006 -3.1017,-8.54822 -5.1384,-13.45562 -9.7801,-26.53449 -15.0974,-42.54025 -7.8602,-23.66023 -13.3787,-42.26714 -13.3787,-45.10951 v -1.03497 l 2.0276,-2.02181 2.0276,-2.02181 2.0284,-0.55354 2.0285,-0.55354 4.4991,0.26118 4.4991,0.26118 0.5548,-0.39504 0.5548,-0.39505 -3.1725,-1.97248 -3.1724,-1.97249 -3.0031,-3.22679 -3.0031,-3.2268 -1.6215,-3.31394 c -1.4915,-3.04832 -1.677,-3.54774 -2.3138,-6.23076 l -0.6922,-2.91681 v -4.06587 -4.06586 l 0.6756,-2.65165 c 0.6193,-2.43069 0.8457,-2.99046 2.7179,-6.71752 1.9383,-3.85878 2.1599,-4.21354 4.3525,-6.96536 2.7629,-3.46784 5.464,-5.86622 7.7717,-6.90083 0.7458,-0.33436 1.5151,-0.73991 1.7095,-0.90121 0.7912,-0.65627 2.368,-1.40767 2.954,-1.40767 h 0.6128 l 0.1251,-23.9729 0.1251,-23.9729 0.478,-0.61233 c 0.2629,-0.33679 0.9331,-0.84501 1.4894,-1.12939 l 1.0114,-0.51706 h 7.448 7.4479 l 1.396,1.16431 1.3959,1.1643 v 22.83313 c 0,18.09087 0.051,23.01671 0.232,23.71702 l 0.2286,0.88388 3.5708,1.85616 3.5707,1.85615 3.6258,3.62393 3.6259,3.62392 1.6484,2.82843 c 1.4844,2.54699 1.7654,3.18022 2.8244,6.36406 l 1.1761,3.53564 v 6.34442 6.34443 l -0.7825,2.24915 c -0.4303,1.23704 -1.4981,3.67205 -2.3728,5.41113 l -1.5904,3.16196 -3.5934,3.57159 -3.5933,3.5716 -2.4749,1.05436 -2.4749,1.05436 -0.055,0.63315 -0.055,0.63315 7.0375,0.007 7.0376,0.007 2.0741,2.24674 2.0742,2.24673 v 1.87535 c 0,1.83459 -0.041,2.04011 -2.0155,9.45755 -3.2943,12.37383 -6.7297,23.53114 -13.6565,44.35176 -6.5261,19.61648 -10.0111,29.36777 -13.6388,38.16335 -1.7636,4.276 -1.9305,4.60319 -2.5467,4.99394 -0.8074,0.51201 -0.8148,0.51219 -0.9281,0.0204 z m 7.3629,-113.42277 c 2.5837,-0.80487 2.8847,-0.9461 4.6802,-2.19594 2.9048,-2.02212 3.6021,-2.84137 5.7699,-6.77923 l 1.8623,-3.38303 0.2272,-2.32222 c 0.2214,-2.26468 0.2147,-2.39549 -0.2701,-5.27903 -0.4,-2.37875 -0.6843,-3.45793 -1.4539,-5.52007 l -0.9566,-2.56326 -2.8675,-2.87819 c -3.4338,-3.44673 -4.5439,-4.15135 -8.0418,-5.10443 -2.0736,-0.56499 -2.3056,-0.59105 -5.2606,-0.59105 -4.1877,0 -5.7995,0.37028 -9.2218,2.11849 l -2.4403,1.24652 -2.3541,2.51594 c -2.3011,2.45914 -2.3778,2.56711 -3.3984,4.78256 -0.9526,2.06788 -1.0922,2.53289 -1.5916,5.3033 l -0.5474,3.03668 0.5753,2.91521 c 0.5211,2.64017 0.6823,3.14021 1.7086,5.29997 1.0988,2.31257 1.2001,2.45582 3.3467,4.73235 2.5427,2.69672 4.3051,3.9297 6.7877,4.74887 1.3601,0.44876 1.7855,0.49853 5.1076,0.59752 1.9931,0.0594 4.0634,0.12402 4.6005,0.14361 0.7427,0.0271 1.6383,-0.17047 3.7381,-0.82457 z"
       id="path204"
       transform="scale(0.26458333)" /><path
       style="fill:#e06bf2;fill-opacity:1;stroke:#000000;stroke-width:0.477297"
       d="m 2647.0305,456.92786 c -7.4968,-7.53555 -9.0487,-9.50819 -29.5216,-37.52515 -9.0849,-12.43255 -13.9428,-19.22849 -18.8912,-26.42812 -1.6373,-2.38206 -3.4407,-4.89482 -4.0076,-5.58391 -1.0102,-1.22787 -1.0308,-1.27469 -1.0308,-2.3455 0,-0.95802 0.1072,-1.30456 0.8702,-2.81298 0.7824,-1.54681 1.09,-1.93725 3.0494,-3.87033 l 2.1792,-2.14997 4.1192,-1.45541 4.1192,-1.45541 -0.053,-0.63726 -0.053,-0.63727 -1.0607,-0.0434 c -0.5833,-0.0239 -2.1345,-0.12219 -3.4471,-0.21842 -2.2476,-0.16479 -2.5511,-0.23404 -5.2149,-1.19023 -2.5726,-0.92343 -3.0696,-1.17549 -5.4952,-2.78679 -2.5042,-1.66353 -2.8228,-1.94211 -5.2264,-4.56983 -2.4961,-2.72884 -2.5993,-2.87365 -4.1608,-5.83363 -1.5512,-2.94066 -1.6239,-3.13181 -2.3319,-6.12892 l -0.7307,-3.09359 0.2548,-4.59619 0.2548,-4.5962 1.1575,-3.38692 c 1.1059,-3.23597 1.2339,-3.50385 2.872,-6.01041 1.4751,-2.25726 1.969,-2.85451 3.5385,-4.27851 1.7057,-1.54769 1.824,-1.69873 1.824,-2.32887 0,-0.44298 -0.7322,-2.54086 -2.1372,-6.12315 -1.1755,-2.99712 -2.8767,-7.59714 -3.7805,-10.22227 -1.7785,-5.16631 -5.1095,-14.04657 -7.676,-20.46357 -2.0348,-5.08792 -2.0527,-5.28799 -0.6292,-7.04985 l 0.9799,-1.2128 7.3728,1e-5 h 7.3728 l 0.5065,0.63477 c 0.3767,0.4721 1.0215,2.22752 2.5163,6.85009 1.1054,3.41843 2.0111,6.50218 2.0126,6.85278 0,0.37617 1.5244,4.89535 3.7151,11.02561 l 3.7123,10.38817 v 1.7465 c 0,1.54563 0.036,1.74645 0.3094,1.74611 0.1701,-2.2e-4 1.5024,-0.1205 2.9607,-0.2673 l 2.6514,-0.2669 3.359,0.64399 c 3.3246,0.63738 3.3915,0.65926 6.521,2.13399 l 3.1621,1.49001 3.1536,2.83025 c 3.1158,2.79628 5.8798,5.77219 6.9568,7.4901 0.3047,0.48613 0.8888,1.6396 1.2979,2.56326 0.6661,1.50391 0.7898,2.01185 1.1841,4.86136 0.3657,2.64239 0.4404,3.88112 0.4405,7.30484 l 1e-4,4.12286 -0.8839,1.90206 c -0.4861,1.04612 -0.8839,2.10948 -0.8839,2.363 0,0.25352 -0.4574,1.50803 -1.0164,2.7878 l -1.0165,2.32685 -2.7842,2.98988 c -1.5314,1.64443 -2.7843,3.06458 -2.7843,3.15589 0,0.0913 0.2983,0.22335 0.6629,0.29342 0.5546,0.10657 1.2341,-0.0687 4.1559,-1.07188 l 3.4929,-1.19928 2.4482,0.18885 2.4482,0.18886 2.2348,1.05625 c 1.2291,0.58095 2.2348,1.11229 2.2348,1.18076 0,0.0685 0.1561,1.04816 0.3469,2.17707 0.1908,1.12892 0.8723,5.86812 1.5144,10.53157 0.6421,4.66345 1.2439,8.87957 1.3374,9.36916 0.3752,1.96446 0.9229,8.05589 1.8444,20.51239 0.5323,7.19481 1.1613,15.26908 1.3979,17.94283 0.5296,5.9845 1.5081,33.03757 1.239,34.25482 l -0.167,0.75554 z m -36.4594,-95.68331 2.4078,-0.0964 2.1884,-0.98068 c 1.6952,-0.75966 2.6938,-1.36138 4.4305,-2.66977 l 2.242,-1.68908 1.2337,-2.32084 c 1.0706,-2.01401 1.3259,-2.6841 1.9309,-5.06856 l 0.6971,-2.74772 -0.2971,-2.20203 c -0.2561,-1.89803 -0.4403,-2.55526 -1.3344,-4.76074 l -1.0373,-2.55872 -2.8367,-2.96272 -2.8367,-2.96271 -2.2132,-0.98465 -2.2132,-0.98465 -4.0642,0.0557 -4.0641,0.0557 -2.3643,0.95545 c -2.146,0.8672 -2.5705,1.11781 -4.5962,2.71325 -2.1138,1.66476 -2.2994,1.86352 -3.5071,3.75489 -1.1999,1.87919 -1.3121,2.14348 -1.8998,4.47729 l -0.6246,2.48022 0.1134,3.76765 0.1134,3.76764 0.9306,1.85616 c 0.8685,1.73238 1.0819,2.0044 3.2006,4.07936 1.9704,1.92972 2.4917,2.33675 3.9494,3.08332 2.399,1.22866 5.6091,2.19791 6.9827,2.10831 0.5834,-0.038 2.1442,-0.11258 3.4684,-0.16562 z"
       id="path205"
       transform="scale(0.26458333)" /></g></svg>
