<?xml version="1.0" encoding="UTF-8" standalone="no"?>
<!-- Created with Inkscape (http://www.inkscape.org/) -->

<svg
   width="66.950821mm"
   height="49.879223mm"
   viewBox="0 0 66.950821 49.879223"
   version="1.1"
   id="svg1"
   xml:space="preserve"
   xmlns="http://www.w3.org/2000/svg"
   xmlns:svg="http://www.w3.org/2000/svg"><defs
     id="defs1" /><g
     id="layer1"
     transform="translate(-777.47477,-81.034645)"><path
       style="fill:#000000"
       d="m 810.85781,130.91385 h -0.14274 l -1.82042,-0.92057 -1.82042,-0.92057 -1.05833,-0.62673 -1.05834,-0.62673 -1.23472,-0.82259 -1.23472,-0.82258 -0.94074,-0.71006 -0.94074,-0.71006 -1.05834,-0.8845 -1.05833,-0.8845 -1.4117,-1.41793 -1.41169,-1.41793 -1.20281,-1.49689 -1.2028,-1.49688 -0.31328,-0.61727 -0.31328,-0.61727 -0.0939,-2.29305 -0.0939,-2.29306 -0.006,-1.60897 -0.006,-1.60897 -0.20579,-0.0586 -0.20578,-0.0586 -0.70556,-0.1395 -0.70555,-0.13951 -0.82315,-0.29506 -0.82315,-0.29506 -0.99954,-0.50338 -0.99953,-0.50337 -0.85663,-0.60479 -0.85662,-0.60479 -0.82587,-0.77908 -0.82587,-0.77908 -0.71677,-0.94948 -0.71677,-0.94948 -0.26663,-0.5733 -0.26662,-0.57329 0.0575,-0.14971 0.0575,-0.14972 0.49177,-0.128182 0.49177,-0.12817 0.16379,-0.10688 0.16379,-0.10688 -0.51657,-0.3193 -0.51656,-0.3193 -0.62772,-0.60412 -0.62771,-0.60412 -0.50519,-0.705553 -0.50518,-0.705556 -0.47004,-0.940741 -0.47003,-0.94074 -0.29838,-0.945936 -0.29839,-0.945936 -0.13206,-0.728311 -0.13207,-0.728311 0.12664,-0.236633 0.12664,-0.236633 h 0.56039 0.56038 l 1.02298,0.22355 1.02298,0.223549 v -0.09156 -0.09156 l -0.18803,-0.15605 -0.18803,-0.15605 -0.49801,-0.652099 -0.49801,-0.652098 -0.49026,-0.830608 -0.49025,-0.830607 -0.4032,-0.99991 -0.40319,-0.99991 -0.23651,-0.932909 -0.23651,-0.932908 -0.13709,-1.042242 -0.13709,-1.042242 0.12788,-0.280675 0.12789,-0.280675 h 0.15162 0.15163 l 2.8458,1.577536 2.84579,1.577535 1.32663,0.789853 1.32662,0.789852 1.6463,1.087705 1.6463,1.087704 1.17592,0.881744 1.17593,0.881744 1.31905,1.135579 1.31905,1.135579 0.73882,0.835298 0.73882,0.835297 0.44237,0.48326 0.44238,0.483259 0.17592,-0.235185 0.17593,-0.235185 0.77416,-0.898439 0.77417,-0.898439 0.99692,-0.86545 0.99693,-0.86545 1.0208,-0.730456 1.02079,-0.730455 1.24327,-0.712893 1.24327,-0.712893 1.57895,-0.698195 1.57895,-0.698196 0.76435,-0.203404 0.76436,-0.203404 0.94074,0.0069 0.94074,0.0069 1.11713,0.379625 1.11713,0.379625 1.41111,0.674153 1.41111,0.674153 1.26404,0.776157 1.26404,0.776156 1.14661,0.860255 1.14661,0.860254 1.00497,1.000142 1.00498,1.000141 0.47968,0.587963 0.47968,0.587963 1.51395,-1.53392 1.51396,-1.533921 1.05833,-0.886957 1.05833,-0.886957 1.35232,-1.003532 1.35231,-1.003532 1.52871,-0.998479 1.5287,-0.998479 1.76389,-1.032126 1.76389,-1.032126 2.35185,-1.287126 2.35185,-1.287125 0.17639,0.110068 0.17639,0.110068 0.0369,0.435604 0.0369,0.435604 -0.24634,1.287612 -0.24635,1.287613 -0.34197,1.046461 -0.34196,1.04646 -0.43448,0.863784 -0.43449,0.863784 -0.37784,0.587963 -0.37785,0.587963 -0.56214,0.621943 -0.56214,0.621943 0.0447,0.04469 0.0447,0.04469 1.05805,-0.221029 1.05805,-0.221029 0.54599,-0.0046 0.54598,-0.0046 0.0714,0.186007 0.0714,0.186006 v 0.328082 0.328082 l -0.28803,1.135424 -0.28802,1.135424 -0.52057,1.098933 -0.52057,1.098933 -0.50455,0.749935 -0.50455,0.749934 -0.79379,0.77545 -0.79378,0.77545 -0.36695,0.15199 -0.36695,0.152 0.0411,0.12315 0.0411,0.12316 0.54302,0.18412 0.54303,0.184116 0.0828,0.0843 0.0828,0.0843 -0.32047,0.65501 -0.32047,0.65501 -0.67582,0.90699 -0.67583,0.90699 -0.93029,0.88439 -0.93029,0.88438 -0.99954,0.66064 -0.99954,0.66063 -0.58796,0.29373 -0.58796,0.29374 -1.0182,0.359 -1.01819,0.35901 -0.84487,0.17487 -0.84486,0.17486 -0.076,0.076 -0.076,0.076 -0.0676,3.84257 -0.0676,3.84256 -0.18918,0.43384 -0.18919,0.43383 -0.48302,0.65384 -0.48301,0.65383 -0.90284,1.0878 -0.90283,1.08779 -1.23957,1.23645 -1.23957,1.23645 -1.05833,0.89045 -1.05833,0.89044 -1.37145,1.01788 -1.37145,1.01788 -1.56837,0.98416 -1.56836,0.98415 -1.46991,0.8 -1.46991,0.79999 -0.85906,0.39214 -0.85906,0.39214 z m -2.16668,-3.41196 0.0882,0.002 v -9.80348 -9.80349 l -0.67616,-0.18832 -0.67615,-0.18833 -1.94028,-0.41845 -1.94028,-0.41844 -1.077,-0.28503 -1.07701,-0.28502 -0.53458,-0.25128 -0.53459,-0.25129 -0.29929,-0.60059 -0.29929,-0.6006 0.004,-0.30029 0.004,-0.30029 0.27981,-0.20338 0.27981,-0.20337 0.62784,-0.25291 0.62784,-0.25292 1.08573,-0.33111 1.08573,-0.33112 1.38024,-0.30956 1.38023,-0.30956 1.2382,-0.16486 1.2382,-0.16486 h 1.99907 1.99908 l 1.23472,0.16693 1.23472,0.16693 0.88195,0.18533 0.88194,0.18533 1.21206,0.35742 1.21205,0.35741 1.081,0.4118 1.081,0.4118 0.25593,0.16678 0.25592,0.16679 -0.11961,0.43319 -0.11961,0.4332 -0.29175,0.44086 -0.29176,0.44087 -0.55995,0.24089 -0.55996,0.24089 -1.25811,0.35327 -1.25811,0.35327 -1.96584,0.41988 -1.96585,0.41989 -0.38218,0.12305 -0.38217,0.12305 v 9.80986 9.80986 h 0.0445 0.0445 l 0.98445,-0.54409 0.98445,-0.5441 1.23472,-0.773 1.23472,-0.77299 0.99954,-0.70842 0.99954,-0.70842 1.35231,-1.1356 1.35232,-1.13561 1.29675,-1.3368 1.29675,-1.3368 0.71297,-0.88194 0.71297,-0.88195 0.45082,-0.68195 0.45082,-0.68195 0.10669,-3.2574 0.10669,-3.2574 0.0198,-0.58187 -0.096,-0.49504 -0.34872,-0.18412 -0.46447,-0.0973 -0.18229,-0.1497 -0.18228,-0.1497 -0.61736,-0.27893 -0.61736,-0.27893 v -0.0864 -0.0865 l 0.55856,-0.0691 0.55857,-0.0691 1.70509,0.0172 1.70509,0.0172 1.02932,-0.25097 1.02931,-0.25096 0.88556,-0.34387 0.88556,-0.34386 0.8085,-0.48032 0.80849,-0.48032 0.67799,-0.61844 0.67799,-0.61844 0.74378,-0.87049 0.74378,-0.87049 v -0.0951 -0.0951 l -0.49977,-0.14124 -0.49976,-0.14124 -1.23473,0.0107 -1.23472,0.0107 -0.83894,0.18035 -0.83894,0.18035 -1.19189,0.47485 -1.1919,0.47485 h -0.35041 -0.35042 v -0.21468 -0.21469 l 0.28221,-0.26512 0.28221,-0.26512 2.6282,-0.87656 2.62821,-0.876552 1.69488,-0.83429 1.64113,-0.90456 0.95099,-0.825879 0.83525,-0.941633 0.4277,-0.66008 0.36568,-0.705556 0.36685,-1.045865 0.36684,-1.045865 -0.0682,-0.0682 -0.0682,-0.0682 -1.31618,0.268247 -1.31619,0.268248 -1.26265,0.418635 -1.26266,0.418636 -1.55957,0.759095 -1.55956,0.759095 -1.26205,0.769193 -1.26204,0.769193 -0.17847,-0.06848 -0.17846,-0.06848 V 96.426766 96.26886 l 0.23866,-0.256176 0.23866,-0.256176 0.61389,-0.46029 0.61388,-0.460291 1.70509,-1.024229 1.70509,-1.02423 1.30551,-0.979867 1.30551,-0.979867 1.04634,-1.108441 1.04635,-1.108441 0.56975,-0.94747 0.56974,-0.94747 0.33344,-0.978339 0.33344,-0.978338 0.0803,-0.558565 -0.0479,-0.488284 -0.0655,-0.07028 h -0.19365 l -0.59321,0.300601 -0.59321,0.300601 -1.76804,1.058545 -1.76805,1.058545 -1.54479,1.034382 -1.54479,1.034382 -1.42173,1.060902 -1.42173,1.060902 -1.2241,1.058676 -1.22411,1.058676 -1.12812,1.164798 -1.12811,1.164799 -0.54758,0.743828 -0.49203,0.770137 -0.0555,1.469858 v 1.49617 l -0.0744,0.0744 -0.0744,0.0744 -0.20662,-0.26267 -0.20662,-0.26267 -0.90661,-1.644222 -0.9066,-1.644217 -0.62594,-0.823148 -0.62594,-0.823148 -1.09685,-1.06996 -1.09684,-1.069959 -0.99435,-0.733733 -0.99436,-0.733734 -1.09964,-0.647171 -1.09964,-0.647172 -1.19859,-0.561087 -1.1986,-0.561088 -0.88195,-0.321111 -0.88194,-0.321111 -0.70556,0.05803 -0.70555,0.05803 -1.29352,0.52485 -1.29352,0.52485 -1.22519,0.615163 -1.22519,0.615163 -0.91738,0.568981 -0.91739,0.568981 -0.96636,0.735631 -0.96637,0.73563 -0.88921,0.891725 -0.88921,0.891725 -0.65842,0.997021 -0.65843,0.997021 -0.91759,1.671569 -0.91758,1.67156 -0.0951,-0.0588 -0.0951,-0.0588 -0.0704,-0.37805 -0.0704,-0.37805 0.11257,-1.1169 0.11258,-1.116891 -0.80199,-0.940977 -0.80199,-0.940977 -1.62602,-1.596119 -1.62603,-1.596119 -0.99953,-0.826864 -0.99954,-0.826865 -1.11713,-0.823734 -1.11713,-0.823734 -1.5287,-1.006483 -1.52871,-1.006484 -1.5875,-0.844836 -1.5875,-0.844836 -0.67615,-0.407931 -0.67616,-0.407931 -0.0845,0.05056 -0.0938,0.403247 0.084,0.671963 0.23531,0.768546 0.23531,0.768546 0.45902,0.886896 0.45902,0.886896 0.77641,0.970391 0.77641,0.970391 0.80159,0.689913 0.8016,0.689914 0.68527,0.506683 0.68526,0.506682 1.6463,0.990134 1.64629,0.990133 0.70556,0.469722 0.70556,0.469721 0.49976,0.479033 0.49977,0.479032 v 0.210702 0.210701 h -0.29059 -0.29059 l -1.14992,-0.78518 -1.14992,-0.78518 -1.41111,-0.681543 -1.41111,-0.681542 -0.70555,-0.247835 -0.70556,-0.247834 -0.94074,-0.288108 -0.94074,-0.288108 -1.10188,-0.178246 -0.98495,-0.08178 -0.0464,0.04635 -0.0463,0.04635 0.1317,0.715179 0.24862,0.811647 0.48039,0.940741 0.56224,0.926124 0.86692,0.961107 1.01015,0.908484 1.29054,0.704822 1.35193,0.66681 2.44988,0.8288 2.44987,0.82881 0.37235,0.19201 0.37235,0.19201 0.44347,0.27935 0.44348,0.27936 -0.1283,0.23972 -0.1283,0.23972 -0.13879,-0.11069 -0.13879,-0.1107 -2.05787,-0.54177 -2.05787,-0.54177 -0.85855,-0.11991 -0.85856,-0.1199 -0.49376,0.0669 -0.49376,0.0669 -0.55856,0.12161 -0.55857,0.12161 v 0.0656 0.0656 l 0.4907,0.63602 0.49069,0.63603 0.82697,0.76565 0.82697,0.76565 0.87758,0.57612 0.87759,0.57613 0.87093,0.36257 0.87093,0.36256 0.90257,0.23844 0.90257,0.23845 2.37141,0.0191 2.3714,0.0191 0.0875,0.0875 0.0875,0.0875 -0.20328,0.22463 -0.20329,0.22463 -0.96212,0.30777 -0.96212,0.30777 -0.13055,0.0857 -0.13056,0.0857 0.14883,1.72974 0.14883,1.72975 0.0861,2.19431 0.0861,2.1943 0.59164,0.77965 0.59165,0.77965 0.96671,1.11713 0.96671,1.11713 1.10068,1.06046 1.10068,1.06047 0.83612,0.71608 0.83612,0.71609 1.16295,0.87788 1.16296,0.87788 0.90647,0.60906 0.90647,0.60906 1.38659,0.76229 1.38658,0.76228 z"
       id="path206" /><path
       style="fill:#fecb12;fill-opacity:1;stroke:#000000;stroke-width:1.35"
       d="m 3050.5,478.43708 c -14.9589,-8.31163 -31.8519,-22.68709 -42.5985,-36.25001 l -4.0117,-5.06292 -0.3296,-7.93708 c -0.1813,-4.36539 -0.5768,-10.79944 -0.8789,-14.2979 -0.302,-3.49846 -0.4277,-6.67747 -0.2792,-7.06448 0.1485,-0.38701 1.9188,-1.20162 3.934,-1.81025 3.7576,-1.13492 5.4139,-2.15731 5.4139,-3.34194 0,-0.53811 -1.7756,-0.6725 -8.8851,-0.6725 -9.6112,0 -12.6999,-0.53055 -19.6149,-3.36924 -6.2558,-2.56806 -14.6526,-9.09086 -18.3666,-14.26753 l -1.6165,-2.25319 3.2842,-0.61969 c 1.9833,-0.37423 4.6043,-0.48823 6.6166,-0.2878 3.5151,0.35011 18.019,3.91602 19.9898,4.91468 0.933,0.47278 1.2467,0.44555 1.6174,-0.14034 0.2529,-0.39979 0.4632,-0.96079 0.4674,-1.24667 0.015,-1.04225 -6.9679,-4.21245 -16.4331,-7.46015 -13.1436,-4.5098 -16.839,-6.41356 -21.7237,-11.1913 -4.1591,-4.06811 -6.6929,-8.21829 -8.3666,-13.70377 -1.0162,-3.3306 -1.2602,-3.18798 4.0311,-2.35711 8.3633,1.31326 23.1136,7.46135 30.964,12.90617 5.8465,4.05494 9.0108,3.15629 4.411,-1.25269 -2.4316,-2.33071 -5.7151,-4.56054 -13.875,-9.42257 -9.4942,-5.65707 -14.9755,-10.17978 -19.9163,-16.43327 -3.6142,-4.57446 -5.5117,-8.08342 -7.0263,-12.9932 -1.4739,-4.77791 -1.3759,-7.4179 0.2176,-5.85705 0.2612,0.2559 4.2417,2.49948 8.8454,4.98572 10.5886,5.71843 21.0601,12.68311 29.6296,19.70702 5.3449,4.38089 15.9589,14.62649 19.621,18.94002 l 3.5699,4.20489 -0.2891,5.48032 c -0.2387,4.52307 -0.1575,5.58958 0.4645,6.10582 0.6458,0.53595 1.2744,-0.32401 4.3908,-6.00679 7.3045,-13.31989 11.3376,-18.11726 21.0128,-24.99437 8.2202,-5.84287 24.3785,-13.58262 29.5985,-14.17756 3.1461,-0.35855 7.1831,0.96083 15.3816,5.02697 10.4846,5.19996 17.0138,9.84277 24.0234,17.08253 6.184,6.3871 7.1099,7.64468 11.4262,15.51933 5.3677,9.79304 6.0504,9.95736 6.0504,1.45633 0,-5.54413 0.028,-5.68496 1.5851,-7.84549 6.0535,-8.40182 20.7719,-21.29554 35.9149,-31.46251 7.3181,-4.91337 23.5354,-14.48751 24.5398,-14.48751 0.7565,0 0.8506,0.29423 0.5995,1.875 -2.0043,12.61713 -12.6777,24.90884 -31.1393,35.86065 -9.2399,5.48131 -12.9633,8.44416 -12.9889,10.33585 -0.023,1.70625 1.5871,1.3738 5.6328,-1.163 5.9355,-3.72172 16.857,-9.01056 22.3561,-10.82611 4.2355,-1.39837 14.0454,-3.70365 14.3718,-3.3773 0.069,0.0694 -0.4039,1.68282 -1.0515,3.5855 -2.0353,5.97912 -4.0057,9.22885 -7.906,13.03887 -4.8347,4.72273 -11.6346,8.13564 -25.3717,12.7341 -10.1558,3.39964 -12.5426,4.64105 -12.5426,6.52359 0,1.45002 2.8943,1.14947 7.8715,-0.8174 5.822,-2.30068 10.3347,-3.26975 15.2265,-3.26975 3.8591,0 7.902,0.76993 7.902,1.50486 0,0.19061 -2.2546,2.72568 -5.0101,5.63348 -6.7475,7.12023 -11.8449,10.02562 -22.2399,12.67612 -4.2716,1.08916 -5.607,1.22492 -9.1667,0.93186 -5.0771,-0.41799 -12.085,0.12198 -12.0791,0.93072 0.01,0.67971 7.3347,4.33847 8.6731,4.32931 0.8902,-0.006 0.9125,0.56839 0.5574,14.36865 l -0.37,14.375 -2.0247,3 c -3.2668,4.84006 -8.2969,10.59545 -14.6518,16.76439 -7.0011,6.79618 -12.4032,11.18596 -19.9382,16.20186 -5.2164,3.47242 -15.8336,9.78375 -16.4588,9.78375 -0.1602,0 -0.2912,-16.53122 -0.2912,-36.73604 v -36.73603 l 2.625,-0.73377 c 1.4437,-0.40357 5.4375,-1.32933 8.875,-2.05723 7.6817,-1.62664 14.4349,-3.45402 17.7621,-4.80631 2.7145,-1.1033 4.2875,-2.96982 5.1571,-6.11916 0.6006,-2.17505 0.1831,-2.56023 -4.9669,-4.58287 -12.3491,-4.84998 -24.8762,-7.2388 -37.824,-7.21274 -11.4706,0.0231 -22.4654,1.88064 -34.0235,5.7482 -9.0485,3.02784 -9.7946,3.9212 -7.3325,8.77988 1.8074,3.56679 3.3526,4.15517 21.4777,8.17811 4.4,0.9766 8.8437,2.01173 9.875,2.3003 l 1.875,0.52466 v 36.7265 c 0,20.19957 -0.1688,36.72494 -0.375,36.72303 -0.2063,-0.002 -2.85,-1.37866 -5.875,-3.05945 z"
       id="path207"
       transform="scale(0.26458333)" /></g></svg>
