<?xml version="1.0" encoding="UTF-8" standalone="no"?>
<!-- Created with Inkscape (http://www.inkscape.org/) -->

<svg
   width="52.329071mm"
   height="72.907433mm"
   viewBox="0 0 52.329071 72.907433"
   version="1.1"
   id="svg1"
   xml:space="preserve"
   xmlns="http://www.w3.org/2000/svg"
   xmlns:svg="http://www.w3.org/2000/svg"><defs
     id="defs1" /><g
     id="layer1"
     transform="translate(-526.63719,-77.052546)"><path
       style="fill:#000000"
       d="m 549.79747,149.95996 h -0.0871 l -0.89753,-0.83819 -0.89753,-0.8382 -0.85586,-1.13617 -0.85587,-1.13617 -0.69351,-1.11244 -0.69351,-1.11244 -1.36363,-2.70463 -1.36363,-2.70463 -0.6699,-1.49498 -0.66989,-1.49498 v -0.26039 -0.26038 l 1.42441,-2.46995 1.42441,-2.46995 1.05546,-1.65431 1.05546,-1.65432 0.79879,-1.11713 0.7988,-1.11713 0.59418,-0.76226 0.59419,-0.76226 -0.0394,-0.0394 -0.0394,-0.0394 -0.57025,0.29179 -0.57026,0.29178 -1.82269,1.18616 -1.82268,1.18617 -1.90132,0.96396 -1.90131,0.96397 -1.27008,-1.16989 -1.27008,-1.16989 -3.2374,-3.23871 -3.23741,-3.2387 -1.89822,-2.00276 -1.89822,-2.00276 -0.13605,-0.69696 -0.13605,-0.69696 -0.0536,-0.29398 -0.0536,-0.29398 2.46465,-1.7051 2.46465,-1.70509 0.005,-0.11127 0.005,-0.11127 -0.31258,-0.45106 -0.31258,-0.45105 6.46306,-6.49323 6.46306,-6.493229 1.40782,-1.5875 1.40783,-1.5875 0.90565,-1.08894 0.90565,-1.08894 1.0405,-1.380505 1.04051,-1.380504 0.82218,-1.234722 0.82219,-1.234723 0.59442,-0.999537 0.59442,-0.999537 0.96907,-1.763888 0.96906,-1.763889 0.63733,-1.087732 0.63732,-1.087731 h 0.23862 0.23862 l 0.66156,0.312966 0.66156,0.312967 0.50005,0.500052 0.50005,0.500052 0.58587,1.215454 0.58587,1.215453 0.47446,1.469908 0.47447,1.469907 0.47413,1.662138 0.47414,1.662138 0.57859,1.582027 0.57858,1.582026 0.23446,0.81278 0.23446,0.81278 0.0733,0.429239 0.0733,0.42924 -0.1262,0.570297 -0.12621,0.570298 -0.41521,0.821068 -0.41521,0.821068 -0.60824,0.824478 -0.60824,0.824477 -1.05469,1.235473 -1.05469,1.235473 -1.4092,1.528708 -1.40919,1.5287 -0.57707,0.62401 -0.57707,0.62401 0.0631,0.0631 0.0631,0.0631 2.03428,0.45238 2.03427,0.45239 0.033,-0.033 0.033,-0.033 0.17044,-1.37399 0.17045,-1.37399 0.0687,-0.11123 0.0687,-0.11122 1.90613,-0.60603 1.90613,-0.60604 0.9333,-0.16306 0.93331,-0.16306 0.41901,0.0759 0.41901,0.0759 0.46687,0.23489 0.46687,0.23489 1.70965,1.66009 1.70964,1.6601 3.73251,3.56537 3.73251,3.56538 -10e-4,0.66796 -10e-4,0.66795 -0.29474,0.63315 -0.29474,0.63315 -0.75649,0.74175 -0.7565,0.74174 -0.94766,0.66405 -0.94766,0.66404 -0.49391,0.84208 -0.49392,0.84208 -0.67211,0.89267 -0.67212,0.89267 -1.10824,1.224 -1.10824,1.22399 -5.39768,5.26124 -5.39768,5.26124 -1.43688,1.56085 -1.43688,1.56085 -0.89259,1.11541 -0.8926,1.11541 -0.82819,1.23472 -0.82819,1.23473 -0.80297,1.64629 -0.80296,1.6463 -0.76135,2.11667 -0.76134,2.11666 -0.14733,0.49977 -0.14733,0.49977 z m -0.82108,-5.52685 h 0.0949 l 0.26873,-0.67616 0.26873,-0.67616 0.63995,-1.28823 0.63994,-1.28823 0.7047,-1.11857 0.70471,-1.11856 0.83137,-1.10126 0.83136,-1.10126 0.98443,-1.13685 0.98442,-1.13685 6.67661,-6.64398 6.57137,-6.72583 1.42895,-1.55286 1.1418,-1.61816 -0.91518,-1.12472 -1.09707,-1.10818 -1.46991,-1.32715 -1.46991,-1.32715 -1.35231,-1.08616 -1.35232,-1.08617 -1.23472,-0.8225 -1.23472,-0.82249 -1.29352,-0.62529 -1.29352,-0.62528 -0.99905,-0.3118 -0.99905,-0.3118 -1.11762,-0.16848 -1.11761,-0.16849 -0.99954,0.006 -0.99954,0.006 -0.40274,0.14036 -0.40274,0.14035 -0.0394,0.12098 -0.0394,0.12097 3.01079,3.3974 3.01079,3.39739 -0.0798,0.63911 -0.0799,0.63911 -0.16512,0.54622 -0.16511,0.54623 -0.57723,0.76435 -0.57723,0.76435 -1.55671,1.70509 -1.5567,1.7051 -1.20133,1.4699 -1.20133,1.46991 -1.33357,1.76389 -1.33357,1.76389 -1.31663,1.99907 -1.31663,1.99908 -0.91029,1.62142 -0.9103,1.62143 0.388,0.84802 0.388,0.84802 0.91583,1.88148 0.91583,1.88148 0.76581,1.33115 0.76581,1.33116 0.54175,0.81491 0.54175,0.81491 z m -8.42925,-20.34352 h 0.21328 l 1.75505,-0.89845 1.75506,-0.89845 -0.0848,-0.14671 -0.0848,-0.14671 -4.29766,-4.3347 -4.29765,-4.3347 -1.25547,-1.20533 -1.19699,-1.05331 -0.12527,-0.0877 -0.11942,0.0175 -1.71939,1.34368 -1.77202,1.42552 0.3952,0.38893 0.3952,0.38893 5.11323,4.77073 5.11322,4.77073 z m 6.02603,-4.46852 h 0.51987 l 1.79654,-0.46839 1.79653,-0.46839 1.10965,-0.29828 1.10964,-0.29827 0.0283,-0.0283 0.0283,-0.0283 -3.10763,-3.58071 -3.10762,-3.58071 v -0.0866 -0.0866 l 1.3121,-1.56431 1.31209,-1.5643 0.87755,-0.99954 0.87755,-0.99953 2.36707,-2.45907 2.36707,-2.45907 1.1621,-1.245098 1.1621,-1.245099 0.8429,-0.999537 0.84291,-0.999537 0.54323,-0.713809 0.54324,-0.713809 0.42097,-0.765864 0.42097,-0.765864 V 92.94441 92.686817 l -0.82958,-2.437271 -0.82958,-2.437271 -0.64451,-2.444644 -0.64451,-2.444643 -0.30438,-0.847949 -0.30437,-0.847949 -0.28919,-0.573974 -0.3535,-0.340113 -0.0935,-0.07146 -0.15779,0.1624 -1.1437,2.05787 -1.14369,2.05787 -1.06997,1.742832 -1.06998,1.742831 -1.5287,2.041478 -1.5287,2.041477 -1.24644,1.448562 -1.24643,1.448561 -1.5295,1.646296 -1.52949,1.646297 -4.85222,4.935033 -4.85221,4.93503 -0.18618,0.28414 -0.18617,0.28414 3.2282,3.18956 3.22821,3.18955 1.52871,1.341 1.5287,1.341 1.15257,0.9218 1.15257,0.9218 z m 26.95456,-4.35416 0.14624,0.003 0.91209,-0.81011 0.91209,-0.81011 0.45635,-0.47471 0.45635,-0.47471 -0.22159,-0.27328 -0.22158,-0.27328 -4.52689,-4.48025 -4.5269,-4.48026 -0.26623,-0.14027 -0.26623,-0.14028 -0.43932,0.0757 -0.43933,0.0757 -1.46991,0.42037 -1.4699,0.42037 -0.0983,0.0834 -0.0983,0.0835 0.68056,0.8072 0.68056,0.8072 1.35798,1.45404 1.35798,1.45404 3.46898,3.33462 3.46899,3.33462 z"
       id="path114" /><path
       style="fill:#fa340e;fill-opacity:1;stroke:#000000;stroke-width:1.90919"
       d="m 2056.8178,445.83533 c -8.1261,-6.7385 -36.9673,-34.22731 -36.9673,-35.23379 0,-0.35864 9.6255,-10.40154 21.39,-22.31756 36.3229,-36.79075 47.2705,-50.54314 62.6877,-78.74799 1.6475,-3.01404 3.2522,-5.48008 3.566,-5.48008 1.0038,0 3.4774,6.65493 6.084,16.36818 1.3934,5.19267 4.1217,14.2701 6.0629,20.17206 l 3.5294,10.73083 -1.5556,3.05775 c -3.0939,6.08144 -9.0814,13.11005 -28.7151,33.7078 -7.5423,7.91263 -16.7577,18.01911 -20.4788,22.45884 l -6.7655,8.07224 2.502,2.997 c 1.3761,1.64836 6.6388,7.76635 11.6949,13.59556 5.0561,5.8292 9.6125,10.72578 9.4951,10.8431 -0.5232,0.52321 -21.9524,5.75476 -23.535,5.76148 -1.1847,0.005 -4.1515,-1.96917 -8.9947,-5.98542 z"
       id="path115"
       transform="scale(0.26458333)" /><path
       style="fill:#fa340e;fill-opacity:1;stroke:#000000;stroke-width:1.90919"
       d="m 2022.0896,449.62413 c -11.3431,-10.55322 -20.6063,-19.38322 -20.5848,-19.62222 0.053,-0.59149 10.993,-9.20968 12.3532,-9.73163 0.7601,-0.2917 7.366,5.94142 21.9307,20.69328 l 20.8429,21.11072 -6.5465,3.33284 c -3.6006,1.83306 -6.7322,3.349 -6.9591,3.36876 -0.2269,0.0198 -9.6933,-8.59854 -21.0364,-19.15175 z"
       id="path116"
       transform="scale(0.26458333)" /><path
       style="fill:#fa340e;fill-opacity:1;stroke:#000000;stroke-width:1.90919"
       d="m 2070.7685,539.39617 c -2.0152,-3.23626 -6.3577,-11.35493 -9.65,-18.04151 l -5.9861,-12.1574 3.2988,-5.81358 c 9.6149,-16.94497 22.9605,-35.05884 38.4955,-52.24956 8.3086,-9.19416 10.3128,-11.9082 11.2267,-15.20279 1.625,-5.8577 1.6183,-5.87009 -10.5839,-19.62513 -13.1795,-14.85672 -15.7977,-15.10501 -3.6496,-14.40405 13.7787,0.79505 28.8232,7.34172 44.7246,20.53201 8.2861,6.87343 21.2639,18.81707 21.7103,19.98025 0.7246,1.88829 -6.2051,9.51385 -36.1972,39.83241 -33.5138,33.87863 -36.5306,37.48808 -44.6197,53.38656 -2.5724,5.05582 -4.7734,9.29465 -4.8912,9.41964 -0.1178,0.12498 -1.863,-2.4206 -3.8782,-5.65685 z"
       id="path117"
       transform="scale(0.26458333)" /><path
       style="fill:#fa340e;fill-opacity:1;stroke:#000000;stroke-width:1.90919"
       d="m 2154.7571,423.22431 c -11.8415,-11.35247 -29.0678,-29.37433 -28.5616,-29.88055 0.5446,-0.5446 12.2984,-3.69999 13.8313,-3.71309 1.3333,-0.0114 5.884,4.12166 19.6222,17.82117 9.8375,9.80981 17.8863,18.1772 17.8863,18.59421 0,0.417 -2.2157,2.74197 -4.9238,5.16658 l -4.9238,4.40839 z"
       id="path118"
       transform="scale(0.26458333)" /></g></svg>
