<?xml version="1.0" encoding="UTF-8" standalone="no"?>
<!-- Created with Inkscape (http://www.inkscape.org/) -->

<svg
   width="69.977379mm"
   height="58.347118mm"
   viewBox="0 0 69.977379 58.347118"
   version="1.1"
   id="svg1"
   xml:space="preserve"
   xmlns="http://www.w3.org/2000/svg"
   xmlns:svg="http://www.w3.org/2000/svg"><defs
     id="defs1" /><g
     id="layer1"
     transform="translate(-386.5952,-71.149375)"><path
       style="fill:#000000"
       d="m 403.07804,129.41593 -1.48962,0.0459 -0.58796,-0.0471 -0.58796,-0.0471 -1.18628,-0.17944 -1.18628,-0.17944 -1.33465,-0.35016 -1.33465,-0.35016 -1.35963,-0.54254 -1.35962,-0.54253 -0.88195,-0.4447 -0.88194,-0.44469 -1.25377,-0.75605 -1.25376,-0.75606 -0.89038,-0.63632 -0.89038,-0.63631 -0.002,-0.12812 -0.002,-0.12811 0.32338,-0.14833 0.32338,-0.14832 1.70509,-0.70269 1.70509,-0.70269 2.29306,-1.14889 2.29305,-1.14888 1.5875,-0.91436 1.5875,-0.91436 1.61359,-1.01457 1.61359,-1.01457 1.79432,-1.23472 1.79432,-1.23473 2.11894,-1.57562 2.11895,-1.57563 1.26412,-0.98965 1.26412,-0.98966 v -0.11469 -0.11469 l -1.73449,-1.78967 -1.73449,-1.78968 -1.41343,-1.64517 -1.41342,-1.64516 -1.19131,-1.478994 -1.19132,-1.47899 -1.4522,-1.93629 -1.45221,-1.936289 -0.29398,-0.435075 -0.29399,-0.435074 -0.0946,-8.04e-4 -0.0947,-8.03e-4 -0.6697,0.453819 -0.66971,0.453818 -0.50646,0.257539 -0.50645,0.257538 -0.22888,-0.07264 -0.22887,-0.07264 -1.20495,-1.507867 -1.20494,-1.507866 -0.20448,-0.352094 -0.20447,-0.352093 1.90956,-1.561229 1.90957,-1.56123 0.16303,-0.148182 0.16303,-0.148183 -0.58882,-0.685315 -0.58883,-0.685315 -0.81903,-1.11713 -0.81903,-1.117129 -0.82519,-1.234722 -0.82519,-1.234723 -1.05964,-1.763888 -1.05964,-1.763889 -1.07428,-1.998586 -1.07428,-1.998586 v -0.131852 -0.131853 l 0.49977,-0.330901 0.49977,-0.330901 1.40152,-0.747866 1.40152,-0.747866 0.14981,0.03421 0.1498,0.03421 4.94508,6.203009 4.94509,6.203009 h 0.0805 0.0805 l 1.5958,-1.046602 1.5958,-1.046601 0.92212,-0.452704 0.92212,-0.452704 0.40161,0.47037 0.40162,0.470371 0.70474,1.03599 0.70473,1.035989 v 0.1757 0.1757 l -1.11602,1.150118 -1.11603,1.150118 0.89047,1.048377 0.89047,1.048378 1.1918,1.411111 1.19181,1.411111 4.38317,4.394951 4.38317,4.39495 0.50081,-0.442716 0.50082,-0.442716 1.9325,-1.835568 1.93251,-1.835568 1.99145,-2.116667 1.99145,-2.116666 2.07327,-2.389169 2.07326,-2.389169 0.0437,-0.123086 0.0437,-0.123086 -1.07261,-1.036467 -1.0726,-1.036467 1e-5,-0.273037 v -0.273037 l 0.77053,-1.11713 0.77053,-1.117129 0.3159,-0.329747 0.3159,-0.329746 0.20231,0.0529 0.2023,0.0529 2.37643,1.379741 2.37642,1.379742 0.21008,-0.279752 0.21007,-0.279751 4.74564,-5.87941 4.74564,-5.87941 0.18591,-0.0358 0.1859,-0.0358 1.50169,0.829958 1.50168,0.829959 0.39757,0.303239 0.39757,0.303239 -0.87261,1.665811 -0.87261,1.665811 -0.85363,1.469907 -0.85363,1.469907 -1.1163,1.705093 -1.1163,1.705092 -1.00372,1.352315 -1.00372,1.352315 -0.50978,0.62814 -0.50978,0.628141 v 0.100665 0.100666 l 1.96968,1.602713 1.96967,1.602712 0.0355,0.154198 0.0355,0.154198 -0.8759,1.159654 -0.87589,1.159653 -0.6332,0.69376 -0.6332,0.693759 -0.40788,-0.135182 -0.40788,-0.135181 -0.88194,-0.587678 -0.88195,-0.587678 -0.074,-2.98e-4 -0.074,-2.98e-4 -1.01288,1.40357 -1.01289,1.403569 -1.36913,1.742032 -1.36914,1.742032 -1.42456,1.700798 -1.42455,1.7008 -1.17035,1.29781 -1.17034,1.29782 -1.09331,1.15807 -1.09331,1.15808 v 0.0956 0.0956 l 1.67569,1.34442 1.67569,1.34441 1.4313,1.06451 1.4313,1.06451 1.68641,1.17447 1.68641,1.17446 1.79272,1.13505 1.79272,1.13505 1.85115,1.06373 1.85114,1.06373 2.05787,1.02556 2.05787,1.02557 1.7051,0.71468 1.70509,0.71468 0.44582,0.15695 0.44583,0.15695 -0.0343,0.2392 -0.0342,0.23921 -1.70208,1.14266 -1.70208,1.14266 -1.53172,0.76447 -1.53172,0.76447 -1.10754,0.41903 -1.10754,0.41904 -1.3031,0.34764 -1.30311,0.34765 -1.14785,0.17219 -1.14786,0.1722 -1.43918,0.0688 -1.43919,0.0688 -0.82314,-0.0926 -0.82315,-0.0926 -0.2876,-0.6006 -0.28759,-0.60061 -1.43363,-0.79154 -1.43364,-0.79154 -1.68896,-1.05895 -1.68895,-1.05894 -1.52871,-1.06774 -1.5287,-1.06774 -1.99908,-1.50201 -1.99907,-1.50201 -1.46704,-1.16484 -1.46704,-1.16485 -1.70796,1.37273 -1.70796,1.37273 -1.23472,0.94067 -1.23472,0.94068 -1.45764,1.03999 -1.45764,1.03999 -1.84274,1.186 -1.84274,1.18599 -1.86293,1.05833 -1.86293,1.05834 -0.22898,0.55075 -0.22899,0.55076 -0.17365,0.0666 -0.17365,0.0666 z m -0.66647,-2.29501 0.70556,0.015 -0.0393,-0.56641 -0.0393,-0.56641 1.33281,-0.66154 1.3328,-0.66153 1.54615,-0.93452 1.54615,-0.93451 1.6059,-1.08505 1.6059,-1.08505 1.90443,-1.4308 1.90444,-1.4308 3.99815,-3.18227 3.99815,-3.18228 0.55678,-0.39235 0.55678,-0.39235 0.0754,0.0754 0.0754,0.0754 -0.95557,1.68845 -0.95556,1.68845 v 0.12804 0.12805 l 1.67569,1.37417 1.67569,1.37418 2.29306,1.72494 2.29306,1.72495 1.5875,1.06799 1.5875,1.06799 1.48717,0.90365 1.48717,0.90366 1.45264,0.73163 1.45265,0.73164 0.0358,0.55857 0.0358,0.55856 h 0.45314 0.45314 l 1.45129,-0.18679 1.4513,-0.18679 1.54556,-0.39455 1.54555,-0.39455 1.15908,-0.43161 1.15907,-0.43161 1.38171,-0.65097 1.38172,-0.65097 v -0.0842 -0.0842 l -0.91134,-0.33071 -0.91135,-0.3307 -1.69916,-0.74546 -1.69916,-0.74546 -1.59009,-0.8365 -1.5901,-0.8365 -1.55139,-0.92368 -1.55139,-0.92367 -1.82954,-1.22725 -1.82953,-1.22726 -2.06664,-1.54537 -2.06665,-1.54538 -2.28388,-1.87391 -2.28388,-1.87391 h -0.22479 -0.22478 l -0.78104,0.29398 -0.78103,0.29398 h -0.063 -0.063 l 0.52546,-0.68288 0.52546,-0.68288 1.47932,-1.58078 1.47932,-1.58078 2.76876,-3.01749 2.76875,-3.017493 1.29648,-1.509821 1.29648,-1.509822 1.08061,-1.388531 1.0806,-1.388532 0.44609,-0.659407 0.44608,-0.659407 -0.0804,-0.186321 -0.0804,-0.18632 -0.15878,-0.580054 -0.15879,-0.580054 -0.0761,-0.742863 -0.0761,-0.742862 h 0.30613 0.30613 l 0.44506,0.37416 0.44506,0.37416 0.82315,0.78871 0.82315,0.78871 0.8647,0.659815 0.8647,0.659815 0.13484,-0.0045 0.13483,-0.0045 0.44098,-0.63525 0.44097,-0.635251 v -0.05357 -0.05357 l -2.29739,-1.840263 -2.29739,-1.840263 0.0786,-0.435668 0.0786,-0.435668 0.0503,-0.08819 0.0503,-0.08819 h 0.62977 0.62976 l 1.40916,-1.866643 1.40915,-1.866642 1.05159,-1.572941 1.05159,-1.57294 1.18741,-1.960119 1.18742,-1.960119 0.24245,-0.475242 0.24245,-0.475243 v -0.218216 -0.218217 l -0.45698,-0.256838 -0.45698,-0.256839 h -0.16728 -0.16727 l -3.87366,4.845949 -3.87366,4.845948 -0.61854,0.710301 -0.61854,0.710301 0.0306,0.409342 0.0306,0.409341 -0.47037,0.08291 -0.47037,0.0829 -0.32565,0.08046 -0.32565,0.08046 -2.32813,-1.410346 -2.32812,-1.410346 -0.2789,0.40703 -0.2789,0.40703 0.12104,0.195423 0.12103,0.195423 0.80721,0.681191 0.80721,0.68119 0.83154,0.459023 0.83155,0.459024 0.49362,0.357577 0.49362,0.357576 -0.0678,0.176627 -0.0678,0.176627 -0.42888,0.110524 -0.42888,0.110523 -1.03526,0.08158 -1.03526,0.08158 -1.77033,2.106675 -1.77034,2.106674 -1.48467,1.671251 -1.48468,1.671251 -2.64769,2.657978 -2.6477,2.657972 -1.22651,1.07559 -1.22651,1.07559 h -0.15445 -0.15446 l -0.91209,-0.80401 -0.91209,-0.80401 -2.70806,-2.694365 -2.70807,-2.694374 -1.69186,-1.881482 -1.69186,-1.881481 -1.76355,-2.116667 -1.76355,-2.116666 -1.27571,-0.143632 -1.27571,-0.143632 -0.23373,-0.125089 -0.23373,-0.125089 v -0.09296 -0.09296 l 0.26458,-0.248512 0.26458,-0.248513 1.05834,-0.608231 1.05833,-0.608232 0.7348,-0.595275 0.73481,-0.595274 0.18465,-0.281824 0.18466,-0.281823 -0.19136,-0.29205 -0.19136,-0.29205 -0.1699,-0.0652 -0.16991,-0.0652 -1.61653,0.969884 -1.61653,0.969883 -0.57421,0.406203 -0.57422,0.406204 -0.36652,-0.07555 -0.36653,-0.07555 -0.52916,-0.08249 -0.52917,-0.08249 0.0381,-0.4367 0.0381,-0.4367 -0.51849,-0.562837 -0.5185,-0.562837 -0.98918,-1.293519 -0.98918,-1.293518 -1.92136,-2.351852 -1.92137,-2.351852 -1.00637,-1.322916 -1.00636,-1.322917 h -0.17848 -0.17848 l -0.50919,0.298404 -0.50919,0.298405 0.45813,0.911162 0.45812,0.911163 0.85016,1.465664 0.85016,1.465665 1.20692,1.822685 1.20692,1.822685 1.31699,1.763889 1.31699,1.763888 0.10385,0.109319 0.10386,0.109319 0.59035,-0.02694 0.59036,-0.02694 v 0.316229 0.316229 l 0.2056,0.15034 0.2056,0.15034 -0.0586,0.04748 -0.0586,0.04748 -2.25723,1.844441 -2.25722,1.84444 -0.0568,0.09191 -0.0568,0.09191 0.46731,0.612816 0.4673,0.612817 h 0.12057 0.12056 l 0.78543,-0.555052 0.78542,-0.555051 1.31831,-1.267634 1.31831,-1.267633 h 0.29859 0.29859 v 0.583483 0.583483 l -0.28295,0.891005 -0.28295,0.891005 0.39592,0.588326 0.39591,0.588327 1.20384,1.494361 1.20385,1.494361 1.18108,1.411111 1.18108,1.411111 1.33658,1.528702 1.33658,1.5287 2.00229,2.13573 2.00229,2.13573 0.34376,0.25415 0.34376,0.25415 1.78147,-0.5329 1.78147,-0.53291 0.0507,0.0507 0.0507,0.0507 -0.31027,0.40678 -0.31027,0.40678 -0.97025,0.88407 -0.97025,0.88406 -2.23426,1.83979 -2.23426,1.83979 -2.06071,1.56085 -2.06072,1.56085 -1.99623,1.35276 -1.99623,1.35277 -1.76389,1.05835 -1.76389,1.05834 -1.70509,0.8914 -1.70509,0.89139 -1.52871,0.68959 -1.5287,0.68959 -0.99954,0.39817 -0.99953,0.39816 -0.15626,0.11577 -0.15626,0.11577 0.45024,0.23394 0.45024,0.23394 1.272,0.56509 1.272,0.56509 1.60902,0.51607 1.60902,0.51607 1.29351,0.25492 1.29352,0.25492 0.76435,0.0981 0.76436,0.0981 z m -7.60692,-13.27312 h -0.063 l -0.4468,-0.35507 -0.4468,-0.35507 -3.56752,-3.5267 -3.56752,-3.52669 v -0.14643 -0.14643 l 3.98211,-3.98082 3.98212,-3.980822 0.22182,0.122989 0.22182,0.122988 3.80832,3.816315 3.80831,3.81631 -0.0824,0.32828 -0.0824,0.32829 -1.42373,1.36018 -1.42373,1.36018 -2.42875,2.38125 -2.42876,2.38125 z m 0.19859,-2.67731 0.35278,-0.29304 2.50375,-2.45852 2.50375,-2.45853 -0.23229,-0.31903 -0.23229,-0.31903 -2.59489,-2.58609 -2.5949,-2.58609 -2.87945,2.87766 -2.87946,2.87766 2.85011,2.77902 2.85011,2.77902 z m 53.60409,2.55351 -0.21705,-0.006 -3.91122,-3.84494 -3.91122,-3.84495 0.001,-0.15325 10e-4,-0.15325 3.24861,-3.34038 3.2486,-3.340368 0.69914,-0.608095 0.69915,-0.608095 0.31498,0.154333 0.31498,0.154333 3.73357,3.767042 3.73356,3.76704 0.003,0.23914 0.003,0.23914 -1.43024,1.35232 -1.43025,1.35231 -2.44174,2.44005 -2.44174,2.44005 z m 0.42971,-2.70524 0.52916,-0.44777 2.35115,-2.36014 2.35115,-2.36015 -2.85062,-2.85062 -2.85062,-2.85061 -2.87254,2.87075 -2.87255,2.87075 2.84285,2.78777 2.84285,2.78778 z M 421.58847,88.4478 h -0.14838 l -3.92861,-3.998469 -3.92861,-3.998469 -0.0296,-0.08835 -0.0296,-0.08835 4.0479,-4.046622 4.0479,-4.046623 0.33259,0.216802 0.33258,0.216802 1.52871,1.540432 1.5287,1.540432 2.15167,2.21736 2.15166,2.217361 -0.035,0.162756 -0.035,0.162756 -3.9193,3.996094 -3.91931,3.996094 z m 0.0495,-2.469444 h 0.0606 l 2.8572,-2.858987 2.8572,-2.858986 -2.89452,-2.850144 -2.89451,-2.850144 -0.78673,0.703492 -0.78674,0.703492 -2.1156,2.124783 -2.11561,2.124782 2.87906,2.880856 2.87906,2.880856 z"
       id="path109" /><path
       style="fill:#5ee1ee;fill-opacity:1;stroke:#000000;stroke-width:0.954594"
       d="m 1517.9657,480.09177 c -9.2657,-0.71483 -22.7416,-4.37349 -32.9801,-8.954 -2.8831,-1.28983 -5.642,-2.60724 -6.1309,-2.92758 l -0.8889,-0.58244 0.8485,-0.44462 c 0.4668,-0.24455 2.4653,-1.08872 4.4413,-1.87593 25.2688,-10.06706 51.2086,-26.34908 80.3343,-50.42455 10.1567,-8.39561 14.9416,-12.66736 16.5197,-14.74795 1.0977,-1.44714 1.4492,-2.38711 0.8928,-2.38716 -0.1459,-2e-5 -3.2514,0.88363 -6.9013,1.96365 l -6.6361,1.96368 -1.0515,-0.7487 c -1.5508,-1.10428 -16.2768,-16.84807 -22.815,-24.39181 -10.2207,-11.79259 -20.6206,-24.51358 -23.2236,-28.4067 l -1.6185,-2.42053 1.0268,-3.03749 c 0.7627,-2.25649 1.0267,-3.70221 1.0267,-5.62281 v -2.58532 h -1.2176 c -1.0854,0 -1.7671,0.53129 -6.2756,4.89071 -4.5558,4.40523 -10.202,8.89787 -11.1825,8.89787 -0.2061,0 -1.1257,-0.97578 -2.0434,-2.16839 -1.1557,-1.50197 -1.5696,-2.30894 -1.3465,-2.6257 0.1771,-0.25152 3.9813,-3.43223 8.4538,-7.06824 10.2203,-8.30891 9.3467,-7.46141 8.3855,-8.13468 -0.5516,-0.38635 -0.7841,-0.91015 -0.7841,-1.76657 v -1.21739 h -2.4347 -2.4346 l -5.4745,-7.33623 c -8.9872,-12.0437 -17.4224,-25.2585 -22.2155,-34.80342 l -1.7202,-3.42555 1.8916,-1.08226 c 1.0404,-0.59524 2.1137,-1.08225 2.3852,-1.08225 0.2715,0 2.156,2.18761 4.1877,4.86136 2.0317,2.67375 6.8133,8.67974 10.6259,13.34664 3.8125,4.6669 8.8876,11.03087 11.2779,14.14214 2.3904,3.11127 5.1233,6.45735 6.0732,7.43574 1.6031,1.65116 1.7271,1.90675 1.7271,3.55985 v 1.78097 l 3.432,0.60812 3.4321,0.60811 2.49,-1.72212 c 4.9374,-3.41484 13.9694,-8.60949 14.6139,-8.40496 0.3452,0.10958 0.9073,0.67247 1.2489,1.25085 0.5895,0.99783 0.59,1.09935 0.01,1.98484 -0.9867,1.5058 -5.8007,5.18988 -9.9177,7.58985 -4.2278,2.46452 -6.4702,4.11861 -6.4702,4.77269 0,0.96353 1.7963,1.53366 6.575,2.08689 3.6549,0.42313 5.0613,0.7248 5.484,1.17638 0.3126,0.33402 3.4087,4.02794 6.8801,8.20871 9.3495,11.25993 17.1831,19.75462 29.5538,32.04783 13.0571,12.97524 16.034,15.67733 17.268,15.6739 1.2964,-0.004 6.955,-5.07686 18.8568,-16.90623 10.4704,-10.40671 18.7812,-19.49916 29.522,-32.29858 6.8378,-8.14839 5.8151,-7.44923 11.5485,-7.8948 6.925,-0.53817 7.8455,-1.77632 3.4472,-4.63694 -1.507,-0.98015 -3.7742,-2.35369 -5.0381,-3.0523 -2.4775,-1.36933 -8.1129,-5.94174 -8.6172,-6.99171 -0.2174,-0.4527 -0.078,-1.01519 0.4708,-1.90368 0.4287,-0.6936 0.9229,-1.2611 1.0984,-1.2611 0.1754,0 4.1239,2.30877 8.7745,5.13062 l 8.4555,5.13062 3.2543,-0.61522 3.2544,-0.61521 -0.1749,-1.55191 c -0.1692,-1.50112 -0.097,-1.64022 2.1951,-4.25024 1.3035,-1.48408 8.8507,-10.81238 16.7714,-20.72956 7.9207,-9.91717 14.6286,-18.18694 14.9063,-18.37726 0.7065,-0.48416 4.4092,1.52467 4.4109,2.39306 0,0.92849 -1.0022,2.76897 -6.1161,11.21123 -6.3377,10.46254 -11.3876,17.97454 -17.8832,26.60194 l -5.5212,7.33327 -2.3952,0.003 c -2.6492,0.003 -2.7472,0.0926 -3.1847,2.90315 l -0.2039,1.3092 8.6372,6.91531 c 4.7504,3.80342 8.6371,7.00161 8.6371,7.10709 0,0.45484 -2.9315,4.45737 -3.3949,4.63518 -0.7052,0.27062 -6.0292,-3.90339 -11.8048,-9.2549 -4.3927,-4.0701 -4.8779,-4.41968 -6.1347,-4.41968 h -1.3648 l 0.2382,2.56326 c 0.131,1.40979 0.6284,4.06405 1.1054,5.89835 l 0.8672,3.33508 -1.6318,2.45404 c -6.0568,9.10857 -18.0774,22.95816 -45.6282,52.57086 -3.347,3.5974 -6.9827,7.6942 -8.0795,9.104 -2.3454,3.01469 -2.1352,3.1603 2.1698,1.5026 1.515,-0.58336 3.0395,-1.06066 3.3878,-1.06066 0.3483,0 4.568,3.23481 9.3772,7.18847 20.2744,16.6677 38.0816,28.84995 55.7666,38.15104 6.3371,3.3329 17.0846,8.18721 22.0588,9.9633 4.2434,1.51516 4.3064,1.30872 -1.1992,3.9325 -7.1709,3.41743 -13.2912,5.64398 -20.3264,7.3947 -5.5705,1.38621 -15.6704,3.02171 -18.6528,3.02048 -1.1153,-4.6e-4 -1.1492,-0.0446 -1.1539,-1.50308 -0.01,-2.7483 -0.029,-2.76796 -5.8294,-5.66095 -9.9299,-4.95275 -22.9183,-13.33224 -36.769,-23.72161 -10.3169,-7.73871 -21.7435,-17.05516 -21.7435,-17.72815 0,-0.27133 1.591,-3.28651 3.5355,-6.70039 1.9446,-3.41388 3.5356,-6.35622 3.5356,-6.53851 0,-0.93017 -0.9819,-0.61311 -3.269,1.05555 -1.3905,1.0146 -9.0595,7.04262 -17.0422,13.3956 -24.0342,19.12765 -34.3891,26.63825 -48.1167,34.89982 -3.5086,2.11155 -8.3214,4.78849 -10.695,5.94875 l -4.3157,2.10955 v 2.22147 c 0,2.08282 -0.05,2.21836 -0.7955,2.17165 -0.4375,-0.0274 -2.4732,-0.17927 -4.5236,-0.33746 z"
       id="path110"
       transform="scale(0.26458333)" /><path
       style="fill:#5ee1ee;fill-opacity:1;stroke:#000000;stroke-width:0.954594"
       d="m 1481.031,410.63956 -10.6025,-10.3679 10.6942,-10.71807 10.6942,-10.71808 10.0477,10.04301 c 5.5262,5.52365 10.2485,10.41827 10.4939,10.87693 0.4279,0.79952 0.061,1.2104 -8.8978,9.95795 -5.1392,5.01821 -9.9028,9.61227 -10.5857,10.20904 l -1.2416,1.08501 z"
       id="path111"
       transform="scale(0.26458333)" /><path
       style="fill:#5ee1ee;fill-opacity:1;stroke:#000000;stroke-width:0.954594"
       d="m 1589.2225,320.54603 c -2.3335,-2.37878 -7.1445,-7.26481 -10.6912,-10.85785 l -6.4486,-6.53279 8.5699,-8.68089 c 4.7134,-4.77449 9.5448,-9.50279 10.7363,-10.50734 l 2.1663,-1.82644 10.7384,10.57798 10.7383,10.57799 -10.7834,10.7872 -10.7834,10.7872 z"
       id="path112"
       transform="scale(0.26458333)" /><path
       style="fill:#5ee1ee;fill-opacity:1;stroke:#000000;stroke-width:0.954594"
       d="m 1684.5051,410.50341 -10.4298,-10.22363 10.6942,-10.72219 10.6943,-10.72219 10.6205,10.60513 10.6206,10.60513 -10.4102,10.34144 c -5.7257,5.68779 -10.6239,10.3411 -10.885,10.34069 -0.2611,-4.1e-4 -5.1682,-4.60138 -10.9046,-10.22438 z"
       id="path113"
       transform="scale(0.26458333)" /></g></svg>
